%TF.GenerationSoftware,KiCad,Pcbnew,7.0.11*%
%TF.CreationDate,2026-07-28T13:10:12-04:00*%
%TF.ProjectId,clock_iv22_board,636c6f63-6b5f-4697-9632-325f626f6172,rev?*%
%TF.SameCoordinates,Original*%
%TF.FileFunction,Drillmap*%
%TF.FilePolarity,Positive*%
%FSLAX45Y45*%
G04 Gerber Fmt 4.5, Leading zero omitted, Abs format (unit mm)*
G04 Created by KiCad (PCBNEW 7.0.11) date 2026-07-28 13:10:12*
%MOMM*%
%LPD*%
G01*
G04 APERTURE LIST*
%ADD10C,0.050000*%
%ADD11C,0.150000*%
%ADD12C,0.200000*%
%ADD13C,0.430000*%
G04 APERTURE END LIST*
D10*
X2025000Y-9750000D02*
X14025000Y-9750000D01*
X14025000Y-15600000D01*
X2025000Y-15600000D01*
X2025000Y-9750000D01*
D11*
X8832449Y-11519768D02*
X8832449Y-13846768D01*
X11034809Y-13843668D02*
X11151649Y-13843668D01*
X11151649Y-11522108D02*
X11034809Y-11522108D01*
X13357564Y-11518572D02*
X13357185Y-13847585D01*
X11034808Y-11522108D02*
G75*
G03*
X8832436Y-11519755I-1102360J-1097660D01*
G01*
X8832815Y-13846401D02*
G75*
G03*
X11034808Y-13843668I1099633J1099634D01*
G01*
X13357564Y-11518572D02*
G75*
G03*
X11151649Y-11522108I-1101196J-1101196D01*
G01*
X11151649Y-13843668D02*
G75*
G03*
X13357185Y-13847585I1104720J1096900D01*
G01*
X4877360Y-13843400D02*
X4994200Y-13843400D01*
X4994200Y-11521840D02*
X4877360Y-11521840D01*
X4994200Y-13843400D02*
G75*
G03*
X7199737Y-13847317I1104720J1096900D01*
G01*
X7200115Y-11518304D02*
G75*
G03*
X4994200Y-11521840I-1101196J-1101196D01*
G01*
X7200116Y-11518304D02*
X7199737Y-13847317D01*
X2675000Y-11519500D02*
X2675000Y-13846500D01*
X4877360Y-11521840D02*
G75*
G03*
X2674988Y-11519487I-1102360J-1097660D01*
G01*
X2675367Y-13846133D02*
G75*
G03*
X4877360Y-13843400I1099633J1099634D01*
G01*
D12*
D13*
X2360000Y-10085000D02*
X2790000Y-10515000D01*
X2790000Y-10085000D02*
X2360000Y-10515000D01*
X2360000Y-14835000D02*
X2790000Y-15265000D01*
X2790000Y-14835000D02*
X2360000Y-15265000D01*
X13260000Y-10085000D02*
X13690000Y-10515000D01*
X13690000Y-10085000D02*
X13260000Y-10515000D01*
X13260000Y-14835000D02*
X13690000Y-15265000D01*
X13690000Y-14835000D02*
X13260000Y-15265000D01*
D12*
X2283277Y-15913984D02*
X2283277Y-15713984D01*
X2283277Y-15713984D02*
X2330896Y-15713984D01*
X2330896Y-15713984D02*
X2359467Y-15723508D01*
X2359467Y-15723508D02*
X2378515Y-15742555D01*
X2378515Y-15742555D02*
X2388039Y-15761603D01*
X2388039Y-15761603D02*
X2397563Y-15799698D01*
X2397563Y-15799698D02*
X2397563Y-15828269D01*
X2397563Y-15828269D02*
X2388039Y-15866365D01*
X2388039Y-15866365D02*
X2378515Y-15885412D01*
X2378515Y-15885412D02*
X2359467Y-15904460D01*
X2359467Y-15904460D02*
X2330896Y-15913984D01*
X2330896Y-15913984D02*
X2283277Y-15913984D01*
X2483277Y-15913984D02*
X2483277Y-15780650D01*
X2483277Y-15818746D02*
X2492801Y-15799698D01*
X2492801Y-15799698D02*
X2502324Y-15790174D01*
X2502324Y-15790174D02*
X2521372Y-15780650D01*
X2521372Y-15780650D02*
X2540420Y-15780650D01*
X2607086Y-15913984D02*
X2607086Y-15780650D01*
X2607086Y-15713984D02*
X2597563Y-15723508D01*
X2597563Y-15723508D02*
X2607086Y-15733031D01*
X2607086Y-15733031D02*
X2616610Y-15723508D01*
X2616610Y-15723508D02*
X2607086Y-15713984D01*
X2607086Y-15713984D02*
X2607086Y-15733031D01*
X2730896Y-15913984D02*
X2711848Y-15904460D01*
X2711848Y-15904460D02*
X2702324Y-15885412D01*
X2702324Y-15885412D02*
X2702324Y-15713984D01*
X2835658Y-15913984D02*
X2816610Y-15904460D01*
X2816610Y-15904460D02*
X2807086Y-15885412D01*
X2807086Y-15885412D02*
X2807086Y-15713984D01*
X3064229Y-15913984D02*
X3064229Y-15713984D01*
X3064229Y-15713984D02*
X3130896Y-15856841D01*
X3130896Y-15856841D02*
X3197562Y-15713984D01*
X3197562Y-15713984D02*
X3197562Y-15913984D01*
X3378515Y-15913984D02*
X3378515Y-15809222D01*
X3378515Y-15809222D02*
X3368991Y-15790174D01*
X3368991Y-15790174D02*
X3349943Y-15780650D01*
X3349943Y-15780650D02*
X3311848Y-15780650D01*
X3311848Y-15780650D02*
X3292801Y-15790174D01*
X3378515Y-15904460D02*
X3359467Y-15913984D01*
X3359467Y-15913984D02*
X3311848Y-15913984D01*
X3311848Y-15913984D02*
X3292801Y-15904460D01*
X3292801Y-15904460D02*
X3283277Y-15885412D01*
X3283277Y-15885412D02*
X3283277Y-15866365D01*
X3283277Y-15866365D02*
X3292801Y-15847317D01*
X3292801Y-15847317D02*
X3311848Y-15837793D01*
X3311848Y-15837793D02*
X3359467Y-15837793D01*
X3359467Y-15837793D02*
X3378515Y-15828269D01*
X3473753Y-15780650D02*
X3473753Y-15980650D01*
X3473753Y-15790174D02*
X3492801Y-15780650D01*
X3492801Y-15780650D02*
X3530896Y-15780650D01*
X3530896Y-15780650D02*
X3549943Y-15790174D01*
X3549943Y-15790174D02*
X3559467Y-15799698D01*
X3559467Y-15799698D02*
X3568991Y-15818746D01*
X3568991Y-15818746D02*
X3568991Y-15875888D01*
X3568991Y-15875888D02*
X3559467Y-15894936D01*
X3559467Y-15894936D02*
X3549943Y-15904460D01*
X3549943Y-15904460D02*
X3530896Y-15913984D01*
X3530896Y-15913984D02*
X3492801Y-15913984D01*
X3492801Y-15913984D02*
X3473753Y-15904460D01*
X3654705Y-15894936D02*
X3664229Y-15904460D01*
X3664229Y-15904460D02*
X3654705Y-15913984D01*
X3654705Y-15913984D02*
X3645182Y-15904460D01*
X3645182Y-15904460D02*
X3654705Y-15894936D01*
X3654705Y-15894936D02*
X3654705Y-15913984D01*
X3654705Y-15790174D02*
X3664229Y-15799698D01*
X3664229Y-15799698D02*
X3654705Y-15809222D01*
X3654705Y-15809222D02*
X3645182Y-15799698D01*
X3645182Y-15799698D02*
X3654705Y-15790174D01*
X3654705Y-15790174D02*
X3654705Y-15809222D01*
X1822500Y-16142500D02*
X2022500Y-16342500D01*
X2022500Y-16142500D02*
X1822500Y-16342500D01*
X2368991Y-16200650D02*
X2368991Y-16333984D01*
X2321372Y-16124460D02*
X2273753Y-16267317D01*
X2273753Y-16267317D02*
X2397563Y-16267317D01*
X2473753Y-16314936D02*
X2483277Y-16324460D01*
X2483277Y-16324460D02*
X2473753Y-16333984D01*
X2473753Y-16333984D02*
X2464229Y-16324460D01*
X2464229Y-16324460D02*
X2473753Y-16314936D01*
X2473753Y-16314936D02*
X2473753Y-16333984D01*
X2549944Y-16133984D02*
X2673753Y-16133984D01*
X2673753Y-16133984D02*
X2607086Y-16210174D01*
X2607086Y-16210174D02*
X2635658Y-16210174D01*
X2635658Y-16210174D02*
X2654705Y-16219698D01*
X2654705Y-16219698D02*
X2664229Y-16229222D01*
X2664229Y-16229222D02*
X2673753Y-16248269D01*
X2673753Y-16248269D02*
X2673753Y-16295888D01*
X2673753Y-16295888D02*
X2664229Y-16314936D01*
X2664229Y-16314936D02*
X2654705Y-16324460D01*
X2654705Y-16324460D02*
X2635658Y-16333984D01*
X2635658Y-16333984D02*
X2578515Y-16333984D01*
X2578515Y-16333984D02*
X2559467Y-16324460D01*
X2559467Y-16324460D02*
X2549944Y-16314936D01*
X2797562Y-16133984D02*
X2816610Y-16133984D01*
X2816610Y-16133984D02*
X2835658Y-16143508D01*
X2835658Y-16143508D02*
X2845182Y-16153031D01*
X2845182Y-16153031D02*
X2854705Y-16172079D01*
X2854705Y-16172079D02*
X2864229Y-16210174D01*
X2864229Y-16210174D02*
X2864229Y-16257793D01*
X2864229Y-16257793D02*
X2854705Y-16295888D01*
X2854705Y-16295888D02*
X2845182Y-16314936D01*
X2845182Y-16314936D02*
X2835658Y-16324460D01*
X2835658Y-16324460D02*
X2816610Y-16333984D01*
X2816610Y-16333984D02*
X2797562Y-16333984D01*
X2797562Y-16333984D02*
X2778515Y-16324460D01*
X2778515Y-16324460D02*
X2768991Y-16314936D01*
X2768991Y-16314936D02*
X2759467Y-16295888D01*
X2759467Y-16295888D02*
X2749944Y-16257793D01*
X2749944Y-16257793D02*
X2749944Y-16210174D01*
X2749944Y-16210174D02*
X2759467Y-16172079D01*
X2759467Y-16172079D02*
X2768991Y-16153031D01*
X2768991Y-16153031D02*
X2778515Y-16143508D01*
X2778515Y-16143508D02*
X2797562Y-16133984D01*
X2988039Y-16133984D02*
X3007086Y-16133984D01*
X3007086Y-16133984D02*
X3026134Y-16143508D01*
X3026134Y-16143508D02*
X3035658Y-16153031D01*
X3035658Y-16153031D02*
X3045182Y-16172079D01*
X3045182Y-16172079D02*
X3054705Y-16210174D01*
X3054705Y-16210174D02*
X3054705Y-16257793D01*
X3054705Y-16257793D02*
X3045182Y-16295888D01*
X3045182Y-16295888D02*
X3035658Y-16314936D01*
X3035658Y-16314936D02*
X3026134Y-16324460D01*
X3026134Y-16324460D02*
X3007086Y-16333984D01*
X3007086Y-16333984D02*
X2988039Y-16333984D01*
X2988039Y-16333984D02*
X2968991Y-16324460D01*
X2968991Y-16324460D02*
X2959467Y-16314936D01*
X2959467Y-16314936D02*
X2949943Y-16295888D01*
X2949943Y-16295888D02*
X2940420Y-16257793D01*
X2940420Y-16257793D02*
X2940420Y-16210174D01*
X2940420Y-16210174D02*
X2949943Y-16172079D01*
X2949943Y-16172079D02*
X2959467Y-16153031D01*
X2959467Y-16153031D02*
X2968991Y-16143508D01*
X2968991Y-16143508D02*
X2988039Y-16133984D01*
X3140420Y-16333984D02*
X3140420Y-16200650D01*
X3140420Y-16219698D02*
X3149943Y-16210174D01*
X3149943Y-16210174D02*
X3168991Y-16200650D01*
X3168991Y-16200650D02*
X3197563Y-16200650D01*
X3197563Y-16200650D02*
X3216610Y-16210174D01*
X3216610Y-16210174D02*
X3226134Y-16229222D01*
X3226134Y-16229222D02*
X3226134Y-16333984D01*
X3226134Y-16229222D02*
X3235658Y-16210174D01*
X3235658Y-16210174D02*
X3254705Y-16200650D01*
X3254705Y-16200650D02*
X3283277Y-16200650D01*
X3283277Y-16200650D02*
X3302324Y-16210174D01*
X3302324Y-16210174D02*
X3311848Y-16229222D01*
X3311848Y-16229222D02*
X3311848Y-16333984D01*
X3407086Y-16333984D02*
X3407086Y-16200650D01*
X3407086Y-16219698D02*
X3416610Y-16210174D01*
X3416610Y-16210174D02*
X3435658Y-16200650D01*
X3435658Y-16200650D02*
X3464229Y-16200650D01*
X3464229Y-16200650D02*
X3483277Y-16210174D01*
X3483277Y-16210174D02*
X3492801Y-16229222D01*
X3492801Y-16229222D02*
X3492801Y-16333984D01*
X3492801Y-16229222D02*
X3502324Y-16210174D01*
X3502324Y-16210174D02*
X3521372Y-16200650D01*
X3521372Y-16200650D02*
X3549943Y-16200650D01*
X3549943Y-16200650D02*
X3568991Y-16210174D01*
X3568991Y-16210174D02*
X3578515Y-16229222D01*
X3578515Y-16229222D02*
X3578515Y-16333984D01*
X3968991Y-16124460D02*
X3797563Y-16381603D01*
X4226134Y-16133984D02*
X4245182Y-16133984D01*
X4245182Y-16133984D02*
X4264229Y-16143508D01*
X4264229Y-16143508D02*
X4273753Y-16153031D01*
X4273753Y-16153031D02*
X4283277Y-16172079D01*
X4283277Y-16172079D02*
X4292801Y-16210174D01*
X4292801Y-16210174D02*
X4292801Y-16257793D01*
X4292801Y-16257793D02*
X4283277Y-16295888D01*
X4283277Y-16295888D02*
X4273753Y-16314936D01*
X4273753Y-16314936D02*
X4264229Y-16324460D01*
X4264229Y-16324460D02*
X4245182Y-16333984D01*
X4245182Y-16333984D02*
X4226134Y-16333984D01*
X4226134Y-16333984D02*
X4207087Y-16324460D01*
X4207087Y-16324460D02*
X4197563Y-16314936D01*
X4197563Y-16314936D02*
X4188039Y-16295888D01*
X4188039Y-16295888D02*
X4178515Y-16257793D01*
X4178515Y-16257793D02*
X4178515Y-16210174D01*
X4178515Y-16210174D02*
X4188039Y-16172079D01*
X4188039Y-16172079D02*
X4197563Y-16153031D01*
X4197563Y-16153031D02*
X4207087Y-16143508D01*
X4207087Y-16143508D02*
X4226134Y-16133984D01*
X4378515Y-16314936D02*
X4388039Y-16324460D01*
X4388039Y-16324460D02*
X4378515Y-16333984D01*
X4378515Y-16333984D02*
X4368991Y-16324460D01*
X4368991Y-16324460D02*
X4378515Y-16314936D01*
X4378515Y-16314936D02*
X4378515Y-16333984D01*
X4578515Y-16333984D02*
X4464229Y-16333984D01*
X4521372Y-16333984D02*
X4521372Y-16133984D01*
X4521372Y-16133984D02*
X4502325Y-16162555D01*
X4502325Y-16162555D02*
X4483277Y-16181603D01*
X4483277Y-16181603D02*
X4464229Y-16191127D01*
X4749944Y-16133984D02*
X4711848Y-16133984D01*
X4711848Y-16133984D02*
X4692801Y-16143508D01*
X4692801Y-16143508D02*
X4683277Y-16153031D01*
X4683277Y-16153031D02*
X4664229Y-16181603D01*
X4664229Y-16181603D02*
X4654706Y-16219698D01*
X4654706Y-16219698D02*
X4654706Y-16295888D01*
X4654706Y-16295888D02*
X4664229Y-16314936D01*
X4664229Y-16314936D02*
X4673753Y-16324460D01*
X4673753Y-16324460D02*
X4692801Y-16333984D01*
X4692801Y-16333984D02*
X4730896Y-16333984D01*
X4730896Y-16333984D02*
X4749944Y-16324460D01*
X4749944Y-16324460D02*
X4759468Y-16314936D01*
X4759468Y-16314936D02*
X4768991Y-16295888D01*
X4768991Y-16295888D02*
X4768991Y-16248269D01*
X4768991Y-16248269D02*
X4759468Y-16229222D01*
X4759468Y-16229222D02*
X4749944Y-16219698D01*
X4749944Y-16219698D02*
X4730896Y-16210174D01*
X4730896Y-16210174D02*
X4692801Y-16210174D01*
X4692801Y-16210174D02*
X4673753Y-16219698D01*
X4673753Y-16219698D02*
X4664229Y-16229222D01*
X4664229Y-16229222D02*
X4654706Y-16248269D01*
X4864229Y-16333984D02*
X4902325Y-16333984D01*
X4902325Y-16333984D02*
X4921372Y-16324460D01*
X4921372Y-16324460D02*
X4930896Y-16314936D01*
X4930896Y-16314936D02*
X4949944Y-16286365D01*
X4949944Y-16286365D02*
X4959468Y-16248269D01*
X4959468Y-16248269D02*
X4959468Y-16172079D01*
X4959468Y-16172079D02*
X4949944Y-16153031D01*
X4949944Y-16153031D02*
X4940420Y-16143508D01*
X4940420Y-16143508D02*
X4921372Y-16133984D01*
X4921372Y-16133984D02*
X4883277Y-16133984D01*
X4883277Y-16133984D02*
X4864229Y-16143508D01*
X4864229Y-16143508D02*
X4854706Y-16153031D01*
X4854706Y-16153031D02*
X4845182Y-16172079D01*
X4845182Y-16172079D02*
X4845182Y-16219698D01*
X4845182Y-16219698D02*
X4854706Y-16238746D01*
X4854706Y-16238746D02*
X4864229Y-16248269D01*
X4864229Y-16248269D02*
X4883277Y-16257793D01*
X4883277Y-16257793D02*
X4921372Y-16257793D01*
X4921372Y-16257793D02*
X4940420Y-16248269D01*
X4940420Y-16248269D02*
X4949944Y-16238746D01*
X4949944Y-16238746D02*
X4959468Y-16219698D01*
X5026134Y-16133984D02*
X5149944Y-16133984D01*
X5149944Y-16133984D02*
X5083277Y-16210174D01*
X5083277Y-16210174D02*
X5111849Y-16210174D01*
X5111849Y-16210174D02*
X5130896Y-16219698D01*
X5130896Y-16219698D02*
X5140420Y-16229222D01*
X5140420Y-16229222D02*
X5149944Y-16248269D01*
X5149944Y-16248269D02*
X5149944Y-16295888D01*
X5149944Y-16295888D02*
X5140420Y-16314936D01*
X5140420Y-16314936D02*
X5130896Y-16324460D01*
X5130896Y-16324460D02*
X5111849Y-16333984D01*
X5111849Y-16333984D02*
X5054706Y-16333984D01*
X5054706Y-16333984D02*
X5035658Y-16324460D01*
X5035658Y-16324460D02*
X5026134Y-16314936D01*
X5226134Y-16133984D02*
X5226134Y-16172079D01*
X5302325Y-16133984D02*
X5302325Y-16172079D01*
X5597563Y-16410174D02*
X5588039Y-16400650D01*
X5588039Y-16400650D02*
X5568991Y-16372079D01*
X5568991Y-16372079D02*
X5559468Y-16353031D01*
X5559468Y-16353031D02*
X5549944Y-16324460D01*
X5549944Y-16324460D02*
X5540420Y-16276841D01*
X5540420Y-16276841D02*
X5540420Y-16238746D01*
X5540420Y-16238746D02*
X5549944Y-16191127D01*
X5549944Y-16191127D02*
X5559468Y-16162555D01*
X5559468Y-16162555D02*
X5568991Y-16143508D01*
X5568991Y-16143508D02*
X5588039Y-16114936D01*
X5588039Y-16114936D02*
X5597563Y-16105412D01*
X5759468Y-16200650D02*
X5759468Y-16333984D01*
X5711848Y-16124460D02*
X5664229Y-16267317D01*
X5664229Y-16267317D02*
X5788039Y-16267317D01*
X6016610Y-16333984D02*
X6016610Y-16133984D01*
X6102325Y-16333984D02*
X6102325Y-16229222D01*
X6102325Y-16229222D02*
X6092801Y-16210174D01*
X6092801Y-16210174D02*
X6073753Y-16200650D01*
X6073753Y-16200650D02*
X6045182Y-16200650D01*
X6045182Y-16200650D02*
X6026134Y-16210174D01*
X6026134Y-16210174D02*
X6016610Y-16219698D01*
X6226134Y-16333984D02*
X6207087Y-16324460D01*
X6207087Y-16324460D02*
X6197563Y-16314936D01*
X6197563Y-16314936D02*
X6188039Y-16295888D01*
X6188039Y-16295888D02*
X6188039Y-16238746D01*
X6188039Y-16238746D02*
X6197563Y-16219698D01*
X6197563Y-16219698D02*
X6207087Y-16210174D01*
X6207087Y-16210174D02*
X6226134Y-16200650D01*
X6226134Y-16200650D02*
X6254706Y-16200650D01*
X6254706Y-16200650D02*
X6273753Y-16210174D01*
X6273753Y-16210174D02*
X6283277Y-16219698D01*
X6283277Y-16219698D02*
X6292801Y-16238746D01*
X6292801Y-16238746D02*
X6292801Y-16295888D01*
X6292801Y-16295888D02*
X6283277Y-16314936D01*
X6283277Y-16314936D02*
X6273753Y-16324460D01*
X6273753Y-16324460D02*
X6254706Y-16333984D01*
X6254706Y-16333984D02*
X6226134Y-16333984D01*
X6407087Y-16333984D02*
X6388039Y-16324460D01*
X6388039Y-16324460D02*
X6378515Y-16305412D01*
X6378515Y-16305412D02*
X6378515Y-16133984D01*
X6559468Y-16324460D02*
X6540420Y-16333984D01*
X6540420Y-16333984D02*
X6502325Y-16333984D01*
X6502325Y-16333984D02*
X6483277Y-16324460D01*
X6483277Y-16324460D02*
X6473753Y-16305412D01*
X6473753Y-16305412D02*
X6473753Y-16229222D01*
X6473753Y-16229222D02*
X6483277Y-16210174D01*
X6483277Y-16210174D02*
X6502325Y-16200650D01*
X6502325Y-16200650D02*
X6540420Y-16200650D01*
X6540420Y-16200650D02*
X6559468Y-16210174D01*
X6559468Y-16210174D02*
X6568991Y-16229222D01*
X6568991Y-16229222D02*
X6568991Y-16248269D01*
X6568991Y-16248269D02*
X6473753Y-16267317D01*
X6645182Y-16324460D02*
X6664230Y-16333984D01*
X6664230Y-16333984D02*
X6702325Y-16333984D01*
X6702325Y-16333984D02*
X6721372Y-16324460D01*
X6721372Y-16324460D02*
X6730896Y-16305412D01*
X6730896Y-16305412D02*
X6730896Y-16295888D01*
X6730896Y-16295888D02*
X6721372Y-16276841D01*
X6721372Y-16276841D02*
X6702325Y-16267317D01*
X6702325Y-16267317D02*
X6673753Y-16267317D01*
X6673753Y-16267317D02*
X6654706Y-16257793D01*
X6654706Y-16257793D02*
X6645182Y-16238746D01*
X6645182Y-16238746D02*
X6645182Y-16229222D01*
X6645182Y-16229222D02*
X6654706Y-16210174D01*
X6654706Y-16210174D02*
X6673753Y-16200650D01*
X6673753Y-16200650D02*
X6702325Y-16200650D01*
X6702325Y-16200650D02*
X6721372Y-16210174D01*
X6797563Y-16410174D02*
X6807087Y-16400650D01*
X6807087Y-16400650D02*
X6826134Y-16372079D01*
X6826134Y-16372079D02*
X6835658Y-16353031D01*
X6835658Y-16353031D02*
X6845182Y-16324460D01*
X6845182Y-16324460D02*
X6854706Y-16276841D01*
X6854706Y-16276841D02*
X6854706Y-16238746D01*
X6854706Y-16238746D02*
X6845182Y-16191127D01*
X6845182Y-16191127D02*
X6835658Y-16162555D01*
X6835658Y-16162555D02*
X6826134Y-16143508D01*
X6826134Y-16143508D02*
X6807087Y-16114936D01*
X6807087Y-16114936D02*
X6797563Y-16105412D01*
M02*
