%TF.GenerationSoftware,KiCad,Pcbnew,7.0.11*%
%TF.CreationDate,2026-07-28T13:10:12-04:00*%
%TF.ProjectId,clock_iv22_board,636c6f63-6b5f-4697-9632-325f626f6172,rev?*%
%TF.SameCoordinates,Original*%
%TF.FileFunction,Drillmap*%
%TF.FilePolarity,Positive*%
%FSLAX45Y45*%
G04 Gerber Fmt 4.5, Leading zero omitted, Abs format (unit mm)*
G04 Created by KiCad (PCBNEW 7.0.11) date 2026-07-28 13:10:12*
%MOMM*%
%LPD*%
G01*
G04 APERTURE LIST*
%ADD10C,0.050000*%
%ADD11C,0.150000*%
%ADD12C,0.200000*%
G04 APERTURE END LIST*
D10*
X2025000Y-9750000D02*
X14025000Y-9750000D01*
X14025000Y-15600000D01*
X2025000Y-15600000D01*
X2025000Y-9750000D01*
D11*
X8832449Y-11519768D02*
X8832449Y-13846768D01*
X11034809Y-13843668D02*
X11151649Y-13843668D01*
X11151649Y-11522108D02*
X11034809Y-11522108D01*
X13357564Y-11518572D02*
X13357185Y-13847585D01*
X11034808Y-11522108D02*
G75*
G03*
X8832436Y-11519755I-1102360J-1097660D01*
G01*
X8832815Y-13846401D02*
G75*
G03*
X11034808Y-13843668I1099633J1099634D01*
G01*
X13357564Y-11518572D02*
G75*
G03*
X11151649Y-11522108I-1101196J-1101196D01*
G01*
X11151649Y-13843668D02*
G75*
G03*
X13357185Y-13847585I1104720J1096900D01*
G01*
X4877360Y-13843400D02*
X4994200Y-13843400D01*
X4994200Y-11521840D02*
X4877360Y-11521840D01*
X4994200Y-13843400D02*
G75*
G03*
X7199737Y-13847317I1104720J1096900D01*
G01*
X7200115Y-11518304D02*
G75*
G03*
X4994200Y-11521840I-1101196J-1101196D01*
G01*
X7200116Y-11518304D02*
X7199737Y-13847317D01*
X2675000Y-11519500D02*
X2675000Y-13846500D01*
X4877360Y-11521840D02*
G75*
G03*
X2674988Y-11519487I-1102360J-1097660D01*
G01*
X2675367Y-13846133D02*
G75*
G03*
X4877360Y-13843400I1099633J1099634D01*
G01*
D12*
X2283277Y-15913984D02*
X2283277Y-15713984D01*
X2283277Y-15713984D02*
X2330896Y-15713984D01*
X2330896Y-15713984D02*
X2359467Y-15723508D01*
X2359467Y-15723508D02*
X2378515Y-15742555D01*
X2378515Y-15742555D02*
X2388039Y-15761603D01*
X2388039Y-15761603D02*
X2397563Y-15799698D01*
X2397563Y-15799698D02*
X2397563Y-15828269D01*
X2397563Y-15828269D02*
X2388039Y-15866365D01*
X2388039Y-15866365D02*
X2378515Y-15885412D01*
X2378515Y-15885412D02*
X2359467Y-15904460D01*
X2359467Y-15904460D02*
X2330896Y-15913984D01*
X2330896Y-15913984D02*
X2283277Y-15913984D01*
X2483277Y-15913984D02*
X2483277Y-15780650D01*
X2483277Y-15818746D02*
X2492801Y-15799698D01*
X2492801Y-15799698D02*
X2502324Y-15790174D01*
X2502324Y-15790174D02*
X2521372Y-15780650D01*
X2521372Y-15780650D02*
X2540420Y-15780650D01*
X2607086Y-15913984D02*
X2607086Y-15780650D01*
X2607086Y-15713984D02*
X2597563Y-15723508D01*
X2597563Y-15723508D02*
X2607086Y-15733031D01*
X2607086Y-15733031D02*
X2616610Y-15723508D01*
X2616610Y-15723508D02*
X2607086Y-15713984D01*
X2607086Y-15713984D02*
X2607086Y-15733031D01*
X2730896Y-15913984D02*
X2711848Y-15904460D01*
X2711848Y-15904460D02*
X2702324Y-15885412D01*
X2702324Y-15885412D02*
X2702324Y-15713984D01*
X2835658Y-15913984D02*
X2816610Y-15904460D01*
X2816610Y-15904460D02*
X2807086Y-15885412D01*
X2807086Y-15885412D02*
X2807086Y-15713984D01*
X3064229Y-15913984D02*
X3064229Y-15713984D01*
X3064229Y-15713984D02*
X3130896Y-15856841D01*
X3130896Y-15856841D02*
X3197562Y-15713984D01*
X3197562Y-15713984D02*
X3197562Y-15913984D01*
X3378515Y-15913984D02*
X3378515Y-15809222D01*
X3378515Y-15809222D02*
X3368991Y-15790174D01*
X3368991Y-15790174D02*
X3349943Y-15780650D01*
X3349943Y-15780650D02*
X3311848Y-15780650D01*
X3311848Y-15780650D02*
X3292801Y-15790174D01*
X3378515Y-15904460D02*
X3359467Y-15913984D01*
X3359467Y-15913984D02*
X3311848Y-15913984D01*
X3311848Y-15913984D02*
X3292801Y-15904460D01*
X3292801Y-15904460D02*
X3283277Y-15885412D01*
X3283277Y-15885412D02*
X3283277Y-15866365D01*
X3283277Y-15866365D02*
X3292801Y-15847317D01*
X3292801Y-15847317D02*
X3311848Y-15837793D01*
X3311848Y-15837793D02*
X3359467Y-15837793D01*
X3359467Y-15837793D02*
X3378515Y-15828269D01*
X3473753Y-15780650D02*
X3473753Y-15980650D01*
X3473753Y-15790174D02*
X3492801Y-15780650D01*
X3492801Y-15780650D02*
X3530896Y-15780650D01*
X3530896Y-15780650D02*
X3549943Y-15790174D01*
X3549943Y-15790174D02*
X3559467Y-15799698D01*
X3559467Y-15799698D02*
X3568991Y-15818746D01*
X3568991Y-15818746D02*
X3568991Y-15875888D01*
X3568991Y-15875888D02*
X3559467Y-15894936D01*
X3559467Y-15894936D02*
X3549943Y-15904460D01*
X3549943Y-15904460D02*
X3530896Y-15913984D01*
X3530896Y-15913984D02*
X3492801Y-15913984D01*
X3492801Y-15913984D02*
X3473753Y-15904460D01*
X3654705Y-15894936D02*
X3664229Y-15904460D01*
X3664229Y-15904460D02*
X3654705Y-15913984D01*
X3654705Y-15913984D02*
X3645182Y-15904460D01*
X3645182Y-15904460D02*
X3654705Y-15894936D01*
X3654705Y-15894936D02*
X3654705Y-15913984D01*
X3654705Y-15790174D02*
X3664229Y-15799698D01*
X3664229Y-15799698D02*
X3654705Y-15809222D01*
X3654705Y-15809222D02*
X3645182Y-15799698D01*
X3645182Y-15799698D02*
X3654705Y-15790174D01*
X3654705Y-15790174D02*
X3654705Y-15809222D01*
M02*
