%TF.GenerationSoftware,KiCad,Pcbnew,7.0.11*%
%TF.CreationDate,2026-09-28T08:34:29-04:00*%
%TF.ProjectId,clock_in12_board,636c6f63-6b5f-4696-9e31-325f626f6172,rev?*%
%TF.SameCoordinates,Original*%
%TF.FileFunction,Legend,Top*%
%TF.FilePolarity,Positive*%
%FSLAX46Y46*%
G04 Gerber Fmt 4.6, Leading zero omitted, Abs format (unit mm)*
G04 Created by KiCad (PCBNEW 7.0.11) date 2026-09-28 08:34:29*
%MOMM*%
%LPD*%
G01*
G04 APERTURE LIST*
%ADD10C,0.160000*%
%ADD11C,0.375000*%
%ADD12C,0.150000*%
%ADD13C,0.200000*%
%ADD14C,0.100000*%
G04 APERTURE END LIST*
D10*
G36*
X143402609Y-51397617D02*
G01*
X143422347Y-51417354D01*
X143446191Y-51465041D01*
X143446191Y-51541555D01*
X143422347Y-51589242D01*
X143402609Y-51608979D01*
X143354925Y-51632822D01*
X143149048Y-51632822D01*
X143149048Y-51373775D01*
X143354925Y-51373775D01*
X143402609Y-51397617D01*
G37*
G36*
X143821659Y-50109618D02*
G01*
X143873002Y-50160960D01*
X143903334Y-50282287D01*
X143903334Y-50529261D01*
X143873002Y-50650588D01*
X143821657Y-50701932D01*
X143773973Y-50725775D01*
X143659362Y-50725775D01*
X143611675Y-50701931D01*
X143560332Y-50650588D01*
X143530000Y-50529260D01*
X143530000Y-50282288D01*
X143560332Y-50160961D01*
X143611675Y-50109618D01*
X143659362Y-50085775D01*
X143773973Y-50085775D01*
X143821659Y-50109618D01*
G37*
G36*
X143368689Y-48825792D02*
G01*
X143422346Y-48879449D01*
X143450709Y-48936173D01*
X143484286Y-49070479D01*
X143484286Y-49165070D01*
X143450709Y-49299375D01*
X143422346Y-49356100D01*
X143368690Y-49409757D01*
X143284636Y-49437775D01*
X143187143Y-49437775D01*
X143187143Y-48797775D01*
X143284636Y-48797775D01*
X143368689Y-48825792D01*
G37*
G36*
X144240706Y-48821618D02*
G01*
X144292049Y-48872960D01*
X144322381Y-48994287D01*
X144322381Y-49241261D01*
X144292049Y-49362588D01*
X144240704Y-49413932D01*
X144193020Y-49437775D01*
X144078409Y-49437775D01*
X144030722Y-49413931D01*
X143979379Y-49362588D01*
X143949047Y-49241260D01*
X143949047Y-48994288D01*
X143979379Y-48872961D01*
X144030722Y-48821618D01*
X144078409Y-48797775D01*
X144193020Y-48797775D01*
X144240706Y-48821618D01*
G37*
G36*
X146615715Y-52288061D02*
G01*
X142571215Y-52288061D01*
X142571215Y-52093775D01*
X142989048Y-52093775D01*
X143007764Y-52145198D01*
X143055156Y-52172560D01*
X143109048Y-52163057D01*
X143144223Y-52121137D01*
X143149048Y-52093775D01*
X143789048Y-52093775D01*
X143807764Y-52145198D01*
X143855156Y-52172560D01*
X143909048Y-52163057D01*
X143944223Y-52121137D01*
X143949048Y-52093775D01*
X144170000Y-52093775D01*
X144188716Y-52145198D01*
X144236108Y-52172560D01*
X144290000Y-52163057D01*
X144325175Y-52121137D01*
X144330000Y-52093775D01*
X144330000Y-51595019D01*
X144637684Y-52133466D01*
X144643328Y-52138245D01*
X144645859Y-52145198D01*
X144663715Y-52155507D01*
X144679447Y-52168828D01*
X144686844Y-52168860D01*
X144693251Y-52172560D01*
X144713552Y-52168980D01*
X144734170Y-52169072D01*
X144739858Y-52164341D01*
X144747143Y-52163057D01*
X144760394Y-52147264D01*
X144776246Y-52134083D01*
X144777563Y-52126803D01*
X144782318Y-52121137D01*
X144787143Y-52093775D01*
X144787143Y-51522346D01*
X144969999Y-51522346D01*
X144971635Y-51526840D01*
X144970524Y-51531492D01*
X144978445Y-51558123D01*
X145016541Y-51634314D01*
X145017807Y-51635513D01*
X145031526Y-51655106D01*
X145069621Y-51693200D01*
X145071202Y-51693937D01*
X145090413Y-51708186D01*
X145166603Y-51746281D01*
X145170367Y-51746714D01*
X145182977Y-51752338D01*
X145326840Y-51788304D01*
X145383562Y-51816665D01*
X145403299Y-51836402D01*
X145427142Y-51884088D01*
X145427142Y-51922509D01*
X145403298Y-51970195D01*
X145383562Y-51989932D01*
X145335876Y-52013775D01*
X145177268Y-52013775D01*
X145075297Y-51979785D01*
X145020594Y-51981280D01*
X144979650Y-52017587D01*
X144971623Y-52071719D01*
X145000269Y-52118345D01*
X145024701Y-52131575D01*
X145138987Y-52169670D01*
X145140735Y-52169622D01*
X145164285Y-52173775D01*
X145354761Y-52173775D01*
X145359255Y-52172139D01*
X145363907Y-52173250D01*
X145390538Y-52165329D01*
X145466729Y-52127234D01*
X145467929Y-52125966D01*
X145487521Y-52112248D01*
X145525616Y-52074152D01*
X145526354Y-52072569D01*
X145540601Y-52053361D01*
X145542928Y-52048707D01*
X145732208Y-52048707D01*
X145737588Y-52068788D01*
X145739400Y-52089490D01*
X145745450Y-52098131D01*
X145746371Y-52101566D01*
X145749283Y-52103605D01*
X145755336Y-52112249D01*
X145793432Y-52150344D01*
X145812268Y-52159127D01*
X145829294Y-52171049D01*
X145832938Y-52170730D01*
X145836108Y-52172560D01*
X145839711Y-52171924D01*
X145843028Y-52173471D01*
X145863105Y-52168091D01*
X145883809Y-52166280D01*
X145887877Y-52163431D01*
X145890000Y-52163057D01*
X145892261Y-52160361D01*
X145892454Y-52160226D01*
X145895887Y-52159307D01*
X145897924Y-52156396D01*
X145906569Y-52150344D01*
X145944663Y-52112249D01*
X145953447Y-52093410D01*
X145965369Y-52076386D01*
X145964739Y-52069195D01*
X145967791Y-52062653D01*
X145964054Y-52048707D01*
X146113160Y-52048707D01*
X146118540Y-52068788D01*
X146120352Y-52089490D01*
X146126402Y-52098131D01*
X146127323Y-52101566D01*
X146130235Y-52103605D01*
X146136288Y-52112249D01*
X146174384Y-52150344D01*
X146193220Y-52159127D01*
X146210246Y-52171049D01*
X146213890Y-52170730D01*
X146217060Y-52172560D01*
X146220663Y-52171924D01*
X146223980Y-52173471D01*
X146244057Y-52168091D01*
X146264761Y-52166280D01*
X146268829Y-52163431D01*
X146270952Y-52163057D01*
X146273213Y-52160361D01*
X146273406Y-52160226D01*
X146276839Y-52159307D01*
X146278876Y-52156396D01*
X146287521Y-52150344D01*
X146325615Y-52112249D01*
X146334399Y-52093410D01*
X146346321Y-52076386D01*
X146345691Y-52069195D01*
X146348743Y-52062653D01*
X146343363Y-52042576D01*
X146341552Y-52021872D01*
X146335498Y-52013226D01*
X146334579Y-52009794D01*
X146331668Y-52007755D01*
X146325616Y-51999112D01*
X146287521Y-51961016D01*
X146268683Y-51952231D01*
X146251658Y-51940310D01*
X146248013Y-51940628D01*
X146244844Y-51938799D01*
X146241241Y-51939434D01*
X146237926Y-51937888D01*
X146217847Y-51943267D01*
X146197143Y-51945079D01*
X146193074Y-51947927D01*
X146190952Y-51948302D01*
X146188689Y-51950997D01*
X146188499Y-51951131D01*
X146185067Y-51952051D01*
X146183028Y-51954961D01*
X146174384Y-51961015D01*
X146136287Y-51999111D01*
X146127500Y-52017953D01*
X146115582Y-52034976D01*
X146116210Y-52042164D01*
X146113160Y-52048707D01*
X145964054Y-52048707D01*
X145962411Y-52042576D01*
X145960600Y-52021872D01*
X145954546Y-52013226D01*
X145953627Y-52009794D01*
X145950716Y-52007755D01*
X145944664Y-51999112D01*
X145906569Y-51961016D01*
X145887731Y-51952231D01*
X145870706Y-51940310D01*
X145867061Y-51940628D01*
X145863892Y-51938799D01*
X145860289Y-51939434D01*
X145856974Y-51937888D01*
X145836895Y-51943267D01*
X145816191Y-51945079D01*
X145812122Y-51947927D01*
X145810000Y-51948302D01*
X145807737Y-51950997D01*
X145807547Y-51951131D01*
X145804115Y-51952051D01*
X145802076Y-51954961D01*
X145793432Y-51961015D01*
X145755335Y-51999111D01*
X145746548Y-52017953D01*
X145734630Y-52034976D01*
X145735258Y-52042164D01*
X145732208Y-52048707D01*
X145542928Y-52048707D01*
X145578696Y-51977171D01*
X145579242Y-51972419D01*
X145582317Y-51968756D01*
X145587142Y-51941394D01*
X145587142Y-51865203D01*
X145585505Y-51860708D01*
X145586617Y-51856057D01*
X145578696Y-51829426D01*
X145540601Y-51753236D01*
X145539331Y-51752033D01*
X145525615Y-51732444D01*
X145487521Y-51694349D01*
X145485935Y-51693609D01*
X145466729Y-51679364D01*
X145390538Y-51641268D01*
X145386773Y-51640834D01*
X145374164Y-51635211D01*
X145230302Y-51599245D01*
X145173579Y-51570884D01*
X145153842Y-51551147D01*
X145129999Y-51503460D01*
X145129999Y-51465041D01*
X145153842Y-51417354D01*
X145173579Y-51397617D01*
X145221265Y-51373775D01*
X145379874Y-51373775D01*
X145481844Y-51407765D01*
X145536546Y-51406270D01*
X145577491Y-51369963D01*
X145582155Y-51338514D01*
X145732180Y-51338514D01*
X145770276Y-51795657D01*
X145779112Y-51814814D01*
X145784657Y-51835169D01*
X145787523Y-51837158D01*
X145788716Y-51840436D01*
X145791736Y-51842179D01*
X145793198Y-51845348D01*
X145812282Y-51854343D01*
X145829613Y-51866372D01*
X145833086Y-51866053D01*
X145836108Y-51867798D01*
X145839542Y-51867192D01*
X145842699Y-51868680D01*
X145863104Y-51863302D01*
X145884108Y-51861377D01*
X145886563Y-51858900D01*
X145890000Y-51858295D01*
X145892241Y-51855623D01*
X145895616Y-51854734D01*
X145907791Y-51837497D01*
X145922643Y-51822523D01*
X145923845Y-51817958D01*
X145925175Y-51816375D01*
X145925994Y-51811727D01*
X145927188Y-51810038D01*
X145927856Y-51802741D01*
X145929724Y-51795657D01*
X145967819Y-51338514D01*
X146113132Y-51338514D01*
X146151228Y-51795657D01*
X146160064Y-51814814D01*
X146165609Y-51835169D01*
X146168475Y-51837158D01*
X146169668Y-51840436D01*
X146172688Y-51842179D01*
X146174150Y-51845348D01*
X146193234Y-51854343D01*
X146210565Y-51866372D01*
X146214038Y-51866053D01*
X146217060Y-51867798D01*
X146220494Y-51867192D01*
X146223651Y-51868680D01*
X146244056Y-51863302D01*
X146265060Y-51861377D01*
X146267515Y-51858900D01*
X146270952Y-51858295D01*
X146273193Y-51855623D01*
X146276568Y-51854734D01*
X146288743Y-51837497D01*
X146303595Y-51822523D01*
X146304797Y-51817958D01*
X146306127Y-51816375D01*
X146306946Y-51811727D01*
X146308140Y-51810038D01*
X146308808Y-51802741D01*
X146310676Y-51795657D01*
X146348771Y-51338513D01*
X146343348Y-51318604D01*
X146341551Y-51298061D01*
X146335335Y-51289183D01*
X146334390Y-51285713D01*
X146331501Y-51283708D01*
X146325615Y-51275301D01*
X146287521Y-51237206D01*
X146268680Y-51228420D01*
X146251658Y-51216501D01*
X146248013Y-51216819D01*
X146244844Y-51214990D01*
X146241241Y-51215625D01*
X146237925Y-51214079D01*
X146217846Y-51219458D01*
X146197144Y-51221270D01*
X146193075Y-51224118D01*
X146190952Y-51224493D01*
X146188688Y-51227190D01*
X146188500Y-51227321D01*
X146185066Y-51228242D01*
X146183026Y-51231154D01*
X146174384Y-51237206D01*
X146136288Y-51275301D01*
X146127568Y-51293998D01*
X146115668Y-51310846D01*
X146114678Y-51321639D01*
X146113160Y-51324896D01*
X146114069Y-51328289D01*
X146113132Y-51338514D01*
X145967819Y-51338514D01*
X145967819Y-51338513D01*
X145962396Y-51318604D01*
X145960599Y-51298061D01*
X145954383Y-51289183D01*
X145953438Y-51285713D01*
X145950549Y-51283708D01*
X145944663Y-51275301D01*
X145906569Y-51237206D01*
X145887728Y-51228420D01*
X145870706Y-51216501D01*
X145867061Y-51216819D01*
X145863892Y-51214990D01*
X145860289Y-51215625D01*
X145856973Y-51214079D01*
X145836894Y-51219458D01*
X145816192Y-51221270D01*
X145812123Y-51224118D01*
X145810000Y-51224493D01*
X145807736Y-51227190D01*
X145807548Y-51227321D01*
X145804114Y-51228242D01*
X145802074Y-51231154D01*
X145793432Y-51237206D01*
X145755336Y-51275301D01*
X145746616Y-51293998D01*
X145734716Y-51310846D01*
X145733726Y-51321639D01*
X145732208Y-51324896D01*
X145733117Y-51328289D01*
X145732180Y-51338514D01*
X145582155Y-51338514D01*
X145585518Y-51315832D01*
X145556872Y-51269205D01*
X145532440Y-51255975D01*
X145418155Y-51217880D01*
X145416406Y-51217927D01*
X145392857Y-51213775D01*
X145202380Y-51213775D01*
X145197885Y-51215411D01*
X145193234Y-51214300D01*
X145166603Y-51222221D01*
X145090413Y-51260316D01*
X145089210Y-51261585D01*
X145069621Y-51275302D01*
X145031526Y-51313396D01*
X145030786Y-51314981D01*
X145016541Y-51334188D01*
X144978445Y-51410379D01*
X144977898Y-51415130D01*
X144974824Y-51418794D01*
X144969999Y-51446156D01*
X144969999Y-51522346D01*
X144787143Y-51522346D01*
X144787143Y-51293775D01*
X144768427Y-51242352D01*
X144721035Y-51214990D01*
X144667143Y-51224493D01*
X144631968Y-51266413D01*
X144627143Y-51293775D01*
X144627143Y-51792530D01*
X144319459Y-51254084D01*
X144313814Y-51249304D01*
X144311284Y-51242352D01*
X144293427Y-51232042D01*
X144277696Y-51218722D01*
X144270298Y-51218689D01*
X144263892Y-51214990D01*
X144243590Y-51218569D01*
X144222973Y-51218478D01*
X144217284Y-51223208D01*
X144210000Y-51224493D01*
X144196748Y-51240285D01*
X144180897Y-51253467D01*
X144179579Y-51260746D01*
X144174825Y-51266413D01*
X144170000Y-51293775D01*
X144170000Y-52093775D01*
X143949048Y-52093775D01*
X143949048Y-51293775D01*
X143930332Y-51242352D01*
X143882940Y-51214990D01*
X143829048Y-51224493D01*
X143793873Y-51266413D01*
X143789048Y-51293775D01*
X143789048Y-52093775D01*
X143149048Y-52093775D01*
X143149048Y-51792822D01*
X143373810Y-51792822D01*
X143378304Y-51791185D01*
X143382956Y-51792297D01*
X143409587Y-51784376D01*
X143485777Y-51746281D01*
X143486976Y-51745014D01*
X143506569Y-51731296D01*
X143544663Y-51693201D01*
X143545400Y-51691619D01*
X143559649Y-51672409D01*
X143597745Y-51596219D01*
X143598291Y-51591466D01*
X143601366Y-51587803D01*
X143606191Y-51560441D01*
X143606191Y-51446156D01*
X143604554Y-51441660D01*
X143605666Y-51437009D01*
X143597745Y-51410378D01*
X143559649Y-51334188D01*
X143558379Y-51332985D01*
X143544663Y-51313396D01*
X143506569Y-51275301D01*
X143504983Y-51274561D01*
X143485777Y-51260316D01*
X143409587Y-51222221D01*
X143404835Y-51221674D01*
X143401172Y-51218600D01*
X143373810Y-51213775D01*
X143069048Y-51213775D01*
X143049516Y-51220883D01*
X143029048Y-51224493D01*
X143024408Y-51230022D01*
X143017625Y-51232491D01*
X143007231Y-51250492D01*
X142993873Y-51266413D01*
X142992040Y-51276804D01*
X142990263Y-51279883D01*
X142990880Y-51283383D01*
X142989048Y-51293775D01*
X142989048Y-52093775D01*
X142571215Y-52093775D01*
X142571215Y-49991883D01*
X142685501Y-49991883D01*
X142695004Y-50045775D01*
X142736924Y-50080950D01*
X142764286Y-50085775D01*
X142912857Y-50085775D01*
X142912857Y-50805775D01*
X142931573Y-50857198D01*
X142978965Y-50884560D01*
X143032857Y-50875057D01*
X143068032Y-50833137D01*
X143072857Y-50805775D01*
X143072857Y-50539108D01*
X143370000Y-50539108D01*
X143371264Y-50542583D01*
X143372389Y-50558511D01*
X143410485Y-50710892D01*
X143414903Y-50717433D01*
X143415591Y-50725297D01*
X143431527Y-50748057D01*
X143507717Y-50824248D01*
X143509301Y-50824986D01*
X143528509Y-50839234D01*
X143604700Y-50877329D01*
X143609451Y-50877875D01*
X143613115Y-50880950D01*
X143640477Y-50885775D01*
X143792858Y-50885775D01*
X143797352Y-50884138D01*
X143802004Y-50885250D01*
X143828635Y-50877329D01*
X143904825Y-50839234D01*
X143906024Y-50837967D01*
X143925617Y-50824249D01*
X144001807Y-50748058D01*
X144005143Y-50740902D01*
X144011533Y-50736267D01*
X144022850Y-50710892D01*
X144037225Y-50653394D01*
X144246191Y-50653394D01*
X144247827Y-50657888D01*
X144246716Y-50662540D01*
X144254637Y-50689171D01*
X144292732Y-50765361D01*
X144294000Y-50766562D01*
X144307717Y-50786152D01*
X144345812Y-50824248D01*
X144347396Y-50824986D01*
X144366604Y-50839234D01*
X144442795Y-50877329D01*
X144447546Y-50877875D01*
X144451210Y-50880950D01*
X144478572Y-50885775D01*
X144630953Y-50885775D01*
X144635447Y-50884138D01*
X144640099Y-50885250D01*
X144666730Y-50877329D01*
X144742920Y-50839234D01*
X144744120Y-50837966D01*
X144763712Y-50824248D01*
X144801807Y-50786152D01*
X144802546Y-50784566D01*
X144816792Y-50765362D01*
X144854888Y-50689172D01*
X144855434Y-50684419D01*
X144858509Y-50680756D01*
X144863334Y-50653394D01*
X144863334Y-50462918D01*
X145046190Y-50462918D01*
X145047454Y-50466393D01*
X145048579Y-50482321D01*
X145086675Y-50634702D01*
X145088795Y-50637841D01*
X145092732Y-50651076D01*
X145130827Y-50727266D01*
X145132095Y-50728467D01*
X145145812Y-50748057D01*
X145222002Y-50824248D01*
X145226337Y-50826269D01*
X145228841Y-50830345D01*
X145253273Y-50843575D01*
X145367559Y-50881670D01*
X145369307Y-50881622D01*
X145392857Y-50885775D01*
X145469048Y-50885775D01*
X145470689Y-50885177D01*
X145494346Y-50881670D01*
X145608631Y-50843575D01*
X145612377Y-50840601D01*
X145617142Y-50840185D01*
X145639902Y-50824249D01*
X145658376Y-50805775D01*
X145884286Y-50805775D01*
X145903002Y-50857198D01*
X145950394Y-50884560D01*
X146004286Y-50875057D01*
X146039461Y-50833137D01*
X146044286Y-50805775D01*
X146044286Y-50466727D01*
X146341429Y-50466727D01*
X146341429Y-50805775D01*
X146360145Y-50857198D01*
X146407537Y-50884560D01*
X146461429Y-50875057D01*
X146496604Y-50833137D01*
X146501429Y-50805775D01*
X146501429Y-50005775D01*
X146482713Y-49954352D01*
X146435321Y-49926990D01*
X146381429Y-49936493D01*
X146346254Y-49978413D01*
X146341429Y-50005775D01*
X146341429Y-50306727D01*
X146044286Y-50306727D01*
X146044286Y-50005775D01*
X146025570Y-49954352D01*
X145978178Y-49926990D01*
X145924286Y-49936493D01*
X145889111Y-49978413D01*
X145884286Y-50005775D01*
X145884286Y-50805775D01*
X145658376Y-50805775D01*
X145677998Y-50786152D01*
X145701125Y-50736557D01*
X145686962Y-50683698D01*
X145642135Y-50652310D01*
X145587620Y-50657079D01*
X145564861Y-50673015D01*
X145540118Y-50697757D01*
X145456065Y-50725775D01*
X145405840Y-50725775D01*
X145321785Y-50697757D01*
X145268129Y-50644100D01*
X145239766Y-50587375D01*
X145206190Y-50453070D01*
X145206190Y-50358479D01*
X145239766Y-50224173D01*
X145268128Y-50167450D01*
X145321785Y-50113792D01*
X145405840Y-50085775D01*
X145456065Y-50085775D01*
X145540119Y-50113793D01*
X145564861Y-50138534D01*
X145614457Y-50161661D01*
X145667316Y-50147497D01*
X145698703Y-50102669D01*
X145693933Y-50048155D01*
X145677997Y-50025396D01*
X145639901Y-49987301D01*
X145635566Y-49985279D01*
X145633063Y-49981205D01*
X145608631Y-49967975D01*
X145494346Y-49929880D01*
X145492597Y-49929927D01*
X145469048Y-49925775D01*
X145392857Y-49925775D01*
X145391215Y-49926372D01*
X145367559Y-49929880D01*
X145253273Y-49967975D01*
X145249526Y-49970948D01*
X145244762Y-49971365D01*
X145222003Y-49987301D01*
X145145812Y-50063491D01*
X145145071Y-50065078D01*
X145130827Y-50084283D01*
X145092732Y-50160474D01*
X145092298Y-50164238D01*
X145086675Y-50176848D01*
X145048579Y-50329229D01*
X145048963Y-50332906D01*
X145046190Y-50348632D01*
X145046190Y-50462918D01*
X144863334Y-50462918D01*
X144863334Y-50005775D01*
X144844618Y-49954352D01*
X144797226Y-49926990D01*
X144743334Y-49936493D01*
X144708159Y-49978413D01*
X144703334Y-50005775D01*
X144703334Y-50634508D01*
X144679489Y-50682196D01*
X144659753Y-50701932D01*
X144612068Y-50725775D01*
X144497457Y-50725775D01*
X144449770Y-50701932D01*
X144430034Y-50682195D01*
X144406191Y-50634509D01*
X144406191Y-50005775D01*
X144387475Y-49954352D01*
X144340083Y-49926990D01*
X144286191Y-49936493D01*
X144251016Y-49978413D01*
X144246191Y-50005775D01*
X144246191Y-50653394D01*
X144037225Y-50653394D01*
X144060946Y-50558510D01*
X144060561Y-50554830D01*
X144063334Y-50539108D01*
X144063334Y-50272441D01*
X144062069Y-50268966D01*
X144060946Y-50253039D01*
X144022850Y-50100657D01*
X144018432Y-50094115D01*
X144017744Y-50086251D01*
X144001807Y-50063491D01*
X143925616Y-49987301D01*
X143924033Y-49986562D01*
X143904825Y-49972316D01*
X143828635Y-49934221D01*
X143823883Y-49933674D01*
X143820220Y-49930600D01*
X143792858Y-49925775D01*
X143640477Y-49925775D01*
X143635982Y-49927410D01*
X143631332Y-49926300D01*
X143604700Y-49934221D01*
X143528509Y-49972316D01*
X143527309Y-49973582D01*
X143507718Y-49987301D01*
X143431527Y-50063491D01*
X143428190Y-50070646D01*
X143421802Y-50075282D01*
X143410485Y-50100657D01*
X143372389Y-50253038D01*
X143372773Y-50256715D01*
X143370000Y-50272441D01*
X143370000Y-50539108D01*
X143072857Y-50539108D01*
X143072857Y-50085775D01*
X143221429Y-50085775D01*
X143272852Y-50067059D01*
X143300214Y-50019667D01*
X143290711Y-49965775D01*
X143248791Y-49930600D01*
X143221429Y-49925775D01*
X142764286Y-49925775D01*
X142712863Y-49944491D01*
X142685501Y-49991883D01*
X142571215Y-49991883D01*
X142571215Y-49517775D01*
X143027143Y-49517775D01*
X143034251Y-49537306D01*
X143037861Y-49557775D01*
X143043390Y-49562414D01*
X143045859Y-49569198D01*
X143063860Y-49579591D01*
X143079781Y-49592950D01*
X143090172Y-49594782D01*
X143093251Y-49596560D01*
X143096751Y-49595942D01*
X143107143Y-49597775D01*
X143297619Y-49597775D01*
X143299260Y-49597177D01*
X143322917Y-49593670D01*
X143437203Y-49555575D01*
X143440950Y-49552600D01*
X143445714Y-49552184D01*
X143468474Y-49536248D01*
X143544664Y-49460057D01*
X143545402Y-49458474D01*
X143559649Y-49439266D01*
X143597744Y-49363076D01*
X143598177Y-49359311D01*
X143603801Y-49346702D01*
X143627700Y-49251108D01*
X143789047Y-49251108D01*
X143790311Y-49254583D01*
X143791436Y-49270511D01*
X143829532Y-49422892D01*
X143833950Y-49429433D01*
X143834638Y-49437297D01*
X143850574Y-49460057D01*
X143926764Y-49536248D01*
X143928348Y-49536986D01*
X143947556Y-49551234D01*
X144023747Y-49589329D01*
X144028498Y-49589875D01*
X144032162Y-49592950D01*
X144059524Y-49597775D01*
X144211905Y-49597775D01*
X144216399Y-49596138D01*
X144221051Y-49597250D01*
X144247682Y-49589329D01*
X144323872Y-49551234D01*
X144325071Y-49549967D01*
X144344664Y-49536249D01*
X144363138Y-49517775D01*
X144665238Y-49517775D01*
X144683954Y-49569198D01*
X144731346Y-49596560D01*
X144785238Y-49587057D01*
X144820413Y-49545137D01*
X144825238Y-49517775D01*
X144825238Y-49019019D01*
X145132922Y-49557466D01*
X145138566Y-49562245D01*
X145141097Y-49569198D01*
X145158953Y-49579507D01*
X145174685Y-49592828D01*
X145182082Y-49592860D01*
X145188489Y-49596560D01*
X145208790Y-49592980D01*
X145229408Y-49593072D01*
X145235096Y-49588341D01*
X145242381Y-49587057D01*
X145255632Y-49571264D01*
X145271484Y-49558083D01*
X145272801Y-49550803D01*
X145277556Y-49545137D01*
X145282381Y-49517775D01*
X145282381Y-48888743D01*
X145467426Y-48888743D01*
X145497578Y-48934411D01*
X145550030Y-48950012D01*
X145600239Y-48928249D01*
X145616791Y-48905933D01*
X145692982Y-48753553D01*
X145698699Y-48703883D01*
X145771214Y-48703883D01*
X145780717Y-48757775D01*
X145822637Y-48792950D01*
X145849999Y-48797775D01*
X145998570Y-48797775D01*
X145998570Y-49517775D01*
X146017286Y-49569198D01*
X146064678Y-49596560D01*
X146118570Y-49587057D01*
X146153745Y-49545137D01*
X146158570Y-49517775D01*
X146158570Y-48797775D01*
X146307142Y-48797775D01*
X146358565Y-48779059D01*
X146385927Y-48731667D01*
X146376424Y-48677775D01*
X146334504Y-48642600D01*
X146307142Y-48637775D01*
X145849999Y-48637775D01*
X145798576Y-48656491D01*
X145771214Y-48703883D01*
X145698699Y-48703883D01*
X145699239Y-48699188D01*
X145669087Y-48653521D01*
X145616635Y-48637919D01*
X145566426Y-48659683D01*
X145549874Y-48681998D01*
X145473683Y-48834379D01*
X145467426Y-48888743D01*
X145282381Y-48888743D01*
X145282381Y-48717775D01*
X145263665Y-48666352D01*
X145216273Y-48638990D01*
X145162381Y-48648493D01*
X145127206Y-48690413D01*
X145122381Y-48717775D01*
X145122381Y-49216530D01*
X144814697Y-48678084D01*
X144809052Y-48673304D01*
X144806522Y-48666352D01*
X144788665Y-48656042D01*
X144772934Y-48642722D01*
X144765536Y-48642689D01*
X144759130Y-48638990D01*
X144738828Y-48642569D01*
X144718211Y-48642478D01*
X144712522Y-48647208D01*
X144705238Y-48648493D01*
X144691986Y-48664285D01*
X144676135Y-48677467D01*
X144674817Y-48684746D01*
X144670063Y-48690413D01*
X144665238Y-48717775D01*
X144665238Y-49517775D01*
X144363138Y-49517775D01*
X144420854Y-49460058D01*
X144424190Y-49452902D01*
X144430580Y-49448267D01*
X144441897Y-49422892D01*
X144479993Y-49270510D01*
X144479608Y-49266830D01*
X144482381Y-49251108D01*
X144482381Y-48984441D01*
X144481116Y-48980966D01*
X144479993Y-48965039D01*
X144441897Y-48812657D01*
X144437479Y-48806115D01*
X144436791Y-48798251D01*
X144420854Y-48775491D01*
X144344663Y-48699301D01*
X144343080Y-48698562D01*
X144323872Y-48684316D01*
X144247682Y-48646221D01*
X144242930Y-48645674D01*
X144239267Y-48642600D01*
X144211905Y-48637775D01*
X144059524Y-48637775D01*
X144055029Y-48639410D01*
X144050379Y-48638300D01*
X144023747Y-48646221D01*
X143947556Y-48684316D01*
X143946356Y-48685582D01*
X143926765Y-48699301D01*
X143850574Y-48775491D01*
X143847237Y-48782646D01*
X143840849Y-48787282D01*
X143829532Y-48812657D01*
X143791436Y-48965038D01*
X143791820Y-48968715D01*
X143789047Y-48984441D01*
X143789047Y-49251108D01*
X143627700Y-49251108D01*
X143641897Y-49194321D01*
X143641512Y-49190643D01*
X143644286Y-49174918D01*
X143644286Y-49060632D01*
X143643021Y-49057156D01*
X143641897Y-49041229D01*
X143603801Y-48888848D01*
X143601680Y-48885707D01*
X143597744Y-48872474D01*
X143559649Y-48796283D01*
X143558382Y-48795083D01*
X143544664Y-48775492D01*
X143468474Y-48699301D01*
X143464138Y-48697279D01*
X143461635Y-48693205D01*
X143437203Y-48679975D01*
X143322917Y-48641880D01*
X143321168Y-48641927D01*
X143297619Y-48637775D01*
X143107143Y-48637775D01*
X143087611Y-48644883D01*
X143067143Y-48648493D01*
X143062503Y-48654022D01*
X143055720Y-48656491D01*
X143045326Y-48674492D01*
X143031968Y-48690413D01*
X143030135Y-48700804D01*
X143028358Y-48703883D01*
X143028975Y-48707383D01*
X143027143Y-48717775D01*
X143027143Y-49517775D01*
X142571215Y-49517775D01*
X142571215Y-48523489D01*
X146615715Y-48523489D01*
X146615715Y-52288061D01*
G37*
G36*
X119902609Y-51297617D02*
G01*
X119922347Y-51317354D01*
X119946191Y-51365041D01*
X119946191Y-51441555D01*
X119922347Y-51489242D01*
X119902609Y-51508979D01*
X119854925Y-51532822D01*
X119649048Y-51532822D01*
X119649048Y-51273775D01*
X119854925Y-51273775D01*
X119902609Y-51297617D01*
G37*
G36*
X120321659Y-50009618D02*
G01*
X120373002Y-50060960D01*
X120403334Y-50182287D01*
X120403334Y-50429261D01*
X120373002Y-50550588D01*
X120321657Y-50601932D01*
X120273973Y-50625775D01*
X120159362Y-50625775D01*
X120111675Y-50601931D01*
X120060332Y-50550588D01*
X120030000Y-50429260D01*
X120030000Y-50182288D01*
X120060332Y-50060961D01*
X120111675Y-50009618D01*
X120159362Y-49985775D01*
X120273973Y-49985775D01*
X120321659Y-50009618D01*
G37*
G36*
X119868689Y-48725792D02*
G01*
X119922346Y-48779449D01*
X119950709Y-48836173D01*
X119984286Y-48970479D01*
X119984286Y-49065070D01*
X119950709Y-49199375D01*
X119922346Y-49256100D01*
X119868690Y-49309757D01*
X119784636Y-49337775D01*
X119687143Y-49337775D01*
X119687143Y-48697775D01*
X119784636Y-48697775D01*
X119868689Y-48725792D01*
G37*
G36*
X120740706Y-48721618D02*
G01*
X120792049Y-48772960D01*
X120822381Y-48894287D01*
X120822381Y-49141261D01*
X120792049Y-49262588D01*
X120740704Y-49313932D01*
X120693020Y-49337775D01*
X120578409Y-49337775D01*
X120530722Y-49313931D01*
X120479379Y-49262588D01*
X120449047Y-49141260D01*
X120449047Y-48894288D01*
X120479379Y-48772961D01*
X120530722Y-48721618D01*
X120578409Y-48697775D01*
X120693020Y-48697775D01*
X120740706Y-48721618D01*
G37*
G36*
X123115715Y-52188061D02*
G01*
X119071215Y-52188061D01*
X119071215Y-51993775D01*
X119489048Y-51993775D01*
X119507764Y-52045198D01*
X119555156Y-52072560D01*
X119609048Y-52063057D01*
X119644223Y-52021137D01*
X119649048Y-51993775D01*
X120289048Y-51993775D01*
X120307764Y-52045198D01*
X120355156Y-52072560D01*
X120409048Y-52063057D01*
X120444223Y-52021137D01*
X120449048Y-51993775D01*
X120670000Y-51993775D01*
X120688716Y-52045198D01*
X120736108Y-52072560D01*
X120790000Y-52063057D01*
X120825175Y-52021137D01*
X120830000Y-51993775D01*
X120830000Y-51495019D01*
X121137684Y-52033466D01*
X121143328Y-52038245D01*
X121145859Y-52045198D01*
X121163715Y-52055507D01*
X121179447Y-52068828D01*
X121186844Y-52068860D01*
X121193251Y-52072560D01*
X121213552Y-52068980D01*
X121234170Y-52069072D01*
X121239858Y-52064341D01*
X121247143Y-52063057D01*
X121260394Y-52047264D01*
X121276246Y-52034083D01*
X121277563Y-52026803D01*
X121282318Y-52021137D01*
X121287143Y-51993775D01*
X121287143Y-51422346D01*
X121469999Y-51422346D01*
X121471635Y-51426840D01*
X121470524Y-51431492D01*
X121478445Y-51458123D01*
X121516541Y-51534314D01*
X121517807Y-51535513D01*
X121531526Y-51555106D01*
X121569621Y-51593200D01*
X121571202Y-51593937D01*
X121590413Y-51608186D01*
X121666603Y-51646281D01*
X121670367Y-51646714D01*
X121682977Y-51652338D01*
X121826840Y-51688304D01*
X121883562Y-51716665D01*
X121903299Y-51736402D01*
X121927142Y-51784088D01*
X121927142Y-51822509D01*
X121903298Y-51870195D01*
X121883562Y-51889932D01*
X121835876Y-51913775D01*
X121677268Y-51913775D01*
X121575297Y-51879785D01*
X121520594Y-51881280D01*
X121479650Y-51917587D01*
X121471623Y-51971719D01*
X121500269Y-52018345D01*
X121524701Y-52031575D01*
X121638987Y-52069670D01*
X121640735Y-52069622D01*
X121664285Y-52073775D01*
X121854761Y-52073775D01*
X121859255Y-52072139D01*
X121863907Y-52073250D01*
X121890538Y-52065329D01*
X121966729Y-52027234D01*
X121967929Y-52025966D01*
X121987521Y-52012248D01*
X122025616Y-51974152D01*
X122026354Y-51972569D01*
X122040601Y-51953361D01*
X122042928Y-51948707D01*
X122232208Y-51948707D01*
X122237588Y-51968788D01*
X122239400Y-51989490D01*
X122245450Y-51998131D01*
X122246371Y-52001566D01*
X122249283Y-52003605D01*
X122255336Y-52012249D01*
X122293432Y-52050344D01*
X122312268Y-52059127D01*
X122329294Y-52071049D01*
X122332938Y-52070730D01*
X122336108Y-52072560D01*
X122339711Y-52071924D01*
X122343028Y-52073471D01*
X122363105Y-52068091D01*
X122383809Y-52066280D01*
X122387877Y-52063431D01*
X122390000Y-52063057D01*
X122392261Y-52060361D01*
X122392454Y-52060226D01*
X122395887Y-52059307D01*
X122397924Y-52056396D01*
X122406569Y-52050344D01*
X122444663Y-52012249D01*
X122453447Y-51993410D01*
X122465369Y-51976386D01*
X122464739Y-51969195D01*
X122467791Y-51962653D01*
X122464054Y-51948707D01*
X122613160Y-51948707D01*
X122618540Y-51968788D01*
X122620352Y-51989490D01*
X122626402Y-51998131D01*
X122627323Y-52001566D01*
X122630235Y-52003605D01*
X122636288Y-52012249D01*
X122674384Y-52050344D01*
X122693220Y-52059127D01*
X122710246Y-52071049D01*
X122713890Y-52070730D01*
X122717060Y-52072560D01*
X122720663Y-52071924D01*
X122723980Y-52073471D01*
X122744057Y-52068091D01*
X122764761Y-52066280D01*
X122768829Y-52063431D01*
X122770952Y-52063057D01*
X122773213Y-52060361D01*
X122773406Y-52060226D01*
X122776839Y-52059307D01*
X122778876Y-52056396D01*
X122787521Y-52050344D01*
X122825615Y-52012249D01*
X122834399Y-51993410D01*
X122846321Y-51976386D01*
X122845691Y-51969195D01*
X122848743Y-51962653D01*
X122843363Y-51942576D01*
X122841552Y-51921872D01*
X122835498Y-51913226D01*
X122834579Y-51909794D01*
X122831668Y-51907755D01*
X122825616Y-51899112D01*
X122787521Y-51861016D01*
X122768683Y-51852231D01*
X122751658Y-51840310D01*
X122748013Y-51840628D01*
X122744844Y-51838799D01*
X122741241Y-51839434D01*
X122737926Y-51837888D01*
X122717847Y-51843267D01*
X122697143Y-51845079D01*
X122693074Y-51847927D01*
X122690952Y-51848302D01*
X122688689Y-51850997D01*
X122688499Y-51851131D01*
X122685067Y-51852051D01*
X122683028Y-51854961D01*
X122674384Y-51861015D01*
X122636287Y-51899111D01*
X122627500Y-51917953D01*
X122615582Y-51934976D01*
X122616210Y-51942164D01*
X122613160Y-51948707D01*
X122464054Y-51948707D01*
X122462411Y-51942576D01*
X122460600Y-51921872D01*
X122454546Y-51913226D01*
X122453627Y-51909794D01*
X122450716Y-51907755D01*
X122444664Y-51899112D01*
X122406569Y-51861016D01*
X122387731Y-51852231D01*
X122370706Y-51840310D01*
X122367061Y-51840628D01*
X122363892Y-51838799D01*
X122360289Y-51839434D01*
X122356974Y-51837888D01*
X122336895Y-51843267D01*
X122316191Y-51845079D01*
X122312122Y-51847927D01*
X122310000Y-51848302D01*
X122307737Y-51850997D01*
X122307547Y-51851131D01*
X122304115Y-51852051D01*
X122302076Y-51854961D01*
X122293432Y-51861015D01*
X122255335Y-51899111D01*
X122246548Y-51917953D01*
X122234630Y-51934976D01*
X122235258Y-51942164D01*
X122232208Y-51948707D01*
X122042928Y-51948707D01*
X122078696Y-51877171D01*
X122079242Y-51872419D01*
X122082317Y-51868756D01*
X122087142Y-51841394D01*
X122087142Y-51765203D01*
X122085505Y-51760708D01*
X122086617Y-51756057D01*
X122078696Y-51729426D01*
X122040601Y-51653236D01*
X122039331Y-51652033D01*
X122025615Y-51632444D01*
X121987521Y-51594349D01*
X121985935Y-51593609D01*
X121966729Y-51579364D01*
X121890538Y-51541268D01*
X121886773Y-51540834D01*
X121874164Y-51535211D01*
X121730302Y-51499245D01*
X121673579Y-51470884D01*
X121653842Y-51451147D01*
X121629999Y-51403460D01*
X121629999Y-51365041D01*
X121653842Y-51317354D01*
X121673579Y-51297617D01*
X121721265Y-51273775D01*
X121879874Y-51273775D01*
X121981844Y-51307765D01*
X122036546Y-51306270D01*
X122077491Y-51269963D01*
X122082155Y-51238514D01*
X122232180Y-51238514D01*
X122270276Y-51695657D01*
X122279112Y-51714814D01*
X122284657Y-51735169D01*
X122287523Y-51737158D01*
X122288716Y-51740436D01*
X122291736Y-51742179D01*
X122293198Y-51745348D01*
X122312282Y-51754343D01*
X122329613Y-51766372D01*
X122333086Y-51766053D01*
X122336108Y-51767798D01*
X122339542Y-51767192D01*
X122342699Y-51768680D01*
X122363104Y-51763302D01*
X122384108Y-51761377D01*
X122386563Y-51758900D01*
X122390000Y-51758295D01*
X122392241Y-51755623D01*
X122395616Y-51754734D01*
X122407791Y-51737497D01*
X122422643Y-51722523D01*
X122423845Y-51717958D01*
X122425175Y-51716375D01*
X122425994Y-51711727D01*
X122427188Y-51710038D01*
X122427856Y-51702741D01*
X122429724Y-51695657D01*
X122467819Y-51238514D01*
X122613132Y-51238514D01*
X122651228Y-51695657D01*
X122660064Y-51714814D01*
X122665609Y-51735169D01*
X122668475Y-51737158D01*
X122669668Y-51740436D01*
X122672688Y-51742179D01*
X122674150Y-51745348D01*
X122693234Y-51754343D01*
X122710565Y-51766372D01*
X122714038Y-51766053D01*
X122717060Y-51767798D01*
X122720494Y-51767192D01*
X122723651Y-51768680D01*
X122744056Y-51763302D01*
X122765060Y-51761377D01*
X122767515Y-51758900D01*
X122770952Y-51758295D01*
X122773193Y-51755623D01*
X122776568Y-51754734D01*
X122788743Y-51737497D01*
X122803595Y-51722523D01*
X122804797Y-51717958D01*
X122806127Y-51716375D01*
X122806946Y-51711727D01*
X122808140Y-51710038D01*
X122808808Y-51702741D01*
X122810676Y-51695657D01*
X122848771Y-51238513D01*
X122843348Y-51218604D01*
X122841551Y-51198061D01*
X122835335Y-51189183D01*
X122834390Y-51185713D01*
X122831501Y-51183708D01*
X122825615Y-51175301D01*
X122787521Y-51137206D01*
X122768680Y-51128420D01*
X122751658Y-51116501D01*
X122748013Y-51116819D01*
X122744844Y-51114990D01*
X122741241Y-51115625D01*
X122737925Y-51114079D01*
X122717846Y-51119458D01*
X122697144Y-51121270D01*
X122693075Y-51124118D01*
X122690952Y-51124493D01*
X122688688Y-51127190D01*
X122688500Y-51127321D01*
X122685066Y-51128242D01*
X122683026Y-51131154D01*
X122674384Y-51137206D01*
X122636288Y-51175301D01*
X122627568Y-51193998D01*
X122615668Y-51210846D01*
X122614678Y-51221639D01*
X122613160Y-51224896D01*
X122614069Y-51228289D01*
X122613132Y-51238514D01*
X122467819Y-51238514D01*
X122467819Y-51238513D01*
X122462396Y-51218604D01*
X122460599Y-51198061D01*
X122454383Y-51189183D01*
X122453438Y-51185713D01*
X122450549Y-51183708D01*
X122444663Y-51175301D01*
X122406569Y-51137206D01*
X122387728Y-51128420D01*
X122370706Y-51116501D01*
X122367061Y-51116819D01*
X122363892Y-51114990D01*
X122360289Y-51115625D01*
X122356973Y-51114079D01*
X122336894Y-51119458D01*
X122316192Y-51121270D01*
X122312123Y-51124118D01*
X122310000Y-51124493D01*
X122307736Y-51127190D01*
X122307548Y-51127321D01*
X122304114Y-51128242D01*
X122302074Y-51131154D01*
X122293432Y-51137206D01*
X122255336Y-51175301D01*
X122246616Y-51193998D01*
X122234716Y-51210846D01*
X122233726Y-51221639D01*
X122232208Y-51224896D01*
X122233117Y-51228289D01*
X122232180Y-51238514D01*
X122082155Y-51238514D01*
X122085518Y-51215832D01*
X122056872Y-51169205D01*
X122032440Y-51155975D01*
X121918155Y-51117880D01*
X121916406Y-51117927D01*
X121892857Y-51113775D01*
X121702380Y-51113775D01*
X121697885Y-51115411D01*
X121693234Y-51114300D01*
X121666603Y-51122221D01*
X121590413Y-51160316D01*
X121589210Y-51161585D01*
X121569621Y-51175302D01*
X121531526Y-51213396D01*
X121530786Y-51214981D01*
X121516541Y-51234188D01*
X121478445Y-51310379D01*
X121477898Y-51315130D01*
X121474824Y-51318794D01*
X121469999Y-51346156D01*
X121469999Y-51422346D01*
X121287143Y-51422346D01*
X121287143Y-51193775D01*
X121268427Y-51142352D01*
X121221035Y-51114990D01*
X121167143Y-51124493D01*
X121131968Y-51166413D01*
X121127143Y-51193775D01*
X121127143Y-51692530D01*
X120819459Y-51154084D01*
X120813814Y-51149304D01*
X120811284Y-51142352D01*
X120793427Y-51132042D01*
X120777696Y-51118722D01*
X120770298Y-51118689D01*
X120763892Y-51114990D01*
X120743590Y-51118569D01*
X120722973Y-51118478D01*
X120717284Y-51123208D01*
X120710000Y-51124493D01*
X120696748Y-51140285D01*
X120680897Y-51153467D01*
X120679579Y-51160746D01*
X120674825Y-51166413D01*
X120670000Y-51193775D01*
X120670000Y-51993775D01*
X120449048Y-51993775D01*
X120449048Y-51193775D01*
X120430332Y-51142352D01*
X120382940Y-51114990D01*
X120329048Y-51124493D01*
X120293873Y-51166413D01*
X120289048Y-51193775D01*
X120289048Y-51993775D01*
X119649048Y-51993775D01*
X119649048Y-51692822D01*
X119873810Y-51692822D01*
X119878304Y-51691185D01*
X119882956Y-51692297D01*
X119909587Y-51684376D01*
X119985777Y-51646281D01*
X119986976Y-51645014D01*
X120006569Y-51631296D01*
X120044663Y-51593201D01*
X120045400Y-51591619D01*
X120059649Y-51572409D01*
X120097745Y-51496219D01*
X120098291Y-51491466D01*
X120101366Y-51487803D01*
X120106191Y-51460441D01*
X120106191Y-51346156D01*
X120104554Y-51341660D01*
X120105666Y-51337009D01*
X120097745Y-51310378D01*
X120059649Y-51234188D01*
X120058379Y-51232985D01*
X120044663Y-51213396D01*
X120006569Y-51175301D01*
X120004983Y-51174561D01*
X119985777Y-51160316D01*
X119909587Y-51122221D01*
X119904835Y-51121674D01*
X119901172Y-51118600D01*
X119873810Y-51113775D01*
X119569048Y-51113775D01*
X119549516Y-51120883D01*
X119529048Y-51124493D01*
X119524408Y-51130022D01*
X119517625Y-51132491D01*
X119507231Y-51150492D01*
X119493873Y-51166413D01*
X119492040Y-51176804D01*
X119490263Y-51179883D01*
X119490880Y-51183383D01*
X119489048Y-51193775D01*
X119489048Y-51993775D01*
X119071215Y-51993775D01*
X119071215Y-49891883D01*
X119185501Y-49891883D01*
X119195004Y-49945775D01*
X119236924Y-49980950D01*
X119264286Y-49985775D01*
X119412857Y-49985775D01*
X119412857Y-50705775D01*
X119431573Y-50757198D01*
X119478965Y-50784560D01*
X119532857Y-50775057D01*
X119568032Y-50733137D01*
X119572857Y-50705775D01*
X119572857Y-50439108D01*
X119870000Y-50439108D01*
X119871264Y-50442583D01*
X119872389Y-50458511D01*
X119910485Y-50610892D01*
X119914903Y-50617433D01*
X119915591Y-50625297D01*
X119931527Y-50648057D01*
X120007717Y-50724248D01*
X120009301Y-50724986D01*
X120028509Y-50739234D01*
X120104700Y-50777329D01*
X120109451Y-50777875D01*
X120113115Y-50780950D01*
X120140477Y-50785775D01*
X120292858Y-50785775D01*
X120297352Y-50784138D01*
X120302004Y-50785250D01*
X120328635Y-50777329D01*
X120404825Y-50739234D01*
X120406024Y-50737967D01*
X120425617Y-50724249D01*
X120501807Y-50648058D01*
X120505143Y-50640902D01*
X120511533Y-50636267D01*
X120522850Y-50610892D01*
X120537225Y-50553394D01*
X120746191Y-50553394D01*
X120747827Y-50557888D01*
X120746716Y-50562540D01*
X120754637Y-50589171D01*
X120792732Y-50665361D01*
X120794000Y-50666562D01*
X120807717Y-50686152D01*
X120845812Y-50724248D01*
X120847396Y-50724986D01*
X120866604Y-50739234D01*
X120942795Y-50777329D01*
X120947546Y-50777875D01*
X120951210Y-50780950D01*
X120978572Y-50785775D01*
X121130953Y-50785775D01*
X121135447Y-50784138D01*
X121140099Y-50785250D01*
X121166730Y-50777329D01*
X121242920Y-50739234D01*
X121244120Y-50737966D01*
X121263712Y-50724248D01*
X121301807Y-50686152D01*
X121302546Y-50684566D01*
X121316792Y-50665362D01*
X121354888Y-50589172D01*
X121355434Y-50584419D01*
X121358509Y-50580756D01*
X121363334Y-50553394D01*
X121363334Y-50362918D01*
X121546190Y-50362918D01*
X121547454Y-50366393D01*
X121548579Y-50382321D01*
X121586675Y-50534702D01*
X121588795Y-50537841D01*
X121592732Y-50551076D01*
X121630827Y-50627266D01*
X121632095Y-50628467D01*
X121645812Y-50648057D01*
X121722002Y-50724248D01*
X121726337Y-50726269D01*
X121728841Y-50730345D01*
X121753273Y-50743575D01*
X121867559Y-50781670D01*
X121869307Y-50781622D01*
X121892857Y-50785775D01*
X121969048Y-50785775D01*
X121970689Y-50785177D01*
X121994346Y-50781670D01*
X122108631Y-50743575D01*
X122112377Y-50740601D01*
X122117142Y-50740185D01*
X122139902Y-50724249D01*
X122158376Y-50705775D01*
X122384286Y-50705775D01*
X122403002Y-50757198D01*
X122450394Y-50784560D01*
X122504286Y-50775057D01*
X122539461Y-50733137D01*
X122544286Y-50705775D01*
X122544286Y-50366727D01*
X122841429Y-50366727D01*
X122841429Y-50705775D01*
X122860145Y-50757198D01*
X122907537Y-50784560D01*
X122961429Y-50775057D01*
X122996604Y-50733137D01*
X123001429Y-50705775D01*
X123001429Y-49905775D01*
X122982713Y-49854352D01*
X122935321Y-49826990D01*
X122881429Y-49836493D01*
X122846254Y-49878413D01*
X122841429Y-49905775D01*
X122841429Y-50206727D01*
X122544286Y-50206727D01*
X122544286Y-49905775D01*
X122525570Y-49854352D01*
X122478178Y-49826990D01*
X122424286Y-49836493D01*
X122389111Y-49878413D01*
X122384286Y-49905775D01*
X122384286Y-50705775D01*
X122158376Y-50705775D01*
X122177998Y-50686152D01*
X122201125Y-50636557D01*
X122186962Y-50583698D01*
X122142135Y-50552310D01*
X122087620Y-50557079D01*
X122064861Y-50573015D01*
X122040118Y-50597757D01*
X121956065Y-50625775D01*
X121905840Y-50625775D01*
X121821785Y-50597757D01*
X121768129Y-50544100D01*
X121739766Y-50487375D01*
X121706190Y-50353070D01*
X121706190Y-50258479D01*
X121739766Y-50124173D01*
X121768128Y-50067450D01*
X121821785Y-50013792D01*
X121905840Y-49985775D01*
X121956065Y-49985775D01*
X122040119Y-50013793D01*
X122064861Y-50038534D01*
X122114457Y-50061661D01*
X122167316Y-50047497D01*
X122198703Y-50002669D01*
X122193933Y-49948155D01*
X122177997Y-49925396D01*
X122139901Y-49887301D01*
X122135566Y-49885279D01*
X122133063Y-49881205D01*
X122108631Y-49867975D01*
X121994346Y-49829880D01*
X121992597Y-49829927D01*
X121969048Y-49825775D01*
X121892857Y-49825775D01*
X121891215Y-49826372D01*
X121867559Y-49829880D01*
X121753273Y-49867975D01*
X121749526Y-49870948D01*
X121744762Y-49871365D01*
X121722003Y-49887301D01*
X121645812Y-49963491D01*
X121645071Y-49965078D01*
X121630827Y-49984283D01*
X121592732Y-50060474D01*
X121592298Y-50064238D01*
X121586675Y-50076848D01*
X121548579Y-50229229D01*
X121548963Y-50232906D01*
X121546190Y-50248632D01*
X121546190Y-50362918D01*
X121363334Y-50362918D01*
X121363334Y-49905775D01*
X121344618Y-49854352D01*
X121297226Y-49826990D01*
X121243334Y-49836493D01*
X121208159Y-49878413D01*
X121203334Y-49905775D01*
X121203334Y-50534508D01*
X121179489Y-50582196D01*
X121159753Y-50601932D01*
X121112068Y-50625775D01*
X120997457Y-50625775D01*
X120949770Y-50601932D01*
X120930034Y-50582195D01*
X120906191Y-50534509D01*
X120906191Y-49905775D01*
X120887475Y-49854352D01*
X120840083Y-49826990D01*
X120786191Y-49836493D01*
X120751016Y-49878413D01*
X120746191Y-49905775D01*
X120746191Y-50553394D01*
X120537225Y-50553394D01*
X120560946Y-50458510D01*
X120560561Y-50454830D01*
X120563334Y-50439108D01*
X120563334Y-50172441D01*
X120562069Y-50168966D01*
X120560946Y-50153039D01*
X120522850Y-50000657D01*
X120518432Y-49994115D01*
X120517744Y-49986251D01*
X120501807Y-49963491D01*
X120425616Y-49887301D01*
X120424033Y-49886562D01*
X120404825Y-49872316D01*
X120328635Y-49834221D01*
X120323883Y-49833674D01*
X120320220Y-49830600D01*
X120292858Y-49825775D01*
X120140477Y-49825775D01*
X120135982Y-49827410D01*
X120131332Y-49826300D01*
X120104700Y-49834221D01*
X120028509Y-49872316D01*
X120027309Y-49873582D01*
X120007718Y-49887301D01*
X119931527Y-49963491D01*
X119928190Y-49970646D01*
X119921802Y-49975282D01*
X119910485Y-50000657D01*
X119872389Y-50153038D01*
X119872773Y-50156715D01*
X119870000Y-50172441D01*
X119870000Y-50439108D01*
X119572857Y-50439108D01*
X119572857Y-49985775D01*
X119721429Y-49985775D01*
X119772852Y-49967059D01*
X119800214Y-49919667D01*
X119790711Y-49865775D01*
X119748791Y-49830600D01*
X119721429Y-49825775D01*
X119264286Y-49825775D01*
X119212863Y-49844491D01*
X119185501Y-49891883D01*
X119071215Y-49891883D01*
X119071215Y-49417775D01*
X119527143Y-49417775D01*
X119534251Y-49437306D01*
X119537861Y-49457775D01*
X119543390Y-49462414D01*
X119545859Y-49469198D01*
X119563860Y-49479591D01*
X119579781Y-49492950D01*
X119590172Y-49494782D01*
X119593251Y-49496560D01*
X119596751Y-49495942D01*
X119607143Y-49497775D01*
X119797619Y-49497775D01*
X119799260Y-49497177D01*
X119822917Y-49493670D01*
X119937203Y-49455575D01*
X119940950Y-49452600D01*
X119945714Y-49452184D01*
X119968474Y-49436248D01*
X120044664Y-49360057D01*
X120045402Y-49358474D01*
X120059649Y-49339266D01*
X120097744Y-49263076D01*
X120098177Y-49259311D01*
X120103801Y-49246702D01*
X120127700Y-49151108D01*
X120289047Y-49151108D01*
X120290311Y-49154583D01*
X120291436Y-49170511D01*
X120329532Y-49322892D01*
X120333950Y-49329433D01*
X120334638Y-49337297D01*
X120350574Y-49360057D01*
X120426764Y-49436248D01*
X120428348Y-49436986D01*
X120447556Y-49451234D01*
X120523747Y-49489329D01*
X120528498Y-49489875D01*
X120532162Y-49492950D01*
X120559524Y-49497775D01*
X120711905Y-49497775D01*
X120716399Y-49496138D01*
X120721051Y-49497250D01*
X120747682Y-49489329D01*
X120823872Y-49451234D01*
X120825071Y-49449967D01*
X120844664Y-49436249D01*
X120863138Y-49417775D01*
X121165238Y-49417775D01*
X121183954Y-49469198D01*
X121231346Y-49496560D01*
X121285238Y-49487057D01*
X121320413Y-49445137D01*
X121325238Y-49417775D01*
X121325238Y-48919019D01*
X121632922Y-49457466D01*
X121638566Y-49462245D01*
X121641097Y-49469198D01*
X121658953Y-49479507D01*
X121674685Y-49492828D01*
X121682082Y-49492860D01*
X121688489Y-49496560D01*
X121708790Y-49492980D01*
X121729408Y-49493072D01*
X121735096Y-49488341D01*
X121742381Y-49487057D01*
X121755632Y-49471264D01*
X121771484Y-49458083D01*
X121772801Y-49450803D01*
X121777556Y-49445137D01*
X121782381Y-49417775D01*
X121782381Y-48788743D01*
X121967426Y-48788743D01*
X121997578Y-48834411D01*
X122050030Y-48850012D01*
X122100239Y-48828249D01*
X122116791Y-48805933D01*
X122192982Y-48653553D01*
X122198699Y-48603883D01*
X122271214Y-48603883D01*
X122280717Y-48657775D01*
X122322637Y-48692950D01*
X122349999Y-48697775D01*
X122498570Y-48697775D01*
X122498570Y-49417775D01*
X122517286Y-49469198D01*
X122564678Y-49496560D01*
X122618570Y-49487057D01*
X122653745Y-49445137D01*
X122658570Y-49417775D01*
X122658570Y-48697775D01*
X122807142Y-48697775D01*
X122858565Y-48679059D01*
X122885927Y-48631667D01*
X122876424Y-48577775D01*
X122834504Y-48542600D01*
X122807142Y-48537775D01*
X122349999Y-48537775D01*
X122298576Y-48556491D01*
X122271214Y-48603883D01*
X122198699Y-48603883D01*
X122199239Y-48599188D01*
X122169087Y-48553521D01*
X122116635Y-48537919D01*
X122066426Y-48559683D01*
X122049874Y-48581998D01*
X121973683Y-48734379D01*
X121967426Y-48788743D01*
X121782381Y-48788743D01*
X121782381Y-48617775D01*
X121763665Y-48566352D01*
X121716273Y-48538990D01*
X121662381Y-48548493D01*
X121627206Y-48590413D01*
X121622381Y-48617775D01*
X121622381Y-49116530D01*
X121314697Y-48578084D01*
X121309052Y-48573304D01*
X121306522Y-48566352D01*
X121288665Y-48556042D01*
X121272934Y-48542722D01*
X121265536Y-48542689D01*
X121259130Y-48538990D01*
X121238828Y-48542569D01*
X121218211Y-48542478D01*
X121212522Y-48547208D01*
X121205238Y-48548493D01*
X121191986Y-48564285D01*
X121176135Y-48577467D01*
X121174817Y-48584746D01*
X121170063Y-48590413D01*
X121165238Y-48617775D01*
X121165238Y-49417775D01*
X120863138Y-49417775D01*
X120920854Y-49360058D01*
X120924190Y-49352902D01*
X120930580Y-49348267D01*
X120941897Y-49322892D01*
X120979993Y-49170510D01*
X120979608Y-49166830D01*
X120982381Y-49151108D01*
X120982381Y-48884441D01*
X120981116Y-48880966D01*
X120979993Y-48865039D01*
X120941897Y-48712657D01*
X120937479Y-48706115D01*
X120936791Y-48698251D01*
X120920854Y-48675491D01*
X120844663Y-48599301D01*
X120843080Y-48598562D01*
X120823872Y-48584316D01*
X120747682Y-48546221D01*
X120742930Y-48545674D01*
X120739267Y-48542600D01*
X120711905Y-48537775D01*
X120559524Y-48537775D01*
X120555029Y-48539410D01*
X120550379Y-48538300D01*
X120523747Y-48546221D01*
X120447556Y-48584316D01*
X120446356Y-48585582D01*
X120426765Y-48599301D01*
X120350574Y-48675491D01*
X120347237Y-48682646D01*
X120340849Y-48687282D01*
X120329532Y-48712657D01*
X120291436Y-48865038D01*
X120291820Y-48868715D01*
X120289047Y-48884441D01*
X120289047Y-49151108D01*
X120127700Y-49151108D01*
X120141897Y-49094321D01*
X120141512Y-49090643D01*
X120144286Y-49074918D01*
X120144286Y-48960632D01*
X120143021Y-48957156D01*
X120141897Y-48941229D01*
X120103801Y-48788848D01*
X120101680Y-48785707D01*
X120097744Y-48772474D01*
X120059649Y-48696283D01*
X120058382Y-48695083D01*
X120044664Y-48675492D01*
X119968474Y-48599301D01*
X119964138Y-48597279D01*
X119961635Y-48593205D01*
X119937203Y-48579975D01*
X119822917Y-48541880D01*
X119821168Y-48541927D01*
X119797619Y-48537775D01*
X119607143Y-48537775D01*
X119587611Y-48544883D01*
X119567143Y-48548493D01*
X119562503Y-48554022D01*
X119555720Y-48556491D01*
X119545326Y-48574492D01*
X119531968Y-48590413D01*
X119530135Y-48600804D01*
X119528358Y-48603883D01*
X119528975Y-48607383D01*
X119527143Y-48617775D01*
X119527143Y-49417775D01*
X119071215Y-49417775D01*
X119071215Y-48423489D01*
X123115715Y-48423489D01*
X123115715Y-52188061D01*
G37*
G36*
X81877609Y-51322617D02*
G01*
X81897347Y-51342354D01*
X81921191Y-51390041D01*
X81921191Y-51466555D01*
X81897347Y-51514242D01*
X81877609Y-51533979D01*
X81829925Y-51557822D01*
X81624048Y-51557822D01*
X81624048Y-51298775D01*
X81829925Y-51298775D01*
X81877609Y-51322617D01*
G37*
G36*
X82296659Y-50034618D02*
G01*
X82348002Y-50085960D01*
X82378334Y-50207287D01*
X82378334Y-50454261D01*
X82348002Y-50575588D01*
X82296657Y-50626932D01*
X82248973Y-50650775D01*
X82134362Y-50650775D01*
X82086675Y-50626931D01*
X82035332Y-50575588D01*
X82005000Y-50454260D01*
X82005000Y-50207288D01*
X82035332Y-50085961D01*
X82086675Y-50034618D01*
X82134362Y-50010775D01*
X82248973Y-50010775D01*
X82296659Y-50034618D01*
G37*
G36*
X81843689Y-48750792D02*
G01*
X81897346Y-48804449D01*
X81925709Y-48861173D01*
X81959286Y-48995479D01*
X81959286Y-49090070D01*
X81925709Y-49224375D01*
X81897346Y-49281100D01*
X81843690Y-49334757D01*
X81759636Y-49362775D01*
X81662143Y-49362775D01*
X81662143Y-48722775D01*
X81759636Y-48722775D01*
X81843689Y-48750792D01*
G37*
G36*
X82715706Y-48746618D02*
G01*
X82767049Y-48797960D01*
X82797381Y-48919287D01*
X82797381Y-49166261D01*
X82767049Y-49287588D01*
X82715704Y-49338932D01*
X82668020Y-49362775D01*
X82553409Y-49362775D01*
X82505722Y-49338931D01*
X82454379Y-49287588D01*
X82424047Y-49166260D01*
X82424047Y-48919288D01*
X82454379Y-48797961D01*
X82505722Y-48746618D01*
X82553409Y-48722775D01*
X82668020Y-48722775D01*
X82715706Y-48746618D01*
G37*
G36*
X85090715Y-52213061D02*
G01*
X81046215Y-52213061D01*
X81046215Y-52018775D01*
X81464048Y-52018775D01*
X81482764Y-52070198D01*
X81530156Y-52097560D01*
X81584048Y-52088057D01*
X81619223Y-52046137D01*
X81624048Y-52018775D01*
X82264048Y-52018775D01*
X82282764Y-52070198D01*
X82330156Y-52097560D01*
X82384048Y-52088057D01*
X82419223Y-52046137D01*
X82424048Y-52018775D01*
X82645000Y-52018775D01*
X82663716Y-52070198D01*
X82711108Y-52097560D01*
X82765000Y-52088057D01*
X82800175Y-52046137D01*
X82805000Y-52018775D01*
X82805000Y-51520019D01*
X83112684Y-52058466D01*
X83118328Y-52063245D01*
X83120859Y-52070198D01*
X83138715Y-52080507D01*
X83154447Y-52093828D01*
X83161844Y-52093860D01*
X83168251Y-52097560D01*
X83188552Y-52093980D01*
X83209170Y-52094072D01*
X83214858Y-52089341D01*
X83222143Y-52088057D01*
X83235394Y-52072264D01*
X83251246Y-52059083D01*
X83252563Y-52051803D01*
X83257318Y-52046137D01*
X83262143Y-52018775D01*
X83262143Y-51447346D01*
X83444999Y-51447346D01*
X83446635Y-51451840D01*
X83445524Y-51456492D01*
X83453445Y-51483123D01*
X83491541Y-51559314D01*
X83492807Y-51560513D01*
X83506526Y-51580106D01*
X83544621Y-51618200D01*
X83546202Y-51618937D01*
X83565413Y-51633186D01*
X83641603Y-51671281D01*
X83645367Y-51671714D01*
X83657977Y-51677338D01*
X83801840Y-51713304D01*
X83858562Y-51741665D01*
X83878299Y-51761402D01*
X83902142Y-51809088D01*
X83902142Y-51847509D01*
X83878298Y-51895195D01*
X83858562Y-51914932D01*
X83810876Y-51938775D01*
X83652268Y-51938775D01*
X83550297Y-51904785D01*
X83495594Y-51906280D01*
X83454650Y-51942587D01*
X83446623Y-51996719D01*
X83475269Y-52043345D01*
X83499701Y-52056575D01*
X83613987Y-52094670D01*
X83615735Y-52094622D01*
X83639285Y-52098775D01*
X83829761Y-52098775D01*
X83834255Y-52097139D01*
X83838907Y-52098250D01*
X83865538Y-52090329D01*
X83941729Y-52052234D01*
X83942929Y-52050966D01*
X83962521Y-52037248D01*
X84000616Y-51999152D01*
X84001354Y-51997569D01*
X84015601Y-51978361D01*
X84017928Y-51973707D01*
X84207208Y-51973707D01*
X84212588Y-51993788D01*
X84214400Y-52014490D01*
X84220450Y-52023131D01*
X84221371Y-52026566D01*
X84224283Y-52028605D01*
X84230336Y-52037249D01*
X84268432Y-52075344D01*
X84287268Y-52084127D01*
X84304294Y-52096049D01*
X84307938Y-52095730D01*
X84311108Y-52097560D01*
X84314711Y-52096924D01*
X84318028Y-52098471D01*
X84338105Y-52093091D01*
X84358809Y-52091280D01*
X84362877Y-52088431D01*
X84365000Y-52088057D01*
X84367261Y-52085361D01*
X84367454Y-52085226D01*
X84370887Y-52084307D01*
X84372924Y-52081396D01*
X84381569Y-52075344D01*
X84419663Y-52037249D01*
X84428447Y-52018410D01*
X84440369Y-52001386D01*
X84439739Y-51994195D01*
X84442791Y-51987653D01*
X84439054Y-51973707D01*
X84588160Y-51973707D01*
X84593540Y-51993788D01*
X84595352Y-52014490D01*
X84601402Y-52023131D01*
X84602323Y-52026566D01*
X84605235Y-52028605D01*
X84611288Y-52037249D01*
X84649384Y-52075344D01*
X84668220Y-52084127D01*
X84685246Y-52096049D01*
X84688890Y-52095730D01*
X84692060Y-52097560D01*
X84695663Y-52096924D01*
X84698980Y-52098471D01*
X84719057Y-52093091D01*
X84739761Y-52091280D01*
X84743829Y-52088431D01*
X84745952Y-52088057D01*
X84748213Y-52085361D01*
X84748406Y-52085226D01*
X84751839Y-52084307D01*
X84753876Y-52081396D01*
X84762521Y-52075344D01*
X84800615Y-52037249D01*
X84809399Y-52018410D01*
X84821321Y-52001386D01*
X84820691Y-51994195D01*
X84823743Y-51987653D01*
X84818363Y-51967576D01*
X84816552Y-51946872D01*
X84810498Y-51938226D01*
X84809579Y-51934794D01*
X84806668Y-51932755D01*
X84800616Y-51924112D01*
X84762521Y-51886016D01*
X84743683Y-51877231D01*
X84726658Y-51865310D01*
X84723013Y-51865628D01*
X84719844Y-51863799D01*
X84716241Y-51864434D01*
X84712926Y-51862888D01*
X84692847Y-51868267D01*
X84672143Y-51870079D01*
X84668074Y-51872927D01*
X84665952Y-51873302D01*
X84663689Y-51875997D01*
X84663499Y-51876131D01*
X84660067Y-51877051D01*
X84658028Y-51879961D01*
X84649384Y-51886015D01*
X84611287Y-51924111D01*
X84602500Y-51942953D01*
X84590582Y-51959976D01*
X84591210Y-51967164D01*
X84588160Y-51973707D01*
X84439054Y-51973707D01*
X84437411Y-51967576D01*
X84435600Y-51946872D01*
X84429546Y-51938226D01*
X84428627Y-51934794D01*
X84425716Y-51932755D01*
X84419664Y-51924112D01*
X84381569Y-51886016D01*
X84362731Y-51877231D01*
X84345706Y-51865310D01*
X84342061Y-51865628D01*
X84338892Y-51863799D01*
X84335289Y-51864434D01*
X84331974Y-51862888D01*
X84311895Y-51868267D01*
X84291191Y-51870079D01*
X84287122Y-51872927D01*
X84285000Y-51873302D01*
X84282737Y-51875997D01*
X84282547Y-51876131D01*
X84279115Y-51877051D01*
X84277076Y-51879961D01*
X84268432Y-51886015D01*
X84230335Y-51924111D01*
X84221548Y-51942953D01*
X84209630Y-51959976D01*
X84210258Y-51967164D01*
X84207208Y-51973707D01*
X84017928Y-51973707D01*
X84053696Y-51902171D01*
X84054242Y-51897419D01*
X84057317Y-51893756D01*
X84062142Y-51866394D01*
X84062142Y-51790203D01*
X84060505Y-51785708D01*
X84061617Y-51781057D01*
X84053696Y-51754426D01*
X84015601Y-51678236D01*
X84014331Y-51677033D01*
X84000615Y-51657444D01*
X83962521Y-51619349D01*
X83960935Y-51618609D01*
X83941729Y-51604364D01*
X83865538Y-51566268D01*
X83861773Y-51565834D01*
X83849164Y-51560211D01*
X83705302Y-51524245D01*
X83648579Y-51495884D01*
X83628842Y-51476147D01*
X83604999Y-51428460D01*
X83604999Y-51390041D01*
X83628842Y-51342354D01*
X83648579Y-51322617D01*
X83696265Y-51298775D01*
X83854874Y-51298775D01*
X83956844Y-51332765D01*
X84011546Y-51331270D01*
X84052491Y-51294963D01*
X84057155Y-51263514D01*
X84207180Y-51263514D01*
X84245276Y-51720657D01*
X84254112Y-51739814D01*
X84259657Y-51760169D01*
X84262523Y-51762158D01*
X84263716Y-51765436D01*
X84266736Y-51767179D01*
X84268198Y-51770348D01*
X84287282Y-51779343D01*
X84304613Y-51791372D01*
X84308086Y-51791053D01*
X84311108Y-51792798D01*
X84314542Y-51792192D01*
X84317699Y-51793680D01*
X84338104Y-51788302D01*
X84359108Y-51786377D01*
X84361563Y-51783900D01*
X84365000Y-51783295D01*
X84367241Y-51780623D01*
X84370616Y-51779734D01*
X84382791Y-51762497D01*
X84397643Y-51747523D01*
X84398845Y-51742958D01*
X84400175Y-51741375D01*
X84400994Y-51736727D01*
X84402188Y-51735038D01*
X84402856Y-51727741D01*
X84404724Y-51720657D01*
X84442819Y-51263514D01*
X84588132Y-51263514D01*
X84626228Y-51720657D01*
X84635064Y-51739814D01*
X84640609Y-51760169D01*
X84643475Y-51762158D01*
X84644668Y-51765436D01*
X84647688Y-51767179D01*
X84649150Y-51770348D01*
X84668234Y-51779343D01*
X84685565Y-51791372D01*
X84689038Y-51791053D01*
X84692060Y-51792798D01*
X84695494Y-51792192D01*
X84698651Y-51793680D01*
X84719056Y-51788302D01*
X84740060Y-51786377D01*
X84742515Y-51783900D01*
X84745952Y-51783295D01*
X84748193Y-51780623D01*
X84751568Y-51779734D01*
X84763743Y-51762497D01*
X84778595Y-51747523D01*
X84779797Y-51742958D01*
X84781127Y-51741375D01*
X84781946Y-51736727D01*
X84783140Y-51735038D01*
X84783808Y-51727741D01*
X84785676Y-51720657D01*
X84823771Y-51263513D01*
X84818348Y-51243604D01*
X84816551Y-51223061D01*
X84810335Y-51214183D01*
X84809390Y-51210713D01*
X84806501Y-51208708D01*
X84800615Y-51200301D01*
X84762521Y-51162206D01*
X84743680Y-51153420D01*
X84726658Y-51141501D01*
X84723013Y-51141819D01*
X84719844Y-51139990D01*
X84716241Y-51140625D01*
X84712925Y-51139079D01*
X84692846Y-51144458D01*
X84672144Y-51146270D01*
X84668075Y-51149118D01*
X84665952Y-51149493D01*
X84663688Y-51152190D01*
X84663500Y-51152321D01*
X84660066Y-51153242D01*
X84658026Y-51156154D01*
X84649384Y-51162206D01*
X84611288Y-51200301D01*
X84602568Y-51218998D01*
X84590668Y-51235846D01*
X84589678Y-51246639D01*
X84588160Y-51249896D01*
X84589069Y-51253289D01*
X84588132Y-51263514D01*
X84442819Y-51263514D01*
X84442819Y-51263513D01*
X84437396Y-51243604D01*
X84435599Y-51223061D01*
X84429383Y-51214183D01*
X84428438Y-51210713D01*
X84425549Y-51208708D01*
X84419663Y-51200301D01*
X84381569Y-51162206D01*
X84362728Y-51153420D01*
X84345706Y-51141501D01*
X84342061Y-51141819D01*
X84338892Y-51139990D01*
X84335289Y-51140625D01*
X84331973Y-51139079D01*
X84311894Y-51144458D01*
X84291192Y-51146270D01*
X84287123Y-51149118D01*
X84285000Y-51149493D01*
X84282736Y-51152190D01*
X84282548Y-51152321D01*
X84279114Y-51153242D01*
X84277074Y-51156154D01*
X84268432Y-51162206D01*
X84230336Y-51200301D01*
X84221616Y-51218998D01*
X84209716Y-51235846D01*
X84208726Y-51246639D01*
X84207208Y-51249896D01*
X84208117Y-51253289D01*
X84207180Y-51263514D01*
X84057155Y-51263514D01*
X84060518Y-51240832D01*
X84031872Y-51194205D01*
X84007440Y-51180975D01*
X83893155Y-51142880D01*
X83891406Y-51142927D01*
X83867857Y-51138775D01*
X83677380Y-51138775D01*
X83672885Y-51140411D01*
X83668234Y-51139300D01*
X83641603Y-51147221D01*
X83565413Y-51185316D01*
X83564210Y-51186585D01*
X83544621Y-51200302D01*
X83506526Y-51238396D01*
X83505786Y-51239981D01*
X83491541Y-51259188D01*
X83453445Y-51335379D01*
X83452898Y-51340130D01*
X83449824Y-51343794D01*
X83444999Y-51371156D01*
X83444999Y-51447346D01*
X83262143Y-51447346D01*
X83262143Y-51218775D01*
X83243427Y-51167352D01*
X83196035Y-51139990D01*
X83142143Y-51149493D01*
X83106968Y-51191413D01*
X83102143Y-51218775D01*
X83102143Y-51717530D01*
X82794459Y-51179084D01*
X82788814Y-51174304D01*
X82786284Y-51167352D01*
X82768427Y-51157042D01*
X82752696Y-51143722D01*
X82745298Y-51143689D01*
X82738892Y-51139990D01*
X82718590Y-51143569D01*
X82697973Y-51143478D01*
X82692284Y-51148208D01*
X82685000Y-51149493D01*
X82671748Y-51165285D01*
X82655897Y-51178467D01*
X82654579Y-51185746D01*
X82649825Y-51191413D01*
X82645000Y-51218775D01*
X82645000Y-52018775D01*
X82424048Y-52018775D01*
X82424048Y-51218775D01*
X82405332Y-51167352D01*
X82357940Y-51139990D01*
X82304048Y-51149493D01*
X82268873Y-51191413D01*
X82264048Y-51218775D01*
X82264048Y-52018775D01*
X81624048Y-52018775D01*
X81624048Y-51717822D01*
X81848810Y-51717822D01*
X81853304Y-51716185D01*
X81857956Y-51717297D01*
X81884587Y-51709376D01*
X81960777Y-51671281D01*
X81961976Y-51670014D01*
X81981569Y-51656296D01*
X82019663Y-51618201D01*
X82020400Y-51616619D01*
X82034649Y-51597409D01*
X82072745Y-51521219D01*
X82073291Y-51516466D01*
X82076366Y-51512803D01*
X82081191Y-51485441D01*
X82081191Y-51371156D01*
X82079554Y-51366660D01*
X82080666Y-51362009D01*
X82072745Y-51335378D01*
X82034649Y-51259188D01*
X82033379Y-51257985D01*
X82019663Y-51238396D01*
X81981569Y-51200301D01*
X81979983Y-51199561D01*
X81960777Y-51185316D01*
X81884587Y-51147221D01*
X81879835Y-51146674D01*
X81876172Y-51143600D01*
X81848810Y-51138775D01*
X81544048Y-51138775D01*
X81524516Y-51145883D01*
X81504048Y-51149493D01*
X81499408Y-51155022D01*
X81492625Y-51157491D01*
X81482231Y-51175492D01*
X81468873Y-51191413D01*
X81467040Y-51201804D01*
X81465263Y-51204883D01*
X81465880Y-51208383D01*
X81464048Y-51218775D01*
X81464048Y-52018775D01*
X81046215Y-52018775D01*
X81046215Y-49916883D01*
X81160501Y-49916883D01*
X81170004Y-49970775D01*
X81211924Y-50005950D01*
X81239286Y-50010775D01*
X81387857Y-50010775D01*
X81387857Y-50730775D01*
X81406573Y-50782198D01*
X81453965Y-50809560D01*
X81507857Y-50800057D01*
X81543032Y-50758137D01*
X81547857Y-50730775D01*
X81547857Y-50464108D01*
X81845000Y-50464108D01*
X81846264Y-50467583D01*
X81847389Y-50483511D01*
X81885485Y-50635892D01*
X81889903Y-50642433D01*
X81890591Y-50650297D01*
X81906527Y-50673057D01*
X81982717Y-50749248D01*
X81984301Y-50749986D01*
X82003509Y-50764234D01*
X82079700Y-50802329D01*
X82084451Y-50802875D01*
X82088115Y-50805950D01*
X82115477Y-50810775D01*
X82267858Y-50810775D01*
X82272352Y-50809138D01*
X82277004Y-50810250D01*
X82303635Y-50802329D01*
X82379825Y-50764234D01*
X82381024Y-50762967D01*
X82400617Y-50749249D01*
X82476807Y-50673058D01*
X82480143Y-50665902D01*
X82486533Y-50661267D01*
X82497850Y-50635892D01*
X82512225Y-50578394D01*
X82721191Y-50578394D01*
X82722827Y-50582888D01*
X82721716Y-50587540D01*
X82729637Y-50614171D01*
X82767732Y-50690361D01*
X82769000Y-50691562D01*
X82782717Y-50711152D01*
X82820812Y-50749248D01*
X82822396Y-50749986D01*
X82841604Y-50764234D01*
X82917795Y-50802329D01*
X82922546Y-50802875D01*
X82926210Y-50805950D01*
X82953572Y-50810775D01*
X83105953Y-50810775D01*
X83110447Y-50809138D01*
X83115099Y-50810250D01*
X83141730Y-50802329D01*
X83217920Y-50764234D01*
X83219120Y-50762966D01*
X83238712Y-50749248D01*
X83276807Y-50711152D01*
X83277546Y-50709566D01*
X83291792Y-50690362D01*
X83329888Y-50614172D01*
X83330434Y-50609419D01*
X83333509Y-50605756D01*
X83338334Y-50578394D01*
X83338334Y-50387918D01*
X83521190Y-50387918D01*
X83522454Y-50391393D01*
X83523579Y-50407321D01*
X83561675Y-50559702D01*
X83563795Y-50562841D01*
X83567732Y-50576076D01*
X83605827Y-50652266D01*
X83607095Y-50653467D01*
X83620812Y-50673057D01*
X83697002Y-50749248D01*
X83701337Y-50751269D01*
X83703841Y-50755345D01*
X83728273Y-50768575D01*
X83842559Y-50806670D01*
X83844307Y-50806622D01*
X83867857Y-50810775D01*
X83944048Y-50810775D01*
X83945689Y-50810177D01*
X83969346Y-50806670D01*
X84083631Y-50768575D01*
X84087377Y-50765601D01*
X84092142Y-50765185D01*
X84114902Y-50749249D01*
X84133376Y-50730775D01*
X84359286Y-50730775D01*
X84378002Y-50782198D01*
X84425394Y-50809560D01*
X84479286Y-50800057D01*
X84514461Y-50758137D01*
X84519286Y-50730775D01*
X84519286Y-50391727D01*
X84816429Y-50391727D01*
X84816429Y-50730775D01*
X84835145Y-50782198D01*
X84882537Y-50809560D01*
X84936429Y-50800057D01*
X84971604Y-50758137D01*
X84976429Y-50730775D01*
X84976429Y-49930775D01*
X84957713Y-49879352D01*
X84910321Y-49851990D01*
X84856429Y-49861493D01*
X84821254Y-49903413D01*
X84816429Y-49930775D01*
X84816429Y-50231727D01*
X84519286Y-50231727D01*
X84519286Y-49930775D01*
X84500570Y-49879352D01*
X84453178Y-49851990D01*
X84399286Y-49861493D01*
X84364111Y-49903413D01*
X84359286Y-49930775D01*
X84359286Y-50730775D01*
X84133376Y-50730775D01*
X84152998Y-50711152D01*
X84176125Y-50661557D01*
X84161962Y-50608698D01*
X84117135Y-50577310D01*
X84062620Y-50582079D01*
X84039861Y-50598015D01*
X84015118Y-50622757D01*
X83931065Y-50650775D01*
X83880840Y-50650775D01*
X83796785Y-50622757D01*
X83743129Y-50569100D01*
X83714766Y-50512375D01*
X83681190Y-50378070D01*
X83681190Y-50283479D01*
X83714766Y-50149173D01*
X83743128Y-50092450D01*
X83796785Y-50038792D01*
X83880840Y-50010775D01*
X83931065Y-50010775D01*
X84015119Y-50038793D01*
X84039861Y-50063534D01*
X84089457Y-50086661D01*
X84142316Y-50072497D01*
X84173703Y-50027669D01*
X84168933Y-49973155D01*
X84152997Y-49950396D01*
X84114901Y-49912301D01*
X84110566Y-49910279D01*
X84108063Y-49906205D01*
X84083631Y-49892975D01*
X83969346Y-49854880D01*
X83967597Y-49854927D01*
X83944048Y-49850775D01*
X83867857Y-49850775D01*
X83866215Y-49851372D01*
X83842559Y-49854880D01*
X83728273Y-49892975D01*
X83724526Y-49895948D01*
X83719762Y-49896365D01*
X83697003Y-49912301D01*
X83620812Y-49988491D01*
X83620071Y-49990078D01*
X83605827Y-50009283D01*
X83567732Y-50085474D01*
X83567298Y-50089238D01*
X83561675Y-50101848D01*
X83523579Y-50254229D01*
X83523963Y-50257906D01*
X83521190Y-50273632D01*
X83521190Y-50387918D01*
X83338334Y-50387918D01*
X83338334Y-49930775D01*
X83319618Y-49879352D01*
X83272226Y-49851990D01*
X83218334Y-49861493D01*
X83183159Y-49903413D01*
X83178334Y-49930775D01*
X83178334Y-50559508D01*
X83154489Y-50607196D01*
X83134753Y-50626932D01*
X83087068Y-50650775D01*
X82972457Y-50650775D01*
X82924770Y-50626932D01*
X82905034Y-50607195D01*
X82881191Y-50559509D01*
X82881191Y-49930775D01*
X82862475Y-49879352D01*
X82815083Y-49851990D01*
X82761191Y-49861493D01*
X82726016Y-49903413D01*
X82721191Y-49930775D01*
X82721191Y-50578394D01*
X82512225Y-50578394D01*
X82535946Y-50483510D01*
X82535561Y-50479830D01*
X82538334Y-50464108D01*
X82538334Y-50197441D01*
X82537069Y-50193966D01*
X82535946Y-50178039D01*
X82497850Y-50025657D01*
X82493432Y-50019115D01*
X82492744Y-50011251D01*
X82476807Y-49988491D01*
X82400616Y-49912301D01*
X82399033Y-49911562D01*
X82379825Y-49897316D01*
X82303635Y-49859221D01*
X82298883Y-49858674D01*
X82295220Y-49855600D01*
X82267858Y-49850775D01*
X82115477Y-49850775D01*
X82110982Y-49852410D01*
X82106332Y-49851300D01*
X82079700Y-49859221D01*
X82003509Y-49897316D01*
X82002309Y-49898582D01*
X81982718Y-49912301D01*
X81906527Y-49988491D01*
X81903190Y-49995646D01*
X81896802Y-50000282D01*
X81885485Y-50025657D01*
X81847389Y-50178038D01*
X81847773Y-50181715D01*
X81845000Y-50197441D01*
X81845000Y-50464108D01*
X81547857Y-50464108D01*
X81547857Y-50010775D01*
X81696429Y-50010775D01*
X81747852Y-49992059D01*
X81775214Y-49944667D01*
X81765711Y-49890775D01*
X81723791Y-49855600D01*
X81696429Y-49850775D01*
X81239286Y-49850775D01*
X81187863Y-49869491D01*
X81160501Y-49916883D01*
X81046215Y-49916883D01*
X81046215Y-49442775D01*
X81502143Y-49442775D01*
X81509251Y-49462306D01*
X81512861Y-49482775D01*
X81518390Y-49487414D01*
X81520859Y-49494198D01*
X81538860Y-49504591D01*
X81554781Y-49517950D01*
X81565172Y-49519782D01*
X81568251Y-49521560D01*
X81571751Y-49520942D01*
X81582143Y-49522775D01*
X81772619Y-49522775D01*
X81774260Y-49522177D01*
X81797917Y-49518670D01*
X81912203Y-49480575D01*
X81915950Y-49477600D01*
X81920714Y-49477184D01*
X81943474Y-49461248D01*
X82019664Y-49385057D01*
X82020402Y-49383474D01*
X82034649Y-49364266D01*
X82072744Y-49288076D01*
X82073177Y-49284311D01*
X82078801Y-49271702D01*
X82102700Y-49176108D01*
X82264047Y-49176108D01*
X82265311Y-49179583D01*
X82266436Y-49195511D01*
X82304532Y-49347892D01*
X82308950Y-49354433D01*
X82309638Y-49362297D01*
X82325574Y-49385057D01*
X82401764Y-49461248D01*
X82403348Y-49461986D01*
X82422556Y-49476234D01*
X82498747Y-49514329D01*
X82503498Y-49514875D01*
X82507162Y-49517950D01*
X82534524Y-49522775D01*
X82686905Y-49522775D01*
X82691399Y-49521138D01*
X82696051Y-49522250D01*
X82722682Y-49514329D01*
X82798872Y-49476234D01*
X82800071Y-49474967D01*
X82819664Y-49461249D01*
X82838138Y-49442775D01*
X83140238Y-49442775D01*
X83158954Y-49494198D01*
X83206346Y-49521560D01*
X83260238Y-49512057D01*
X83295413Y-49470137D01*
X83300238Y-49442775D01*
X83300238Y-48944019D01*
X83607922Y-49482466D01*
X83613566Y-49487245D01*
X83616097Y-49494198D01*
X83633953Y-49504507D01*
X83649685Y-49517828D01*
X83657082Y-49517860D01*
X83663489Y-49521560D01*
X83683790Y-49517980D01*
X83704408Y-49518072D01*
X83710096Y-49513341D01*
X83717381Y-49512057D01*
X83730632Y-49496264D01*
X83746484Y-49483083D01*
X83747801Y-49475803D01*
X83752556Y-49470137D01*
X83757381Y-49442775D01*
X83757381Y-48813743D01*
X83942426Y-48813743D01*
X83972578Y-48859411D01*
X84025030Y-48875012D01*
X84075239Y-48853249D01*
X84091791Y-48830933D01*
X84167982Y-48678553D01*
X84173699Y-48628883D01*
X84246214Y-48628883D01*
X84255717Y-48682775D01*
X84297637Y-48717950D01*
X84324999Y-48722775D01*
X84473570Y-48722775D01*
X84473570Y-49442775D01*
X84492286Y-49494198D01*
X84539678Y-49521560D01*
X84593570Y-49512057D01*
X84628745Y-49470137D01*
X84633570Y-49442775D01*
X84633570Y-48722775D01*
X84782142Y-48722775D01*
X84833565Y-48704059D01*
X84860927Y-48656667D01*
X84851424Y-48602775D01*
X84809504Y-48567600D01*
X84782142Y-48562775D01*
X84324999Y-48562775D01*
X84273576Y-48581491D01*
X84246214Y-48628883D01*
X84173699Y-48628883D01*
X84174239Y-48624188D01*
X84144087Y-48578521D01*
X84091635Y-48562919D01*
X84041426Y-48584683D01*
X84024874Y-48606998D01*
X83948683Y-48759379D01*
X83942426Y-48813743D01*
X83757381Y-48813743D01*
X83757381Y-48642775D01*
X83738665Y-48591352D01*
X83691273Y-48563990D01*
X83637381Y-48573493D01*
X83602206Y-48615413D01*
X83597381Y-48642775D01*
X83597381Y-49141530D01*
X83289697Y-48603084D01*
X83284052Y-48598304D01*
X83281522Y-48591352D01*
X83263665Y-48581042D01*
X83247934Y-48567722D01*
X83240536Y-48567689D01*
X83234130Y-48563990D01*
X83213828Y-48567569D01*
X83193211Y-48567478D01*
X83187522Y-48572208D01*
X83180238Y-48573493D01*
X83166986Y-48589285D01*
X83151135Y-48602467D01*
X83149817Y-48609746D01*
X83145063Y-48615413D01*
X83140238Y-48642775D01*
X83140238Y-49442775D01*
X82838138Y-49442775D01*
X82895854Y-49385058D01*
X82899190Y-49377902D01*
X82905580Y-49373267D01*
X82916897Y-49347892D01*
X82954993Y-49195510D01*
X82954608Y-49191830D01*
X82957381Y-49176108D01*
X82957381Y-48909441D01*
X82956116Y-48905966D01*
X82954993Y-48890039D01*
X82916897Y-48737657D01*
X82912479Y-48731115D01*
X82911791Y-48723251D01*
X82895854Y-48700491D01*
X82819663Y-48624301D01*
X82818080Y-48623562D01*
X82798872Y-48609316D01*
X82722682Y-48571221D01*
X82717930Y-48570674D01*
X82714267Y-48567600D01*
X82686905Y-48562775D01*
X82534524Y-48562775D01*
X82530029Y-48564410D01*
X82525379Y-48563300D01*
X82498747Y-48571221D01*
X82422556Y-48609316D01*
X82421356Y-48610582D01*
X82401765Y-48624301D01*
X82325574Y-48700491D01*
X82322237Y-48707646D01*
X82315849Y-48712282D01*
X82304532Y-48737657D01*
X82266436Y-48890038D01*
X82266820Y-48893715D01*
X82264047Y-48909441D01*
X82264047Y-49176108D01*
X82102700Y-49176108D01*
X82116897Y-49119321D01*
X82116512Y-49115643D01*
X82119286Y-49099918D01*
X82119286Y-48985632D01*
X82118021Y-48982156D01*
X82116897Y-48966229D01*
X82078801Y-48813848D01*
X82076680Y-48810707D01*
X82072744Y-48797474D01*
X82034649Y-48721283D01*
X82033382Y-48720083D01*
X82019664Y-48700492D01*
X81943474Y-48624301D01*
X81939138Y-48622279D01*
X81936635Y-48618205D01*
X81912203Y-48604975D01*
X81797917Y-48566880D01*
X81796168Y-48566927D01*
X81772619Y-48562775D01*
X81582143Y-48562775D01*
X81562611Y-48569883D01*
X81542143Y-48573493D01*
X81537503Y-48579022D01*
X81530720Y-48581491D01*
X81520326Y-48599492D01*
X81506968Y-48615413D01*
X81505135Y-48625804D01*
X81503358Y-48628883D01*
X81503975Y-48632383D01*
X81502143Y-48642775D01*
X81502143Y-49442775D01*
X81046215Y-49442775D01*
X81046215Y-48448489D01*
X85090715Y-48448489D01*
X85090715Y-52213061D01*
G37*
D11*
G36*
X77384426Y-80982237D02*
G01*
X77474471Y-81072281D01*
X77523087Y-81169514D01*
X77583926Y-81412867D01*
X77583926Y-81580988D01*
X77523087Y-81824341D01*
X77474471Y-81921575D01*
X77384427Y-82011619D01*
X77241000Y-82059428D01*
X77101783Y-82059428D01*
X77101783Y-80934428D01*
X77240999Y-80934428D01*
X77384426Y-80982237D01*
G37*
G36*
X95874644Y-80972453D02*
G01*
X95959263Y-81057073D01*
X96012499Y-81270011D01*
X96012499Y-81723844D01*
X95959263Y-81936783D01*
X95874644Y-82021402D01*
X95798594Y-82059428D01*
X95601404Y-82059428D01*
X95525353Y-82021402D01*
X95440732Y-81936782D01*
X95387499Y-81723845D01*
X95387499Y-81270010D01*
X95440733Y-81057073D01*
X95525351Y-80972454D01*
X95601405Y-80934428D01*
X95798593Y-80934428D01*
X95874644Y-80972453D01*
G37*
G36*
X105088930Y-80972453D02*
G01*
X105173549Y-81057073D01*
X105226785Y-81270011D01*
X105226785Y-81723844D01*
X105173549Y-81936783D01*
X105088930Y-82021402D01*
X105012880Y-82059428D01*
X104815690Y-82059428D01*
X104739639Y-82021402D01*
X104655018Y-81936782D01*
X104601785Y-81723845D01*
X104601785Y-81270010D01*
X104655019Y-81057073D01*
X104739637Y-80972454D01*
X104815691Y-80934428D01*
X105012879Y-80934428D01*
X105088930Y-80972453D01*
G37*
G36*
X116874645Y-80972453D02*
G01*
X116959264Y-81057073D01*
X117012500Y-81270011D01*
X117012500Y-81723844D01*
X116959264Y-81936783D01*
X116874645Y-82021402D01*
X116798595Y-82059428D01*
X116601405Y-82059428D01*
X116525354Y-82021402D01*
X116440733Y-81936782D01*
X116387500Y-81723845D01*
X116387500Y-81270010D01*
X116440734Y-81057073D01*
X116525352Y-80972454D01*
X116601406Y-80934428D01*
X116798594Y-80934428D01*
X116874645Y-80972453D01*
G37*
G36*
X125588932Y-80972453D02*
G01*
X125673551Y-81057073D01*
X125726787Y-81270011D01*
X125726787Y-81723844D01*
X125673551Y-81936783D01*
X125588932Y-82021402D01*
X125512882Y-82059428D01*
X125315692Y-82059428D01*
X125239641Y-82021402D01*
X125155020Y-81936782D01*
X125101787Y-81723845D01*
X125101787Y-81270010D01*
X125155021Y-81057073D01*
X125239639Y-80972454D01*
X125315693Y-80934428D01*
X125512881Y-80934428D01*
X125588932Y-80972453D01*
G37*
G36*
X84731788Y-80972455D02*
G01*
X84760187Y-81000853D01*
X84798212Y-81076903D01*
X84798212Y-81202666D01*
X84760187Y-81278716D01*
X84731785Y-81307117D01*
X84655736Y-81345142D01*
X84316069Y-81345142D01*
X84316069Y-80934428D01*
X84655735Y-80934428D01*
X84731788Y-80972455D01*
G37*
G36*
X127160363Y-80972455D02*
G01*
X127188762Y-81000853D01*
X127226787Y-81076903D01*
X127226787Y-81202666D01*
X127188762Y-81278716D01*
X127160360Y-81307117D01*
X127084311Y-81345142D01*
X126744644Y-81345142D01*
X126744644Y-80934428D01*
X127084310Y-80934428D01*
X127160363Y-80972455D01*
G37*
G36*
X78796999Y-81630857D02*
G01*
X78602997Y-81630857D01*
X78699998Y-81339855D01*
X78796999Y-81630857D01*
G37*
G36*
X99582715Y-81630857D02*
G01*
X99388713Y-81630857D01*
X99485714Y-81339855D01*
X99582715Y-81630857D01*
G37*
G36*
X129958283Y-82648714D02*
G01*
X76512497Y-82648714D01*
X76512497Y-82246928D01*
X76726783Y-82246928D01*
X76731484Y-82267524D01*
X76731484Y-82288651D01*
X76740649Y-82307683D01*
X76745351Y-82328281D01*
X76758524Y-82344799D01*
X76767690Y-82363832D01*
X76784206Y-82377004D01*
X76797379Y-82393521D01*
X76816411Y-82402686D01*
X76832930Y-82415860D01*
X76853527Y-82420561D01*
X76872560Y-82429727D01*
X76893686Y-82429727D01*
X76914283Y-82434428D01*
X77271426Y-82434428D01*
X77300767Y-82427731D01*
X77330718Y-82424806D01*
X77545004Y-82353378D01*
X77546221Y-82352637D01*
X77547640Y-82352478D01*
X77581825Y-82330997D01*
X77616311Y-82310037D01*
X77617087Y-82308840D01*
X77618295Y-82308082D01*
X77655692Y-82270685D01*
X78014009Y-82270685D01*
X78042736Y-82349030D01*
X78102610Y-82407152D01*
X78181774Y-82433540D01*
X78264546Y-82422967D01*
X78334535Y-82377527D01*
X78377876Y-82306221D01*
X78477997Y-82005857D01*
X78921999Y-82005857D01*
X79022120Y-82306221D01*
X79065461Y-82377527D01*
X79135450Y-82422967D01*
X79218222Y-82433540D01*
X79297386Y-82407153D01*
X79357260Y-82349030D01*
X79385987Y-82270685D01*
X79383667Y-82246928D01*
X79512497Y-82246928D01*
X79531065Y-82328281D01*
X79583093Y-82393521D01*
X79658274Y-82429727D01*
X79741720Y-82429727D01*
X79816901Y-82393521D01*
X79868929Y-82328281D01*
X79887497Y-82246928D01*
X79887497Y-81452971D01*
X80394345Y-82339954D01*
X80418234Y-82365932D01*
X80440236Y-82393521D01*
X80446282Y-82396432D01*
X80450828Y-82401376D01*
X80483621Y-82414415D01*
X80515417Y-82429727D01*
X80522133Y-82429727D01*
X80528370Y-82432207D01*
X80563573Y-82429727D01*
X80598863Y-82429727D01*
X80604909Y-82426814D01*
X80611608Y-82426343D01*
X80642259Y-82408827D01*
X80674044Y-82393521D01*
X80678227Y-82388274D01*
X80684060Y-82384942D01*
X80704074Y-82355865D01*
X80726072Y-82328281D01*
X80727565Y-82321735D01*
X80731372Y-82316206D01*
X80736787Y-82281331D01*
X80744640Y-82246928D01*
X80744640Y-81604071D01*
X81012498Y-81604071D01*
X81017622Y-81626521D01*
X81018096Y-81649546D01*
X81089524Y-81935260D01*
X81098839Y-81953628D01*
X81103721Y-81973638D01*
X81175150Y-82116495D01*
X81194261Y-82139743D01*
X81210272Y-82165224D01*
X81353129Y-82308082D01*
X81354336Y-82308840D01*
X81355113Y-82310037D01*
X81389598Y-82330997D01*
X81423784Y-82352478D01*
X81425202Y-82352637D01*
X81426420Y-82353378D01*
X81640706Y-82424806D01*
X81670656Y-82427731D01*
X81699998Y-82434428D01*
X81842855Y-82434428D01*
X81872196Y-82427731D01*
X81902147Y-82424806D01*
X82116433Y-82353378D01*
X82117650Y-82352637D01*
X82119070Y-82352478D01*
X82153270Y-82330988D01*
X82187740Y-82310037D01*
X82188516Y-82308840D01*
X82189724Y-82308082D01*
X82250877Y-82246928D01*
X82583926Y-82246928D01*
X82588627Y-82267524D01*
X82588627Y-82288651D01*
X82597792Y-82307683D01*
X82602494Y-82328281D01*
X82615667Y-82344799D01*
X82624833Y-82363832D01*
X82641349Y-82377004D01*
X82654522Y-82393521D01*
X82673554Y-82402686D01*
X82690073Y-82415860D01*
X82710670Y-82420561D01*
X82729703Y-82429727D01*
X82750829Y-82429727D01*
X82771426Y-82434428D01*
X83485712Y-82434428D01*
X83567065Y-82415860D01*
X83632305Y-82363832D01*
X83668511Y-82288651D01*
X83668511Y-82246928D01*
X83941069Y-82246928D01*
X83959637Y-82328281D01*
X84011665Y-82393521D01*
X84086846Y-82429727D01*
X84170292Y-82429727D01*
X84245473Y-82393521D01*
X84297501Y-82328281D01*
X84316069Y-82246928D01*
X84316069Y-81720142D01*
X84388089Y-81720142D01*
X84832106Y-82354452D01*
X84893970Y-82410451D01*
X84974006Y-82434062D01*
X85056359Y-82420609D01*
X85124721Y-82372756D01*
X85165549Y-82299982D01*
X85170759Y-82216699D01*
X85145461Y-82154507D01*
X85370820Y-82154507D01*
X85373185Y-82175503D01*
X85370821Y-82196495D01*
X85377797Y-82216432D01*
X85380163Y-82237428D01*
X85391404Y-82255318D01*
X85398381Y-82275257D01*
X85413317Y-82290193D01*
X85424558Y-82308083D01*
X85495986Y-82379510D01*
X85505016Y-82385184D01*
X85511665Y-82393521D01*
X85521271Y-82398147D01*
X85528812Y-82405688D01*
X85548751Y-82412665D01*
X85566641Y-82423906D01*
X85577237Y-82425099D01*
X85586846Y-82429727D01*
X85597512Y-82429727D01*
X85607574Y-82433248D01*
X85628569Y-82430882D01*
X85649562Y-82433248D01*
X85659625Y-82429727D01*
X85670292Y-82429727D01*
X85679898Y-82425100D01*
X85690495Y-82423907D01*
X85708386Y-82412665D01*
X85728324Y-82405689D01*
X85735864Y-82398148D01*
X85745473Y-82393521D01*
X85752120Y-82385185D01*
X85761151Y-82379511D01*
X85832579Y-82308084D01*
X85843819Y-82290195D01*
X85858759Y-82275256D01*
X85865735Y-82255316D01*
X85871006Y-82246928D01*
X87298212Y-82246928D01*
X87316780Y-82328281D01*
X87368808Y-82393521D01*
X87443989Y-82429727D01*
X87527435Y-82429727D01*
X87602616Y-82393521D01*
X87654644Y-82328281D01*
X87673212Y-82246928D01*
X87673212Y-81648714D01*
X88155355Y-81648714D01*
X88155355Y-82246928D01*
X88173923Y-82328281D01*
X88225951Y-82393521D01*
X88301132Y-82429727D01*
X88384578Y-82429727D01*
X88459759Y-82393521D01*
X88511787Y-82328281D01*
X88530355Y-82246928D01*
X88869641Y-82246928D01*
X88888209Y-82328281D01*
X88940237Y-82393521D01*
X89015418Y-82429727D01*
X89098864Y-82429727D01*
X89174045Y-82393521D01*
X89226073Y-82328281D01*
X89244641Y-82246928D01*
X89244641Y-81604071D01*
X89512499Y-81604071D01*
X89517623Y-81626521D01*
X89518097Y-81649546D01*
X89589525Y-81935260D01*
X89598840Y-81953628D01*
X89603722Y-81973638D01*
X89675151Y-82116495D01*
X89694262Y-82139743D01*
X89710273Y-82165224D01*
X89853130Y-82308082D01*
X89854337Y-82308840D01*
X89855114Y-82310037D01*
X89889599Y-82330997D01*
X89923785Y-82352478D01*
X89925203Y-82352637D01*
X89926421Y-82353378D01*
X90140707Y-82424806D01*
X90170657Y-82427731D01*
X90199999Y-82434428D01*
X90342856Y-82434428D01*
X90372197Y-82427731D01*
X90402148Y-82424806D01*
X90616434Y-82353378D01*
X90617651Y-82352637D01*
X90619071Y-82352478D01*
X90653271Y-82330988D01*
X90687741Y-82310037D01*
X90688517Y-82308840D01*
X90689725Y-82308082D01*
X90750878Y-82246928D01*
X91083927Y-82246928D01*
X91102495Y-82328281D01*
X91154523Y-82393521D01*
X91229704Y-82429727D01*
X91313150Y-82429727D01*
X91388331Y-82393521D01*
X91440359Y-82328281D01*
X91458927Y-82246928D01*
X91458927Y-81648714D01*
X91941070Y-81648714D01*
X91941070Y-82246928D01*
X91959638Y-82328281D01*
X92011666Y-82393521D01*
X92086847Y-82429727D01*
X92170293Y-82429727D01*
X92245474Y-82393521D01*
X92297502Y-82328281D01*
X92316070Y-82246928D01*
X92316070Y-80746928D01*
X92310648Y-80723171D01*
X93585439Y-80723171D01*
X93593550Y-80806221D01*
X94093550Y-82306221D01*
X94105948Y-82326619D01*
X94114166Y-82349030D01*
X94127347Y-82361825D01*
X94136891Y-82377527D01*
X94156913Y-82390526D01*
X94174040Y-82407152D01*
X94191469Y-82412961D01*
X94206880Y-82422967D01*
X94230559Y-82425991D01*
X94253204Y-82433540D01*
X94271428Y-82431212D01*
X94289652Y-82433540D01*
X94312298Y-82425991D01*
X94335976Y-82422967D01*
X94351383Y-82412963D01*
X94368816Y-82407153D01*
X94385945Y-82390524D01*
X94405965Y-82377527D01*
X94415508Y-82361826D01*
X94428690Y-82349030D01*
X94436907Y-82326619D01*
X94449306Y-82306221D01*
X94635737Y-81746928D01*
X95012499Y-81746928D01*
X95017623Y-81769378D01*
X95018097Y-81792403D01*
X95089525Y-82078117D01*
X95093472Y-82085899D01*
X95094449Y-82094570D01*
X95112189Y-82122804D01*
X95127270Y-82152538D01*
X95134200Y-82157835D01*
X95138844Y-82165225D01*
X95281703Y-82308083D01*
X95307185Y-82324094D01*
X95330433Y-82343205D01*
X95473290Y-82414633D01*
X95474673Y-82414970D01*
X95475789Y-82415860D01*
X95515137Y-82424840D01*
X95554358Y-82434408D01*
X95555753Y-82434111D01*
X95557142Y-82434428D01*
X95842856Y-82434428D01*
X95844244Y-82434111D01*
X95845640Y-82434408D01*
X95884860Y-82424840D01*
X95924209Y-82415860D01*
X95925324Y-82414970D01*
X95926708Y-82414633D01*
X96069565Y-82343205D01*
X96092813Y-82324093D01*
X96118296Y-82308082D01*
X96179450Y-82246928D01*
X96655356Y-82246928D01*
X96660057Y-82267524D01*
X96660057Y-82288651D01*
X96669222Y-82307683D01*
X96673924Y-82328281D01*
X96687097Y-82344799D01*
X96696263Y-82363832D01*
X96712779Y-82377004D01*
X96725952Y-82393521D01*
X96744984Y-82402686D01*
X96761503Y-82415860D01*
X96782100Y-82420561D01*
X96801133Y-82429727D01*
X96822259Y-82429727D01*
X96842856Y-82434428D01*
X97557142Y-82434428D01*
X97638495Y-82415860D01*
X97703735Y-82363832D01*
X97739941Y-82288651D01*
X97739941Y-82205205D01*
X97703735Y-82130024D01*
X97638495Y-82077996D01*
X97557142Y-82059428D01*
X97030356Y-82059428D01*
X97030356Y-80788651D01*
X97660058Y-80788651D01*
X97696264Y-80863832D01*
X97761504Y-80915860D01*
X97842857Y-80934428D01*
X98083928Y-80934428D01*
X98083928Y-82246928D01*
X98102496Y-82328281D01*
X98154524Y-82393521D01*
X98229705Y-82429727D01*
X98313151Y-82429727D01*
X98388332Y-82393521D01*
X98440360Y-82328281D01*
X98453506Y-82270685D01*
X98799725Y-82270685D01*
X98828452Y-82349030D01*
X98888326Y-82407152D01*
X98967490Y-82433540D01*
X99050262Y-82422967D01*
X99120251Y-82377527D01*
X99163592Y-82306221D01*
X99263713Y-82005857D01*
X99707715Y-82005857D01*
X99807836Y-82306221D01*
X99851177Y-82377527D01*
X99921166Y-82422967D01*
X100003938Y-82433540D01*
X100083102Y-82407153D01*
X100142976Y-82349030D01*
X100171703Y-82270685D01*
X100163592Y-82187635D01*
X99969071Y-81604071D01*
X100226785Y-81604071D01*
X100231909Y-81626521D01*
X100232383Y-81649546D01*
X100303811Y-81935260D01*
X100313126Y-81953628D01*
X100318008Y-81973638D01*
X100389437Y-82116495D01*
X100408548Y-82139743D01*
X100424559Y-82165224D01*
X100567416Y-82308082D01*
X100568623Y-82308840D01*
X100569400Y-82310037D01*
X100603885Y-82330997D01*
X100638071Y-82352478D01*
X100639489Y-82352637D01*
X100640707Y-82353378D01*
X100854993Y-82424806D01*
X100884943Y-82427731D01*
X100914285Y-82434428D01*
X101057142Y-82434428D01*
X101086483Y-82427731D01*
X101116434Y-82424806D01*
X101330720Y-82353378D01*
X101331937Y-82352637D01*
X101333357Y-82352478D01*
X101367557Y-82330988D01*
X101402027Y-82310037D01*
X101402803Y-82308840D01*
X101404011Y-82308082D01*
X101465164Y-82246928D01*
X101798213Y-82246928D01*
X101802914Y-82267524D01*
X101802914Y-82288651D01*
X101812079Y-82307683D01*
X101816781Y-82328281D01*
X101829954Y-82344799D01*
X101839120Y-82363832D01*
X101855636Y-82377004D01*
X101868809Y-82393521D01*
X101887841Y-82402686D01*
X101904360Y-82415860D01*
X101924957Y-82420561D01*
X101943990Y-82429727D01*
X101965116Y-82429727D01*
X101985713Y-82434428D01*
X102699999Y-82434428D01*
X102781352Y-82415860D01*
X102846592Y-82363832D01*
X102882798Y-82288651D01*
X102882798Y-82205205D01*
X102846592Y-82130024D01*
X102781352Y-82077996D01*
X102699999Y-82059428D01*
X102173213Y-82059428D01*
X102173213Y-81746928D01*
X104226785Y-81746928D01*
X104231909Y-81769378D01*
X104232383Y-81792403D01*
X104303811Y-82078117D01*
X104307758Y-82085899D01*
X104308735Y-82094570D01*
X104326475Y-82122804D01*
X104341556Y-82152538D01*
X104348486Y-82157835D01*
X104353130Y-82165225D01*
X104495989Y-82308083D01*
X104521471Y-82324094D01*
X104544719Y-82343205D01*
X104687576Y-82414633D01*
X104688959Y-82414970D01*
X104690075Y-82415860D01*
X104729423Y-82424840D01*
X104768644Y-82434408D01*
X104770039Y-82434111D01*
X104771428Y-82434428D01*
X105057142Y-82434428D01*
X105058530Y-82434111D01*
X105059926Y-82434408D01*
X105099146Y-82424840D01*
X105138495Y-82415860D01*
X105139610Y-82414970D01*
X105140994Y-82414633D01*
X105283851Y-82343205D01*
X105307099Y-82324093D01*
X105332582Y-82308082D01*
X105393736Y-82246928D01*
X105869642Y-82246928D01*
X105888210Y-82328281D01*
X105940238Y-82393521D01*
X106015419Y-82429727D01*
X106098865Y-82429727D01*
X106174046Y-82393521D01*
X106226074Y-82328281D01*
X106244642Y-82246928D01*
X106244642Y-81452971D01*
X106751490Y-82339954D01*
X106775379Y-82365932D01*
X106797381Y-82393521D01*
X106803427Y-82396432D01*
X106807973Y-82401376D01*
X106840766Y-82414415D01*
X106872562Y-82429727D01*
X106879278Y-82429727D01*
X106885515Y-82432207D01*
X106920718Y-82429727D01*
X106956008Y-82429727D01*
X106962054Y-82426814D01*
X106968753Y-82426343D01*
X106999404Y-82408827D01*
X107031189Y-82393521D01*
X107035372Y-82388274D01*
X107041205Y-82384942D01*
X107061219Y-82355865D01*
X107083217Y-82328281D01*
X107084710Y-82321735D01*
X107088517Y-82316206D01*
X107093932Y-82281331D01*
X107101785Y-82246928D01*
X107101785Y-80788651D01*
X108374344Y-80788651D01*
X108410550Y-80863832D01*
X108475790Y-80915860D01*
X108557143Y-80934428D01*
X108798214Y-80934428D01*
X108798214Y-82246928D01*
X108816782Y-82328281D01*
X108868810Y-82393521D01*
X108943991Y-82429727D01*
X109027437Y-82429727D01*
X109102618Y-82393521D01*
X109154646Y-82328281D01*
X109173214Y-82246928D01*
X109726785Y-82246928D01*
X109745353Y-82328281D01*
X109797381Y-82393521D01*
X109872562Y-82429727D01*
X109956008Y-82429727D01*
X110031189Y-82393521D01*
X110083217Y-82328281D01*
X110101785Y-82246928D01*
X110101785Y-81648714D01*
X110583928Y-81648714D01*
X110583928Y-82246928D01*
X110602496Y-82328281D01*
X110654524Y-82393521D01*
X110729705Y-82429727D01*
X110813151Y-82429727D01*
X110888332Y-82393521D01*
X110940360Y-82328281D01*
X110958928Y-82246928D01*
X111298214Y-82246928D01*
X111316782Y-82328281D01*
X111368810Y-82393521D01*
X111443991Y-82429727D01*
X111527437Y-82429727D01*
X111602618Y-82393521D01*
X111654646Y-82328281D01*
X111673214Y-82246928D01*
X111673214Y-81175500D01*
X111941072Y-81175500D01*
X111941388Y-81176888D01*
X111941092Y-81178284D01*
X111950659Y-81217504D01*
X111959640Y-81256853D01*
X111960529Y-81257968D01*
X111960867Y-81259352D01*
X112032295Y-81402209D01*
X112051405Y-81425456D01*
X112067418Y-81450940D01*
X112138847Y-81522368D01*
X112164329Y-81538379D01*
X112187576Y-81557490D01*
X112330433Y-81628919D01*
X112350441Y-81633799D01*
X112368811Y-81643116D01*
X112634557Y-81709552D01*
X112731790Y-81758168D01*
X112760187Y-81786566D01*
X112798215Y-81862620D01*
X112798215Y-81916950D01*
X112760187Y-81993004D01*
X112731790Y-82021401D01*
X112655737Y-82059428D01*
X112373284Y-82059428D01*
X112187864Y-81997622D01*
X112104814Y-81989511D01*
X112026470Y-82018239D01*
X111968347Y-82078112D01*
X111941960Y-82157276D01*
X111952534Y-82240049D01*
X111997973Y-82310037D01*
X112069280Y-82353378D01*
X112283566Y-82424806D01*
X112313516Y-82427731D01*
X112342858Y-82434428D01*
X112700000Y-82434428D01*
X112701387Y-82434111D01*
X112702783Y-82434408D01*
X112742027Y-82424835D01*
X112781353Y-82415860D01*
X112782466Y-82414971D01*
X112783852Y-82414634D01*
X112926710Y-82343205D01*
X112949957Y-82324094D01*
X112975441Y-82308082D01*
X113046869Y-82236653D01*
X113062880Y-82211170D01*
X113081991Y-82187924D01*
X113153420Y-82045067D01*
X113153757Y-82043681D01*
X113154647Y-82042567D01*
X113163631Y-82003201D01*
X113173194Y-81963999D01*
X113172897Y-81962604D01*
X113173215Y-81961214D01*
X113173215Y-81818357D01*
X113172897Y-81816966D01*
X113173194Y-81815572D01*
X113163631Y-81776369D01*
X113154647Y-81737004D01*
X113153757Y-81735889D01*
X113153420Y-81734504D01*
X113088203Y-81604071D01*
X114512500Y-81604071D01*
X114517624Y-81626521D01*
X114518098Y-81649546D01*
X114589526Y-81935260D01*
X114598841Y-81953628D01*
X114603723Y-81973638D01*
X114675152Y-82116495D01*
X114694263Y-82139743D01*
X114710274Y-82165224D01*
X114853131Y-82308082D01*
X114854338Y-82308840D01*
X114855115Y-82310037D01*
X114889600Y-82330997D01*
X114923786Y-82352478D01*
X114925204Y-82352637D01*
X114926422Y-82353378D01*
X115140708Y-82424806D01*
X115170658Y-82427731D01*
X115200000Y-82434428D01*
X115342857Y-82434428D01*
X115372198Y-82427731D01*
X115402149Y-82424806D01*
X115616435Y-82353378D01*
X115617652Y-82352637D01*
X115619072Y-82352478D01*
X115653272Y-82330988D01*
X115687742Y-82310037D01*
X115688518Y-82308840D01*
X115689726Y-82308082D01*
X115761154Y-82236653D01*
X115805550Y-82165998D01*
X115814891Y-82083077D01*
X115787331Y-82004314D01*
X115728326Y-81945309D01*
X115649563Y-81917750D01*
X115566642Y-81927093D01*
X115495987Y-81971490D01*
X115455858Y-82011619D01*
X115312431Y-82059428D01*
X115230426Y-82059428D01*
X115086998Y-82011619D01*
X114996954Y-81921575D01*
X114948338Y-81824341D01*
X114928985Y-81746928D01*
X116012500Y-81746928D01*
X116017624Y-81769378D01*
X116018098Y-81792403D01*
X116089526Y-82078117D01*
X116093473Y-82085899D01*
X116094450Y-82094570D01*
X116112190Y-82122804D01*
X116127271Y-82152538D01*
X116134201Y-82157835D01*
X116138845Y-82165225D01*
X116281704Y-82308083D01*
X116307186Y-82324094D01*
X116330434Y-82343205D01*
X116473291Y-82414633D01*
X116474674Y-82414970D01*
X116475790Y-82415860D01*
X116515138Y-82424840D01*
X116554359Y-82434408D01*
X116555754Y-82434111D01*
X116557143Y-82434428D01*
X116842857Y-82434428D01*
X116844245Y-82434111D01*
X116845641Y-82434408D01*
X116884861Y-82424840D01*
X116924210Y-82415860D01*
X116925325Y-82414970D01*
X116926709Y-82414633D01*
X117069566Y-82343205D01*
X117092814Y-82324093D01*
X117118297Y-82308082D01*
X117179451Y-82246928D01*
X117655357Y-82246928D01*
X117673925Y-82328281D01*
X117725953Y-82393521D01*
X117801134Y-82429727D01*
X117884580Y-82429727D01*
X117959761Y-82393521D01*
X118011789Y-82328281D01*
X118030357Y-82246928D01*
X118030357Y-81452971D01*
X118537205Y-82339954D01*
X118561094Y-82365932D01*
X118583096Y-82393521D01*
X118589142Y-82396432D01*
X118593688Y-82401376D01*
X118626481Y-82414415D01*
X118658277Y-82429727D01*
X118664993Y-82429727D01*
X118671230Y-82432207D01*
X118706433Y-82429727D01*
X118741723Y-82429727D01*
X118747769Y-82426814D01*
X118754468Y-82426343D01*
X118785119Y-82408827D01*
X118816904Y-82393521D01*
X118821087Y-82388274D01*
X118826920Y-82384942D01*
X118846934Y-82355865D01*
X118868932Y-82328281D01*
X118870425Y-82321735D01*
X118874232Y-82316206D01*
X118879647Y-82281331D01*
X118887500Y-82246928D01*
X119226786Y-82246928D01*
X119245354Y-82328281D01*
X119297382Y-82393521D01*
X119372563Y-82429727D01*
X119456009Y-82429727D01*
X119531190Y-82393521D01*
X119583218Y-82328281D01*
X119601786Y-82246928D01*
X119601786Y-81452971D01*
X120108634Y-82339954D01*
X120132523Y-82365932D01*
X120154525Y-82393521D01*
X120160571Y-82396432D01*
X120165117Y-82401376D01*
X120197910Y-82414415D01*
X120229706Y-82429727D01*
X120236422Y-82429727D01*
X120242659Y-82432207D01*
X120277862Y-82429727D01*
X120313152Y-82429727D01*
X120319198Y-82426814D01*
X120325897Y-82426343D01*
X120356548Y-82408827D01*
X120388333Y-82393521D01*
X120392516Y-82388274D01*
X120398349Y-82384942D01*
X120418363Y-82355865D01*
X120440361Y-82328281D01*
X120441854Y-82321735D01*
X120445661Y-82316206D01*
X120451076Y-82281331D01*
X120458929Y-82246928D01*
X120798215Y-82246928D01*
X120802916Y-82267524D01*
X120802916Y-82288651D01*
X120812081Y-82307683D01*
X120816783Y-82328281D01*
X120829956Y-82344799D01*
X120839122Y-82363832D01*
X120855638Y-82377004D01*
X120868811Y-82393521D01*
X120887843Y-82402686D01*
X120904362Y-82415860D01*
X120924959Y-82420561D01*
X120943992Y-82429727D01*
X120965118Y-82429727D01*
X120985715Y-82434428D01*
X121700001Y-82434428D01*
X121781354Y-82415860D01*
X121846594Y-82363832D01*
X121882800Y-82288651D01*
X121882800Y-82205205D01*
X121846594Y-82130024D01*
X121781354Y-82077996D01*
X121700001Y-82059428D01*
X121173215Y-82059428D01*
X121173215Y-81648714D01*
X121485715Y-81648714D01*
X121567068Y-81630146D01*
X121599764Y-81604071D01*
X122083930Y-81604071D01*
X122089054Y-81626521D01*
X122089528Y-81649546D01*
X122160956Y-81935260D01*
X122170271Y-81953628D01*
X122175153Y-81973638D01*
X122246582Y-82116495D01*
X122265693Y-82139743D01*
X122281704Y-82165224D01*
X122424561Y-82308082D01*
X122425768Y-82308840D01*
X122426545Y-82310037D01*
X122461030Y-82330997D01*
X122495216Y-82352478D01*
X122496634Y-82352637D01*
X122497852Y-82353378D01*
X122712138Y-82424806D01*
X122742088Y-82427731D01*
X122771430Y-82434428D01*
X122914287Y-82434428D01*
X122943628Y-82427731D01*
X122973579Y-82424806D01*
X123187865Y-82353378D01*
X123189082Y-82352637D01*
X123190502Y-82352478D01*
X123224702Y-82330988D01*
X123259172Y-82310037D01*
X123259948Y-82308840D01*
X123261156Y-82308082D01*
X123332584Y-82236653D01*
X123376980Y-82165998D01*
X123386321Y-82083077D01*
X123358761Y-82004314D01*
X123299756Y-81945309D01*
X123220993Y-81917750D01*
X123138072Y-81927093D01*
X123067417Y-81971490D01*
X123027288Y-82011619D01*
X122883861Y-82059428D01*
X122801856Y-82059428D01*
X122658428Y-82011619D01*
X122568384Y-81921575D01*
X122519768Y-81824341D01*
X122458930Y-81580988D01*
X122458930Y-81412867D01*
X122519768Y-81169514D01*
X122568383Y-81072282D01*
X122658428Y-80982237D01*
X122801857Y-80934428D01*
X122883860Y-80934428D01*
X123027288Y-80982237D01*
X123067418Y-81022367D01*
X123138073Y-81066763D01*
X123220994Y-81076105D01*
X123299756Y-81048546D01*
X123358762Y-80989540D01*
X123386321Y-80910778D01*
X123376979Y-80827857D01*
X123352344Y-80788651D01*
X123445774Y-80788651D01*
X123481980Y-80863832D01*
X123547220Y-80915860D01*
X123628573Y-80934428D01*
X123869644Y-80934428D01*
X123869644Y-82246928D01*
X123888212Y-82328281D01*
X123940240Y-82393521D01*
X124015421Y-82429727D01*
X124098867Y-82429727D01*
X124174048Y-82393521D01*
X124226076Y-82328281D01*
X124244644Y-82246928D01*
X124244644Y-81746928D01*
X124726787Y-81746928D01*
X124731911Y-81769378D01*
X124732385Y-81792403D01*
X124803813Y-82078117D01*
X124807760Y-82085899D01*
X124808737Y-82094570D01*
X124826477Y-82122804D01*
X124841558Y-82152538D01*
X124848488Y-82157835D01*
X124853132Y-82165225D01*
X124995991Y-82308083D01*
X125021473Y-82324094D01*
X125044721Y-82343205D01*
X125187578Y-82414633D01*
X125188961Y-82414970D01*
X125190077Y-82415860D01*
X125229425Y-82424840D01*
X125268646Y-82434408D01*
X125270041Y-82434111D01*
X125271430Y-82434428D01*
X125557144Y-82434428D01*
X125558532Y-82434111D01*
X125559928Y-82434408D01*
X125599148Y-82424840D01*
X125638497Y-82415860D01*
X125639612Y-82414970D01*
X125640996Y-82414633D01*
X125783853Y-82343205D01*
X125807101Y-82324093D01*
X125832584Y-82308082D01*
X125893738Y-82246928D01*
X126369644Y-82246928D01*
X126388212Y-82328281D01*
X126440240Y-82393521D01*
X126515421Y-82429727D01*
X126598867Y-82429727D01*
X126674048Y-82393521D01*
X126726076Y-82328281D01*
X126744644Y-82246928D01*
X126744644Y-81720142D01*
X126816664Y-81720142D01*
X127260681Y-82354452D01*
X127322545Y-82410451D01*
X127402581Y-82434062D01*
X127484934Y-82420609D01*
X127553296Y-82372756D01*
X127594124Y-82299982D01*
X127599334Y-82216699D01*
X127574036Y-82154507D01*
X127799395Y-82154507D01*
X127801760Y-82175503D01*
X127799396Y-82196495D01*
X127806372Y-82216432D01*
X127808738Y-82237428D01*
X127819979Y-82255318D01*
X127826956Y-82275257D01*
X127841892Y-82290193D01*
X127853133Y-82308083D01*
X127924561Y-82379510D01*
X127933591Y-82385184D01*
X127940240Y-82393521D01*
X127949846Y-82398147D01*
X127957387Y-82405688D01*
X127977326Y-82412665D01*
X127995216Y-82423906D01*
X128005812Y-82425099D01*
X128015421Y-82429727D01*
X128026087Y-82429727D01*
X128036149Y-82433248D01*
X128057144Y-82430882D01*
X128078137Y-82433248D01*
X128088200Y-82429727D01*
X128098867Y-82429727D01*
X128108473Y-82425100D01*
X128119070Y-82423907D01*
X128136961Y-82412665D01*
X128156899Y-82405689D01*
X128164439Y-82398148D01*
X128174048Y-82393521D01*
X128180695Y-82385185D01*
X128189726Y-82379511D01*
X128261154Y-82308084D01*
X128272394Y-82290195D01*
X128287334Y-82275256D01*
X128294310Y-82255316D01*
X128305551Y-82237429D01*
X128307916Y-82216433D01*
X128314894Y-82196493D01*
X128312528Y-82175500D01*
X128314894Y-82154508D01*
X128314894Y-82154507D01*
X128513681Y-82154507D01*
X128516046Y-82175503D01*
X128513682Y-82196495D01*
X128520658Y-82216432D01*
X128523024Y-82237428D01*
X128534265Y-82255318D01*
X128541242Y-82275257D01*
X128556178Y-82290193D01*
X128567419Y-82308083D01*
X128638847Y-82379510D01*
X128647877Y-82385184D01*
X128654526Y-82393521D01*
X128664132Y-82398147D01*
X128671673Y-82405688D01*
X128691612Y-82412665D01*
X128709502Y-82423906D01*
X128720098Y-82425099D01*
X128729707Y-82429727D01*
X128740373Y-82429727D01*
X128750435Y-82433248D01*
X128771430Y-82430882D01*
X128792423Y-82433248D01*
X128802486Y-82429727D01*
X128813153Y-82429727D01*
X128822759Y-82425100D01*
X128833356Y-82423907D01*
X128851247Y-82412665D01*
X128871185Y-82405689D01*
X128878725Y-82398148D01*
X128888334Y-82393521D01*
X128894981Y-82385185D01*
X128904012Y-82379511D01*
X128975440Y-82308084D01*
X128986680Y-82290195D01*
X129001620Y-82275256D01*
X129008596Y-82255316D01*
X129019837Y-82237429D01*
X129022202Y-82216433D01*
X129029180Y-82196493D01*
X129026814Y-82175500D01*
X129029180Y-82154508D01*
X129029180Y-82154507D01*
X129227967Y-82154507D01*
X129230332Y-82175503D01*
X129227968Y-82196495D01*
X129234944Y-82216432D01*
X129237310Y-82237428D01*
X129248551Y-82255318D01*
X129255528Y-82275257D01*
X129270464Y-82290193D01*
X129281705Y-82308083D01*
X129353133Y-82379510D01*
X129362163Y-82385184D01*
X129368812Y-82393521D01*
X129378418Y-82398147D01*
X129385959Y-82405688D01*
X129405898Y-82412665D01*
X129423788Y-82423906D01*
X129434384Y-82425099D01*
X129443993Y-82429727D01*
X129454659Y-82429727D01*
X129464721Y-82433248D01*
X129485716Y-82430882D01*
X129506709Y-82433248D01*
X129516772Y-82429727D01*
X129527439Y-82429727D01*
X129537045Y-82425100D01*
X129547642Y-82423907D01*
X129565533Y-82412665D01*
X129585471Y-82405689D01*
X129593011Y-82398148D01*
X129602620Y-82393521D01*
X129609267Y-82385185D01*
X129618298Y-82379511D01*
X129689726Y-82308084D01*
X129700966Y-82290195D01*
X129715906Y-82275256D01*
X129722882Y-82255316D01*
X129734123Y-82237429D01*
X129736488Y-82216433D01*
X129743466Y-82196493D01*
X129741100Y-82175500D01*
X129743466Y-82154508D01*
X129736488Y-82134566D01*
X129734123Y-82113572D01*
X129722884Y-82095685D01*
X129715907Y-82075745D01*
X129700967Y-82060805D01*
X129689728Y-82042918D01*
X129618299Y-81971488D01*
X129609266Y-81965812D01*
X129602620Y-81957478D01*
X129593013Y-81952851D01*
X129585471Y-81945309D01*
X129565531Y-81938332D01*
X129547644Y-81927093D01*
X129537046Y-81925898D01*
X129527439Y-81921272D01*
X129516774Y-81921272D01*
X129506708Y-81917750D01*
X129485715Y-81920115D01*
X129464723Y-81917750D01*
X129454658Y-81921272D01*
X129443993Y-81921272D01*
X129434385Y-81925898D01*
X129423787Y-81927093D01*
X129405899Y-81938333D01*
X129385960Y-81945310D01*
X129378418Y-81952851D01*
X129368812Y-81957478D01*
X129362163Y-81965815D01*
X129353132Y-81971490D01*
X129281705Y-82042918D01*
X129270465Y-82060805D01*
X129255527Y-82075744D01*
X129248549Y-82095684D01*
X129237309Y-82113574D01*
X129234944Y-82134567D01*
X129227967Y-82154507D01*
X129029180Y-82154507D01*
X129022202Y-82134566D01*
X129019837Y-82113572D01*
X129008598Y-82095685D01*
X129001621Y-82075745D01*
X128986681Y-82060805D01*
X128975442Y-82042918D01*
X128904013Y-81971488D01*
X128894980Y-81965812D01*
X128888334Y-81957478D01*
X128878727Y-81952851D01*
X128871185Y-81945309D01*
X128851245Y-81938332D01*
X128833358Y-81927093D01*
X128822760Y-81925898D01*
X128813153Y-81921272D01*
X128802488Y-81921272D01*
X128792422Y-81917750D01*
X128771429Y-81920115D01*
X128750437Y-81917750D01*
X128740372Y-81921272D01*
X128729707Y-81921272D01*
X128720099Y-81925898D01*
X128709501Y-81927093D01*
X128691613Y-81938333D01*
X128671674Y-81945310D01*
X128664132Y-81952851D01*
X128654526Y-81957478D01*
X128647877Y-81965815D01*
X128638846Y-81971490D01*
X128567419Y-82042918D01*
X128556179Y-82060805D01*
X128541241Y-82075744D01*
X128534263Y-82095684D01*
X128523023Y-82113574D01*
X128520658Y-82134567D01*
X128513681Y-82154507D01*
X128314894Y-82154507D01*
X128307916Y-82134566D01*
X128305551Y-82113572D01*
X128294312Y-82095685D01*
X128287335Y-82075745D01*
X128272395Y-82060805D01*
X128261156Y-82042918D01*
X128189727Y-81971488D01*
X128180694Y-81965812D01*
X128174048Y-81957478D01*
X128164441Y-81952851D01*
X128156899Y-81945309D01*
X128136959Y-81938332D01*
X128119072Y-81927093D01*
X128108474Y-81925898D01*
X128098867Y-81921272D01*
X128088202Y-81921272D01*
X128078136Y-81917750D01*
X128057143Y-81920115D01*
X128036151Y-81917750D01*
X128026086Y-81921272D01*
X128015421Y-81921272D01*
X128005813Y-81925898D01*
X127995215Y-81927093D01*
X127977327Y-81938333D01*
X127957388Y-81945310D01*
X127949846Y-81952851D01*
X127940240Y-81957478D01*
X127933591Y-81965815D01*
X127924560Y-81971490D01*
X127853133Y-82042918D01*
X127841893Y-82060805D01*
X127826955Y-82075744D01*
X127819977Y-82095684D01*
X127808737Y-82113574D01*
X127806372Y-82134567D01*
X127799395Y-82154507D01*
X127574036Y-82154507D01*
X127567893Y-82139404D01*
X127248075Y-81682521D01*
X127355282Y-81628919D01*
X127378527Y-81609810D01*
X127404013Y-81593797D01*
X127475442Y-81522367D01*
X127491453Y-81496884D01*
X127510564Y-81473637D01*
X127581992Y-81330780D01*
X127582329Y-81329396D01*
X127583219Y-81328281D01*
X127592199Y-81288932D01*
X127601767Y-81249712D01*
X127601470Y-81248316D01*
X127601787Y-81246928D01*
X127601787Y-81032642D01*
X127601470Y-81031253D01*
X127601767Y-81029858D01*
X127592199Y-80990637D01*
X127583219Y-80951289D01*
X127582329Y-80950173D01*
X127581992Y-80948790D01*
X127524561Y-80833928D01*
X127798864Y-80833928D01*
X127870292Y-81691071D01*
X127878310Y-81716319D01*
X127882040Y-81742543D01*
X127886448Y-81749126D01*
X127888212Y-81756853D01*
X127893151Y-81763047D01*
X127895551Y-81770601D01*
X127913733Y-81789871D01*
X127928470Y-81811878D01*
X127935298Y-81815897D01*
X127940240Y-81822093D01*
X127947379Y-81825531D01*
X127952818Y-81831295D01*
X127977551Y-81840764D01*
X128000384Y-81854203D01*
X128008282Y-81854861D01*
X128015421Y-81858299D01*
X128023347Y-81858299D01*
X128030746Y-81861132D01*
X128057143Y-81858932D01*
X128083542Y-81861132D01*
X128090941Y-81858299D01*
X128098867Y-81858299D01*
X128106005Y-81854861D01*
X128113903Y-81854203D01*
X128136734Y-81840765D01*
X128161470Y-81831295D01*
X128166907Y-81825531D01*
X128174048Y-81822093D01*
X128178989Y-81815897D01*
X128185818Y-81811878D01*
X128200556Y-81789868D01*
X128218736Y-81770601D01*
X128221134Y-81763049D01*
X128226076Y-81756853D01*
X128227839Y-81749126D01*
X128232248Y-81742543D01*
X128235977Y-81716317D01*
X128243996Y-81691071D01*
X128315425Y-80833928D01*
X128513150Y-80833928D01*
X128584578Y-81691071D01*
X128592596Y-81716319D01*
X128596326Y-81742543D01*
X128600734Y-81749126D01*
X128602498Y-81756853D01*
X128607437Y-81763047D01*
X128609837Y-81770601D01*
X128628019Y-81789871D01*
X128642756Y-81811878D01*
X128649584Y-81815897D01*
X128654526Y-81822093D01*
X128661665Y-81825531D01*
X128667104Y-81831295D01*
X128691837Y-81840764D01*
X128714670Y-81854203D01*
X128722568Y-81854861D01*
X128729707Y-81858299D01*
X128737633Y-81858299D01*
X128745032Y-81861132D01*
X128771429Y-81858932D01*
X128797828Y-81861132D01*
X128805227Y-81858299D01*
X128813153Y-81858299D01*
X128820291Y-81854861D01*
X128828189Y-81854203D01*
X128851020Y-81840765D01*
X128875756Y-81831295D01*
X128881193Y-81825531D01*
X128888334Y-81822093D01*
X128893275Y-81815897D01*
X128900104Y-81811878D01*
X128914842Y-81789868D01*
X128933022Y-81770601D01*
X128935420Y-81763049D01*
X128940362Y-81756853D01*
X128942125Y-81749126D01*
X128946534Y-81742543D01*
X128950263Y-81716317D01*
X128958282Y-81691071D01*
X129029711Y-80833928D01*
X129227436Y-80833928D01*
X129298864Y-81691071D01*
X129306882Y-81716319D01*
X129310612Y-81742543D01*
X129315020Y-81749126D01*
X129316784Y-81756853D01*
X129321723Y-81763047D01*
X129324123Y-81770601D01*
X129342305Y-81789871D01*
X129357042Y-81811878D01*
X129363870Y-81815897D01*
X129368812Y-81822093D01*
X129375951Y-81825531D01*
X129381390Y-81831295D01*
X129406123Y-81840764D01*
X129428956Y-81854203D01*
X129436854Y-81854861D01*
X129443993Y-81858299D01*
X129451919Y-81858299D01*
X129459318Y-81861132D01*
X129485715Y-81858932D01*
X129512114Y-81861132D01*
X129519513Y-81858299D01*
X129527439Y-81858299D01*
X129534577Y-81854861D01*
X129542475Y-81854203D01*
X129565306Y-81840765D01*
X129590042Y-81831295D01*
X129595479Y-81825531D01*
X129602620Y-81822093D01*
X129607561Y-81815897D01*
X129614390Y-81811878D01*
X129629128Y-81789868D01*
X129647308Y-81770601D01*
X129649706Y-81763049D01*
X129654648Y-81756853D01*
X129656411Y-81749126D01*
X129660820Y-81742543D01*
X129664549Y-81716317D01*
X129672568Y-81691071D01*
X129743997Y-80833928D01*
X129738498Y-80795258D01*
X129734123Y-80756429D01*
X129732640Y-80754070D01*
X129732249Y-80751314D01*
X129710524Y-80718871D01*
X129689728Y-80685775D01*
X129618299Y-80614345D01*
X129609266Y-80608669D01*
X129602620Y-80600335D01*
X129593013Y-80595708D01*
X129585471Y-80588166D01*
X129565531Y-80581189D01*
X129547644Y-80569950D01*
X129537046Y-80568755D01*
X129527439Y-80564129D01*
X129516774Y-80564129D01*
X129506708Y-80560607D01*
X129485715Y-80562972D01*
X129464723Y-80560607D01*
X129454658Y-80564129D01*
X129443993Y-80564129D01*
X129434385Y-80568755D01*
X129423787Y-80569950D01*
X129405899Y-80581190D01*
X129385960Y-80588167D01*
X129378418Y-80595708D01*
X129368812Y-80600335D01*
X129362163Y-80608672D01*
X129353132Y-80614347D01*
X129281705Y-80685775D01*
X129260910Y-80718868D01*
X129239184Y-80751314D01*
X129238791Y-80754070D01*
X129237309Y-80756431D01*
X129232935Y-80795252D01*
X129227436Y-80833928D01*
X129029711Y-80833928D01*
X129024212Y-80795258D01*
X129019837Y-80756429D01*
X129018354Y-80754070D01*
X129017963Y-80751314D01*
X128996238Y-80718871D01*
X128975442Y-80685775D01*
X128904013Y-80614345D01*
X128894980Y-80608669D01*
X128888334Y-80600335D01*
X128878727Y-80595708D01*
X128871185Y-80588166D01*
X128851245Y-80581189D01*
X128833358Y-80569950D01*
X128822760Y-80568755D01*
X128813153Y-80564129D01*
X128802488Y-80564129D01*
X128792422Y-80560607D01*
X128771429Y-80562972D01*
X128750437Y-80560607D01*
X128740372Y-80564129D01*
X128729707Y-80564129D01*
X128720099Y-80568755D01*
X128709501Y-80569950D01*
X128691613Y-80581190D01*
X128671674Y-80588167D01*
X128664132Y-80595708D01*
X128654526Y-80600335D01*
X128647877Y-80608672D01*
X128638846Y-80614347D01*
X128567419Y-80685775D01*
X128546624Y-80718868D01*
X128524898Y-80751314D01*
X128524505Y-80754070D01*
X128523023Y-80756431D01*
X128518649Y-80795252D01*
X128513150Y-80833928D01*
X128315425Y-80833928D01*
X128309926Y-80795258D01*
X128305551Y-80756429D01*
X128304068Y-80754070D01*
X128303677Y-80751314D01*
X128281952Y-80718871D01*
X128261156Y-80685775D01*
X128189727Y-80614345D01*
X128180694Y-80608669D01*
X128174048Y-80600335D01*
X128164441Y-80595708D01*
X128156899Y-80588166D01*
X128136959Y-80581189D01*
X128119072Y-80569950D01*
X128108474Y-80568755D01*
X128098867Y-80564129D01*
X128088202Y-80564129D01*
X128078136Y-80560607D01*
X128057143Y-80562972D01*
X128036151Y-80560607D01*
X128026086Y-80564129D01*
X128015421Y-80564129D01*
X128005813Y-80568755D01*
X127995215Y-80569950D01*
X127977327Y-80581190D01*
X127957388Y-80588167D01*
X127949846Y-80595708D01*
X127940240Y-80600335D01*
X127933591Y-80608672D01*
X127924560Y-80614347D01*
X127853133Y-80685775D01*
X127832338Y-80718868D01*
X127810612Y-80751314D01*
X127810219Y-80754070D01*
X127808737Y-80756431D01*
X127804363Y-80795252D01*
X127798864Y-80833928D01*
X127524561Y-80833928D01*
X127510564Y-80805933D01*
X127491452Y-80782683D01*
X127475440Y-80757201D01*
X127404012Y-80685774D01*
X127378531Y-80669763D01*
X127355283Y-80650652D01*
X127212426Y-80579223D01*
X127211040Y-80578885D01*
X127209926Y-80577996D01*
X127170593Y-80569018D01*
X127131358Y-80559448D01*
X127129961Y-80559744D01*
X127128573Y-80559428D01*
X126557144Y-80559428D01*
X126536547Y-80564129D01*
X126515421Y-80564129D01*
X126496388Y-80573294D01*
X126475791Y-80577996D01*
X126459272Y-80591169D01*
X126440240Y-80600335D01*
X126427067Y-80616851D01*
X126410551Y-80630024D01*
X126401385Y-80649056D01*
X126388212Y-80665575D01*
X126383510Y-80686172D01*
X126374345Y-80705205D01*
X126374345Y-80726331D01*
X126369644Y-80746928D01*
X126369644Y-82246928D01*
X125893738Y-82246928D01*
X125975441Y-82165224D01*
X125980082Y-82157836D01*
X125987015Y-82152538D01*
X126002099Y-82122797D01*
X126019836Y-82094569D01*
X126020812Y-82085900D01*
X126024760Y-82078118D01*
X126096189Y-81792404D01*
X126096662Y-81769378D01*
X126101787Y-81746928D01*
X126101787Y-81246928D01*
X126096662Y-81224477D01*
X126096189Y-81201452D01*
X126024760Y-80915738D01*
X126020812Y-80907955D01*
X126019836Y-80899286D01*
X126002098Y-80871056D01*
X125987015Y-80841318D01*
X125980082Y-80836019D01*
X125975440Y-80828631D01*
X125832584Y-80685774D01*
X125807099Y-80669761D01*
X125783854Y-80650652D01*
X125640997Y-80579223D01*
X125639611Y-80578885D01*
X125638497Y-80577996D01*
X125599164Y-80569018D01*
X125559929Y-80559448D01*
X125558532Y-80559744D01*
X125557144Y-80559428D01*
X125271430Y-80559428D01*
X125270039Y-80559745D01*
X125268645Y-80559449D01*
X125229442Y-80569011D01*
X125190077Y-80577996D01*
X125188962Y-80578885D01*
X125187577Y-80579223D01*
X125044720Y-80650652D01*
X125021471Y-80669763D01*
X124995991Y-80685774D01*
X124853133Y-80828631D01*
X124848490Y-80836019D01*
X124841558Y-80841318D01*
X124826475Y-80871054D01*
X124808737Y-80899286D01*
X124807760Y-80907956D01*
X124803813Y-80915739D01*
X124732385Y-81201453D01*
X124731911Y-81224477D01*
X124726787Y-81246928D01*
X124726787Y-81746928D01*
X124244644Y-81746928D01*
X124244644Y-80934428D01*
X124485716Y-80934428D01*
X124567069Y-80915860D01*
X124632309Y-80863832D01*
X124668515Y-80788651D01*
X124668515Y-80705205D01*
X124632309Y-80630024D01*
X124567069Y-80577996D01*
X124485716Y-80559428D01*
X123628573Y-80559428D01*
X123547220Y-80577996D01*
X123481980Y-80630024D01*
X123445774Y-80705205D01*
X123445774Y-80788651D01*
X123352344Y-80788651D01*
X123332583Y-80757202D01*
X123261156Y-80685774D01*
X123259947Y-80685014D01*
X123259172Y-80683820D01*
X123224695Y-80662864D01*
X123190501Y-80641379D01*
X123189084Y-80641219D01*
X123187866Y-80640479D01*
X122973580Y-80569050D01*
X122943627Y-80566124D01*
X122914287Y-80559428D01*
X122771430Y-80559428D01*
X122742089Y-80566124D01*
X122712137Y-80569050D01*
X122497851Y-80640479D01*
X122496632Y-80641219D01*
X122495216Y-80641379D01*
X122461045Y-80662850D01*
X122426545Y-80683820D01*
X122425768Y-80685016D01*
X122424561Y-80685775D01*
X122281704Y-80828631D01*
X122265691Y-80854115D01*
X122246582Y-80877361D01*
X122175153Y-81020218D01*
X122170271Y-81040227D01*
X122160956Y-81058596D01*
X122089528Y-81344310D01*
X122089054Y-81367334D01*
X122083930Y-81389785D01*
X122083930Y-81604071D01*
X121599764Y-81604071D01*
X121632308Y-81578118D01*
X121668514Y-81502937D01*
X121668514Y-81419491D01*
X121632308Y-81344310D01*
X121567068Y-81292282D01*
X121485715Y-81273714D01*
X121173215Y-81273714D01*
X121173215Y-80934428D01*
X121700001Y-80934428D01*
X121781354Y-80915860D01*
X121846594Y-80863832D01*
X121882800Y-80788651D01*
X121882800Y-80705205D01*
X121846594Y-80630024D01*
X121781354Y-80577996D01*
X121700001Y-80559428D01*
X120985715Y-80559428D01*
X120965118Y-80564129D01*
X120943992Y-80564129D01*
X120924959Y-80573294D01*
X120904362Y-80577996D01*
X120887843Y-80591169D01*
X120868811Y-80600335D01*
X120855638Y-80616851D01*
X120839122Y-80630024D01*
X120829956Y-80649056D01*
X120816783Y-80665575D01*
X120812081Y-80686172D01*
X120802916Y-80705205D01*
X120802916Y-80726331D01*
X120798215Y-80746928D01*
X120798215Y-82246928D01*
X120458929Y-82246928D01*
X120458929Y-80746928D01*
X120440361Y-80665575D01*
X120388333Y-80600335D01*
X120313152Y-80564129D01*
X120229706Y-80564129D01*
X120154525Y-80600335D01*
X120102497Y-80665575D01*
X120083929Y-80746928D01*
X120083929Y-81540884D01*
X119577082Y-80653902D01*
X119553187Y-80627918D01*
X119531190Y-80600335D01*
X119525143Y-80597423D01*
X119520598Y-80592480D01*
X119487802Y-80579440D01*
X119456009Y-80564129D01*
X119449294Y-80564129D01*
X119443057Y-80561649D01*
X119407860Y-80564129D01*
X119372563Y-80564129D01*
X119366513Y-80567042D01*
X119359818Y-80567514D01*
X119329175Y-80585023D01*
X119297382Y-80600335D01*
X119293197Y-80605582D01*
X119287367Y-80608914D01*
X119267356Y-80637985D01*
X119245354Y-80665575D01*
X119243860Y-80672120D01*
X119240054Y-80677650D01*
X119234639Y-80712518D01*
X119226786Y-80746928D01*
X119226786Y-82246928D01*
X118887500Y-82246928D01*
X118887500Y-80746928D01*
X118868932Y-80665575D01*
X118816904Y-80600335D01*
X118741723Y-80564129D01*
X118658277Y-80564129D01*
X118583096Y-80600335D01*
X118531068Y-80665575D01*
X118512500Y-80746928D01*
X118512500Y-81540884D01*
X118005653Y-80653902D01*
X117981758Y-80627918D01*
X117959761Y-80600335D01*
X117953714Y-80597423D01*
X117949169Y-80592480D01*
X117916373Y-80579440D01*
X117884580Y-80564129D01*
X117877865Y-80564129D01*
X117871628Y-80561649D01*
X117836431Y-80564129D01*
X117801134Y-80564129D01*
X117795084Y-80567042D01*
X117788389Y-80567514D01*
X117757746Y-80585023D01*
X117725953Y-80600335D01*
X117721768Y-80605582D01*
X117715938Y-80608914D01*
X117695927Y-80637985D01*
X117673925Y-80665575D01*
X117672431Y-80672120D01*
X117668625Y-80677650D01*
X117663210Y-80712518D01*
X117655357Y-80746928D01*
X117655357Y-82246928D01*
X117179451Y-82246928D01*
X117261154Y-82165224D01*
X117265795Y-82157836D01*
X117272728Y-82152538D01*
X117287812Y-82122797D01*
X117305549Y-82094569D01*
X117306525Y-82085900D01*
X117310473Y-82078118D01*
X117381902Y-81792404D01*
X117382375Y-81769378D01*
X117387500Y-81746928D01*
X117387500Y-81246928D01*
X117382375Y-81224477D01*
X117381902Y-81201452D01*
X117310473Y-80915738D01*
X117306525Y-80907955D01*
X117305549Y-80899286D01*
X117287811Y-80871056D01*
X117272728Y-80841318D01*
X117265795Y-80836019D01*
X117261153Y-80828631D01*
X117118297Y-80685774D01*
X117092812Y-80669761D01*
X117069567Y-80650652D01*
X116926710Y-80579223D01*
X116925324Y-80578885D01*
X116924210Y-80577996D01*
X116884877Y-80569018D01*
X116845642Y-80559448D01*
X116844245Y-80559744D01*
X116842857Y-80559428D01*
X116557143Y-80559428D01*
X116555752Y-80559745D01*
X116554358Y-80559449D01*
X116515155Y-80569011D01*
X116475790Y-80577996D01*
X116474675Y-80578885D01*
X116473290Y-80579223D01*
X116330433Y-80650652D01*
X116307184Y-80669763D01*
X116281704Y-80685774D01*
X116138846Y-80828631D01*
X116134203Y-80836019D01*
X116127271Y-80841318D01*
X116112188Y-80871054D01*
X116094450Y-80899286D01*
X116093473Y-80907956D01*
X116089526Y-80915739D01*
X116018098Y-81201453D01*
X116017624Y-81224477D01*
X116012500Y-81246928D01*
X116012500Y-81746928D01*
X114928985Y-81746928D01*
X114887500Y-81580988D01*
X114887500Y-81412867D01*
X114948338Y-81169514D01*
X114996953Y-81072282D01*
X115086998Y-80982237D01*
X115230427Y-80934428D01*
X115312430Y-80934428D01*
X115455858Y-80982237D01*
X115495988Y-81022367D01*
X115566643Y-81066763D01*
X115649564Y-81076105D01*
X115728326Y-81048546D01*
X115787332Y-80989540D01*
X115814891Y-80910778D01*
X115805549Y-80827857D01*
X115761153Y-80757202D01*
X115689726Y-80685774D01*
X115688517Y-80685014D01*
X115687742Y-80683820D01*
X115653265Y-80662864D01*
X115619071Y-80641379D01*
X115617654Y-80641219D01*
X115616436Y-80640479D01*
X115402150Y-80569050D01*
X115372197Y-80566124D01*
X115342857Y-80559428D01*
X115200000Y-80559428D01*
X115170659Y-80566124D01*
X115140707Y-80569050D01*
X114926421Y-80640479D01*
X114925202Y-80641219D01*
X114923786Y-80641379D01*
X114889615Y-80662850D01*
X114855115Y-80683820D01*
X114854338Y-80685016D01*
X114853131Y-80685775D01*
X114710274Y-80828631D01*
X114694261Y-80854115D01*
X114675152Y-80877361D01*
X114603723Y-81020218D01*
X114598841Y-81040227D01*
X114589526Y-81058596D01*
X114518098Y-81344310D01*
X114517624Y-81367334D01*
X114512500Y-81389785D01*
X114512500Y-81604071D01*
X113088203Y-81604071D01*
X113081991Y-81591647D01*
X113062880Y-81568400D01*
X113046869Y-81542918D01*
X112975441Y-81471489D01*
X112949955Y-81455475D01*
X112926710Y-81436366D01*
X112783853Y-81364937D01*
X112763843Y-81360056D01*
X112745475Y-81350740D01*
X112479729Y-81284303D01*
X112382495Y-81235686D01*
X112354096Y-81207288D01*
X112316072Y-81131238D01*
X112316072Y-81076903D01*
X112354096Y-81000853D01*
X112382495Y-80972455D01*
X112458549Y-80934428D01*
X112741002Y-80934428D01*
X112926422Y-80996235D01*
X113009472Y-81004346D01*
X113087816Y-80975619D01*
X113145939Y-80915745D01*
X113172327Y-80836581D01*
X113161753Y-80753809D01*
X113116314Y-80683820D01*
X113045008Y-80640479D01*
X112830722Y-80569050D01*
X112800769Y-80566124D01*
X112771429Y-80559428D01*
X112414286Y-80559428D01*
X112412895Y-80559745D01*
X112411501Y-80559449D01*
X112372298Y-80569011D01*
X112332933Y-80577996D01*
X112331818Y-80578885D01*
X112330433Y-80579223D01*
X112187576Y-80650652D01*
X112164329Y-80669762D01*
X112138847Y-80685774D01*
X112067418Y-80757202D01*
X112051405Y-80782685D01*
X112032295Y-80805933D01*
X111960867Y-80948790D01*
X111960529Y-80950173D01*
X111959640Y-80951289D01*
X111950659Y-80990637D01*
X111941092Y-81029858D01*
X111941388Y-81031253D01*
X111941072Y-81032642D01*
X111941072Y-81175500D01*
X111673214Y-81175500D01*
X111673214Y-80746928D01*
X111654646Y-80665575D01*
X111602618Y-80600335D01*
X111527437Y-80564129D01*
X111443991Y-80564129D01*
X111368810Y-80600335D01*
X111316782Y-80665575D01*
X111298214Y-80746928D01*
X111298214Y-82246928D01*
X110958928Y-82246928D01*
X110958928Y-80746928D01*
X110940360Y-80665575D01*
X110888332Y-80600335D01*
X110813151Y-80564129D01*
X110729705Y-80564129D01*
X110654524Y-80600335D01*
X110602496Y-80665575D01*
X110583928Y-80746928D01*
X110583928Y-81273714D01*
X110101785Y-81273714D01*
X110101785Y-80746928D01*
X110083217Y-80665575D01*
X110031189Y-80600335D01*
X109956008Y-80564129D01*
X109872562Y-80564129D01*
X109797381Y-80600335D01*
X109745353Y-80665575D01*
X109726785Y-80746928D01*
X109726785Y-82246928D01*
X109173214Y-82246928D01*
X109173214Y-80934428D01*
X109414286Y-80934428D01*
X109495639Y-80915860D01*
X109560879Y-80863832D01*
X109597085Y-80788651D01*
X109597085Y-80705205D01*
X109560879Y-80630024D01*
X109495639Y-80577996D01*
X109414286Y-80559428D01*
X108557143Y-80559428D01*
X108475790Y-80577996D01*
X108410550Y-80630024D01*
X108374344Y-80705205D01*
X108374344Y-80788651D01*
X107101785Y-80788651D01*
X107101785Y-80746928D01*
X107083217Y-80665575D01*
X107031189Y-80600335D01*
X106956008Y-80564129D01*
X106872562Y-80564129D01*
X106797381Y-80600335D01*
X106745353Y-80665575D01*
X106726785Y-80746928D01*
X106726785Y-81540884D01*
X106219938Y-80653902D01*
X106196043Y-80627918D01*
X106174046Y-80600335D01*
X106167999Y-80597423D01*
X106163454Y-80592480D01*
X106130658Y-80579440D01*
X106098865Y-80564129D01*
X106092150Y-80564129D01*
X106085913Y-80561649D01*
X106050716Y-80564129D01*
X106015419Y-80564129D01*
X106009369Y-80567042D01*
X106002674Y-80567514D01*
X105972031Y-80585023D01*
X105940238Y-80600335D01*
X105936053Y-80605582D01*
X105930223Y-80608914D01*
X105910212Y-80637985D01*
X105888210Y-80665575D01*
X105886716Y-80672120D01*
X105882910Y-80677650D01*
X105877495Y-80712518D01*
X105869642Y-80746928D01*
X105869642Y-82246928D01*
X105393736Y-82246928D01*
X105475439Y-82165224D01*
X105480080Y-82157836D01*
X105487013Y-82152538D01*
X105502097Y-82122797D01*
X105519834Y-82094569D01*
X105520810Y-82085900D01*
X105524758Y-82078118D01*
X105596187Y-81792404D01*
X105596660Y-81769378D01*
X105601785Y-81746928D01*
X105601785Y-81246928D01*
X105596660Y-81224477D01*
X105596187Y-81201452D01*
X105524758Y-80915738D01*
X105520810Y-80907955D01*
X105519834Y-80899286D01*
X105502096Y-80871056D01*
X105487013Y-80841318D01*
X105480080Y-80836019D01*
X105475438Y-80828631D01*
X105332582Y-80685774D01*
X105307097Y-80669761D01*
X105283852Y-80650652D01*
X105140995Y-80579223D01*
X105139609Y-80578885D01*
X105138495Y-80577996D01*
X105099162Y-80569018D01*
X105059927Y-80559448D01*
X105058530Y-80559744D01*
X105057142Y-80559428D01*
X104771428Y-80559428D01*
X104770037Y-80559745D01*
X104768643Y-80559449D01*
X104729440Y-80569011D01*
X104690075Y-80577996D01*
X104688960Y-80578885D01*
X104687575Y-80579223D01*
X104544718Y-80650652D01*
X104521469Y-80669763D01*
X104495989Y-80685774D01*
X104353131Y-80828631D01*
X104348488Y-80836019D01*
X104341556Y-80841318D01*
X104326473Y-80871054D01*
X104308735Y-80899286D01*
X104307758Y-80907956D01*
X104303811Y-80915739D01*
X104232383Y-81201453D01*
X104231909Y-81224477D01*
X104226785Y-81246928D01*
X104226785Y-81746928D01*
X102173213Y-81746928D01*
X102173213Y-81648714D01*
X102485713Y-81648714D01*
X102567066Y-81630146D01*
X102632306Y-81578118D01*
X102668512Y-81502937D01*
X102668512Y-81419491D01*
X102632306Y-81344310D01*
X102567066Y-81292282D01*
X102485713Y-81273714D01*
X102173213Y-81273714D01*
X102173213Y-80934428D01*
X102699999Y-80934428D01*
X102781352Y-80915860D01*
X102846592Y-80863832D01*
X102882798Y-80788651D01*
X102882798Y-80705205D01*
X102846592Y-80630024D01*
X102781352Y-80577996D01*
X102699999Y-80559428D01*
X101985713Y-80559428D01*
X101965116Y-80564129D01*
X101943990Y-80564129D01*
X101924957Y-80573294D01*
X101904360Y-80577996D01*
X101887841Y-80591169D01*
X101868809Y-80600335D01*
X101855636Y-80616851D01*
X101839120Y-80630024D01*
X101829954Y-80649056D01*
X101816781Y-80665575D01*
X101812079Y-80686172D01*
X101802914Y-80705205D01*
X101802914Y-80726331D01*
X101798213Y-80746928D01*
X101798213Y-82246928D01*
X101465164Y-82246928D01*
X101475439Y-82236653D01*
X101492176Y-82210015D01*
X101511788Y-82185424D01*
X101514160Y-82175028D01*
X101519835Y-82165998D01*
X101523356Y-82134739D01*
X101530356Y-82104071D01*
X101530356Y-81604071D01*
X101525655Y-81583474D01*
X101525655Y-81562348D01*
X101516489Y-81543315D01*
X101511788Y-81522718D01*
X101498614Y-81506199D01*
X101489449Y-81487167D01*
X101472932Y-81473994D01*
X101459760Y-81457478D01*
X101440727Y-81448312D01*
X101424209Y-81435139D01*
X101403611Y-81430437D01*
X101384579Y-81421272D01*
X101363453Y-81421272D01*
X101342856Y-81416571D01*
X101057142Y-81416571D01*
X100975789Y-81435139D01*
X100910549Y-81487167D01*
X100874343Y-81562348D01*
X100874343Y-81645794D01*
X100910549Y-81720975D01*
X100975789Y-81773003D01*
X101057142Y-81791571D01*
X101155356Y-81791571D01*
X101155356Y-82016548D01*
X101026716Y-82059428D01*
X100944711Y-82059428D01*
X100801283Y-82011619D01*
X100711239Y-81921575D01*
X100662623Y-81824341D01*
X100601785Y-81580988D01*
X100601785Y-81412867D01*
X100662623Y-81169514D01*
X100711238Y-81072282D01*
X100801283Y-80982237D01*
X100944712Y-80934428D01*
X101084308Y-80934428D01*
X101187575Y-80986062D01*
X101268643Y-81005836D01*
X101350263Y-80988478D01*
X101416269Y-80937426D01*
X101453587Y-80862789D01*
X101454826Y-80779354D01*
X101419741Y-80703642D01*
X101355281Y-80650652D01*
X101212424Y-80579223D01*
X101211038Y-80578885D01*
X101209924Y-80577996D01*
X101170591Y-80569018D01*
X101131356Y-80559448D01*
X101129959Y-80559744D01*
X101128571Y-80559428D01*
X100914285Y-80559428D01*
X100884944Y-80566124D01*
X100854992Y-80569050D01*
X100640706Y-80640479D01*
X100639487Y-80641219D01*
X100638071Y-80641379D01*
X100603900Y-80662850D01*
X100569400Y-80683820D01*
X100568623Y-80685016D01*
X100567416Y-80685775D01*
X100424559Y-80828631D01*
X100408546Y-80854115D01*
X100389437Y-80877361D01*
X100318008Y-81020218D01*
X100313126Y-81040227D01*
X100303811Y-81058596D01*
X100232383Y-81344310D01*
X100231909Y-81367334D01*
X100226785Y-81389785D01*
X100226785Y-81604071D01*
X99969071Y-81604071D01*
X99663592Y-80687635D01*
X99651193Y-80667236D01*
X99642976Y-80644826D01*
X99629794Y-80632029D01*
X99620251Y-80616329D01*
X99600231Y-80603331D01*
X99583102Y-80586703D01*
X99565669Y-80580892D01*
X99550262Y-80570889D01*
X99526584Y-80567864D01*
X99503938Y-80560316D01*
X99485714Y-80562643D01*
X99467490Y-80560316D01*
X99444845Y-80567864D01*
X99421166Y-80570889D01*
X99405755Y-80580894D01*
X99388326Y-80586704D01*
X99371199Y-80603329D01*
X99351177Y-80616329D01*
X99341633Y-80632030D01*
X99328452Y-80644826D01*
X99320234Y-80667236D01*
X99307836Y-80687635D01*
X98807836Y-82187635D01*
X98799725Y-82270685D01*
X98453506Y-82270685D01*
X98458928Y-82246928D01*
X98458928Y-80934428D01*
X98700000Y-80934428D01*
X98781353Y-80915860D01*
X98846593Y-80863832D01*
X98882799Y-80788651D01*
X98882799Y-80705205D01*
X98846593Y-80630024D01*
X98781353Y-80577996D01*
X98700000Y-80559428D01*
X97842857Y-80559428D01*
X97761504Y-80577996D01*
X97696264Y-80630024D01*
X97660058Y-80705205D01*
X97660058Y-80788651D01*
X97030356Y-80788651D01*
X97030356Y-80746928D01*
X97011788Y-80665575D01*
X96959760Y-80600335D01*
X96884579Y-80564129D01*
X96801133Y-80564129D01*
X96725952Y-80600335D01*
X96673924Y-80665575D01*
X96655356Y-80746928D01*
X96655356Y-82246928D01*
X96179450Y-82246928D01*
X96261153Y-82165224D01*
X96265794Y-82157836D01*
X96272727Y-82152538D01*
X96287811Y-82122797D01*
X96305548Y-82094569D01*
X96306524Y-82085900D01*
X96310472Y-82078118D01*
X96381901Y-81792404D01*
X96382374Y-81769378D01*
X96387499Y-81746928D01*
X96387499Y-81246928D01*
X96382374Y-81224477D01*
X96381901Y-81201452D01*
X96310472Y-80915738D01*
X96306524Y-80907955D01*
X96305548Y-80899286D01*
X96287810Y-80871056D01*
X96272727Y-80841318D01*
X96265794Y-80836019D01*
X96261152Y-80828631D01*
X96118296Y-80685774D01*
X96092811Y-80669761D01*
X96069566Y-80650652D01*
X95926709Y-80579223D01*
X95925323Y-80578885D01*
X95924209Y-80577996D01*
X95884876Y-80569018D01*
X95845641Y-80559448D01*
X95844244Y-80559744D01*
X95842856Y-80559428D01*
X95557142Y-80559428D01*
X95555751Y-80559745D01*
X95554357Y-80559449D01*
X95515154Y-80569011D01*
X95475789Y-80577996D01*
X95474674Y-80578885D01*
X95473289Y-80579223D01*
X95330432Y-80650652D01*
X95307183Y-80669763D01*
X95281703Y-80685774D01*
X95138845Y-80828631D01*
X95134202Y-80836019D01*
X95127270Y-80841318D01*
X95112187Y-80871054D01*
X95094449Y-80899286D01*
X95093472Y-80907956D01*
X95089525Y-80915739D01*
X95018097Y-81201453D01*
X95017623Y-81224477D01*
X95012499Y-81246928D01*
X95012499Y-81746928D01*
X94635737Y-81746928D01*
X94949306Y-80806221D01*
X94957417Y-80723171D01*
X94928690Y-80644826D01*
X94868816Y-80586703D01*
X94789652Y-80560316D01*
X94706880Y-80570889D01*
X94636891Y-80616329D01*
X94593550Y-80687635D01*
X94271428Y-81654001D01*
X93949306Y-80687635D01*
X93905965Y-80616329D01*
X93835976Y-80570889D01*
X93753204Y-80560316D01*
X93674040Y-80586704D01*
X93614166Y-80644826D01*
X93585439Y-80723171D01*
X92310648Y-80723171D01*
X92297502Y-80665575D01*
X92245474Y-80600335D01*
X92170293Y-80564129D01*
X92086847Y-80564129D01*
X92011666Y-80600335D01*
X91959638Y-80665575D01*
X91941070Y-80746928D01*
X91941070Y-81273714D01*
X91458927Y-81273714D01*
X91458927Y-80746928D01*
X91440359Y-80665575D01*
X91388331Y-80600335D01*
X91313150Y-80564129D01*
X91229704Y-80564129D01*
X91154523Y-80600335D01*
X91102495Y-80665575D01*
X91083927Y-80746928D01*
X91083927Y-82246928D01*
X90750878Y-82246928D01*
X90761153Y-82236653D01*
X90777890Y-82210015D01*
X90797502Y-82185424D01*
X90799874Y-82175028D01*
X90805549Y-82165998D01*
X90809070Y-82134739D01*
X90816070Y-82104071D01*
X90816070Y-81604071D01*
X90811369Y-81583474D01*
X90811369Y-81562348D01*
X90802203Y-81543315D01*
X90797502Y-81522718D01*
X90784328Y-81506199D01*
X90775163Y-81487167D01*
X90758646Y-81473994D01*
X90745474Y-81457478D01*
X90726441Y-81448312D01*
X90709923Y-81435139D01*
X90689325Y-81430437D01*
X90670293Y-81421272D01*
X90649167Y-81421272D01*
X90628570Y-81416571D01*
X90342856Y-81416571D01*
X90261503Y-81435139D01*
X90196263Y-81487167D01*
X90160057Y-81562348D01*
X90160057Y-81645794D01*
X90196263Y-81720975D01*
X90261503Y-81773003D01*
X90342856Y-81791571D01*
X90441070Y-81791571D01*
X90441070Y-82016548D01*
X90312430Y-82059428D01*
X90230425Y-82059428D01*
X90086997Y-82011619D01*
X89996953Y-81921575D01*
X89948337Y-81824341D01*
X89887499Y-81580988D01*
X89887499Y-81412867D01*
X89948337Y-81169514D01*
X89996952Y-81072282D01*
X90086997Y-80982237D01*
X90230426Y-80934428D01*
X90370022Y-80934428D01*
X90473289Y-80986062D01*
X90554357Y-81005836D01*
X90635977Y-80988478D01*
X90701983Y-80937426D01*
X90739301Y-80862789D01*
X90740540Y-80779354D01*
X90705455Y-80703642D01*
X90640995Y-80650652D01*
X90498138Y-80579223D01*
X90496752Y-80578885D01*
X90495638Y-80577996D01*
X90456305Y-80569018D01*
X90417070Y-80559448D01*
X90415673Y-80559744D01*
X90414285Y-80559428D01*
X90199999Y-80559428D01*
X90170658Y-80566124D01*
X90140706Y-80569050D01*
X89926420Y-80640479D01*
X89925201Y-80641219D01*
X89923785Y-80641379D01*
X89889614Y-80662850D01*
X89855114Y-80683820D01*
X89854337Y-80685016D01*
X89853130Y-80685775D01*
X89710273Y-80828631D01*
X89694260Y-80854115D01*
X89675151Y-80877361D01*
X89603722Y-81020218D01*
X89598840Y-81040227D01*
X89589525Y-81058596D01*
X89518097Y-81344310D01*
X89517623Y-81367334D01*
X89512499Y-81389785D01*
X89512499Y-81604071D01*
X89244641Y-81604071D01*
X89244641Y-80746928D01*
X89226073Y-80665575D01*
X89174045Y-80600335D01*
X89098864Y-80564129D01*
X89015418Y-80564129D01*
X88940237Y-80600335D01*
X88888209Y-80665575D01*
X88869641Y-80746928D01*
X88869641Y-82246928D01*
X88530355Y-82246928D01*
X88530355Y-80746928D01*
X88511787Y-80665575D01*
X88459759Y-80600335D01*
X88384578Y-80564129D01*
X88301132Y-80564129D01*
X88225951Y-80600335D01*
X88173923Y-80665575D01*
X88155355Y-80746928D01*
X88155355Y-81273714D01*
X87673212Y-81273714D01*
X87673212Y-80746928D01*
X87654644Y-80665575D01*
X87602616Y-80600335D01*
X87527435Y-80564129D01*
X87443989Y-80564129D01*
X87368808Y-80600335D01*
X87316780Y-80665575D01*
X87298212Y-80746928D01*
X87298212Y-82246928D01*
X85871006Y-82246928D01*
X85876976Y-82237429D01*
X85879341Y-82216433D01*
X85886319Y-82196493D01*
X85883953Y-82175500D01*
X85886319Y-82154508D01*
X85879341Y-82134566D01*
X85876976Y-82113572D01*
X85865737Y-82095685D01*
X85858760Y-82075745D01*
X85843820Y-82060805D01*
X85832581Y-82042918D01*
X85761152Y-81971488D01*
X85752119Y-81965812D01*
X85745473Y-81957478D01*
X85735866Y-81952851D01*
X85728324Y-81945309D01*
X85708384Y-81938332D01*
X85690497Y-81927093D01*
X85679899Y-81925898D01*
X85670292Y-81921272D01*
X85659627Y-81921272D01*
X85649561Y-81917750D01*
X85628568Y-81920115D01*
X85607576Y-81917750D01*
X85597511Y-81921272D01*
X85586846Y-81921272D01*
X85577238Y-81925898D01*
X85566640Y-81927093D01*
X85548752Y-81938333D01*
X85528813Y-81945310D01*
X85521271Y-81952851D01*
X85511665Y-81957478D01*
X85505016Y-81965815D01*
X85495985Y-81971490D01*
X85424558Y-82042918D01*
X85413318Y-82060805D01*
X85398380Y-82075744D01*
X85391402Y-82095684D01*
X85380162Y-82113574D01*
X85377797Y-82134567D01*
X85370820Y-82154507D01*
X85145461Y-82154507D01*
X85139318Y-82139404D01*
X84819500Y-81682521D01*
X84926707Y-81628919D01*
X84949952Y-81609810D01*
X84975438Y-81593797D01*
X85046867Y-81522367D01*
X85062878Y-81496884D01*
X85081989Y-81473637D01*
X85113418Y-81410778D01*
X85370820Y-81410778D01*
X85377797Y-81430717D01*
X85380162Y-81451711D01*
X85391402Y-81469600D01*
X85398380Y-81489541D01*
X85413318Y-81504479D01*
X85424558Y-81522367D01*
X85495985Y-81593795D01*
X85505016Y-81599469D01*
X85511665Y-81607807D01*
X85521271Y-81612433D01*
X85528813Y-81619975D01*
X85548752Y-81626951D01*
X85566640Y-81638192D01*
X85577238Y-81639386D01*
X85586846Y-81644013D01*
X85597511Y-81644013D01*
X85607576Y-81647535D01*
X85628568Y-81645169D01*
X85649561Y-81647535D01*
X85659627Y-81644013D01*
X85670292Y-81644013D01*
X85679899Y-81639386D01*
X85690497Y-81638192D01*
X85708384Y-81626952D01*
X85728324Y-81619976D01*
X85735866Y-81612433D01*
X85745473Y-81607807D01*
X85752119Y-81599472D01*
X85761152Y-81593797D01*
X85832581Y-81522367D01*
X85843820Y-81504479D01*
X85858760Y-81489540D01*
X85865737Y-81469599D01*
X85876976Y-81451713D01*
X85879341Y-81430718D01*
X85886319Y-81410777D01*
X85883953Y-81389784D01*
X85886319Y-81368792D01*
X85879341Y-81348851D01*
X85876976Y-81327856D01*
X85865735Y-81309968D01*
X85858759Y-81290029D01*
X85843819Y-81275089D01*
X85832579Y-81257201D01*
X85761151Y-81185774D01*
X85752120Y-81180099D01*
X85745473Y-81171764D01*
X85735864Y-81167136D01*
X85728324Y-81159596D01*
X85708386Y-81152619D01*
X85690495Y-81141378D01*
X85679898Y-81140184D01*
X85670292Y-81135558D01*
X85659625Y-81135558D01*
X85649562Y-81132037D01*
X85628569Y-81134402D01*
X85607574Y-81132037D01*
X85597512Y-81135558D01*
X85586846Y-81135558D01*
X85577237Y-81140185D01*
X85566641Y-81141379D01*
X85548751Y-81152619D01*
X85528812Y-81159597D01*
X85521271Y-81167137D01*
X85511665Y-81171764D01*
X85505016Y-81180100D01*
X85495986Y-81185775D01*
X85424558Y-81257202D01*
X85413317Y-81275091D01*
X85398381Y-81290028D01*
X85391404Y-81309966D01*
X85380163Y-81327857D01*
X85377797Y-81348852D01*
X85370821Y-81368790D01*
X85373185Y-81389781D01*
X85370820Y-81410778D01*
X85113418Y-81410778D01*
X85153417Y-81330780D01*
X85153754Y-81329396D01*
X85154644Y-81328281D01*
X85163624Y-81288932D01*
X85173192Y-81249712D01*
X85172895Y-81248316D01*
X85173212Y-81246928D01*
X85173212Y-81032642D01*
X85172895Y-81031253D01*
X85173192Y-81029858D01*
X85163624Y-80990637D01*
X85154644Y-80951289D01*
X85153754Y-80950173D01*
X85153417Y-80948790D01*
X85081989Y-80805933D01*
X85062877Y-80782683D01*
X85046865Y-80757201D01*
X84975437Y-80685774D01*
X84949956Y-80669763D01*
X84926708Y-80650652D01*
X84783851Y-80579223D01*
X84782465Y-80578885D01*
X84781351Y-80577996D01*
X84742018Y-80569018D01*
X84702783Y-80559448D01*
X84701386Y-80559744D01*
X84699998Y-80559428D01*
X84128569Y-80559428D01*
X84107972Y-80564129D01*
X84086846Y-80564129D01*
X84067813Y-80573294D01*
X84047216Y-80577996D01*
X84030697Y-80591169D01*
X84011665Y-80600335D01*
X83998492Y-80616851D01*
X83981976Y-80630024D01*
X83972810Y-80649056D01*
X83959637Y-80665575D01*
X83954935Y-80686172D01*
X83945770Y-80705205D01*
X83945770Y-80726331D01*
X83941069Y-80746928D01*
X83941069Y-82246928D01*
X83668511Y-82246928D01*
X83668511Y-82205205D01*
X83632305Y-82130024D01*
X83567065Y-82077996D01*
X83485712Y-82059428D01*
X82958926Y-82059428D01*
X82958926Y-81648714D01*
X83271426Y-81648714D01*
X83352779Y-81630146D01*
X83418019Y-81578118D01*
X83454225Y-81502937D01*
X83454225Y-81419491D01*
X83418019Y-81344310D01*
X83352779Y-81292282D01*
X83271426Y-81273714D01*
X82958926Y-81273714D01*
X82958926Y-80934428D01*
X83485712Y-80934428D01*
X83567065Y-80915860D01*
X83632305Y-80863832D01*
X83668511Y-80788651D01*
X83668511Y-80705205D01*
X83632305Y-80630024D01*
X83567065Y-80577996D01*
X83485712Y-80559428D01*
X82771426Y-80559428D01*
X82750829Y-80564129D01*
X82729703Y-80564129D01*
X82710670Y-80573294D01*
X82690073Y-80577996D01*
X82673554Y-80591169D01*
X82654522Y-80600335D01*
X82641349Y-80616851D01*
X82624833Y-80630024D01*
X82615667Y-80649056D01*
X82602494Y-80665575D01*
X82597792Y-80686172D01*
X82588627Y-80705205D01*
X82588627Y-80726331D01*
X82583926Y-80746928D01*
X82583926Y-82246928D01*
X82250877Y-82246928D01*
X82261152Y-82236653D01*
X82277889Y-82210015D01*
X82297501Y-82185424D01*
X82299873Y-82175028D01*
X82305548Y-82165998D01*
X82309069Y-82134739D01*
X82316069Y-82104071D01*
X82316069Y-81604071D01*
X82311368Y-81583474D01*
X82311368Y-81562348D01*
X82302202Y-81543315D01*
X82297501Y-81522718D01*
X82284327Y-81506199D01*
X82275162Y-81487167D01*
X82258645Y-81473994D01*
X82245473Y-81457478D01*
X82226440Y-81448312D01*
X82209922Y-81435139D01*
X82189324Y-81430437D01*
X82170292Y-81421272D01*
X82149166Y-81421272D01*
X82128569Y-81416571D01*
X81842855Y-81416571D01*
X81761502Y-81435139D01*
X81696262Y-81487167D01*
X81660056Y-81562348D01*
X81660056Y-81645794D01*
X81696262Y-81720975D01*
X81761502Y-81773003D01*
X81842855Y-81791571D01*
X81941069Y-81791571D01*
X81941069Y-82016548D01*
X81812429Y-82059428D01*
X81730424Y-82059428D01*
X81586996Y-82011619D01*
X81496952Y-81921575D01*
X81448336Y-81824341D01*
X81387498Y-81580988D01*
X81387498Y-81412867D01*
X81448336Y-81169514D01*
X81496951Y-81072282D01*
X81586996Y-80982237D01*
X81730425Y-80934428D01*
X81870021Y-80934428D01*
X81973288Y-80986062D01*
X82054356Y-81005836D01*
X82135976Y-80988478D01*
X82201982Y-80937426D01*
X82239300Y-80862789D01*
X82240539Y-80779354D01*
X82205454Y-80703642D01*
X82140994Y-80650652D01*
X81998137Y-80579223D01*
X81996751Y-80578885D01*
X81995637Y-80577996D01*
X81956304Y-80569018D01*
X81917069Y-80559448D01*
X81915672Y-80559744D01*
X81914284Y-80559428D01*
X81699998Y-80559428D01*
X81670657Y-80566124D01*
X81640705Y-80569050D01*
X81426419Y-80640479D01*
X81425200Y-80641219D01*
X81423784Y-80641379D01*
X81389613Y-80662850D01*
X81355113Y-80683820D01*
X81354336Y-80685016D01*
X81353129Y-80685775D01*
X81210272Y-80828631D01*
X81194259Y-80854115D01*
X81175150Y-80877361D01*
X81103721Y-81020218D01*
X81098839Y-81040227D01*
X81089524Y-81058596D01*
X81018096Y-81344310D01*
X81017622Y-81367334D01*
X81012498Y-81389785D01*
X81012498Y-81604071D01*
X80744640Y-81604071D01*
X80744640Y-80746928D01*
X80726072Y-80665575D01*
X80674044Y-80600335D01*
X80598863Y-80564129D01*
X80515417Y-80564129D01*
X80440236Y-80600335D01*
X80388208Y-80665575D01*
X80369640Y-80746928D01*
X80369640Y-81540884D01*
X79862793Y-80653902D01*
X79838898Y-80627918D01*
X79816901Y-80600335D01*
X79810854Y-80597423D01*
X79806309Y-80592480D01*
X79773513Y-80579440D01*
X79741720Y-80564129D01*
X79735005Y-80564129D01*
X79728768Y-80561649D01*
X79693571Y-80564129D01*
X79658274Y-80564129D01*
X79652224Y-80567042D01*
X79645529Y-80567514D01*
X79614886Y-80585023D01*
X79583093Y-80600335D01*
X79578908Y-80605582D01*
X79573078Y-80608914D01*
X79553067Y-80637985D01*
X79531065Y-80665575D01*
X79529571Y-80672120D01*
X79525765Y-80677650D01*
X79520350Y-80712518D01*
X79512497Y-80746928D01*
X79512497Y-82246928D01*
X79383667Y-82246928D01*
X79377876Y-82187635D01*
X78877876Y-80687635D01*
X78865477Y-80667236D01*
X78857260Y-80644826D01*
X78844078Y-80632029D01*
X78834535Y-80616329D01*
X78814515Y-80603331D01*
X78797386Y-80586703D01*
X78779953Y-80580892D01*
X78764546Y-80570889D01*
X78740868Y-80567864D01*
X78718222Y-80560316D01*
X78699998Y-80562643D01*
X78681774Y-80560316D01*
X78659129Y-80567864D01*
X78635450Y-80570889D01*
X78620039Y-80580894D01*
X78602610Y-80586704D01*
X78585483Y-80603329D01*
X78565461Y-80616329D01*
X78555917Y-80632030D01*
X78542736Y-80644826D01*
X78534518Y-80667236D01*
X78522120Y-80687635D01*
X78022120Y-82187635D01*
X78014009Y-82270685D01*
X77655692Y-82270685D01*
X77761152Y-82165224D01*
X77777162Y-82139743D01*
X77796274Y-82116495D01*
X77867703Y-81973638D01*
X77872583Y-81953629D01*
X77881900Y-81935260D01*
X77953328Y-81649546D01*
X77953801Y-81626521D01*
X77958926Y-81604071D01*
X77958926Y-81389785D01*
X77953801Y-81367334D01*
X77953328Y-81344310D01*
X77881900Y-81058596D01*
X77872583Y-81040226D01*
X77867703Y-81020218D01*
X77796274Y-80877361D01*
X77777162Y-80854112D01*
X77761151Y-80828631D01*
X77618295Y-80685774D01*
X77617086Y-80685014D01*
X77616311Y-80683820D01*
X77581834Y-80662864D01*
X77547640Y-80641379D01*
X77546223Y-80641219D01*
X77545005Y-80640479D01*
X77330719Y-80569050D01*
X77300766Y-80566124D01*
X77271426Y-80559428D01*
X76914283Y-80559428D01*
X76893686Y-80564129D01*
X76872560Y-80564129D01*
X76853527Y-80573294D01*
X76832930Y-80577996D01*
X76816411Y-80591169D01*
X76797379Y-80600335D01*
X76784206Y-80616851D01*
X76767690Y-80630024D01*
X76758524Y-80649056D01*
X76745351Y-80665575D01*
X76740649Y-80686172D01*
X76731484Y-80705205D01*
X76731484Y-80726331D01*
X76726783Y-80746928D01*
X76726783Y-82246928D01*
X76512497Y-82246928D01*
X76512497Y-80345142D01*
X129958283Y-80345142D01*
X129958283Y-82648714D01*
G37*
D10*
G36*
X58377609Y-51347617D02*
G01*
X58397347Y-51367354D01*
X58421191Y-51415041D01*
X58421191Y-51491555D01*
X58397347Y-51539242D01*
X58377609Y-51558979D01*
X58329925Y-51582822D01*
X58124048Y-51582822D01*
X58124048Y-51323775D01*
X58329925Y-51323775D01*
X58377609Y-51347617D01*
G37*
G36*
X58796659Y-50059618D02*
G01*
X58848002Y-50110960D01*
X58878334Y-50232287D01*
X58878334Y-50479261D01*
X58848002Y-50600588D01*
X58796657Y-50651932D01*
X58748973Y-50675775D01*
X58634362Y-50675775D01*
X58586675Y-50651931D01*
X58535332Y-50600588D01*
X58505000Y-50479260D01*
X58505000Y-50232288D01*
X58535332Y-50110961D01*
X58586675Y-50059618D01*
X58634362Y-50035775D01*
X58748973Y-50035775D01*
X58796659Y-50059618D01*
G37*
G36*
X58343689Y-48775792D02*
G01*
X58397346Y-48829449D01*
X58425709Y-48886173D01*
X58459286Y-49020479D01*
X58459286Y-49115070D01*
X58425709Y-49249375D01*
X58397346Y-49306100D01*
X58343690Y-49359757D01*
X58259636Y-49387775D01*
X58162143Y-49387775D01*
X58162143Y-48747775D01*
X58259636Y-48747775D01*
X58343689Y-48775792D01*
G37*
G36*
X59215706Y-48771618D02*
G01*
X59267049Y-48822960D01*
X59297381Y-48944287D01*
X59297381Y-49191261D01*
X59267049Y-49312588D01*
X59215704Y-49363932D01*
X59168020Y-49387775D01*
X59053409Y-49387775D01*
X59005722Y-49363931D01*
X58954379Y-49312588D01*
X58924047Y-49191260D01*
X58924047Y-48944288D01*
X58954379Y-48822961D01*
X59005722Y-48771618D01*
X59053409Y-48747775D01*
X59168020Y-48747775D01*
X59215706Y-48771618D01*
G37*
G36*
X61590715Y-52238061D02*
G01*
X57546215Y-52238061D01*
X57546215Y-52043775D01*
X57964048Y-52043775D01*
X57982764Y-52095198D01*
X58030156Y-52122560D01*
X58084048Y-52113057D01*
X58119223Y-52071137D01*
X58124048Y-52043775D01*
X58764048Y-52043775D01*
X58782764Y-52095198D01*
X58830156Y-52122560D01*
X58884048Y-52113057D01*
X58919223Y-52071137D01*
X58924048Y-52043775D01*
X59145000Y-52043775D01*
X59163716Y-52095198D01*
X59211108Y-52122560D01*
X59265000Y-52113057D01*
X59300175Y-52071137D01*
X59305000Y-52043775D01*
X59305000Y-51545019D01*
X59612684Y-52083466D01*
X59618328Y-52088245D01*
X59620859Y-52095198D01*
X59638715Y-52105507D01*
X59654447Y-52118828D01*
X59661844Y-52118860D01*
X59668251Y-52122560D01*
X59688552Y-52118980D01*
X59709170Y-52119072D01*
X59714858Y-52114341D01*
X59722143Y-52113057D01*
X59735394Y-52097264D01*
X59751246Y-52084083D01*
X59752563Y-52076803D01*
X59757318Y-52071137D01*
X59762143Y-52043775D01*
X59762143Y-51472346D01*
X59944999Y-51472346D01*
X59946635Y-51476840D01*
X59945524Y-51481492D01*
X59953445Y-51508123D01*
X59991541Y-51584314D01*
X59992807Y-51585513D01*
X60006526Y-51605106D01*
X60044621Y-51643200D01*
X60046202Y-51643937D01*
X60065413Y-51658186D01*
X60141603Y-51696281D01*
X60145367Y-51696714D01*
X60157977Y-51702338D01*
X60301840Y-51738304D01*
X60358562Y-51766665D01*
X60378299Y-51786402D01*
X60402142Y-51834088D01*
X60402142Y-51872509D01*
X60378298Y-51920195D01*
X60358562Y-51939932D01*
X60310876Y-51963775D01*
X60152268Y-51963775D01*
X60050297Y-51929785D01*
X59995594Y-51931280D01*
X59954650Y-51967587D01*
X59946623Y-52021719D01*
X59975269Y-52068345D01*
X59999701Y-52081575D01*
X60113987Y-52119670D01*
X60115735Y-52119622D01*
X60139285Y-52123775D01*
X60329761Y-52123775D01*
X60334255Y-52122139D01*
X60338907Y-52123250D01*
X60365538Y-52115329D01*
X60441729Y-52077234D01*
X60442929Y-52075966D01*
X60462521Y-52062248D01*
X60500616Y-52024152D01*
X60501354Y-52022569D01*
X60515601Y-52003361D01*
X60517928Y-51998707D01*
X60707208Y-51998707D01*
X60712588Y-52018788D01*
X60714400Y-52039490D01*
X60720450Y-52048131D01*
X60721371Y-52051566D01*
X60724283Y-52053605D01*
X60730336Y-52062249D01*
X60768432Y-52100344D01*
X60787268Y-52109127D01*
X60804294Y-52121049D01*
X60807938Y-52120730D01*
X60811108Y-52122560D01*
X60814711Y-52121924D01*
X60818028Y-52123471D01*
X60838105Y-52118091D01*
X60858809Y-52116280D01*
X60862877Y-52113431D01*
X60865000Y-52113057D01*
X60867261Y-52110361D01*
X60867454Y-52110226D01*
X60870887Y-52109307D01*
X60872924Y-52106396D01*
X60881569Y-52100344D01*
X60919663Y-52062249D01*
X60928447Y-52043410D01*
X60940369Y-52026386D01*
X60939739Y-52019195D01*
X60942791Y-52012653D01*
X60939054Y-51998707D01*
X61088160Y-51998707D01*
X61093540Y-52018788D01*
X61095352Y-52039490D01*
X61101402Y-52048131D01*
X61102323Y-52051566D01*
X61105235Y-52053605D01*
X61111288Y-52062249D01*
X61149384Y-52100344D01*
X61168220Y-52109127D01*
X61185246Y-52121049D01*
X61188890Y-52120730D01*
X61192060Y-52122560D01*
X61195663Y-52121924D01*
X61198980Y-52123471D01*
X61219057Y-52118091D01*
X61239761Y-52116280D01*
X61243829Y-52113431D01*
X61245952Y-52113057D01*
X61248213Y-52110361D01*
X61248406Y-52110226D01*
X61251839Y-52109307D01*
X61253876Y-52106396D01*
X61262521Y-52100344D01*
X61300615Y-52062249D01*
X61309399Y-52043410D01*
X61321321Y-52026386D01*
X61320691Y-52019195D01*
X61323743Y-52012653D01*
X61318363Y-51992576D01*
X61316552Y-51971872D01*
X61310498Y-51963226D01*
X61309579Y-51959794D01*
X61306668Y-51957755D01*
X61300616Y-51949112D01*
X61262521Y-51911016D01*
X61243683Y-51902231D01*
X61226658Y-51890310D01*
X61223013Y-51890628D01*
X61219844Y-51888799D01*
X61216241Y-51889434D01*
X61212926Y-51887888D01*
X61192847Y-51893267D01*
X61172143Y-51895079D01*
X61168074Y-51897927D01*
X61165952Y-51898302D01*
X61163689Y-51900997D01*
X61163499Y-51901131D01*
X61160067Y-51902051D01*
X61158028Y-51904961D01*
X61149384Y-51911015D01*
X61111287Y-51949111D01*
X61102500Y-51967953D01*
X61090582Y-51984976D01*
X61091210Y-51992164D01*
X61088160Y-51998707D01*
X60939054Y-51998707D01*
X60937411Y-51992576D01*
X60935600Y-51971872D01*
X60929546Y-51963226D01*
X60928627Y-51959794D01*
X60925716Y-51957755D01*
X60919664Y-51949112D01*
X60881569Y-51911016D01*
X60862731Y-51902231D01*
X60845706Y-51890310D01*
X60842061Y-51890628D01*
X60838892Y-51888799D01*
X60835289Y-51889434D01*
X60831974Y-51887888D01*
X60811895Y-51893267D01*
X60791191Y-51895079D01*
X60787122Y-51897927D01*
X60785000Y-51898302D01*
X60782737Y-51900997D01*
X60782547Y-51901131D01*
X60779115Y-51902051D01*
X60777076Y-51904961D01*
X60768432Y-51911015D01*
X60730335Y-51949111D01*
X60721548Y-51967953D01*
X60709630Y-51984976D01*
X60710258Y-51992164D01*
X60707208Y-51998707D01*
X60517928Y-51998707D01*
X60553696Y-51927171D01*
X60554242Y-51922419D01*
X60557317Y-51918756D01*
X60562142Y-51891394D01*
X60562142Y-51815203D01*
X60560505Y-51810708D01*
X60561617Y-51806057D01*
X60553696Y-51779426D01*
X60515601Y-51703236D01*
X60514331Y-51702033D01*
X60500615Y-51682444D01*
X60462521Y-51644349D01*
X60460935Y-51643609D01*
X60441729Y-51629364D01*
X60365538Y-51591268D01*
X60361773Y-51590834D01*
X60349164Y-51585211D01*
X60205302Y-51549245D01*
X60148579Y-51520884D01*
X60128842Y-51501147D01*
X60104999Y-51453460D01*
X60104999Y-51415041D01*
X60128842Y-51367354D01*
X60148579Y-51347617D01*
X60196265Y-51323775D01*
X60354874Y-51323775D01*
X60456844Y-51357765D01*
X60511546Y-51356270D01*
X60552491Y-51319963D01*
X60557155Y-51288514D01*
X60707180Y-51288514D01*
X60745276Y-51745657D01*
X60754112Y-51764814D01*
X60759657Y-51785169D01*
X60762523Y-51787158D01*
X60763716Y-51790436D01*
X60766736Y-51792179D01*
X60768198Y-51795348D01*
X60787282Y-51804343D01*
X60804613Y-51816372D01*
X60808086Y-51816053D01*
X60811108Y-51817798D01*
X60814542Y-51817192D01*
X60817699Y-51818680D01*
X60838104Y-51813302D01*
X60859108Y-51811377D01*
X60861563Y-51808900D01*
X60865000Y-51808295D01*
X60867241Y-51805623D01*
X60870616Y-51804734D01*
X60882791Y-51787497D01*
X60897643Y-51772523D01*
X60898845Y-51767958D01*
X60900175Y-51766375D01*
X60900994Y-51761727D01*
X60902188Y-51760038D01*
X60902856Y-51752741D01*
X60904724Y-51745657D01*
X60942819Y-51288514D01*
X61088132Y-51288514D01*
X61126228Y-51745657D01*
X61135064Y-51764814D01*
X61140609Y-51785169D01*
X61143475Y-51787158D01*
X61144668Y-51790436D01*
X61147688Y-51792179D01*
X61149150Y-51795348D01*
X61168234Y-51804343D01*
X61185565Y-51816372D01*
X61189038Y-51816053D01*
X61192060Y-51817798D01*
X61195494Y-51817192D01*
X61198651Y-51818680D01*
X61219056Y-51813302D01*
X61240060Y-51811377D01*
X61242515Y-51808900D01*
X61245952Y-51808295D01*
X61248193Y-51805623D01*
X61251568Y-51804734D01*
X61263743Y-51787497D01*
X61278595Y-51772523D01*
X61279797Y-51767958D01*
X61281127Y-51766375D01*
X61281946Y-51761727D01*
X61283140Y-51760038D01*
X61283808Y-51752741D01*
X61285676Y-51745657D01*
X61323771Y-51288513D01*
X61318348Y-51268604D01*
X61316551Y-51248061D01*
X61310335Y-51239183D01*
X61309390Y-51235713D01*
X61306501Y-51233708D01*
X61300615Y-51225301D01*
X61262521Y-51187206D01*
X61243680Y-51178420D01*
X61226658Y-51166501D01*
X61223013Y-51166819D01*
X61219844Y-51164990D01*
X61216241Y-51165625D01*
X61212925Y-51164079D01*
X61192846Y-51169458D01*
X61172144Y-51171270D01*
X61168075Y-51174118D01*
X61165952Y-51174493D01*
X61163688Y-51177190D01*
X61163500Y-51177321D01*
X61160066Y-51178242D01*
X61158026Y-51181154D01*
X61149384Y-51187206D01*
X61111288Y-51225301D01*
X61102568Y-51243998D01*
X61090668Y-51260846D01*
X61089678Y-51271639D01*
X61088160Y-51274896D01*
X61089069Y-51278289D01*
X61088132Y-51288514D01*
X60942819Y-51288514D01*
X60942819Y-51288513D01*
X60937396Y-51268604D01*
X60935599Y-51248061D01*
X60929383Y-51239183D01*
X60928438Y-51235713D01*
X60925549Y-51233708D01*
X60919663Y-51225301D01*
X60881569Y-51187206D01*
X60862728Y-51178420D01*
X60845706Y-51166501D01*
X60842061Y-51166819D01*
X60838892Y-51164990D01*
X60835289Y-51165625D01*
X60831973Y-51164079D01*
X60811894Y-51169458D01*
X60791192Y-51171270D01*
X60787123Y-51174118D01*
X60785000Y-51174493D01*
X60782736Y-51177190D01*
X60782548Y-51177321D01*
X60779114Y-51178242D01*
X60777074Y-51181154D01*
X60768432Y-51187206D01*
X60730336Y-51225301D01*
X60721616Y-51243998D01*
X60709716Y-51260846D01*
X60708726Y-51271639D01*
X60707208Y-51274896D01*
X60708117Y-51278289D01*
X60707180Y-51288514D01*
X60557155Y-51288514D01*
X60560518Y-51265832D01*
X60531872Y-51219205D01*
X60507440Y-51205975D01*
X60393155Y-51167880D01*
X60391406Y-51167927D01*
X60367857Y-51163775D01*
X60177380Y-51163775D01*
X60172885Y-51165411D01*
X60168234Y-51164300D01*
X60141603Y-51172221D01*
X60065413Y-51210316D01*
X60064210Y-51211585D01*
X60044621Y-51225302D01*
X60006526Y-51263396D01*
X60005786Y-51264981D01*
X59991541Y-51284188D01*
X59953445Y-51360379D01*
X59952898Y-51365130D01*
X59949824Y-51368794D01*
X59944999Y-51396156D01*
X59944999Y-51472346D01*
X59762143Y-51472346D01*
X59762143Y-51243775D01*
X59743427Y-51192352D01*
X59696035Y-51164990D01*
X59642143Y-51174493D01*
X59606968Y-51216413D01*
X59602143Y-51243775D01*
X59602143Y-51742530D01*
X59294459Y-51204084D01*
X59288814Y-51199304D01*
X59286284Y-51192352D01*
X59268427Y-51182042D01*
X59252696Y-51168722D01*
X59245298Y-51168689D01*
X59238892Y-51164990D01*
X59218590Y-51168569D01*
X59197973Y-51168478D01*
X59192284Y-51173208D01*
X59185000Y-51174493D01*
X59171748Y-51190285D01*
X59155897Y-51203467D01*
X59154579Y-51210746D01*
X59149825Y-51216413D01*
X59145000Y-51243775D01*
X59145000Y-52043775D01*
X58924048Y-52043775D01*
X58924048Y-51243775D01*
X58905332Y-51192352D01*
X58857940Y-51164990D01*
X58804048Y-51174493D01*
X58768873Y-51216413D01*
X58764048Y-51243775D01*
X58764048Y-52043775D01*
X58124048Y-52043775D01*
X58124048Y-51742822D01*
X58348810Y-51742822D01*
X58353304Y-51741185D01*
X58357956Y-51742297D01*
X58384587Y-51734376D01*
X58460777Y-51696281D01*
X58461976Y-51695014D01*
X58481569Y-51681296D01*
X58519663Y-51643201D01*
X58520400Y-51641619D01*
X58534649Y-51622409D01*
X58572745Y-51546219D01*
X58573291Y-51541466D01*
X58576366Y-51537803D01*
X58581191Y-51510441D01*
X58581191Y-51396156D01*
X58579554Y-51391660D01*
X58580666Y-51387009D01*
X58572745Y-51360378D01*
X58534649Y-51284188D01*
X58533379Y-51282985D01*
X58519663Y-51263396D01*
X58481569Y-51225301D01*
X58479983Y-51224561D01*
X58460777Y-51210316D01*
X58384587Y-51172221D01*
X58379835Y-51171674D01*
X58376172Y-51168600D01*
X58348810Y-51163775D01*
X58044048Y-51163775D01*
X58024516Y-51170883D01*
X58004048Y-51174493D01*
X57999408Y-51180022D01*
X57992625Y-51182491D01*
X57982231Y-51200492D01*
X57968873Y-51216413D01*
X57967040Y-51226804D01*
X57965263Y-51229883D01*
X57965880Y-51233383D01*
X57964048Y-51243775D01*
X57964048Y-52043775D01*
X57546215Y-52043775D01*
X57546215Y-49941883D01*
X57660501Y-49941883D01*
X57670004Y-49995775D01*
X57711924Y-50030950D01*
X57739286Y-50035775D01*
X57887857Y-50035775D01*
X57887857Y-50755775D01*
X57906573Y-50807198D01*
X57953965Y-50834560D01*
X58007857Y-50825057D01*
X58043032Y-50783137D01*
X58047857Y-50755775D01*
X58047857Y-50489108D01*
X58345000Y-50489108D01*
X58346264Y-50492583D01*
X58347389Y-50508511D01*
X58385485Y-50660892D01*
X58389903Y-50667433D01*
X58390591Y-50675297D01*
X58406527Y-50698057D01*
X58482717Y-50774248D01*
X58484301Y-50774986D01*
X58503509Y-50789234D01*
X58579700Y-50827329D01*
X58584451Y-50827875D01*
X58588115Y-50830950D01*
X58615477Y-50835775D01*
X58767858Y-50835775D01*
X58772352Y-50834138D01*
X58777004Y-50835250D01*
X58803635Y-50827329D01*
X58879825Y-50789234D01*
X58881024Y-50787967D01*
X58900617Y-50774249D01*
X58976807Y-50698058D01*
X58980143Y-50690902D01*
X58986533Y-50686267D01*
X58997850Y-50660892D01*
X59012225Y-50603394D01*
X59221191Y-50603394D01*
X59222827Y-50607888D01*
X59221716Y-50612540D01*
X59229637Y-50639171D01*
X59267732Y-50715361D01*
X59269000Y-50716562D01*
X59282717Y-50736152D01*
X59320812Y-50774248D01*
X59322396Y-50774986D01*
X59341604Y-50789234D01*
X59417795Y-50827329D01*
X59422546Y-50827875D01*
X59426210Y-50830950D01*
X59453572Y-50835775D01*
X59605953Y-50835775D01*
X59610447Y-50834138D01*
X59615099Y-50835250D01*
X59641730Y-50827329D01*
X59717920Y-50789234D01*
X59719120Y-50787966D01*
X59738712Y-50774248D01*
X59776807Y-50736152D01*
X59777546Y-50734566D01*
X59791792Y-50715362D01*
X59829888Y-50639172D01*
X59830434Y-50634419D01*
X59833509Y-50630756D01*
X59838334Y-50603394D01*
X59838334Y-50412918D01*
X60021190Y-50412918D01*
X60022454Y-50416393D01*
X60023579Y-50432321D01*
X60061675Y-50584702D01*
X60063795Y-50587841D01*
X60067732Y-50601076D01*
X60105827Y-50677266D01*
X60107095Y-50678467D01*
X60120812Y-50698057D01*
X60197002Y-50774248D01*
X60201337Y-50776269D01*
X60203841Y-50780345D01*
X60228273Y-50793575D01*
X60342559Y-50831670D01*
X60344307Y-50831622D01*
X60367857Y-50835775D01*
X60444048Y-50835775D01*
X60445689Y-50835177D01*
X60469346Y-50831670D01*
X60583631Y-50793575D01*
X60587377Y-50790601D01*
X60592142Y-50790185D01*
X60614902Y-50774249D01*
X60633376Y-50755775D01*
X60859286Y-50755775D01*
X60878002Y-50807198D01*
X60925394Y-50834560D01*
X60979286Y-50825057D01*
X61014461Y-50783137D01*
X61019286Y-50755775D01*
X61019286Y-50416727D01*
X61316429Y-50416727D01*
X61316429Y-50755775D01*
X61335145Y-50807198D01*
X61382537Y-50834560D01*
X61436429Y-50825057D01*
X61471604Y-50783137D01*
X61476429Y-50755775D01*
X61476429Y-49955775D01*
X61457713Y-49904352D01*
X61410321Y-49876990D01*
X61356429Y-49886493D01*
X61321254Y-49928413D01*
X61316429Y-49955775D01*
X61316429Y-50256727D01*
X61019286Y-50256727D01*
X61019286Y-49955775D01*
X61000570Y-49904352D01*
X60953178Y-49876990D01*
X60899286Y-49886493D01*
X60864111Y-49928413D01*
X60859286Y-49955775D01*
X60859286Y-50755775D01*
X60633376Y-50755775D01*
X60652998Y-50736152D01*
X60676125Y-50686557D01*
X60661962Y-50633698D01*
X60617135Y-50602310D01*
X60562620Y-50607079D01*
X60539861Y-50623015D01*
X60515118Y-50647757D01*
X60431065Y-50675775D01*
X60380840Y-50675775D01*
X60296785Y-50647757D01*
X60243129Y-50594100D01*
X60214766Y-50537375D01*
X60181190Y-50403070D01*
X60181190Y-50308479D01*
X60214766Y-50174173D01*
X60243128Y-50117450D01*
X60296785Y-50063792D01*
X60380840Y-50035775D01*
X60431065Y-50035775D01*
X60515119Y-50063793D01*
X60539861Y-50088534D01*
X60589457Y-50111661D01*
X60642316Y-50097497D01*
X60673703Y-50052669D01*
X60668933Y-49998155D01*
X60652997Y-49975396D01*
X60614901Y-49937301D01*
X60610566Y-49935279D01*
X60608063Y-49931205D01*
X60583631Y-49917975D01*
X60469346Y-49879880D01*
X60467597Y-49879927D01*
X60444048Y-49875775D01*
X60367857Y-49875775D01*
X60366215Y-49876372D01*
X60342559Y-49879880D01*
X60228273Y-49917975D01*
X60224526Y-49920948D01*
X60219762Y-49921365D01*
X60197003Y-49937301D01*
X60120812Y-50013491D01*
X60120071Y-50015078D01*
X60105827Y-50034283D01*
X60067732Y-50110474D01*
X60067298Y-50114238D01*
X60061675Y-50126848D01*
X60023579Y-50279229D01*
X60023963Y-50282906D01*
X60021190Y-50298632D01*
X60021190Y-50412918D01*
X59838334Y-50412918D01*
X59838334Y-49955775D01*
X59819618Y-49904352D01*
X59772226Y-49876990D01*
X59718334Y-49886493D01*
X59683159Y-49928413D01*
X59678334Y-49955775D01*
X59678334Y-50584508D01*
X59654489Y-50632196D01*
X59634753Y-50651932D01*
X59587068Y-50675775D01*
X59472457Y-50675775D01*
X59424770Y-50651932D01*
X59405034Y-50632195D01*
X59381191Y-50584509D01*
X59381191Y-49955775D01*
X59362475Y-49904352D01*
X59315083Y-49876990D01*
X59261191Y-49886493D01*
X59226016Y-49928413D01*
X59221191Y-49955775D01*
X59221191Y-50603394D01*
X59012225Y-50603394D01*
X59035946Y-50508510D01*
X59035561Y-50504830D01*
X59038334Y-50489108D01*
X59038334Y-50222441D01*
X59037069Y-50218966D01*
X59035946Y-50203039D01*
X58997850Y-50050657D01*
X58993432Y-50044115D01*
X58992744Y-50036251D01*
X58976807Y-50013491D01*
X58900616Y-49937301D01*
X58899033Y-49936562D01*
X58879825Y-49922316D01*
X58803635Y-49884221D01*
X58798883Y-49883674D01*
X58795220Y-49880600D01*
X58767858Y-49875775D01*
X58615477Y-49875775D01*
X58610982Y-49877410D01*
X58606332Y-49876300D01*
X58579700Y-49884221D01*
X58503509Y-49922316D01*
X58502309Y-49923582D01*
X58482718Y-49937301D01*
X58406527Y-50013491D01*
X58403190Y-50020646D01*
X58396802Y-50025282D01*
X58385485Y-50050657D01*
X58347389Y-50203038D01*
X58347773Y-50206715D01*
X58345000Y-50222441D01*
X58345000Y-50489108D01*
X58047857Y-50489108D01*
X58047857Y-50035775D01*
X58196429Y-50035775D01*
X58247852Y-50017059D01*
X58275214Y-49969667D01*
X58265711Y-49915775D01*
X58223791Y-49880600D01*
X58196429Y-49875775D01*
X57739286Y-49875775D01*
X57687863Y-49894491D01*
X57660501Y-49941883D01*
X57546215Y-49941883D01*
X57546215Y-49467775D01*
X58002143Y-49467775D01*
X58009251Y-49487306D01*
X58012861Y-49507775D01*
X58018390Y-49512414D01*
X58020859Y-49519198D01*
X58038860Y-49529591D01*
X58054781Y-49542950D01*
X58065172Y-49544782D01*
X58068251Y-49546560D01*
X58071751Y-49545942D01*
X58082143Y-49547775D01*
X58272619Y-49547775D01*
X58274260Y-49547177D01*
X58297917Y-49543670D01*
X58412203Y-49505575D01*
X58415950Y-49502600D01*
X58420714Y-49502184D01*
X58443474Y-49486248D01*
X58519664Y-49410057D01*
X58520402Y-49408474D01*
X58534649Y-49389266D01*
X58572744Y-49313076D01*
X58573177Y-49309311D01*
X58578801Y-49296702D01*
X58602700Y-49201108D01*
X58764047Y-49201108D01*
X58765311Y-49204583D01*
X58766436Y-49220511D01*
X58804532Y-49372892D01*
X58808950Y-49379433D01*
X58809638Y-49387297D01*
X58825574Y-49410057D01*
X58901764Y-49486248D01*
X58903348Y-49486986D01*
X58922556Y-49501234D01*
X58998747Y-49539329D01*
X59003498Y-49539875D01*
X59007162Y-49542950D01*
X59034524Y-49547775D01*
X59186905Y-49547775D01*
X59191399Y-49546138D01*
X59196051Y-49547250D01*
X59222682Y-49539329D01*
X59298872Y-49501234D01*
X59300071Y-49499967D01*
X59319664Y-49486249D01*
X59338138Y-49467775D01*
X59640238Y-49467775D01*
X59658954Y-49519198D01*
X59706346Y-49546560D01*
X59760238Y-49537057D01*
X59795413Y-49495137D01*
X59800238Y-49467775D01*
X59800238Y-48969019D01*
X60107922Y-49507466D01*
X60113566Y-49512245D01*
X60116097Y-49519198D01*
X60133953Y-49529507D01*
X60149685Y-49542828D01*
X60157082Y-49542860D01*
X60163489Y-49546560D01*
X60183790Y-49542980D01*
X60204408Y-49543072D01*
X60210096Y-49538341D01*
X60217381Y-49537057D01*
X60230632Y-49521264D01*
X60246484Y-49508083D01*
X60247801Y-49500803D01*
X60252556Y-49495137D01*
X60257381Y-49467775D01*
X60257381Y-48838743D01*
X60442426Y-48838743D01*
X60472578Y-48884411D01*
X60525030Y-48900012D01*
X60575239Y-48878249D01*
X60591791Y-48855933D01*
X60667982Y-48703553D01*
X60673699Y-48653883D01*
X60746214Y-48653883D01*
X60755717Y-48707775D01*
X60797637Y-48742950D01*
X60824999Y-48747775D01*
X60973570Y-48747775D01*
X60973570Y-49467775D01*
X60992286Y-49519198D01*
X61039678Y-49546560D01*
X61093570Y-49537057D01*
X61128745Y-49495137D01*
X61133570Y-49467775D01*
X61133570Y-48747775D01*
X61282142Y-48747775D01*
X61333565Y-48729059D01*
X61360927Y-48681667D01*
X61351424Y-48627775D01*
X61309504Y-48592600D01*
X61282142Y-48587775D01*
X60824999Y-48587775D01*
X60773576Y-48606491D01*
X60746214Y-48653883D01*
X60673699Y-48653883D01*
X60674239Y-48649188D01*
X60644087Y-48603521D01*
X60591635Y-48587919D01*
X60541426Y-48609683D01*
X60524874Y-48631998D01*
X60448683Y-48784379D01*
X60442426Y-48838743D01*
X60257381Y-48838743D01*
X60257381Y-48667775D01*
X60238665Y-48616352D01*
X60191273Y-48588990D01*
X60137381Y-48598493D01*
X60102206Y-48640413D01*
X60097381Y-48667775D01*
X60097381Y-49166530D01*
X59789697Y-48628084D01*
X59784052Y-48623304D01*
X59781522Y-48616352D01*
X59763665Y-48606042D01*
X59747934Y-48592722D01*
X59740536Y-48592689D01*
X59734130Y-48588990D01*
X59713828Y-48592569D01*
X59693211Y-48592478D01*
X59687522Y-48597208D01*
X59680238Y-48598493D01*
X59666986Y-48614285D01*
X59651135Y-48627467D01*
X59649817Y-48634746D01*
X59645063Y-48640413D01*
X59640238Y-48667775D01*
X59640238Y-49467775D01*
X59338138Y-49467775D01*
X59395854Y-49410058D01*
X59399190Y-49402902D01*
X59405580Y-49398267D01*
X59416897Y-49372892D01*
X59454993Y-49220510D01*
X59454608Y-49216830D01*
X59457381Y-49201108D01*
X59457381Y-48934441D01*
X59456116Y-48930966D01*
X59454993Y-48915039D01*
X59416897Y-48762657D01*
X59412479Y-48756115D01*
X59411791Y-48748251D01*
X59395854Y-48725491D01*
X59319663Y-48649301D01*
X59318080Y-48648562D01*
X59298872Y-48634316D01*
X59222682Y-48596221D01*
X59217930Y-48595674D01*
X59214267Y-48592600D01*
X59186905Y-48587775D01*
X59034524Y-48587775D01*
X59030029Y-48589410D01*
X59025379Y-48588300D01*
X58998747Y-48596221D01*
X58922556Y-48634316D01*
X58921356Y-48635582D01*
X58901765Y-48649301D01*
X58825574Y-48725491D01*
X58822237Y-48732646D01*
X58815849Y-48737282D01*
X58804532Y-48762657D01*
X58766436Y-48915038D01*
X58766820Y-48918715D01*
X58764047Y-48934441D01*
X58764047Y-49201108D01*
X58602700Y-49201108D01*
X58616897Y-49144321D01*
X58616512Y-49140643D01*
X58619286Y-49124918D01*
X58619286Y-49010632D01*
X58618021Y-49007156D01*
X58616897Y-48991229D01*
X58578801Y-48838848D01*
X58576680Y-48835707D01*
X58572744Y-48822474D01*
X58534649Y-48746283D01*
X58533382Y-48745083D01*
X58519664Y-48725492D01*
X58443474Y-48649301D01*
X58439138Y-48647279D01*
X58436635Y-48643205D01*
X58412203Y-48629975D01*
X58297917Y-48591880D01*
X58296168Y-48591927D01*
X58272619Y-48587775D01*
X58082143Y-48587775D01*
X58062611Y-48594883D01*
X58042143Y-48598493D01*
X58037503Y-48604022D01*
X58030720Y-48606491D01*
X58020326Y-48624492D01*
X58006968Y-48640413D01*
X58005135Y-48650804D01*
X58003358Y-48653883D01*
X58003975Y-48657383D01*
X58002143Y-48667775D01*
X58002143Y-49467775D01*
X57546215Y-49467775D01*
X57546215Y-48473489D01*
X61590715Y-48473489D01*
X61590715Y-52238061D01*
G37*
D12*
X82215476Y-67054819D02*
X82548809Y-68054819D01*
X82548809Y-68054819D02*
X82882142Y-67054819D01*
X83167857Y-67150057D02*
X83215476Y-67102438D01*
X83215476Y-67102438D02*
X83310714Y-67054819D01*
X83310714Y-67054819D02*
X83548809Y-67054819D01*
X83548809Y-67054819D02*
X83644047Y-67102438D01*
X83644047Y-67102438D02*
X83691666Y-67150057D01*
X83691666Y-67150057D02*
X83739285Y-67245295D01*
X83739285Y-67245295D02*
X83739285Y-67340533D01*
X83739285Y-67340533D02*
X83691666Y-67483390D01*
X83691666Y-67483390D02*
X83120238Y-68054819D01*
X83120238Y-68054819D02*
X83739285Y-68054819D01*
X125270476Y-64864819D02*
X125603809Y-65864819D01*
X125603809Y-65864819D02*
X125937142Y-64864819D01*
X126175238Y-64864819D02*
X126794285Y-64864819D01*
X126794285Y-64864819D02*
X126460952Y-65245771D01*
X126460952Y-65245771D02*
X126603809Y-65245771D01*
X126603809Y-65245771D02*
X126699047Y-65293390D01*
X126699047Y-65293390D02*
X126746666Y-65341009D01*
X126746666Y-65341009D02*
X126794285Y-65436247D01*
X126794285Y-65436247D02*
X126794285Y-65674342D01*
X126794285Y-65674342D02*
X126746666Y-65769580D01*
X126746666Y-65769580D02*
X126699047Y-65817200D01*
X126699047Y-65817200D02*
X126603809Y-65864819D01*
X126603809Y-65864819D02*
X126318095Y-65864819D01*
X126318095Y-65864819D02*
X126222857Y-65817200D01*
X126222857Y-65817200D02*
X126175238Y-65769580D01*
X58690476Y-66454819D02*
X59023809Y-67454819D01*
X59023809Y-67454819D02*
X59357142Y-66454819D01*
X60214285Y-67454819D02*
X59642857Y-67454819D01*
X59928571Y-67454819D02*
X59928571Y-66454819D01*
X59928571Y-66454819D02*
X59833333Y-66597676D01*
X59833333Y-66597676D02*
X59738095Y-66692914D01*
X59738095Y-66692914D02*
X59642857Y-66740533D01*
X148770476Y-64864819D02*
X149103809Y-65864819D01*
X149103809Y-65864819D02*
X149437142Y-64864819D01*
X150199047Y-65198152D02*
X150199047Y-65864819D01*
X149960952Y-64817200D02*
X149722857Y-65531485D01*
X149722857Y-65531485D02*
X150341904Y-65531485D01*
D13*
%TO.C,REF\u002A\u002A*%
X144135000Y-59925000D02*
X144335000Y-60175000D01*
X144245000Y-61805000D02*
X144755000Y-61895000D01*
X144455000Y-60170000D02*
X144655000Y-60420000D01*
D14*
X144086573Y-60200740D02*
X145250740Y-59575000D01*
X144595896Y-61961542D01*
X144930594Y-61757813D01*
X144333958Y-62645490D01*
X144115677Y-61597740D01*
X144348511Y-61917886D01*
X144625000Y-60186188D01*
X143504490Y-60782823D01*
X144232094Y-58207104D01*
X144945146Y-58207104D01*
X144086573Y-60200740D01*
G36*
X144086573Y-60200740D02*
G01*
X145250740Y-59575000D01*
X144595896Y-61961542D01*
X144930594Y-61757813D01*
X144333958Y-62645490D01*
X144115677Y-61597740D01*
X144348511Y-61917886D01*
X144625000Y-60186188D01*
X143504490Y-60782823D01*
X144232094Y-58207104D01*
X144945146Y-58207104D01*
X144086573Y-60200740D01*
G37*
D13*
X120660000Y-59875000D02*
X120860000Y-60125000D01*
X120770000Y-61755000D02*
X121280000Y-61845000D01*
X120980000Y-60120000D02*
X121180000Y-60370000D01*
D14*
X120611573Y-60150740D02*
X121775740Y-59525000D01*
X121120896Y-61911542D01*
X121455594Y-61707813D01*
X120858958Y-62595490D01*
X120640677Y-61547740D01*
X120873511Y-61867886D01*
X121150000Y-60136188D01*
X120029490Y-60732823D01*
X120757094Y-58157104D01*
X121470146Y-58157104D01*
X120611573Y-60150740D01*
G36*
X120611573Y-60150740D02*
G01*
X121775740Y-59525000D01*
X121120896Y-61911542D01*
X121455594Y-61707813D01*
X120858958Y-62595490D01*
X120640677Y-61547740D01*
X120873511Y-61867886D01*
X121150000Y-60136188D01*
X120029490Y-60732823D01*
X120757094Y-58157104D01*
X121470146Y-58157104D01*
X120611573Y-60150740D01*
G37*
D13*
X82660000Y-59875000D02*
X82860000Y-60125000D01*
X82770000Y-61755000D02*
X83280000Y-61845000D01*
X82980000Y-60120000D02*
X83180000Y-60370000D01*
D14*
X82611573Y-60150740D02*
X83775740Y-59525000D01*
X83120896Y-61911542D01*
X83455594Y-61707813D01*
X82858958Y-62595490D01*
X82640677Y-61547740D01*
X82873511Y-61867886D01*
X83150000Y-60136188D01*
X82029490Y-60732823D01*
X82757094Y-58157104D01*
X83470146Y-58157104D01*
X82611573Y-60150740D01*
G36*
X82611573Y-60150740D02*
G01*
X83775740Y-59525000D01*
X83120896Y-61911542D01*
X83455594Y-61707813D01*
X82858958Y-62595490D01*
X82640677Y-61547740D01*
X82873511Y-61867886D01*
X83150000Y-60136188D01*
X82029490Y-60732823D01*
X82757094Y-58157104D01*
X83470146Y-58157104D01*
X82611573Y-60150740D01*
G37*
D13*
X58985000Y-59975000D02*
X59185000Y-60225000D01*
X59095000Y-61855000D02*
X59605000Y-61945000D01*
X59305000Y-60220000D02*
X59505000Y-60470000D01*
D14*
X58936573Y-60250740D02*
X60100740Y-59625000D01*
X59445896Y-62011542D01*
X59780594Y-61807813D01*
X59183958Y-62695490D01*
X58965677Y-61647740D01*
X59198511Y-61967886D01*
X59475000Y-60236188D01*
X58354490Y-60832823D01*
X59082094Y-58257104D01*
X59795146Y-58257104D01*
X58936573Y-60250740D01*
G36*
X58936573Y-60250740D02*
G01*
X60100740Y-59625000D01*
X59445896Y-62011542D01*
X59780594Y-61807813D01*
X59183958Y-62695490D01*
X58965677Y-61647740D01*
X59198511Y-61967886D01*
X59475000Y-60236188D01*
X58354490Y-60832823D01*
X59082094Y-58257104D01*
X59795146Y-58257104D01*
X58936573Y-60250740D01*
G37*
%TD*%
M02*
