M48
; DRILL file {KiCad 7.0.11} date Monday, September 28, 2026 at 08:34:31 AM
; FORMAT={-:-/ absolute / inch / decimal}
; #@! TF.CreationDate,2026-09-28T08:34:31-04:00
; #@! TF.GenerationSoftware,Kicad,Pcbnew,7.0.11
; #@! TF.FileFunction,Plated,1,2,PTH
FMAT,2
INCH
; #@! TA.AperFunction,Plated,PTH,ViaDrill
T1C0.0118
; #@! TA.AperFunction,Plated,PTH,ComponentDrill
T2C0.0394
; #@! TA.AperFunction,Plated,PTH,ComponentDrill
T3C0.0433
; #@! TA.AperFunction,Plated,PTH,ComponentDrill
T4C0.0669
; #@! TA.AperFunction,Plated,PTH,ComponentDrill
T5C0.1693
%
G90
G05
T1
X1.876Y-1.564
X1.9498Y-1.8297
X2.0187Y-2.1053
X2.0256Y-2.2805
X2.0443Y-2.4764
X2.1014Y-1.4124
X2.2224Y-1.5305
X2.2559Y-2.6624
X2.2667Y-2.3366
X2.2894Y-2.0
X2.4114Y-1.187
X2.4252Y-2.3396
X2.4301Y-1.9823
X2.6496Y-1.8986
X2.685Y-2.5128
X2.6969Y-1.4961
X2.7234Y-1.6949
X2.8179Y-2.4163
X2.8189Y-2.2402
X2.8839Y-1.6004
X2.9124Y-1.3888
X2.9154Y-1.8553
X2.9193Y-2.5226
X2.9862Y-2.6722
X2.998Y-2.4675
X3.0906Y-1.6929
X3.1486Y-1.498
X3.1811Y-1.9961
X3.186Y-2.3465
X3.2009Y-1.0669
X3.2972Y-1.0827
X3.3593Y-2.3396
X3.372Y-2.0
X3.4154Y-1.0984
X3.4528Y-1.627
X3.4843Y-1.1142
X3.622Y-1.1299
X3.7106Y-1.1457
X3.7392Y-1.8406
X3.7638Y-2.0059
X3.7687Y-2.4262
X3.7707Y-2.2303
X3.8091Y-1.1614
X3.8376Y-1.622
X3.8642Y-1.6555
X3.8976Y-1.1772
X3.9055Y-1.6781
X3.937Y-1.8602
X4.0009Y-1.2008
X4.1043Y-1.1417
X4.1535Y-1.7126
X4.1978Y-1.6969
X4.2028Y-1.0984
X4.2283Y-1.689
X4.2421Y-1.6575
X4.311Y-1.0728
X4.314Y-2.5128
X4.3484Y-1.8455
X4.3701Y-1.6437
X4.5009Y-1.2008
X4.5837Y-1.7156
X4.6063Y-1.1772
X4.6358Y-1.6339
X4.6555Y-2.6644
X4.6634Y-1.9882
X4.6713Y-2.3504
X4.7047Y-1.1614
X4.7954Y-1.1457
X4.8671Y-1.9902
X4.8711Y-2.3435
X4.874Y-1.6909
X4.9213Y-1.1299
X4.9606Y-1.1142
X4.9726Y-1.6636
X5.0433Y-1.877
X5.0699Y-1.7559
X5.0906Y-2.5207
X5.1004Y-1.8346
X5.1063Y-1.7175
X5.1201Y-1.7382
X5.1325Y-1.6471
X5.1561Y-1.6181
X5.187Y-1.624
X5.1969Y-1.0827
X5.2067Y-2.2835
X5.2165Y-2.4803
X5.2264Y-1.5709
X5.2461Y-1.5453
X5.2638Y-1.6535
X5.2657Y-1.5157
X5.2697Y-2.0531
X5.2815Y-2.1093
X5.3051Y-1.5
X5.314Y-2.0955
X5.3199Y-2.4911
X5.3396Y-1.8593
X5.3445Y-1.4862
X5.3839Y-1.4764
X5.4193Y-1.5404
X5.5207Y-1.6565
X5.5659Y-1.4734
X5.5699Y-2.6555
X5.5955Y-2.0049
X5.6181Y-2.3533
X5.6969Y-1.5226
X5.7717Y-2.3533
X5.7825Y-2.0128
X5.8179Y-1.6319
X5.9331Y-1.628
X5.9646Y-1.561
X5.9813Y-1.8593
X5.9892Y-2.5906
X5.998Y-1.561
X6.0298Y-1.561
X6.0531Y-1.5945
X6.061Y-1.7008
X6.065Y-1.8041
X6.1437Y-1.5974
X6.2116Y-1.7195
T2
X3.1009Y-1.2681
X3.1009Y-1.3681
X3.2009Y-1.2681
X3.2009Y-1.3681
X3.3009Y-1.2681
X3.3009Y-1.3681
X3.4009Y-1.2681
X3.4009Y-1.3681
X3.5009Y-1.2681
X3.5009Y-1.3681
X3.6009Y-1.2681
X3.6009Y-1.3681
X3.7009Y-1.2681
X3.7009Y-1.3681
X3.8009Y-1.2681
X3.8009Y-1.3681
X3.9009Y-1.2681
X3.9009Y-1.3681
X4.0009Y-1.2681
X4.0009Y-1.3681
X4.1009Y-1.2681
X4.1009Y-1.3681
X4.2009Y-1.2681
X4.2009Y-1.3681
X4.3009Y-1.2681
X4.3009Y-1.3681
X4.4009Y-1.2681
X4.4009Y-1.3681
X4.5009Y-1.2681
X4.5009Y-1.3681
X4.6009Y-1.2681
X4.6009Y-1.3681
X4.7009Y-1.2681
X4.7009Y-1.3681
X4.8009Y-1.2681
X4.8009Y-1.3681
X4.9009Y-1.2681
X4.9009Y-1.3681
X5.0009Y-1.2681
X5.0009Y-1.3681
T3
X2.1161Y-1.998
X2.1161Y-2.1752
X2.1161Y-2.3524
X2.185Y-1.8602
X2.185Y-2.4902
X2.3425Y-1.8209
X2.3425Y-2.5295
X2.5Y-1.8602
X2.5Y-2.4902
X2.5689Y-1.998
X2.5689Y-2.1752
X2.5689Y-2.3524
X3.0413Y-1.998
X3.0413Y-2.1752
X3.0413Y-2.3524
X3.1102Y-1.8602
X3.1102Y-2.4902
X3.2677Y-1.8209
X3.2677Y-2.5295
X3.4252Y-1.8602
X3.4252Y-2.4902
X3.4941Y-1.998
X3.4941Y-2.1752
X3.4941Y-2.3524
X4.5374Y-1.998
X4.5374Y-2.1752
X4.5374Y-2.3524
X4.6063Y-1.8602
X4.6063Y-2.4902
X4.7638Y-1.8209
X4.7638Y-2.5295
X4.9213Y-1.8602
X4.9213Y-2.4902
X4.9902Y-1.998
X4.9902Y-2.1752
X4.9902Y-2.3524
X5.4626Y-1.998
X5.4626Y-2.1752
X5.4626Y-2.3524
X5.5315Y-1.8602
X5.5315Y-2.4902
X5.689Y-1.8209
X5.689Y-2.5295
X5.8465Y-1.8602
X5.8465Y-2.4902
X5.9154Y-1.998
X5.9154Y-2.1752
X5.9154Y-2.3524
T4
X3.8844Y-3.0325
X4.0404Y-3.0325
X4.1963Y-3.0325
T5
X1.8701Y-1.2402
X1.8701Y-3.1004
X6.1614Y-1.2402
X6.1614Y-3.1004
M30
