%TF.GenerationSoftware,KiCad,Pcbnew,7.0.11*%
%TF.CreationDate,2026-09-28T08:34:31-04:00*%
%TF.ProjectId,clock_in12_board,636c6f63-6b5f-4696-9e31-325f626f6172,rev?*%
%TF.SameCoordinates,Original*%
%TF.FileFunction,Drillmap*%
%TF.FilePolarity,Positive*%
%FSLAX45Y45*%
G04 Gerber Fmt 4.5, Leading zero omitted, Abs format (unit mm)*
G04 Created by KiCad (PCBNEW 7.0.11) date 2026-09-28 08:34:31*
%MOMM*%
%LPD*%
G01*
G04 APERTURE LIST*
%ADD10C,0.050000*%
%ADD11C,0.120000*%
%ADD12C,0.200000*%
G04 APERTURE END LIST*
D10*
X4200000Y-2600000D02*
X16200000Y-2600000D01*
X16200000Y-8450000D01*
X4200000Y-8450000D01*
X4200000Y-2600000D01*
D11*
X8530007Y-5525000D02*
G75*
G03*
X8069993Y-5525000I-230007J0D01*
G01*
X8069993Y-5525000D02*
G75*
G03*
X8530007Y-5525000I230007J0D01*
G01*
X12330007Y-5525000D02*
G75*
G03*
X11869993Y-5525000I-230007J0D01*
G01*
X11869993Y-5525000D02*
G75*
G03*
X12330007Y-5525000I230007J0D01*
G01*
X6180007Y-5525000D02*
G75*
G03*
X5719993Y-5525000I-230007J0D01*
G01*
X5719993Y-5525000D02*
G75*
G03*
X6180007Y-5525000I230007J0D01*
G01*
X14680007Y-5525000D02*
G75*
G03*
X14219993Y-5525000I-230007J0D01*
G01*
X14219993Y-5525000D02*
G75*
G03*
X14680007Y-5525000I230007J0D01*
G01*
D12*
X4458277Y-8763984D02*
X4458277Y-8563984D01*
X4458277Y-8563984D02*
X4505896Y-8563984D01*
X4505896Y-8563984D02*
X4534467Y-8573508D01*
X4534467Y-8573508D02*
X4553515Y-8592555D01*
X4553515Y-8592555D02*
X4563039Y-8611603D01*
X4563039Y-8611603D02*
X4572563Y-8649698D01*
X4572563Y-8649698D02*
X4572563Y-8678270D01*
X4572563Y-8678270D02*
X4563039Y-8716365D01*
X4563039Y-8716365D02*
X4553515Y-8735412D01*
X4553515Y-8735412D02*
X4534467Y-8754460D01*
X4534467Y-8754460D02*
X4505896Y-8763984D01*
X4505896Y-8763984D02*
X4458277Y-8763984D01*
X4658277Y-8763984D02*
X4658277Y-8630650D01*
X4658277Y-8668746D02*
X4667801Y-8649698D01*
X4667801Y-8649698D02*
X4677324Y-8640174D01*
X4677324Y-8640174D02*
X4696372Y-8630650D01*
X4696372Y-8630650D02*
X4715420Y-8630650D01*
X4782086Y-8763984D02*
X4782086Y-8630650D01*
X4782086Y-8563984D02*
X4772563Y-8573508D01*
X4772563Y-8573508D02*
X4782086Y-8583031D01*
X4782086Y-8583031D02*
X4791610Y-8573508D01*
X4791610Y-8573508D02*
X4782086Y-8563984D01*
X4782086Y-8563984D02*
X4782086Y-8583031D01*
X4905896Y-8763984D02*
X4886848Y-8754460D01*
X4886848Y-8754460D02*
X4877324Y-8735412D01*
X4877324Y-8735412D02*
X4877324Y-8563984D01*
X5010658Y-8763984D02*
X4991610Y-8754460D01*
X4991610Y-8754460D02*
X4982086Y-8735412D01*
X4982086Y-8735412D02*
X4982086Y-8563984D01*
X5239229Y-8763984D02*
X5239229Y-8563984D01*
X5239229Y-8563984D02*
X5305896Y-8706841D01*
X5305896Y-8706841D02*
X5372563Y-8563984D01*
X5372563Y-8563984D02*
X5372563Y-8763984D01*
X5553515Y-8763984D02*
X5553515Y-8659222D01*
X5553515Y-8659222D02*
X5543991Y-8640174D01*
X5543991Y-8640174D02*
X5524944Y-8630650D01*
X5524944Y-8630650D02*
X5486848Y-8630650D01*
X5486848Y-8630650D02*
X5467801Y-8640174D01*
X5553515Y-8754460D02*
X5534467Y-8763984D01*
X5534467Y-8763984D02*
X5486848Y-8763984D01*
X5486848Y-8763984D02*
X5467801Y-8754460D01*
X5467801Y-8754460D02*
X5458277Y-8735412D01*
X5458277Y-8735412D02*
X5458277Y-8716365D01*
X5458277Y-8716365D02*
X5467801Y-8697317D01*
X5467801Y-8697317D02*
X5486848Y-8687793D01*
X5486848Y-8687793D02*
X5534467Y-8687793D01*
X5534467Y-8687793D02*
X5553515Y-8678270D01*
X5648753Y-8630650D02*
X5648753Y-8830650D01*
X5648753Y-8640174D02*
X5667801Y-8630650D01*
X5667801Y-8630650D02*
X5705896Y-8630650D01*
X5705896Y-8630650D02*
X5724943Y-8640174D01*
X5724943Y-8640174D02*
X5734467Y-8649698D01*
X5734467Y-8649698D02*
X5743991Y-8668746D01*
X5743991Y-8668746D02*
X5743991Y-8725889D01*
X5743991Y-8725889D02*
X5734467Y-8744936D01*
X5734467Y-8744936D02*
X5724943Y-8754460D01*
X5724943Y-8754460D02*
X5705896Y-8763984D01*
X5705896Y-8763984D02*
X5667801Y-8763984D01*
X5667801Y-8763984D02*
X5648753Y-8754460D01*
X5829705Y-8744936D02*
X5839229Y-8754460D01*
X5839229Y-8754460D02*
X5829705Y-8763984D01*
X5829705Y-8763984D02*
X5820182Y-8754460D01*
X5820182Y-8754460D02*
X5829705Y-8744936D01*
X5829705Y-8744936D02*
X5829705Y-8763984D01*
X5829705Y-8640174D02*
X5839229Y-8649698D01*
X5839229Y-8649698D02*
X5829705Y-8659222D01*
X5829705Y-8659222D02*
X5820182Y-8649698D01*
X5820182Y-8649698D02*
X5829705Y-8640174D01*
X5829705Y-8640174D02*
X5829705Y-8659222D01*
M02*
