%TF.GenerationSoftware,KiCad,Pcbnew,7.0.11*%
%TF.CreationDate,2026-09-28T08:34:31-04:00*%
%TF.ProjectId,clock_in12_board,636c6f63-6b5f-4696-9e31-325f626f6172,rev?*%
%TF.SameCoordinates,Original*%
%TF.FileFunction,Drillmap*%
%TF.FilePolarity,Positive*%
%FSLAX45Y45*%
G04 Gerber Fmt 4.5, Leading zero omitted, Abs format (unit mm)*
G04 Created by KiCad (PCBNEW 7.0.11) date 2026-09-28 08:34:31*
%MOMM*%
%LPD*%
G01*
G04 APERTURE LIST*
%ADD10C,0.050000*%
%ADD11C,0.120000*%
%ADD12C,0.200000*%
%ADD13C,0.100000*%
%ADD14C,0.110000*%
%ADD15C,0.170000*%
%ADD16C,0.430000*%
G04 APERTURE END LIST*
D10*
X4200000Y-2600000D02*
X16200000Y-2600000D01*
X16200000Y-8450000D01*
X4200000Y-8450000D01*
X4200000Y-2600000D01*
D11*
X8530007Y-5525000D02*
G75*
G03*
X8069993Y-5525000I-230007J0D01*
G01*
X8069993Y-5525000D02*
G75*
G03*
X8530007Y-5525000I230007J0D01*
G01*
X12330007Y-5525000D02*
G75*
G03*
X11869993Y-5525000I-230007J0D01*
G01*
X11869993Y-5525000D02*
G75*
G03*
X12330007Y-5525000I230007J0D01*
G01*
X6180007Y-5525000D02*
G75*
G03*
X5719993Y-5525000I-230007J0D01*
G01*
X5719993Y-5525000D02*
G75*
G03*
X6180007Y-5525000I230007J0D01*
G01*
X14680007Y-5525000D02*
G75*
G03*
X14219993Y-5525000I-230007J0D01*
G01*
X14219993Y-5525000D02*
G75*
G03*
X14680007Y-5525000I230007J0D01*
G01*
D12*
D13*
X4750000Y-3957500D02*
X4780000Y-3987500D01*
X4780000Y-3957500D02*
X4750000Y-3987500D01*
X4937500Y-4632500D02*
X4967500Y-4662500D01*
X4967500Y-4632500D02*
X4937500Y-4662500D01*
X5112500Y-5332500D02*
X5142500Y-5362500D01*
X5142500Y-5332500D02*
X5112500Y-5362500D01*
X5130000Y-5777500D02*
X5160000Y-5807500D01*
X5160000Y-5777500D02*
X5130000Y-5807500D01*
X5177500Y-6275000D02*
X5207500Y-6305000D01*
X5207500Y-6275000D02*
X5177500Y-6305000D01*
X5322500Y-3572500D02*
X5352500Y-3602500D01*
X5352500Y-3572500D02*
X5322500Y-3602500D01*
X5630000Y-3872500D02*
X5660000Y-3902500D01*
X5660000Y-3872500D02*
X5630000Y-3902500D01*
X5715000Y-6747500D02*
X5745000Y-6777500D01*
X5745000Y-6747500D02*
X5715000Y-6777500D01*
X5742500Y-5920000D02*
X5772500Y-5950000D01*
X5772500Y-5920000D02*
X5742500Y-5950000D01*
X5800000Y-5065000D02*
X5830000Y-5095000D01*
X5830000Y-5065000D02*
X5800000Y-5095000D01*
X6110000Y-3000000D02*
X6140000Y-3030000D01*
X6140000Y-3000000D02*
X6110000Y-3030000D01*
X6145000Y-5927500D02*
X6175000Y-5957500D01*
X6175000Y-5927500D02*
X6145000Y-5957500D01*
X6157500Y-5020000D02*
X6187500Y-5050000D01*
X6187500Y-5020000D02*
X6157500Y-5050000D01*
X6715000Y-4807500D02*
X6745000Y-4837500D01*
X6745000Y-4807500D02*
X6715000Y-4837500D01*
X6805000Y-6367500D02*
X6835000Y-6397500D01*
X6835000Y-6367500D02*
X6805000Y-6397500D01*
X6835000Y-3785000D02*
X6865000Y-3815000D01*
X6865000Y-3785000D02*
X6835000Y-3815000D01*
X6902500Y-4290000D02*
X6932500Y-4320000D01*
X6932500Y-4290000D02*
X6902500Y-4320000D01*
X7142500Y-6122500D02*
X7172500Y-6152500D01*
X7172500Y-6122500D02*
X7142500Y-6152500D01*
X7145000Y-5675000D02*
X7175000Y-5705000D01*
X7175000Y-5675000D02*
X7145000Y-5705000D01*
X7310000Y-4050000D02*
X7340000Y-4080000D01*
X7340000Y-4050000D02*
X7310000Y-4080000D01*
X7382500Y-3512500D02*
X7412500Y-3542500D01*
X7412500Y-3512500D02*
X7382500Y-3542500D01*
X7390000Y-4697500D02*
X7420000Y-4727500D01*
X7420000Y-4697500D02*
X7390000Y-4727500D01*
X7400000Y-6392500D02*
X7430000Y-6422500D01*
X7430000Y-6392500D02*
X7400000Y-6422500D01*
X7570000Y-6772500D02*
X7600000Y-6802500D01*
X7600000Y-6772500D02*
X7570000Y-6802500D01*
X7600000Y-6252500D02*
X7630000Y-6282500D01*
X7630000Y-6252500D02*
X7600000Y-6282500D01*
X7835000Y-4285000D02*
X7865000Y-4315000D01*
X7865000Y-4285000D02*
X7835000Y-4315000D01*
X7982500Y-3790000D02*
X8012500Y-3820000D01*
X8012500Y-3790000D02*
X7982500Y-3820000D01*
X8065000Y-5055000D02*
X8095000Y-5085000D01*
X8095000Y-5055000D02*
X8065000Y-5085000D01*
X8077500Y-5945000D02*
X8107500Y-5975000D01*
X8107500Y-5945000D02*
X8077500Y-5975000D01*
X8115250Y-2695000D02*
X8145250Y-2725000D01*
X8145250Y-2695000D02*
X8115250Y-2725000D01*
X8360000Y-2735000D02*
X8390000Y-2765000D01*
X8390000Y-2735000D02*
X8360000Y-2765000D01*
X8517500Y-5927500D02*
X8547500Y-5957500D01*
X8547500Y-5927500D02*
X8517500Y-5957500D01*
X8550000Y-5065000D02*
X8580000Y-5095000D01*
X8580000Y-5065000D02*
X8550000Y-5095000D01*
X8660000Y-2775000D02*
X8690000Y-2805000D01*
X8690000Y-2775000D02*
X8660000Y-2805000D01*
X8755000Y-4117500D02*
X8785000Y-4147500D01*
X8785000Y-4117500D02*
X8755000Y-4147500D01*
X8835000Y-2815000D02*
X8865000Y-2845000D01*
X8865000Y-2815000D02*
X8835000Y-2845000D01*
X9185000Y-2855000D02*
X9215000Y-2885000D01*
X9215000Y-2855000D02*
X9185000Y-2885000D01*
X9410000Y-2895000D02*
X9440000Y-2925000D01*
X9440000Y-2895000D02*
X9410000Y-2925000D01*
X9482500Y-4660000D02*
X9512500Y-4690000D01*
X9512500Y-4660000D02*
X9482500Y-4690000D01*
X9545000Y-5080000D02*
X9575000Y-5110000D01*
X9575000Y-5080000D02*
X9545000Y-5110000D01*
X9557500Y-6147500D02*
X9587500Y-6177500D01*
X9587500Y-6147500D02*
X9557500Y-6177500D01*
X9562500Y-5650000D02*
X9592500Y-5680000D01*
X9592500Y-5650000D02*
X9562500Y-5680000D01*
X9660000Y-2935000D02*
X9690000Y-2965000D01*
X9690000Y-2935000D02*
X9660000Y-2965000D01*
X9732500Y-4105000D02*
X9762500Y-4135000D01*
X9762500Y-4105000D02*
X9732500Y-4135000D01*
X9800000Y-4190000D02*
X9830000Y-4220000D01*
X9830000Y-4190000D02*
X9800000Y-4220000D01*
X9885000Y-2975000D02*
X9915000Y-3005000D01*
X9915000Y-2975000D02*
X9885000Y-3005000D01*
X9905000Y-4247500D02*
X9935000Y-4277500D01*
X9935000Y-4247500D02*
X9905000Y-4277500D01*
X9985000Y-4710000D02*
X10015000Y-4740000D01*
X10015000Y-4710000D02*
X9985000Y-4740000D01*
X10147250Y-3035000D02*
X10177250Y-3065000D01*
X10177250Y-3035000D02*
X10147250Y-3065000D01*
X10410000Y-2885000D02*
X10440000Y-2915000D01*
X10440000Y-2885000D02*
X10410000Y-2915000D01*
X10535000Y-4335000D02*
X10565000Y-4365000D01*
X10565000Y-4335000D02*
X10535000Y-4365000D01*
X10647388Y-4295000D02*
X10677388Y-4325000D01*
X10677388Y-4295000D02*
X10647388Y-4325000D01*
X10660000Y-2775000D02*
X10690000Y-2805000D01*
X10690000Y-2775000D02*
X10660000Y-2805000D01*
X10725000Y-4275000D02*
X10755000Y-4305000D01*
X10755000Y-4275000D02*
X10725000Y-4305000D01*
X10760000Y-4195000D02*
X10790000Y-4225000D01*
X10790000Y-4195000D02*
X10760000Y-4225000D01*
X10935000Y-2710000D02*
X10965000Y-2740000D01*
X10965000Y-2710000D02*
X10935000Y-2740000D01*
X10942500Y-6367500D02*
X10972500Y-6397500D01*
X10972500Y-6367500D02*
X10942500Y-6397500D01*
X11030000Y-4672500D02*
X11060000Y-4702500D01*
X11060000Y-4672500D02*
X11030000Y-4702500D01*
X11085000Y-4160000D02*
X11115000Y-4190000D01*
X11115000Y-4160000D02*
X11085000Y-4190000D01*
X11417250Y-3035000D02*
X11447250Y-3065000D01*
X11447250Y-3035000D02*
X11417250Y-3065000D01*
X11627500Y-4342500D02*
X11657500Y-4372500D01*
X11657500Y-4342500D02*
X11627500Y-4372500D01*
X11685000Y-2975000D02*
X11715000Y-3005000D01*
X11715000Y-2975000D02*
X11685000Y-3005000D01*
X11760000Y-4135000D02*
X11790000Y-4165000D01*
X11790000Y-4135000D02*
X11760000Y-4165000D01*
X11810000Y-6752500D02*
X11840000Y-6782500D01*
X11840000Y-6752500D02*
X11810000Y-6782500D01*
X11830000Y-5035000D02*
X11860000Y-5065000D01*
X11860000Y-5035000D02*
X11830000Y-5065000D01*
X11850000Y-5955000D02*
X11880000Y-5985000D01*
X11880000Y-5955000D02*
X11850000Y-5985000D01*
X11935000Y-2935000D02*
X11965000Y-2965000D01*
X11965000Y-2935000D02*
X11935000Y-2965000D01*
X12165255Y-2895000D02*
X12195255Y-2925000D01*
X12195255Y-2895000D02*
X12165255Y-2925000D01*
X12347500Y-5040000D02*
X12377500Y-5070000D01*
X12377500Y-5040000D02*
X12347500Y-5070000D01*
X12357500Y-5937500D02*
X12387500Y-5967500D01*
X12387500Y-5937500D02*
X12357500Y-5967500D01*
X12365000Y-4280000D02*
X12395000Y-4310000D01*
X12395000Y-4280000D02*
X12365000Y-4310000D01*
X12485000Y-2855000D02*
X12515000Y-2885000D01*
X12515000Y-2855000D02*
X12485000Y-2885000D01*
X12585000Y-2815000D02*
X12615000Y-2845000D01*
X12615000Y-2815000D02*
X12585000Y-2845000D01*
X12615365Y-4210512D02*
X12645365Y-4240512D01*
X12645365Y-4210512D02*
X12615365Y-4240512D01*
X12795000Y-4752500D02*
X12825000Y-4782500D01*
X12825000Y-4752500D02*
X12795000Y-4782500D01*
X12862500Y-4445000D02*
X12892500Y-4475000D01*
X12892500Y-4445000D02*
X12862500Y-4475000D01*
X12915000Y-6387500D02*
X12945000Y-6417500D01*
X12945000Y-6387500D02*
X12915000Y-6417500D01*
X12940000Y-4645000D02*
X12970000Y-4675000D01*
X12970000Y-4645000D02*
X12940000Y-4675000D01*
X12955000Y-4347500D02*
X12985000Y-4377500D01*
X12985000Y-4347500D02*
X12955000Y-4377500D01*
X12990000Y-4400000D02*
X13020000Y-4430000D01*
X13020000Y-4400000D02*
X12990000Y-4430000D01*
X13021424Y-4168513D02*
X13051424Y-4198513D01*
X13051424Y-4168513D02*
X13021424Y-4198513D01*
X13081424Y-4094973D02*
X13111424Y-4124973D01*
X13111424Y-4094973D02*
X13081424Y-4124973D01*
X13160000Y-4110000D02*
X13190000Y-4140000D01*
X13190000Y-4110000D02*
X13160000Y-4140000D01*
X13185000Y-2735000D02*
X13215000Y-2765000D01*
X13215000Y-2735000D02*
X13185000Y-2765000D01*
X13210000Y-5785000D02*
X13240000Y-5815000D01*
X13240000Y-5785000D02*
X13210000Y-5815000D01*
X13235000Y-6285000D02*
X13265000Y-6315000D01*
X13265000Y-6285000D02*
X13235000Y-6315000D01*
X13260000Y-3975000D02*
X13290000Y-4005000D01*
X13290000Y-3975000D02*
X13260000Y-4005000D01*
X13310000Y-3910000D02*
X13340000Y-3940000D01*
X13340000Y-3910000D02*
X13310000Y-3940000D01*
X13355000Y-4185000D02*
X13385000Y-4215000D01*
X13385000Y-4185000D02*
X13355000Y-4215000D01*
X13360000Y-3835000D02*
X13390000Y-3865000D01*
X13390000Y-3835000D02*
X13360000Y-3865000D01*
X13370000Y-5200000D02*
X13400000Y-5230000D01*
X13400000Y-5200000D02*
X13370000Y-5230000D01*
X13400000Y-5342500D02*
X13430000Y-5372500D01*
X13430000Y-5342500D02*
X13400000Y-5372500D01*
X13460000Y-3795000D02*
X13490000Y-3825000D01*
X13490000Y-3795000D02*
X13460000Y-3825000D01*
X13482500Y-5307500D02*
X13512500Y-5337500D01*
X13512500Y-5307500D02*
X13482500Y-5337500D01*
X13497500Y-6312500D02*
X13527500Y-6342500D01*
X13527500Y-6312500D02*
X13497500Y-6342500D01*
X13547500Y-4707500D02*
X13577500Y-4737500D01*
X13577500Y-4707500D02*
X13547500Y-4737500D01*
X13560000Y-3760000D02*
X13590000Y-3790000D01*
X13590000Y-3760000D02*
X13560000Y-3790000D01*
X13660000Y-3735000D02*
X13690000Y-3765000D01*
X13690000Y-3735000D02*
X13660000Y-3765000D01*
X13750000Y-3897500D02*
X13780000Y-3927500D01*
X13780000Y-3897500D02*
X13750000Y-3927500D01*
X14007500Y-4192500D02*
X14037500Y-4222500D01*
X14037500Y-4192500D02*
X14007500Y-4222500D01*
X14122500Y-3727500D02*
X14152500Y-3757500D01*
X14152500Y-3727500D02*
X14122500Y-3757500D01*
X14132500Y-6730000D02*
X14162500Y-6760000D01*
X14162500Y-6730000D02*
X14132500Y-6760000D01*
X14197500Y-5077500D02*
X14227500Y-5107500D01*
X14227500Y-5077500D02*
X14197500Y-5107500D01*
X14255000Y-5962500D02*
X14285000Y-5992500D01*
X14285000Y-5962500D02*
X14255000Y-5992500D01*
X14455000Y-3852500D02*
X14485000Y-3882500D01*
X14485000Y-3852500D02*
X14455000Y-3882500D01*
X14645000Y-5962500D02*
X14675000Y-5992500D01*
X14675000Y-5962500D02*
X14645000Y-5992500D01*
X14672500Y-5097500D02*
X14702500Y-5127500D01*
X14702500Y-5097500D02*
X14672500Y-5127500D01*
X14762500Y-4130000D02*
X14792500Y-4160000D01*
X14792500Y-4130000D02*
X14762500Y-4160000D01*
X15055000Y-4120000D02*
X15085000Y-4150000D01*
X15085000Y-4120000D02*
X15055000Y-4150000D01*
X15135000Y-3950000D02*
X15165000Y-3980000D01*
X15165000Y-3950000D02*
X15135000Y-3980000D01*
X15177500Y-4707500D02*
X15207500Y-4737500D01*
X15207500Y-4707500D02*
X15177500Y-4737500D01*
X15197500Y-6565000D02*
X15227500Y-6595000D01*
X15227500Y-6565000D02*
X15197500Y-6595000D01*
X15220000Y-3950000D02*
X15250000Y-3980000D01*
X15250000Y-3950000D02*
X15220000Y-3980000D01*
X15300816Y-3950000D02*
X15330816Y-3980000D01*
X15330816Y-3950000D02*
X15300816Y-3980000D01*
X15360000Y-4035000D02*
X15390000Y-4065000D01*
X15390000Y-4035000D02*
X15360000Y-4065000D01*
X15380000Y-4305000D02*
X15410000Y-4335000D01*
X15410000Y-4305000D02*
X15380000Y-4335000D01*
X15390000Y-4567500D02*
X15420000Y-4597500D01*
X15420000Y-4567500D02*
X15390000Y-4597500D01*
X15590000Y-4042500D02*
X15620000Y-4072500D01*
X15620000Y-4042500D02*
X15590000Y-4072500D01*
X15762500Y-4352500D02*
X15792500Y-4382500D01*
X15792500Y-4352500D02*
X15762500Y-4382500D01*
X7926250Y-3221000D02*
G75*
G03*
X7826250Y-3221000I-50000J0D01*
G01*
X7826250Y-3221000D02*
G75*
G03*
X7926250Y-3221000I50000J0D01*
G01*
X7926250Y-3475000D02*
G75*
G03*
X7826250Y-3475000I-50000J0D01*
G01*
X7826250Y-3475000D02*
G75*
G03*
X7926250Y-3475000I50000J0D01*
G01*
X8180250Y-3221000D02*
G75*
G03*
X8080250Y-3221000I-50000J0D01*
G01*
X8080250Y-3221000D02*
G75*
G03*
X8180250Y-3221000I50000J0D01*
G01*
X8180250Y-3475000D02*
G75*
G03*
X8080250Y-3475000I-50000J0D01*
G01*
X8080250Y-3475000D02*
G75*
G03*
X8180250Y-3475000I50000J0D01*
G01*
X8434250Y-3221000D02*
G75*
G03*
X8334250Y-3221000I-50000J0D01*
G01*
X8334250Y-3221000D02*
G75*
G03*
X8434250Y-3221000I50000J0D01*
G01*
X8434250Y-3475000D02*
G75*
G03*
X8334250Y-3475000I-50000J0D01*
G01*
X8334250Y-3475000D02*
G75*
G03*
X8434250Y-3475000I50000J0D01*
G01*
X8688250Y-3221000D02*
G75*
G03*
X8588250Y-3221000I-50000J0D01*
G01*
X8588250Y-3221000D02*
G75*
G03*
X8688250Y-3221000I50000J0D01*
G01*
X8688250Y-3475000D02*
G75*
G03*
X8588250Y-3475000I-50000J0D01*
G01*
X8588250Y-3475000D02*
G75*
G03*
X8688250Y-3475000I50000J0D01*
G01*
X8942250Y-3221000D02*
G75*
G03*
X8842250Y-3221000I-50000J0D01*
G01*
X8842250Y-3221000D02*
G75*
G03*
X8942250Y-3221000I50000J0D01*
G01*
X8942250Y-3475000D02*
G75*
G03*
X8842250Y-3475000I-50000J0D01*
G01*
X8842250Y-3475000D02*
G75*
G03*
X8942250Y-3475000I50000J0D01*
G01*
X9196250Y-3221000D02*
G75*
G03*
X9096250Y-3221000I-50000J0D01*
G01*
X9096250Y-3221000D02*
G75*
G03*
X9196250Y-3221000I50000J0D01*
G01*
X9196250Y-3475000D02*
G75*
G03*
X9096250Y-3475000I-50000J0D01*
G01*
X9096250Y-3475000D02*
G75*
G03*
X9196250Y-3475000I50000J0D01*
G01*
X9450250Y-3221000D02*
G75*
G03*
X9350250Y-3221000I-50000J0D01*
G01*
X9350250Y-3221000D02*
G75*
G03*
X9450250Y-3221000I50000J0D01*
G01*
X9450250Y-3475000D02*
G75*
G03*
X9350250Y-3475000I-50000J0D01*
G01*
X9350250Y-3475000D02*
G75*
G03*
X9450250Y-3475000I50000J0D01*
G01*
X9704250Y-3221000D02*
G75*
G03*
X9604250Y-3221000I-50000J0D01*
G01*
X9604250Y-3221000D02*
G75*
G03*
X9704250Y-3221000I50000J0D01*
G01*
X9704250Y-3475000D02*
G75*
G03*
X9604250Y-3475000I-50000J0D01*
G01*
X9604250Y-3475000D02*
G75*
G03*
X9704250Y-3475000I50000J0D01*
G01*
X9958250Y-3221000D02*
G75*
G03*
X9858250Y-3221000I-50000J0D01*
G01*
X9858250Y-3221000D02*
G75*
G03*
X9958250Y-3221000I50000J0D01*
G01*
X9958250Y-3475000D02*
G75*
G03*
X9858250Y-3475000I-50000J0D01*
G01*
X9858250Y-3475000D02*
G75*
G03*
X9958250Y-3475000I50000J0D01*
G01*
X10212250Y-3221000D02*
G75*
G03*
X10112250Y-3221000I-50000J0D01*
G01*
X10112250Y-3221000D02*
G75*
G03*
X10212250Y-3221000I50000J0D01*
G01*
X10212250Y-3475000D02*
G75*
G03*
X10112250Y-3475000I-50000J0D01*
G01*
X10112250Y-3475000D02*
G75*
G03*
X10212250Y-3475000I50000J0D01*
G01*
X10466250Y-3221000D02*
G75*
G03*
X10366250Y-3221000I-50000J0D01*
G01*
X10366250Y-3221000D02*
G75*
G03*
X10466250Y-3221000I50000J0D01*
G01*
X10466250Y-3475000D02*
G75*
G03*
X10366250Y-3475000I-50000J0D01*
G01*
X10366250Y-3475000D02*
G75*
G03*
X10466250Y-3475000I50000J0D01*
G01*
X10720250Y-3221000D02*
G75*
G03*
X10620250Y-3221000I-50000J0D01*
G01*
X10620250Y-3221000D02*
G75*
G03*
X10720250Y-3221000I50000J0D01*
G01*
X10720250Y-3475000D02*
G75*
G03*
X10620250Y-3475000I-50000J0D01*
G01*
X10620250Y-3475000D02*
G75*
G03*
X10720250Y-3475000I50000J0D01*
G01*
X10974250Y-3221000D02*
G75*
G03*
X10874250Y-3221000I-50000J0D01*
G01*
X10874250Y-3221000D02*
G75*
G03*
X10974250Y-3221000I50000J0D01*
G01*
X10974250Y-3475000D02*
G75*
G03*
X10874250Y-3475000I-50000J0D01*
G01*
X10874250Y-3475000D02*
G75*
G03*
X10974250Y-3475000I50000J0D01*
G01*
X11228250Y-3221000D02*
G75*
G03*
X11128250Y-3221000I-50000J0D01*
G01*
X11128250Y-3221000D02*
G75*
G03*
X11228250Y-3221000I50000J0D01*
G01*
X11228250Y-3475000D02*
G75*
G03*
X11128250Y-3475000I-50000J0D01*
G01*
X11128250Y-3475000D02*
G75*
G03*
X11228250Y-3475000I50000J0D01*
G01*
X11482250Y-3221000D02*
G75*
G03*
X11382250Y-3221000I-50000J0D01*
G01*
X11382250Y-3221000D02*
G75*
G03*
X11482250Y-3221000I50000J0D01*
G01*
X11482250Y-3475000D02*
G75*
G03*
X11382250Y-3475000I-50000J0D01*
G01*
X11382250Y-3475000D02*
G75*
G03*
X11482250Y-3475000I50000J0D01*
G01*
X11736250Y-3221000D02*
G75*
G03*
X11636250Y-3221000I-50000J0D01*
G01*
X11636250Y-3221000D02*
G75*
G03*
X11736250Y-3221000I50000J0D01*
G01*
X11736250Y-3475000D02*
G75*
G03*
X11636250Y-3475000I-50000J0D01*
G01*
X11636250Y-3475000D02*
G75*
G03*
X11736250Y-3475000I50000J0D01*
G01*
X11990250Y-3221000D02*
G75*
G03*
X11890250Y-3221000I-50000J0D01*
G01*
X11890250Y-3221000D02*
G75*
G03*
X11990250Y-3221000I50000J0D01*
G01*
X11990250Y-3475000D02*
G75*
G03*
X11890250Y-3475000I-50000J0D01*
G01*
X11890250Y-3475000D02*
G75*
G03*
X11990250Y-3475000I50000J0D01*
G01*
X12244250Y-3221000D02*
G75*
G03*
X12144250Y-3221000I-50000J0D01*
G01*
X12144250Y-3221000D02*
G75*
G03*
X12244250Y-3221000I50000J0D01*
G01*
X12244250Y-3475000D02*
G75*
G03*
X12144250Y-3475000I-50000J0D01*
G01*
X12144250Y-3475000D02*
G75*
G03*
X12244250Y-3475000I50000J0D01*
G01*
X12498250Y-3221000D02*
G75*
G03*
X12398250Y-3221000I-50000J0D01*
G01*
X12398250Y-3221000D02*
G75*
G03*
X12498250Y-3221000I50000J0D01*
G01*
X12498250Y-3475000D02*
G75*
G03*
X12398250Y-3475000I-50000J0D01*
G01*
X12398250Y-3475000D02*
G75*
G03*
X12498250Y-3475000I50000J0D01*
G01*
X12752250Y-3221000D02*
G75*
G03*
X12652250Y-3221000I-50000J0D01*
G01*
X12652250Y-3221000D02*
G75*
G03*
X12752250Y-3221000I50000J0D01*
G01*
X12752250Y-3475000D02*
G75*
G03*
X12652250Y-3475000I-50000J0D01*
G01*
X12652250Y-3475000D02*
G75*
G03*
X12752250Y-3475000I50000J0D01*
G01*
D14*
X5375000Y-5020000D02*
X5375000Y-5130000D01*
X5320000Y-5075000D02*
X5430000Y-5075000D01*
X5375000Y-5470000D02*
X5375000Y-5580000D01*
X5320000Y-5525000D02*
X5430000Y-5525000D01*
X5375000Y-5920000D02*
X5375000Y-6030000D01*
X5320000Y-5975000D02*
X5430000Y-5975000D01*
X5550000Y-4670000D02*
X5550000Y-4780000D01*
X5495000Y-4725000D02*
X5605000Y-4725000D01*
X5550000Y-6270000D02*
X5550000Y-6380000D01*
X5495000Y-6325000D02*
X5605000Y-6325000D01*
X5950000Y-4570000D02*
X5950000Y-4680000D01*
X5895000Y-4625000D02*
X6005000Y-4625000D01*
X5950000Y-6370000D02*
X5950000Y-6480000D01*
X5895000Y-6425000D02*
X6005000Y-6425000D01*
X6350000Y-4670000D02*
X6350000Y-4780000D01*
X6295000Y-4725000D02*
X6405000Y-4725000D01*
X6350000Y-6270000D02*
X6350000Y-6380000D01*
X6295000Y-6325000D02*
X6405000Y-6325000D01*
X6525000Y-5020000D02*
X6525000Y-5130000D01*
X6470000Y-5075000D02*
X6580000Y-5075000D01*
X6525000Y-5470000D02*
X6525000Y-5580000D01*
X6470000Y-5525000D02*
X6580000Y-5525000D01*
X6525000Y-5920000D02*
X6525000Y-6030000D01*
X6470000Y-5975000D02*
X6580000Y-5975000D01*
X7725000Y-5020000D02*
X7725000Y-5130000D01*
X7670000Y-5075000D02*
X7780000Y-5075000D01*
X7725000Y-5470000D02*
X7725000Y-5580000D01*
X7670000Y-5525000D02*
X7780000Y-5525000D01*
X7725000Y-5920000D02*
X7725000Y-6030000D01*
X7670000Y-5975000D02*
X7780000Y-5975000D01*
X7900000Y-4670000D02*
X7900000Y-4780000D01*
X7845000Y-4725000D02*
X7955000Y-4725000D01*
X7900000Y-6270000D02*
X7900000Y-6380000D01*
X7845000Y-6325000D02*
X7955000Y-6325000D01*
X8300000Y-4570000D02*
X8300000Y-4680000D01*
X8245000Y-4625000D02*
X8355000Y-4625000D01*
X8300000Y-6370000D02*
X8300000Y-6480000D01*
X8245000Y-6425000D02*
X8355000Y-6425000D01*
X8700000Y-4670000D02*
X8700000Y-4780000D01*
X8645000Y-4725000D02*
X8755000Y-4725000D01*
X8700000Y-6270000D02*
X8700000Y-6380000D01*
X8645000Y-6325000D02*
X8755000Y-6325000D01*
X8875000Y-5020000D02*
X8875000Y-5130000D01*
X8820000Y-5075000D02*
X8930000Y-5075000D01*
X8875000Y-5470000D02*
X8875000Y-5580000D01*
X8820000Y-5525000D02*
X8930000Y-5525000D01*
X8875000Y-5920000D02*
X8875000Y-6030000D01*
X8820000Y-5975000D02*
X8930000Y-5975000D01*
X11525000Y-5020000D02*
X11525000Y-5130000D01*
X11470000Y-5075000D02*
X11580000Y-5075000D01*
X11525000Y-5470000D02*
X11525000Y-5580000D01*
X11470000Y-5525000D02*
X11580000Y-5525000D01*
X11525000Y-5920000D02*
X11525000Y-6030000D01*
X11470000Y-5975000D02*
X11580000Y-5975000D01*
X11700000Y-4670000D02*
X11700000Y-4780000D01*
X11645000Y-4725000D02*
X11755000Y-4725000D01*
X11700000Y-6270000D02*
X11700000Y-6380000D01*
X11645000Y-6325000D02*
X11755000Y-6325000D01*
X12100000Y-4570000D02*
X12100000Y-4680000D01*
X12045000Y-4625000D02*
X12155000Y-4625000D01*
X12100000Y-6370000D02*
X12100000Y-6480000D01*
X12045000Y-6425000D02*
X12155000Y-6425000D01*
X12500000Y-4670000D02*
X12500000Y-4780000D01*
X12445000Y-4725000D02*
X12555000Y-4725000D01*
X12500000Y-6270000D02*
X12500000Y-6380000D01*
X12445000Y-6325000D02*
X12555000Y-6325000D01*
X12675000Y-5020000D02*
X12675000Y-5130000D01*
X12620000Y-5075000D02*
X12730000Y-5075000D01*
X12675000Y-5470000D02*
X12675000Y-5580000D01*
X12620000Y-5525000D02*
X12730000Y-5525000D01*
X12675000Y-5920000D02*
X12675000Y-6030000D01*
X12620000Y-5975000D02*
X12730000Y-5975000D01*
X13875000Y-5020000D02*
X13875000Y-5130000D01*
X13820000Y-5075000D02*
X13930000Y-5075000D01*
X13875000Y-5470000D02*
X13875000Y-5580000D01*
X13820000Y-5525000D02*
X13930000Y-5525000D01*
X13875000Y-5920000D02*
X13875000Y-6030000D01*
X13820000Y-5975000D02*
X13930000Y-5975000D01*
X14050000Y-4670000D02*
X14050000Y-4780000D01*
X13995000Y-4725000D02*
X14105000Y-4725000D01*
X14050000Y-6270000D02*
X14050000Y-6380000D01*
X13995000Y-6325000D02*
X14105000Y-6325000D01*
X14450000Y-4570000D02*
X14450000Y-4680000D01*
X14395000Y-4625000D02*
X14505000Y-4625000D01*
X14450000Y-6370000D02*
X14450000Y-6480000D01*
X14395000Y-6425000D02*
X14505000Y-6425000D01*
X14850000Y-4670000D02*
X14850000Y-4780000D01*
X14795000Y-4725000D02*
X14905000Y-4725000D01*
X14850000Y-6270000D02*
X14850000Y-6380000D01*
X14795000Y-6325000D02*
X14905000Y-6325000D01*
X15025000Y-5020000D02*
X15025000Y-5130000D01*
X14970000Y-5075000D02*
X15080000Y-5075000D01*
X15025000Y-5470000D02*
X15025000Y-5580000D01*
X14970000Y-5525000D02*
X15080000Y-5525000D01*
X15025000Y-5920000D02*
X15025000Y-6030000D01*
X14970000Y-5975000D02*
X15080000Y-5975000D01*
D15*
X9926605Y-7762605D02*
X9926605Y-7642395D01*
X9806395Y-7642395D01*
X9806395Y-7762605D01*
X9926605Y-7762605D01*
X10322605Y-7762605D02*
X10322605Y-7642395D01*
X10202395Y-7642395D01*
X10202395Y-7762605D01*
X10322605Y-7762605D01*
X10718605Y-7762605D02*
X10718605Y-7642395D01*
X10598395Y-7642395D01*
X10598395Y-7762605D01*
X10718605Y-7762605D01*
D16*
X4750000Y-3365000D02*
X4965000Y-3150000D01*
X4750000Y-2935000D01*
X4535000Y-3150000D01*
X4750000Y-3365000D01*
X4750000Y-8090000D02*
X4965000Y-7875000D01*
X4750000Y-7660000D01*
X4535000Y-7875000D01*
X4750000Y-8090000D01*
X15650000Y-3365000D02*
X15865000Y-3150000D01*
X15650000Y-2935000D01*
X15435000Y-3150000D01*
X15650000Y-3365000D01*
X15650000Y-8090000D02*
X15865000Y-7875000D01*
X15650000Y-7660000D01*
X15435000Y-7875000D01*
X15650000Y-8090000D01*
D12*
X4458277Y-8763984D02*
X4458277Y-8563984D01*
X4458277Y-8563984D02*
X4505896Y-8563984D01*
X4505896Y-8563984D02*
X4534467Y-8573508D01*
X4534467Y-8573508D02*
X4553515Y-8592555D01*
X4553515Y-8592555D02*
X4563039Y-8611603D01*
X4563039Y-8611603D02*
X4572563Y-8649698D01*
X4572563Y-8649698D02*
X4572563Y-8678270D01*
X4572563Y-8678270D02*
X4563039Y-8716365D01*
X4563039Y-8716365D02*
X4553515Y-8735412D01*
X4553515Y-8735412D02*
X4534467Y-8754460D01*
X4534467Y-8754460D02*
X4505896Y-8763984D01*
X4505896Y-8763984D02*
X4458277Y-8763984D01*
X4658277Y-8763984D02*
X4658277Y-8630650D01*
X4658277Y-8668746D02*
X4667801Y-8649698D01*
X4667801Y-8649698D02*
X4677324Y-8640174D01*
X4677324Y-8640174D02*
X4696372Y-8630650D01*
X4696372Y-8630650D02*
X4715420Y-8630650D01*
X4782086Y-8763984D02*
X4782086Y-8630650D01*
X4782086Y-8563984D02*
X4772563Y-8573508D01*
X4772563Y-8573508D02*
X4782086Y-8583031D01*
X4782086Y-8583031D02*
X4791610Y-8573508D01*
X4791610Y-8573508D02*
X4782086Y-8563984D01*
X4782086Y-8563984D02*
X4782086Y-8583031D01*
X4905896Y-8763984D02*
X4886848Y-8754460D01*
X4886848Y-8754460D02*
X4877324Y-8735412D01*
X4877324Y-8735412D02*
X4877324Y-8563984D01*
X5010658Y-8763984D02*
X4991610Y-8754460D01*
X4991610Y-8754460D02*
X4982086Y-8735412D01*
X4982086Y-8735412D02*
X4982086Y-8563984D01*
X5239229Y-8763984D02*
X5239229Y-8563984D01*
X5239229Y-8563984D02*
X5305896Y-8706841D01*
X5305896Y-8706841D02*
X5372563Y-8563984D01*
X5372563Y-8563984D02*
X5372563Y-8763984D01*
X5553515Y-8763984D02*
X5553515Y-8659222D01*
X5553515Y-8659222D02*
X5543991Y-8640174D01*
X5543991Y-8640174D02*
X5524944Y-8630650D01*
X5524944Y-8630650D02*
X5486848Y-8630650D01*
X5486848Y-8630650D02*
X5467801Y-8640174D01*
X5553515Y-8754460D02*
X5534467Y-8763984D01*
X5534467Y-8763984D02*
X5486848Y-8763984D01*
X5486848Y-8763984D02*
X5467801Y-8754460D01*
X5467801Y-8754460D02*
X5458277Y-8735412D01*
X5458277Y-8735412D02*
X5458277Y-8716365D01*
X5458277Y-8716365D02*
X5467801Y-8697317D01*
X5467801Y-8697317D02*
X5486848Y-8687793D01*
X5486848Y-8687793D02*
X5534467Y-8687793D01*
X5534467Y-8687793D02*
X5553515Y-8678270D01*
X5648753Y-8630650D02*
X5648753Y-8830650D01*
X5648753Y-8640174D02*
X5667801Y-8630650D01*
X5667801Y-8630650D02*
X5705896Y-8630650D01*
X5705896Y-8630650D02*
X5724943Y-8640174D01*
X5724943Y-8640174D02*
X5734467Y-8649698D01*
X5734467Y-8649698D02*
X5743991Y-8668746D01*
X5743991Y-8668746D02*
X5743991Y-8725889D01*
X5743991Y-8725889D02*
X5734467Y-8744936D01*
X5734467Y-8744936D02*
X5724943Y-8754460D01*
X5724943Y-8754460D02*
X5705896Y-8763984D01*
X5705896Y-8763984D02*
X5667801Y-8763984D01*
X5667801Y-8763984D02*
X5648753Y-8754460D01*
X5829705Y-8744936D02*
X5839229Y-8754460D01*
X5839229Y-8754460D02*
X5829705Y-8763984D01*
X5829705Y-8763984D02*
X5820182Y-8754460D01*
X5820182Y-8754460D02*
X5829705Y-8744936D01*
X5829705Y-8744936D02*
X5829705Y-8763984D01*
X5829705Y-8640174D02*
X5839229Y-8649698D01*
X5839229Y-8649698D02*
X5829705Y-8659222D01*
X5829705Y-8659222D02*
X5820182Y-8649698D01*
X5820182Y-8649698D02*
X5829705Y-8640174D01*
X5829705Y-8640174D02*
X5829705Y-8659222D01*
D13*
X4167500Y-9077500D02*
X4197500Y-9107500D01*
X4197500Y-9077500D02*
X4167500Y-9107500D01*
D12*
X4496372Y-8983984D02*
X4515420Y-8983984D01*
X4515420Y-8983984D02*
X4534467Y-8993508D01*
X4534467Y-8993508D02*
X4543991Y-9003031D01*
X4543991Y-9003031D02*
X4553515Y-9022079D01*
X4553515Y-9022079D02*
X4563039Y-9060174D01*
X4563039Y-9060174D02*
X4563039Y-9107793D01*
X4563039Y-9107793D02*
X4553515Y-9145889D01*
X4553515Y-9145889D02*
X4543991Y-9164936D01*
X4543991Y-9164936D02*
X4534467Y-9174460D01*
X4534467Y-9174460D02*
X4515420Y-9183984D01*
X4515420Y-9183984D02*
X4496372Y-9183984D01*
X4496372Y-9183984D02*
X4477324Y-9174460D01*
X4477324Y-9174460D02*
X4467801Y-9164936D01*
X4467801Y-9164936D02*
X4458277Y-9145889D01*
X4458277Y-9145889D02*
X4448753Y-9107793D01*
X4448753Y-9107793D02*
X4448753Y-9060174D01*
X4448753Y-9060174D02*
X4458277Y-9022079D01*
X4458277Y-9022079D02*
X4467801Y-9003031D01*
X4467801Y-9003031D02*
X4477324Y-8993508D01*
X4477324Y-8993508D02*
X4496372Y-8983984D01*
X4648753Y-9164936D02*
X4658277Y-9174460D01*
X4658277Y-9174460D02*
X4648753Y-9183984D01*
X4648753Y-9183984D02*
X4639229Y-9174460D01*
X4639229Y-9174460D02*
X4648753Y-9164936D01*
X4648753Y-9164936D02*
X4648753Y-9183984D01*
X4724944Y-8983984D02*
X4848753Y-8983984D01*
X4848753Y-8983984D02*
X4782086Y-9060174D01*
X4782086Y-9060174D02*
X4810658Y-9060174D01*
X4810658Y-9060174D02*
X4829705Y-9069698D01*
X4829705Y-9069698D02*
X4839229Y-9079222D01*
X4839229Y-9079222D02*
X4848753Y-9098270D01*
X4848753Y-9098270D02*
X4848753Y-9145889D01*
X4848753Y-9145889D02*
X4839229Y-9164936D01*
X4839229Y-9164936D02*
X4829705Y-9174460D01*
X4829705Y-9174460D02*
X4810658Y-9183984D01*
X4810658Y-9183984D02*
X4753515Y-9183984D01*
X4753515Y-9183984D02*
X4734467Y-9174460D01*
X4734467Y-9174460D02*
X4724944Y-9164936D01*
X4972563Y-8983984D02*
X4991610Y-8983984D01*
X4991610Y-8983984D02*
X5010658Y-8993508D01*
X5010658Y-8993508D02*
X5020182Y-9003031D01*
X5020182Y-9003031D02*
X5029705Y-9022079D01*
X5029705Y-9022079D02*
X5039229Y-9060174D01*
X5039229Y-9060174D02*
X5039229Y-9107793D01*
X5039229Y-9107793D02*
X5029705Y-9145889D01*
X5029705Y-9145889D02*
X5020182Y-9164936D01*
X5020182Y-9164936D02*
X5010658Y-9174460D01*
X5010658Y-9174460D02*
X4991610Y-9183984D01*
X4991610Y-9183984D02*
X4972563Y-9183984D01*
X4972563Y-9183984D02*
X4953515Y-9174460D01*
X4953515Y-9174460D02*
X4943991Y-9164936D01*
X4943991Y-9164936D02*
X4934467Y-9145889D01*
X4934467Y-9145889D02*
X4924944Y-9107793D01*
X4924944Y-9107793D02*
X4924944Y-9060174D01*
X4924944Y-9060174D02*
X4934467Y-9022079D01*
X4934467Y-9022079D02*
X4943991Y-9003031D01*
X4943991Y-9003031D02*
X4953515Y-8993508D01*
X4953515Y-8993508D02*
X4972563Y-8983984D01*
X5163039Y-8983984D02*
X5182086Y-8983984D01*
X5182086Y-8983984D02*
X5201134Y-8993508D01*
X5201134Y-8993508D02*
X5210658Y-9003031D01*
X5210658Y-9003031D02*
X5220182Y-9022079D01*
X5220182Y-9022079D02*
X5229705Y-9060174D01*
X5229705Y-9060174D02*
X5229705Y-9107793D01*
X5229705Y-9107793D02*
X5220182Y-9145889D01*
X5220182Y-9145889D02*
X5210658Y-9164936D01*
X5210658Y-9164936D02*
X5201134Y-9174460D01*
X5201134Y-9174460D02*
X5182086Y-9183984D01*
X5182086Y-9183984D02*
X5163039Y-9183984D01*
X5163039Y-9183984D02*
X5143991Y-9174460D01*
X5143991Y-9174460D02*
X5134467Y-9164936D01*
X5134467Y-9164936D02*
X5124944Y-9145889D01*
X5124944Y-9145889D02*
X5115420Y-9107793D01*
X5115420Y-9107793D02*
X5115420Y-9060174D01*
X5115420Y-9060174D02*
X5124944Y-9022079D01*
X5124944Y-9022079D02*
X5134467Y-9003031D01*
X5134467Y-9003031D02*
X5143991Y-8993508D01*
X5143991Y-8993508D02*
X5163039Y-8983984D01*
X5315420Y-9183984D02*
X5315420Y-9050650D01*
X5315420Y-9069698D02*
X5324944Y-9060174D01*
X5324944Y-9060174D02*
X5343991Y-9050650D01*
X5343991Y-9050650D02*
X5372563Y-9050650D01*
X5372563Y-9050650D02*
X5391610Y-9060174D01*
X5391610Y-9060174D02*
X5401134Y-9079222D01*
X5401134Y-9079222D02*
X5401134Y-9183984D01*
X5401134Y-9079222D02*
X5410658Y-9060174D01*
X5410658Y-9060174D02*
X5429705Y-9050650D01*
X5429705Y-9050650D02*
X5458277Y-9050650D01*
X5458277Y-9050650D02*
X5477325Y-9060174D01*
X5477325Y-9060174D02*
X5486848Y-9079222D01*
X5486848Y-9079222D02*
X5486848Y-9183984D01*
X5582086Y-9183984D02*
X5582086Y-9050650D01*
X5582086Y-9069698D02*
X5591610Y-9060174D01*
X5591610Y-9060174D02*
X5610658Y-9050650D01*
X5610658Y-9050650D02*
X5639229Y-9050650D01*
X5639229Y-9050650D02*
X5658277Y-9060174D01*
X5658277Y-9060174D02*
X5667801Y-9079222D01*
X5667801Y-9079222D02*
X5667801Y-9183984D01*
X5667801Y-9079222D02*
X5677324Y-9060174D01*
X5677324Y-9060174D02*
X5696372Y-9050650D01*
X5696372Y-9050650D02*
X5724943Y-9050650D01*
X5724943Y-9050650D02*
X5743991Y-9060174D01*
X5743991Y-9060174D02*
X5753515Y-9079222D01*
X5753515Y-9079222D02*
X5753515Y-9183984D01*
X6143991Y-8974460D02*
X5972563Y-9231603D01*
X6401134Y-8983984D02*
X6420182Y-8983984D01*
X6420182Y-8983984D02*
X6439229Y-8993508D01*
X6439229Y-8993508D02*
X6448753Y-9003031D01*
X6448753Y-9003031D02*
X6458277Y-9022079D01*
X6458277Y-9022079D02*
X6467801Y-9060174D01*
X6467801Y-9060174D02*
X6467801Y-9107793D01*
X6467801Y-9107793D02*
X6458277Y-9145889D01*
X6458277Y-9145889D02*
X6448753Y-9164936D01*
X6448753Y-9164936D02*
X6439229Y-9174460D01*
X6439229Y-9174460D02*
X6420182Y-9183984D01*
X6420182Y-9183984D02*
X6401134Y-9183984D01*
X6401134Y-9183984D02*
X6382086Y-9174460D01*
X6382086Y-9174460D02*
X6372563Y-9164936D01*
X6372563Y-9164936D02*
X6363039Y-9145889D01*
X6363039Y-9145889D02*
X6353515Y-9107793D01*
X6353515Y-9107793D02*
X6353515Y-9060174D01*
X6353515Y-9060174D02*
X6363039Y-9022079D01*
X6363039Y-9022079D02*
X6372563Y-9003031D01*
X6372563Y-9003031D02*
X6382086Y-8993508D01*
X6382086Y-8993508D02*
X6401134Y-8983984D01*
X6553515Y-9164936D02*
X6563039Y-9174460D01*
X6563039Y-9174460D02*
X6553515Y-9183984D01*
X6553515Y-9183984D02*
X6543991Y-9174460D01*
X6543991Y-9174460D02*
X6553515Y-9164936D01*
X6553515Y-9164936D02*
X6553515Y-9183984D01*
X6686848Y-8983984D02*
X6705896Y-8983984D01*
X6705896Y-8983984D02*
X6724944Y-8993508D01*
X6724944Y-8993508D02*
X6734467Y-9003031D01*
X6734467Y-9003031D02*
X6743991Y-9022079D01*
X6743991Y-9022079D02*
X6753515Y-9060174D01*
X6753515Y-9060174D02*
X6753515Y-9107793D01*
X6753515Y-9107793D02*
X6743991Y-9145889D01*
X6743991Y-9145889D02*
X6734467Y-9164936D01*
X6734467Y-9164936D02*
X6724944Y-9174460D01*
X6724944Y-9174460D02*
X6705896Y-9183984D01*
X6705896Y-9183984D02*
X6686848Y-9183984D01*
X6686848Y-9183984D02*
X6667801Y-9174460D01*
X6667801Y-9174460D02*
X6658277Y-9164936D01*
X6658277Y-9164936D02*
X6648753Y-9145889D01*
X6648753Y-9145889D02*
X6639229Y-9107793D01*
X6639229Y-9107793D02*
X6639229Y-9060174D01*
X6639229Y-9060174D02*
X6648753Y-9022079D01*
X6648753Y-9022079D02*
X6658277Y-9003031D01*
X6658277Y-9003031D02*
X6667801Y-8993508D01*
X6667801Y-8993508D02*
X6686848Y-8983984D01*
X6943991Y-9183984D02*
X6829706Y-9183984D01*
X6886848Y-9183984D02*
X6886848Y-8983984D01*
X6886848Y-8983984D02*
X6867801Y-9012555D01*
X6867801Y-9012555D02*
X6848753Y-9031603D01*
X6848753Y-9031603D02*
X6829706Y-9041127D01*
X7134467Y-9183984D02*
X7020182Y-9183984D01*
X7077325Y-9183984D02*
X7077325Y-8983984D01*
X7077325Y-8983984D02*
X7058277Y-9012555D01*
X7058277Y-9012555D02*
X7039229Y-9031603D01*
X7039229Y-9031603D02*
X7020182Y-9041127D01*
X7248753Y-9069698D02*
X7229706Y-9060174D01*
X7229706Y-9060174D02*
X7220182Y-9050650D01*
X7220182Y-9050650D02*
X7210658Y-9031603D01*
X7210658Y-9031603D02*
X7210658Y-9022079D01*
X7210658Y-9022079D02*
X7220182Y-9003031D01*
X7220182Y-9003031D02*
X7229706Y-8993508D01*
X7229706Y-8993508D02*
X7248753Y-8983984D01*
X7248753Y-8983984D02*
X7286848Y-8983984D01*
X7286848Y-8983984D02*
X7305896Y-8993508D01*
X7305896Y-8993508D02*
X7315420Y-9003031D01*
X7315420Y-9003031D02*
X7324944Y-9022079D01*
X7324944Y-9022079D02*
X7324944Y-9031603D01*
X7324944Y-9031603D02*
X7315420Y-9050650D01*
X7315420Y-9050650D02*
X7305896Y-9060174D01*
X7305896Y-9060174D02*
X7286848Y-9069698D01*
X7286848Y-9069698D02*
X7248753Y-9069698D01*
X7248753Y-9069698D02*
X7229706Y-9079222D01*
X7229706Y-9079222D02*
X7220182Y-9088746D01*
X7220182Y-9088746D02*
X7210658Y-9107793D01*
X7210658Y-9107793D02*
X7210658Y-9145889D01*
X7210658Y-9145889D02*
X7220182Y-9164936D01*
X7220182Y-9164936D02*
X7229706Y-9174460D01*
X7229706Y-9174460D02*
X7248753Y-9183984D01*
X7248753Y-9183984D02*
X7286848Y-9183984D01*
X7286848Y-9183984D02*
X7305896Y-9174460D01*
X7305896Y-9174460D02*
X7315420Y-9164936D01*
X7315420Y-9164936D02*
X7324944Y-9145889D01*
X7324944Y-9145889D02*
X7324944Y-9107793D01*
X7324944Y-9107793D02*
X7315420Y-9088746D01*
X7315420Y-9088746D02*
X7305896Y-9079222D01*
X7305896Y-9079222D02*
X7286848Y-9069698D01*
X7401134Y-8983984D02*
X7401134Y-9022079D01*
X7477325Y-8983984D02*
X7477325Y-9022079D01*
X7772563Y-9260174D02*
X7763039Y-9250650D01*
X7763039Y-9250650D02*
X7743991Y-9222079D01*
X7743991Y-9222079D02*
X7734468Y-9203031D01*
X7734468Y-9203031D02*
X7724944Y-9174460D01*
X7724944Y-9174460D02*
X7715420Y-9126841D01*
X7715420Y-9126841D02*
X7715420Y-9088746D01*
X7715420Y-9088746D02*
X7724944Y-9041127D01*
X7724944Y-9041127D02*
X7734468Y-9012555D01*
X7734468Y-9012555D02*
X7743991Y-8993508D01*
X7743991Y-8993508D02*
X7763039Y-8964936D01*
X7763039Y-8964936D02*
X7772563Y-8955412D01*
X7953515Y-9183984D02*
X7839229Y-9183984D01*
X7896372Y-9183984D02*
X7896372Y-8983984D01*
X7896372Y-8983984D02*
X7877325Y-9012555D01*
X7877325Y-9012555D02*
X7858277Y-9031603D01*
X7858277Y-9031603D02*
X7839229Y-9041127D01*
X8143991Y-9183984D02*
X8029706Y-9183984D01*
X8086848Y-9183984D02*
X8086848Y-8983984D01*
X8086848Y-8983984D02*
X8067801Y-9012555D01*
X8067801Y-9012555D02*
X8048753Y-9031603D01*
X8048753Y-9031603D02*
X8029706Y-9041127D01*
X8239229Y-9183984D02*
X8277325Y-9183984D01*
X8277325Y-9183984D02*
X8296372Y-9174460D01*
X8296372Y-9174460D02*
X8305896Y-9164936D01*
X8305896Y-9164936D02*
X8324944Y-9136365D01*
X8324944Y-9136365D02*
X8334468Y-9098270D01*
X8334468Y-9098270D02*
X8334468Y-9022079D01*
X8334468Y-9022079D02*
X8324944Y-9003031D01*
X8324944Y-9003031D02*
X8315420Y-8993508D01*
X8315420Y-8993508D02*
X8296372Y-8983984D01*
X8296372Y-8983984D02*
X8258277Y-8983984D01*
X8258277Y-8983984D02*
X8239229Y-8993508D01*
X8239229Y-8993508D02*
X8229706Y-9003031D01*
X8229706Y-9003031D02*
X8220182Y-9022079D01*
X8220182Y-9022079D02*
X8220182Y-9069698D01*
X8220182Y-9069698D02*
X8229706Y-9088746D01*
X8229706Y-9088746D02*
X8239229Y-9098270D01*
X8239229Y-9098270D02*
X8258277Y-9107793D01*
X8258277Y-9107793D02*
X8296372Y-9107793D01*
X8296372Y-9107793D02*
X8315420Y-9098270D01*
X8315420Y-9098270D02*
X8324944Y-9088746D01*
X8324944Y-9088746D02*
X8334468Y-9069698D01*
X8572563Y-9183984D02*
X8572563Y-8983984D01*
X8658277Y-9183984D02*
X8658277Y-9079222D01*
X8658277Y-9079222D02*
X8648753Y-9060174D01*
X8648753Y-9060174D02*
X8629706Y-9050650D01*
X8629706Y-9050650D02*
X8601134Y-9050650D01*
X8601134Y-9050650D02*
X8582087Y-9060174D01*
X8582087Y-9060174D02*
X8572563Y-9069698D01*
X8782087Y-9183984D02*
X8763039Y-9174460D01*
X8763039Y-9174460D02*
X8753515Y-9164936D01*
X8753515Y-9164936D02*
X8743992Y-9145889D01*
X8743992Y-9145889D02*
X8743992Y-9088746D01*
X8743992Y-9088746D02*
X8753515Y-9069698D01*
X8753515Y-9069698D02*
X8763039Y-9060174D01*
X8763039Y-9060174D02*
X8782087Y-9050650D01*
X8782087Y-9050650D02*
X8810658Y-9050650D01*
X8810658Y-9050650D02*
X8829706Y-9060174D01*
X8829706Y-9060174D02*
X8839230Y-9069698D01*
X8839230Y-9069698D02*
X8848753Y-9088746D01*
X8848753Y-9088746D02*
X8848753Y-9145889D01*
X8848753Y-9145889D02*
X8839230Y-9164936D01*
X8839230Y-9164936D02*
X8829706Y-9174460D01*
X8829706Y-9174460D02*
X8810658Y-9183984D01*
X8810658Y-9183984D02*
X8782087Y-9183984D01*
X8963039Y-9183984D02*
X8943992Y-9174460D01*
X8943992Y-9174460D02*
X8934468Y-9155412D01*
X8934468Y-9155412D02*
X8934468Y-8983984D01*
X9115420Y-9174460D02*
X9096373Y-9183984D01*
X9096373Y-9183984D02*
X9058277Y-9183984D01*
X9058277Y-9183984D02*
X9039230Y-9174460D01*
X9039230Y-9174460D02*
X9029706Y-9155412D01*
X9029706Y-9155412D02*
X9029706Y-9079222D01*
X9029706Y-9079222D02*
X9039230Y-9060174D01*
X9039230Y-9060174D02*
X9058277Y-9050650D01*
X9058277Y-9050650D02*
X9096373Y-9050650D01*
X9096373Y-9050650D02*
X9115420Y-9060174D01*
X9115420Y-9060174D02*
X9124944Y-9079222D01*
X9124944Y-9079222D02*
X9124944Y-9098270D01*
X9124944Y-9098270D02*
X9029706Y-9117317D01*
X9201134Y-9174460D02*
X9220182Y-9183984D01*
X9220182Y-9183984D02*
X9258277Y-9183984D01*
X9258277Y-9183984D02*
X9277325Y-9174460D01*
X9277325Y-9174460D02*
X9286849Y-9155412D01*
X9286849Y-9155412D02*
X9286849Y-9145889D01*
X9286849Y-9145889D02*
X9277325Y-9126841D01*
X9277325Y-9126841D02*
X9258277Y-9117317D01*
X9258277Y-9117317D02*
X9229706Y-9117317D01*
X9229706Y-9117317D02*
X9210658Y-9107793D01*
X9210658Y-9107793D02*
X9201134Y-9088746D01*
X9201134Y-9088746D02*
X9201134Y-9079222D01*
X9201134Y-9079222D02*
X9210658Y-9060174D01*
X9210658Y-9060174D02*
X9229706Y-9050650D01*
X9229706Y-9050650D02*
X9258277Y-9050650D01*
X9258277Y-9050650D02*
X9277325Y-9060174D01*
X9353515Y-9260174D02*
X9363039Y-9250650D01*
X9363039Y-9250650D02*
X9382087Y-9222079D01*
X9382087Y-9222079D02*
X9391611Y-9203031D01*
X9391611Y-9203031D02*
X9401134Y-9174460D01*
X9401134Y-9174460D02*
X9410658Y-9126841D01*
X9410658Y-9126841D02*
X9410658Y-9088746D01*
X9410658Y-9088746D02*
X9401134Y-9041127D01*
X9401134Y-9041127D02*
X9391611Y-9012555D01*
X9391611Y-9012555D02*
X9382087Y-8993508D01*
X9382087Y-8993508D02*
X9363039Y-8964936D01*
X9363039Y-8964936D02*
X9353515Y-8955412D01*
D13*
X4197500Y-9356500D02*
G75*
G03*
X4097500Y-9356500I-50000J0D01*
G01*
X4097500Y-9356500D02*
G75*
G03*
X4197500Y-9356500I50000J0D01*
G01*
D12*
X4563039Y-9447984D02*
X4448753Y-9447984D01*
X4505896Y-9447984D02*
X4505896Y-9247984D01*
X4505896Y-9247984D02*
X4486848Y-9276555D01*
X4486848Y-9276555D02*
X4467801Y-9295603D01*
X4467801Y-9295603D02*
X4448753Y-9305127D01*
X4648753Y-9428936D02*
X4658277Y-9438460D01*
X4658277Y-9438460D02*
X4648753Y-9447984D01*
X4648753Y-9447984D02*
X4639229Y-9438460D01*
X4639229Y-9438460D02*
X4648753Y-9428936D01*
X4648753Y-9428936D02*
X4648753Y-9447984D01*
X4782086Y-9247984D02*
X4801134Y-9247984D01*
X4801134Y-9247984D02*
X4820182Y-9257508D01*
X4820182Y-9257508D02*
X4829705Y-9267031D01*
X4829705Y-9267031D02*
X4839229Y-9286079D01*
X4839229Y-9286079D02*
X4848753Y-9324174D01*
X4848753Y-9324174D02*
X4848753Y-9371793D01*
X4848753Y-9371793D02*
X4839229Y-9409889D01*
X4839229Y-9409889D02*
X4829705Y-9428936D01*
X4829705Y-9428936D02*
X4820182Y-9438460D01*
X4820182Y-9438460D02*
X4801134Y-9447984D01*
X4801134Y-9447984D02*
X4782086Y-9447984D01*
X4782086Y-9447984D02*
X4763039Y-9438460D01*
X4763039Y-9438460D02*
X4753515Y-9428936D01*
X4753515Y-9428936D02*
X4743991Y-9409889D01*
X4743991Y-9409889D02*
X4734467Y-9371793D01*
X4734467Y-9371793D02*
X4734467Y-9324174D01*
X4734467Y-9324174D02*
X4743991Y-9286079D01*
X4743991Y-9286079D02*
X4753515Y-9267031D01*
X4753515Y-9267031D02*
X4763039Y-9257508D01*
X4763039Y-9257508D02*
X4782086Y-9247984D01*
X4972563Y-9247984D02*
X4991610Y-9247984D01*
X4991610Y-9247984D02*
X5010658Y-9257508D01*
X5010658Y-9257508D02*
X5020182Y-9267031D01*
X5020182Y-9267031D02*
X5029705Y-9286079D01*
X5029705Y-9286079D02*
X5039229Y-9324174D01*
X5039229Y-9324174D02*
X5039229Y-9371793D01*
X5039229Y-9371793D02*
X5029705Y-9409889D01*
X5029705Y-9409889D02*
X5020182Y-9428936D01*
X5020182Y-9428936D02*
X5010658Y-9438460D01*
X5010658Y-9438460D02*
X4991610Y-9447984D01*
X4991610Y-9447984D02*
X4972563Y-9447984D01*
X4972563Y-9447984D02*
X4953515Y-9438460D01*
X4953515Y-9438460D02*
X4943991Y-9428936D01*
X4943991Y-9428936D02*
X4934467Y-9409889D01*
X4934467Y-9409889D02*
X4924944Y-9371793D01*
X4924944Y-9371793D02*
X4924944Y-9324174D01*
X4924944Y-9324174D02*
X4934467Y-9286079D01*
X4934467Y-9286079D02*
X4943991Y-9267031D01*
X4943991Y-9267031D02*
X4953515Y-9257508D01*
X4953515Y-9257508D02*
X4972563Y-9247984D01*
X5163039Y-9247984D02*
X5182086Y-9247984D01*
X5182086Y-9247984D02*
X5201134Y-9257508D01*
X5201134Y-9257508D02*
X5210658Y-9267031D01*
X5210658Y-9267031D02*
X5220182Y-9286079D01*
X5220182Y-9286079D02*
X5229705Y-9324174D01*
X5229705Y-9324174D02*
X5229705Y-9371793D01*
X5229705Y-9371793D02*
X5220182Y-9409889D01*
X5220182Y-9409889D02*
X5210658Y-9428936D01*
X5210658Y-9428936D02*
X5201134Y-9438460D01*
X5201134Y-9438460D02*
X5182086Y-9447984D01*
X5182086Y-9447984D02*
X5163039Y-9447984D01*
X5163039Y-9447984D02*
X5143991Y-9438460D01*
X5143991Y-9438460D02*
X5134467Y-9428936D01*
X5134467Y-9428936D02*
X5124944Y-9409889D01*
X5124944Y-9409889D02*
X5115420Y-9371793D01*
X5115420Y-9371793D02*
X5115420Y-9324174D01*
X5115420Y-9324174D02*
X5124944Y-9286079D01*
X5124944Y-9286079D02*
X5134467Y-9267031D01*
X5134467Y-9267031D02*
X5143991Y-9257508D01*
X5143991Y-9257508D02*
X5163039Y-9247984D01*
X5315420Y-9447984D02*
X5315420Y-9314650D01*
X5315420Y-9333698D02*
X5324944Y-9324174D01*
X5324944Y-9324174D02*
X5343991Y-9314650D01*
X5343991Y-9314650D02*
X5372563Y-9314650D01*
X5372563Y-9314650D02*
X5391610Y-9324174D01*
X5391610Y-9324174D02*
X5401134Y-9343222D01*
X5401134Y-9343222D02*
X5401134Y-9447984D01*
X5401134Y-9343222D02*
X5410658Y-9324174D01*
X5410658Y-9324174D02*
X5429705Y-9314650D01*
X5429705Y-9314650D02*
X5458277Y-9314650D01*
X5458277Y-9314650D02*
X5477325Y-9324174D01*
X5477325Y-9324174D02*
X5486848Y-9343222D01*
X5486848Y-9343222D02*
X5486848Y-9447984D01*
X5582086Y-9447984D02*
X5582086Y-9314650D01*
X5582086Y-9333698D02*
X5591610Y-9324174D01*
X5591610Y-9324174D02*
X5610658Y-9314650D01*
X5610658Y-9314650D02*
X5639229Y-9314650D01*
X5639229Y-9314650D02*
X5658277Y-9324174D01*
X5658277Y-9324174D02*
X5667801Y-9343222D01*
X5667801Y-9343222D02*
X5667801Y-9447984D01*
X5667801Y-9343222D02*
X5677324Y-9324174D01*
X5677324Y-9324174D02*
X5696372Y-9314650D01*
X5696372Y-9314650D02*
X5724943Y-9314650D01*
X5724943Y-9314650D02*
X5743991Y-9324174D01*
X5743991Y-9324174D02*
X5753515Y-9343222D01*
X5753515Y-9343222D02*
X5753515Y-9447984D01*
X6143991Y-9238460D02*
X5972563Y-9495603D01*
X6401134Y-9247984D02*
X6420182Y-9247984D01*
X6420182Y-9247984D02*
X6439229Y-9257508D01*
X6439229Y-9257508D02*
X6448753Y-9267031D01*
X6448753Y-9267031D02*
X6458277Y-9286079D01*
X6458277Y-9286079D02*
X6467801Y-9324174D01*
X6467801Y-9324174D02*
X6467801Y-9371793D01*
X6467801Y-9371793D02*
X6458277Y-9409889D01*
X6458277Y-9409889D02*
X6448753Y-9428936D01*
X6448753Y-9428936D02*
X6439229Y-9438460D01*
X6439229Y-9438460D02*
X6420182Y-9447984D01*
X6420182Y-9447984D02*
X6401134Y-9447984D01*
X6401134Y-9447984D02*
X6382086Y-9438460D01*
X6382086Y-9438460D02*
X6372563Y-9428936D01*
X6372563Y-9428936D02*
X6363039Y-9409889D01*
X6363039Y-9409889D02*
X6353515Y-9371793D01*
X6353515Y-9371793D02*
X6353515Y-9324174D01*
X6353515Y-9324174D02*
X6363039Y-9286079D01*
X6363039Y-9286079D02*
X6372563Y-9267031D01*
X6372563Y-9267031D02*
X6382086Y-9257508D01*
X6382086Y-9257508D02*
X6401134Y-9247984D01*
X6553515Y-9428936D02*
X6563039Y-9438460D01*
X6563039Y-9438460D02*
X6553515Y-9447984D01*
X6553515Y-9447984D02*
X6543991Y-9438460D01*
X6543991Y-9438460D02*
X6553515Y-9428936D01*
X6553515Y-9428936D02*
X6553515Y-9447984D01*
X6686848Y-9247984D02*
X6705896Y-9247984D01*
X6705896Y-9247984D02*
X6724944Y-9257508D01*
X6724944Y-9257508D02*
X6734467Y-9267031D01*
X6734467Y-9267031D02*
X6743991Y-9286079D01*
X6743991Y-9286079D02*
X6753515Y-9324174D01*
X6753515Y-9324174D02*
X6753515Y-9371793D01*
X6753515Y-9371793D02*
X6743991Y-9409889D01*
X6743991Y-9409889D02*
X6734467Y-9428936D01*
X6734467Y-9428936D02*
X6724944Y-9438460D01*
X6724944Y-9438460D02*
X6705896Y-9447984D01*
X6705896Y-9447984D02*
X6686848Y-9447984D01*
X6686848Y-9447984D02*
X6667801Y-9438460D01*
X6667801Y-9438460D02*
X6658277Y-9428936D01*
X6658277Y-9428936D02*
X6648753Y-9409889D01*
X6648753Y-9409889D02*
X6639229Y-9371793D01*
X6639229Y-9371793D02*
X6639229Y-9324174D01*
X6639229Y-9324174D02*
X6648753Y-9286079D01*
X6648753Y-9286079D02*
X6658277Y-9267031D01*
X6658277Y-9267031D02*
X6667801Y-9257508D01*
X6667801Y-9257508D02*
X6686848Y-9247984D01*
X6820182Y-9247984D02*
X6943991Y-9247984D01*
X6943991Y-9247984D02*
X6877325Y-9324174D01*
X6877325Y-9324174D02*
X6905896Y-9324174D01*
X6905896Y-9324174D02*
X6924944Y-9333698D01*
X6924944Y-9333698D02*
X6934467Y-9343222D01*
X6934467Y-9343222D02*
X6943991Y-9362270D01*
X6943991Y-9362270D02*
X6943991Y-9409889D01*
X6943991Y-9409889D02*
X6934467Y-9428936D01*
X6934467Y-9428936D02*
X6924944Y-9438460D01*
X6924944Y-9438460D02*
X6905896Y-9447984D01*
X6905896Y-9447984D02*
X6848753Y-9447984D01*
X6848753Y-9447984D02*
X6829706Y-9438460D01*
X6829706Y-9438460D02*
X6820182Y-9428936D01*
X7039229Y-9447984D02*
X7077325Y-9447984D01*
X7077325Y-9447984D02*
X7096372Y-9438460D01*
X7096372Y-9438460D02*
X7105896Y-9428936D01*
X7105896Y-9428936D02*
X7124944Y-9400365D01*
X7124944Y-9400365D02*
X7134467Y-9362270D01*
X7134467Y-9362270D02*
X7134467Y-9286079D01*
X7134467Y-9286079D02*
X7124944Y-9267031D01*
X7124944Y-9267031D02*
X7115420Y-9257508D01*
X7115420Y-9257508D02*
X7096372Y-9247984D01*
X7096372Y-9247984D02*
X7058277Y-9247984D01*
X7058277Y-9247984D02*
X7039229Y-9257508D01*
X7039229Y-9257508D02*
X7029706Y-9267031D01*
X7029706Y-9267031D02*
X7020182Y-9286079D01*
X7020182Y-9286079D02*
X7020182Y-9333698D01*
X7020182Y-9333698D02*
X7029706Y-9352746D01*
X7029706Y-9352746D02*
X7039229Y-9362270D01*
X7039229Y-9362270D02*
X7058277Y-9371793D01*
X7058277Y-9371793D02*
X7096372Y-9371793D01*
X7096372Y-9371793D02*
X7115420Y-9362270D01*
X7115420Y-9362270D02*
X7124944Y-9352746D01*
X7124944Y-9352746D02*
X7134467Y-9333698D01*
X7305896Y-9314650D02*
X7305896Y-9447984D01*
X7258277Y-9238460D02*
X7210658Y-9381317D01*
X7210658Y-9381317D02*
X7334467Y-9381317D01*
X7401134Y-9247984D02*
X7401134Y-9286079D01*
X7477325Y-9247984D02*
X7477325Y-9286079D01*
X7772563Y-9524174D02*
X7763039Y-9514650D01*
X7763039Y-9514650D02*
X7743991Y-9486079D01*
X7743991Y-9486079D02*
X7734468Y-9467031D01*
X7734468Y-9467031D02*
X7724944Y-9438460D01*
X7724944Y-9438460D02*
X7715420Y-9390841D01*
X7715420Y-9390841D02*
X7715420Y-9352746D01*
X7715420Y-9352746D02*
X7724944Y-9305127D01*
X7724944Y-9305127D02*
X7734468Y-9276555D01*
X7734468Y-9276555D02*
X7743991Y-9257508D01*
X7743991Y-9257508D02*
X7763039Y-9228936D01*
X7763039Y-9228936D02*
X7772563Y-9219412D01*
X7934468Y-9314650D02*
X7934468Y-9447984D01*
X7886848Y-9238460D02*
X7839229Y-9381317D01*
X7839229Y-9381317D02*
X7963039Y-9381317D01*
X8077325Y-9247984D02*
X8096372Y-9247984D01*
X8096372Y-9247984D02*
X8115420Y-9257508D01*
X8115420Y-9257508D02*
X8124944Y-9267031D01*
X8124944Y-9267031D02*
X8134468Y-9286079D01*
X8134468Y-9286079D02*
X8143991Y-9324174D01*
X8143991Y-9324174D02*
X8143991Y-9371793D01*
X8143991Y-9371793D02*
X8134468Y-9409889D01*
X8134468Y-9409889D02*
X8124944Y-9428936D01*
X8124944Y-9428936D02*
X8115420Y-9438460D01*
X8115420Y-9438460D02*
X8096372Y-9447984D01*
X8096372Y-9447984D02*
X8077325Y-9447984D01*
X8077325Y-9447984D02*
X8058277Y-9438460D01*
X8058277Y-9438460D02*
X8048753Y-9428936D01*
X8048753Y-9428936D02*
X8039229Y-9409889D01*
X8039229Y-9409889D02*
X8029706Y-9371793D01*
X8029706Y-9371793D02*
X8029706Y-9324174D01*
X8029706Y-9324174D02*
X8039229Y-9286079D01*
X8039229Y-9286079D02*
X8048753Y-9267031D01*
X8048753Y-9267031D02*
X8058277Y-9257508D01*
X8058277Y-9257508D02*
X8077325Y-9247984D01*
X8382087Y-9447984D02*
X8382087Y-9247984D01*
X8467801Y-9447984D02*
X8467801Y-9343222D01*
X8467801Y-9343222D02*
X8458277Y-9324174D01*
X8458277Y-9324174D02*
X8439230Y-9314650D01*
X8439230Y-9314650D02*
X8410658Y-9314650D01*
X8410658Y-9314650D02*
X8391611Y-9324174D01*
X8391611Y-9324174D02*
X8382087Y-9333698D01*
X8591611Y-9447984D02*
X8572563Y-9438460D01*
X8572563Y-9438460D02*
X8563039Y-9428936D01*
X8563039Y-9428936D02*
X8553515Y-9409889D01*
X8553515Y-9409889D02*
X8553515Y-9352746D01*
X8553515Y-9352746D02*
X8563039Y-9333698D01*
X8563039Y-9333698D02*
X8572563Y-9324174D01*
X8572563Y-9324174D02*
X8591611Y-9314650D01*
X8591611Y-9314650D02*
X8620182Y-9314650D01*
X8620182Y-9314650D02*
X8639230Y-9324174D01*
X8639230Y-9324174D02*
X8648753Y-9333698D01*
X8648753Y-9333698D02*
X8658277Y-9352746D01*
X8658277Y-9352746D02*
X8658277Y-9409889D01*
X8658277Y-9409889D02*
X8648753Y-9428936D01*
X8648753Y-9428936D02*
X8639230Y-9438460D01*
X8639230Y-9438460D02*
X8620182Y-9447984D01*
X8620182Y-9447984D02*
X8591611Y-9447984D01*
X8772563Y-9447984D02*
X8753515Y-9438460D01*
X8753515Y-9438460D02*
X8743992Y-9419412D01*
X8743992Y-9419412D02*
X8743992Y-9247984D01*
X8924944Y-9438460D02*
X8905896Y-9447984D01*
X8905896Y-9447984D02*
X8867801Y-9447984D01*
X8867801Y-9447984D02*
X8848753Y-9438460D01*
X8848753Y-9438460D02*
X8839230Y-9419412D01*
X8839230Y-9419412D02*
X8839230Y-9343222D01*
X8839230Y-9343222D02*
X8848753Y-9324174D01*
X8848753Y-9324174D02*
X8867801Y-9314650D01*
X8867801Y-9314650D02*
X8905896Y-9314650D01*
X8905896Y-9314650D02*
X8924944Y-9324174D01*
X8924944Y-9324174D02*
X8934468Y-9343222D01*
X8934468Y-9343222D02*
X8934468Y-9362270D01*
X8934468Y-9362270D02*
X8839230Y-9381317D01*
X9010658Y-9438460D02*
X9029706Y-9447984D01*
X9029706Y-9447984D02*
X9067801Y-9447984D01*
X9067801Y-9447984D02*
X9086849Y-9438460D01*
X9086849Y-9438460D02*
X9096373Y-9419412D01*
X9096373Y-9419412D02*
X9096373Y-9409889D01*
X9096373Y-9409889D02*
X9086849Y-9390841D01*
X9086849Y-9390841D02*
X9067801Y-9381317D01*
X9067801Y-9381317D02*
X9039230Y-9381317D01*
X9039230Y-9381317D02*
X9020182Y-9371793D01*
X9020182Y-9371793D02*
X9010658Y-9352746D01*
X9010658Y-9352746D02*
X9010658Y-9343222D01*
X9010658Y-9343222D02*
X9020182Y-9324174D01*
X9020182Y-9324174D02*
X9039230Y-9314650D01*
X9039230Y-9314650D02*
X9067801Y-9314650D01*
X9067801Y-9314650D02*
X9086849Y-9324174D01*
X9163039Y-9524174D02*
X9172563Y-9514650D01*
X9172563Y-9514650D02*
X9191611Y-9486079D01*
X9191611Y-9486079D02*
X9201134Y-9467031D01*
X9201134Y-9467031D02*
X9210658Y-9438460D01*
X9210658Y-9438460D02*
X9220182Y-9390841D01*
X9220182Y-9390841D02*
X9220182Y-9352746D01*
X9220182Y-9352746D02*
X9210658Y-9305127D01*
X9210658Y-9305127D02*
X9201134Y-9276555D01*
X9201134Y-9276555D02*
X9191611Y-9257508D01*
X9191611Y-9257508D02*
X9172563Y-9228936D01*
X9172563Y-9228936D02*
X9163039Y-9219412D01*
D14*
X4142500Y-9565500D02*
X4142500Y-9675500D01*
X4087500Y-9620500D02*
X4197500Y-9620500D01*
D12*
X4563039Y-9711984D02*
X4448753Y-9711984D01*
X4505896Y-9711984D02*
X4505896Y-9511984D01*
X4505896Y-9511984D02*
X4486848Y-9540555D01*
X4486848Y-9540555D02*
X4467801Y-9559603D01*
X4467801Y-9559603D02*
X4448753Y-9569127D01*
X4648753Y-9692936D02*
X4658277Y-9702460D01*
X4658277Y-9702460D02*
X4648753Y-9711984D01*
X4648753Y-9711984D02*
X4639229Y-9702460D01*
X4639229Y-9702460D02*
X4648753Y-9692936D01*
X4648753Y-9692936D02*
X4648753Y-9711984D01*
X4848753Y-9711984D02*
X4734467Y-9711984D01*
X4791610Y-9711984D02*
X4791610Y-9511984D01*
X4791610Y-9511984D02*
X4772563Y-9540555D01*
X4772563Y-9540555D02*
X4753515Y-9559603D01*
X4753515Y-9559603D02*
X4734467Y-9569127D01*
X4972563Y-9511984D02*
X4991610Y-9511984D01*
X4991610Y-9511984D02*
X5010658Y-9521508D01*
X5010658Y-9521508D02*
X5020182Y-9531031D01*
X5020182Y-9531031D02*
X5029705Y-9550079D01*
X5029705Y-9550079D02*
X5039229Y-9588174D01*
X5039229Y-9588174D02*
X5039229Y-9635793D01*
X5039229Y-9635793D02*
X5029705Y-9673889D01*
X5029705Y-9673889D02*
X5020182Y-9692936D01*
X5020182Y-9692936D02*
X5010658Y-9702460D01*
X5010658Y-9702460D02*
X4991610Y-9711984D01*
X4991610Y-9711984D02*
X4972563Y-9711984D01*
X4972563Y-9711984D02*
X4953515Y-9702460D01*
X4953515Y-9702460D02*
X4943991Y-9692936D01*
X4943991Y-9692936D02*
X4934467Y-9673889D01*
X4934467Y-9673889D02*
X4924944Y-9635793D01*
X4924944Y-9635793D02*
X4924944Y-9588174D01*
X4924944Y-9588174D02*
X4934467Y-9550079D01*
X4934467Y-9550079D02*
X4943991Y-9531031D01*
X4943991Y-9531031D02*
X4953515Y-9521508D01*
X4953515Y-9521508D02*
X4972563Y-9511984D01*
X5163039Y-9511984D02*
X5182086Y-9511984D01*
X5182086Y-9511984D02*
X5201134Y-9521508D01*
X5201134Y-9521508D02*
X5210658Y-9531031D01*
X5210658Y-9531031D02*
X5220182Y-9550079D01*
X5220182Y-9550079D02*
X5229705Y-9588174D01*
X5229705Y-9588174D02*
X5229705Y-9635793D01*
X5229705Y-9635793D02*
X5220182Y-9673889D01*
X5220182Y-9673889D02*
X5210658Y-9692936D01*
X5210658Y-9692936D02*
X5201134Y-9702460D01*
X5201134Y-9702460D02*
X5182086Y-9711984D01*
X5182086Y-9711984D02*
X5163039Y-9711984D01*
X5163039Y-9711984D02*
X5143991Y-9702460D01*
X5143991Y-9702460D02*
X5134467Y-9692936D01*
X5134467Y-9692936D02*
X5124944Y-9673889D01*
X5124944Y-9673889D02*
X5115420Y-9635793D01*
X5115420Y-9635793D02*
X5115420Y-9588174D01*
X5115420Y-9588174D02*
X5124944Y-9550079D01*
X5124944Y-9550079D02*
X5134467Y-9531031D01*
X5134467Y-9531031D02*
X5143991Y-9521508D01*
X5143991Y-9521508D02*
X5163039Y-9511984D01*
X5315420Y-9711984D02*
X5315420Y-9578650D01*
X5315420Y-9597698D02*
X5324944Y-9588174D01*
X5324944Y-9588174D02*
X5343991Y-9578650D01*
X5343991Y-9578650D02*
X5372563Y-9578650D01*
X5372563Y-9578650D02*
X5391610Y-9588174D01*
X5391610Y-9588174D02*
X5401134Y-9607222D01*
X5401134Y-9607222D02*
X5401134Y-9711984D01*
X5401134Y-9607222D02*
X5410658Y-9588174D01*
X5410658Y-9588174D02*
X5429705Y-9578650D01*
X5429705Y-9578650D02*
X5458277Y-9578650D01*
X5458277Y-9578650D02*
X5477325Y-9588174D01*
X5477325Y-9588174D02*
X5486848Y-9607222D01*
X5486848Y-9607222D02*
X5486848Y-9711984D01*
X5582086Y-9711984D02*
X5582086Y-9578650D01*
X5582086Y-9597698D02*
X5591610Y-9588174D01*
X5591610Y-9588174D02*
X5610658Y-9578650D01*
X5610658Y-9578650D02*
X5639229Y-9578650D01*
X5639229Y-9578650D02*
X5658277Y-9588174D01*
X5658277Y-9588174D02*
X5667801Y-9607222D01*
X5667801Y-9607222D02*
X5667801Y-9711984D01*
X5667801Y-9607222D02*
X5677324Y-9588174D01*
X5677324Y-9588174D02*
X5696372Y-9578650D01*
X5696372Y-9578650D02*
X5724943Y-9578650D01*
X5724943Y-9578650D02*
X5743991Y-9588174D01*
X5743991Y-9588174D02*
X5753515Y-9607222D01*
X5753515Y-9607222D02*
X5753515Y-9711984D01*
X6143991Y-9502460D02*
X5972563Y-9759603D01*
X6401134Y-9511984D02*
X6420182Y-9511984D01*
X6420182Y-9511984D02*
X6439229Y-9521508D01*
X6439229Y-9521508D02*
X6448753Y-9531031D01*
X6448753Y-9531031D02*
X6458277Y-9550079D01*
X6458277Y-9550079D02*
X6467801Y-9588174D01*
X6467801Y-9588174D02*
X6467801Y-9635793D01*
X6467801Y-9635793D02*
X6458277Y-9673889D01*
X6458277Y-9673889D02*
X6448753Y-9692936D01*
X6448753Y-9692936D02*
X6439229Y-9702460D01*
X6439229Y-9702460D02*
X6420182Y-9711984D01*
X6420182Y-9711984D02*
X6401134Y-9711984D01*
X6401134Y-9711984D02*
X6382086Y-9702460D01*
X6382086Y-9702460D02*
X6372563Y-9692936D01*
X6372563Y-9692936D02*
X6363039Y-9673889D01*
X6363039Y-9673889D02*
X6353515Y-9635793D01*
X6353515Y-9635793D02*
X6353515Y-9588174D01*
X6353515Y-9588174D02*
X6363039Y-9550079D01*
X6363039Y-9550079D02*
X6372563Y-9531031D01*
X6372563Y-9531031D02*
X6382086Y-9521508D01*
X6382086Y-9521508D02*
X6401134Y-9511984D01*
X6553515Y-9692936D02*
X6563039Y-9702460D01*
X6563039Y-9702460D02*
X6553515Y-9711984D01*
X6553515Y-9711984D02*
X6543991Y-9702460D01*
X6543991Y-9702460D02*
X6553515Y-9692936D01*
X6553515Y-9692936D02*
X6553515Y-9711984D01*
X6686848Y-9511984D02*
X6705896Y-9511984D01*
X6705896Y-9511984D02*
X6724944Y-9521508D01*
X6724944Y-9521508D02*
X6734467Y-9531031D01*
X6734467Y-9531031D02*
X6743991Y-9550079D01*
X6743991Y-9550079D02*
X6753515Y-9588174D01*
X6753515Y-9588174D02*
X6753515Y-9635793D01*
X6753515Y-9635793D02*
X6743991Y-9673889D01*
X6743991Y-9673889D02*
X6734467Y-9692936D01*
X6734467Y-9692936D02*
X6724944Y-9702460D01*
X6724944Y-9702460D02*
X6705896Y-9711984D01*
X6705896Y-9711984D02*
X6686848Y-9711984D01*
X6686848Y-9711984D02*
X6667801Y-9702460D01*
X6667801Y-9702460D02*
X6658277Y-9692936D01*
X6658277Y-9692936D02*
X6648753Y-9673889D01*
X6648753Y-9673889D02*
X6639229Y-9635793D01*
X6639229Y-9635793D02*
X6639229Y-9588174D01*
X6639229Y-9588174D02*
X6648753Y-9550079D01*
X6648753Y-9550079D02*
X6658277Y-9531031D01*
X6658277Y-9531031D02*
X6667801Y-9521508D01*
X6667801Y-9521508D02*
X6686848Y-9511984D01*
X6924944Y-9578650D02*
X6924944Y-9711984D01*
X6877325Y-9502460D02*
X6829706Y-9645317D01*
X6829706Y-9645317D02*
X6953515Y-9645317D01*
X7010658Y-9511984D02*
X7134467Y-9511984D01*
X7134467Y-9511984D02*
X7067801Y-9588174D01*
X7067801Y-9588174D02*
X7096372Y-9588174D01*
X7096372Y-9588174D02*
X7115420Y-9597698D01*
X7115420Y-9597698D02*
X7124944Y-9607222D01*
X7124944Y-9607222D02*
X7134467Y-9626270D01*
X7134467Y-9626270D02*
X7134467Y-9673889D01*
X7134467Y-9673889D02*
X7124944Y-9692936D01*
X7124944Y-9692936D02*
X7115420Y-9702460D01*
X7115420Y-9702460D02*
X7096372Y-9711984D01*
X7096372Y-9711984D02*
X7039229Y-9711984D01*
X7039229Y-9711984D02*
X7020182Y-9702460D01*
X7020182Y-9702460D02*
X7010658Y-9692936D01*
X7201134Y-9511984D02*
X7324944Y-9511984D01*
X7324944Y-9511984D02*
X7258277Y-9588174D01*
X7258277Y-9588174D02*
X7286848Y-9588174D01*
X7286848Y-9588174D02*
X7305896Y-9597698D01*
X7305896Y-9597698D02*
X7315420Y-9607222D01*
X7315420Y-9607222D02*
X7324944Y-9626270D01*
X7324944Y-9626270D02*
X7324944Y-9673889D01*
X7324944Y-9673889D02*
X7315420Y-9692936D01*
X7315420Y-9692936D02*
X7305896Y-9702460D01*
X7305896Y-9702460D02*
X7286848Y-9711984D01*
X7286848Y-9711984D02*
X7229706Y-9711984D01*
X7229706Y-9711984D02*
X7210658Y-9702460D01*
X7210658Y-9702460D02*
X7201134Y-9692936D01*
X7401134Y-9511984D02*
X7401134Y-9550079D01*
X7477325Y-9511984D02*
X7477325Y-9550079D01*
X7772563Y-9788174D02*
X7763039Y-9778650D01*
X7763039Y-9778650D02*
X7743991Y-9750079D01*
X7743991Y-9750079D02*
X7734468Y-9731031D01*
X7734468Y-9731031D02*
X7724944Y-9702460D01*
X7724944Y-9702460D02*
X7715420Y-9654841D01*
X7715420Y-9654841D02*
X7715420Y-9616746D01*
X7715420Y-9616746D02*
X7724944Y-9569127D01*
X7724944Y-9569127D02*
X7734468Y-9540555D01*
X7734468Y-9540555D02*
X7743991Y-9521508D01*
X7743991Y-9521508D02*
X7763039Y-9492936D01*
X7763039Y-9492936D02*
X7772563Y-9483412D01*
X7934468Y-9578650D02*
X7934468Y-9711984D01*
X7886848Y-9502460D02*
X7839229Y-9645317D01*
X7839229Y-9645317D02*
X7963039Y-9645317D01*
X8067801Y-9597698D02*
X8048753Y-9588174D01*
X8048753Y-9588174D02*
X8039229Y-9578650D01*
X8039229Y-9578650D02*
X8029706Y-9559603D01*
X8029706Y-9559603D02*
X8029706Y-9550079D01*
X8029706Y-9550079D02*
X8039229Y-9531031D01*
X8039229Y-9531031D02*
X8048753Y-9521508D01*
X8048753Y-9521508D02*
X8067801Y-9511984D01*
X8067801Y-9511984D02*
X8105896Y-9511984D01*
X8105896Y-9511984D02*
X8124944Y-9521508D01*
X8124944Y-9521508D02*
X8134468Y-9531031D01*
X8134468Y-9531031D02*
X8143991Y-9550079D01*
X8143991Y-9550079D02*
X8143991Y-9559603D01*
X8143991Y-9559603D02*
X8134468Y-9578650D01*
X8134468Y-9578650D02*
X8124944Y-9588174D01*
X8124944Y-9588174D02*
X8105896Y-9597698D01*
X8105896Y-9597698D02*
X8067801Y-9597698D01*
X8067801Y-9597698D02*
X8048753Y-9607222D01*
X8048753Y-9607222D02*
X8039229Y-9616746D01*
X8039229Y-9616746D02*
X8029706Y-9635793D01*
X8029706Y-9635793D02*
X8029706Y-9673889D01*
X8029706Y-9673889D02*
X8039229Y-9692936D01*
X8039229Y-9692936D02*
X8048753Y-9702460D01*
X8048753Y-9702460D02*
X8067801Y-9711984D01*
X8067801Y-9711984D02*
X8105896Y-9711984D01*
X8105896Y-9711984D02*
X8124944Y-9702460D01*
X8124944Y-9702460D02*
X8134468Y-9692936D01*
X8134468Y-9692936D02*
X8143991Y-9673889D01*
X8143991Y-9673889D02*
X8143991Y-9635793D01*
X8143991Y-9635793D02*
X8134468Y-9616746D01*
X8134468Y-9616746D02*
X8124944Y-9607222D01*
X8124944Y-9607222D02*
X8105896Y-9597698D01*
X8382087Y-9711984D02*
X8382087Y-9511984D01*
X8467801Y-9711984D02*
X8467801Y-9607222D01*
X8467801Y-9607222D02*
X8458277Y-9588174D01*
X8458277Y-9588174D02*
X8439230Y-9578650D01*
X8439230Y-9578650D02*
X8410658Y-9578650D01*
X8410658Y-9578650D02*
X8391611Y-9588174D01*
X8391611Y-9588174D02*
X8382087Y-9597698D01*
X8591611Y-9711984D02*
X8572563Y-9702460D01*
X8572563Y-9702460D02*
X8563039Y-9692936D01*
X8563039Y-9692936D02*
X8553515Y-9673889D01*
X8553515Y-9673889D02*
X8553515Y-9616746D01*
X8553515Y-9616746D02*
X8563039Y-9597698D01*
X8563039Y-9597698D02*
X8572563Y-9588174D01*
X8572563Y-9588174D02*
X8591611Y-9578650D01*
X8591611Y-9578650D02*
X8620182Y-9578650D01*
X8620182Y-9578650D02*
X8639230Y-9588174D01*
X8639230Y-9588174D02*
X8648753Y-9597698D01*
X8648753Y-9597698D02*
X8658277Y-9616746D01*
X8658277Y-9616746D02*
X8658277Y-9673889D01*
X8658277Y-9673889D02*
X8648753Y-9692936D01*
X8648753Y-9692936D02*
X8639230Y-9702460D01*
X8639230Y-9702460D02*
X8620182Y-9711984D01*
X8620182Y-9711984D02*
X8591611Y-9711984D01*
X8772563Y-9711984D02*
X8753515Y-9702460D01*
X8753515Y-9702460D02*
X8743992Y-9683412D01*
X8743992Y-9683412D02*
X8743992Y-9511984D01*
X8924944Y-9702460D02*
X8905896Y-9711984D01*
X8905896Y-9711984D02*
X8867801Y-9711984D01*
X8867801Y-9711984D02*
X8848753Y-9702460D01*
X8848753Y-9702460D02*
X8839230Y-9683412D01*
X8839230Y-9683412D02*
X8839230Y-9607222D01*
X8839230Y-9607222D02*
X8848753Y-9588174D01*
X8848753Y-9588174D02*
X8867801Y-9578650D01*
X8867801Y-9578650D02*
X8905896Y-9578650D01*
X8905896Y-9578650D02*
X8924944Y-9588174D01*
X8924944Y-9588174D02*
X8934468Y-9607222D01*
X8934468Y-9607222D02*
X8934468Y-9626270D01*
X8934468Y-9626270D02*
X8839230Y-9645317D01*
X9010658Y-9702460D02*
X9029706Y-9711984D01*
X9029706Y-9711984D02*
X9067801Y-9711984D01*
X9067801Y-9711984D02*
X9086849Y-9702460D01*
X9086849Y-9702460D02*
X9096373Y-9683412D01*
X9096373Y-9683412D02*
X9096373Y-9673889D01*
X9096373Y-9673889D02*
X9086849Y-9654841D01*
X9086849Y-9654841D02*
X9067801Y-9645317D01*
X9067801Y-9645317D02*
X9039230Y-9645317D01*
X9039230Y-9645317D02*
X9020182Y-9635793D01*
X9020182Y-9635793D02*
X9010658Y-9616746D01*
X9010658Y-9616746D02*
X9010658Y-9607222D01*
X9010658Y-9607222D02*
X9020182Y-9588174D01*
X9020182Y-9588174D02*
X9039230Y-9578650D01*
X9039230Y-9578650D02*
X9067801Y-9578650D01*
X9067801Y-9578650D02*
X9086849Y-9588174D01*
X9163039Y-9788174D02*
X9172563Y-9778650D01*
X9172563Y-9778650D02*
X9191611Y-9750079D01*
X9191611Y-9750079D02*
X9201134Y-9731031D01*
X9201134Y-9731031D02*
X9210658Y-9702460D01*
X9210658Y-9702460D02*
X9220182Y-9654841D01*
X9220182Y-9654841D02*
X9220182Y-9616746D01*
X9220182Y-9616746D02*
X9210658Y-9569127D01*
X9210658Y-9569127D02*
X9201134Y-9540555D01*
X9201134Y-9540555D02*
X9191611Y-9521508D01*
X9191611Y-9521508D02*
X9172563Y-9492936D01*
X9172563Y-9492936D02*
X9163039Y-9483412D01*
D15*
X4172605Y-9944605D02*
X4172605Y-9824395D01*
X4052395Y-9824395D01*
X4052395Y-9944605D01*
X4172605Y-9944605D01*
D12*
X4563039Y-9975984D02*
X4448753Y-9975984D01*
X4505896Y-9975984D02*
X4505896Y-9775984D01*
X4505896Y-9775984D02*
X4486848Y-9804555D01*
X4486848Y-9804555D02*
X4467801Y-9823603D01*
X4467801Y-9823603D02*
X4448753Y-9833127D01*
X4648753Y-9956936D02*
X4658277Y-9966460D01*
X4658277Y-9966460D02*
X4648753Y-9975984D01*
X4648753Y-9975984D02*
X4639229Y-9966460D01*
X4639229Y-9966460D02*
X4648753Y-9956936D01*
X4648753Y-9956936D02*
X4648753Y-9975984D01*
X4724944Y-9775984D02*
X4858277Y-9775984D01*
X4858277Y-9775984D02*
X4772563Y-9975984D01*
X4972563Y-9775984D02*
X4991610Y-9775984D01*
X4991610Y-9775984D02*
X5010658Y-9785508D01*
X5010658Y-9785508D02*
X5020182Y-9795031D01*
X5020182Y-9795031D02*
X5029705Y-9814079D01*
X5029705Y-9814079D02*
X5039229Y-9852174D01*
X5039229Y-9852174D02*
X5039229Y-9899793D01*
X5039229Y-9899793D02*
X5029705Y-9937889D01*
X5029705Y-9937889D02*
X5020182Y-9956936D01*
X5020182Y-9956936D02*
X5010658Y-9966460D01*
X5010658Y-9966460D02*
X4991610Y-9975984D01*
X4991610Y-9975984D02*
X4972563Y-9975984D01*
X4972563Y-9975984D02*
X4953515Y-9966460D01*
X4953515Y-9966460D02*
X4943991Y-9956936D01*
X4943991Y-9956936D02*
X4934467Y-9937889D01*
X4934467Y-9937889D02*
X4924944Y-9899793D01*
X4924944Y-9899793D02*
X4924944Y-9852174D01*
X4924944Y-9852174D02*
X4934467Y-9814079D01*
X4934467Y-9814079D02*
X4943991Y-9795031D01*
X4943991Y-9795031D02*
X4953515Y-9785508D01*
X4953515Y-9785508D02*
X4972563Y-9775984D01*
X5163039Y-9775984D02*
X5182086Y-9775984D01*
X5182086Y-9775984D02*
X5201134Y-9785508D01*
X5201134Y-9785508D02*
X5210658Y-9795031D01*
X5210658Y-9795031D02*
X5220182Y-9814079D01*
X5220182Y-9814079D02*
X5229705Y-9852174D01*
X5229705Y-9852174D02*
X5229705Y-9899793D01*
X5229705Y-9899793D02*
X5220182Y-9937889D01*
X5220182Y-9937889D02*
X5210658Y-9956936D01*
X5210658Y-9956936D02*
X5201134Y-9966460D01*
X5201134Y-9966460D02*
X5182086Y-9975984D01*
X5182086Y-9975984D02*
X5163039Y-9975984D01*
X5163039Y-9975984D02*
X5143991Y-9966460D01*
X5143991Y-9966460D02*
X5134467Y-9956936D01*
X5134467Y-9956936D02*
X5124944Y-9937889D01*
X5124944Y-9937889D02*
X5115420Y-9899793D01*
X5115420Y-9899793D02*
X5115420Y-9852174D01*
X5115420Y-9852174D02*
X5124944Y-9814079D01*
X5124944Y-9814079D02*
X5134467Y-9795031D01*
X5134467Y-9795031D02*
X5143991Y-9785508D01*
X5143991Y-9785508D02*
X5163039Y-9775984D01*
X5315420Y-9975984D02*
X5315420Y-9842650D01*
X5315420Y-9861698D02*
X5324944Y-9852174D01*
X5324944Y-9852174D02*
X5343991Y-9842650D01*
X5343991Y-9842650D02*
X5372563Y-9842650D01*
X5372563Y-9842650D02*
X5391610Y-9852174D01*
X5391610Y-9852174D02*
X5401134Y-9871222D01*
X5401134Y-9871222D02*
X5401134Y-9975984D01*
X5401134Y-9871222D02*
X5410658Y-9852174D01*
X5410658Y-9852174D02*
X5429705Y-9842650D01*
X5429705Y-9842650D02*
X5458277Y-9842650D01*
X5458277Y-9842650D02*
X5477325Y-9852174D01*
X5477325Y-9852174D02*
X5486848Y-9871222D01*
X5486848Y-9871222D02*
X5486848Y-9975984D01*
X5582086Y-9975984D02*
X5582086Y-9842650D01*
X5582086Y-9861698D02*
X5591610Y-9852174D01*
X5591610Y-9852174D02*
X5610658Y-9842650D01*
X5610658Y-9842650D02*
X5639229Y-9842650D01*
X5639229Y-9842650D02*
X5658277Y-9852174D01*
X5658277Y-9852174D02*
X5667801Y-9871222D01*
X5667801Y-9871222D02*
X5667801Y-9975984D01*
X5667801Y-9871222D02*
X5677324Y-9852174D01*
X5677324Y-9852174D02*
X5696372Y-9842650D01*
X5696372Y-9842650D02*
X5724943Y-9842650D01*
X5724943Y-9842650D02*
X5743991Y-9852174D01*
X5743991Y-9852174D02*
X5753515Y-9871222D01*
X5753515Y-9871222D02*
X5753515Y-9975984D01*
X6143991Y-9766460D02*
X5972563Y-10023603D01*
X6401134Y-9775984D02*
X6420182Y-9775984D01*
X6420182Y-9775984D02*
X6439229Y-9785508D01*
X6439229Y-9785508D02*
X6448753Y-9795031D01*
X6448753Y-9795031D02*
X6458277Y-9814079D01*
X6458277Y-9814079D02*
X6467801Y-9852174D01*
X6467801Y-9852174D02*
X6467801Y-9899793D01*
X6467801Y-9899793D02*
X6458277Y-9937889D01*
X6458277Y-9937889D02*
X6448753Y-9956936D01*
X6448753Y-9956936D02*
X6439229Y-9966460D01*
X6439229Y-9966460D02*
X6420182Y-9975984D01*
X6420182Y-9975984D02*
X6401134Y-9975984D01*
X6401134Y-9975984D02*
X6382086Y-9966460D01*
X6382086Y-9966460D02*
X6372563Y-9956936D01*
X6372563Y-9956936D02*
X6363039Y-9937889D01*
X6363039Y-9937889D02*
X6353515Y-9899793D01*
X6353515Y-9899793D02*
X6353515Y-9852174D01*
X6353515Y-9852174D02*
X6363039Y-9814079D01*
X6363039Y-9814079D02*
X6372563Y-9795031D01*
X6372563Y-9795031D02*
X6382086Y-9785508D01*
X6382086Y-9785508D02*
X6401134Y-9775984D01*
X6553515Y-9956936D02*
X6563039Y-9966460D01*
X6563039Y-9966460D02*
X6553515Y-9975984D01*
X6553515Y-9975984D02*
X6543991Y-9966460D01*
X6543991Y-9966460D02*
X6553515Y-9956936D01*
X6553515Y-9956936D02*
X6553515Y-9975984D01*
X6686848Y-9775984D02*
X6705896Y-9775984D01*
X6705896Y-9775984D02*
X6724944Y-9785508D01*
X6724944Y-9785508D02*
X6734467Y-9795031D01*
X6734467Y-9795031D02*
X6743991Y-9814079D01*
X6743991Y-9814079D02*
X6753515Y-9852174D01*
X6753515Y-9852174D02*
X6753515Y-9899793D01*
X6753515Y-9899793D02*
X6743991Y-9937889D01*
X6743991Y-9937889D02*
X6734467Y-9956936D01*
X6734467Y-9956936D02*
X6724944Y-9966460D01*
X6724944Y-9966460D02*
X6705896Y-9975984D01*
X6705896Y-9975984D02*
X6686848Y-9975984D01*
X6686848Y-9975984D02*
X6667801Y-9966460D01*
X6667801Y-9966460D02*
X6658277Y-9956936D01*
X6658277Y-9956936D02*
X6648753Y-9937889D01*
X6648753Y-9937889D02*
X6639229Y-9899793D01*
X6639229Y-9899793D02*
X6639229Y-9852174D01*
X6639229Y-9852174D02*
X6648753Y-9814079D01*
X6648753Y-9814079D02*
X6658277Y-9795031D01*
X6658277Y-9795031D02*
X6667801Y-9785508D01*
X6667801Y-9785508D02*
X6686848Y-9775984D01*
X6924944Y-9775984D02*
X6886848Y-9775984D01*
X6886848Y-9775984D02*
X6867801Y-9785508D01*
X6867801Y-9785508D02*
X6858277Y-9795031D01*
X6858277Y-9795031D02*
X6839229Y-9823603D01*
X6839229Y-9823603D02*
X6829706Y-9861698D01*
X6829706Y-9861698D02*
X6829706Y-9937889D01*
X6829706Y-9937889D02*
X6839229Y-9956936D01*
X6839229Y-9956936D02*
X6848753Y-9966460D01*
X6848753Y-9966460D02*
X6867801Y-9975984D01*
X6867801Y-9975984D02*
X6905896Y-9975984D01*
X6905896Y-9975984D02*
X6924944Y-9966460D01*
X6924944Y-9966460D02*
X6934467Y-9956936D01*
X6934467Y-9956936D02*
X6943991Y-9937889D01*
X6943991Y-9937889D02*
X6943991Y-9890270D01*
X6943991Y-9890270D02*
X6934467Y-9871222D01*
X6934467Y-9871222D02*
X6924944Y-9861698D01*
X6924944Y-9861698D02*
X6905896Y-9852174D01*
X6905896Y-9852174D02*
X6867801Y-9852174D01*
X6867801Y-9852174D02*
X6848753Y-9861698D01*
X6848753Y-9861698D02*
X6839229Y-9871222D01*
X6839229Y-9871222D02*
X6829706Y-9890270D01*
X7115420Y-9775984D02*
X7077325Y-9775984D01*
X7077325Y-9775984D02*
X7058277Y-9785508D01*
X7058277Y-9785508D02*
X7048753Y-9795031D01*
X7048753Y-9795031D02*
X7029706Y-9823603D01*
X7029706Y-9823603D02*
X7020182Y-9861698D01*
X7020182Y-9861698D02*
X7020182Y-9937889D01*
X7020182Y-9937889D02*
X7029706Y-9956936D01*
X7029706Y-9956936D02*
X7039229Y-9966460D01*
X7039229Y-9966460D02*
X7058277Y-9975984D01*
X7058277Y-9975984D02*
X7096372Y-9975984D01*
X7096372Y-9975984D02*
X7115420Y-9966460D01*
X7115420Y-9966460D02*
X7124944Y-9956936D01*
X7124944Y-9956936D02*
X7134467Y-9937889D01*
X7134467Y-9937889D02*
X7134467Y-9890270D01*
X7134467Y-9890270D02*
X7124944Y-9871222D01*
X7124944Y-9871222D02*
X7115420Y-9861698D01*
X7115420Y-9861698D02*
X7096372Y-9852174D01*
X7096372Y-9852174D02*
X7058277Y-9852174D01*
X7058277Y-9852174D02*
X7039229Y-9861698D01*
X7039229Y-9861698D02*
X7029706Y-9871222D01*
X7029706Y-9871222D02*
X7020182Y-9890270D01*
X7229706Y-9975984D02*
X7267801Y-9975984D01*
X7267801Y-9975984D02*
X7286848Y-9966460D01*
X7286848Y-9966460D02*
X7296372Y-9956936D01*
X7296372Y-9956936D02*
X7315420Y-9928365D01*
X7315420Y-9928365D02*
X7324944Y-9890270D01*
X7324944Y-9890270D02*
X7324944Y-9814079D01*
X7324944Y-9814079D02*
X7315420Y-9795031D01*
X7315420Y-9795031D02*
X7305896Y-9785508D01*
X7305896Y-9785508D02*
X7286848Y-9775984D01*
X7286848Y-9775984D02*
X7248753Y-9775984D01*
X7248753Y-9775984D02*
X7229706Y-9785508D01*
X7229706Y-9785508D02*
X7220182Y-9795031D01*
X7220182Y-9795031D02*
X7210658Y-9814079D01*
X7210658Y-9814079D02*
X7210658Y-9861698D01*
X7210658Y-9861698D02*
X7220182Y-9880746D01*
X7220182Y-9880746D02*
X7229706Y-9890270D01*
X7229706Y-9890270D02*
X7248753Y-9899793D01*
X7248753Y-9899793D02*
X7286848Y-9899793D01*
X7286848Y-9899793D02*
X7305896Y-9890270D01*
X7305896Y-9890270D02*
X7315420Y-9880746D01*
X7315420Y-9880746D02*
X7324944Y-9861698D01*
X7401134Y-9775984D02*
X7401134Y-9814079D01*
X7477325Y-9775984D02*
X7477325Y-9814079D01*
X7772563Y-10052174D02*
X7763039Y-10042650D01*
X7763039Y-10042650D02*
X7743991Y-10014079D01*
X7743991Y-10014079D02*
X7734468Y-9995031D01*
X7734468Y-9995031D02*
X7724944Y-9966460D01*
X7724944Y-9966460D02*
X7715420Y-9918841D01*
X7715420Y-9918841D02*
X7715420Y-9880746D01*
X7715420Y-9880746D02*
X7724944Y-9833127D01*
X7724944Y-9833127D02*
X7734468Y-9804555D01*
X7734468Y-9804555D02*
X7743991Y-9785508D01*
X7743991Y-9785508D02*
X7763039Y-9756936D01*
X7763039Y-9756936D02*
X7772563Y-9747412D01*
X7829706Y-9775984D02*
X7953515Y-9775984D01*
X7953515Y-9775984D02*
X7886848Y-9852174D01*
X7886848Y-9852174D02*
X7915420Y-9852174D01*
X7915420Y-9852174D02*
X7934468Y-9861698D01*
X7934468Y-9861698D02*
X7943991Y-9871222D01*
X7943991Y-9871222D02*
X7953515Y-9890270D01*
X7953515Y-9890270D02*
X7953515Y-9937889D01*
X7953515Y-9937889D02*
X7943991Y-9956936D01*
X7943991Y-9956936D02*
X7934468Y-9966460D01*
X7934468Y-9966460D02*
X7915420Y-9975984D01*
X7915420Y-9975984D02*
X7858277Y-9975984D01*
X7858277Y-9975984D02*
X7839229Y-9966460D01*
X7839229Y-9966460D02*
X7829706Y-9956936D01*
X8191610Y-9975984D02*
X8191610Y-9775984D01*
X8277325Y-9975984D02*
X8277325Y-9871222D01*
X8277325Y-9871222D02*
X8267801Y-9852174D01*
X8267801Y-9852174D02*
X8248753Y-9842650D01*
X8248753Y-9842650D02*
X8220182Y-9842650D01*
X8220182Y-9842650D02*
X8201134Y-9852174D01*
X8201134Y-9852174D02*
X8191610Y-9861698D01*
X8401134Y-9975984D02*
X8382087Y-9966460D01*
X8382087Y-9966460D02*
X8372563Y-9956936D01*
X8372563Y-9956936D02*
X8363039Y-9937889D01*
X8363039Y-9937889D02*
X8363039Y-9880746D01*
X8363039Y-9880746D02*
X8372563Y-9861698D01*
X8372563Y-9861698D02*
X8382087Y-9852174D01*
X8382087Y-9852174D02*
X8401134Y-9842650D01*
X8401134Y-9842650D02*
X8429706Y-9842650D01*
X8429706Y-9842650D02*
X8448753Y-9852174D01*
X8448753Y-9852174D02*
X8458277Y-9861698D01*
X8458277Y-9861698D02*
X8467801Y-9880746D01*
X8467801Y-9880746D02*
X8467801Y-9937889D01*
X8467801Y-9937889D02*
X8458277Y-9956936D01*
X8458277Y-9956936D02*
X8448753Y-9966460D01*
X8448753Y-9966460D02*
X8429706Y-9975984D01*
X8429706Y-9975984D02*
X8401134Y-9975984D01*
X8582087Y-9975984D02*
X8563039Y-9966460D01*
X8563039Y-9966460D02*
X8553515Y-9947412D01*
X8553515Y-9947412D02*
X8553515Y-9775984D01*
X8734468Y-9966460D02*
X8715420Y-9975984D01*
X8715420Y-9975984D02*
X8677325Y-9975984D01*
X8677325Y-9975984D02*
X8658277Y-9966460D01*
X8658277Y-9966460D02*
X8648753Y-9947412D01*
X8648753Y-9947412D02*
X8648753Y-9871222D01*
X8648753Y-9871222D02*
X8658277Y-9852174D01*
X8658277Y-9852174D02*
X8677325Y-9842650D01*
X8677325Y-9842650D02*
X8715420Y-9842650D01*
X8715420Y-9842650D02*
X8734468Y-9852174D01*
X8734468Y-9852174D02*
X8743992Y-9871222D01*
X8743992Y-9871222D02*
X8743992Y-9890270D01*
X8743992Y-9890270D02*
X8648753Y-9909317D01*
X8820182Y-9966460D02*
X8839230Y-9975984D01*
X8839230Y-9975984D02*
X8877325Y-9975984D01*
X8877325Y-9975984D02*
X8896373Y-9966460D01*
X8896373Y-9966460D02*
X8905896Y-9947412D01*
X8905896Y-9947412D02*
X8905896Y-9937889D01*
X8905896Y-9937889D02*
X8896373Y-9918841D01*
X8896373Y-9918841D02*
X8877325Y-9909317D01*
X8877325Y-9909317D02*
X8848753Y-9909317D01*
X8848753Y-9909317D02*
X8829706Y-9899793D01*
X8829706Y-9899793D02*
X8820182Y-9880746D01*
X8820182Y-9880746D02*
X8820182Y-9871222D01*
X8820182Y-9871222D02*
X8829706Y-9852174D01*
X8829706Y-9852174D02*
X8848753Y-9842650D01*
X8848753Y-9842650D02*
X8877325Y-9842650D01*
X8877325Y-9842650D02*
X8896373Y-9852174D01*
X8972563Y-10052174D02*
X8982087Y-10042650D01*
X8982087Y-10042650D02*
X9001134Y-10014079D01*
X9001134Y-10014079D02*
X9010658Y-9995031D01*
X9010658Y-9995031D02*
X9020182Y-9966460D01*
X9020182Y-9966460D02*
X9029706Y-9918841D01*
X9029706Y-9918841D02*
X9029706Y-9880746D01*
X9029706Y-9880746D02*
X9020182Y-9833127D01*
X9020182Y-9833127D02*
X9010658Y-9804555D01*
X9010658Y-9804555D02*
X9001134Y-9785508D01*
X9001134Y-9785508D02*
X8982087Y-9756936D01*
X8982087Y-9756936D02*
X8972563Y-9747412D01*
X4097500Y-10274500D02*
X4197500Y-10174500D01*
X4097500Y-10074500D01*
X3997500Y-10174500D01*
X4097500Y-10274500D01*
X4543991Y-10132650D02*
X4543991Y-10265984D01*
X4496372Y-10056460D02*
X4448753Y-10199317D01*
X4448753Y-10199317D02*
X4572563Y-10199317D01*
X4648753Y-10246936D02*
X4658277Y-10256460D01*
X4658277Y-10256460D02*
X4648753Y-10265984D01*
X4648753Y-10265984D02*
X4639229Y-10256460D01*
X4639229Y-10256460D02*
X4648753Y-10246936D01*
X4648753Y-10246936D02*
X4648753Y-10265984D01*
X4724944Y-10065984D02*
X4848753Y-10065984D01*
X4848753Y-10065984D02*
X4782086Y-10142174D01*
X4782086Y-10142174D02*
X4810658Y-10142174D01*
X4810658Y-10142174D02*
X4829705Y-10151698D01*
X4829705Y-10151698D02*
X4839229Y-10161222D01*
X4839229Y-10161222D02*
X4848753Y-10180270D01*
X4848753Y-10180270D02*
X4848753Y-10227889D01*
X4848753Y-10227889D02*
X4839229Y-10246936D01*
X4839229Y-10246936D02*
X4829705Y-10256460D01*
X4829705Y-10256460D02*
X4810658Y-10265984D01*
X4810658Y-10265984D02*
X4753515Y-10265984D01*
X4753515Y-10265984D02*
X4734467Y-10256460D01*
X4734467Y-10256460D02*
X4724944Y-10246936D01*
X4972563Y-10065984D02*
X4991610Y-10065984D01*
X4991610Y-10065984D02*
X5010658Y-10075508D01*
X5010658Y-10075508D02*
X5020182Y-10085031D01*
X5020182Y-10085031D02*
X5029705Y-10104079D01*
X5029705Y-10104079D02*
X5039229Y-10142174D01*
X5039229Y-10142174D02*
X5039229Y-10189793D01*
X5039229Y-10189793D02*
X5029705Y-10227889D01*
X5029705Y-10227889D02*
X5020182Y-10246936D01*
X5020182Y-10246936D02*
X5010658Y-10256460D01*
X5010658Y-10256460D02*
X4991610Y-10265984D01*
X4991610Y-10265984D02*
X4972563Y-10265984D01*
X4972563Y-10265984D02*
X4953515Y-10256460D01*
X4953515Y-10256460D02*
X4943991Y-10246936D01*
X4943991Y-10246936D02*
X4934467Y-10227889D01*
X4934467Y-10227889D02*
X4924944Y-10189793D01*
X4924944Y-10189793D02*
X4924944Y-10142174D01*
X4924944Y-10142174D02*
X4934467Y-10104079D01*
X4934467Y-10104079D02*
X4943991Y-10085031D01*
X4943991Y-10085031D02*
X4953515Y-10075508D01*
X4953515Y-10075508D02*
X4972563Y-10065984D01*
X5163039Y-10065984D02*
X5182086Y-10065984D01*
X5182086Y-10065984D02*
X5201134Y-10075508D01*
X5201134Y-10075508D02*
X5210658Y-10085031D01*
X5210658Y-10085031D02*
X5220182Y-10104079D01*
X5220182Y-10104079D02*
X5229705Y-10142174D01*
X5229705Y-10142174D02*
X5229705Y-10189793D01*
X5229705Y-10189793D02*
X5220182Y-10227889D01*
X5220182Y-10227889D02*
X5210658Y-10246936D01*
X5210658Y-10246936D02*
X5201134Y-10256460D01*
X5201134Y-10256460D02*
X5182086Y-10265984D01*
X5182086Y-10265984D02*
X5163039Y-10265984D01*
X5163039Y-10265984D02*
X5143991Y-10256460D01*
X5143991Y-10256460D02*
X5134467Y-10246936D01*
X5134467Y-10246936D02*
X5124944Y-10227889D01*
X5124944Y-10227889D02*
X5115420Y-10189793D01*
X5115420Y-10189793D02*
X5115420Y-10142174D01*
X5115420Y-10142174D02*
X5124944Y-10104079D01*
X5124944Y-10104079D02*
X5134467Y-10085031D01*
X5134467Y-10085031D02*
X5143991Y-10075508D01*
X5143991Y-10075508D02*
X5163039Y-10065984D01*
X5315420Y-10265984D02*
X5315420Y-10132650D01*
X5315420Y-10151698D02*
X5324944Y-10142174D01*
X5324944Y-10142174D02*
X5343991Y-10132650D01*
X5343991Y-10132650D02*
X5372563Y-10132650D01*
X5372563Y-10132650D02*
X5391610Y-10142174D01*
X5391610Y-10142174D02*
X5401134Y-10161222D01*
X5401134Y-10161222D02*
X5401134Y-10265984D01*
X5401134Y-10161222D02*
X5410658Y-10142174D01*
X5410658Y-10142174D02*
X5429705Y-10132650D01*
X5429705Y-10132650D02*
X5458277Y-10132650D01*
X5458277Y-10132650D02*
X5477325Y-10142174D01*
X5477325Y-10142174D02*
X5486848Y-10161222D01*
X5486848Y-10161222D02*
X5486848Y-10265984D01*
X5582086Y-10265984D02*
X5582086Y-10132650D01*
X5582086Y-10151698D02*
X5591610Y-10142174D01*
X5591610Y-10142174D02*
X5610658Y-10132650D01*
X5610658Y-10132650D02*
X5639229Y-10132650D01*
X5639229Y-10132650D02*
X5658277Y-10142174D01*
X5658277Y-10142174D02*
X5667801Y-10161222D01*
X5667801Y-10161222D02*
X5667801Y-10265984D01*
X5667801Y-10161222D02*
X5677324Y-10142174D01*
X5677324Y-10142174D02*
X5696372Y-10132650D01*
X5696372Y-10132650D02*
X5724943Y-10132650D01*
X5724943Y-10132650D02*
X5743991Y-10142174D01*
X5743991Y-10142174D02*
X5753515Y-10161222D01*
X5753515Y-10161222D02*
X5753515Y-10265984D01*
X6143991Y-10056460D02*
X5972563Y-10313603D01*
X6401134Y-10065984D02*
X6420182Y-10065984D01*
X6420182Y-10065984D02*
X6439229Y-10075508D01*
X6439229Y-10075508D02*
X6448753Y-10085031D01*
X6448753Y-10085031D02*
X6458277Y-10104079D01*
X6458277Y-10104079D02*
X6467801Y-10142174D01*
X6467801Y-10142174D02*
X6467801Y-10189793D01*
X6467801Y-10189793D02*
X6458277Y-10227889D01*
X6458277Y-10227889D02*
X6448753Y-10246936D01*
X6448753Y-10246936D02*
X6439229Y-10256460D01*
X6439229Y-10256460D02*
X6420182Y-10265984D01*
X6420182Y-10265984D02*
X6401134Y-10265984D01*
X6401134Y-10265984D02*
X6382086Y-10256460D01*
X6382086Y-10256460D02*
X6372563Y-10246936D01*
X6372563Y-10246936D02*
X6363039Y-10227889D01*
X6363039Y-10227889D02*
X6353515Y-10189793D01*
X6353515Y-10189793D02*
X6353515Y-10142174D01*
X6353515Y-10142174D02*
X6363039Y-10104079D01*
X6363039Y-10104079D02*
X6372563Y-10085031D01*
X6372563Y-10085031D02*
X6382086Y-10075508D01*
X6382086Y-10075508D02*
X6401134Y-10065984D01*
X6553515Y-10246936D02*
X6563039Y-10256460D01*
X6563039Y-10256460D02*
X6553515Y-10265984D01*
X6553515Y-10265984D02*
X6543991Y-10256460D01*
X6543991Y-10256460D02*
X6553515Y-10246936D01*
X6553515Y-10246936D02*
X6553515Y-10265984D01*
X6753515Y-10265984D02*
X6639229Y-10265984D01*
X6696372Y-10265984D02*
X6696372Y-10065984D01*
X6696372Y-10065984D02*
X6677325Y-10094555D01*
X6677325Y-10094555D02*
X6658277Y-10113603D01*
X6658277Y-10113603D02*
X6639229Y-10123127D01*
X6924944Y-10065984D02*
X6886848Y-10065984D01*
X6886848Y-10065984D02*
X6867801Y-10075508D01*
X6867801Y-10075508D02*
X6858277Y-10085031D01*
X6858277Y-10085031D02*
X6839229Y-10113603D01*
X6839229Y-10113603D02*
X6829706Y-10151698D01*
X6829706Y-10151698D02*
X6829706Y-10227889D01*
X6829706Y-10227889D02*
X6839229Y-10246936D01*
X6839229Y-10246936D02*
X6848753Y-10256460D01*
X6848753Y-10256460D02*
X6867801Y-10265984D01*
X6867801Y-10265984D02*
X6905896Y-10265984D01*
X6905896Y-10265984D02*
X6924944Y-10256460D01*
X6924944Y-10256460D02*
X6934467Y-10246936D01*
X6934467Y-10246936D02*
X6943991Y-10227889D01*
X6943991Y-10227889D02*
X6943991Y-10180270D01*
X6943991Y-10180270D02*
X6934467Y-10161222D01*
X6934467Y-10161222D02*
X6924944Y-10151698D01*
X6924944Y-10151698D02*
X6905896Y-10142174D01*
X6905896Y-10142174D02*
X6867801Y-10142174D01*
X6867801Y-10142174D02*
X6848753Y-10151698D01*
X6848753Y-10151698D02*
X6839229Y-10161222D01*
X6839229Y-10161222D02*
X6829706Y-10180270D01*
X7039229Y-10265984D02*
X7077325Y-10265984D01*
X7077325Y-10265984D02*
X7096372Y-10256460D01*
X7096372Y-10256460D02*
X7105896Y-10246936D01*
X7105896Y-10246936D02*
X7124944Y-10218365D01*
X7124944Y-10218365D02*
X7134467Y-10180270D01*
X7134467Y-10180270D02*
X7134467Y-10104079D01*
X7134467Y-10104079D02*
X7124944Y-10085031D01*
X7124944Y-10085031D02*
X7115420Y-10075508D01*
X7115420Y-10075508D02*
X7096372Y-10065984D01*
X7096372Y-10065984D02*
X7058277Y-10065984D01*
X7058277Y-10065984D02*
X7039229Y-10075508D01*
X7039229Y-10075508D02*
X7029706Y-10085031D01*
X7029706Y-10085031D02*
X7020182Y-10104079D01*
X7020182Y-10104079D02*
X7020182Y-10151698D01*
X7020182Y-10151698D02*
X7029706Y-10170746D01*
X7029706Y-10170746D02*
X7039229Y-10180270D01*
X7039229Y-10180270D02*
X7058277Y-10189793D01*
X7058277Y-10189793D02*
X7096372Y-10189793D01*
X7096372Y-10189793D02*
X7115420Y-10180270D01*
X7115420Y-10180270D02*
X7124944Y-10170746D01*
X7124944Y-10170746D02*
X7134467Y-10151698D01*
X7201134Y-10065984D02*
X7324944Y-10065984D01*
X7324944Y-10065984D02*
X7258277Y-10142174D01*
X7258277Y-10142174D02*
X7286848Y-10142174D01*
X7286848Y-10142174D02*
X7305896Y-10151698D01*
X7305896Y-10151698D02*
X7315420Y-10161222D01*
X7315420Y-10161222D02*
X7324944Y-10180270D01*
X7324944Y-10180270D02*
X7324944Y-10227889D01*
X7324944Y-10227889D02*
X7315420Y-10246936D01*
X7315420Y-10246936D02*
X7305896Y-10256460D01*
X7305896Y-10256460D02*
X7286848Y-10265984D01*
X7286848Y-10265984D02*
X7229706Y-10265984D01*
X7229706Y-10265984D02*
X7210658Y-10256460D01*
X7210658Y-10256460D02*
X7201134Y-10246936D01*
X7401134Y-10065984D02*
X7401134Y-10104079D01*
X7477325Y-10065984D02*
X7477325Y-10104079D01*
X7772563Y-10342174D02*
X7763039Y-10332650D01*
X7763039Y-10332650D02*
X7743991Y-10304079D01*
X7743991Y-10304079D02*
X7734468Y-10285031D01*
X7734468Y-10285031D02*
X7724944Y-10256460D01*
X7724944Y-10256460D02*
X7715420Y-10208841D01*
X7715420Y-10208841D02*
X7715420Y-10170746D01*
X7715420Y-10170746D02*
X7724944Y-10123127D01*
X7724944Y-10123127D02*
X7734468Y-10094555D01*
X7734468Y-10094555D02*
X7743991Y-10075508D01*
X7743991Y-10075508D02*
X7763039Y-10046936D01*
X7763039Y-10046936D02*
X7772563Y-10037412D01*
X7934468Y-10132650D02*
X7934468Y-10265984D01*
X7886848Y-10056460D02*
X7839229Y-10199317D01*
X7839229Y-10199317D02*
X7963039Y-10199317D01*
X8191610Y-10265984D02*
X8191610Y-10065984D01*
X8277325Y-10265984D02*
X8277325Y-10161222D01*
X8277325Y-10161222D02*
X8267801Y-10142174D01*
X8267801Y-10142174D02*
X8248753Y-10132650D01*
X8248753Y-10132650D02*
X8220182Y-10132650D01*
X8220182Y-10132650D02*
X8201134Y-10142174D01*
X8201134Y-10142174D02*
X8191610Y-10151698D01*
X8401134Y-10265984D02*
X8382087Y-10256460D01*
X8382087Y-10256460D02*
X8372563Y-10246936D01*
X8372563Y-10246936D02*
X8363039Y-10227889D01*
X8363039Y-10227889D02*
X8363039Y-10170746D01*
X8363039Y-10170746D02*
X8372563Y-10151698D01*
X8372563Y-10151698D02*
X8382087Y-10142174D01*
X8382087Y-10142174D02*
X8401134Y-10132650D01*
X8401134Y-10132650D02*
X8429706Y-10132650D01*
X8429706Y-10132650D02*
X8448753Y-10142174D01*
X8448753Y-10142174D02*
X8458277Y-10151698D01*
X8458277Y-10151698D02*
X8467801Y-10170746D01*
X8467801Y-10170746D02*
X8467801Y-10227889D01*
X8467801Y-10227889D02*
X8458277Y-10246936D01*
X8458277Y-10246936D02*
X8448753Y-10256460D01*
X8448753Y-10256460D02*
X8429706Y-10265984D01*
X8429706Y-10265984D02*
X8401134Y-10265984D01*
X8582087Y-10265984D02*
X8563039Y-10256460D01*
X8563039Y-10256460D02*
X8553515Y-10237412D01*
X8553515Y-10237412D02*
X8553515Y-10065984D01*
X8734468Y-10256460D02*
X8715420Y-10265984D01*
X8715420Y-10265984D02*
X8677325Y-10265984D01*
X8677325Y-10265984D02*
X8658277Y-10256460D01*
X8658277Y-10256460D02*
X8648753Y-10237412D01*
X8648753Y-10237412D02*
X8648753Y-10161222D01*
X8648753Y-10161222D02*
X8658277Y-10142174D01*
X8658277Y-10142174D02*
X8677325Y-10132650D01*
X8677325Y-10132650D02*
X8715420Y-10132650D01*
X8715420Y-10132650D02*
X8734468Y-10142174D01*
X8734468Y-10142174D02*
X8743992Y-10161222D01*
X8743992Y-10161222D02*
X8743992Y-10180270D01*
X8743992Y-10180270D02*
X8648753Y-10199317D01*
X8820182Y-10256460D02*
X8839230Y-10265984D01*
X8839230Y-10265984D02*
X8877325Y-10265984D01*
X8877325Y-10265984D02*
X8896373Y-10256460D01*
X8896373Y-10256460D02*
X8905896Y-10237412D01*
X8905896Y-10237412D02*
X8905896Y-10227889D01*
X8905896Y-10227889D02*
X8896373Y-10208841D01*
X8896373Y-10208841D02*
X8877325Y-10199317D01*
X8877325Y-10199317D02*
X8848753Y-10199317D01*
X8848753Y-10199317D02*
X8829706Y-10189793D01*
X8829706Y-10189793D02*
X8820182Y-10170746D01*
X8820182Y-10170746D02*
X8820182Y-10161222D01*
X8820182Y-10161222D02*
X8829706Y-10142174D01*
X8829706Y-10142174D02*
X8848753Y-10132650D01*
X8848753Y-10132650D02*
X8877325Y-10132650D01*
X8877325Y-10132650D02*
X8896373Y-10142174D01*
X8972563Y-10342174D02*
X8982087Y-10332650D01*
X8982087Y-10332650D02*
X9001134Y-10304079D01*
X9001134Y-10304079D02*
X9010658Y-10285031D01*
X9010658Y-10285031D02*
X9020182Y-10256460D01*
X9020182Y-10256460D02*
X9029706Y-10208841D01*
X9029706Y-10208841D02*
X9029706Y-10170746D01*
X9029706Y-10170746D02*
X9020182Y-10123127D01*
X9020182Y-10123127D02*
X9010658Y-10094555D01*
X9010658Y-10094555D02*
X9001134Y-10075508D01*
X9001134Y-10075508D02*
X8982087Y-10046936D01*
X8982087Y-10046936D02*
X8972563Y-10037412D01*
M02*
