%TF.GenerationSoftware,KiCad,Pcbnew,7.0.11*%
%TF.CreationDate,2026-09-28T08:34:29-04:00*%
%TF.ProjectId,clock_in12_board,636c6f63-6b5f-4696-9e31-325f626f6172,rev?*%
%TF.SameCoordinates,Original*%
%TF.FileFunction,Copper,L1,Top*%
%TF.FilePolarity,Positive*%
%FSLAX46Y46*%
G04 Gerber Fmt 4.6, Leading zero omitted, Abs format (unit mm)*
G04 Created by KiCad (PCBNEW 7.0.11) date 2026-09-28 08:34:29*
%MOMM*%
%LPD*%
G01*
G04 APERTURE LIST*
G04 Aperture macros list*
%AMRoundRect*
0 Rectangle with rounded corners*
0 $1 Rounding radius*
0 $2 $3 $4 $5 $6 $7 $8 $9 X,Y pos of 4 corners*
0 Add a 4 corners polygon primitive as box body*
4,1,4,$2,$3,$4,$5,$6,$7,$8,$9,$2,$3,0*
0 Add four circle primitives for the rounded corners*
1,1,$1+$1,$2,$3*
1,1,$1+$1,$4,$5*
1,1,$1+$1,$6,$7*
1,1,$1+$1,$8,$9*
0 Add four rect primitives between the rounded corners*
20,1,$1+$1,$2,$3,$4,$5,0*
20,1,$1+$1,$4,$5,$6,$7,0*
20,1,$1+$1,$6,$7,$8,$9,0*
20,1,$1+$1,$8,$9,$2,$3,0*%
G04 Aperture macros list end*
%TA.AperFunction,ComponentPad*%
%ADD10R,2.000000X2.000000*%
%TD*%
%TA.AperFunction,ComponentPad*%
%ADD11C,2.000000*%
%TD*%
%TA.AperFunction,ComponentPad*%
%ADD12C,8.600000*%
%TD*%
%TA.AperFunction,ComponentPad*%
%ADD13R,1.700000X1.700000*%
%TD*%
%TA.AperFunction,ComponentPad*%
%ADD14O,1.700000X1.700000*%
%TD*%
%TA.AperFunction,ComponentPad*%
%ADD15RoundRect,0.250001X1.099999X1.099999X-1.099999X1.099999X-1.099999X-1.099999X1.099999X-1.099999X0*%
%TD*%
%TA.AperFunction,ComponentPad*%
%ADD16C,2.700000*%
%TD*%
%TA.AperFunction,ViaPad*%
%ADD17C,0.600000*%
%TD*%
%TA.AperFunction,Conductor*%
%ADD18C,0.200000*%
%TD*%
G04 APERTURE END LIST*
D10*
%TO.P,V2,1,Pin_1*%
%TO.N,DIG_1_ANODE*%
X87000000Y-63250000D03*
D11*
%TO.P,V2,2,Pin_2*%
%TO.N,DIG_1_HV_RET_0*%
X88750000Y-59750000D03*
%TO.P,V2,3,Pin_3*%
%TO.N,DIG_1_HV_RET_9*%
X88750000Y-55250000D03*
%TO.P,V2,4,Pin_4*%
%TO.N,DIG_1_HV_RET_8*%
X88750000Y-50750000D03*
%TO.P,V2,5,Pin_5*%
%TO.N,DIG_1_HV_RET_7*%
X87000000Y-47250000D03*
%TO.P,V2,6,Pin_6*%
%TO.N,DIG_1_HV_RET_6*%
X83000000Y-46250000D03*
%TO.P,V2,7,Pin_7*%
%TO.N,DIG_1_HV_RET_5*%
X79000000Y-47250000D03*
%TO.P,V2,8,Pin_8*%
%TO.N,DIG_1_HV_RET_4*%
X77250000Y-50750000D03*
%TO.P,V2,9,Pin_9*%
%TO.N,DIG_1_HV_RET_3*%
X77250000Y-55250000D03*
%TO.P,V2,10,Pin_10*%
%TO.N,DIG_1_HV_RET_2*%
X77250000Y-59750000D03*
%TO.P,V2,11,Pin_11*%
%TO.N,DIG_1_HV_RET_1*%
X79000000Y-63250000D03*
%TO.P,V2,12,Pin_12*%
%TO.N,unconnected-(V2-Pin_12-Pad12)*%
X83000000Y-64250000D03*
%TD*%
D12*
%TO.P,H1,1,1*%
%TO.N,GND*%
X47500000Y-31500000D03*
%TD*%
%TO.P,H4,1,1*%
%TO.N,GND*%
X156500000Y-78750000D03*
%TD*%
%TO.P,H2,1,1*%
%TO.N,GND*%
X47500000Y-78750000D03*
%TD*%
D10*
%TO.P,V3,1,Pin_1*%
%TO.N,DIG_2_ANODE*%
X125000000Y-63250000D03*
D11*
%TO.P,V3,2,Pin_2*%
%TO.N,DIG_2_HV_RET_0*%
X126750000Y-59750000D03*
%TO.P,V3,3,Pin_3*%
%TO.N,DIG_2_HV_RET_9*%
X126750000Y-55250000D03*
%TO.P,V3,4,Pin_4*%
%TO.N,DIG_2_HV_RET_8*%
X126750000Y-50750000D03*
%TO.P,V3,5,Pin_5*%
%TO.N,DIG_2_HV_RET_7*%
X125000000Y-47250000D03*
%TO.P,V3,6,Pin_6*%
%TO.N,DIG_2_HV_RET_6*%
X121000000Y-46250000D03*
%TO.P,V3,7,Pin_7*%
%TO.N,DIG_2_HV_RET_5*%
X117000000Y-47250000D03*
%TO.P,V3,8,Pin_8*%
%TO.N,DIG_2_HV_RET_4*%
X115250000Y-50750000D03*
%TO.P,V3,9,Pin_9*%
%TO.N,DIG_2_HV_RET_3*%
X115250000Y-55250000D03*
%TO.P,V3,10,Pin_10*%
%TO.N,DIG_2_HV_RET_2*%
X115250000Y-59750000D03*
%TO.P,V3,11,Pin_11*%
%TO.N,DIG_2_HV_RET_1*%
X117000000Y-63250000D03*
%TO.P,V3,12,Pin_12*%
%TO.N,unconnected-(V3-Pin_12-Pad12)*%
X121000000Y-64250000D03*
%TD*%
D10*
%TO.P,V1,1,Pin_1*%
%TO.N,DIG_0_ANODE*%
X63500000Y-63250000D03*
D11*
%TO.P,V1,2,Pin_2*%
%TO.N,DIG_0_HV_RET_0*%
X65250000Y-59750000D03*
%TO.P,V1,3,Pin_3*%
%TO.N,DIG_0_HV_RET_9*%
X65250000Y-55250000D03*
%TO.P,V1,4,Pin_4*%
%TO.N,DIG_0_HV_RET_8*%
X65250000Y-50750000D03*
%TO.P,V1,5,Pin_5*%
%TO.N,DIG_0_HV_RET_7*%
X63500000Y-47250000D03*
%TO.P,V1,6,Pin_6*%
%TO.N,DIG_0_HV_RET_6*%
X59500000Y-46250000D03*
%TO.P,V1,7,Pin_7*%
%TO.N,DIG_0_HV_RET_5*%
X55500000Y-47250000D03*
%TO.P,V1,8,Pin_8*%
%TO.N,DIG_0_HV_RET_4*%
X53750000Y-50750000D03*
%TO.P,V1,9,Pin_9*%
%TO.N,DIG_0_HV_RET_3*%
X53750000Y-55250000D03*
%TO.P,V1,10,Pin_10*%
%TO.N,DIG_0_HV_RET_2*%
X53750000Y-59750000D03*
%TO.P,V1,11,Pin_11*%
%TO.N,DIG_0_HV_RET_1*%
X55500000Y-63250000D03*
%TO.P,V1,12,Pin_12*%
%TO.N,unconnected-(V1-Pin_12-Pad12)*%
X59500000Y-64250000D03*
%TD*%
D10*
%TO.P,V4,1,Pin_1*%
%TO.N,DIG_3_ANODE*%
X148500000Y-63250000D03*
D11*
%TO.P,V4,2,Pin_2*%
%TO.N,DIG_3_HV_RET_0*%
X150250000Y-59750000D03*
%TO.P,V4,3,Pin_3*%
%TO.N,DIG_3_HV_RET_9*%
X150250000Y-55250000D03*
%TO.P,V4,4,Pin_4*%
%TO.N,DIG_3_HV_RET_8*%
X150250000Y-50750000D03*
%TO.P,V4,5,Pin_5*%
%TO.N,DIG_3_HV_RET_7*%
X148500000Y-47250000D03*
%TO.P,V4,6,Pin_6*%
%TO.N,DIG_3_HV_RET_6*%
X144500000Y-46250000D03*
%TO.P,V4,7,Pin_7*%
%TO.N,DIG_3_HV_RET_5*%
X140500000Y-47250000D03*
%TO.P,V4,8,Pin_8*%
%TO.N,DIG_3_HV_RET_4*%
X138750000Y-50750000D03*
%TO.P,V4,9,Pin_9*%
%TO.N,DIG_3_HV_RET_3*%
X138750000Y-55250000D03*
%TO.P,V4,10,Pin_10*%
%TO.N,DIG_3_HV_RET_2*%
X138750000Y-59750000D03*
%TO.P,V4,11,Pin_11*%
%TO.N,DIG_3_HV_RET_1*%
X140500000Y-63250000D03*
%TO.P,V4,12,Pin_12*%
%TO.N,unconnected-(V4-Pin_12-Pad12)*%
X144500000Y-64250000D03*
%TD*%
D12*
%TO.P,H3,1,1*%
%TO.N,GND*%
X156500000Y-31500000D03*
%TD*%
D13*
%TO.P,J1,1,Pin_1*%
%TO.N,DIG_0_DRIVE_0*%
X78762500Y-32210000D03*
D14*
%TO.P,J1,2,Pin_2*%
%TO.N,DIG_2_DRIVE_0*%
X78762500Y-34750000D03*
%TO.P,J1,3,Pin_3*%
%TO.N,DIG_0_DRIVE_1*%
X81302500Y-32210000D03*
%TO.P,J1,4,Pin_4*%
%TO.N,DIG_2_DRIVE_1*%
X81302500Y-34750000D03*
%TO.P,J1,5,Pin_5*%
%TO.N,DIG_0_DRIVE_2*%
X83842500Y-32210000D03*
%TO.P,J1,6,Pin_6*%
%TO.N,DIG_2_DRIVE_2*%
X83842500Y-34750000D03*
%TO.P,J1,7,Pin_7*%
%TO.N,DIG_0_DRIVE_3*%
X86382500Y-32210000D03*
%TO.P,J1,8,Pin_8*%
%TO.N,DIG_2_DRIVE_3*%
X86382500Y-34750000D03*
%TO.P,J1,9,Pin_9*%
%TO.N,DIG_0_DRIVE_4*%
X88922500Y-32210000D03*
%TO.P,J1,10,Pin_10*%
%TO.N,DIG_2_DRIVE_4*%
X88922500Y-34750000D03*
%TO.P,J1,11,Pin_11*%
%TO.N,DIG_0_DRIVE_5*%
X91462500Y-32210000D03*
%TO.P,J1,12,Pin_12*%
%TO.N,DIG_2_DRIVE_5*%
X91462500Y-34750000D03*
%TO.P,J1,13,Pin_13*%
%TO.N,DIG_0_DRIVE_6*%
X94002500Y-32210000D03*
%TO.P,J1,14,Pin_14*%
%TO.N,DIG_2_DRIVE_6*%
X94002500Y-34750000D03*
%TO.P,J1,15,Pin_15*%
%TO.N,DIG_0_DRIVE_7*%
X96542500Y-32210000D03*
%TO.P,J1,16,Pin_16*%
%TO.N,DIG_2_DRIVE_7*%
X96542500Y-34750000D03*
%TO.P,J1,17,Pin_17*%
%TO.N,DIG_0_DRIVE_8*%
X99082500Y-32210000D03*
%TO.P,J1,18,Pin_18*%
%TO.N,DIG_2_DRIVE_8*%
X99082500Y-34750000D03*
%TO.P,J1,19,Pin_19*%
%TO.N,DIG_0_DRIVE_9*%
X101622500Y-32210000D03*
%TO.P,J1,20,Pin_20*%
%TO.N,DIG_2_DRIVE_9*%
X101622500Y-34750000D03*
%TO.P,J1,21,Pin_21*%
%TO.N,DIG_1_DRIVE_0*%
X104162500Y-32210000D03*
%TO.P,J1,22,Pin_22*%
%TO.N,DIG_3_DRIVE_0*%
X104162500Y-34750000D03*
%TO.P,J1,23,Pin_23*%
%TO.N,DIG_1_DRIVE_1*%
X106702500Y-32210000D03*
%TO.P,J1,24,Pin_24*%
%TO.N,DIG_3_DRIVE_1*%
X106702500Y-34750000D03*
%TO.P,J1,25,Pin_25*%
%TO.N,DIG_1_DRIVE_2*%
X109242500Y-32210000D03*
%TO.P,J1,26,Pin_26*%
%TO.N,DIG_3_DRIVE_2*%
X109242500Y-34750000D03*
%TO.P,J1,27,Pin_27*%
%TO.N,DIG_1_DRIVE_3*%
X111782500Y-32210000D03*
%TO.P,J1,28,Pin_28*%
%TO.N,DIG_3_DRIVE_3*%
X111782500Y-34750000D03*
%TO.P,J1,29,Pin_29*%
%TO.N,DIG_1_DRIVE_4*%
X114322500Y-32210000D03*
%TO.P,J1,30,Pin_30*%
%TO.N,DIG_3_DRIVE_4*%
X114322500Y-34750000D03*
%TO.P,J1,31,Pin_31*%
%TO.N,DIG_1_DRIVE_5*%
X116862500Y-32210000D03*
%TO.P,J1,32,Pin_32*%
%TO.N,DIG_3_DRIVE_5*%
X116862500Y-34750000D03*
%TO.P,J1,33,Pin_33*%
%TO.N,DIG_1_DRIVE_6*%
X119402500Y-32210000D03*
%TO.P,J1,34,Pin_34*%
%TO.N,DIG_3_DRIVE_6*%
X119402500Y-34750000D03*
%TO.P,J1,35,Pin_35*%
%TO.N,DIG_1_DRIVE_7*%
X121942500Y-32210000D03*
%TO.P,J1,36,Pin_36*%
%TO.N,DIG_3_DRIVE_7*%
X121942500Y-34750000D03*
%TO.P,J1,37,Pin_37*%
%TO.N,DIG_1_DRIVE_8*%
X124482500Y-32210000D03*
%TO.P,J1,38,Pin_38*%
%TO.N,DIG_3_DRIVE_8*%
X124482500Y-34750000D03*
%TO.P,J1,39,Pin_39*%
%TO.N,DIG_1_DRIVE_9*%
X127022500Y-32210000D03*
%TO.P,J1,40,Pin_40*%
%TO.N,DIG_3_DRIVE_9*%
X127022500Y-34750000D03*
%TD*%
D15*
%TO.P,J2,1,Pin_1*%
%TO.N,GND*%
X106585000Y-77025000D03*
D16*
%TO.P,J2,2,Pin_2*%
%TO.N,HT*%
X102625000Y-77025000D03*
%TO.P,J2,3,Pin_3*%
%TO.N,GND*%
X98665000Y-77025000D03*
%TD*%
D17*
%TO.N,GND*%
X80925000Y-59600000D03*
X128100000Y-47675000D03*
X47650000Y-39725000D03*
X51925000Y-62900000D03*
X137650000Y-39125000D03*
X74150000Y-64075000D03*
X69175000Y-43050000D03*
X142700000Y-59775000D03*
X118250000Y-67675000D03*
X79975000Y-38050000D03*
X153950000Y-43200000D03*
X134975000Y-53225000D03*
X118450000Y-50500000D03*
X150700000Y-41350000D03*
X95775000Y-56650000D03*
X146600000Y-59775000D03*
X57300000Y-67625000D03*
X134150000Y-53575000D03*
X129700000Y-43625000D03*
X49525000Y-46475000D03*
X68200000Y-63825000D03*
X140225000Y-42075000D03*
X123625000Y-50550000D03*
X141475000Y-67450000D03*
X61250000Y-30150000D03*
X123800000Y-42950000D03*
X76150000Y-62675000D03*
X95600000Y-50950000D03*
X61725000Y-50350000D03*
X85650000Y-50800000D03*
X141375000Y-37425000D03*
X135125000Y-63275000D03*
X151925000Y-47225000D03*
X144700000Y-38675000D03*
X85325000Y-59425000D03*
X116425000Y-43575000D03*
X100000000Y-47250000D03*
X109575000Y-63825000D03*
X95725000Y-61625000D03*
X68500000Y-38000000D03*
X146875000Y-51125000D03*
X135625000Y-47225000D03*
X118650000Y-59700000D03*
X87700000Y-41325000D03*
X94975000Y-46750000D03*
X73250000Y-40650000D03*
X51275000Y-53475000D03*
X129300000Y-64025000D03*
X154050000Y-45825000D03*
X74050000Y-47125000D03*
X142125000Y-50925000D03*
X58150000Y-50800000D03*
X110450000Y-46875000D03*
X156050000Y-40575000D03*
X51450000Y-57925000D03*
X129550000Y-46600000D03*
X152125000Y-65800000D03*
X61600000Y-59425000D03*
X57575000Y-59350000D03*
X123725000Y-59525000D03*
X130050000Y-44150000D03*
X56450000Y-38875000D03*
X128775000Y-44600000D03*
X73975000Y-35275000D03*
X78500000Y-43000000D03*
X53375000Y-35875000D03*
X80800000Y-50700000D03*
X147775000Y-41450000D03*
X157775000Y-43675000D03*
X67300000Y-48225000D03*
%TO.N,DIG_0_DRIVE_1*%
X81302500Y-27100000D03*
%TO.N,DIG_0_DRIVE_3*%
X86750000Y-27900000D03*
%TO.N,DIG_0_DRIVE_4*%
X88500000Y-28300000D03*
%TO.N,DIG_0_DRIVE_5*%
X92000000Y-28700000D03*
%TO.N,DIG_0_DRIVE_6*%
X94250000Y-29100000D03*
%TO.N,DIG_0_DRIVE_7*%
X96750000Y-29500000D03*
%TO.N,DIG_0_DRIVE_8*%
X99000000Y-29900000D03*
%TO.N,DIG_0_DRIVE_9*%
X101622500Y-30500000D03*
%TO.N,DIG_0_DRIVE_2*%
X83750000Y-27500000D03*
%TO.N,DIG_1_DRIVE_0*%
X104250000Y-29000000D03*
%TO.N,DIG_1_DRIVE_1*%
X106750000Y-27900000D03*
X97475000Y-41200000D03*
X75850000Y-67875000D03*
%TO.N,DIG_1_DRIVE_2*%
X109500000Y-27250000D03*
X98150000Y-42050000D03*
X71575000Y-61375000D03*
%TO.N,DIG_1_DRIVE_3*%
X132000000Y-27500000D03*
X99200000Y-42625000D03*
X71600000Y-56900000D03*
%TO.N,DIG_1_DRIVE_4*%
X114322500Y-30500000D03*
%TO.N,DIG_1_DRIVE_5*%
X117000000Y-29900000D03*
%TO.N,DIG_1_DRIVE_6*%
X119500000Y-29500000D03*
%TO.N,DIG_1_DRIVE_7*%
X121802546Y-29100000D03*
%TO.N,DIG_1_DRIVE_8*%
X125000000Y-28700000D03*
%TO.N,DIG_1_DRIVE_9*%
X126000000Y-28300000D03*
%TO.N,DIG_2_DRIVE_3*%
X107400000Y-42900003D03*
%TO.N,DIG_2_DRIVE_2*%
X106623883Y-43100000D03*
%TO.N,DIG_2_DRIVE_1*%
X105500000Y-43500000D03*
%TO.N,DIG_2_DRIVE_0*%
X132250000Y-58000000D03*
%TO.N,DIG_2_DRIVE_7*%
X126303653Y-42255123D03*
%TO.N,DIG_2_DRIVE_6*%
X117750000Y-41500000D03*
%TO.N,DIG_2_DRIVE_5*%
X111000000Y-41750000D03*
%TO.N,DIG_2_DRIVE_4*%
X107750000Y-42100000D03*
%TO.N,DIG_3_DRIVE_1*%
X132500000Y-63000000D03*
X132750000Y-39900000D03*
X131750000Y-41250000D03*
%TO.N,DIG_3_DRIVE_0*%
X153750000Y-40500000D03*
%TO.N,DIG_2_DRIVE_9*%
X130964238Y-41099727D03*
%TO.N,DIG_2_DRIVE_8*%
X130364238Y-41835133D03*
%TO.N,DIG_3_DRIVE_5*%
X135750000Y-37750000D03*
%TO.N,DIG_3_DRIVE_4*%
X134750000Y-38100000D03*
X133700000Y-42000000D03*
X133850000Y-52150000D03*
%TO.N,DIG_3_DRIVE_3*%
X133750000Y-38500000D03*
%TO.N,DIG_3_DRIVE_2*%
X133250000Y-39250000D03*
%TO.N,DIG_3_DRIVE_9*%
X153158158Y-39650000D03*
%TO.N,DIG_3_DRIVE_8*%
X152350003Y-39650000D03*
%TO.N,DIG_3_DRIVE_7*%
X151500000Y-39650000D03*
%TO.N,DIG_3_DRIVE_6*%
X136750000Y-37500000D03*
%TD*%
D18*
%TO.N,DIG_0_DRIVE_1*%
X81302500Y-27100000D02*
X81302500Y-32210000D01*
%TO.N,DIG_0_DRIVE_3*%
X86382500Y-28267500D02*
X86382500Y-32210000D01*
X86750000Y-27900000D02*
X86382500Y-28267500D01*
%TO.N,DIG_0_DRIVE_4*%
X88922500Y-28722500D02*
X88922500Y-32210000D01*
X88500000Y-28300000D02*
X88922500Y-28722500D01*
%TO.N,DIG_0_DRIVE_5*%
X92000000Y-28700000D02*
X91462500Y-29237500D01*
X91462500Y-29237500D02*
X91462500Y-32210000D01*
%TO.N,DIG_0_DRIVE_6*%
X94250000Y-29100000D02*
X94000000Y-29350000D01*
X94000000Y-32207500D02*
X94002500Y-32210000D01*
X94000000Y-29350000D02*
X94000000Y-32207500D01*
%TO.N,DIG_0_DRIVE_7*%
X96542500Y-29707500D02*
X96542500Y-32210000D01*
X96750000Y-29500000D02*
X96542500Y-29707500D01*
%TO.N,DIG_0_DRIVE_8*%
X99082500Y-29982500D02*
X99082500Y-32210000D01*
X99000000Y-29900000D02*
X99082500Y-29982500D01*
%TO.N,DIG_0_DRIVE_9*%
X101622500Y-30500000D02*
X101622500Y-32210000D01*
%TO.N,DIG_0_DRIVE_2*%
X83842500Y-32210000D02*
X83842500Y-27592500D01*
X83842500Y-27592500D02*
X83750000Y-27500000D01*
%TO.N,DIG_1_DRIVE_0*%
X104250000Y-29000000D02*
X104250000Y-30250000D01*
X104162500Y-30337500D02*
X104162500Y-32210000D01*
X104250000Y-30250000D02*
X104162500Y-30337500D01*
%TO.N,DIG_1_DRIVE_1*%
X106702500Y-27947500D02*
X106702500Y-32210000D01*
X72150000Y-56035785D02*
X72600000Y-56485786D01*
X106750000Y-27900000D02*
X106702500Y-27947500D01*
X76625000Y-39600000D02*
X72150000Y-44075000D01*
X92658832Y-39600000D02*
X76625000Y-39600000D01*
X72150000Y-44075000D02*
X72150000Y-56035785D01*
X92908832Y-39850000D02*
X92658832Y-39600000D01*
X72600000Y-64625000D02*
X75850000Y-67875000D01*
X96652942Y-39850000D02*
X92908832Y-39850000D01*
X97475000Y-41200000D02*
X97475000Y-40672058D01*
X72600000Y-56485786D02*
X72600000Y-64625000D01*
X97475000Y-40672058D02*
X96652942Y-39850000D01*
%TO.N,DIG_1_DRIVE_2*%
X92824518Y-39200000D02*
X76440686Y-39200000D01*
X98150000Y-40781372D02*
X96818628Y-39450000D01*
X76440686Y-39200000D02*
X71750000Y-43890686D01*
X109242500Y-27507500D02*
X109242500Y-32210000D01*
X96818628Y-39450000D02*
X93074518Y-39450000D01*
X71750000Y-43890686D02*
X71750000Y-56201471D01*
X98150000Y-42050000D02*
X98150000Y-40781372D01*
X72200000Y-56651471D02*
X72200000Y-60750000D01*
X93074518Y-39450000D02*
X92824518Y-39200000D01*
X71750000Y-56201471D02*
X72200000Y-56651471D01*
X109500000Y-27250000D02*
X109242500Y-27507500D01*
X72200000Y-60750000D02*
X71575000Y-61375000D01*
%TO.N,DIG_1_DRIVE_3*%
X92990204Y-38800000D02*
X76275000Y-38800000D01*
X93240204Y-39050000D02*
X92990204Y-38800000D01*
X76275000Y-38800000D02*
X71350000Y-43725000D01*
X99200000Y-42625000D02*
X99200000Y-41265686D01*
X71350000Y-56600000D02*
X71600000Y-56850000D01*
X71350000Y-43725000D02*
X71350000Y-56600000D01*
X130850000Y-26600000D02*
X132000000Y-27500000D01*
X96984314Y-39050000D02*
X93240204Y-39050000D01*
X111782500Y-27467500D02*
X112650000Y-26600000D01*
X99200000Y-41265686D02*
X96984314Y-39050000D01*
X111782500Y-32210000D02*
X111782500Y-27467500D01*
X112650000Y-26600000D02*
X130850000Y-26600000D01*
%TO.N,DIG_1_DRIVE_4*%
X114322500Y-30500000D02*
X114322500Y-32210000D01*
%TO.N,DIG_1_DRIVE_5*%
X116862500Y-30037500D02*
X116862500Y-32210000D01*
X117000000Y-29900000D02*
X116862500Y-30037500D01*
%TO.N,DIG_1_DRIVE_6*%
X119500000Y-29500000D02*
X119500000Y-32112500D01*
X119500000Y-32112500D02*
X119402500Y-32210000D01*
%TO.N,DIG_1_DRIVE_7*%
X121942500Y-31557500D02*
X121942500Y-32210000D01*
X121802546Y-29100000D02*
X121802546Y-31417546D01*
X121802546Y-31417546D02*
X121942500Y-31557500D01*
%TO.N,DIG_1_DRIVE_8*%
X124500000Y-32192500D02*
X124482500Y-32210000D01*
X124500000Y-29200000D02*
X124500000Y-32192500D01*
X125000000Y-28700000D02*
X124500000Y-29200000D01*
%TO.N,DIG_1_DRIVE_9*%
X127250000Y-29550000D02*
X127250000Y-31982500D01*
X127250000Y-31982500D02*
X127022500Y-32210000D01*
X126000000Y-28300000D02*
X127250000Y-29550000D01*
%TO.N,DIG_2_DRIVE_3*%
X93602944Y-37150000D02*
X91993629Y-37150000D01*
X91993629Y-37150000D02*
X91468629Y-36625000D01*
X86775000Y-36175000D02*
X86382500Y-35782500D01*
X93902945Y-37450000D02*
X93602944Y-37150000D01*
X88559314Y-36175000D02*
X86775000Y-36175000D01*
X86382500Y-35782500D02*
X86382500Y-34750000D01*
X97647058Y-37450000D02*
X93902945Y-37450000D01*
X89009314Y-36625000D02*
X88559314Y-36175000D01*
X102697058Y-42500000D02*
X97647058Y-37450000D01*
X91468629Y-36625000D02*
X89009314Y-36625000D01*
X107400000Y-42900003D02*
X106999997Y-42500000D01*
X106999997Y-42500000D02*
X102697058Y-42500000D01*
%TO.N,DIG_2_DRIVE_2*%
X91302943Y-37025000D02*
X88843628Y-37025000D01*
X86159314Y-36125000D02*
X84050000Y-36125000D01*
X83842500Y-35917500D02*
X83842500Y-34750000D01*
X102531372Y-42900000D02*
X97481372Y-37850000D01*
X93737260Y-37850000D02*
X93437260Y-37550000D01*
X106423883Y-42900000D02*
X102531372Y-42900000D01*
X97481372Y-37850000D02*
X93737260Y-37850000D01*
X88843628Y-37025000D02*
X88393628Y-36575000D01*
X93437260Y-37550000D02*
X91827943Y-37550000D01*
X84050000Y-36125000D02*
X83842500Y-35917500D01*
X88393628Y-36575000D02*
X86609314Y-36575000D01*
X91827943Y-37550000D02*
X91302943Y-37025000D01*
X86609314Y-36575000D02*
X86159314Y-36125000D01*
X106623883Y-43100000D02*
X106423883Y-42900000D01*
%TO.N,DIG_2_DRIVE_1*%
X86443628Y-36975000D02*
X88227943Y-36975000D01*
X91662257Y-37950000D02*
X93271574Y-37950000D01*
X81302500Y-34750000D02*
X81575000Y-35022500D01*
X102565686Y-43500000D02*
X105500000Y-43500000D01*
X81575000Y-36298186D02*
X81651814Y-36375000D01*
X81651814Y-36375000D02*
X83734314Y-36375000D01*
X93571574Y-38250000D02*
X97315686Y-38250000D01*
X83734314Y-36375000D02*
X83884315Y-36525000D01*
X97315686Y-38250000D02*
X102565686Y-43500000D01*
X91137257Y-37425000D02*
X91662257Y-37950000D01*
X85993628Y-36525000D02*
X86443628Y-36975000D01*
X88677943Y-37425000D02*
X91137257Y-37425000D01*
X88227943Y-36975000D02*
X88677943Y-37425000D01*
X93271574Y-37950000D02*
X93571574Y-38250000D01*
X81575000Y-35022500D02*
X81575000Y-36298186D01*
X83884315Y-36525000D02*
X85993628Y-36525000D01*
%TO.N,DIG_2_DRIVE_0*%
X102600000Y-44100000D02*
X108850000Y-44100000D01*
X83718630Y-36925000D02*
X85827942Y-36925000D01*
X91496572Y-38350000D02*
X93105888Y-38350000D01*
X78762500Y-34750000D02*
X78762500Y-36262500D01*
X93105888Y-38350000D02*
X93405889Y-38650000D01*
X90971572Y-37825000D02*
X91496572Y-38350000D01*
X83683630Y-36890000D02*
X83718630Y-36925000D01*
X88512258Y-37825000D02*
X90971572Y-37825000D01*
X85827942Y-36925000D02*
X86277943Y-37375000D01*
X132500000Y-44000000D02*
X132500000Y-57750000D01*
X131500000Y-43000000D02*
X132500000Y-44000000D01*
X97150000Y-38650000D02*
X102600000Y-44100000D01*
X79390000Y-36890000D02*
X83683630Y-36890000D01*
X93405889Y-38650000D02*
X97150000Y-38650000D01*
X126200000Y-43000000D02*
X131500000Y-43000000D01*
X132500000Y-57750000D02*
X132250000Y-58000000D01*
X86277943Y-37375000D02*
X88062257Y-37375000D01*
X110600000Y-42350000D02*
X125550000Y-42350000D01*
X78762500Y-36262500D02*
X79390000Y-36890000D01*
X88062257Y-37375000D02*
X88512258Y-37825000D01*
X125550000Y-42350000D02*
X126200000Y-43000000D01*
X108850000Y-44100000D02*
X110600000Y-42350000D01*
%TO.N,DIG_2_DRIVE_7*%
X117798529Y-40700000D02*
X103318629Y-40700000D01*
X125348530Y-41300000D02*
X118398529Y-41300000D01*
X97368629Y-34750000D02*
X96542500Y-34750000D01*
X126303653Y-42255123D02*
X125348530Y-41300000D01*
X118398529Y-41300000D02*
X117798529Y-40700000D01*
X103318629Y-40700000D02*
X97368629Y-34750000D01*
%TO.N,DIG_2_DRIVE_6*%
X94400000Y-36250000D02*
X98144116Y-36250000D01*
X94300000Y-35047500D02*
X94300000Y-36150000D01*
X102994116Y-41100000D02*
X117350000Y-41100000D01*
X94300000Y-36150000D02*
X94400000Y-36250000D01*
X98144116Y-36250000D02*
X102994116Y-41100000D01*
X94002500Y-34750000D02*
X94300000Y-35047500D01*
X117350000Y-41100000D02*
X117750000Y-41500000D01*
%TO.N,DIG_2_DRIVE_5*%
X102828430Y-41500000D02*
X110750000Y-41500000D01*
X91462500Y-34750000D02*
X91925000Y-35212500D01*
X110750000Y-41500000D02*
X111000000Y-41750000D01*
X94234315Y-36650000D02*
X97978430Y-36650000D01*
X91925000Y-35950000D02*
X92325000Y-36350000D01*
X97978430Y-36650000D02*
X102828430Y-41500000D01*
X93934314Y-36350000D02*
X94234315Y-36650000D01*
X91925000Y-35212500D02*
X91925000Y-35950000D01*
X92325000Y-36350000D02*
X93934314Y-36350000D01*
%TO.N,DIG_2_DRIVE_4*%
X88922500Y-35972500D02*
X88922500Y-34750000D01*
X92159315Y-36750000D02*
X91634315Y-36225000D01*
X89175000Y-36225000D02*
X88922500Y-35972500D01*
X102862744Y-42100000D02*
X97812744Y-37050000D01*
X94068630Y-37050000D02*
X93768629Y-36750000D01*
X91634315Y-36225000D02*
X89175000Y-36225000D01*
X97812744Y-37050000D02*
X94068630Y-37050000D01*
X93768629Y-36750000D02*
X92159315Y-36750000D01*
X107750000Y-42100000D02*
X102862744Y-42100000D01*
%TO.N,DIG_3_DRIVE_1*%
X106702500Y-37452500D02*
X106702500Y-34750000D01*
X132550000Y-40100000D02*
X129047058Y-40100000D01*
X132900000Y-43834314D02*
X132900000Y-62600000D01*
X131750000Y-41250000D02*
X131750000Y-42684314D01*
X132750000Y-39900000D02*
X132550000Y-40100000D01*
X132900000Y-62600000D02*
X132500000Y-63000000D01*
X108350000Y-39100000D02*
X106702500Y-37452500D01*
X128047058Y-39100000D02*
X108350000Y-39100000D01*
X129047058Y-40100000D02*
X128047058Y-39100000D01*
X131750000Y-42684314D02*
X132900000Y-43834314D01*
%TO.N,DIG_3_DRIVE_0*%
X104162500Y-37412500D02*
X104162500Y-34750000D01*
X145350000Y-37100000D02*
X142900000Y-37100000D01*
X106250000Y-39500000D02*
X104162500Y-37412500D01*
X142900000Y-37100000D02*
X139500000Y-40500000D01*
X139500000Y-40500000D02*
X128881372Y-40500000D01*
X127881372Y-39500000D02*
X106250000Y-39500000D01*
X153500000Y-40250000D02*
X148500000Y-40250000D01*
X153750000Y-40500000D02*
X153500000Y-40250000D01*
X128881372Y-40500000D02*
X127881372Y-39500000D01*
X148500000Y-40250000D02*
X145350000Y-37100000D01*
%TO.N,DIG_2_DRIVE_9*%
X130964238Y-41099727D02*
X128915413Y-41099727D01*
X127715686Y-39900000D02*
X103650000Y-39900000D01*
X101622500Y-37872500D02*
X101622500Y-34750000D01*
X103650000Y-39900000D02*
X101622500Y-37872500D01*
X128915413Y-41099727D02*
X127715686Y-39900000D01*
%TO.N,DIG_2_DRIVE_8*%
X103484315Y-40300000D02*
X99082500Y-35898185D01*
X130364238Y-41835133D02*
X129085133Y-41835133D01*
X129085133Y-41835133D02*
X127550000Y-40300000D01*
X99082500Y-35898185D02*
X99082500Y-34750000D01*
X127550000Y-40300000D02*
X103484315Y-40300000D01*
%TO.N,DIG_3_DRIVE_5*%
X116862500Y-34750000D02*
X116862500Y-36312500D01*
X135500000Y-37500000D02*
X135750000Y-37750000D01*
X118050000Y-37500000D02*
X135500000Y-37500000D01*
X116862500Y-36312500D02*
X118050000Y-37500000D01*
%TO.N,DIG_3_DRIVE_4*%
X133475000Y-52150000D02*
X133300000Y-51975000D01*
X114250000Y-34822500D02*
X114322500Y-34750000D01*
X115900000Y-37900000D02*
X114250000Y-36250000D01*
X114250000Y-36250000D02*
X114250000Y-34822500D01*
X133998529Y-37900000D02*
X115900000Y-37900000D01*
X133850000Y-52150000D02*
X133475000Y-52150000D01*
X133300000Y-42400000D02*
X133700000Y-42000000D01*
X134750000Y-38100000D02*
X134198529Y-38100000D01*
X133300000Y-51975000D02*
X133300000Y-42400000D01*
X134198529Y-38100000D02*
X133998529Y-37900000D01*
%TO.N,DIG_3_DRIVE_3*%
X111782500Y-36782500D02*
X111782500Y-34750000D01*
X133750000Y-38500000D02*
X128578429Y-38500000D01*
X113300000Y-38300000D02*
X111782500Y-36782500D01*
X128578429Y-38500000D02*
X128378429Y-38300000D01*
X128378429Y-38300000D02*
X113300000Y-38300000D01*
%TO.N,DIG_3_DRIVE_2*%
X128762744Y-39250000D02*
X128212744Y-38700000D01*
X110700000Y-38700000D02*
X109242500Y-37242500D01*
X128212744Y-38700000D02*
X110700000Y-38700000D01*
X109242500Y-37242500D02*
X109242500Y-34750000D01*
X133250000Y-39250000D02*
X128762744Y-39250000D01*
%TO.N,DIG_3_DRIVE_9*%
X151085786Y-38650000D02*
X150885786Y-38850000D01*
X152950003Y-39441845D02*
X152950003Y-38850000D01*
X127250000Y-35900000D02*
X127022500Y-35672500D01*
X152750003Y-38650000D02*
X151085786Y-38650000D01*
X148797058Y-38850000D02*
X145847055Y-35900000D01*
X145847055Y-35900000D02*
X127250000Y-35900000D01*
X152950003Y-38850000D02*
X152750003Y-38650000D01*
X153158158Y-39650000D02*
X152950003Y-39441845D01*
X127022500Y-35672500D02*
X127022500Y-34750000D01*
X150885786Y-38850000D02*
X148797058Y-38850000D01*
%TO.N,DIG_3_DRIVE_8*%
X152350000Y-39649997D02*
X152350000Y-39250000D01*
X152350000Y-39250000D02*
X152150000Y-39050000D01*
X152150000Y-39050000D02*
X151251471Y-39050000D01*
X145681370Y-36300000D02*
X124800000Y-36300000D01*
X151251471Y-39050000D02*
X151051471Y-39250000D01*
X124482500Y-35982500D02*
X124482500Y-34750000D01*
X124800000Y-36300000D02*
X124482500Y-35982500D01*
X148631372Y-39250000D02*
X145681370Y-36300000D01*
X152350003Y-39650000D02*
X152350000Y-39649997D01*
X151051471Y-39250000D02*
X148631372Y-39250000D01*
%TO.N,DIG_3_DRIVE_7*%
X145515685Y-36700000D02*
X122700000Y-36700000D01*
X148465686Y-39650000D02*
X145515685Y-36700000D01*
X151500000Y-39650000D02*
X148465686Y-39650000D01*
X122700000Y-36700000D02*
X121942500Y-35942500D01*
X121942500Y-35942500D02*
X121942500Y-34750000D01*
%TO.N,DIG_3_DRIVE_6*%
X119402500Y-36152500D02*
X120350000Y-37100000D01*
X136350000Y-37100000D02*
X136750000Y-37500000D01*
X119402500Y-34750000D02*
X119402500Y-36152500D01*
X120350000Y-37100000D02*
X136350000Y-37100000D01*
%TO.N,DIG_0_ANODE*%
X63500000Y-63250000D02*
X63525000Y-63275000D01*
%TD*%
%TA.AperFunction,Conductor*%
%TO.N,GND*%
G36*
X80576460Y-26520185D02*
G01*
X80622215Y-26572989D01*
X80632159Y-26642147D01*
X80614415Y-26690472D01*
X80576711Y-26750476D01*
X80517131Y-26920745D01*
X80517130Y-26920750D01*
X80496935Y-27099996D01*
X80496935Y-27100003D01*
X80517130Y-27279249D01*
X80517131Y-27279254D01*
X80576711Y-27449523D01*
X80613140Y-27507498D01*
X80670962Y-27599522D01*
X80672685Y-27602263D01*
X80674945Y-27605097D01*
X80675834Y-27607275D01*
X80676389Y-27608158D01*
X80676234Y-27608255D01*
X80701355Y-27669783D01*
X80702000Y-27682412D01*
X80702000Y-30920908D01*
X80682315Y-30987947D01*
X80630414Y-31033286D01*
X80624673Y-31035963D01*
X80624669Y-31035965D01*
X80431100Y-31171503D01*
X80309173Y-31293430D01*
X80247850Y-31326914D01*
X80178158Y-31321930D01*
X80122225Y-31280058D01*
X80105310Y-31249081D01*
X80056297Y-31117671D01*
X80056293Y-31117664D01*
X79970047Y-31002455D01*
X79970044Y-31002452D01*
X79854835Y-30916206D01*
X79854828Y-30916202D01*
X79719982Y-30865908D01*
X79719983Y-30865908D01*
X79660383Y-30859501D01*
X79660381Y-30859500D01*
X79660373Y-30859500D01*
X79660364Y-30859500D01*
X77864629Y-30859500D01*
X77864623Y-30859501D01*
X77805016Y-30865908D01*
X77670171Y-30916202D01*
X77670164Y-30916206D01*
X77554955Y-31002452D01*
X77554952Y-31002455D01*
X77468706Y-31117664D01*
X77468702Y-31117671D01*
X77418408Y-31252517D01*
X77412001Y-31312116D01*
X77412000Y-31312135D01*
X77412000Y-33107870D01*
X77412001Y-33107876D01*
X77418408Y-33167483D01*
X77468702Y-33302328D01*
X77468706Y-33302335D01*
X77554952Y-33417544D01*
X77554955Y-33417547D01*
X77670164Y-33503793D01*
X77670171Y-33503797D01*
X77801581Y-33552810D01*
X77857515Y-33594681D01*
X77881932Y-33660145D01*
X77867080Y-33728418D01*
X77845930Y-33756673D01*
X77724003Y-33878600D01*
X77588465Y-34072169D01*
X77588464Y-34072171D01*
X77488598Y-34286335D01*
X77488594Y-34286344D01*
X77427438Y-34514586D01*
X77427436Y-34514596D01*
X77406841Y-34749999D01*
X77406841Y-34750000D01*
X77427436Y-34985403D01*
X77427438Y-34985413D01*
X77488594Y-35213655D01*
X77488596Y-35213659D01*
X77488597Y-35213663D01*
X77535831Y-35314956D01*
X77588465Y-35427830D01*
X77588467Y-35427834D01*
X77694579Y-35579377D01*
X77724005Y-35621401D01*
X77891099Y-35788495D01*
X77923368Y-35811090D01*
X78084665Y-35924032D01*
X78084667Y-35924033D01*
X78084670Y-35924035D01*
X78090398Y-35926706D01*
X78142839Y-35972872D01*
X78162000Y-36039090D01*
X78162000Y-36215012D01*
X78160939Y-36231197D01*
X78156818Y-36262498D01*
X78156818Y-36262501D01*
X78166698Y-36337547D01*
X78177455Y-36419260D01*
X78177456Y-36419262D01*
X78237964Y-36565341D01*
X78334218Y-36690782D01*
X78334219Y-36690783D01*
X78359269Y-36710004D01*
X78371464Y-36720699D01*
X78931799Y-37281034D01*
X78942493Y-37293228D01*
X78947306Y-37299500D01*
X78961718Y-37318282D01*
X79084499Y-37412495D01*
X79084503Y-37412500D01*
X79084505Y-37412499D01*
X79084506Y-37412500D01*
X79087159Y-37414536D01*
X79233238Y-37475044D01*
X79311619Y-37485363D01*
X79389999Y-37495682D01*
X79390000Y-37495682D01*
X79421302Y-37491560D01*
X79437487Y-37490500D01*
X83490020Y-37490500D01*
X83537472Y-37499938D01*
X83561868Y-37510044D01*
X83640249Y-37520363D01*
X83718629Y-37530682D01*
X83718630Y-37530682D01*
X83749932Y-37526560D01*
X83766117Y-37525500D01*
X85527844Y-37525500D01*
X85594883Y-37545185D01*
X85615525Y-37561819D01*
X85819745Y-37766038D01*
X85830440Y-37778233D01*
X85849661Y-37803283D01*
X85877924Y-37824969D01*
X85877937Y-37824980D01*
X85975100Y-37899535D01*
X85975103Y-37899537D01*
X86028656Y-37921719D01*
X86123342Y-37960939D01*
X86177745Y-38004780D01*
X86199810Y-38071074D01*
X86182531Y-38138773D01*
X86131394Y-38186384D01*
X86075889Y-38199500D01*
X76322487Y-38199500D01*
X76306302Y-38198439D01*
X76275000Y-38194318D01*
X76235639Y-38199500D01*
X76118239Y-38214955D01*
X76118237Y-38214956D01*
X75972157Y-38275464D01*
X75846718Y-38371716D01*
X75827489Y-38396775D01*
X75816798Y-38408965D01*
X70958965Y-43266798D01*
X70946775Y-43277489D01*
X70921720Y-43296715D01*
X70909641Y-43312456D01*
X70878951Y-43352453D01*
X70878950Y-43352453D01*
X70825464Y-43422157D01*
X70764956Y-43568237D01*
X70764955Y-43568239D01*
X70744318Y-43724998D01*
X70744318Y-43724999D01*
X70748439Y-43756301D01*
X70749500Y-43772487D01*
X70749500Y-56552512D01*
X70748439Y-56568697D01*
X70744318Y-56599998D01*
X70744318Y-56600000D01*
X70749500Y-56639360D01*
X70749500Y-56639361D01*
X70764955Y-56756759D01*
X70764955Y-56756761D01*
X70764956Y-56756762D01*
X70779364Y-56791546D01*
X70788578Y-56813791D01*
X70797237Y-56875120D01*
X70794435Y-56899999D01*
X70794435Y-56900003D01*
X70814630Y-57079249D01*
X70814631Y-57079254D01*
X70874211Y-57249523D01*
X70913019Y-57311285D01*
X70970184Y-57402262D01*
X71097738Y-57529816D01*
X71250478Y-57625789D01*
X71420745Y-57685368D01*
X71489384Y-57693101D01*
X71553796Y-57720166D01*
X71593352Y-57777760D01*
X71599500Y-57816321D01*
X71599500Y-60449902D01*
X71579815Y-60516941D01*
X71563179Y-60537584D01*
X71556459Y-60544305D01*
X71495133Y-60577785D01*
X71482668Y-60579837D01*
X71395750Y-60589630D01*
X71225478Y-60649210D01*
X71072737Y-60745184D01*
X70945184Y-60872737D01*
X70849211Y-61025476D01*
X70789631Y-61195745D01*
X70789630Y-61195750D01*
X70769435Y-61374996D01*
X70769435Y-61375003D01*
X70789630Y-61554249D01*
X70789631Y-61554254D01*
X70849211Y-61724523D01*
X70903735Y-61811296D01*
X70945184Y-61877262D01*
X71072738Y-62004816D01*
X71225478Y-62100789D01*
X71315457Y-62132274D01*
X71395745Y-62160368D01*
X71395750Y-62160369D01*
X71574996Y-62180565D01*
X71575000Y-62180565D01*
X71575004Y-62180565D01*
X71754249Y-62160369D01*
X71754251Y-62160368D01*
X71754255Y-62160368D01*
X71754258Y-62160366D01*
X71754262Y-62160366D01*
X71834545Y-62132274D01*
X71904324Y-62128712D01*
X71964951Y-62163440D01*
X71997179Y-62225434D01*
X71999500Y-62249315D01*
X71999500Y-64577512D01*
X71998439Y-64593697D01*
X71994318Y-64624998D01*
X71994318Y-64625000D01*
X71999500Y-64664360D01*
X71999500Y-64664361D01*
X72014955Y-64781760D01*
X72014956Y-64781762D01*
X72051350Y-64869626D01*
X72075464Y-64927841D01*
X72171718Y-65053282D01*
X72171719Y-65053283D01*
X72196769Y-65072504D01*
X72208964Y-65083199D01*
X75019298Y-67893533D01*
X75052783Y-67954856D01*
X75054837Y-67967330D01*
X75064630Y-68054249D01*
X75124210Y-68224521D01*
X75220184Y-68377262D01*
X75347738Y-68504816D01*
X75500478Y-68600789D01*
X75670745Y-68660368D01*
X75670750Y-68660369D01*
X75849996Y-68680565D01*
X75850000Y-68680565D01*
X75850004Y-68680565D01*
X76029249Y-68660369D01*
X76029252Y-68660368D01*
X76029255Y-68660368D01*
X76199522Y-68600789D01*
X76352262Y-68504816D01*
X76479816Y-68377262D01*
X76575789Y-68224522D01*
X76635368Y-68054255D01*
X76645162Y-67967330D01*
X76655565Y-67875003D01*
X76655565Y-67874996D01*
X76635369Y-67695750D01*
X76635368Y-67695745D01*
X76575788Y-67525476D01*
X76479815Y-67372737D01*
X76352262Y-67245184D01*
X76199521Y-67149210D01*
X76029249Y-67089630D01*
X75942330Y-67079837D01*
X75877916Y-67052770D01*
X75868533Y-67044298D01*
X73236819Y-64412584D01*
X73203334Y-64351261D01*
X73200500Y-64324903D01*
X73200500Y-59750001D01*
X75244390Y-59750001D01*
X75264804Y-60035433D01*
X75325628Y-60315037D01*
X75325630Y-60315043D01*
X75325631Y-60315046D01*
X75422582Y-60574980D01*
X75425635Y-60583166D01*
X75562770Y-60834309D01*
X75562775Y-60834317D01*
X75734254Y-61063387D01*
X75734270Y-61063405D01*
X75936594Y-61265729D01*
X75936612Y-61265745D01*
X76165682Y-61437224D01*
X76165690Y-61437229D01*
X76416833Y-61574364D01*
X76416832Y-61574364D01*
X76416836Y-61574365D01*
X76416839Y-61574367D01*
X76684954Y-61674369D01*
X76684960Y-61674370D01*
X76684962Y-61674371D01*
X76964566Y-61735195D01*
X76964568Y-61735195D01*
X76964572Y-61735196D01*
X77218220Y-61753337D01*
X77249999Y-61755610D01*
X77250000Y-61755610D01*
X77250001Y-61755610D01*
X77298091Y-61752170D01*
X77369838Y-61747039D01*
X77438111Y-61761891D01*
X77487516Y-61811296D01*
X77502368Y-61879569D01*
X77477951Y-61945033D01*
X77312775Y-62165682D01*
X77312770Y-62165690D01*
X77175635Y-62416833D01*
X77075628Y-62684962D01*
X77014804Y-62964566D01*
X76994390Y-63249998D01*
X76994390Y-63250001D01*
X77014804Y-63535433D01*
X77075628Y-63815037D01*
X77175635Y-64083166D01*
X77312770Y-64334309D01*
X77312775Y-64334317D01*
X77484254Y-64563387D01*
X77484270Y-64563405D01*
X77686594Y-64765729D01*
X77686612Y-64765745D01*
X77915682Y-64937224D01*
X77915690Y-64937229D01*
X78166833Y-65074364D01*
X78166832Y-65074364D01*
X78166836Y-65074365D01*
X78166839Y-65074367D01*
X78434954Y-65174369D01*
X78434960Y-65174370D01*
X78434962Y-65174371D01*
X78714566Y-65235195D01*
X78714568Y-65235195D01*
X78714572Y-65235196D01*
X78968220Y-65253337D01*
X78999999Y-65255610D01*
X79000000Y-65255610D01*
X79000001Y-65255610D01*
X79028595Y-65253564D01*
X79285428Y-65235196D01*
X79383670Y-65213825D01*
X79565037Y-65174371D01*
X79565037Y-65174370D01*
X79565046Y-65174369D01*
X79833161Y-65074367D01*
X80084315Y-64937226D01*
X80313395Y-64765739D01*
X80515739Y-64563395D01*
X80687226Y-64334315D01*
X80733263Y-64250005D01*
X81494357Y-64250005D01*
X81514890Y-64497812D01*
X81514892Y-64497824D01*
X81575936Y-64738881D01*
X81675826Y-64966606D01*
X81811833Y-65174782D01*
X81811836Y-65174785D01*
X81980256Y-65357738D01*
X82176491Y-65510474D01*
X82395190Y-65628828D01*
X82630386Y-65709571D01*
X82875665Y-65750500D01*
X83124335Y-65750500D01*
X83369614Y-65709571D01*
X83604810Y-65628828D01*
X83823509Y-65510474D01*
X84019744Y-65357738D01*
X84188164Y-65174785D01*
X84188435Y-65174371D01*
X84267545Y-65053283D01*
X84324173Y-64966607D01*
X84424063Y-64738881D01*
X84485108Y-64497821D01*
X84501924Y-64294871D01*
X84518130Y-64252873D01*
X84732472Y-64252873D01*
X84746956Y-64280124D01*
X84749500Y-64305104D01*
X84749500Y-64314202D01*
X84749501Y-64314223D01*
X84759904Y-64446413D01*
X84759905Y-64446420D01*
X84814902Y-64664678D01*
X84814903Y-64664681D01*
X84907991Y-64869622D01*
X84907997Y-64869632D01*
X85036174Y-65054645D01*
X85036178Y-65054650D01*
X85036181Y-65054654D01*
X85195346Y-65213819D01*
X85195350Y-65213822D01*
X85195354Y-65213825D01*
X85334603Y-65310297D01*
X85380374Y-65342007D01*
X85585317Y-65435096D01*
X85585321Y-65435097D01*
X85803579Y-65490094D01*
X85803581Y-65490094D01*
X85803588Y-65490096D01*
X85935783Y-65500500D01*
X88064216Y-65500499D01*
X88196412Y-65490096D01*
X88414683Y-65435096D01*
X88619626Y-65342007D01*
X88804654Y-65213819D01*
X88963819Y-65054654D01*
X89092007Y-64869626D01*
X89185096Y-64664683D01*
X89240096Y-64446412D01*
X89250500Y-64314217D01*
X89250499Y-62185784D01*
X89240096Y-62053588D01*
X89240094Y-62053579D01*
X89184705Y-61833763D01*
X89187412Y-61763946D01*
X89227435Y-61706676D01*
X89278586Y-61682299D01*
X89315046Y-61674369D01*
X89583161Y-61574367D01*
X89834315Y-61437226D01*
X90063395Y-61265739D01*
X90265739Y-61063395D01*
X90437226Y-60834315D01*
X90574367Y-60583161D01*
X90674369Y-60315046D01*
X90735196Y-60035428D01*
X90755610Y-59750001D01*
X113244390Y-59750001D01*
X113264804Y-60035433D01*
X113325628Y-60315037D01*
X113325630Y-60315043D01*
X113325631Y-60315046D01*
X113422582Y-60574980D01*
X113425635Y-60583166D01*
X113562770Y-60834309D01*
X113562775Y-60834317D01*
X113734254Y-61063387D01*
X113734270Y-61063405D01*
X113936594Y-61265729D01*
X113936612Y-61265745D01*
X114165682Y-61437224D01*
X114165690Y-61437229D01*
X114416833Y-61574364D01*
X114416832Y-61574364D01*
X114416836Y-61574365D01*
X114416839Y-61574367D01*
X114684954Y-61674369D01*
X114684960Y-61674370D01*
X114684962Y-61674371D01*
X114964566Y-61735195D01*
X114964568Y-61735195D01*
X114964572Y-61735196D01*
X115218220Y-61753337D01*
X115249999Y-61755610D01*
X115250000Y-61755610D01*
X115250001Y-61755610D01*
X115298091Y-61752170D01*
X115369838Y-61747039D01*
X115438111Y-61761891D01*
X115487516Y-61811296D01*
X115502368Y-61879569D01*
X115477951Y-61945033D01*
X115312775Y-62165682D01*
X115312770Y-62165690D01*
X115175635Y-62416833D01*
X115075628Y-62684962D01*
X115014804Y-62964566D01*
X114994390Y-63249998D01*
X114994390Y-63250001D01*
X115014804Y-63535433D01*
X115075628Y-63815037D01*
X115175635Y-64083166D01*
X115312770Y-64334309D01*
X115312775Y-64334317D01*
X115484254Y-64563387D01*
X115484270Y-64563405D01*
X115686594Y-64765729D01*
X115686612Y-64765745D01*
X115915682Y-64937224D01*
X115915690Y-64937229D01*
X116166833Y-65074364D01*
X116166832Y-65074364D01*
X116166836Y-65074365D01*
X116166839Y-65074367D01*
X116434954Y-65174369D01*
X116434960Y-65174370D01*
X116434962Y-65174371D01*
X116714566Y-65235195D01*
X116714568Y-65235195D01*
X116714572Y-65235196D01*
X116968220Y-65253337D01*
X116999999Y-65255610D01*
X117000000Y-65255610D01*
X117000001Y-65255610D01*
X117028595Y-65253564D01*
X117285428Y-65235196D01*
X117383670Y-65213825D01*
X117565037Y-65174371D01*
X117565037Y-65174370D01*
X117565046Y-65174369D01*
X117833161Y-65074367D01*
X118084315Y-64937226D01*
X118313395Y-64765739D01*
X118515739Y-64563395D01*
X118687226Y-64334315D01*
X118733263Y-64250005D01*
X119494357Y-64250005D01*
X119514890Y-64497812D01*
X119514892Y-64497824D01*
X119575936Y-64738881D01*
X119675826Y-64966606D01*
X119811833Y-65174782D01*
X119811836Y-65174785D01*
X119980256Y-65357738D01*
X120176491Y-65510474D01*
X120395190Y-65628828D01*
X120630386Y-65709571D01*
X120875665Y-65750500D01*
X121124335Y-65750500D01*
X121369614Y-65709571D01*
X121604810Y-65628828D01*
X121823509Y-65510474D01*
X122019744Y-65357738D01*
X122188164Y-65174785D01*
X122188435Y-65174371D01*
X122267545Y-65053283D01*
X122324173Y-64966607D01*
X122424063Y-64738881D01*
X122485108Y-64497821D01*
X122501924Y-64294871D01*
X122518130Y-64252873D01*
X122732472Y-64252873D01*
X122746956Y-64280124D01*
X122749500Y-64305104D01*
X122749500Y-64314202D01*
X122749501Y-64314223D01*
X122759904Y-64446413D01*
X122759905Y-64446420D01*
X122814902Y-64664678D01*
X122814903Y-64664681D01*
X122907991Y-64869622D01*
X122907997Y-64869632D01*
X123036174Y-65054645D01*
X123036178Y-65054650D01*
X123036181Y-65054654D01*
X123195346Y-65213819D01*
X123195350Y-65213822D01*
X123195354Y-65213825D01*
X123334603Y-65310297D01*
X123380374Y-65342007D01*
X123585317Y-65435096D01*
X123585321Y-65435097D01*
X123803579Y-65490094D01*
X123803581Y-65490094D01*
X123803588Y-65490096D01*
X123935783Y-65500500D01*
X126064216Y-65500499D01*
X126196412Y-65490096D01*
X126414683Y-65435096D01*
X126619626Y-65342007D01*
X126804654Y-65213819D01*
X126963819Y-65054654D01*
X127092007Y-64869626D01*
X127185096Y-64664683D01*
X127240096Y-64446412D01*
X127250500Y-64314217D01*
X127250499Y-62185784D01*
X127240096Y-62053588D01*
X127240094Y-62053579D01*
X127184705Y-61833763D01*
X127187412Y-61763946D01*
X127227435Y-61706676D01*
X127278586Y-61682299D01*
X127315046Y-61674369D01*
X127583161Y-61574367D01*
X127834315Y-61437226D01*
X128063395Y-61265739D01*
X128265739Y-61063395D01*
X128437226Y-60834315D01*
X128574367Y-60583161D01*
X128674369Y-60315046D01*
X128735196Y-60035428D01*
X128755610Y-59750000D01*
X128735196Y-59464572D01*
X128674369Y-59184954D01*
X128574367Y-58916839D01*
X128524656Y-58825801D01*
X128437229Y-58665690D01*
X128437224Y-58665682D01*
X128265745Y-58436612D01*
X128265729Y-58436594D01*
X128063405Y-58234270D01*
X128063387Y-58234254D01*
X127834317Y-58062775D01*
X127834309Y-58062770D01*
X127583166Y-57925635D01*
X127583167Y-57925635D01*
X127475915Y-57885632D01*
X127315046Y-57825631D01*
X127315043Y-57825630D01*
X127315037Y-57825628D01*
X127035433Y-57764804D01*
X126750001Y-57744390D01*
X126749999Y-57744390D01*
X126464566Y-57764804D01*
X126184962Y-57825628D01*
X125916833Y-57925635D01*
X125665690Y-58062770D01*
X125665682Y-58062775D01*
X125436612Y-58234254D01*
X125436594Y-58234270D01*
X125234270Y-58436594D01*
X125234254Y-58436612D01*
X125062775Y-58665682D01*
X125062770Y-58665690D01*
X124925635Y-58916833D01*
X124825628Y-59184962D01*
X124764804Y-59464566D01*
X124744390Y-59749998D01*
X124744390Y-59750001D01*
X124764804Y-60035433D01*
X124825628Y-60315037D01*
X124925635Y-60583167D01*
X125052812Y-60816073D01*
X125067664Y-60884346D01*
X125043247Y-60949810D01*
X124987314Y-60991682D01*
X124943980Y-60999500D01*
X123935791Y-60999500D01*
X123935776Y-60999501D01*
X123803586Y-61009904D01*
X123803579Y-61009905D01*
X123585321Y-61064902D01*
X123585318Y-61064903D01*
X123380377Y-61157991D01*
X123380367Y-61157997D01*
X123195354Y-61286174D01*
X123195342Y-61286184D01*
X123036184Y-61445342D01*
X123036174Y-61445354D01*
X122907997Y-61630367D01*
X122907991Y-61630377D01*
X122814903Y-61835318D01*
X122814902Y-61835321D01*
X122759905Y-62053579D01*
X122759904Y-62053586D01*
X122749500Y-62185777D01*
X122749500Y-64194883D01*
X122732472Y-64252873D01*
X122518130Y-64252873D01*
X122519334Y-64249753D01*
X122506523Y-64229818D01*
X122501925Y-64205134D01*
X122485108Y-64002179D01*
X122437717Y-63815037D01*
X122424063Y-63761118D01*
X122324173Y-63533393D01*
X122188166Y-63325217D01*
X122166557Y-63301744D01*
X122019744Y-63142262D01*
X121823509Y-62989526D01*
X121823507Y-62989525D01*
X121823506Y-62989524D01*
X121604811Y-62871172D01*
X121604802Y-62871169D01*
X121369616Y-62790429D01*
X121124335Y-62749500D01*
X120875665Y-62749500D01*
X120630383Y-62790429D01*
X120395197Y-62871169D01*
X120395188Y-62871172D01*
X120176493Y-62989524D01*
X119980257Y-63142261D01*
X119811833Y-63325217D01*
X119675826Y-63533393D01*
X119575936Y-63761118D01*
X119514892Y-64002175D01*
X119514890Y-64002187D01*
X119494357Y-64249994D01*
X119494357Y-64250005D01*
X118733263Y-64250005D01*
X118824367Y-64083161D01*
X118924369Y-63815046D01*
X118924371Y-63815037D01*
X118985195Y-63535433D01*
X118985195Y-63535432D01*
X118985196Y-63535428D01*
X119005610Y-63250000D01*
X118985196Y-62964572D01*
X118971767Y-62902842D01*
X118924371Y-62684962D01*
X118924370Y-62684960D01*
X118924369Y-62684954D01*
X118824367Y-62416839D01*
X118798891Y-62370184D01*
X118687229Y-62165690D01*
X118687224Y-62165682D01*
X118515745Y-61936612D01*
X118515729Y-61936594D01*
X118313405Y-61734270D01*
X118313387Y-61734254D01*
X118084317Y-61562775D01*
X118084309Y-61562770D01*
X117833166Y-61425635D01*
X117833167Y-61425635D01*
X117697398Y-61374996D01*
X117565046Y-61325631D01*
X117565043Y-61325630D01*
X117565037Y-61325628D01*
X117285433Y-61264804D01*
X117000001Y-61244390D01*
X116999997Y-61244390D01*
X116880160Y-61252960D01*
X116811887Y-61238108D01*
X116762482Y-61188702D01*
X116747631Y-61120429D01*
X116772046Y-61054969D01*
X116937226Y-60834315D01*
X117074367Y-60583161D01*
X117174369Y-60315046D01*
X117235196Y-60035428D01*
X117255610Y-59750000D01*
X117235196Y-59464572D01*
X117174369Y-59184954D01*
X117074367Y-58916839D01*
X117024656Y-58825801D01*
X116937229Y-58665690D01*
X116937224Y-58665682D01*
X116765745Y-58436612D01*
X116765729Y-58436594D01*
X116563405Y-58234270D01*
X116563387Y-58234254D01*
X116334317Y-58062775D01*
X116334309Y-58062770D01*
X116083166Y-57925635D01*
X116083167Y-57925635D01*
X115975915Y-57885632D01*
X115815046Y-57825631D01*
X115815043Y-57825630D01*
X115815037Y-57825628D01*
X115535433Y-57764804D01*
X115250001Y-57744390D01*
X115249999Y-57744390D01*
X114964566Y-57764804D01*
X114684962Y-57825628D01*
X114416833Y-57925635D01*
X114165690Y-58062770D01*
X114165682Y-58062775D01*
X113936612Y-58234254D01*
X113936594Y-58234270D01*
X113734270Y-58436594D01*
X113734254Y-58436612D01*
X113562775Y-58665682D01*
X113562770Y-58665690D01*
X113425635Y-58916833D01*
X113325628Y-59184962D01*
X113264804Y-59464566D01*
X113244390Y-59749998D01*
X113244390Y-59750001D01*
X90755610Y-59750001D01*
X90755610Y-59750000D01*
X90735196Y-59464572D01*
X90674369Y-59184954D01*
X90574367Y-58916839D01*
X90524656Y-58825801D01*
X90437229Y-58665690D01*
X90437224Y-58665682D01*
X90265745Y-58436612D01*
X90265729Y-58436594D01*
X90063405Y-58234270D01*
X90063387Y-58234254D01*
X89834317Y-58062775D01*
X89834309Y-58062770D01*
X89583166Y-57925635D01*
X89583167Y-57925635D01*
X89475915Y-57885632D01*
X89315046Y-57825631D01*
X89315043Y-57825630D01*
X89315037Y-57825628D01*
X89035433Y-57764804D01*
X88750001Y-57744390D01*
X88749999Y-57744390D01*
X88464566Y-57764804D01*
X88184962Y-57825628D01*
X87916833Y-57925635D01*
X87665690Y-58062770D01*
X87665682Y-58062775D01*
X87436612Y-58234254D01*
X87436594Y-58234270D01*
X87234270Y-58436594D01*
X87234254Y-58436612D01*
X87062775Y-58665682D01*
X87062770Y-58665690D01*
X86925635Y-58916833D01*
X86825628Y-59184962D01*
X86764804Y-59464566D01*
X86744390Y-59749998D01*
X86744390Y-59750001D01*
X86764804Y-60035433D01*
X86825628Y-60315037D01*
X86925635Y-60583167D01*
X87052812Y-60816073D01*
X87067664Y-60884346D01*
X87043247Y-60949810D01*
X86987314Y-60991682D01*
X86943980Y-60999500D01*
X85935791Y-60999500D01*
X85935776Y-60999501D01*
X85803586Y-61009904D01*
X85803579Y-61009905D01*
X85585321Y-61064902D01*
X85585318Y-61064903D01*
X85380377Y-61157991D01*
X85380367Y-61157997D01*
X85195354Y-61286174D01*
X85195342Y-61286184D01*
X85036184Y-61445342D01*
X85036174Y-61445354D01*
X84907997Y-61630367D01*
X84907991Y-61630377D01*
X84814903Y-61835318D01*
X84814902Y-61835321D01*
X84759905Y-62053579D01*
X84759904Y-62053586D01*
X84749500Y-62185777D01*
X84749500Y-64194883D01*
X84732472Y-64252873D01*
X84518130Y-64252873D01*
X84519334Y-64249753D01*
X84506523Y-64229818D01*
X84501925Y-64205134D01*
X84485108Y-64002179D01*
X84437717Y-63815037D01*
X84424063Y-63761118D01*
X84324173Y-63533393D01*
X84188166Y-63325217D01*
X84166557Y-63301744D01*
X84019744Y-63142262D01*
X83823509Y-62989526D01*
X83823507Y-62989525D01*
X83823506Y-62989524D01*
X83604811Y-62871172D01*
X83604802Y-62871169D01*
X83369616Y-62790429D01*
X83124335Y-62749500D01*
X82875665Y-62749500D01*
X82630383Y-62790429D01*
X82395197Y-62871169D01*
X82395188Y-62871172D01*
X82176493Y-62989524D01*
X81980257Y-63142261D01*
X81811833Y-63325217D01*
X81675826Y-63533393D01*
X81575936Y-63761118D01*
X81514892Y-64002175D01*
X81514890Y-64002187D01*
X81494357Y-64249994D01*
X81494357Y-64250005D01*
X80733263Y-64250005D01*
X80824367Y-64083161D01*
X80924369Y-63815046D01*
X80924371Y-63815037D01*
X80985195Y-63535433D01*
X80985195Y-63535432D01*
X80985196Y-63535428D01*
X81005610Y-63250000D01*
X80985196Y-62964572D01*
X80971767Y-62902842D01*
X80924371Y-62684962D01*
X80924370Y-62684960D01*
X80924369Y-62684954D01*
X80824367Y-62416839D01*
X80798891Y-62370184D01*
X80687229Y-62165690D01*
X80687224Y-62165682D01*
X80515745Y-61936612D01*
X80515729Y-61936594D01*
X80313405Y-61734270D01*
X80313387Y-61734254D01*
X80084317Y-61562775D01*
X80084309Y-61562770D01*
X79833166Y-61425635D01*
X79833167Y-61425635D01*
X79697398Y-61374996D01*
X79565046Y-61325631D01*
X79565043Y-61325630D01*
X79565037Y-61325628D01*
X79285433Y-61264804D01*
X79000001Y-61244390D01*
X78999997Y-61244390D01*
X78880160Y-61252960D01*
X78811887Y-61238108D01*
X78762482Y-61188702D01*
X78747631Y-61120429D01*
X78772046Y-61054969D01*
X78937226Y-60834315D01*
X79074367Y-60583161D01*
X79174369Y-60315046D01*
X79235196Y-60035428D01*
X79255610Y-59750000D01*
X79235196Y-59464572D01*
X79174369Y-59184954D01*
X79074367Y-58916839D01*
X79024656Y-58825801D01*
X78937229Y-58665690D01*
X78937224Y-58665682D01*
X78765745Y-58436612D01*
X78765729Y-58436594D01*
X78563405Y-58234270D01*
X78563387Y-58234254D01*
X78334317Y-58062775D01*
X78334309Y-58062770D01*
X78083166Y-57925635D01*
X78083167Y-57925635D01*
X77975915Y-57885632D01*
X77815046Y-57825631D01*
X77815043Y-57825630D01*
X77815037Y-57825628D01*
X77535433Y-57764804D01*
X77250001Y-57744390D01*
X77249999Y-57744390D01*
X76964566Y-57764804D01*
X76684962Y-57825628D01*
X76416833Y-57925635D01*
X76165690Y-58062770D01*
X76165682Y-58062775D01*
X75936612Y-58234254D01*
X75936594Y-58234270D01*
X75734270Y-58436594D01*
X75734254Y-58436612D01*
X75562775Y-58665682D01*
X75562770Y-58665690D01*
X75425635Y-58916833D01*
X75325628Y-59184962D01*
X75264804Y-59464566D01*
X75244390Y-59749998D01*
X75244390Y-59750001D01*
X73200500Y-59750001D01*
X73200500Y-56533274D01*
X73201561Y-56517088D01*
X73205682Y-56485786D01*
X73205682Y-56485785D01*
X73186308Y-56338626D01*
X73186307Y-56338620D01*
X73185044Y-56329024D01*
X73132210Y-56201471D01*
X73124537Y-56182946D01*
X73052451Y-56089001D01*
X73049989Y-56085792D01*
X73049975Y-56085776D01*
X73028282Y-56057504D01*
X73003233Y-56038283D01*
X72991039Y-56027589D01*
X72786819Y-55823368D01*
X72753334Y-55762045D01*
X72750500Y-55735687D01*
X72750500Y-55250001D01*
X75244390Y-55250001D01*
X75264804Y-55535433D01*
X75325628Y-55815037D01*
X75325630Y-55815043D01*
X75325631Y-55815046D01*
X75425633Y-56083161D01*
X75425635Y-56083166D01*
X75562770Y-56334309D01*
X75562775Y-56334317D01*
X75734254Y-56563387D01*
X75734270Y-56563405D01*
X75936594Y-56765729D01*
X75936612Y-56765745D01*
X76165682Y-56937224D01*
X76165690Y-56937229D01*
X76416833Y-57074364D01*
X76416832Y-57074364D01*
X76416836Y-57074365D01*
X76416839Y-57074367D01*
X76684954Y-57174369D01*
X76684960Y-57174370D01*
X76684962Y-57174371D01*
X76964566Y-57235195D01*
X76964568Y-57235195D01*
X76964572Y-57235196D01*
X77218220Y-57253337D01*
X77249999Y-57255610D01*
X77250000Y-57255610D01*
X77250001Y-57255610D01*
X77278595Y-57253564D01*
X77535428Y-57235196D01*
X77815046Y-57174369D01*
X78083161Y-57074367D01*
X78334315Y-56937226D01*
X78563395Y-56765739D01*
X78765739Y-56563395D01*
X78937226Y-56334315D01*
X79074367Y-56083161D01*
X79174369Y-55815046D01*
X79235196Y-55535428D01*
X79255610Y-55250003D01*
X80194686Y-55250003D01*
X80213655Y-55575677D01*
X80213656Y-55575688D01*
X80270301Y-55896941D01*
X80270303Y-55896948D01*
X80363867Y-56209475D01*
X80493076Y-56509014D01*
X80493082Y-56509027D01*
X80656194Y-56791546D01*
X80851001Y-57053217D01*
X80851006Y-57053223D01*
X80965302Y-57174369D01*
X81074877Y-57290511D01*
X81074883Y-57290516D01*
X81074885Y-57290518D01*
X81324780Y-57500205D01*
X81324788Y-57500211D01*
X81597339Y-57679471D01*
X81888864Y-57825880D01*
X81888865Y-57825881D01*
X81888868Y-57825882D01*
X81888872Y-57825884D01*
X82195427Y-57937461D01*
X82195433Y-57937462D01*
X82195435Y-57937463D01*
X82512846Y-58012692D01*
X82512853Y-58012693D01*
X82512862Y-58012695D01*
X82836885Y-58050568D01*
X82836892Y-58050568D01*
X83163108Y-58050568D01*
X83163115Y-58050568D01*
X83487138Y-58012695D01*
X83487147Y-58012692D01*
X83487153Y-58012692D01*
X83743191Y-57952008D01*
X83804573Y-57937461D01*
X84111128Y-57825884D01*
X84402657Y-57679473D01*
X84675217Y-57500207D01*
X84925123Y-57290511D01*
X85148995Y-57053221D01*
X85343806Y-56791545D01*
X85506920Y-56509023D01*
X85636133Y-56209474D01*
X85729696Y-55896950D01*
X85742671Y-55823368D01*
X85786343Y-55575688D01*
X85786342Y-55575688D01*
X85786345Y-55575677D01*
X85805314Y-55250001D01*
X86744390Y-55250001D01*
X86764804Y-55535433D01*
X86825628Y-55815037D01*
X86825630Y-55815043D01*
X86825631Y-55815046D01*
X86925633Y-56083161D01*
X86925635Y-56083166D01*
X87062770Y-56334309D01*
X87062775Y-56334317D01*
X87234254Y-56563387D01*
X87234270Y-56563405D01*
X87436594Y-56765729D01*
X87436612Y-56765745D01*
X87665682Y-56937224D01*
X87665690Y-56937229D01*
X87916833Y-57074364D01*
X87916832Y-57074364D01*
X87916836Y-57074365D01*
X87916839Y-57074367D01*
X88184954Y-57174369D01*
X88184960Y-57174370D01*
X88184962Y-57174371D01*
X88464566Y-57235195D01*
X88464568Y-57235195D01*
X88464572Y-57235196D01*
X88718220Y-57253337D01*
X88749999Y-57255610D01*
X88750000Y-57255610D01*
X88750001Y-57255610D01*
X88778595Y-57253564D01*
X89035428Y-57235196D01*
X89315046Y-57174369D01*
X89583161Y-57074367D01*
X89834315Y-56937226D01*
X90063395Y-56765739D01*
X90265739Y-56563395D01*
X90437226Y-56334315D01*
X90574367Y-56083161D01*
X90674369Y-55815046D01*
X90735196Y-55535428D01*
X90755610Y-55250001D01*
X113244390Y-55250001D01*
X113264804Y-55535433D01*
X113325628Y-55815037D01*
X113325630Y-55815043D01*
X113325631Y-55815046D01*
X113425633Y-56083161D01*
X113425635Y-56083166D01*
X113562770Y-56334309D01*
X113562775Y-56334317D01*
X113734254Y-56563387D01*
X113734270Y-56563405D01*
X113936594Y-56765729D01*
X113936612Y-56765745D01*
X114165682Y-56937224D01*
X114165690Y-56937229D01*
X114416833Y-57074364D01*
X114416832Y-57074364D01*
X114416836Y-57074365D01*
X114416839Y-57074367D01*
X114684954Y-57174369D01*
X114684960Y-57174370D01*
X114684962Y-57174371D01*
X114964566Y-57235195D01*
X114964568Y-57235195D01*
X114964572Y-57235196D01*
X115218220Y-57253337D01*
X115249999Y-57255610D01*
X115250000Y-57255610D01*
X115250001Y-57255610D01*
X115278595Y-57253564D01*
X115535428Y-57235196D01*
X115815046Y-57174369D01*
X116083161Y-57074367D01*
X116334315Y-56937226D01*
X116563395Y-56765739D01*
X116765739Y-56563395D01*
X116937226Y-56334315D01*
X117074367Y-56083161D01*
X117174369Y-55815046D01*
X117235196Y-55535428D01*
X117255610Y-55250003D01*
X118194686Y-55250003D01*
X118213655Y-55575677D01*
X118213656Y-55575688D01*
X118270301Y-55896941D01*
X118270303Y-55896948D01*
X118363867Y-56209475D01*
X118493076Y-56509014D01*
X118493082Y-56509027D01*
X118656194Y-56791546D01*
X118851001Y-57053217D01*
X118851006Y-57053223D01*
X118965302Y-57174369D01*
X119074877Y-57290511D01*
X119074883Y-57290516D01*
X119074885Y-57290518D01*
X119324780Y-57500205D01*
X119324788Y-57500211D01*
X119597339Y-57679471D01*
X119888864Y-57825880D01*
X119888865Y-57825881D01*
X119888868Y-57825882D01*
X119888872Y-57825884D01*
X120195427Y-57937461D01*
X120195433Y-57937462D01*
X120195435Y-57937463D01*
X120512846Y-58012692D01*
X120512853Y-58012693D01*
X120512862Y-58012695D01*
X120836885Y-58050568D01*
X120836892Y-58050568D01*
X121163108Y-58050568D01*
X121163115Y-58050568D01*
X121487138Y-58012695D01*
X121487147Y-58012692D01*
X121487153Y-58012692D01*
X121743191Y-57952008D01*
X121804573Y-57937461D01*
X122111128Y-57825884D01*
X122402657Y-57679473D01*
X122675217Y-57500207D01*
X122925123Y-57290511D01*
X123148995Y-57053221D01*
X123343806Y-56791545D01*
X123506920Y-56509023D01*
X123636133Y-56209474D01*
X123729696Y-55896950D01*
X123742671Y-55823368D01*
X123786343Y-55575688D01*
X123786342Y-55575688D01*
X123786345Y-55575677D01*
X123805314Y-55250001D01*
X124744390Y-55250001D01*
X124764804Y-55535433D01*
X124825628Y-55815037D01*
X124825630Y-55815043D01*
X124825631Y-55815046D01*
X124925633Y-56083161D01*
X124925635Y-56083166D01*
X125062770Y-56334309D01*
X125062775Y-56334317D01*
X125234254Y-56563387D01*
X125234270Y-56563405D01*
X125436594Y-56765729D01*
X125436612Y-56765745D01*
X125665682Y-56937224D01*
X125665690Y-56937229D01*
X125916833Y-57074364D01*
X125916832Y-57074364D01*
X125916836Y-57074365D01*
X125916839Y-57074367D01*
X126184954Y-57174369D01*
X126184960Y-57174370D01*
X126184962Y-57174371D01*
X126464566Y-57235195D01*
X126464568Y-57235195D01*
X126464572Y-57235196D01*
X126718220Y-57253337D01*
X126749999Y-57255610D01*
X126750000Y-57255610D01*
X126750001Y-57255610D01*
X126778595Y-57253564D01*
X127035428Y-57235196D01*
X127315046Y-57174369D01*
X127583161Y-57074367D01*
X127834315Y-56937226D01*
X128063395Y-56765739D01*
X128265739Y-56563395D01*
X128437226Y-56334315D01*
X128574367Y-56083161D01*
X128674369Y-55815046D01*
X128735196Y-55535428D01*
X128755610Y-55250000D01*
X128735196Y-54964572D01*
X128726440Y-54924323D01*
X128674371Y-54684962D01*
X128674370Y-54684960D01*
X128674369Y-54684954D01*
X128574367Y-54416839D01*
X128437226Y-54165685D01*
X128437224Y-54165682D01*
X128265745Y-53936612D01*
X128265729Y-53936594D01*
X128063405Y-53734270D01*
X128063387Y-53734254D01*
X127834317Y-53562775D01*
X127834309Y-53562770D01*
X127583166Y-53425635D01*
X127583167Y-53425635D01*
X127475915Y-53385632D01*
X127315046Y-53325631D01*
X127315043Y-53325630D01*
X127315037Y-53325628D01*
X127035433Y-53264804D01*
X126750001Y-53244390D01*
X126749999Y-53244390D01*
X126464566Y-53264804D01*
X126184962Y-53325628D01*
X125916833Y-53425635D01*
X125665690Y-53562770D01*
X125665682Y-53562775D01*
X125436612Y-53734254D01*
X125436594Y-53734270D01*
X125234270Y-53936594D01*
X125234254Y-53936612D01*
X125062775Y-54165682D01*
X125062770Y-54165690D01*
X124925635Y-54416833D01*
X124825628Y-54684962D01*
X124764804Y-54964566D01*
X124744390Y-55249998D01*
X124744390Y-55250001D01*
X123805314Y-55250001D01*
X123805314Y-55250000D01*
X123786345Y-54924323D01*
X123786343Y-54924311D01*
X123729698Y-54603058D01*
X123729696Y-54603051D01*
X123673948Y-54416839D01*
X123636133Y-54290526D01*
X123506920Y-53990977D01*
X123343806Y-53708455D01*
X123343805Y-53708453D01*
X123148998Y-53446782D01*
X123148993Y-53446776D01*
X123040744Y-53332040D01*
X122925123Y-53209489D01*
X122925116Y-53209483D01*
X122925114Y-53209481D01*
X122675219Y-52999794D01*
X122675211Y-52999788D01*
X122402660Y-52820528D01*
X122111135Y-52674119D01*
X122111134Y-52674118D01*
X121804579Y-52562541D01*
X121804564Y-52562536D01*
X121487153Y-52487307D01*
X121487138Y-52487305D01*
X121163115Y-52449432D01*
X120836885Y-52449432D01*
X120553364Y-52482570D01*
X120512861Y-52487305D01*
X120512846Y-52487307D01*
X120195435Y-52562536D01*
X120195420Y-52562541D01*
X119888865Y-52674118D01*
X119888864Y-52674119D01*
X119597339Y-52820528D01*
X119324788Y-52999788D01*
X119324780Y-52999794D01*
X119074885Y-53209481D01*
X119074875Y-53209491D01*
X118851006Y-53446776D01*
X118851001Y-53446782D01*
X118656194Y-53708453D01*
X118493082Y-53990972D01*
X118493076Y-53990985D01*
X118363867Y-54290524D01*
X118270303Y-54603051D01*
X118270301Y-54603058D01*
X118213656Y-54924311D01*
X118213655Y-54924322D01*
X118194686Y-55249996D01*
X118194686Y-55250003D01*
X117255610Y-55250003D01*
X117255610Y-55250000D01*
X117235196Y-54964572D01*
X117226440Y-54924323D01*
X117174371Y-54684962D01*
X117174370Y-54684960D01*
X117174369Y-54684954D01*
X117074367Y-54416839D01*
X116937226Y-54165685D01*
X116937224Y-54165682D01*
X116765745Y-53936612D01*
X116765729Y-53936594D01*
X116563405Y-53734270D01*
X116563387Y-53734254D01*
X116334317Y-53562775D01*
X116334309Y-53562770D01*
X116083166Y-53425635D01*
X116083167Y-53425635D01*
X115975915Y-53385632D01*
X115815046Y-53325631D01*
X115815043Y-53325630D01*
X115815037Y-53325628D01*
X115535433Y-53264804D01*
X115250001Y-53244390D01*
X115249999Y-53244390D01*
X114964566Y-53264804D01*
X114684962Y-53325628D01*
X114416833Y-53425635D01*
X114165690Y-53562770D01*
X114165682Y-53562775D01*
X113936612Y-53734254D01*
X113936594Y-53734270D01*
X113734270Y-53936594D01*
X113734254Y-53936612D01*
X113562775Y-54165682D01*
X113562770Y-54165690D01*
X113425635Y-54416833D01*
X113325628Y-54684962D01*
X113264804Y-54964566D01*
X113244390Y-55249998D01*
X113244390Y-55250001D01*
X90755610Y-55250001D01*
X90755610Y-55250000D01*
X90735196Y-54964572D01*
X90726440Y-54924323D01*
X90674371Y-54684962D01*
X90674370Y-54684960D01*
X90674369Y-54684954D01*
X90574367Y-54416839D01*
X90437226Y-54165685D01*
X90437224Y-54165682D01*
X90265745Y-53936612D01*
X90265729Y-53936594D01*
X90063405Y-53734270D01*
X90063387Y-53734254D01*
X89834317Y-53562775D01*
X89834309Y-53562770D01*
X89583166Y-53425635D01*
X89583167Y-53425635D01*
X89475915Y-53385632D01*
X89315046Y-53325631D01*
X89315043Y-53325630D01*
X89315037Y-53325628D01*
X89035433Y-53264804D01*
X88750001Y-53244390D01*
X88749999Y-53244390D01*
X88464566Y-53264804D01*
X88184962Y-53325628D01*
X87916833Y-53425635D01*
X87665690Y-53562770D01*
X87665682Y-53562775D01*
X87436612Y-53734254D01*
X87436594Y-53734270D01*
X87234270Y-53936594D01*
X87234254Y-53936612D01*
X87062775Y-54165682D01*
X87062770Y-54165690D01*
X86925635Y-54416833D01*
X86825628Y-54684962D01*
X86764804Y-54964566D01*
X86744390Y-55249998D01*
X86744390Y-55250001D01*
X85805314Y-55250001D01*
X85805314Y-55250000D01*
X85786345Y-54924323D01*
X85786343Y-54924311D01*
X85729698Y-54603058D01*
X85729696Y-54603051D01*
X85673948Y-54416839D01*
X85636133Y-54290526D01*
X85506920Y-53990977D01*
X85343806Y-53708455D01*
X85343805Y-53708453D01*
X85148998Y-53446782D01*
X85148993Y-53446776D01*
X85040744Y-53332040D01*
X84925123Y-53209489D01*
X84925116Y-53209483D01*
X84925114Y-53209481D01*
X84675219Y-52999794D01*
X84675211Y-52999788D01*
X84402660Y-52820528D01*
X84111135Y-52674119D01*
X84111134Y-52674118D01*
X83804579Y-52562541D01*
X83804564Y-52562536D01*
X83487153Y-52487307D01*
X83487138Y-52487305D01*
X83163115Y-52449432D01*
X82836885Y-52449432D01*
X82553364Y-52482570D01*
X82512861Y-52487305D01*
X82512846Y-52487307D01*
X82195435Y-52562536D01*
X82195420Y-52562541D01*
X81888865Y-52674118D01*
X81888864Y-52674119D01*
X81597339Y-52820528D01*
X81324788Y-52999788D01*
X81324780Y-52999794D01*
X81074885Y-53209481D01*
X81074875Y-53209491D01*
X80851006Y-53446776D01*
X80851001Y-53446782D01*
X80656194Y-53708453D01*
X80493082Y-53990972D01*
X80493076Y-53990985D01*
X80363867Y-54290524D01*
X80270303Y-54603051D01*
X80270301Y-54603058D01*
X80213656Y-54924311D01*
X80213655Y-54924322D01*
X80194686Y-55249996D01*
X80194686Y-55250003D01*
X79255610Y-55250003D01*
X79255610Y-55250000D01*
X79235196Y-54964572D01*
X79226440Y-54924323D01*
X79174371Y-54684962D01*
X79174370Y-54684960D01*
X79174369Y-54684954D01*
X79074367Y-54416839D01*
X78937226Y-54165685D01*
X78937224Y-54165682D01*
X78765745Y-53936612D01*
X78765729Y-53936594D01*
X78563405Y-53734270D01*
X78563387Y-53734254D01*
X78334317Y-53562775D01*
X78334309Y-53562770D01*
X78083166Y-53425635D01*
X78083167Y-53425635D01*
X77975915Y-53385632D01*
X77815046Y-53325631D01*
X77815043Y-53325630D01*
X77815037Y-53325628D01*
X77535433Y-53264804D01*
X77250001Y-53244390D01*
X77249999Y-53244390D01*
X76964566Y-53264804D01*
X76684962Y-53325628D01*
X76416833Y-53425635D01*
X76165690Y-53562770D01*
X76165682Y-53562775D01*
X75936612Y-53734254D01*
X75936594Y-53734270D01*
X75734270Y-53936594D01*
X75734254Y-53936612D01*
X75562775Y-54165682D01*
X75562770Y-54165690D01*
X75425635Y-54416833D01*
X75325628Y-54684962D01*
X75264804Y-54964566D01*
X75244390Y-55249998D01*
X75244390Y-55250001D01*
X72750500Y-55250001D01*
X72750500Y-50750001D01*
X75244390Y-50750001D01*
X75264804Y-51035433D01*
X75325628Y-51315037D01*
X75325630Y-51315043D01*
X75325631Y-51315046D01*
X75343342Y-51362531D01*
X75425635Y-51583166D01*
X75562770Y-51834309D01*
X75562775Y-51834317D01*
X75734254Y-52063387D01*
X75734270Y-52063405D01*
X75936594Y-52265729D01*
X75936612Y-52265745D01*
X76165682Y-52437224D01*
X76165690Y-52437229D01*
X76416833Y-52574364D01*
X76416832Y-52574364D01*
X76416836Y-52574365D01*
X76416839Y-52574367D01*
X76684954Y-52674369D01*
X76684960Y-52674370D01*
X76684962Y-52674371D01*
X76964566Y-52735195D01*
X76964568Y-52735195D01*
X76964572Y-52735196D01*
X77218220Y-52753337D01*
X77249999Y-52755610D01*
X77250000Y-52755610D01*
X77250001Y-52755610D01*
X77278595Y-52753564D01*
X77535428Y-52735196D01*
X77815046Y-52674369D01*
X78083161Y-52574367D01*
X78334315Y-52437226D01*
X78563395Y-52265739D01*
X78765739Y-52063395D01*
X78937226Y-51834315D01*
X79074367Y-51583161D01*
X79174369Y-51315046D01*
X79235196Y-51035428D01*
X79255610Y-50750000D01*
X79235196Y-50464572D01*
X79174369Y-50184954D01*
X79074367Y-49916839D01*
X78937226Y-49665685D01*
X78772047Y-49445032D01*
X78747631Y-49379569D01*
X78762483Y-49311296D01*
X78811888Y-49261891D01*
X78880161Y-49247039D01*
X78999999Y-49255610D01*
X79000000Y-49255610D01*
X79000001Y-49255610D01*
X79028595Y-49253564D01*
X79285428Y-49235196D01*
X79289727Y-49234261D01*
X79565037Y-49174371D01*
X79565037Y-49174370D01*
X79565046Y-49174369D01*
X79833161Y-49074367D01*
X80084315Y-48937226D01*
X80313395Y-48765739D01*
X80515739Y-48563395D01*
X80687226Y-48334315D01*
X80824367Y-48083161D01*
X80924369Y-47815046D01*
X80985196Y-47535428D01*
X81005610Y-47250000D01*
X81005609Y-47249996D01*
X81005724Y-47248399D01*
X81030141Y-47182935D01*
X81086074Y-47141063D01*
X81155766Y-47136079D01*
X81217089Y-47169564D01*
X81238240Y-47197818D01*
X81312770Y-47334309D01*
X81312775Y-47334317D01*
X81484254Y-47563387D01*
X81484270Y-47563405D01*
X81686594Y-47765729D01*
X81686612Y-47765745D01*
X81915682Y-47937224D01*
X81915690Y-47937229D01*
X82166833Y-48074364D01*
X82166832Y-48074364D01*
X82166836Y-48074365D01*
X82166839Y-48074367D01*
X82434954Y-48174369D01*
X82434960Y-48174370D01*
X82434962Y-48174371D01*
X82714566Y-48235195D01*
X82714568Y-48235195D01*
X82714572Y-48235196D01*
X82968220Y-48253337D01*
X82999999Y-48255610D01*
X83000000Y-48255610D01*
X83000001Y-48255610D01*
X83028595Y-48253564D01*
X83285428Y-48235196D01*
X83565046Y-48174369D01*
X83833161Y-48074367D01*
X84084315Y-47937226D01*
X84313395Y-47765739D01*
X84515739Y-47563395D01*
X84687226Y-47334315D01*
X84761759Y-47197817D01*
X84811164Y-47148413D01*
X84879437Y-47133561D01*
X84944901Y-47157978D01*
X84986773Y-47213911D01*
X84994275Y-47248399D01*
X85014804Y-47535433D01*
X85075628Y-47815037D01*
X85175635Y-48083166D01*
X85312770Y-48334309D01*
X85312775Y-48334317D01*
X85484254Y-48563387D01*
X85484270Y-48563405D01*
X85686594Y-48765729D01*
X85686612Y-48765745D01*
X85915682Y-48937224D01*
X85915690Y-48937229D01*
X86166833Y-49074364D01*
X86166832Y-49074364D01*
X86166836Y-49074365D01*
X86166839Y-49074367D01*
X86434954Y-49174369D01*
X86434960Y-49174370D01*
X86434962Y-49174371D01*
X86714566Y-49235195D01*
X86714568Y-49235195D01*
X86714572Y-49235196D01*
X86968220Y-49253337D01*
X86999999Y-49255610D01*
X87000000Y-49255610D01*
X87000001Y-49255610D01*
X87048091Y-49252170D01*
X87119838Y-49247039D01*
X87188111Y-49261891D01*
X87237516Y-49311296D01*
X87252368Y-49379569D01*
X87227951Y-49445033D01*
X87062775Y-49665682D01*
X87062770Y-49665690D01*
X86925635Y-49916833D01*
X86825628Y-50184962D01*
X86764804Y-50464566D01*
X86744390Y-50749998D01*
X86744390Y-50750001D01*
X86764804Y-51035433D01*
X86825628Y-51315037D01*
X86825630Y-51315043D01*
X86825631Y-51315046D01*
X86843342Y-51362531D01*
X86925635Y-51583166D01*
X87062770Y-51834309D01*
X87062775Y-51834317D01*
X87234254Y-52063387D01*
X87234270Y-52063405D01*
X87436594Y-52265729D01*
X87436612Y-52265745D01*
X87665682Y-52437224D01*
X87665690Y-52437229D01*
X87916833Y-52574364D01*
X87916832Y-52574364D01*
X87916836Y-52574365D01*
X87916839Y-52574367D01*
X88184954Y-52674369D01*
X88184960Y-52674370D01*
X88184962Y-52674371D01*
X88464566Y-52735195D01*
X88464568Y-52735195D01*
X88464572Y-52735196D01*
X88718220Y-52753337D01*
X88749999Y-52755610D01*
X88750000Y-52755610D01*
X88750001Y-52755610D01*
X88778595Y-52753564D01*
X89035428Y-52735196D01*
X89315046Y-52674369D01*
X89583161Y-52574367D01*
X89834315Y-52437226D01*
X90063395Y-52265739D01*
X90265739Y-52063395D01*
X90437226Y-51834315D01*
X90574367Y-51583161D01*
X90674369Y-51315046D01*
X90735196Y-51035428D01*
X90755610Y-50750001D01*
X113244390Y-50750001D01*
X113264804Y-51035433D01*
X113325628Y-51315037D01*
X113325630Y-51315043D01*
X113325631Y-51315046D01*
X113343342Y-51362531D01*
X113425635Y-51583166D01*
X113562770Y-51834309D01*
X113562775Y-51834317D01*
X113734254Y-52063387D01*
X113734270Y-52063405D01*
X113936594Y-52265729D01*
X113936612Y-52265745D01*
X114165682Y-52437224D01*
X114165690Y-52437229D01*
X114416833Y-52574364D01*
X114416832Y-52574364D01*
X114416836Y-52574365D01*
X114416839Y-52574367D01*
X114684954Y-52674369D01*
X114684960Y-52674370D01*
X114684962Y-52674371D01*
X114964566Y-52735195D01*
X114964568Y-52735195D01*
X114964572Y-52735196D01*
X115218220Y-52753337D01*
X115249999Y-52755610D01*
X115250000Y-52755610D01*
X115250001Y-52755610D01*
X115278595Y-52753564D01*
X115535428Y-52735196D01*
X115815046Y-52674369D01*
X116083161Y-52574367D01*
X116334315Y-52437226D01*
X116563395Y-52265739D01*
X116765739Y-52063395D01*
X116937226Y-51834315D01*
X117074367Y-51583161D01*
X117174369Y-51315046D01*
X117235196Y-51035428D01*
X117255610Y-50750000D01*
X117235196Y-50464572D01*
X117174369Y-50184954D01*
X117074367Y-49916839D01*
X116937226Y-49665685D01*
X116772047Y-49445032D01*
X116747631Y-49379569D01*
X116762483Y-49311296D01*
X116811888Y-49261891D01*
X116880161Y-49247039D01*
X116999999Y-49255610D01*
X117000000Y-49255610D01*
X117000001Y-49255610D01*
X117028595Y-49253564D01*
X117285428Y-49235196D01*
X117289727Y-49234261D01*
X117565037Y-49174371D01*
X117565037Y-49174370D01*
X117565046Y-49174369D01*
X117833161Y-49074367D01*
X118084315Y-48937226D01*
X118313395Y-48765739D01*
X118515739Y-48563395D01*
X118687226Y-48334315D01*
X118824367Y-48083161D01*
X118924369Y-47815046D01*
X118985196Y-47535428D01*
X119005610Y-47250000D01*
X119005609Y-47249996D01*
X119005724Y-47248399D01*
X119030141Y-47182935D01*
X119086074Y-47141063D01*
X119155766Y-47136079D01*
X119217089Y-47169564D01*
X119238240Y-47197818D01*
X119312770Y-47334309D01*
X119312775Y-47334317D01*
X119484254Y-47563387D01*
X119484270Y-47563405D01*
X119686594Y-47765729D01*
X119686612Y-47765745D01*
X119915682Y-47937224D01*
X119915690Y-47937229D01*
X120166833Y-48074364D01*
X120166832Y-48074364D01*
X120166836Y-48074365D01*
X120166839Y-48074367D01*
X120434954Y-48174369D01*
X120434960Y-48174370D01*
X120434962Y-48174371D01*
X120714566Y-48235195D01*
X120714568Y-48235195D01*
X120714572Y-48235196D01*
X120968220Y-48253337D01*
X120999999Y-48255610D01*
X121000000Y-48255610D01*
X121000001Y-48255610D01*
X121028595Y-48253564D01*
X121285428Y-48235196D01*
X121565046Y-48174369D01*
X121833161Y-48074367D01*
X122084315Y-47937226D01*
X122313395Y-47765739D01*
X122515739Y-47563395D01*
X122687226Y-47334315D01*
X122761759Y-47197817D01*
X122811164Y-47148413D01*
X122879437Y-47133561D01*
X122944901Y-47157978D01*
X122986773Y-47213911D01*
X122994275Y-47248399D01*
X123014804Y-47535433D01*
X123075628Y-47815037D01*
X123175635Y-48083166D01*
X123312770Y-48334309D01*
X123312775Y-48334317D01*
X123484254Y-48563387D01*
X123484270Y-48563405D01*
X123686594Y-48765729D01*
X123686612Y-48765745D01*
X123915682Y-48937224D01*
X123915690Y-48937229D01*
X124166833Y-49074364D01*
X124166832Y-49074364D01*
X124166836Y-49074365D01*
X124166839Y-49074367D01*
X124434954Y-49174369D01*
X124434960Y-49174370D01*
X124434962Y-49174371D01*
X124714566Y-49235195D01*
X124714568Y-49235195D01*
X124714572Y-49235196D01*
X124968220Y-49253337D01*
X124999999Y-49255610D01*
X125000000Y-49255610D01*
X125000001Y-49255610D01*
X125048091Y-49252170D01*
X125119838Y-49247039D01*
X125188111Y-49261891D01*
X125237516Y-49311296D01*
X125252368Y-49379569D01*
X125227951Y-49445033D01*
X125062775Y-49665682D01*
X125062770Y-49665690D01*
X124925635Y-49916833D01*
X124825628Y-50184962D01*
X124764804Y-50464566D01*
X124744390Y-50749998D01*
X124744390Y-50750001D01*
X124764804Y-51035433D01*
X124825628Y-51315037D01*
X124825630Y-51315043D01*
X124825631Y-51315046D01*
X124843342Y-51362531D01*
X124925635Y-51583166D01*
X125062770Y-51834309D01*
X125062775Y-51834317D01*
X125234254Y-52063387D01*
X125234270Y-52063405D01*
X125436594Y-52265729D01*
X125436612Y-52265745D01*
X125665682Y-52437224D01*
X125665690Y-52437229D01*
X125916833Y-52574364D01*
X125916832Y-52574364D01*
X125916836Y-52574365D01*
X125916839Y-52574367D01*
X126184954Y-52674369D01*
X126184960Y-52674370D01*
X126184962Y-52674371D01*
X126464566Y-52735195D01*
X126464568Y-52735195D01*
X126464572Y-52735196D01*
X126718220Y-52753337D01*
X126749999Y-52755610D01*
X126750000Y-52755610D01*
X126750001Y-52755610D01*
X126778595Y-52753564D01*
X127035428Y-52735196D01*
X127315046Y-52674369D01*
X127583161Y-52574367D01*
X127834315Y-52437226D01*
X128063395Y-52265739D01*
X128265739Y-52063395D01*
X128437226Y-51834315D01*
X128574367Y-51583161D01*
X128674369Y-51315046D01*
X128735196Y-51035428D01*
X128755610Y-50750000D01*
X128735196Y-50464572D01*
X128674369Y-50184954D01*
X128574367Y-49916839D01*
X128437226Y-49665685D01*
X128437224Y-49665682D01*
X128265745Y-49436612D01*
X128265729Y-49436594D01*
X128063405Y-49234270D01*
X128063387Y-49234254D01*
X127834317Y-49062775D01*
X127834309Y-49062770D01*
X127583166Y-48925635D01*
X127583167Y-48925635D01*
X127475915Y-48885632D01*
X127315046Y-48825631D01*
X127315043Y-48825630D01*
X127315037Y-48825628D01*
X127035433Y-48764804D01*
X126750001Y-48744390D01*
X126749997Y-48744390D01*
X126630160Y-48752960D01*
X126561887Y-48738108D01*
X126512482Y-48688702D01*
X126497631Y-48620429D01*
X126522046Y-48554969D01*
X126687226Y-48334315D01*
X126824367Y-48083161D01*
X126924369Y-47815046D01*
X126985196Y-47535428D01*
X127005610Y-47250000D01*
X127005495Y-47248399D01*
X126999857Y-47169564D01*
X126985196Y-46964572D01*
X126924369Y-46684954D01*
X126824367Y-46416839D01*
X126792749Y-46358936D01*
X126687229Y-46165690D01*
X126687224Y-46165682D01*
X126515745Y-45936612D01*
X126515729Y-45936594D01*
X126313405Y-45734270D01*
X126313387Y-45734254D01*
X126084317Y-45562775D01*
X126084309Y-45562770D01*
X125833166Y-45425635D01*
X125833167Y-45425635D01*
X125725915Y-45385632D01*
X125565046Y-45325631D01*
X125565043Y-45325630D01*
X125565037Y-45325628D01*
X125285433Y-45264804D01*
X125000001Y-45244390D01*
X124999999Y-45244390D01*
X124714566Y-45264804D01*
X124434962Y-45325628D01*
X124166833Y-45425635D01*
X123915690Y-45562770D01*
X123915682Y-45562775D01*
X123686612Y-45734254D01*
X123686594Y-45734270D01*
X123484270Y-45936594D01*
X123484254Y-45936612D01*
X123312775Y-46165682D01*
X123312774Y-46165684D01*
X123238240Y-46302182D01*
X123188834Y-46351587D01*
X123120561Y-46366438D01*
X123055097Y-46342021D01*
X123013226Y-46286087D01*
X123005724Y-46251600D01*
X122999580Y-46165690D01*
X122985196Y-45964572D01*
X122924369Y-45684954D01*
X122824367Y-45416839D01*
X122774563Y-45325631D01*
X122687229Y-45165690D01*
X122687224Y-45165682D01*
X122515745Y-44936612D01*
X122515729Y-44936594D01*
X122313405Y-44734270D01*
X122313387Y-44734254D01*
X122084315Y-44562774D01*
X122084309Y-44562770D01*
X121833166Y-44425635D01*
X121833167Y-44425635D01*
X121697669Y-44375097D01*
X121565046Y-44325631D01*
X121565043Y-44325630D01*
X121565037Y-44325628D01*
X121285433Y-44264804D01*
X121000001Y-44244390D01*
X120999999Y-44244390D01*
X120714566Y-44264804D01*
X120434962Y-44325628D01*
X120166833Y-44425635D01*
X119915690Y-44562770D01*
X119915685Y-44562774D01*
X119686612Y-44734254D01*
X119686594Y-44734270D01*
X119484270Y-44936594D01*
X119484254Y-44936612D01*
X119312775Y-45165682D01*
X119312770Y-45165690D01*
X119175635Y-45416833D01*
X119075628Y-45684962D01*
X119014804Y-45964566D01*
X118994275Y-46251600D01*
X118969858Y-46317065D01*
X118913924Y-46358936D01*
X118844233Y-46363920D01*
X118782910Y-46330435D01*
X118761759Y-46302181D01*
X118687229Y-46165690D01*
X118687224Y-46165682D01*
X118515745Y-45936612D01*
X118515729Y-45936594D01*
X118313405Y-45734270D01*
X118313387Y-45734254D01*
X118084317Y-45562775D01*
X118084309Y-45562770D01*
X117833166Y-45425635D01*
X117833167Y-45425635D01*
X117725915Y-45385632D01*
X117565046Y-45325631D01*
X117565043Y-45325630D01*
X117565037Y-45325628D01*
X117285433Y-45264804D01*
X117000001Y-45244390D01*
X116999999Y-45244390D01*
X116714566Y-45264804D01*
X116434962Y-45325628D01*
X116166833Y-45425635D01*
X115915690Y-45562770D01*
X115915682Y-45562775D01*
X115686612Y-45734254D01*
X115686594Y-45734270D01*
X115484270Y-45936594D01*
X115484254Y-45936612D01*
X115312775Y-46165682D01*
X115312770Y-46165690D01*
X115175635Y-46416833D01*
X115075628Y-46684962D01*
X115014804Y-46964566D01*
X114994390Y-47249998D01*
X114994390Y-47250001D01*
X115014804Y-47535433D01*
X115075628Y-47815037D01*
X115175635Y-48083166D01*
X115312770Y-48334309D01*
X115312775Y-48334317D01*
X115477951Y-48554966D01*
X115502368Y-48620430D01*
X115487516Y-48688703D01*
X115438111Y-48738108D01*
X115369839Y-48752960D01*
X115250003Y-48744390D01*
X115249999Y-48744390D01*
X114964566Y-48764804D01*
X114684962Y-48825628D01*
X114416833Y-48925635D01*
X114165690Y-49062770D01*
X114165682Y-49062775D01*
X113936612Y-49234254D01*
X113936594Y-49234270D01*
X113734270Y-49436594D01*
X113734254Y-49436612D01*
X113562775Y-49665682D01*
X113562770Y-49665690D01*
X113425635Y-49916833D01*
X113325628Y-50184962D01*
X113264804Y-50464566D01*
X113244390Y-50749998D01*
X113244390Y-50750001D01*
X90755610Y-50750001D01*
X90755610Y-50750000D01*
X90735196Y-50464572D01*
X90674369Y-50184954D01*
X90574367Y-49916839D01*
X90437226Y-49665685D01*
X90437224Y-49665682D01*
X90265745Y-49436612D01*
X90265729Y-49436594D01*
X90063405Y-49234270D01*
X90063387Y-49234254D01*
X89834317Y-49062775D01*
X89834309Y-49062770D01*
X89583166Y-48925635D01*
X89583167Y-48925635D01*
X89475915Y-48885632D01*
X89315046Y-48825631D01*
X89315043Y-48825630D01*
X89315037Y-48825628D01*
X89035433Y-48764804D01*
X88750001Y-48744390D01*
X88749997Y-48744390D01*
X88630160Y-48752960D01*
X88561887Y-48738108D01*
X88512482Y-48688702D01*
X88497631Y-48620429D01*
X88522046Y-48554969D01*
X88687226Y-48334315D01*
X88824367Y-48083161D01*
X88924369Y-47815046D01*
X88985196Y-47535428D01*
X89005610Y-47250000D01*
X89005495Y-47248399D01*
X88999857Y-47169564D01*
X88985196Y-46964572D01*
X88924369Y-46684954D01*
X88824367Y-46416839D01*
X88792749Y-46358936D01*
X88687229Y-46165690D01*
X88687224Y-46165682D01*
X88515745Y-45936612D01*
X88515729Y-45936594D01*
X88313405Y-45734270D01*
X88313387Y-45734254D01*
X88084317Y-45562775D01*
X88084309Y-45562770D01*
X87833166Y-45425635D01*
X87833167Y-45425635D01*
X87725915Y-45385632D01*
X87565046Y-45325631D01*
X87565043Y-45325630D01*
X87565037Y-45325628D01*
X87285433Y-45264804D01*
X87000001Y-45244390D01*
X86999999Y-45244390D01*
X86714566Y-45264804D01*
X86434962Y-45325628D01*
X86166833Y-45425635D01*
X85915690Y-45562770D01*
X85915682Y-45562775D01*
X85686612Y-45734254D01*
X85686594Y-45734270D01*
X85484270Y-45936594D01*
X85484254Y-45936612D01*
X85312775Y-46165682D01*
X85312774Y-46165684D01*
X85238240Y-46302182D01*
X85188834Y-46351587D01*
X85120561Y-46366438D01*
X85055097Y-46342021D01*
X85013226Y-46286087D01*
X85005724Y-46251600D01*
X84999580Y-46165690D01*
X84985196Y-45964572D01*
X84924369Y-45684954D01*
X84824367Y-45416839D01*
X84774563Y-45325631D01*
X84687229Y-45165690D01*
X84687224Y-45165682D01*
X84515745Y-44936612D01*
X84515729Y-44936594D01*
X84313405Y-44734270D01*
X84313387Y-44734254D01*
X84084315Y-44562774D01*
X84084309Y-44562770D01*
X83833166Y-44425635D01*
X83833167Y-44425635D01*
X83697669Y-44375097D01*
X83565046Y-44325631D01*
X83565043Y-44325630D01*
X83565037Y-44325628D01*
X83285433Y-44264804D01*
X83000001Y-44244390D01*
X82999999Y-44244390D01*
X82714566Y-44264804D01*
X82434962Y-44325628D01*
X82166833Y-44425635D01*
X81915690Y-44562770D01*
X81915685Y-44562774D01*
X81686612Y-44734254D01*
X81686594Y-44734270D01*
X81484270Y-44936594D01*
X81484254Y-44936612D01*
X81312775Y-45165682D01*
X81312770Y-45165690D01*
X81175635Y-45416833D01*
X81075628Y-45684962D01*
X81014804Y-45964566D01*
X80994275Y-46251600D01*
X80969858Y-46317065D01*
X80913924Y-46358936D01*
X80844233Y-46363920D01*
X80782910Y-46330435D01*
X80761759Y-46302181D01*
X80687229Y-46165690D01*
X80687224Y-46165682D01*
X80515745Y-45936612D01*
X80515729Y-45936594D01*
X80313405Y-45734270D01*
X80313387Y-45734254D01*
X80084317Y-45562775D01*
X80084309Y-45562770D01*
X79833166Y-45425635D01*
X79833167Y-45425635D01*
X79725915Y-45385632D01*
X79565046Y-45325631D01*
X79565043Y-45325630D01*
X79565037Y-45325628D01*
X79285433Y-45264804D01*
X79000001Y-45244390D01*
X78999999Y-45244390D01*
X78714566Y-45264804D01*
X78434962Y-45325628D01*
X78166833Y-45425635D01*
X77915690Y-45562770D01*
X77915682Y-45562775D01*
X77686612Y-45734254D01*
X77686594Y-45734270D01*
X77484270Y-45936594D01*
X77484254Y-45936612D01*
X77312775Y-46165682D01*
X77312770Y-46165690D01*
X77175635Y-46416833D01*
X77075628Y-46684962D01*
X77014804Y-46964566D01*
X76994390Y-47249998D01*
X76994390Y-47250001D01*
X77014804Y-47535433D01*
X77075628Y-47815037D01*
X77175635Y-48083166D01*
X77312770Y-48334309D01*
X77312775Y-48334317D01*
X77477951Y-48554966D01*
X77502368Y-48620430D01*
X77487516Y-48688703D01*
X77438111Y-48738108D01*
X77369839Y-48752960D01*
X77250003Y-48744390D01*
X77249999Y-48744390D01*
X76964566Y-48764804D01*
X76684962Y-48825628D01*
X76416833Y-48925635D01*
X76165690Y-49062770D01*
X76165682Y-49062775D01*
X75936612Y-49234254D01*
X75936594Y-49234270D01*
X75734270Y-49436594D01*
X75734254Y-49436612D01*
X75562775Y-49665682D01*
X75562770Y-49665690D01*
X75425635Y-49916833D01*
X75325628Y-50184962D01*
X75264804Y-50464566D01*
X75244390Y-50749998D01*
X75244390Y-50750001D01*
X72750500Y-50750001D01*
X72750500Y-44375097D01*
X72770185Y-44308058D01*
X72786819Y-44287416D01*
X76837416Y-40236819D01*
X76898739Y-40203334D01*
X76925097Y-40200500D01*
X92358735Y-40200500D01*
X92425774Y-40220185D01*
X92446416Y-40236819D01*
X92450631Y-40241034D01*
X92461325Y-40253228D01*
X92480547Y-40278279D01*
X92480548Y-40278280D01*
X92480550Y-40278282D01*
X92553854Y-40334530D01*
X92605991Y-40374536D01*
X92752070Y-40435044D01*
X92830451Y-40445363D01*
X92908831Y-40455682D01*
X92908832Y-40455682D01*
X92940134Y-40451560D01*
X92956319Y-40450500D01*
X96352845Y-40450500D01*
X96419884Y-40470185D01*
X96440526Y-40486819D01*
X96708366Y-40754659D01*
X96741851Y-40815982D01*
X96737727Y-40883294D01*
X96689632Y-41020742D01*
X96689631Y-41020747D01*
X96669435Y-41199996D01*
X96669435Y-41200003D01*
X96689630Y-41379249D01*
X96689631Y-41379254D01*
X96749211Y-41549523D01*
X96812646Y-41650478D01*
X96845184Y-41702262D01*
X96972738Y-41829816D01*
X96976870Y-41832412D01*
X97125478Y-41925789D01*
X97265309Y-41974718D01*
X97322085Y-42015440D01*
X97347575Y-42077876D01*
X97364630Y-42229250D01*
X97364631Y-42229254D01*
X97424211Y-42399523D01*
X97454349Y-42447487D01*
X97520184Y-42552262D01*
X97647738Y-42679816D01*
X97800478Y-42775789D01*
X97970745Y-42835368D01*
X97970750Y-42835369D01*
X98149996Y-42855565D01*
X98150000Y-42855565D01*
X98150003Y-42855565D01*
X98323601Y-42836005D01*
X98392423Y-42848059D01*
X98443803Y-42895408D01*
X98454526Y-42918269D01*
X98474209Y-42974520D01*
X98540017Y-43079252D01*
X98570184Y-43127262D01*
X98697738Y-43254816D01*
X98850478Y-43350789D01*
X98965492Y-43391034D01*
X99020745Y-43410368D01*
X99020750Y-43410369D01*
X99199996Y-43430565D01*
X99200000Y-43430565D01*
X99200004Y-43430565D01*
X99379249Y-43410369D01*
X99379252Y-43410368D01*
X99379255Y-43410368D01*
X99549522Y-43350789D01*
X99702262Y-43254816D01*
X99829816Y-43127262D01*
X99925789Y-42974522D01*
X99985368Y-42804255D01*
X99988576Y-42775789D01*
X100004097Y-42638031D01*
X100031163Y-42573617D01*
X100088758Y-42534062D01*
X100158595Y-42531924D01*
X100214998Y-42564233D01*
X102141799Y-44491034D01*
X102152493Y-44503228D01*
X102171715Y-44528279D01*
X102171716Y-44528280D01*
X102171718Y-44528282D01*
X102216669Y-44562774D01*
X102297159Y-44624536D01*
X102443238Y-44685044D01*
X102521619Y-44695363D01*
X102599999Y-44705682D01*
X102600000Y-44705682D01*
X102631302Y-44701560D01*
X102647487Y-44700500D01*
X108802513Y-44700500D01*
X108818697Y-44701560D01*
X108850000Y-44705682D01*
X108850001Y-44705682D01*
X108902254Y-44698802D01*
X109006762Y-44685044D01*
X109152841Y-44624536D01*
X109233331Y-44562774D01*
X109278282Y-44528282D01*
X109297510Y-44503222D01*
X109308189Y-44491044D01*
X110812416Y-42986819D01*
X110873739Y-42953334D01*
X110900097Y-42950500D01*
X125249903Y-42950500D01*
X125316942Y-42970185D01*
X125337584Y-42986819D01*
X125741799Y-43391034D01*
X125752493Y-43403228D01*
X125771717Y-43428281D01*
X125771718Y-43428282D01*
X125865183Y-43500000D01*
X125897159Y-43524536D01*
X126043238Y-43585044D01*
X126121619Y-43595363D01*
X126199999Y-43605682D01*
X126200000Y-43605682D01*
X126231302Y-43601560D01*
X126247487Y-43600500D01*
X131199903Y-43600500D01*
X131266942Y-43620185D01*
X131287584Y-43636819D01*
X131863181Y-44212416D01*
X131896666Y-44273739D01*
X131899500Y-44300097D01*
X131899500Y-57206292D01*
X131879815Y-57273331D01*
X131841473Y-57311285D01*
X131747741Y-57370181D01*
X131747739Y-57370182D01*
X131620184Y-57497737D01*
X131524211Y-57650476D01*
X131464631Y-57820745D01*
X131464630Y-57820750D01*
X131444435Y-57999996D01*
X131444435Y-58000003D01*
X131464630Y-58179249D01*
X131464631Y-58179254D01*
X131524211Y-58349523D01*
X131578922Y-58436594D01*
X131620184Y-58502262D01*
X131747738Y-58629816D01*
X131900478Y-58725789D01*
X132070745Y-58785368D01*
X132070749Y-58785369D01*
X132161607Y-58795605D01*
X132189383Y-58798735D01*
X132253797Y-58825801D01*
X132293352Y-58883395D01*
X132299500Y-58921955D01*
X132299500Y-62134083D01*
X132279815Y-62201122D01*
X132227011Y-62246877D01*
X132216456Y-62251124D01*
X132150476Y-62274211D01*
X132150475Y-62274212D01*
X131997737Y-62370184D01*
X131870184Y-62497737D01*
X131774211Y-62650476D01*
X131714631Y-62820745D01*
X131714630Y-62820750D01*
X131694435Y-62999996D01*
X131694435Y-63000003D01*
X131714630Y-63179249D01*
X131714631Y-63179254D01*
X131774211Y-63349523D01*
X131870184Y-63502262D01*
X131997738Y-63629816D01*
X132150478Y-63725789D01*
X132320745Y-63785368D01*
X132320750Y-63785369D01*
X132499996Y-63805565D01*
X132500000Y-63805565D01*
X132500004Y-63805565D01*
X132679249Y-63785369D01*
X132679252Y-63785368D01*
X132679255Y-63785368D01*
X132849522Y-63725789D01*
X133002262Y-63629816D01*
X133129816Y-63502262D01*
X133225789Y-63349522D01*
X133285368Y-63179255D01*
X133294230Y-63100591D01*
X133321295Y-63036180D01*
X133327468Y-63029343D01*
X133424535Y-62902842D01*
X133424534Y-62902842D01*
X133424536Y-62902841D01*
X133485044Y-62756762D01*
X133500500Y-62639361D01*
X133505682Y-62600000D01*
X133501561Y-62568697D01*
X133500500Y-62552512D01*
X133500500Y-59750001D01*
X136744390Y-59750001D01*
X136764804Y-60035433D01*
X136825628Y-60315037D01*
X136825630Y-60315043D01*
X136825631Y-60315046D01*
X136922582Y-60574980D01*
X136925635Y-60583166D01*
X137062770Y-60834309D01*
X137062775Y-60834317D01*
X137234254Y-61063387D01*
X137234270Y-61063405D01*
X137436594Y-61265729D01*
X137436612Y-61265745D01*
X137665682Y-61437224D01*
X137665690Y-61437229D01*
X137916833Y-61574364D01*
X137916832Y-61574364D01*
X137916836Y-61574365D01*
X137916839Y-61574367D01*
X138184954Y-61674369D01*
X138184960Y-61674370D01*
X138184962Y-61674371D01*
X138464566Y-61735195D01*
X138464568Y-61735195D01*
X138464572Y-61735196D01*
X138718220Y-61753337D01*
X138749999Y-61755610D01*
X138750000Y-61755610D01*
X138750001Y-61755610D01*
X138798091Y-61752170D01*
X138869838Y-61747039D01*
X138938111Y-61761891D01*
X138987516Y-61811296D01*
X139002368Y-61879569D01*
X138977951Y-61945033D01*
X138812775Y-62165682D01*
X138812770Y-62165690D01*
X138675635Y-62416833D01*
X138575628Y-62684962D01*
X138514804Y-62964566D01*
X138494390Y-63249998D01*
X138494390Y-63250001D01*
X138514804Y-63535433D01*
X138575628Y-63815037D01*
X138675635Y-64083166D01*
X138812770Y-64334309D01*
X138812775Y-64334317D01*
X138984254Y-64563387D01*
X138984270Y-64563405D01*
X139186594Y-64765729D01*
X139186612Y-64765745D01*
X139415682Y-64937224D01*
X139415690Y-64937229D01*
X139666833Y-65074364D01*
X139666832Y-65074364D01*
X139666836Y-65074365D01*
X139666839Y-65074367D01*
X139934954Y-65174369D01*
X139934960Y-65174370D01*
X139934962Y-65174371D01*
X140214566Y-65235195D01*
X140214568Y-65235195D01*
X140214572Y-65235196D01*
X140468220Y-65253337D01*
X140499999Y-65255610D01*
X140500000Y-65255610D01*
X140500001Y-65255610D01*
X140528595Y-65253564D01*
X140785428Y-65235196D01*
X140883670Y-65213825D01*
X141065037Y-65174371D01*
X141065037Y-65174370D01*
X141065046Y-65174369D01*
X141333161Y-65074367D01*
X141584315Y-64937226D01*
X141813395Y-64765739D01*
X142015739Y-64563395D01*
X142187226Y-64334315D01*
X142233263Y-64250005D01*
X142994357Y-64250005D01*
X143014890Y-64497812D01*
X143014892Y-64497824D01*
X143075936Y-64738881D01*
X143175826Y-64966606D01*
X143311833Y-65174782D01*
X143311836Y-65174785D01*
X143480256Y-65357738D01*
X143676491Y-65510474D01*
X143895190Y-65628828D01*
X144130386Y-65709571D01*
X144375665Y-65750500D01*
X144624335Y-65750500D01*
X144869614Y-65709571D01*
X145104810Y-65628828D01*
X145323509Y-65510474D01*
X145519744Y-65357738D01*
X145688164Y-65174785D01*
X145688435Y-65174371D01*
X145767545Y-65053283D01*
X145824173Y-64966607D01*
X145924063Y-64738881D01*
X145985108Y-64497821D01*
X146001924Y-64294871D01*
X146018130Y-64252873D01*
X146232472Y-64252873D01*
X146246956Y-64280124D01*
X146249500Y-64305104D01*
X146249500Y-64314202D01*
X146249501Y-64314223D01*
X146259904Y-64446413D01*
X146259905Y-64446420D01*
X146314902Y-64664678D01*
X146314903Y-64664681D01*
X146407991Y-64869622D01*
X146407997Y-64869632D01*
X146536174Y-65054645D01*
X146536178Y-65054650D01*
X146536181Y-65054654D01*
X146695346Y-65213819D01*
X146695350Y-65213822D01*
X146695354Y-65213825D01*
X146834603Y-65310297D01*
X146880374Y-65342007D01*
X147085317Y-65435096D01*
X147085321Y-65435097D01*
X147303579Y-65490094D01*
X147303581Y-65490094D01*
X147303588Y-65490096D01*
X147435783Y-65500500D01*
X149564216Y-65500499D01*
X149696412Y-65490096D01*
X149914683Y-65435096D01*
X150119626Y-65342007D01*
X150304654Y-65213819D01*
X150463819Y-65054654D01*
X150592007Y-64869626D01*
X150685096Y-64664683D01*
X150740096Y-64446412D01*
X150750500Y-64314217D01*
X150750499Y-62185784D01*
X150740096Y-62053588D01*
X150740094Y-62053579D01*
X150684705Y-61833763D01*
X150687412Y-61763946D01*
X150727435Y-61706676D01*
X150778586Y-61682299D01*
X150815046Y-61674369D01*
X151083161Y-61574367D01*
X151334315Y-61437226D01*
X151563395Y-61265739D01*
X151765739Y-61063395D01*
X151937226Y-60834315D01*
X152074367Y-60583161D01*
X152174369Y-60315046D01*
X152235196Y-60035428D01*
X152255610Y-59750000D01*
X152235196Y-59464572D01*
X152174369Y-59184954D01*
X152074367Y-58916839D01*
X152024656Y-58825801D01*
X151937229Y-58665690D01*
X151937224Y-58665682D01*
X151765745Y-58436612D01*
X151765729Y-58436594D01*
X151563405Y-58234270D01*
X151563387Y-58234254D01*
X151334317Y-58062775D01*
X151334309Y-58062770D01*
X151083166Y-57925635D01*
X151083167Y-57925635D01*
X150975915Y-57885632D01*
X150815046Y-57825631D01*
X150815043Y-57825630D01*
X150815037Y-57825628D01*
X150535433Y-57764804D01*
X150250001Y-57744390D01*
X150249999Y-57744390D01*
X149964566Y-57764804D01*
X149684962Y-57825628D01*
X149416833Y-57925635D01*
X149165690Y-58062770D01*
X149165682Y-58062775D01*
X148936612Y-58234254D01*
X148936594Y-58234270D01*
X148734270Y-58436594D01*
X148734254Y-58436612D01*
X148562775Y-58665682D01*
X148562770Y-58665690D01*
X148425635Y-58916833D01*
X148325628Y-59184962D01*
X148264804Y-59464566D01*
X148244390Y-59749998D01*
X148244390Y-59750001D01*
X148264804Y-60035433D01*
X148325628Y-60315037D01*
X148425635Y-60583167D01*
X148552812Y-60816073D01*
X148567664Y-60884346D01*
X148543247Y-60949810D01*
X148487314Y-60991682D01*
X148443980Y-60999500D01*
X147435791Y-60999500D01*
X147435776Y-60999501D01*
X147303586Y-61009904D01*
X147303579Y-61009905D01*
X147085321Y-61064902D01*
X147085318Y-61064903D01*
X146880377Y-61157991D01*
X146880367Y-61157997D01*
X146695354Y-61286174D01*
X146695342Y-61286184D01*
X146536184Y-61445342D01*
X146536174Y-61445354D01*
X146407997Y-61630367D01*
X146407991Y-61630377D01*
X146314903Y-61835318D01*
X146314902Y-61835321D01*
X146259905Y-62053579D01*
X146259904Y-62053586D01*
X146249500Y-62185777D01*
X146249500Y-64194883D01*
X146232472Y-64252873D01*
X146018130Y-64252873D01*
X146019334Y-64249753D01*
X146006523Y-64229818D01*
X146001925Y-64205134D01*
X145985108Y-64002179D01*
X145937717Y-63815037D01*
X145924063Y-63761118D01*
X145824173Y-63533393D01*
X145688166Y-63325217D01*
X145666557Y-63301744D01*
X145519744Y-63142262D01*
X145323509Y-62989526D01*
X145323507Y-62989525D01*
X145323506Y-62989524D01*
X145104811Y-62871172D01*
X145104802Y-62871169D01*
X144869616Y-62790429D01*
X144624335Y-62749500D01*
X144375665Y-62749500D01*
X144130383Y-62790429D01*
X143895197Y-62871169D01*
X143895188Y-62871172D01*
X143676493Y-62989524D01*
X143480257Y-63142261D01*
X143311833Y-63325217D01*
X143175826Y-63533393D01*
X143075936Y-63761118D01*
X143014892Y-64002175D01*
X143014890Y-64002187D01*
X142994357Y-64249994D01*
X142994357Y-64250005D01*
X142233263Y-64250005D01*
X142324367Y-64083161D01*
X142424369Y-63815046D01*
X142424371Y-63815037D01*
X142485195Y-63535433D01*
X142485195Y-63535432D01*
X142485196Y-63535428D01*
X142505610Y-63250000D01*
X142485196Y-62964572D01*
X142471767Y-62902842D01*
X142424371Y-62684962D01*
X142424370Y-62684960D01*
X142424369Y-62684954D01*
X142324367Y-62416839D01*
X142298891Y-62370184D01*
X142187229Y-62165690D01*
X142187224Y-62165682D01*
X142015745Y-61936612D01*
X142015729Y-61936594D01*
X141813405Y-61734270D01*
X141813387Y-61734254D01*
X141584317Y-61562775D01*
X141584309Y-61562770D01*
X141333166Y-61425635D01*
X141333167Y-61425635D01*
X141197398Y-61374996D01*
X141065046Y-61325631D01*
X141065043Y-61325630D01*
X141065037Y-61325628D01*
X140785433Y-61264804D01*
X140500001Y-61244390D01*
X140499997Y-61244390D01*
X140380160Y-61252960D01*
X140311887Y-61238108D01*
X140262482Y-61188702D01*
X140247631Y-61120429D01*
X140272046Y-61054969D01*
X140437226Y-60834315D01*
X140574367Y-60583161D01*
X140674369Y-60315046D01*
X140735196Y-60035428D01*
X140755610Y-59750000D01*
X140735196Y-59464572D01*
X140674369Y-59184954D01*
X140574367Y-58916839D01*
X140524656Y-58825801D01*
X140437229Y-58665690D01*
X140437224Y-58665682D01*
X140265745Y-58436612D01*
X140265729Y-58436594D01*
X140063405Y-58234270D01*
X140063387Y-58234254D01*
X139834317Y-58062775D01*
X139834309Y-58062770D01*
X139583166Y-57925635D01*
X139583167Y-57925635D01*
X139475915Y-57885632D01*
X139315046Y-57825631D01*
X139315043Y-57825630D01*
X139315037Y-57825628D01*
X139035433Y-57764804D01*
X138750001Y-57744390D01*
X138749999Y-57744390D01*
X138464566Y-57764804D01*
X138184962Y-57825628D01*
X137916833Y-57925635D01*
X137665690Y-58062770D01*
X137665682Y-58062775D01*
X137436612Y-58234254D01*
X137436594Y-58234270D01*
X137234270Y-58436594D01*
X137234254Y-58436612D01*
X137062775Y-58665682D01*
X137062770Y-58665690D01*
X136925635Y-58916833D01*
X136825628Y-59184962D01*
X136764804Y-59464566D01*
X136744390Y-59749998D01*
X136744390Y-59750001D01*
X133500500Y-59750001D01*
X133500500Y-55250001D01*
X136744390Y-55250001D01*
X136764804Y-55535433D01*
X136825628Y-55815037D01*
X136825630Y-55815043D01*
X136825631Y-55815046D01*
X136925633Y-56083161D01*
X136925635Y-56083166D01*
X137062770Y-56334309D01*
X137062775Y-56334317D01*
X137234254Y-56563387D01*
X137234270Y-56563405D01*
X137436594Y-56765729D01*
X137436612Y-56765745D01*
X137665682Y-56937224D01*
X137665690Y-56937229D01*
X137916833Y-57074364D01*
X137916832Y-57074364D01*
X137916836Y-57074365D01*
X137916839Y-57074367D01*
X138184954Y-57174369D01*
X138184960Y-57174370D01*
X138184962Y-57174371D01*
X138464566Y-57235195D01*
X138464568Y-57235195D01*
X138464572Y-57235196D01*
X138718220Y-57253337D01*
X138749999Y-57255610D01*
X138750000Y-57255610D01*
X138750001Y-57255610D01*
X138778595Y-57253564D01*
X139035428Y-57235196D01*
X139315046Y-57174369D01*
X139583161Y-57074367D01*
X139834315Y-56937226D01*
X140063395Y-56765739D01*
X140265739Y-56563395D01*
X140437226Y-56334315D01*
X140574367Y-56083161D01*
X140674369Y-55815046D01*
X140735196Y-55535428D01*
X140755610Y-55250003D01*
X141694686Y-55250003D01*
X141713655Y-55575677D01*
X141713656Y-55575688D01*
X141770301Y-55896941D01*
X141770303Y-55896948D01*
X141863867Y-56209475D01*
X141993076Y-56509014D01*
X141993082Y-56509027D01*
X142156194Y-56791546D01*
X142351001Y-57053217D01*
X142351006Y-57053223D01*
X142465302Y-57174369D01*
X142574877Y-57290511D01*
X142574883Y-57290516D01*
X142574885Y-57290518D01*
X142824780Y-57500205D01*
X142824788Y-57500211D01*
X143097339Y-57679471D01*
X143388864Y-57825880D01*
X143388865Y-57825881D01*
X143388868Y-57825882D01*
X143388872Y-57825884D01*
X143695427Y-57937461D01*
X143695433Y-57937462D01*
X143695435Y-57937463D01*
X144012846Y-58012692D01*
X144012853Y-58012693D01*
X144012862Y-58012695D01*
X144336885Y-58050568D01*
X144336892Y-58050568D01*
X144663108Y-58050568D01*
X144663115Y-58050568D01*
X144987138Y-58012695D01*
X144987147Y-58012692D01*
X144987153Y-58012692D01*
X145243191Y-57952008D01*
X145304573Y-57937461D01*
X145611128Y-57825884D01*
X145902657Y-57679473D01*
X146175217Y-57500207D01*
X146425123Y-57290511D01*
X146648995Y-57053221D01*
X146843806Y-56791545D01*
X147006920Y-56509023D01*
X147136133Y-56209474D01*
X147229696Y-55896950D01*
X147242671Y-55823368D01*
X147286343Y-55575688D01*
X147286342Y-55575688D01*
X147286345Y-55575677D01*
X147305314Y-55250001D01*
X148244390Y-55250001D01*
X148264804Y-55535433D01*
X148325628Y-55815037D01*
X148325630Y-55815043D01*
X148325631Y-55815046D01*
X148425633Y-56083161D01*
X148425635Y-56083166D01*
X148562770Y-56334309D01*
X148562775Y-56334317D01*
X148734254Y-56563387D01*
X148734270Y-56563405D01*
X148936594Y-56765729D01*
X148936612Y-56765745D01*
X149165682Y-56937224D01*
X149165690Y-56937229D01*
X149416833Y-57074364D01*
X149416832Y-57074364D01*
X149416836Y-57074365D01*
X149416839Y-57074367D01*
X149684954Y-57174369D01*
X149684960Y-57174370D01*
X149684962Y-57174371D01*
X149964566Y-57235195D01*
X149964568Y-57235195D01*
X149964572Y-57235196D01*
X150218220Y-57253337D01*
X150249999Y-57255610D01*
X150250000Y-57255610D01*
X150250001Y-57255610D01*
X150278595Y-57253564D01*
X150535428Y-57235196D01*
X150815046Y-57174369D01*
X151083161Y-57074367D01*
X151334315Y-56937226D01*
X151563395Y-56765739D01*
X151765739Y-56563395D01*
X151937226Y-56334315D01*
X152074367Y-56083161D01*
X152174369Y-55815046D01*
X152235196Y-55535428D01*
X152255610Y-55250000D01*
X152235196Y-54964572D01*
X152226440Y-54924323D01*
X152174371Y-54684962D01*
X152174370Y-54684960D01*
X152174369Y-54684954D01*
X152074367Y-54416839D01*
X151937226Y-54165685D01*
X151937224Y-54165682D01*
X151765745Y-53936612D01*
X151765729Y-53936594D01*
X151563405Y-53734270D01*
X151563387Y-53734254D01*
X151334317Y-53562775D01*
X151334309Y-53562770D01*
X151083166Y-53425635D01*
X151083167Y-53425635D01*
X150975915Y-53385632D01*
X150815046Y-53325631D01*
X150815043Y-53325630D01*
X150815037Y-53325628D01*
X150535433Y-53264804D01*
X150250001Y-53244390D01*
X150249999Y-53244390D01*
X149964566Y-53264804D01*
X149684962Y-53325628D01*
X149416833Y-53425635D01*
X149165690Y-53562770D01*
X149165682Y-53562775D01*
X148936612Y-53734254D01*
X148936594Y-53734270D01*
X148734270Y-53936594D01*
X148734254Y-53936612D01*
X148562775Y-54165682D01*
X148562770Y-54165690D01*
X148425635Y-54416833D01*
X148325628Y-54684962D01*
X148264804Y-54964566D01*
X148244390Y-55249998D01*
X148244390Y-55250001D01*
X147305314Y-55250001D01*
X147305314Y-55250000D01*
X147286345Y-54924323D01*
X147286343Y-54924311D01*
X147229698Y-54603058D01*
X147229696Y-54603051D01*
X147173948Y-54416839D01*
X147136133Y-54290526D01*
X147006920Y-53990977D01*
X146843806Y-53708455D01*
X146843805Y-53708453D01*
X146648998Y-53446782D01*
X146648993Y-53446776D01*
X146540744Y-53332040D01*
X146425123Y-53209489D01*
X146425116Y-53209483D01*
X146425114Y-53209481D01*
X146175219Y-52999794D01*
X146175211Y-52999788D01*
X145902660Y-52820528D01*
X145611135Y-52674119D01*
X145611134Y-52674118D01*
X145304579Y-52562541D01*
X145304564Y-52562536D01*
X144987153Y-52487307D01*
X144987138Y-52487305D01*
X144663115Y-52449432D01*
X144336885Y-52449432D01*
X144053364Y-52482570D01*
X144012861Y-52487305D01*
X144012846Y-52487307D01*
X143695435Y-52562536D01*
X143695420Y-52562541D01*
X143388865Y-52674118D01*
X143388864Y-52674119D01*
X143097339Y-52820528D01*
X142824788Y-52999788D01*
X142824780Y-52999794D01*
X142574885Y-53209481D01*
X142574875Y-53209491D01*
X142351006Y-53446776D01*
X142351001Y-53446782D01*
X142156194Y-53708453D01*
X141993082Y-53990972D01*
X141993076Y-53990985D01*
X141863867Y-54290524D01*
X141770303Y-54603051D01*
X141770301Y-54603058D01*
X141713656Y-54924311D01*
X141713655Y-54924322D01*
X141694686Y-55249996D01*
X141694686Y-55250003D01*
X140755610Y-55250003D01*
X140755610Y-55250000D01*
X140735196Y-54964572D01*
X140726440Y-54924323D01*
X140674371Y-54684962D01*
X140674370Y-54684960D01*
X140674369Y-54684954D01*
X140574367Y-54416839D01*
X140437226Y-54165685D01*
X140437224Y-54165682D01*
X140265745Y-53936612D01*
X140265729Y-53936594D01*
X140063405Y-53734270D01*
X140063387Y-53734254D01*
X139834317Y-53562775D01*
X139834309Y-53562770D01*
X139583166Y-53425635D01*
X139583167Y-53425635D01*
X139475915Y-53385632D01*
X139315046Y-53325631D01*
X139315043Y-53325630D01*
X139315037Y-53325628D01*
X139035433Y-53264804D01*
X138750001Y-53244390D01*
X138749999Y-53244390D01*
X138464566Y-53264804D01*
X138184962Y-53325628D01*
X137916833Y-53425635D01*
X137665690Y-53562770D01*
X137665682Y-53562775D01*
X137436612Y-53734254D01*
X137436594Y-53734270D01*
X137234270Y-53936594D01*
X137234254Y-53936612D01*
X137062775Y-54165682D01*
X137062770Y-54165690D01*
X136925635Y-54416833D01*
X136825628Y-54684962D01*
X136764804Y-54964566D01*
X136744390Y-55249998D01*
X136744390Y-55250001D01*
X133500500Y-55250001D01*
X133500500Y-53050557D01*
X133520185Y-52983518D01*
X133572989Y-52937763D01*
X133642147Y-52927819D01*
X133665446Y-52933513D01*
X133670745Y-52935368D01*
X133670752Y-52935368D01*
X133670753Y-52935369D01*
X133849996Y-52955565D01*
X133850000Y-52955565D01*
X133850004Y-52955565D01*
X134029249Y-52935369D01*
X134029252Y-52935368D01*
X134029255Y-52935368D01*
X134199522Y-52875789D01*
X134352262Y-52779816D01*
X134479816Y-52652262D01*
X134575789Y-52499522D01*
X134635368Y-52329255D01*
X134642524Y-52265745D01*
X134655565Y-52150003D01*
X134655565Y-52149996D01*
X134635369Y-51970750D01*
X134635368Y-51970745D01*
X134575788Y-51800476D01*
X134479815Y-51647737D01*
X134352262Y-51520184D01*
X134199521Y-51424210D01*
X134029249Y-51364630D01*
X134010615Y-51362531D01*
X133946202Y-51335464D01*
X133906647Y-51277869D01*
X133900500Y-51239311D01*
X133900500Y-50750001D01*
X136744390Y-50750001D01*
X136764804Y-51035433D01*
X136825628Y-51315037D01*
X136825630Y-51315043D01*
X136825631Y-51315046D01*
X136843342Y-51362531D01*
X136925635Y-51583166D01*
X137062770Y-51834309D01*
X137062775Y-51834317D01*
X137234254Y-52063387D01*
X137234270Y-52063405D01*
X137436594Y-52265729D01*
X137436612Y-52265745D01*
X137665682Y-52437224D01*
X137665690Y-52437229D01*
X137916833Y-52574364D01*
X137916832Y-52574364D01*
X137916836Y-52574365D01*
X137916839Y-52574367D01*
X138184954Y-52674369D01*
X138184960Y-52674370D01*
X138184962Y-52674371D01*
X138464566Y-52735195D01*
X138464568Y-52735195D01*
X138464572Y-52735196D01*
X138718220Y-52753337D01*
X138749999Y-52755610D01*
X138750000Y-52755610D01*
X138750001Y-52755610D01*
X138778595Y-52753564D01*
X139035428Y-52735196D01*
X139315046Y-52674369D01*
X139583161Y-52574367D01*
X139834315Y-52437226D01*
X140063395Y-52265739D01*
X140265739Y-52063395D01*
X140437226Y-51834315D01*
X140574367Y-51583161D01*
X140674369Y-51315046D01*
X140735196Y-51035428D01*
X140755610Y-50750000D01*
X140735196Y-50464572D01*
X140674369Y-50184954D01*
X140574367Y-49916839D01*
X140437226Y-49665685D01*
X140272047Y-49445032D01*
X140247631Y-49379569D01*
X140262483Y-49311296D01*
X140311888Y-49261891D01*
X140380161Y-49247039D01*
X140499999Y-49255610D01*
X140500000Y-49255610D01*
X140500001Y-49255610D01*
X140528595Y-49253564D01*
X140785428Y-49235196D01*
X140789727Y-49234261D01*
X141065037Y-49174371D01*
X141065037Y-49174370D01*
X141065046Y-49174369D01*
X141333161Y-49074367D01*
X141584315Y-48937226D01*
X141813395Y-48765739D01*
X142015739Y-48563395D01*
X142187226Y-48334315D01*
X142324367Y-48083161D01*
X142424369Y-47815046D01*
X142485196Y-47535428D01*
X142505610Y-47250000D01*
X142505609Y-47249996D01*
X142505724Y-47248399D01*
X142530141Y-47182935D01*
X142586074Y-47141063D01*
X142655766Y-47136079D01*
X142717089Y-47169564D01*
X142738240Y-47197818D01*
X142812770Y-47334309D01*
X142812775Y-47334317D01*
X142984254Y-47563387D01*
X142984270Y-47563405D01*
X143186594Y-47765729D01*
X143186612Y-47765745D01*
X143415682Y-47937224D01*
X143415690Y-47937229D01*
X143666833Y-48074364D01*
X143666832Y-48074364D01*
X143666836Y-48074365D01*
X143666839Y-48074367D01*
X143934954Y-48174369D01*
X143934960Y-48174370D01*
X143934962Y-48174371D01*
X144214566Y-48235195D01*
X144214568Y-48235195D01*
X144214572Y-48235196D01*
X144468220Y-48253337D01*
X144499999Y-48255610D01*
X144500000Y-48255610D01*
X144500001Y-48255610D01*
X144528595Y-48253564D01*
X144785428Y-48235196D01*
X145065046Y-48174369D01*
X145333161Y-48074367D01*
X145584315Y-47937226D01*
X145813395Y-47765739D01*
X146015739Y-47563395D01*
X146187226Y-47334315D01*
X146261759Y-47197817D01*
X146311164Y-47148413D01*
X146379437Y-47133561D01*
X146444901Y-47157978D01*
X146486773Y-47213911D01*
X146494275Y-47248399D01*
X146514804Y-47535433D01*
X146575628Y-47815037D01*
X146675635Y-48083166D01*
X146812770Y-48334309D01*
X146812775Y-48334317D01*
X146984254Y-48563387D01*
X146984270Y-48563405D01*
X147186594Y-48765729D01*
X147186612Y-48765745D01*
X147415682Y-48937224D01*
X147415690Y-48937229D01*
X147666833Y-49074364D01*
X147666832Y-49074364D01*
X147666836Y-49074365D01*
X147666839Y-49074367D01*
X147934954Y-49174369D01*
X147934960Y-49174370D01*
X147934962Y-49174371D01*
X148214566Y-49235195D01*
X148214568Y-49235195D01*
X148214572Y-49235196D01*
X148468220Y-49253337D01*
X148499999Y-49255610D01*
X148500000Y-49255610D01*
X148500001Y-49255610D01*
X148548091Y-49252170D01*
X148619838Y-49247039D01*
X148688111Y-49261891D01*
X148737516Y-49311296D01*
X148752368Y-49379569D01*
X148727951Y-49445033D01*
X148562775Y-49665682D01*
X148562770Y-49665690D01*
X148425635Y-49916833D01*
X148325628Y-50184962D01*
X148264804Y-50464566D01*
X148244390Y-50749998D01*
X148244390Y-50750001D01*
X148264804Y-51035433D01*
X148325628Y-51315037D01*
X148325630Y-51315043D01*
X148325631Y-51315046D01*
X148343342Y-51362531D01*
X148425635Y-51583166D01*
X148562770Y-51834309D01*
X148562775Y-51834317D01*
X148734254Y-52063387D01*
X148734270Y-52063405D01*
X148936594Y-52265729D01*
X148936612Y-52265745D01*
X149165682Y-52437224D01*
X149165690Y-52437229D01*
X149416833Y-52574364D01*
X149416832Y-52574364D01*
X149416836Y-52574365D01*
X149416839Y-52574367D01*
X149684954Y-52674369D01*
X149684960Y-52674370D01*
X149684962Y-52674371D01*
X149964566Y-52735195D01*
X149964568Y-52735195D01*
X149964572Y-52735196D01*
X150218220Y-52753337D01*
X150249999Y-52755610D01*
X150250000Y-52755610D01*
X150250001Y-52755610D01*
X150278595Y-52753564D01*
X150535428Y-52735196D01*
X150815046Y-52674369D01*
X151083161Y-52574367D01*
X151334315Y-52437226D01*
X151563395Y-52265739D01*
X151765739Y-52063395D01*
X151937226Y-51834315D01*
X152074367Y-51583161D01*
X152174369Y-51315046D01*
X152235196Y-51035428D01*
X152255610Y-50750000D01*
X152235196Y-50464572D01*
X152174369Y-50184954D01*
X152074367Y-49916839D01*
X151937226Y-49665685D01*
X151937224Y-49665682D01*
X151765745Y-49436612D01*
X151765729Y-49436594D01*
X151563405Y-49234270D01*
X151563387Y-49234254D01*
X151334317Y-49062775D01*
X151334309Y-49062770D01*
X151083166Y-48925635D01*
X151083167Y-48925635D01*
X150975915Y-48885632D01*
X150815046Y-48825631D01*
X150815043Y-48825630D01*
X150815037Y-48825628D01*
X150535433Y-48764804D01*
X150250001Y-48744390D01*
X150249997Y-48744390D01*
X150130160Y-48752960D01*
X150061887Y-48738108D01*
X150012482Y-48688702D01*
X149997631Y-48620429D01*
X150022046Y-48554969D01*
X150187226Y-48334315D01*
X150324367Y-48083161D01*
X150424369Y-47815046D01*
X150485196Y-47535428D01*
X150505610Y-47250000D01*
X150505495Y-47248399D01*
X150499857Y-47169564D01*
X150485196Y-46964572D01*
X150424369Y-46684954D01*
X150324367Y-46416839D01*
X150292749Y-46358936D01*
X150187229Y-46165690D01*
X150187224Y-46165682D01*
X150015745Y-45936612D01*
X150015729Y-45936594D01*
X149813405Y-45734270D01*
X149813387Y-45734254D01*
X149584317Y-45562775D01*
X149584309Y-45562770D01*
X149333166Y-45425635D01*
X149333167Y-45425635D01*
X149225915Y-45385632D01*
X149065046Y-45325631D01*
X149065043Y-45325630D01*
X149065037Y-45325628D01*
X148785433Y-45264804D01*
X148500001Y-45244390D01*
X148499999Y-45244390D01*
X148214566Y-45264804D01*
X147934962Y-45325628D01*
X147666833Y-45425635D01*
X147415690Y-45562770D01*
X147415682Y-45562775D01*
X147186612Y-45734254D01*
X147186594Y-45734270D01*
X146984270Y-45936594D01*
X146984254Y-45936612D01*
X146812775Y-46165682D01*
X146812774Y-46165684D01*
X146738240Y-46302182D01*
X146688834Y-46351587D01*
X146620561Y-46366438D01*
X146555097Y-46342021D01*
X146513226Y-46286087D01*
X146505724Y-46251600D01*
X146499580Y-46165690D01*
X146485196Y-45964572D01*
X146424369Y-45684954D01*
X146324367Y-45416839D01*
X146274563Y-45325631D01*
X146187229Y-45165690D01*
X146187224Y-45165682D01*
X146015745Y-44936612D01*
X146015729Y-44936594D01*
X145813405Y-44734270D01*
X145813387Y-44734254D01*
X145584315Y-44562774D01*
X145584309Y-44562770D01*
X145333166Y-44425635D01*
X145333167Y-44425635D01*
X145197669Y-44375097D01*
X145065046Y-44325631D01*
X145065043Y-44325630D01*
X145065037Y-44325628D01*
X144785433Y-44264804D01*
X144500001Y-44244390D01*
X144499999Y-44244390D01*
X144214566Y-44264804D01*
X143934962Y-44325628D01*
X143666833Y-44425635D01*
X143415690Y-44562770D01*
X143415685Y-44562774D01*
X143186612Y-44734254D01*
X143186594Y-44734270D01*
X142984270Y-44936594D01*
X142984254Y-44936612D01*
X142812775Y-45165682D01*
X142812770Y-45165690D01*
X142675635Y-45416833D01*
X142575628Y-45684962D01*
X142514804Y-45964566D01*
X142494275Y-46251600D01*
X142469858Y-46317065D01*
X142413924Y-46358936D01*
X142344233Y-46363920D01*
X142282910Y-46330435D01*
X142261759Y-46302181D01*
X142187229Y-46165690D01*
X142187224Y-46165682D01*
X142015745Y-45936612D01*
X142015729Y-45936594D01*
X141813405Y-45734270D01*
X141813387Y-45734254D01*
X141584317Y-45562775D01*
X141584309Y-45562770D01*
X141333166Y-45425635D01*
X141333167Y-45425635D01*
X141225915Y-45385632D01*
X141065046Y-45325631D01*
X141065043Y-45325630D01*
X141065037Y-45325628D01*
X140785433Y-45264804D01*
X140500001Y-45244390D01*
X140499999Y-45244390D01*
X140214566Y-45264804D01*
X139934962Y-45325628D01*
X139666833Y-45425635D01*
X139415690Y-45562770D01*
X139415682Y-45562775D01*
X139186612Y-45734254D01*
X139186594Y-45734270D01*
X138984270Y-45936594D01*
X138984254Y-45936612D01*
X138812775Y-46165682D01*
X138812770Y-46165690D01*
X138675635Y-46416833D01*
X138575628Y-46684962D01*
X138514804Y-46964566D01*
X138494390Y-47249998D01*
X138494390Y-47250001D01*
X138514804Y-47535433D01*
X138575628Y-47815037D01*
X138675635Y-48083166D01*
X138812770Y-48334309D01*
X138812775Y-48334317D01*
X138977951Y-48554966D01*
X139002368Y-48620430D01*
X138987516Y-48688703D01*
X138938111Y-48738108D01*
X138869839Y-48752960D01*
X138750003Y-48744390D01*
X138749999Y-48744390D01*
X138464566Y-48764804D01*
X138184962Y-48825628D01*
X137916833Y-48925635D01*
X137665690Y-49062770D01*
X137665682Y-49062775D01*
X137436612Y-49234254D01*
X137436594Y-49234270D01*
X137234270Y-49436594D01*
X137234254Y-49436612D01*
X137062775Y-49665682D01*
X137062770Y-49665690D01*
X136925635Y-49916833D01*
X136825628Y-50184962D01*
X136764804Y-50464566D01*
X136744390Y-50749998D01*
X136744390Y-50750001D01*
X133900500Y-50750001D01*
X133900500Y-42865917D01*
X133920185Y-42798878D01*
X133972989Y-42753123D01*
X133983546Y-42748875D01*
X133987553Y-42747472D01*
X134049522Y-42725789D01*
X134202262Y-42629816D01*
X134329816Y-42502262D01*
X134425789Y-42349522D01*
X134485368Y-42179255D01*
X134493549Y-42106648D01*
X134505565Y-42000003D01*
X134505565Y-41999996D01*
X134485369Y-41820750D01*
X134485368Y-41820745D01*
X134425788Y-41650476D01*
X134329815Y-41497737D01*
X134202262Y-41370184D01*
X134137504Y-41329494D01*
X134091213Y-41277159D01*
X134080565Y-41208106D01*
X134108940Y-41144257D01*
X134167330Y-41105885D01*
X134203476Y-41100500D01*
X139452513Y-41100500D01*
X139468697Y-41101560D01*
X139500000Y-41105682D01*
X139500001Y-41105682D01*
X139552254Y-41098802D01*
X139656762Y-41085044D01*
X139802841Y-41024536D01*
X139805143Y-41022769D01*
X139807784Y-41020744D01*
X139928280Y-40928284D01*
X139930621Y-40925233D01*
X139947510Y-40903222D01*
X139958189Y-40891044D01*
X143112416Y-37736819D01*
X143173739Y-37703334D01*
X143200097Y-37700500D01*
X145049903Y-37700500D01*
X145116942Y-37720185D01*
X145137584Y-37736819D01*
X148041799Y-40641034D01*
X148052493Y-40653228D01*
X148071715Y-40678279D01*
X148071716Y-40678280D01*
X148071718Y-40678282D01*
X148162235Y-40747738D01*
X148197159Y-40774536D01*
X148343238Y-40835044D01*
X148421619Y-40845363D01*
X148499999Y-40855682D01*
X148500000Y-40855682D01*
X148531302Y-40851560D01*
X148547487Y-40850500D01*
X152956293Y-40850500D01*
X153023332Y-40870185D01*
X153061287Y-40908528D01*
X153120184Y-41002262D01*
X153247738Y-41129816D01*
X153338080Y-41186582D01*
X153382721Y-41214632D01*
X153400478Y-41225789D01*
X153469672Y-41250001D01*
X153570745Y-41285368D01*
X153570750Y-41285369D01*
X153749996Y-41305565D01*
X153750000Y-41305565D01*
X153750004Y-41305565D01*
X153929249Y-41285369D01*
X153929252Y-41285368D01*
X153929255Y-41285368D01*
X154099522Y-41225789D01*
X154252262Y-41129816D01*
X154379816Y-41002262D01*
X154475789Y-40849522D01*
X154535368Y-40679255D01*
X154539027Y-40646783D01*
X154555565Y-40500003D01*
X154555565Y-40499996D01*
X154535369Y-40320750D01*
X154535368Y-40320745D01*
X154475789Y-40150478D01*
X154379816Y-39997738D01*
X154252262Y-39870184D01*
X154099524Y-39774212D01*
X154099523Y-39774211D01*
X154046259Y-39755573D01*
X153989483Y-39714851D01*
X153963995Y-39652415D01*
X153943527Y-39470750D01*
X153943526Y-39470745D01*
X153883946Y-39300476D01*
X153787973Y-39147737D01*
X153660419Y-39020183D01*
X153610343Y-38988718D01*
X153564052Y-38936383D01*
X153553376Y-38867538D01*
X153555685Y-38850000D01*
X153555685Y-38849998D01*
X153535047Y-38693239D01*
X153535045Y-38693234D01*
X153474541Y-38547163D01*
X153474538Y-38547157D01*
X153443541Y-38506762D01*
X153443540Y-38506761D01*
X153437969Y-38499500D01*
X153378285Y-38421718D01*
X153378284Y-38421717D01*
X153353231Y-38402493D01*
X153341037Y-38391799D01*
X153208202Y-38258964D01*
X153197507Y-38246769D01*
X153178286Y-38221719D01*
X153178285Y-38221718D01*
X153052844Y-38125464D01*
X152990161Y-38099500D01*
X152906765Y-38064956D01*
X152906763Y-38064955D01*
X152844525Y-38056762D01*
X152750004Y-38044318D01*
X152750003Y-38044318D01*
X152718700Y-38048439D01*
X152702516Y-38049500D01*
X151133273Y-38049500D01*
X151117088Y-38048439D01*
X151085786Y-38044318D01*
X151085785Y-38044318D01*
X150991264Y-38056762D01*
X150929025Y-38064955D01*
X150929023Y-38064956D01*
X150782946Y-38125463D01*
X150777273Y-38129816D01*
X150657504Y-38221718D01*
X150657502Y-38221720D01*
X150654693Y-38223876D01*
X150589523Y-38249070D01*
X150579206Y-38249500D01*
X149097156Y-38249500D01*
X149030117Y-38229815D01*
X149009475Y-38213181D01*
X146305254Y-35508964D01*
X146294558Y-35496767D01*
X146275341Y-35471722D01*
X146275338Y-35471720D01*
X146275337Y-35471718D01*
X146149896Y-35375464D01*
X146003817Y-35314956D01*
X146003815Y-35314955D01*
X145886416Y-35299500D01*
X145847055Y-35294318D01*
X145815752Y-35298439D01*
X145799568Y-35299500D01*
X128435003Y-35299500D01*
X128367964Y-35279815D01*
X128322209Y-35227011D01*
X128312265Y-35157853D01*
X128315228Y-35143407D01*
X128335788Y-35066675D01*
X128357563Y-34985408D01*
X128378159Y-34750000D01*
X128357563Y-34514592D01*
X128296403Y-34286337D01*
X128196535Y-34072171D01*
X128190925Y-34064158D01*
X128060994Y-33878597D01*
X127893902Y-33711506D01*
X127893896Y-33711501D01*
X127708342Y-33581575D01*
X127664717Y-33526998D01*
X127657523Y-33457500D01*
X127689046Y-33395145D01*
X127708342Y-33378425D01*
X127761370Y-33341294D01*
X127893901Y-33248495D01*
X128060995Y-33081401D01*
X128196535Y-32887830D01*
X128296403Y-32673663D01*
X128357563Y-32445408D01*
X128378159Y-32210000D01*
X128374779Y-32171373D01*
X128368212Y-32096308D01*
X128357563Y-31974592D01*
X128296403Y-31746337D01*
X128196535Y-31532171D01*
X128190925Y-31524158D01*
X128060994Y-31338597D01*
X127890073Y-31167677D01*
X127891077Y-31166672D01*
X127856088Y-31114071D01*
X127850500Y-31077265D01*
X127850500Y-29597487D01*
X127851561Y-29581301D01*
X127851649Y-29580633D01*
X127855682Y-29550000D01*
X127853558Y-29533869D01*
X127835044Y-29393239D01*
X127835042Y-29393234D01*
X127830099Y-29381301D01*
X127786839Y-29276861D01*
X127774538Y-29247163D01*
X127774535Y-29247158D01*
X127767123Y-29237499D01*
X127733161Y-29193238D01*
X127678282Y-29121718D01*
X127672590Y-29117350D01*
X127653228Y-29102493D01*
X127641034Y-29091799D01*
X126830700Y-28281465D01*
X126797215Y-28220142D01*
X126795163Y-28207686D01*
X126785368Y-28120745D01*
X126725789Y-27950478D01*
X126629816Y-27797738D01*
X126502262Y-27670184D01*
X126415031Y-27615373D01*
X126349523Y-27574211D01*
X126179254Y-27514631D01*
X126179249Y-27514630D01*
X126000004Y-27494435D01*
X125999996Y-27494435D01*
X125820750Y-27514630D01*
X125820745Y-27514631D01*
X125650476Y-27574211D01*
X125497737Y-27670184D01*
X125370183Y-27797738D01*
X125328169Y-27864602D01*
X125275834Y-27910892D01*
X125206780Y-27921539D01*
X125182223Y-27915670D01*
X125179254Y-27914631D01*
X125000004Y-27894435D01*
X124999996Y-27894435D01*
X124820750Y-27914630D01*
X124820745Y-27914631D01*
X124650476Y-27974211D01*
X124497737Y-28070184D01*
X124370184Y-28197737D01*
X124274210Y-28350478D01*
X124214630Y-28520750D01*
X124204837Y-28607668D01*
X124177770Y-28672082D01*
X124169298Y-28681465D01*
X124108965Y-28741798D01*
X124096775Y-28752489D01*
X124071716Y-28771718D01*
X124019874Y-28839282D01*
X123975464Y-28897158D01*
X123975461Y-28897163D01*
X123914957Y-29043234D01*
X123914955Y-29043239D01*
X123894318Y-29199998D01*
X123894318Y-29199999D01*
X123898439Y-29231301D01*
X123899500Y-29247487D01*
X123899500Y-30912748D01*
X123879815Y-30979787D01*
X123827907Y-31025129D01*
X123804672Y-31035963D01*
X123804669Y-31035965D01*
X123611097Y-31171505D01*
X123444005Y-31338597D01*
X123314075Y-31524158D01*
X123259498Y-31567783D01*
X123190000Y-31574977D01*
X123127645Y-31543454D01*
X123110925Y-31524158D01*
X122980994Y-31338597D01*
X122813902Y-31171506D01*
X122813895Y-31171501D01*
X122620334Y-31035967D01*
X122620325Y-31035963D01*
X122564599Y-31009977D01*
X122474640Y-30968028D01*
X122422202Y-30921855D01*
X122403046Y-30855646D01*
X122403046Y-29682412D01*
X122422731Y-29615373D01*
X122430101Y-29605097D01*
X122432356Y-29602267D01*
X122432362Y-29602262D01*
X122528335Y-29449522D01*
X122587914Y-29279255D01*
X122589092Y-29268801D01*
X122608111Y-29100003D01*
X122608111Y-29099996D01*
X122587915Y-28920750D01*
X122587914Y-28920745D01*
X122542160Y-28789989D01*
X122528335Y-28750478D01*
X122505811Y-28714632D01*
X122465501Y-28650478D01*
X122432362Y-28597738D01*
X122304808Y-28470184D01*
X122294013Y-28463401D01*
X122152069Y-28374211D01*
X121981800Y-28314631D01*
X121981795Y-28314630D01*
X121802550Y-28294435D01*
X121802542Y-28294435D01*
X121623296Y-28314630D01*
X121623291Y-28314631D01*
X121453022Y-28374211D01*
X121300283Y-28470184D01*
X121172730Y-28597737D01*
X121076757Y-28750476D01*
X121017177Y-28920745D01*
X121017176Y-28920750D01*
X120996981Y-29099996D01*
X120996981Y-29100003D01*
X121017176Y-29279249D01*
X121017177Y-29279254D01*
X121076757Y-29449523D01*
X121113600Y-29508158D01*
X121171879Y-29600908D01*
X121172731Y-29602263D01*
X121174991Y-29605097D01*
X121175880Y-29607275D01*
X121176435Y-29608158D01*
X121176280Y-29608255D01*
X121201401Y-29669783D01*
X121202046Y-29682412D01*
X121202046Y-31015264D01*
X121182361Y-31082303D01*
X121149170Y-31116839D01*
X121071099Y-31171505D01*
X121071097Y-31171506D01*
X120904005Y-31338597D01*
X120774075Y-31524158D01*
X120719498Y-31567783D01*
X120650000Y-31574977D01*
X120587645Y-31543454D01*
X120570925Y-31524158D01*
X120440994Y-31338597D01*
X120273901Y-31171505D01*
X120153376Y-31087111D01*
X120109751Y-31032534D01*
X120100500Y-30985537D01*
X120100500Y-30082412D01*
X120120185Y-30015373D01*
X120127555Y-30005097D01*
X120129810Y-30002267D01*
X120129816Y-30002262D01*
X120225789Y-29849522D01*
X120285368Y-29679255D01*
X120285369Y-29679249D01*
X120305565Y-29500003D01*
X120305565Y-29499996D01*
X120285369Y-29320750D01*
X120285368Y-29320745D01*
X120259734Y-29247487D01*
X120225789Y-29150478D01*
X120216315Y-29135401D01*
X120158406Y-29043239D01*
X120129816Y-28997738D01*
X120002262Y-28870184D01*
X119849523Y-28774211D01*
X119679254Y-28714631D01*
X119679249Y-28714630D01*
X119500004Y-28694435D01*
X119499996Y-28694435D01*
X119320750Y-28714630D01*
X119320745Y-28714631D01*
X119150476Y-28774211D01*
X118997737Y-28870184D01*
X118870184Y-28997737D01*
X118774211Y-29150476D01*
X118714631Y-29320745D01*
X118714630Y-29320750D01*
X118694435Y-29499996D01*
X118694435Y-29500003D01*
X118714630Y-29679249D01*
X118714631Y-29679254D01*
X118774211Y-29849523D01*
X118805926Y-29899996D01*
X118867341Y-29997738D01*
X118870185Y-30002263D01*
X118872445Y-30005097D01*
X118873334Y-30007275D01*
X118873889Y-30008158D01*
X118873734Y-30008255D01*
X118898855Y-30069783D01*
X118899500Y-30082412D01*
X118899500Y-30875443D01*
X118879815Y-30942482D01*
X118827906Y-30987825D01*
X118724668Y-31035966D01*
X118531097Y-31171505D01*
X118364005Y-31338597D01*
X118234075Y-31524158D01*
X118179498Y-31567783D01*
X118110000Y-31574977D01*
X118047645Y-31543454D01*
X118030925Y-31524158D01*
X117900994Y-31338597D01*
X117733902Y-31171506D01*
X117733895Y-31171501D01*
X117540331Y-31035965D01*
X117540326Y-31035962D01*
X117534591Y-31033288D01*
X117482153Y-30987113D01*
X117463000Y-30920908D01*
X117463000Y-30620440D01*
X117482685Y-30553401D01*
X117499319Y-30532759D01*
X117554319Y-30477759D01*
X117629816Y-30402262D01*
X117725789Y-30249522D01*
X117785368Y-30079255D01*
X117785369Y-30079246D01*
X117805565Y-29900003D01*
X117805565Y-29899996D01*
X117785369Y-29720750D01*
X117785368Y-29720745D01*
X117736574Y-29581301D01*
X117725789Y-29550478D01*
X117725487Y-29549998D01*
X117662354Y-29449522D01*
X117629816Y-29397738D01*
X117502262Y-29270184D01*
X117466140Y-29247487D01*
X117349523Y-29174211D01*
X117179254Y-29114631D01*
X117179249Y-29114630D01*
X117000004Y-29094435D01*
X116999996Y-29094435D01*
X116820750Y-29114630D01*
X116820745Y-29114631D01*
X116650476Y-29174211D01*
X116497737Y-29270184D01*
X116370184Y-29397737D01*
X116274211Y-29550476D01*
X116214631Y-29720745D01*
X116214630Y-29720750D01*
X116194435Y-29899996D01*
X116194435Y-29900003D01*
X116214630Y-30079246D01*
X116214632Y-30079256D01*
X116255041Y-30194736D01*
X116262000Y-30235691D01*
X116262000Y-30920908D01*
X116242315Y-30987947D01*
X116190414Y-31033286D01*
X116184673Y-31035963D01*
X116184669Y-31035965D01*
X115991097Y-31171505D01*
X115824005Y-31338597D01*
X115694075Y-31524158D01*
X115639498Y-31567783D01*
X115570000Y-31574977D01*
X115507645Y-31543454D01*
X115490925Y-31524158D01*
X115360994Y-31338597D01*
X115193902Y-31171506D01*
X115193901Y-31171505D01*
X115048910Y-31069981D01*
X115005287Y-31015405D01*
X114998094Y-30945906D01*
X115015042Y-30902434D01*
X115048288Y-30849524D01*
X115048289Y-30849522D01*
X115107868Y-30679255D01*
X115114495Y-30620440D01*
X115128065Y-30500003D01*
X115128065Y-30499996D01*
X115107869Y-30320750D01*
X115107868Y-30320745D01*
X115083113Y-30250000D01*
X115048289Y-30150478D01*
X114952316Y-29997738D01*
X114824762Y-29870184D01*
X114791879Y-29849522D01*
X114672023Y-29774211D01*
X114501754Y-29714631D01*
X114501749Y-29714630D01*
X114322504Y-29694435D01*
X114322496Y-29694435D01*
X114143250Y-29714630D01*
X114143245Y-29714631D01*
X113972976Y-29774211D01*
X113820237Y-29870184D01*
X113692684Y-29997737D01*
X113596711Y-30150476D01*
X113537131Y-30320745D01*
X113537130Y-30320750D01*
X113516935Y-30499996D01*
X113516935Y-30500003D01*
X113537130Y-30679249D01*
X113537131Y-30679254D01*
X113596711Y-30849523D01*
X113629958Y-30902435D01*
X113648958Y-30969672D01*
X113628590Y-31036507D01*
X113596088Y-31069982D01*
X113451094Y-31171508D01*
X113284005Y-31338597D01*
X113154075Y-31524158D01*
X113099498Y-31567783D01*
X113030000Y-31574977D01*
X112967645Y-31543454D01*
X112950925Y-31524158D01*
X112820994Y-31338597D01*
X112653902Y-31171506D01*
X112653895Y-31171501D01*
X112460331Y-31035965D01*
X112460326Y-31035962D01*
X112454591Y-31033288D01*
X112402153Y-30987113D01*
X112383000Y-30920908D01*
X112383000Y-27767597D01*
X112402685Y-27700558D01*
X112419319Y-27679916D01*
X112862416Y-27236819D01*
X112923739Y-27203334D01*
X112950097Y-27200500D01*
X130600202Y-27200500D01*
X130667241Y-27220185D01*
X130676624Y-27226849D01*
X130783816Y-27310738D01*
X131152817Y-27599522D01*
X131171247Y-27613945D01*
X131211909Y-27670764D01*
X131213050Y-27674734D01*
X131274210Y-27849521D01*
X131319462Y-27921539D01*
X131370184Y-28002262D01*
X131497738Y-28129816D01*
X131528400Y-28149082D01*
X131634736Y-28215898D01*
X131650478Y-28225789D01*
X131769681Y-28267500D01*
X131820745Y-28285368D01*
X131820750Y-28285369D01*
X131999996Y-28305565D01*
X132000000Y-28305565D01*
X132000004Y-28305565D01*
X132179249Y-28285369D01*
X132179252Y-28285368D01*
X132179255Y-28285368D01*
X132349522Y-28225789D01*
X132502262Y-28129816D01*
X132629816Y-28002262D01*
X132725789Y-27849522D01*
X132785368Y-27679255D01*
X132785369Y-27679249D01*
X132805565Y-27500003D01*
X132805565Y-27499996D01*
X132785369Y-27320750D01*
X132785368Y-27320745D01*
X132752512Y-27226849D01*
X132725789Y-27150478D01*
X132703265Y-27114632D01*
X132682645Y-27081815D01*
X132629816Y-26997738D01*
X132502262Y-26870184D01*
X132415440Y-26815630D01*
X132349521Y-26774210D01*
X132256160Y-26741542D01*
X132199383Y-26700820D01*
X132173636Y-26635867D01*
X132187092Y-26567306D01*
X132235479Y-26516903D01*
X132297114Y-26500500D01*
X155789577Y-26500500D01*
X155856616Y-26520185D01*
X155902371Y-26572989D01*
X155912315Y-26642147D01*
X155883290Y-26705703D01*
X155824512Y-26743477D01*
X155811718Y-26746507D01*
X155430816Y-26815630D01*
X155015234Y-26930324D01*
X155015209Y-26930332D01*
X154611583Y-27081815D01*
X154611569Y-27081821D01*
X154223146Y-27268876D01*
X154223140Y-27268879D01*
X153853024Y-27490013D01*
X153504235Y-27743423D01*
X153286877Y-27933322D01*
X153286877Y-27933323D01*
X155164545Y-29810991D01*
X155139990Y-29828324D01*
X154925031Y-30029082D01*
X154813104Y-30166657D01*
X152932223Y-28285777D01*
X152881624Y-28338699D01*
X152881612Y-28338712D01*
X152612800Y-28675791D01*
X152612799Y-28675792D01*
X152375294Y-29035600D01*
X152170989Y-29415261D01*
X152170985Y-29415269D01*
X152001545Y-29811695D01*
X152001542Y-29811703D01*
X151868313Y-30221741D01*
X151772378Y-30642061D01*
X151714505Y-31069298D01*
X151714504Y-31069307D01*
X151695162Y-31499996D01*
X151695162Y-31500003D01*
X151714504Y-31930692D01*
X151714505Y-31930701D01*
X151772378Y-32357938D01*
X151868313Y-32778258D01*
X152001542Y-33188296D01*
X152001545Y-33188304D01*
X152170985Y-33584730D01*
X152170989Y-33584738D01*
X152375294Y-33964399D01*
X152612799Y-34324207D01*
X152612800Y-34324208D01*
X152881608Y-34661282D01*
X152932223Y-34714221D01*
X154813103Y-32833341D01*
X154925031Y-32970918D01*
X155139990Y-33171676D01*
X155164544Y-33189008D01*
X153286877Y-35066675D01*
X153504227Y-35256569D01*
X153504244Y-35256582D01*
X153853024Y-35509986D01*
X154223140Y-35731120D01*
X154223146Y-35731123D01*
X154611569Y-35918178D01*
X154611583Y-35918184D01*
X155015209Y-36069667D01*
X155015234Y-36069675D01*
X155430816Y-36184369D01*
X155855023Y-36261351D01*
X156284435Y-36299999D01*
X156284438Y-36300000D01*
X156715562Y-36300000D01*
X156715564Y-36299999D01*
X157144976Y-36261351D01*
X157569183Y-36184369D01*
X157984765Y-36069675D01*
X157984790Y-36069667D01*
X158388416Y-35918184D01*
X158388430Y-35918178D01*
X158776853Y-35731123D01*
X158776859Y-35731120D01*
X159146975Y-35509986D01*
X159495755Y-35256582D01*
X159495772Y-35256569D01*
X159713121Y-35066675D01*
X157835455Y-33189008D01*
X157860010Y-33171676D01*
X158074969Y-32970918D01*
X158186895Y-32833342D01*
X160067775Y-34714222D01*
X160067776Y-34714222D01*
X160118386Y-34661289D01*
X160118386Y-34661288D01*
X160387199Y-34324208D01*
X160387200Y-34324207D01*
X160624705Y-33964399D01*
X160829010Y-33584738D01*
X160829014Y-33584730D01*
X160998454Y-33188304D01*
X160998457Y-33188296D01*
X161131686Y-32778258D01*
X161227621Y-32357938D01*
X161252622Y-32173376D01*
X161281128Y-32109586D01*
X161339595Y-32071333D01*
X161409463Y-32070763D01*
X161468547Y-32108056D01*
X161498090Y-32171373D01*
X161499500Y-32190021D01*
X161499500Y-78059978D01*
X161479815Y-78127017D01*
X161427011Y-78172772D01*
X161357853Y-78182716D01*
X161294297Y-78153691D01*
X161256523Y-78094913D01*
X161252622Y-78076623D01*
X161227621Y-77892061D01*
X161131686Y-77471741D01*
X160998457Y-77061703D01*
X160998454Y-77061695D01*
X160829014Y-76665269D01*
X160829010Y-76665261D01*
X160624705Y-76285600D01*
X160387200Y-75925792D01*
X160387199Y-75925791D01*
X160118391Y-75588717D01*
X160067774Y-75535776D01*
X158186894Y-77416656D01*
X158074969Y-77279082D01*
X157860010Y-77078324D01*
X157835453Y-77060990D01*
X159713121Y-75183323D01*
X159495772Y-74993430D01*
X159495755Y-74993417D01*
X159146975Y-74740013D01*
X158776859Y-74518879D01*
X158776853Y-74518876D01*
X158388430Y-74331821D01*
X158388416Y-74331815D01*
X157984790Y-74180332D01*
X157984765Y-74180324D01*
X157569183Y-74065630D01*
X157144976Y-73988648D01*
X156715564Y-73950000D01*
X156284435Y-73950000D01*
X155855023Y-73988648D01*
X155430816Y-74065630D01*
X155015234Y-74180324D01*
X155015209Y-74180332D01*
X154611583Y-74331815D01*
X154611569Y-74331821D01*
X154223146Y-74518876D01*
X154223140Y-74518879D01*
X153853024Y-74740013D01*
X153504235Y-74993423D01*
X153286877Y-75183322D01*
X153286877Y-75183323D01*
X155164545Y-77060991D01*
X155139990Y-77078324D01*
X154925031Y-77279082D01*
X154813104Y-77416657D01*
X152932223Y-75535777D01*
X152881624Y-75588699D01*
X152881612Y-75588712D01*
X152612800Y-75925791D01*
X152612799Y-75925792D01*
X152375294Y-76285600D01*
X152170989Y-76665261D01*
X152170985Y-76665269D01*
X152001545Y-77061695D01*
X152001542Y-77061703D01*
X151868313Y-77471741D01*
X151772378Y-77892061D01*
X151714505Y-78319298D01*
X151714504Y-78319307D01*
X151695162Y-78749996D01*
X151695162Y-78750003D01*
X151714504Y-79180692D01*
X151714505Y-79180701D01*
X151772378Y-79607938D01*
X151868313Y-80028258D01*
X152001542Y-80438296D01*
X152001545Y-80438304D01*
X152170985Y-80834730D01*
X152170989Y-80834738D01*
X152375294Y-81214399D01*
X152612799Y-81574207D01*
X152612800Y-81574208D01*
X152881608Y-81911282D01*
X152932223Y-81964221D01*
X154813103Y-80083341D01*
X154925031Y-80220918D01*
X155139990Y-80421676D01*
X155164544Y-80439008D01*
X153286877Y-82316675D01*
X153504227Y-82506569D01*
X153504244Y-82506582D01*
X153853024Y-82759986D01*
X154223140Y-82981120D01*
X154223146Y-82981123D01*
X154611569Y-83168178D01*
X154611583Y-83168184D01*
X155015209Y-83319667D01*
X155015234Y-83319675D01*
X155430816Y-83434369D01*
X155855023Y-83511351D01*
X156284435Y-83549999D01*
X156284438Y-83550000D01*
X156715562Y-83550000D01*
X156715564Y-83549999D01*
X157144976Y-83511351D01*
X157569183Y-83434369D01*
X157984765Y-83319675D01*
X157984790Y-83319667D01*
X158388416Y-83168184D01*
X158388430Y-83168178D01*
X158776853Y-82981123D01*
X158776859Y-82981120D01*
X159146975Y-82759986D01*
X159495755Y-82506582D01*
X159495772Y-82506569D01*
X159713121Y-82316675D01*
X157835455Y-80439008D01*
X157860010Y-80421676D01*
X158074969Y-80220918D01*
X158186895Y-80083342D01*
X160067775Y-81964222D01*
X160067776Y-81964222D01*
X160118386Y-81911289D01*
X160118386Y-81911288D01*
X160387199Y-81574208D01*
X160387200Y-81574207D01*
X160624705Y-81214399D01*
X160829010Y-80834738D01*
X160829014Y-80834730D01*
X160998454Y-80438304D01*
X160998457Y-80438296D01*
X161131686Y-80028258D01*
X161227621Y-79607938D01*
X161252622Y-79423376D01*
X161281128Y-79359586D01*
X161339595Y-79321333D01*
X161409463Y-79320763D01*
X161468547Y-79358056D01*
X161498090Y-79421373D01*
X161499500Y-79440021D01*
X161499500Y-83875500D01*
X161479815Y-83942539D01*
X161427011Y-83988294D01*
X161375500Y-83999500D01*
X42624500Y-83999500D01*
X42557461Y-83979815D01*
X42511706Y-83927011D01*
X42500500Y-83875500D01*
X42500500Y-79440021D01*
X42520185Y-79372982D01*
X42572989Y-79327227D01*
X42642147Y-79317283D01*
X42705703Y-79346308D01*
X42743477Y-79405086D01*
X42747378Y-79423376D01*
X42772378Y-79607938D01*
X42868313Y-80028258D01*
X43001542Y-80438296D01*
X43001545Y-80438304D01*
X43170985Y-80834730D01*
X43170989Y-80834738D01*
X43375294Y-81214399D01*
X43612799Y-81574207D01*
X43612800Y-81574208D01*
X43881608Y-81911282D01*
X43932223Y-81964221D01*
X45813103Y-80083341D01*
X45925031Y-80220918D01*
X46139990Y-80421676D01*
X46164544Y-80439008D01*
X44286877Y-82316675D01*
X44504227Y-82506569D01*
X44504244Y-82506582D01*
X44853024Y-82759986D01*
X45223140Y-82981120D01*
X45223146Y-82981123D01*
X45611569Y-83168178D01*
X45611583Y-83168184D01*
X46015209Y-83319667D01*
X46015234Y-83319675D01*
X46430816Y-83434369D01*
X46855023Y-83511351D01*
X47284435Y-83549999D01*
X47284438Y-83550000D01*
X47715562Y-83550000D01*
X47715564Y-83549999D01*
X48144976Y-83511351D01*
X48569183Y-83434369D01*
X48984765Y-83319675D01*
X48984790Y-83319667D01*
X49388416Y-83168184D01*
X49388430Y-83168178D01*
X49776853Y-82981123D01*
X49776859Y-82981120D01*
X50146975Y-82759986D01*
X50495755Y-82506582D01*
X50495772Y-82506569D01*
X50713121Y-82316675D01*
X48835455Y-80439008D01*
X48860010Y-80421676D01*
X49074969Y-80220918D01*
X49186895Y-80083342D01*
X51067775Y-81964222D01*
X51067776Y-81964222D01*
X51118386Y-81911289D01*
X51118386Y-81911288D01*
X51387199Y-81574208D01*
X51387200Y-81574207D01*
X51624705Y-81214399D01*
X51829010Y-80834738D01*
X51829014Y-80834730D01*
X51998454Y-80438304D01*
X51998457Y-80438296D01*
X52131686Y-80028258D01*
X52227621Y-79607938D01*
X52285494Y-79180701D01*
X52285495Y-79180692D01*
X52304838Y-78750003D01*
X52304838Y-78749996D01*
X52285495Y-78319307D01*
X52285494Y-78319298D01*
X52227621Y-77892061D01*
X52131686Y-77471741D01*
X51998457Y-77061703D01*
X51998454Y-77061695D01*
X51982770Y-77025001D01*
X96810274Y-77025001D01*
X96829152Y-77288960D01*
X96885400Y-77547528D01*
X96977884Y-77795487D01*
X97104701Y-78027735D01*
X97104706Y-78027743D01*
X97192038Y-78144406D01*
X97913766Y-77422677D01*
X97957316Y-77504822D01*
X98077009Y-77645735D01*
X98224195Y-77757623D01*
X98266402Y-77777150D01*
X97545592Y-78497959D01*
X97545593Y-78497960D01*
X97662256Y-78585293D01*
X97662264Y-78585298D01*
X97894513Y-78712115D01*
X97894512Y-78712115D01*
X98142471Y-78804599D01*
X98401039Y-78860847D01*
X98664999Y-78879726D01*
X98665001Y-78879726D01*
X98928960Y-78860847D01*
X99187528Y-78804599D01*
X99435487Y-78712115D01*
X99667735Y-78585298D01*
X99667736Y-78585297D01*
X99784406Y-78497959D01*
X99063609Y-77777161D01*
X99182431Y-77705669D01*
X99316658Y-77578523D01*
X99419861Y-77426308D01*
X100137958Y-78144405D01*
X100186346Y-78140945D01*
X100254619Y-78155797D01*
X100304025Y-78205202D01*
X100308268Y-78213736D01*
X100318159Y-78235714D01*
X100318161Y-78235716D01*
X100318163Y-78235721D01*
X100444144Y-78444118D01*
X100480924Y-78504960D01*
X100674942Y-78752605D01*
X100897394Y-78975057D01*
X101145039Y-79169075D01*
X101145044Y-79169078D01*
X101145048Y-79169081D01*
X101414279Y-79331837D01*
X101701165Y-79460954D01*
X101701175Y-79460957D01*
X101701183Y-79460960D01*
X101901403Y-79523350D01*
X102001522Y-79554549D01*
X102310971Y-79611258D01*
X102625000Y-79630253D01*
X102939029Y-79611258D01*
X103248478Y-79554549D01*
X103548835Y-79460954D01*
X103835721Y-79331837D01*
X104104952Y-79169081D01*
X104352602Y-78975060D01*
X104575060Y-78752602D01*
X104577100Y-78749999D01*
X104609776Y-78708289D01*
X104698651Y-78594849D01*
X104755489Y-78554217D01*
X104825274Y-78550764D01*
X104885847Y-78585587D01*
X104892029Y-78592689D01*
X105016655Y-78717315D01*
X105165876Y-78809356D01*
X105165881Y-78809358D01*
X105332303Y-78864505D01*
X105332310Y-78864506D01*
X105435014Y-78874999D01*
X105435027Y-78875000D01*
X106335000Y-78875000D01*
X106335000Y-77840319D01*
X106492557Y-77875000D01*
X106631084Y-77875000D01*
X106768802Y-77860022D01*
X106835000Y-77837717D01*
X106835000Y-78875000D01*
X107734973Y-78875000D01*
X107734985Y-78874999D01*
X107837689Y-78864506D01*
X107837696Y-78864505D01*
X108004118Y-78809358D01*
X108004123Y-78809356D01*
X108153344Y-78717315D01*
X108277315Y-78593344D01*
X108369356Y-78444123D01*
X108369358Y-78444118D01*
X108424505Y-78277696D01*
X108424506Y-78277689D01*
X108434999Y-78174985D01*
X108435000Y-78174972D01*
X108435000Y-77275000D01*
X107400376Y-77275000D01*
X107408847Y-77253740D01*
X107438758Y-77071289D01*
X107428749Y-76886674D01*
X107397742Y-76775000D01*
X108435000Y-76775000D01*
X108435000Y-75875027D01*
X108434999Y-75875014D01*
X108424506Y-75772310D01*
X108424505Y-75772303D01*
X108369358Y-75605881D01*
X108369356Y-75605876D01*
X108277315Y-75456655D01*
X108153344Y-75332684D01*
X108004123Y-75240643D01*
X108004118Y-75240641D01*
X107837696Y-75185494D01*
X107837689Y-75185493D01*
X107734985Y-75175000D01*
X106835000Y-75175000D01*
X106835000Y-76209680D01*
X106677443Y-76175000D01*
X106538916Y-76175000D01*
X106401198Y-76189978D01*
X106335000Y-76212282D01*
X106335000Y-75175000D01*
X105435014Y-75175000D01*
X105332310Y-75185493D01*
X105332303Y-75185494D01*
X105165881Y-75240641D01*
X105165876Y-75240643D01*
X105016655Y-75332684D01*
X104887576Y-75461764D01*
X104886428Y-75460616D01*
X104836500Y-75495967D01*
X104766701Y-75499102D01*
X104706287Y-75464003D01*
X104698651Y-75455150D01*
X104575057Y-75297394D01*
X104352605Y-75074942D01*
X104104960Y-74880924D01*
X104104952Y-74880919D01*
X103835721Y-74718163D01*
X103548835Y-74589046D01*
X103548830Y-74589044D01*
X103548827Y-74589043D01*
X103548816Y-74589039D01*
X103248486Y-74495453D01*
X103248482Y-74495452D01*
X103248478Y-74495451D01*
X102939029Y-74438742D01*
X102939028Y-74438741D01*
X102939023Y-74438741D01*
X102625000Y-74419747D01*
X102310976Y-74438741D01*
X102310971Y-74438742D01*
X102001522Y-74495451D01*
X102001519Y-74495451D01*
X102001513Y-74495453D01*
X101701183Y-74589039D01*
X101701172Y-74589043D01*
X101414283Y-74718161D01*
X101414281Y-74718162D01*
X101145039Y-74880924D01*
X100897394Y-75074942D01*
X100674942Y-75297394D01*
X100480924Y-75545039D01*
X100454531Y-75588699D01*
X100343539Y-75772303D01*
X100318162Y-75814281D01*
X100318154Y-75814296D01*
X100308266Y-75836265D01*
X100262800Y-75889318D01*
X100195869Y-75909367D01*
X100186348Y-75909053D01*
X100137959Y-75905592D01*
X99416232Y-76627319D01*
X99372684Y-76545178D01*
X99252991Y-76404265D01*
X99105805Y-76292377D01*
X99063596Y-76272849D01*
X99784406Y-75552039D01*
X99784406Y-75552038D01*
X99667743Y-75464706D01*
X99667735Y-75464701D01*
X99435486Y-75337884D01*
X99435487Y-75337884D01*
X99187528Y-75245400D01*
X98928960Y-75189152D01*
X98665001Y-75170274D01*
X98664999Y-75170274D01*
X98401039Y-75189152D01*
X98142471Y-75245400D01*
X97894512Y-75337884D01*
X97662264Y-75464701D01*
X97545593Y-75552039D01*
X98266391Y-76272837D01*
X98147569Y-76344331D01*
X98013342Y-76471477D01*
X97910138Y-76623692D01*
X97192039Y-75905593D01*
X97104701Y-76022264D01*
X96977884Y-76254512D01*
X96885400Y-76502471D01*
X96829152Y-76761039D01*
X96810274Y-77024998D01*
X96810274Y-77025001D01*
X51982770Y-77025001D01*
X51829014Y-76665269D01*
X51829010Y-76665261D01*
X51624705Y-76285600D01*
X51387200Y-75925792D01*
X51387199Y-75925791D01*
X51118391Y-75588717D01*
X51067774Y-75535776D01*
X49186894Y-77416656D01*
X49074969Y-77279082D01*
X48860010Y-77078324D01*
X48835453Y-77060990D01*
X50713121Y-75183323D01*
X50495772Y-74993430D01*
X50495755Y-74993417D01*
X50146975Y-74740013D01*
X49776859Y-74518879D01*
X49776853Y-74518876D01*
X49388430Y-74331821D01*
X49388416Y-74331815D01*
X48984790Y-74180332D01*
X48984765Y-74180324D01*
X48569183Y-74065630D01*
X48144976Y-73988648D01*
X47715564Y-73950000D01*
X47284435Y-73950000D01*
X46855023Y-73988648D01*
X46430816Y-74065630D01*
X46015234Y-74180324D01*
X46015209Y-74180332D01*
X45611583Y-74331815D01*
X45611569Y-74331821D01*
X45223146Y-74518876D01*
X45223140Y-74518879D01*
X44853024Y-74740013D01*
X44504235Y-74993423D01*
X44286877Y-75183322D01*
X44286877Y-75183323D01*
X46164545Y-77060991D01*
X46139990Y-77078324D01*
X45925031Y-77279082D01*
X45813104Y-77416657D01*
X43932223Y-75535777D01*
X43881624Y-75588699D01*
X43881612Y-75588712D01*
X43612800Y-75925791D01*
X43612799Y-75925792D01*
X43375294Y-76285600D01*
X43170989Y-76665261D01*
X43170985Y-76665269D01*
X43001545Y-77061695D01*
X43001542Y-77061703D01*
X42868313Y-77471741D01*
X42772378Y-77892061D01*
X42747378Y-78076623D01*
X42718872Y-78140413D01*
X42660404Y-78178666D01*
X42590537Y-78179236D01*
X42531453Y-78141943D01*
X42501910Y-78078626D01*
X42500500Y-78059978D01*
X42500500Y-59750001D01*
X51744390Y-59750001D01*
X51764804Y-60035433D01*
X51825628Y-60315037D01*
X51825630Y-60315043D01*
X51825631Y-60315046D01*
X51922582Y-60574980D01*
X51925635Y-60583166D01*
X52062770Y-60834309D01*
X52062775Y-60834317D01*
X52234254Y-61063387D01*
X52234270Y-61063405D01*
X52436594Y-61265729D01*
X52436612Y-61265745D01*
X52665682Y-61437224D01*
X52665690Y-61437229D01*
X52916833Y-61574364D01*
X52916832Y-61574364D01*
X52916836Y-61574365D01*
X52916839Y-61574367D01*
X53184954Y-61674369D01*
X53184960Y-61674370D01*
X53184962Y-61674371D01*
X53464566Y-61735195D01*
X53464568Y-61735195D01*
X53464572Y-61735196D01*
X53718220Y-61753337D01*
X53749999Y-61755610D01*
X53750000Y-61755610D01*
X53750001Y-61755610D01*
X53798091Y-61752170D01*
X53869838Y-61747039D01*
X53938111Y-61761891D01*
X53987516Y-61811296D01*
X54002368Y-61879569D01*
X53977951Y-61945033D01*
X53812775Y-62165682D01*
X53812770Y-62165690D01*
X53675635Y-62416833D01*
X53575628Y-62684962D01*
X53514804Y-62964566D01*
X53494390Y-63249998D01*
X53494390Y-63250001D01*
X53514804Y-63535433D01*
X53575628Y-63815037D01*
X53675635Y-64083166D01*
X53812770Y-64334309D01*
X53812775Y-64334317D01*
X53984254Y-64563387D01*
X53984270Y-64563405D01*
X54186594Y-64765729D01*
X54186612Y-64765745D01*
X54415682Y-64937224D01*
X54415690Y-64937229D01*
X54666833Y-65074364D01*
X54666832Y-65074364D01*
X54666836Y-65074365D01*
X54666839Y-65074367D01*
X54934954Y-65174369D01*
X54934960Y-65174370D01*
X54934962Y-65174371D01*
X55214566Y-65235195D01*
X55214568Y-65235195D01*
X55214572Y-65235196D01*
X55468220Y-65253337D01*
X55499999Y-65255610D01*
X55500000Y-65255610D01*
X55500001Y-65255610D01*
X55528595Y-65253564D01*
X55785428Y-65235196D01*
X55883670Y-65213825D01*
X56065037Y-65174371D01*
X56065037Y-65174370D01*
X56065046Y-65174369D01*
X56333161Y-65074367D01*
X56584315Y-64937226D01*
X56813395Y-64765739D01*
X57015739Y-64563395D01*
X57187226Y-64334315D01*
X57233263Y-64250005D01*
X57994357Y-64250005D01*
X58014890Y-64497812D01*
X58014892Y-64497824D01*
X58075936Y-64738881D01*
X58175826Y-64966606D01*
X58311833Y-65174782D01*
X58311836Y-65174785D01*
X58480256Y-65357738D01*
X58676491Y-65510474D01*
X58895190Y-65628828D01*
X59130386Y-65709571D01*
X59375665Y-65750500D01*
X59624335Y-65750500D01*
X59869614Y-65709571D01*
X60104810Y-65628828D01*
X60323509Y-65510474D01*
X60519744Y-65357738D01*
X60688164Y-65174785D01*
X60688435Y-65174371D01*
X60767545Y-65053283D01*
X60824173Y-64966607D01*
X60924063Y-64738881D01*
X60985108Y-64497821D01*
X61001924Y-64294871D01*
X61018130Y-64252873D01*
X61232472Y-64252873D01*
X61246956Y-64280124D01*
X61249500Y-64305104D01*
X61249500Y-64314202D01*
X61249501Y-64314223D01*
X61259904Y-64446413D01*
X61259905Y-64446420D01*
X61314902Y-64664678D01*
X61314903Y-64664681D01*
X61407991Y-64869622D01*
X61407997Y-64869632D01*
X61536174Y-65054645D01*
X61536178Y-65054650D01*
X61536181Y-65054654D01*
X61695346Y-65213819D01*
X61695350Y-65213822D01*
X61695354Y-65213825D01*
X61834603Y-65310297D01*
X61880374Y-65342007D01*
X62085317Y-65435096D01*
X62085321Y-65435097D01*
X62303579Y-65490094D01*
X62303581Y-65490094D01*
X62303588Y-65490096D01*
X62435783Y-65500500D01*
X64564216Y-65500499D01*
X64696412Y-65490096D01*
X64914683Y-65435096D01*
X65119626Y-65342007D01*
X65304654Y-65213819D01*
X65463819Y-65054654D01*
X65592007Y-64869626D01*
X65685096Y-64664683D01*
X65740096Y-64446412D01*
X65750500Y-64314217D01*
X65750499Y-62185784D01*
X65740096Y-62053588D01*
X65740094Y-62053579D01*
X65684705Y-61833763D01*
X65687412Y-61763946D01*
X65727435Y-61706676D01*
X65778586Y-61682299D01*
X65815046Y-61674369D01*
X66083161Y-61574367D01*
X66334315Y-61437226D01*
X66563395Y-61265739D01*
X66765739Y-61063395D01*
X66937226Y-60834315D01*
X67074367Y-60583161D01*
X67174369Y-60315046D01*
X67235196Y-60035428D01*
X67255610Y-59750000D01*
X67235196Y-59464572D01*
X67174369Y-59184954D01*
X67074367Y-58916839D01*
X67024656Y-58825801D01*
X66937229Y-58665690D01*
X66937224Y-58665682D01*
X66765745Y-58436612D01*
X66765729Y-58436594D01*
X66563405Y-58234270D01*
X66563387Y-58234254D01*
X66334317Y-58062775D01*
X66334309Y-58062770D01*
X66083166Y-57925635D01*
X66083167Y-57925635D01*
X65975915Y-57885632D01*
X65815046Y-57825631D01*
X65815043Y-57825630D01*
X65815037Y-57825628D01*
X65535433Y-57764804D01*
X65250001Y-57744390D01*
X65249999Y-57744390D01*
X64964566Y-57764804D01*
X64684962Y-57825628D01*
X64416833Y-57925635D01*
X64165690Y-58062770D01*
X64165682Y-58062775D01*
X63936612Y-58234254D01*
X63936594Y-58234270D01*
X63734270Y-58436594D01*
X63734254Y-58436612D01*
X63562775Y-58665682D01*
X63562770Y-58665690D01*
X63425635Y-58916833D01*
X63325628Y-59184962D01*
X63264804Y-59464566D01*
X63244390Y-59749998D01*
X63244390Y-59750001D01*
X63264804Y-60035433D01*
X63325628Y-60315037D01*
X63425635Y-60583167D01*
X63552812Y-60816073D01*
X63567664Y-60884346D01*
X63543247Y-60949810D01*
X63487314Y-60991682D01*
X63443980Y-60999500D01*
X62435791Y-60999500D01*
X62435776Y-60999501D01*
X62303586Y-61009904D01*
X62303579Y-61009905D01*
X62085321Y-61064902D01*
X62085318Y-61064903D01*
X61880377Y-61157991D01*
X61880367Y-61157997D01*
X61695354Y-61286174D01*
X61695342Y-61286184D01*
X61536184Y-61445342D01*
X61536174Y-61445354D01*
X61407997Y-61630367D01*
X61407991Y-61630377D01*
X61314903Y-61835318D01*
X61314902Y-61835321D01*
X61259905Y-62053579D01*
X61259904Y-62053586D01*
X61249500Y-62185777D01*
X61249500Y-64194883D01*
X61232472Y-64252873D01*
X61018130Y-64252873D01*
X61019334Y-64249753D01*
X61006523Y-64229818D01*
X61001925Y-64205134D01*
X60985108Y-64002179D01*
X60937717Y-63815037D01*
X60924063Y-63761118D01*
X60824173Y-63533393D01*
X60688166Y-63325217D01*
X60666557Y-63301744D01*
X60519744Y-63142262D01*
X60323509Y-62989526D01*
X60323507Y-62989525D01*
X60323506Y-62989524D01*
X60104811Y-62871172D01*
X60104802Y-62871169D01*
X59869616Y-62790429D01*
X59624335Y-62749500D01*
X59375665Y-62749500D01*
X59130383Y-62790429D01*
X58895197Y-62871169D01*
X58895188Y-62871172D01*
X58676493Y-62989524D01*
X58480257Y-63142261D01*
X58311833Y-63325217D01*
X58175826Y-63533393D01*
X58075936Y-63761118D01*
X58014892Y-64002175D01*
X58014890Y-64002187D01*
X57994357Y-64249994D01*
X57994357Y-64250005D01*
X57233263Y-64250005D01*
X57324367Y-64083161D01*
X57424369Y-63815046D01*
X57424371Y-63815037D01*
X57485195Y-63535433D01*
X57485195Y-63535432D01*
X57485196Y-63535428D01*
X57505610Y-63250000D01*
X57485196Y-62964572D01*
X57471767Y-62902842D01*
X57424371Y-62684962D01*
X57424370Y-62684960D01*
X57424369Y-62684954D01*
X57324367Y-62416839D01*
X57298891Y-62370184D01*
X57187229Y-62165690D01*
X57187224Y-62165682D01*
X57015745Y-61936612D01*
X57015729Y-61936594D01*
X56813405Y-61734270D01*
X56813387Y-61734254D01*
X56584317Y-61562775D01*
X56584309Y-61562770D01*
X56333166Y-61425635D01*
X56333167Y-61425635D01*
X56197398Y-61374996D01*
X56065046Y-61325631D01*
X56065043Y-61325630D01*
X56065037Y-61325628D01*
X55785433Y-61264804D01*
X55500001Y-61244390D01*
X55499997Y-61244390D01*
X55380160Y-61252960D01*
X55311887Y-61238108D01*
X55262482Y-61188702D01*
X55247631Y-61120429D01*
X55272046Y-61054969D01*
X55437226Y-60834315D01*
X55574367Y-60583161D01*
X55674369Y-60315046D01*
X55735196Y-60035428D01*
X55755610Y-59750000D01*
X55735196Y-59464572D01*
X55674369Y-59184954D01*
X55574367Y-58916839D01*
X55524656Y-58825801D01*
X55437229Y-58665690D01*
X55437224Y-58665682D01*
X55265745Y-58436612D01*
X55265729Y-58436594D01*
X55063405Y-58234270D01*
X55063387Y-58234254D01*
X54834317Y-58062775D01*
X54834309Y-58062770D01*
X54583166Y-57925635D01*
X54583167Y-57925635D01*
X54475915Y-57885632D01*
X54315046Y-57825631D01*
X54315043Y-57825630D01*
X54315037Y-57825628D01*
X54035433Y-57764804D01*
X53750001Y-57744390D01*
X53749999Y-57744390D01*
X53464566Y-57764804D01*
X53184962Y-57825628D01*
X52916833Y-57925635D01*
X52665690Y-58062770D01*
X52665682Y-58062775D01*
X52436612Y-58234254D01*
X52436594Y-58234270D01*
X52234270Y-58436594D01*
X52234254Y-58436612D01*
X52062775Y-58665682D01*
X52062770Y-58665690D01*
X51925635Y-58916833D01*
X51825628Y-59184962D01*
X51764804Y-59464566D01*
X51744390Y-59749998D01*
X51744390Y-59750001D01*
X42500500Y-59750001D01*
X42500500Y-55250001D01*
X51744390Y-55250001D01*
X51764804Y-55535433D01*
X51825628Y-55815037D01*
X51825630Y-55815043D01*
X51825631Y-55815046D01*
X51925633Y-56083161D01*
X51925635Y-56083166D01*
X52062770Y-56334309D01*
X52062775Y-56334317D01*
X52234254Y-56563387D01*
X52234270Y-56563405D01*
X52436594Y-56765729D01*
X52436612Y-56765745D01*
X52665682Y-56937224D01*
X52665690Y-56937229D01*
X52916833Y-57074364D01*
X52916832Y-57074364D01*
X52916836Y-57074365D01*
X52916839Y-57074367D01*
X53184954Y-57174369D01*
X53184960Y-57174370D01*
X53184962Y-57174371D01*
X53464566Y-57235195D01*
X53464568Y-57235195D01*
X53464572Y-57235196D01*
X53718220Y-57253337D01*
X53749999Y-57255610D01*
X53750000Y-57255610D01*
X53750001Y-57255610D01*
X53778595Y-57253564D01*
X54035428Y-57235196D01*
X54315046Y-57174369D01*
X54583161Y-57074367D01*
X54834315Y-56937226D01*
X55063395Y-56765739D01*
X55265739Y-56563395D01*
X55437226Y-56334315D01*
X55574367Y-56083161D01*
X55674369Y-55815046D01*
X55735196Y-55535428D01*
X55755610Y-55250003D01*
X56694686Y-55250003D01*
X56713655Y-55575677D01*
X56713656Y-55575688D01*
X56770301Y-55896941D01*
X56770303Y-55896948D01*
X56863867Y-56209475D01*
X56993076Y-56509014D01*
X56993082Y-56509027D01*
X57156194Y-56791546D01*
X57351001Y-57053217D01*
X57351006Y-57053223D01*
X57465302Y-57174369D01*
X57574877Y-57290511D01*
X57574883Y-57290516D01*
X57574885Y-57290518D01*
X57824780Y-57500205D01*
X57824788Y-57500211D01*
X58097339Y-57679471D01*
X58388864Y-57825880D01*
X58388865Y-57825881D01*
X58388868Y-57825882D01*
X58388872Y-57825884D01*
X58695427Y-57937461D01*
X58695433Y-57937462D01*
X58695435Y-57937463D01*
X59012846Y-58012692D01*
X59012853Y-58012693D01*
X59012862Y-58012695D01*
X59336885Y-58050568D01*
X59336892Y-58050568D01*
X59663108Y-58050568D01*
X59663115Y-58050568D01*
X59987138Y-58012695D01*
X59987147Y-58012692D01*
X59987153Y-58012692D01*
X60243191Y-57952008D01*
X60304573Y-57937461D01*
X60611128Y-57825884D01*
X60902657Y-57679473D01*
X61175217Y-57500207D01*
X61425123Y-57290511D01*
X61648995Y-57053221D01*
X61843806Y-56791545D01*
X62006920Y-56509023D01*
X62136133Y-56209474D01*
X62229696Y-55896950D01*
X62242671Y-55823368D01*
X62286343Y-55575688D01*
X62286342Y-55575688D01*
X62286345Y-55575677D01*
X62305314Y-55250001D01*
X63244390Y-55250001D01*
X63264804Y-55535433D01*
X63325628Y-55815037D01*
X63325630Y-55815043D01*
X63325631Y-55815046D01*
X63425633Y-56083161D01*
X63425635Y-56083166D01*
X63562770Y-56334309D01*
X63562775Y-56334317D01*
X63734254Y-56563387D01*
X63734270Y-56563405D01*
X63936594Y-56765729D01*
X63936612Y-56765745D01*
X64165682Y-56937224D01*
X64165690Y-56937229D01*
X64416833Y-57074364D01*
X64416832Y-57074364D01*
X64416836Y-57074365D01*
X64416839Y-57074367D01*
X64684954Y-57174369D01*
X64684960Y-57174370D01*
X64684962Y-57174371D01*
X64964566Y-57235195D01*
X64964568Y-57235195D01*
X64964572Y-57235196D01*
X65218220Y-57253337D01*
X65249999Y-57255610D01*
X65250000Y-57255610D01*
X65250001Y-57255610D01*
X65278595Y-57253564D01*
X65535428Y-57235196D01*
X65815046Y-57174369D01*
X66083161Y-57074367D01*
X66334315Y-56937226D01*
X66563395Y-56765739D01*
X66765739Y-56563395D01*
X66937226Y-56334315D01*
X67074367Y-56083161D01*
X67174369Y-55815046D01*
X67235196Y-55535428D01*
X67255610Y-55250000D01*
X67235196Y-54964572D01*
X67226440Y-54924323D01*
X67174371Y-54684962D01*
X67174370Y-54684960D01*
X67174369Y-54684954D01*
X67074367Y-54416839D01*
X66937226Y-54165685D01*
X66937224Y-54165682D01*
X66765745Y-53936612D01*
X66765729Y-53936594D01*
X66563405Y-53734270D01*
X66563387Y-53734254D01*
X66334317Y-53562775D01*
X66334309Y-53562770D01*
X66083166Y-53425635D01*
X66083167Y-53425635D01*
X65975915Y-53385632D01*
X65815046Y-53325631D01*
X65815043Y-53325630D01*
X65815037Y-53325628D01*
X65535433Y-53264804D01*
X65250001Y-53244390D01*
X65249999Y-53244390D01*
X64964566Y-53264804D01*
X64684962Y-53325628D01*
X64416833Y-53425635D01*
X64165690Y-53562770D01*
X64165682Y-53562775D01*
X63936612Y-53734254D01*
X63936594Y-53734270D01*
X63734270Y-53936594D01*
X63734254Y-53936612D01*
X63562775Y-54165682D01*
X63562770Y-54165690D01*
X63425635Y-54416833D01*
X63325628Y-54684962D01*
X63264804Y-54964566D01*
X63244390Y-55249998D01*
X63244390Y-55250001D01*
X62305314Y-55250001D01*
X62305314Y-55250000D01*
X62286345Y-54924323D01*
X62286343Y-54924311D01*
X62229698Y-54603058D01*
X62229696Y-54603051D01*
X62173948Y-54416839D01*
X62136133Y-54290526D01*
X62006920Y-53990977D01*
X61843806Y-53708455D01*
X61843805Y-53708453D01*
X61648998Y-53446782D01*
X61648993Y-53446776D01*
X61540744Y-53332040D01*
X61425123Y-53209489D01*
X61425116Y-53209483D01*
X61425114Y-53209481D01*
X61175219Y-52999794D01*
X61175211Y-52999788D01*
X60902660Y-52820528D01*
X60611135Y-52674119D01*
X60611134Y-52674118D01*
X60304579Y-52562541D01*
X60304564Y-52562536D01*
X59987153Y-52487307D01*
X59987138Y-52487305D01*
X59663115Y-52449432D01*
X59336885Y-52449432D01*
X59053364Y-52482570D01*
X59012861Y-52487305D01*
X59012846Y-52487307D01*
X58695435Y-52562536D01*
X58695420Y-52562541D01*
X58388865Y-52674118D01*
X58388864Y-52674119D01*
X58097339Y-52820528D01*
X57824788Y-52999788D01*
X57824780Y-52999794D01*
X57574885Y-53209481D01*
X57574875Y-53209491D01*
X57351006Y-53446776D01*
X57351001Y-53446782D01*
X57156194Y-53708453D01*
X56993082Y-53990972D01*
X56993076Y-53990985D01*
X56863867Y-54290524D01*
X56770303Y-54603051D01*
X56770301Y-54603058D01*
X56713656Y-54924311D01*
X56713655Y-54924322D01*
X56694686Y-55249996D01*
X56694686Y-55250003D01*
X55755610Y-55250003D01*
X55755610Y-55250000D01*
X55735196Y-54964572D01*
X55726440Y-54924323D01*
X55674371Y-54684962D01*
X55674370Y-54684960D01*
X55674369Y-54684954D01*
X55574367Y-54416839D01*
X55437226Y-54165685D01*
X55437224Y-54165682D01*
X55265745Y-53936612D01*
X55265729Y-53936594D01*
X55063405Y-53734270D01*
X55063387Y-53734254D01*
X54834317Y-53562775D01*
X54834309Y-53562770D01*
X54583166Y-53425635D01*
X54583167Y-53425635D01*
X54475915Y-53385632D01*
X54315046Y-53325631D01*
X54315043Y-53325630D01*
X54315037Y-53325628D01*
X54035433Y-53264804D01*
X53750001Y-53244390D01*
X53749999Y-53244390D01*
X53464566Y-53264804D01*
X53184962Y-53325628D01*
X52916833Y-53425635D01*
X52665690Y-53562770D01*
X52665682Y-53562775D01*
X52436612Y-53734254D01*
X52436594Y-53734270D01*
X52234270Y-53936594D01*
X52234254Y-53936612D01*
X52062775Y-54165682D01*
X52062770Y-54165690D01*
X51925635Y-54416833D01*
X51825628Y-54684962D01*
X51764804Y-54964566D01*
X51744390Y-55249998D01*
X51744390Y-55250001D01*
X42500500Y-55250001D01*
X42500500Y-50750001D01*
X51744390Y-50750001D01*
X51764804Y-51035433D01*
X51825628Y-51315037D01*
X51825630Y-51315043D01*
X51825631Y-51315046D01*
X51843342Y-51362531D01*
X51925635Y-51583166D01*
X52062770Y-51834309D01*
X52062775Y-51834317D01*
X52234254Y-52063387D01*
X52234270Y-52063405D01*
X52436594Y-52265729D01*
X52436612Y-52265745D01*
X52665682Y-52437224D01*
X52665690Y-52437229D01*
X52916833Y-52574364D01*
X52916832Y-52574364D01*
X52916836Y-52574365D01*
X52916839Y-52574367D01*
X53184954Y-52674369D01*
X53184960Y-52674370D01*
X53184962Y-52674371D01*
X53464566Y-52735195D01*
X53464568Y-52735195D01*
X53464572Y-52735196D01*
X53718220Y-52753337D01*
X53749999Y-52755610D01*
X53750000Y-52755610D01*
X53750001Y-52755610D01*
X53778595Y-52753564D01*
X54035428Y-52735196D01*
X54315046Y-52674369D01*
X54583161Y-52574367D01*
X54834315Y-52437226D01*
X55063395Y-52265739D01*
X55265739Y-52063395D01*
X55437226Y-51834315D01*
X55574367Y-51583161D01*
X55674369Y-51315046D01*
X55735196Y-51035428D01*
X55755610Y-50750000D01*
X55735196Y-50464572D01*
X55674369Y-50184954D01*
X55574367Y-49916839D01*
X55437226Y-49665685D01*
X55272047Y-49445032D01*
X55247631Y-49379569D01*
X55262483Y-49311296D01*
X55311888Y-49261891D01*
X55380161Y-49247039D01*
X55499999Y-49255610D01*
X55500000Y-49255610D01*
X55500001Y-49255610D01*
X55528595Y-49253564D01*
X55785428Y-49235196D01*
X55789727Y-49234261D01*
X56065037Y-49174371D01*
X56065037Y-49174370D01*
X56065046Y-49174369D01*
X56333161Y-49074367D01*
X56584315Y-48937226D01*
X56813395Y-48765739D01*
X57015739Y-48563395D01*
X57187226Y-48334315D01*
X57324367Y-48083161D01*
X57424369Y-47815046D01*
X57485196Y-47535428D01*
X57505610Y-47250000D01*
X57505609Y-47249996D01*
X57505724Y-47248399D01*
X57530141Y-47182935D01*
X57586074Y-47141063D01*
X57655766Y-47136079D01*
X57717089Y-47169564D01*
X57738240Y-47197818D01*
X57812770Y-47334309D01*
X57812775Y-47334317D01*
X57984254Y-47563387D01*
X57984270Y-47563405D01*
X58186594Y-47765729D01*
X58186612Y-47765745D01*
X58415682Y-47937224D01*
X58415690Y-47937229D01*
X58666833Y-48074364D01*
X58666832Y-48074364D01*
X58666836Y-48074365D01*
X58666839Y-48074367D01*
X58934954Y-48174369D01*
X58934960Y-48174370D01*
X58934962Y-48174371D01*
X59214566Y-48235195D01*
X59214568Y-48235195D01*
X59214572Y-48235196D01*
X59468220Y-48253337D01*
X59499999Y-48255610D01*
X59500000Y-48255610D01*
X59500001Y-48255610D01*
X59528595Y-48253564D01*
X59785428Y-48235196D01*
X60065046Y-48174369D01*
X60333161Y-48074367D01*
X60584315Y-47937226D01*
X60813395Y-47765739D01*
X61015739Y-47563395D01*
X61187226Y-47334315D01*
X61261759Y-47197817D01*
X61311164Y-47148413D01*
X61379437Y-47133561D01*
X61444901Y-47157978D01*
X61486773Y-47213911D01*
X61494275Y-47248399D01*
X61514804Y-47535433D01*
X61575628Y-47815037D01*
X61675635Y-48083166D01*
X61812770Y-48334309D01*
X61812775Y-48334317D01*
X61984254Y-48563387D01*
X61984270Y-48563405D01*
X62186594Y-48765729D01*
X62186612Y-48765745D01*
X62415682Y-48937224D01*
X62415690Y-48937229D01*
X62666833Y-49074364D01*
X62666832Y-49074364D01*
X62666836Y-49074365D01*
X62666839Y-49074367D01*
X62934954Y-49174369D01*
X62934960Y-49174370D01*
X62934962Y-49174371D01*
X63214566Y-49235195D01*
X63214568Y-49235195D01*
X63214572Y-49235196D01*
X63468220Y-49253337D01*
X63499999Y-49255610D01*
X63500000Y-49255610D01*
X63500001Y-49255610D01*
X63548091Y-49252170D01*
X63619838Y-49247039D01*
X63688111Y-49261891D01*
X63737516Y-49311296D01*
X63752368Y-49379569D01*
X63727951Y-49445033D01*
X63562775Y-49665682D01*
X63562770Y-49665690D01*
X63425635Y-49916833D01*
X63325628Y-50184962D01*
X63264804Y-50464566D01*
X63244390Y-50749998D01*
X63244390Y-50750001D01*
X63264804Y-51035433D01*
X63325628Y-51315037D01*
X63325630Y-51315043D01*
X63325631Y-51315046D01*
X63343342Y-51362531D01*
X63425635Y-51583166D01*
X63562770Y-51834309D01*
X63562775Y-51834317D01*
X63734254Y-52063387D01*
X63734270Y-52063405D01*
X63936594Y-52265729D01*
X63936612Y-52265745D01*
X64165682Y-52437224D01*
X64165690Y-52437229D01*
X64416833Y-52574364D01*
X64416832Y-52574364D01*
X64416836Y-52574365D01*
X64416839Y-52574367D01*
X64684954Y-52674369D01*
X64684960Y-52674370D01*
X64684962Y-52674371D01*
X64964566Y-52735195D01*
X64964568Y-52735195D01*
X64964572Y-52735196D01*
X65218220Y-52753337D01*
X65249999Y-52755610D01*
X65250000Y-52755610D01*
X65250001Y-52755610D01*
X65278595Y-52753564D01*
X65535428Y-52735196D01*
X65815046Y-52674369D01*
X66083161Y-52574367D01*
X66334315Y-52437226D01*
X66563395Y-52265739D01*
X66765739Y-52063395D01*
X66937226Y-51834315D01*
X67074367Y-51583161D01*
X67174369Y-51315046D01*
X67235196Y-51035428D01*
X67255610Y-50750000D01*
X67235196Y-50464572D01*
X67174369Y-50184954D01*
X67074367Y-49916839D01*
X66937226Y-49665685D01*
X66937224Y-49665682D01*
X66765745Y-49436612D01*
X66765729Y-49436594D01*
X66563405Y-49234270D01*
X66563387Y-49234254D01*
X66334317Y-49062775D01*
X66334309Y-49062770D01*
X66083166Y-48925635D01*
X66083167Y-48925635D01*
X65975915Y-48885632D01*
X65815046Y-48825631D01*
X65815043Y-48825630D01*
X65815037Y-48825628D01*
X65535433Y-48764804D01*
X65250001Y-48744390D01*
X65249997Y-48744390D01*
X65130160Y-48752960D01*
X65061887Y-48738108D01*
X65012482Y-48688702D01*
X64997631Y-48620429D01*
X65022046Y-48554969D01*
X65187226Y-48334315D01*
X65324367Y-48083161D01*
X65424369Y-47815046D01*
X65485196Y-47535428D01*
X65505610Y-47250000D01*
X65505495Y-47248399D01*
X65499857Y-47169564D01*
X65485196Y-46964572D01*
X65424369Y-46684954D01*
X65324367Y-46416839D01*
X65292749Y-46358936D01*
X65187229Y-46165690D01*
X65187224Y-46165682D01*
X65015745Y-45936612D01*
X65015729Y-45936594D01*
X64813405Y-45734270D01*
X64813387Y-45734254D01*
X64584317Y-45562775D01*
X64584309Y-45562770D01*
X64333166Y-45425635D01*
X64333167Y-45425635D01*
X64225915Y-45385632D01*
X64065046Y-45325631D01*
X64065043Y-45325630D01*
X64065037Y-45325628D01*
X63785433Y-45264804D01*
X63500001Y-45244390D01*
X63499999Y-45244390D01*
X63214566Y-45264804D01*
X62934962Y-45325628D01*
X62666833Y-45425635D01*
X62415690Y-45562770D01*
X62415682Y-45562775D01*
X62186612Y-45734254D01*
X62186594Y-45734270D01*
X61984270Y-45936594D01*
X61984254Y-45936612D01*
X61812775Y-46165682D01*
X61812774Y-46165684D01*
X61738240Y-46302182D01*
X61688834Y-46351587D01*
X61620561Y-46366438D01*
X61555097Y-46342021D01*
X61513226Y-46286087D01*
X61505724Y-46251600D01*
X61499580Y-46165690D01*
X61485196Y-45964572D01*
X61424369Y-45684954D01*
X61324367Y-45416839D01*
X61274563Y-45325631D01*
X61187229Y-45165690D01*
X61187224Y-45165682D01*
X61015745Y-44936612D01*
X61015729Y-44936594D01*
X60813405Y-44734270D01*
X60813387Y-44734254D01*
X60584315Y-44562774D01*
X60584309Y-44562770D01*
X60333166Y-44425635D01*
X60333167Y-44425635D01*
X60197669Y-44375097D01*
X60065046Y-44325631D01*
X60065043Y-44325630D01*
X60065037Y-44325628D01*
X59785433Y-44264804D01*
X59500001Y-44244390D01*
X59499999Y-44244390D01*
X59214566Y-44264804D01*
X58934962Y-44325628D01*
X58666833Y-44425635D01*
X58415690Y-44562770D01*
X58415685Y-44562774D01*
X58186612Y-44734254D01*
X58186594Y-44734270D01*
X57984270Y-44936594D01*
X57984254Y-44936612D01*
X57812775Y-45165682D01*
X57812770Y-45165690D01*
X57675635Y-45416833D01*
X57575628Y-45684962D01*
X57514804Y-45964566D01*
X57494275Y-46251600D01*
X57469858Y-46317065D01*
X57413924Y-46358936D01*
X57344233Y-46363920D01*
X57282910Y-46330435D01*
X57261759Y-46302181D01*
X57187229Y-46165690D01*
X57187224Y-46165682D01*
X57015745Y-45936612D01*
X57015729Y-45936594D01*
X56813405Y-45734270D01*
X56813387Y-45734254D01*
X56584317Y-45562775D01*
X56584309Y-45562770D01*
X56333166Y-45425635D01*
X56333167Y-45425635D01*
X56225915Y-45385632D01*
X56065046Y-45325631D01*
X56065043Y-45325630D01*
X56065037Y-45325628D01*
X55785433Y-45264804D01*
X55500001Y-45244390D01*
X55499999Y-45244390D01*
X55214566Y-45264804D01*
X54934962Y-45325628D01*
X54666833Y-45425635D01*
X54415690Y-45562770D01*
X54415682Y-45562775D01*
X54186612Y-45734254D01*
X54186594Y-45734270D01*
X53984270Y-45936594D01*
X53984254Y-45936612D01*
X53812775Y-46165682D01*
X53812770Y-46165690D01*
X53675635Y-46416833D01*
X53575628Y-46684962D01*
X53514804Y-46964566D01*
X53494390Y-47249998D01*
X53494390Y-47250001D01*
X53514804Y-47535433D01*
X53575628Y-47815037D01*
X53675635Y-48083166D01*
X53812770Y-48334309D01*
X53812775Y-48334317D01*
X53977951Y-48554966D01*
X54002368Y-48620430D01*
X53987516Y-48688703D01*
X53938111Y-48738108D01*
X53869839Y-48752960D01*
X53750003Y-48744390D01*
X53749999Y-48744390D01*
X53464566Y-48764804D01*
X53184962Y-48825628D01*
X52916833Y-48925635D01*
X52665690Y-49062770D01*
X52665682Y-49062775D01*
X52436612Y-49234254D01*
X52436594Y-49234270D01*
X52234270Y-49436594D01*
X52234254Y-49436612D01*
X52062775Y-49665682D01*
X52062770Y-49665690D01*
X51925635Y-49916833D01*
X51825628Y-50184962D01*
X51764804Y-50464566D01*
X51744390Y-50749998D01*
X51744390Y-50750001D01*
X42500500Y-50750001D01*
X42500500Y-32190021D01*
X42520185Y-32122982D01*
X42572989Y-32077227D01*
X42642147Y-32067283D01*
X42705703Y-32096308D01*
X42743477Y-32155086D01*
X42747378Y-32173376D01*
X42772378Y-32357938D01*
X42868313Y-32778258D01*
X43001542Y-33188296D01*
X43001545Y-33188304D01*
X43170985Y-33584730D01*
X43170989Y-33584738D01*
X43375294Y-33964399D01*
X43612799Y-34324207D01*
X43612800Y-34324208D01*
X43881608Y-34661282D01*
X43932223Y-34714221D01*
X45813103Y-32833341D01*
X45925031Y-32970918D01*
X46139990Y-33171676D01*
X46164544Y-33189008D01*
X44286877Y-35066675D01*
X44504227Y-35256569D01*
X44504244Y-35256582D01*
X44853024Y-35509986D01*
X45223140Y-35731120D01*
X45223146Y-35731123D01*
X45611569Y-35918178D01*
X45611583Y-35918184D01*
X46015209Y-36069667D01*
X46015234Y-36069675D01*
X46430816Y-36184369D01*
X46855023Y-36261351D01*
X47284435Y-36299999D01*
X47284438Y-36300000D01*
X47715562Y-36300000D01*
X47715564Y-36299999D01*
X48144976Y-36261351D01*
X48569183Y-36184369D01*
X48984765Y-36069675D01*
X48984790Y-36069667D01*
X49388416Y-35918184D01*
X49388430Y-35918178D01*
X49776853Y-35731123D01*
X49776859Y-35731120D01*
X50146975Y-35509986D01*
X50495755Y-35256582D01*
X50495772Y-35256569D01*
X50713121Y-35066675D01*
X48835455Y-33189008D01*
X48860010Y-33171676D01*
X49074969Y-32970918D01*
X49186895Y-32833342D01*
X51067775Y-34714222D01*
X51067776Y-34714222D01*
X51118386Y-34661289D01*
X51118386Y-34661288D01*
X51387199Y-34324208D01*
X51387200Y-34324207D01*
X51624705Y-33964399D01*
X51829010Y-33584738D01*
X51829014Y-33584730D01*
X51998454Y-33188304D01*
X51998457Y-33188296D01*
X52131686Y-32778258D01*
X52227621Y-32357938D01*
X52285494Y-31930701D01*
X52285495Y-31930692D01*
X52304838Y-31500003D01*
X52304838Y-31499996D01*
X52285495Y-31069307D01*
X52285494Y-31069298D01*
X52227621Y-30642061D01*
X52131686Y-30221741D01*
X51998457Y-29811703D01*
X51998454Y-29811695D01*
X51829014Y-29415269D01*
X51829010Y-29415261D01*
X51624705Y-29035600D01*
X51387200Y-28675792D01*
X51387199Y-28675791D01*
X51118391Y-28338717D01*
X51067774Y-28285776D01*
X49186894Y-30166656D01*
X49074969Y-30029082D01*
X48860010Y-29828324D01*
X48835453Y-29810990D01*
X50713121Y-27933323D01*
X50495772Y-27743430D01*
X50495755Y-27743417D01*
X50146975Y-27490013D01*
X49776859Y-27268879D01*
X49776853Y-27268876D01*
X49388430Y-27081821D01*
X49388416Y-27081815D01*
X48984790Y-26930332D01*
X48984765Y-26930324D01*
X48569183Y-26815630D01*
X48188282Y-26746507D01*
X48125835Y-26715169D01*
X48090244Y-26655043D01*
X48092809Y-26585221D01*
X48132715Y-26527869D01*
X48197294Y-26501197D01*
X48210423Y-26500500D01*
X80509421Y-26500500D01*
X80576460Y-26520185D01*
G37*
%TD.AperFunction*%
%TA.AperFunction,Conductor*%
G36*
X141617942Y-37320185D02*
G01*
X141663697Y-37372989D01*
X141673641Y-37442147D01*
X141644616Y-37505703D01*
X141638584Y-37512181D01*
X139287584Y-39863181D01*
X139226261Y-39896666D01*
X139199903Y-39899500D01*
X134011661Y-39899500D01*
X133944622Y-39879815D01*
X133898867Y-39827011D01*
X133888923Y-39757853D01*
X133906668Y-39709527D01*
X133975788Y-39599524D01*
X134035368Y-39429254D01*
X134035369Y-39429249D01*
X134039695Y-39390850D01*
X134048465Y-39313006D01*
X134075531Y-39248595D01*
X134105708Y-39221901D01*
X134252262Y-39129816D01*
X134379816Y-39002262D01*
X134421830Y-38935396D01*
X134474161Y-38889107D01*
X134543215Y-38878458D01*
X134567771Y-38884327D01*
X134570745Y-38885368D01*
X134570751Y-38885368D01*
X134570752Y-38885369D01*
X134749996Y-38905565D01*
X134750000Y-38905565D01*
X134750004Y-38905565D01*
X134929249Y-38885369D01*
X134929252Y-38885368D01*
X134929255Y-38885368D01*
X135099522Y-38825789D01*
X135252262Y-38729816D01*
X135379816Y-38602262D01*
X135396074Y-38576386D01*
X135448407Y-38530096D01*
X135517460Y-38519446D01*
X135542012Y-38525314D01*
X135570745Y-38535368D01*
X135570752Y-38535368D01*
X135570753Y-38535369D01*
X135749996Y-38555565D01*
X135750000Y-38555565D01*
X135750004Y-38555565D01*
X135929249Y-38535369D01*
X135929252Y-38535368D01*
X135929255Y-38535368D01*
X136099522Y-38475789D01*
X136252262Y-38379816D01*
X136349689Y-38282389D01*
X136411012Y-38248904D01*
X136478325Y-38253028D01*
X136478860Y-38253216D01*
X136570740Y-38285367D01*
X136570750Y-38285369D01*
X136749996Y-38305565D01*
X136750000Y-38305565D01*
X136750004Y-38305565D01*
X136929249Y-38285369D01*
X136929252Y-38285368D01*
X136929255Y-38285368D01*
X137099522Y-38225789D01*
X137252262Y-38129816D01*
X137379816Y-38002262D01*
X137475789Y-37849522D01*
X137535368Y-37679255D01*
X137542176Y-37618834D01*
X137555565Y-37500003D01*
X137555565Y-37499996D01*
X137548623Y-37438383D01*
X137560678Y-37369561D01*
X137608027Y-37318182D01*
X137671843Y-37300500D01*
X141550903Y-37300500D01*
X141617942Y-37320185D01*
G37*
%TD.AperFunction*%
%TA.AperFunction,Conductor*%
G36*
X161442539Y-26520185D02*
G01*
X161488294Y-26572989D01*
X161499500Y-26624500D01*
X161499500Y-30809978D01*
X161479815Y-30877017D01*
X161427011Y-30922772D01*
X161357853Y-30932716D01*
X161294297Y-30903691D01*
X161256523Y-30844913D01*
X161252622Y-30826623D01*
X161227621Y-30642061D01*
X161131686Y-30221741D01*
X160998457Y-29811703D01*
X160998454Y-29811695D01*
X160829014Y-29415269D01*
X160829010Y-29415261D01*
X160624705Y-29035600D01*
X160387200Y-28675792D01*
X160387199Y-28675791D01*
X160118391Y-28338717D01*
X160067774Y-28285776D01*
X158186894Y-30166656D01*
X158074969Y-30029082D01*
X157860010Y-29828324D01*
X157835453Y-29810990D01*
X159713121Y-27933323D01*
X159495772Y-27743430D01*
X159495755Y-27743417D01*
X159146975Y-27490013D01*
X158776859Y-27268879D01*
X158776853Y-27268876D01*
X158388430Y-27081821D01*
X158388416Y-27081815D01*
X157984790Y-26930332D01*
X157984765Y-26930324D01*
X157569183Y-26815630D01*
X157188282Y-26746507D01*
X157125835Y-26715169D01*
X157090244Y-26655043D01*
X157092809Y-26585221D01*
X157132715Y-26527869D01*
X157197294Y-26501197D01*
X157210423Y-26500500D01*
X161375500Y-26500500D01*
X161442539Y-26520185D01*
G37*
%TD.AperFunction*%
%TA.AperFunction,Conductor*%
G36*
X46856616Y-26520185D02*
G01*
X46902371Y-26572989D01*
X46912315Y-26642147D01*
X46883290Y-26705703D01*
X46824512Y-26743477D01*
X46811718Y-26746507D01*
X46430816Y-26815630D01*
X46015234Y-26930324D01*
X46015209Y-26930332D01*
X45611583Y-27081815D01*
X45611569Y-27081821D01*
X45223146Y-27268876D01*
X45223140Y-27268879D01*
X44853024Y-27490013D01*
X44504235Y-27743423D01*
X44286877Y-27933322D01*
X44286877Y-27933323D01*
X46164545Y-29810991D01*
X46139990Y-29828324D01*
X45925031Y-30029082D01*
X45813104Y-30166657D01*
X43932223Y-28285777D01*
X43881624Y-28338699D01*
X43881612Y-28338712D01*
X43612800Y-28675791D01*
X43612799Y-28675792D01*
X43375294Y-29035600D01*
X43170989Y-29415261D01*
X43170985Y-29415269D01*
X43001545Y-29811695D01*
X43001542Y-29811703D01*
X42868313Y-30221741D01*
X42772378Y-30642061D01*
X42747378Y-30826623D01*
X42718872Y-30890413D01*
X42660404Y-30928666D01*
X42590537Y-30929236D01*
X42531453Y-30891943D01*
X42501910Y-30828626D01*
X42500500Y-30809978D01*
X42500500Y-26624500D01*
X42520185Y-26557461D01*
X42572989Y-26511706D01*
X42624500Y-26500500D01*
X46789577Y-26500500D01*
X46856616Y-26520185D01*
G37*
%TD.AperFunction*%
%TD*%
M02*
