%TF.GenerationSoftware,KiCad,Pcbnew,(6.0.9-0)*%
%TF.CreationDate,2023-10-02T11:36:55-04:00*%
%TF.ProjectId,clock,636c6f63-6b2e-46b6-9963-61645f706362,rev?*%
%TF.SameCoordinates,Original*%
%TF.FileFunction,Drillmap*%
%TF.FilePolarity,Positive*%
%FSLAX45Y45*%
G04 Gerber Fmt 4.5, Leading zero omitted, Abs format (unit mm)*
G04 Created by KiCad (PCBNEW (6.0.9-0)) date 2023-10-02 11:36:55*
%MOMM*%
%LPD*%
G01*
G04 APERTURE LIST*
%ADD10C,0.100000*%
%ADD11C,0.200000*%
%ADD12C,0.040000*%
%ADD13C,0.060000*%
%ADD14C,0.090000*%
%ADD15C,0.095000*%
%ADD16C,0.102000*%
%ADD17C,0.110000*%
%ADD18C,0.230000*%
G04 APERTURE END LIST*
D10*
X2017404Y-11734800D02*
G75*
G03*
X2017404Y-11734800I-361002J0D01*
G01*
X2062802Y-1707202D02*
G75*
G03*
X2062802Y-1707202I-361002J0D01*
G01*
X28326402Y-1681802D02*
G75*
G03*
X28326402Y-1681802I-361002J0D01*
G01*
X28275602Y-11658600D02*
G75*
G03*
X28275602Y-11658600I-361002J0D01*
G01*
X1219200Y-1219200D02*
X28448000Y-1219200D01*
X28448000Y-1219200D02*
X28448000Y-12217400D01*
X28448000Y-12217400D02*
X1219200Y-12217400D01*
X1219200Y-12217400D02*
X1219200Y-1219200D01*
D11*
D12*
X3332800Y-9530400D02*
X3372800Y-9570400D01*
X3372800Y-9530400D02*
X3332800Y-9570400D01*
X5865800Y-5749400D02*
X5905800Y-5789400D01*
X5905800Y-5749400D02*
X5865800Y-5789400D01*
X5865800Y-6257400D02*
X5905800Y-6297400D01*
X5905800Y-6257400D02*
X5865800Y-6297400D01*
X5865800Y-8924400D02*
X5905800Y-8964400D01*
X5905800Y-8924400D02*
X5865800Y-8964400D01*
X5891200Y-6816200D02*
X5931200Y-6856200D01*
X5931200Y-6816200D02*
X5891200Y-6856200D01*
X5916600Y-7908400D02*
X5956600Y-7948400D01*
X5956600Y-7908400D02*
X5916600Y-7948400D01*
X5942000Y-7375000D02*
X5982000Y-7415000D01*
X5982000Y-7375000D02*
X5942000Y-7415000D01*
X5942000Y-8416400D02*
X5982000Y-8456400D01*
X5982000Y-8416400D02*
X5942000Y-8456400D01*
X15961800Y-6130400D02*
X16001800Y-6170400D01*
X16001800Y-6130400D02*
X15961800Y-6170400D01*
X16723800Y-6511400D02*
X16763800Y-6551400D01*
X16763800Y-6511400D02*
X16723800Y-6551400D01*
X17231800Y-9559400D02*
X17271800Y-9599400D01*
X17271800Y-9559400D02*
X17231800Y-9599400D01*
X18628800Y-9813400D02*
X18668800Y-9853400D01*
X18668800Y-9813400D02*
X18628800Y-9853400D01*
D13*
X3655200Y-2749200D02*
G75*
G03*
X3655200Y-2749200I-30000J0D01*
G01*
X3655200Y-2899200D02*
G75*
G03*
X3655200Y-2899200I-30000J0D01*
G01*
D14*
X7345800Y-3311400D02*
X7345800Y-3401400D01*
X7300800Y-3356400D02*
X7390800Y-3356400D01*
X7345800Y-4073400D02*
X7345800Y-4163400D01*
X7300800Y-4118400D02*
X7390800Y-4118400D01*
X7345800Y-4835400D02*
X7345800Y-4925400D01*
X7300800Y-4880400D02*
X7390800Y-4880400D01*
X7345800Y-5597400D02*
X7345800Y-5687400D01*
X7300800Y-5642400D02*
X7390800Y-5642400D01*
X7345800Y-6867400D02*
X7345800Y-6957400D01*
X7300800Y-6912400D02*
X7390800Y-6912400D01*
X7345800Y-7629400D02*
X7345800Y-7719400D01*
X7300800Y-7674400D02*
X7390800Y-7674400D01*
X7345800Y-8391400D02*
X7345800Y-8481400D01*
X7300800Y-8436400D02*
X7390800Y-8436400D01*
X7345800Y-9153400D02*
X7345800Y-9243400D01*
X7300800Y-9198400D02*
X7390800Y-9198400D01*
X7599800Y-3311400D02*
X7599800Y-3401400D01*
X7554800Y-3356400D02*
X7644800Y-3356400D01*
X7599800Y-4073400D02*
X7599800Y-4163400D01*
X7554800Y-4118400D02*
X7644800Y-4118400D01*
X7599800Y-4835400D02*
X7599800Y-4925400D01*
X7554800Y-4880400D02*
X7644800Y-4880400D01*
X7599800Y-5597400D02*
X7599800Y-5687400D01*
X7554800Y-5642400D02*
X7644800Y-5642400D01*
X7599800Y-6867400D02*
X7599800Y-6957400D01*
X7554800Y-6912400D02*
X7644800Y-6912400D01*
X7599800Y-7629400D02*
X7599800Y-7719400D01*
X7554800Y-7674400D02*
X7644800Y-7674400D01*
X7599800Y-8391400D02*
X7599800Y-8481400D01*
X7554800Y-8436400D02*
X7644800Y-8436400D01*
X7599800Y-9153400D02*
X7599800Y-9243400D01*
X7554800Y-9198400D02*
X7644800Y-9198400D01*
X8234800Y-2422400D02*
X8234800Y-2512400D01*
X8189800Y-2467400D02*
X8279800Y-2467400D01*
X8234800Y-2676400D02*
X8234800Y-2766400D01*
X8189800Y-2721400D02*
X8279800Y-2721400D01*
X8234800Y-6105400D02*
X8234800Y-6195400D01*
X8189800Y-6150400D02*
X8279800Y-6150400D01*
X8234800Y-6359400D02*
X8234800Y-6449400D01*
X8189800Y-6404400D02*
X8279800Y-6404400D01*
X8234800Y-9788400D02*
X8234800Y-9878400D01*
X8189800Y-9833400D02*
X8279800Y-9833400D01*
X8234800Y-10042400D02*
X8234800Y-10132400D01*
X8189800Y-10087400D02*
X8279800Y-10087400D01*
X8996800Y-2422400D02*
X8996800Y-2512400D01*
X8951800Y-2467400D02*
X9041800Y-2467400D01*
X8996800Y-2676400D02*
X8996800Y-2766400D01*
X8951800Y-2721400D02*
X9041800Y-2721400D01*
X8996800Y-6105400D02*
X8996800Y-6195400D01*
X8951800Y-6150400D02*
X9041800Y-6150400D01*
X8996800Y-6359400D02*
X8996800Y-6449400D01*
X8951800Y-6404400D02*
X9041800Y-6404400D01*
X8996800Y-9788400D02*
X8996800Y-9878400D01*
X8951800Y-9833400D02*
X9041800Y-9833400D01*
X8996800Y-10042400D02*
X8996800Y-10132400D01*
X8951800Y-10087400D02*
X9041800Y-10087400D01*
X9758800Y-2422400D02*
X9758800Y-2512400D01*
X9713800Y-2467400D02*
X9803800Y-2467400D01*
X9758800Y-2676400D02*
X9758800Y-2766400D01*
X9713800Y-2721400D02*
X9803800Y-2721400D01*
X9758800Y-6105400D02*
X9758800Y-6195400D01*
X9713800Y-6150400D02*
X9803800Y-6150400D01*
X9758800Y-6359400D02*
X9758800Y-6449400D01*
X9713800Y-6404400D02*
X9803800Y-6404400D01*
X9758800Y-9788400D02*
X9758800Y-9878400D01*
X9713800Y-9833400D02*
X9803800Y-9833400D01*
X9758800Y-10042400D02*
X9758800Y-10132400D01*
X9713800Y-10087400D02*
X9803800Y-10087400D01*
X10520800Y-2422400D02*
X10520800Y-2512400D01*
X10475800Y-2467400D02*
X10565800Y-2467400D01*
X10520800Y-2676400D02*
X10520800Y-2766400D01*
X10475800Y-2721400D02*
X10565800Y-2721400D01*
X10520800Y-6105400D02*
X10520800Y-6195400D01*
X10475800Y-6150400D02*
X10565800Y-6150400D01*
X10520800Y-6359400D02*
X10520800Y-6449400D01*
X10475800Y-6404400D02*
X10565800Y-6404400D01*
X10520800Y-9788400D02*
X10520800Y-9878400D01*
X10475800Y-9833400D02*
X10565800Y-9833400D01*
X10520800Y-10042400D02*
X10520800Y-10132400D01*
X10475800Y-10087400D02*
X10565800Y-10087400D01*
X11155800Y-3311400D02*
X11155800Y-3401400D01*
X11110800Y-3356400D02*
X11200800Y-3356400D01*
X11155800Y-4073400D02*
X11155800Y-4163400D01*
X11110800Y-4118400D02*
X11200800Y-4118400D01*
X11155800Y-4835400D02*
X11155800Y-4925400D01*
X11110800Y-4880400D02*
X11200800Y-4880400D01*
X11155800Y-5597400D02*
X11155800Y-5687400D01*
X11110800Y-5642400D02*
X11200800Y-5642400D01*
X11155800Y-6867400D02*
X11155800Y-6957400D01*
X11110800Y-6912400D02*
X11200800Y-6912400D01*
X11155800Y-7629400D02*
X11155800Y-7719400D01*
X11110800Y-7674400D02*
X11200800Y-7674400D01*
X11155800Y-8391400D02*
X11155800Y-8481400D01*
X11110800Y-8436400D02*
X11200800Y-8436400D01*
X11155800Y-9153400D02*
X11155800Y-9243400D01*
X11110800Y-9198400D02*
X11200800Y-9198400D01*
X11409800Y-3311400D02*
X11409800Y-3401400D01*
X11364800Y-3356400D02*
X11454800Y-3356400D01*
X11409800Y-4073400D02*
X11409800Y-4163400D01*
X11364800Y-4118400D02*
X11454800Y-4118400D01*
X11409800Y-4835400D02*
X11409800Y-4925400D01*
X11364800Y-4880400D02*
X11454800Y-4880400D01*
X11409800Y-5597400D02*
X11409800Y-5687400D01*
X11364800Y-5642400D02*
X11454800Y-5642400D01*
X11409800Y-6867400D02*
X11409800Y-6957400D01*
X11364800Y-6912400D02*
X11454800Y-6912400D01*
X11409800Y-7629400D02*
X11409800Y-7719400D01*
X11364800Y-7674400D02*
X11454800Y-7674400D01*
X11409800Y-8391400D02*
X11409800Y-8481400D01*
X11364800Y-8436400D02*
X11454800Y-8436400D01*
X11409800Y-9153400D02*
X11409800Y-9243400D01*
X11364800Y-9198400D02*
X11454800Y-9198400D01*
X12171800Y-3311400D02*
X12171800Y-3401400D01*
X12126800Y-3356400D02*
X12216800Y-3356400D01*
X12171800Y-4073400D02*
X12171800Y-4163400D01*
X12126800Y-4118400D02*
X12216800Y-4118400D01*
X12171800Y-4835400D02*
X12171800Y-4925400D01*
X12126800Y-4880400D02*
X12216800Y-4880400D01*
X12171800Y-5597400D02*
X12171800Y-5687400D01*
X12126800Y-5642400D02*
X12216800Y-5642400D01*
X12171800Y-6867400D02*
X12171800Y-6957400D01*
X12126800Y-6912400D02*
X12216800Y-6912400D01*
X12171800Y-7629400D02*
X12171800Y-7719400D01*
X12126800Y-7674400D02*
X12216800Y-7674400D01*
X12171800Y-8391400D02*
X12171800Y-8481400D01*
X12126800Y-8436400D02*
X12216800Y-8436400D01*
X12171800Y-9153400D02*
X12171800Y-9243400D01*
X12126800Y-9198400D02*
X12216800Y-9198400D01*
X12425800Y-3311400D02*
X12425800Y-3401400D01*
X12380800Y-3356400D02*
X12470800Y-3356400D01*
X12425800Y-4073400D02*
X12425800Y-4163400D01*
X12380800Y-4118400D02*
X12470800Y-4118400D01*
X12425800Y-4835400D02*
X12425800Y-4925400D01*
X12380800Y-4880400D02*
X12470800Y-4880400D01*
X12425800Y-5597400D02*
X12425800Y-5687400D01*
X12380800Y-5642400D02*
X12470800Y-5642400D01*
X12425800Y-6867400D02*
X12425800Y-6957400D01*
X12380800Y-6912400D02*
X12470800Y-6912400D01*
X12425800Y-7629400D02*
X12425800Y-7719400D01*
X12380800Y-7674400D02*
X12470800Y-7674400D01*
X12425800Y-8391400D02*
X12425800Y-8481400D01*
X12380800Y-8436400D02*
X12470800Y-8436400D01*
X12425800Y-9153400D02*
X12425800Y-9243400D01*
X12380800Y-9198400D02*
X12470800Y-9198400D01*
X13060800Y-2422400D02*
X13060800Y-2512400D01*
X13015800Y-2467400D02*
X13105800Y-2467400D01*
X13060800Y-2676400D02*
X13060800Y-2766400D01*
X13015800Y-2721400D02*
X13105800Y-2721400D01*
X13060800Y-6105400D02*
X13060800Y-6195400D01*
X13015800Y-6150400D02*
X13105800Y-6150400D01*
X13060800Y-6359400D02*
X13060800Y-6449400D01*
X13015800Y-6404400D02*
X13105800Y-6404400D01*
X13060800Y-9788400D02*
X13060800Y-9878400D01*
X13015800Y-9833400D02*
X13105800Y-9833400D01*
X13060800Y-10042400D02*
X13060800Y-10132400D01*
X13015800Y-10087400D02*
X13105800Y-10087400D01*
X13822800Y-2422400D02*
X13822800Y-2512400D01*
X13777800Y-2467400D02*
X13867800Y-2467400D01*
X13822800Y-2676400D02*
X13822800Y-2766400D01*
X13777800Y-2721400D02*
X13867800Y-2721400D01*
X13822800Y-6105400D02*
X13822800Y-6195400D01*
X13777800Y-6150400D02*
X13867800Y-6150400D01*
X13822800Y-6359400D02*
X13822800Y-6449400D01*
X13777800Y-6404400D02*
X13867800Y-6404400D01*
X13822800Y-9788400D02*
X13822800Y-9878400D01*
X13777800Y-9833400D02*
X13867800Y-9833400D01*
X13822800Y-10042400D02*
X13822800Y-10132400D01*
X13777800Y-10087400D02*
X13867800Y-10087400D01*
X14584800Y-2422400D02*
X14584800Y-2512400D01*
X14539800Y-2467400D02*
X14629800Y-2467400D01*
X14584800Y-2676400D02*
X14584800Y-2766400D01*
X14539800Y-2721400D02*
X14629800Y-2721400D01*
X14584800Y-6105400D02*
X14584800Y-6195400D01*
X14539800Y-6150400D02*
X14629800Y-6150400D01*
X14584800Y-6359400D02*
X14584800Y-6449400D01*
X14539800Y-6404400D02*
X14629800Y-6404400D01*
X14584800Y-9788400D02*
X14584800Y-9878400D01*
X14539800Y-9833400D02*
X14629800Y-9833400D01*
X14584800Y-10042400D02*
X14584800Y-10132400D01*
X14539800Y-10087400D02*
X14629800Y-10087400D01*
X15346800Y-2422400D02*
X15346800Y-2512400D01*
X15301800Y-2467400D02*
X15391800Y-2467400D01*
X15346800Y-2676400D02*
X15346800Y-2766400D01*
X15301800Y-2721400D02*
X15391800Y-2721400D01*
X15346800Y-6105400D02*
X15346800Y-6195400D01*
X15301800Y-6150400D02*
X15391800Y-6150400D01*
X15346800Y-6359400D02*
X15346800Y-6449400D01*
X15301800Y-6404400D02*
X15391800Y-6404400D01*
X15346800Y-9788400D02*
X15346800Y-9878400D01*
X15301800Y-9833400D02*
X15391800Y-9833400D01*
X15346800Y-10042400D02*
X15346800Y-10132400D01*
X15301800Y-10087400D02*
X15391800Y-10087400D01*
X15981800Y-3311400D02*
X15981800Y-3401400D01*
X15936800Y-3356400D02*
X16026800Y-3356400D01*
X15981800Y-4073400D02*
X15981800Y-4163400D01*
X15936800Y-4118400D02*
X16026800Y-4118400D01*
X15981800Y-4835400D02*
X15981800Y-4925400D01*
X15936800Y-4880400D02*
X16026800Y-4880400D01*
X15981800Y-5597400D02*
X15981800Y-5687400D01*
X15936800Y-5642400D02*
X16026800Y-5642400D01*
X15981800Y-6867400D02*
X15981800Y-6957400D01*
X15936800Y-6912400D02*
X16026800Y-6912400D01*
X15981800Y-7629400D02*
X15981800Y-7719400D01*
X15936800Y-7674400D02*
X16026800Y-7674400D01*
X15981800Y-8391400D02*
X15981800Y-8481400D01*
X15936800Y-8436400D02*
X16026800Y-8436400D01*
X15981800Y-9153400D02*
X15981800Y-9243400D01*
X15936800Y-9198400D02*
X16026800Y-9198400D01*
X16235800Y-3311400D02*
X16235800Y-3401400D01*
X16190800Y-3356400D02*
X16280800Y-3356400D01*
X16235800Y-4073400D02*
X16235800Y-4163400D01*
X16190800Y-4118400D02*
X16280800Y-4118400D01*
X16235800Y-4835400D02*
X16235800Y-4925400D01*
X16190800Y-4880400D02*
X16280800Y-4880400D01*
X16235800Y-5597400D02*
X16235800Y-5687400D01*
X16190800Y-5642400D02*
X16280800Y-5642400D01*
X16235800Y-6867400D02*
X16235800Y-6957400D01*
X16190800Y-6912400D02*
X16280800Y-6912400D01*
X16235800Y-7629400D02*
X16235800Y-7719400D01*
X16190800Y-7674400D02*
X16280800Y-7674400D01*
X16235800Y-8391400D02*
X16235800Y-8481400D01*
X16190800Y-8436400D02*
X16280800Y-8436400D01*
X16235800Y-9153400D02*
X16235800Y-9243400D01*
X16190800Y-9198400D02*
X16280800Y-9198400D01*
X18140800Y-3311400D02*
X18140800Y-3401400D01*
X18095800Y-3356400D02*
X18185800Y-3356400D01*
X18140800Y-4073400D02*
X18140800Y-4163400D01*
X18095800Y-4118400D02*
X18185800Y-4118400D01*
X18140800Y-4835400D02*
X18140800Y-4925400D01*
X18095800Y-4880400D02*
X18185800Y-4880400D01*
X18140800Y-5597400D02*
X18140800Y-5687400D01*
X18095800Y-5642400D02*
X18185800Y-5642400D01*
X18140800Y-6867400D02*
X18140800Y-6957400D01*
X18095800Y-6912400D02*
X18185800Y-6912400D01*
X18140800Y-7629400D02*
X18140800Y-7719400D01*
X18095800Y-7674400D02*
X18185800Y-7674400D01*
X18140800Y-8391400D02*
X18140800Y-8481400D01*
X18095800Y-8436400D02*
X18185800Y-8436400D01*
X18140800Y-9153400D02*
X18140800Y-9243400D01*
X18095800Y-9198400D02*
X18185800Y-9198400D01*
X18394800Y-3311400D02*
X18394800Y-3401400D01*
X18349800Y-3356400D02*
X18439800Y-3356400D01*
X18394800Y-4073400D02*
X18394800Y-4163400D01*
X18349800Y-4118400D02*
X18439800Y-4118400D01*
X18394800Y-4835400D02*
X18394800Y-4925400D01*
X18349800Y-4880400D02*
X18439800Y-4880400D01*
X18394800Y-5597400D02*
X18394800Y-5687400D01*
X18349800Y-5642400D02*
X18439800Y-5642400D01*
X18394800Y-6867400D02*
X18394800Y-6957400D01*
X18349800Y-6912400D02*
X18439800Y-6912400D01*
X18394800Y-7629400D02*
X18394800Y-7719400D01*
X18349800Y-7674400D02*
X18439800Y-7674400D01*
X18394800Y-8391400D02*
X18394800Y-8481400D01*
X18349800Y-8436400D02*
X18439800Y-8436400D01*
X18394800Y-9153400D02*
X18394800Y-9243400D01*
X18349800Y-9198400D02*
X18439800Y-9198400D01*
X19029800Y-2422400D02*
X19029800Y-2512400D01*
X18984800Y-2467400D02*
X19074800Y-2467400D01*
X19029800Y-2676400D02*
X19029800Y-2766400D01*
X18984800Y-2721400D02*
X19074800Y-2721400D01*
X19029800Y-6105400D02*
X19029800Y-6195400D01*
X18984800Y-6150400D02*
X19074800Y-6150400D01*
X19029800Y-6359400D02*
X19029800Y-6449400D01*
X18984800Y-6404400D02*
X19074800Y-6404400D01*
X19029800Y-9788400D02*
X19029800Y-9878400D01*
X18984800Y-9833400D02*
X19074800Y-9833400D01*
X19029800Y-10042400D02*
X19029800Y-10132400D01*
X18984800Y-10087400D02*
X19074800Y-10087400D01*
X19791800Y-2422400D02*
X19791800Y-2512400D01*
X19746800Y-2467400D02*
X19836800Y-2467400D01*
X19791800Y-2676400D02*
X19791800Y-2766400D01*
X19746800Y-2721400D02*
X19836800Y-2721400D01*
X19791800Y-6105400D02*
X19791800Y-6195400D01*
X19746800Y-6150400D02*
X19836800Y-6150400D01*
X19791800Y-6359400D02*
X19791800Y-6449400D01*
X19746800Y-6404400D02*
X19836800Y-6404400D01*
X19791800Y-9788400D02*
X19791800Y-9878400D01*
X19746800Y-9833400D02*
X19836800Y-9833400D01*
X19791800Y-10042400D02*
X19791800Y-10132400D01*
X19746800Y-10087400D02*
X19836800Y-10087400D01*
X20553800Y-2422400D02*
X20553800Y-2512400D01*
X20508800Y-2467400D02*
X20598800Y-2467400D01*
X20553800Y-2676400D02*
X20553800Y-2766400D01*
X20508800Y-2721400D02*
X20598800Y-2721400D01*
X20553800Y-6105400D02*
X20553800Y-6195400D01*
X20508800Y-6150400D02*
X20598800Y-6150400D01*
X20553800Y-6359400D02*
X20553800Y-6449400D01*
X20508800Y-6404400D02*
X20598800Y-6404400D01*
X20553800Y-9788400D02*
X20553800Y-9878400D01*
X20508800Y-9833400D02*
X20598800Y-9833400D01*
X20553800Y-10042400D02*
X20553800Y-10132400D01*
X20508800Y-10087400D02*
X20598800Y-10087400D01*
X21315800Y-2422400D02*
X21315800Y-2512400D01*
X21270800Y-2467400D02*
X21360800Y-2467400D01*
X21315800Y-2676400D02*
X21315800Y-2766400D01*
X21270800Y-2721400D02*
X21360800Y-2721400D01*
X21315800Y-6105400D02*
X21315800Y-6195400D01*
X21270800Y-6150400D02*
X21360800Y-6150400D01*
X21315800Y-6359400D02*
X21315800Y-6449400D01*
X21270800Y-6404400D02*
X21360800Y-6404400D01*
X21315800Y-9788400D02*
X21315800Y-9878400D01*
X21270800Y-9833400D02*
X21360800Y-9833400D01*
X21315800Y-10042400D02*
X21315800Y-10132400D01*
X21270800Y-10087400D02*
X21360800Y-10087400D01*
X21950800Y-3311400D02*
X21950800Y-3401400D01*
X21905800Y-3356400D02*
X21995800Y-3356400D01*
X21950800Y-4073400D02*
X21950800Y-4163400D01*
X21905800Y-4118400D02*
X21995800Y-4118400D01*
X21950800Y-4835400D02*
X21950800Y-4925400D01*
X21905800Y-4880400D02*
X21995800Y-4880400D01*
X21950800Y-5597400D02*
X21950800Y-5687400D01*
X21905800Y-5642400D02*
X21995800Y-5642400D01*
X21950800Y-6867400D02*
X21950800Y-6957400D01*
X21905800Y-6912400D02*
X21995800Y-6912400D01*
X21950800Y-7629400D02*
X21950800Y-7719400D01*
X21905800Y-7674400D02*
X21995800Y-7674400D01*
X21950800Y-8391400D02*
X21950800Y-8481400D01*
X21905800Y-8436400D02*
X21995800Y-8436400D01*
X21950800Y-9153400D02*
X21950800Y-9243400D01*
X21905800Y-9198400D02*
X21995800Y-9198400D01*
X22204800Y-3311400D02*
X22204800Y-3401400D01*
X22159800Y-3356400D02*
X22249800Y-3356400D01*
X22204800Y-4073400D02*
X22204800Y-4163400D01*
X22159800Y-4118400D02*
X22249800Y-4118400D01*
X22204800Y-4835400D02*
X22204800Y-4925400D01*
X22159800Y-4880400D02*
X22249800Y-4880400D01*
X22204800Y-5597400D02*
X22204800Y-5687400D01*
X22159800Y-5642400D02*
X22249800Y-5642400D01*
X22204800Y-6867400D02*
X22204800Y-6957400D01*
X22159800Y-6912400D02*
X22249800Y-6912400D01*
X22204800Y-7629400D02*
X22204800Y-7719400D01*
X22159800Y-7674400D02*
X22249800Y-7674400D01*
X22204800Y-8391400D02*
X22204800Y-8481400D01*
X22159800Y-8436400D02*
X22249800Y-8436400D01*
X22204800Y-9153400D02*
X22204800Y-9243400D01*
X22159800Y-9198400D02*
X22249800Y-9198400D01*
X22966800Y-3311400D02*
X22966800Y-3401400D01*
X22921800Y-3356400D02*
X23011800Y-3356400D01*
X22966800Y-4073400D02*
X22966800Y-4163400D01*
X22921800Y-4118400D02*
X23011800Y-4118400D01*
X22966800Y-4835400D02*
X22966800Y-4925400D01*
X22921800Y-4880400D02*
X23011800Y-4880400D01*
X22966800Y-5597400D02*
X22966800Y-5687400D01*
X22921800Y-5642400D02*
X23011800Y-5642400D01*
X22966800Y-6867400D02*
X22966800Y-6957400D01*
X22921800Y-6912400D02*
X23011800Y-6912400D01*
X22966800Y-7629400D02*
X22966800Y-7719400D01*
X22921800Y-7674400D02*
X23011800Y-7674400D01*
X22966800Y-8391400D02*
X22966800Y-8481400D01*
X22921800Y-8436400D02*
X23011800Y-8436400D01*
X22966800Y-9153400D02*
X22966800Y-9243400D01*
X22921800Y-9198400D02*
X23011800Y-9198400D01*
X23220800Y-3311400D02*
X23220800Y-3401400D01*
X23175800Y-3356400D02*
X23265800Y-3356400D01*
X23220800Y-4073400D02*
X23220800Y-4163400D01*
X23175800Y-4118400D02*
X23265800Y-4118400D01*
X23220800Y-4835400D02*
X23220800Y-4925400D01*
X23175800Y-4880400D02*
X23265800Y-4880400D01*
X23220800Y-5597400D02*
X23220800Y-5687400D01*
X23175800Y-5642400D02*
X23265800Y-5642400D01*
X23220800Y-6867400D02*
X23220800Y-6957400D01*
X23175800Y-6912400D02*
X23265800Y-6912400D01*
X23220800Y-7629400D02*
X23220800Y-7719400D01*
X23175800Y-7674400D02*
X23265800Y-7674400D01*
X23220800Y-8391400D02*
X23220800Y-8481400D01*
X23175800Y-8436400D02*
X23265800Y-8436400D01*
X23220800Y-9153400D02*
X23220800Y-9243400D01*
X23175800Y-9198400D02*
X23265800Y-9198400D01*
X23855800Y-2422400D02*
X23855800Y-2512400D01*
X23810800Y-2467400D02*
X23900800Y-2467400D01*
X23855800Y-2676400D02*
X23855800Y-2766400D01*
X23810800Y-2721400D02*
X23900800Y-2721400D01*
X23855800Y-6105400D02*
X23855800Y-6195400D01*
X23810800Y-6150400D02*
X23900800Y-6150400D01*
X23855800Y-6359400D02*
X23855800Y-6449400D01*
X23810800Y-6404400D02*
X23900800Y-6404400D01*
X23855800Y-9788400D02*
X23855800Y-9878400D01*
X23810800Y-9833400D02*
X23900800Y-9833400D01*
X23855800Y-10042400D02*
X23855800Y-10132400D01*
X23810800Y-10087400D02*
X23900800Y-10087400D01*
X24617800Y-2422400D02*
X24617800Y-2512400D01*
X24572800Y-2467400D02*
X24662800Y-2467400D01*
X24617800Y-2676400D02*
X24617800Y-2766400D01*
X24572800Y-2721400D02*
X24662800Y-2721400D01*
X24617800Y-6105400D02*
X24617800Y-6195400D01*
X24572800Y-6150400D02*
X24662800Y-6150400D01*
X24617800Y-6359400D02*
X24617800Y-6449400D01*
X24572800Y-6404400D02*
X24662800Y-6404400D01*
X24617800Y-9788400D02*
X24617800Y-9878400D01*
X24572800Y-9833400D02*
X24662800Y-9833400D01*
X24617800Y-10042400D02*
X24617800Y-10132400D01*
X24572800Y-10087400D02*
X24662800Y-10087400D01*
X25379800Y-2422400D02*
X25379800Y-2512400D01*
X25334800Y-2467400D02*
X25424800Y-2467400D01*
X25379800Y-2676400D02*
X25379800Y-2766400D01*
X25334800Y-2721400D02*
X25424800Y-2721400D01*
X25379800Y-6105400D02*
X25379800Y-6195400D01*
X25334800Y-6150400D02*
X25424800Y-6150400D01*
X25379800Y-6359400D02*
X25379800Y-6449400D01*
X25334800Y-6404400D02*
X25424800Y-6404400D01*
X25379800Y-9788400D02*
X25379800Y-9878400D01*
X25334800Y-9833400D02*
X25424800Y-9833400D01*
X25379800Y-10042400D02*
X25379800Y-10132400D01*
X25334800Y-10087400D02*
X25424800Y-10087400D01*
X26141800Y-2422400D02*
X26141800Y-2512400D01*
X26096800Y-2467400D02*
X26186800Y-2467400D01*
X26141800Y-2676400D02*
X26141800Y-2766400D01*
X26096800Y-2721400D02*
X26186800Y-2721400D01*
X26141800Y-6105400D02*
X26141800Y-6195400D01*
X26096800Y-6150400D02*
X26186800Y-6150400D01*
X26141800Y-6359400D02*
X26141800Y-6449400D01*
X26096800Y-6404400D02*
X26186800Y-6404400D01*
X26141800Y-9788400D02*
X26141800Y-9878400D01*
X26096800Y-9833400D02*
X26186800Y-9833400D01*
X26141800Y-10042400D02*
X26141800Y-10132400D01*
X26096800Y-10087400D02*
X26186800Y-10087400D01*
X26776800Y-3311400D02*
X26776800Y-3401400D01*
X26731800Y-3356400D02*
X26821800Y-3356400D01*
X26776800Y-4073400D02*
X26776800Y-4163400D01*
X26731800Y-4118400D02*
X26821800Y-4118400D01*
X26776800Y-4835400D02*
X26776800Y-4925400D01*
X26731800Y-4880400D02*
X26821800Y-4880400D01*
X26776800Y-5597400D02*
X26776800Y-5687400D01*
X26731800Y-5642400D02*
X26821800Y-5642400D01*
X26776800Y-6867400D02*
X26776800Y-6957400D01*
X26731800Y-6912400D02*
X26821800Y-6912400D01*
X26776800Y-7629400D02*
X26776800Y-7719400D01*
X26731800Y-7674400D02*
X26821800Y-7674400D01*
X26776800Y-8391400D02*
X26776800Y-8481400D01*
X26731800Y-8436400D02*
X26821800Y-8436400D01*
X26776800Y-9153400D02*
X26776800Y-9243400D01*
X26731800Y-9198400D02*
X26821800Y-9198400D01*
X27030800Y-3311400D02*
X27030800Y-3401400D01*
X26985800Y-3356400D02*
X27075800Y-3356400D01*
X27030800Y-4073400D02*
X27030800Y-4163400D01*
X26985800Y-4118400D02*
X27075800Y-4118400D01*
X27030800Y-4835400D02*
X27030800Y-4925400D01*
X26985800Y-4880400D02*
X27075800Y-4880400D01*
X27030800Y-5597400D02*
X27030800Y-5687400D01*
X26985800Y-5642400D02*
X27075800Y-5642400D01*
X27030800Y-6867400D02*
X27030800Y-6957400D01*
X26985800Y-6912400D02*
X27075800Y-6912400D01*
X27030800Y-7629400D02*
X27030800Y-7719400D01*
X26985800Y-7674400D02*
X27075800Y-7674400D01*
X27030800Y-8391400D02*
X27030800Y-8481400D01*
X26985800Y-8436400D02*
X27075800Y-8436400D01*
X27030800Y-9153400D02*
X27030800Y-9243400D01*
X26985800Y-9198400D02*
X27075800Y-9198400D01*
D15*
X2689738Y-2856988D02*
X2689738Y-2789812D01*
X2622562Y-2789812D01*
X2622562Y-2856988D01*
X2689738Y-2856988D01*
X2689738Y-3106988D02*
X2689738Y-3039812D01*
X2622562Y-3039812D01*
X2622562Y-3106988D01*
X2689738Y-3106988D01*
X2889738Y-2856988D02*
X2889738Y-2789812D01*
X2822562Y-2789812D01*
X2822562Y-2856988D01*
X2889738Y-2856988D01*
X2889738Y-3106988D02*
X2889738Y-3039812D01*
X2822562Y-3039812D01*
X2822562Y-3106988D01*
X2889738Y-3106988D01*
X4966188Y-2323188D02*
X4966188Y-2256012D01*
X4899012Y-2256012D01*
X4899012Y-2323188D01*
X4966188Y-2323188D01*
X5216188Y-2323188D02*
X5216188Y-2256012D01*
X5149012Y-2256012D01*
X5149012Y-2323188D01*
X5216188Y-2323188D01*
X5466188Y-2323188D02*
X5466188Y-2256012D01*
X5399012Y-2256012D01*
X5399012Y-2323188D01*
X5466188Y-2323188D01*
X5716188Y-2323188D02*
X5716188Y-2256012D01*
X5649012Y-2256012D01*
X5649012Y-2323188D01*
X5716188Y-2323188D01*
X5966188Y-2323188D02*
X5966188Y-2256012D01*
X5899012Y-2256012D01*
X5899012Y-2323188D01*
X5966188Y-2323188D01*
D16*
X3447400Y-4118600D02*
X3498400Y-4067600D01*
X3447400Y-4016600D01*
X3396400Y-4067600D01*
X3447400Y-4118600D01*
X3447400Y-4372600D02*
X3498400Y-4321600D01*
X3447400Y-4270600D01*
X3396400Y-4321600D01*
X3447400Y-4372600D01*
X3447400Y-4626600D02*
X3498400Y-4575600D01*
X3447400Y-4524600D01*
X3396400Y-4575600D01*
X3447400Y-4626600D01*
X3447400Y-4880600D02*
X3498400Y-4829600D01*
X3447400Y-4778600D01*
X3396400Y-4829600D01*
X3447400Y-4880600D01*
X3447400Y-5134600D02*
X3498400Y-5083600D01*
X3447400Y-5032600D01*
X3396400Y-5083600D01*
X3447400Y-5134600D01*
X3447400Y-5388600D02*
X3498400Y-5337600D01*
X3447400Y-5286600D01*
X3396400Y-5337600D01*
X3447400Y-5388600D01*
X3447400Y-5642600D02*
X3498400Y-5591600D01*
X3447400Y-5540600D01*
X3396400Y-5591600D01*
X3447400Y-5642600D01*
X3447400Y-5896600D02*
X3498400Y-5845600D01*
X3447400Y-5794600D01*
X3396400Y-5845600D01*
X3447400Y-5896600D01*
X3447400Y-6150600D02*
X3498400Y-6099600D01*
X3447400Y-6048600D01*
X3396400Y-6099600D01*
X3447400Y-6150600D01*
X3447400Y-6404600D02*
X3498400Y-6353600D01*
X3447400Y-6302600D01*
X3396400Y-6353600D01*
X3447400Y-6404600D01*
X3447400Y-6658600D02*
X3498400Y-6607600D01*
X3447400Y-6556600D01*
X3396400Y-6607600D01*
X3447400Y-6658600D01*
X3447400Y-6912600D02*
X3498400Y-6861600D01*
X3447400Y-6810600D01*
X3396400Y-6861600D01*
X3447400Y-6912600D01*
X3447400Y-7166600D02*
X3498400Y-7115600D01*
X3447400Y-7064600D01*
X3396400Y-7115600D01*
X3447400Y-7166600D01*
X3447400Y-7420600D02*
X3498400Y-7369600D01*
X3447400Y-7318600D01*
X3396400Y-7369600D01*
X3447400Y-7420600D01*
X3447400Y-7674600D02*
X3498400Y-7623600D01*
X3447400Y-7572600D01*
X3396400Y-7623600D01*
X3447400Y-7674600D01*
X3447400Y-7928600D02*
X3498400Y-7877600D01*
X3447400Y-7826600D01*
X3396400Y-7877600D01*
X3447400Y-7928600D01*
X3447400Y-8182600D02*
X3498400Y-8131600D01*
X3447400Y-8080600D01*
X3396400Y-8131600D01*
X3447400Y-8182600D01*
X3447400Y-8436600D02*
X3498400Y-8385600D01*
X3447400Y-8334600D01*
X3396400Y-8385600D01*
X3447400Y-8436600D01*
X3447400Y-8690600D02*
X3498400Y-8639600D01*
X3447400Y-8588600D01*
X3396400Y-8639600D01*
X3447400Y-8690600D01*
X3447400Y-8944600D02*
X3498400Y-8893600D01*
X3447400Y-8842600D01*
X3396400Y-8893600D01*
X3447400Y-8944600D01*
X4082400Y-8921600D02*
X4133400Y-8870600D01*
X4082400Y-8819600D01*
X4031400Y-8870600D01*
X4082400Y-8921600D01*
X4336400Y-8921600D02*
X4387400Y-8870600D01*
X4336400Y-8819600D01*
X4285400Y-8870600D01*
X4336400Y-8921600D01*
X4590400Y-8921600D02*
X4641400Y-8870600D01*
X4590400Y-8819600D01*
X4539400Y-8870600D01*
X4590400Y-8921600D01*
X5225400Y-4118600D02*
X5276400Y-4067600D01*
X5225400Y-4016600D01*
X5174400Y-4067600D01*
X5225400Y-4118600D01*
X5225400Y-4372600D02*
X5276400Y-4321600D01*
X5225400Y-4270600D01*
X5174400Y-4321600D01*
X5225400Y-4372600D01*
X5225400Y-4626600D02*
X5276400Y-4575600D01*
X5225400Y-4524600D01*
X5174400Y-4575600D01*
X5225400Y-4626600D01*
X5225400Y-4880600D02*
X5276400Y-4829600D01*
X5225400Y-4778600D01*
X5174400Y-4829600D01*
X5225400Y-4880600D01*
X5225400Y-5134600D02*
X5276400Y-5083600D01*
X5225400Y-5032600D01*
X5174400Y-5083600D01*
X5225400Y-5134600D01*
X5225400Y-5388600D02*
X5276400Y-5337600D01*
X5225400Y-5286600D01*
X5174400Y-5337600D01*
X5225400Y-5388600D01*
X5225400Y-5642600D02*
X5276400Y-5591600D01*
X5225400Y-5540600D01*
X5174400Y-5591600D01*
X5225400Y-5642600D01*
X5225400Y-5896600D02*
X5276400Y-5845600D01*
X5225400Y-5794600D01*
X5174400Y-5845600D01*
X5225400Y-5896600D01*
X5225400Y-6150600D02*
X5276400Y-6099600D01*
X5225400Y-6048600D01*
X5174400Y-6099600D01*
X5225400Y-6150600D01*
X5225400Y-6404600D02*
X5276400Y-6353600D01*
X5225400Y-6302600D01*
X5174400Y-6353600D01*
X5225400Y-6404600D01*
X5225400Y-6658600D02*
X5276400Y-6607600D01*
X5225400Y-6556600D01*
X5174400Y-6607600D01*
X5225400Y-6658600D01*
X5225400Y-6912600D02*
X5276400Y-6861600D01*
X5225400Y-6810600D01*
X5174400Y-6861600D01*
X5225400Y-6912600D01*
X5225400Y-7166600D02*
X5276400Y-7115600D01*
X5225400Y-7064600D01*
X5174400Y-7115600D01*
X5225400Y-7166600D01*
X5225400Y-7420600D02*
X5276400Y-7369600D01*
X5225400Y-7318600D01*
X5174400Y-7369600D01*
X5225400Y-7420600D01*
X5225400Y-7674600D02*
X5276400Y-7623600D01*
X5225400Y-7572600D01*
X5174400Y-7623600D01*
X5225400Y-7674600D01*
X5225400Y-7928600D02*
X5276400Y-7877600D01*
X5225400Y-7826600D01*
X5174400Y-7877600D01*
X5225400Y-7928600D01*
X5225400Y-8182600D02*
X5276400Y-8131600D01*
X5225400Y-8080600D01*
X5174400Y-8131600D01*
X5225400Y-8182600D01*
X5225400Y-8436600D02*
X5276400Y-8385600D01*
X5225400Y-8334600D01*
X5174400Y-8385600D01*
X5225400Y-8436600D01*
X5225400Y-8690600D02*
X5276400Y-8639600D01*
X5225400Y-8588600D01*
X5174400Y-8639600D01*
X5225400Y-8690600D01*
X5225400Y-8944600D02*
X5276400Y-8893600D01*
X5225400Y-8842600D01*
X5174400Y-8893600D01*
X5225400Y-8944600D01*
D17*
X16885000Y-11077400D02*
X16995000Y-11187400D01*
X16995000Y-11077400D02*
X16885000Y-11187400D01*
X16995000Y-11132400D02*
G75*
G03*
X16995000Y-11132400I-55000J0D01*
G01*
X16885000Y-11527400D02*
X16995000Y-11637400D01*
X16995000Y-11527400D02*
X16885000Y-11637400D01*
X16995000Y-11582400D02*
G75*
G03*
X16995000Y-11582400I-55000J0D01*
G01*
X17535000Y-11077400D02*
X17645000Y-11187400D01*
X17645000Y-11077400D02*
X17535000Y-11187400D01*
X17645000Y-11132400D02*
G75*
G03*
X17645000Y-11132400I-55000J0D01*
G01*
X17535000Y-11527400D02*
X17645000Y-11637400D01*
X17645000Y-11527400D02*
X17535000Y-11637400D01*
X17645000Y-11582400D02*
G75*
G03*
X17645000Y-11582400I-55000J0D01*
G01*
X18014800Y-11077400D02*
X18124800Y-11187400D01*
X18124800Y-11077400D02*
X18014800Y-11187400D01*
X18124800Y-11132400D02*
G75*
G03*
X18124800Y-11132400I-55000J0D01*
G01*
X18014800Y-11527400D02*
X18124800Y-11637400D01*
X18124800Y-11527400D02*
X18014800Y-11637400D01*
X18124800Y-11582400D02*
G75*
G03*
X18124800Y-11582400I-55000J0D01*
G01*
X18664800Y-11077400D02*
X18774800Y-11187400D01*
X18774800Y-11077400D02*
X18664800Y-11187400D01*
X18774800Y-11132400D02*
G75*
G03*
X18774800Y-11132400I-55000J0D01*
G01*
X18664800Y-11527400D02*
X18774800Y-11637400D01*
X18774800Y-11527400D02*
X18664800Y-11637400D01*
X18774800Y-11582400D02*
G75*
G03*
X18774800Y-11582400I-55000J0D01*
G01*
X19157800Y-11077400D02*
X19267800Y-11187400D01*
X19267800Y-11077400D02*
X19157800Y-11187400D01*
X19267800Y-11132400D02*
G75*
G03*
X19267800Y-11132400I-55000J0D01*
G01*
X19157800Y-11527400D02*
X19267800Y-11637400D01*
X19267800Y-11527400D02*
X19157800Y-11637400D01*
X19267800Y-11582400D02*
G75*
G03*
X19267800Y-11582400I-55000J0D01*
G01*
X19807800Y-11077400D02*
X19917800Y-11187400D01*
X19917800Y-11077400D02*
X19807800Y-11187400D01*
X19917800Y-11132400D02*
G75*
G03*
X19917800Y-11132400I-55000J0D01*
G01*
X19807800Y-11527400D02*
X19917800Y-11637400D01*
X19917800Y-11527400D02*
X19807800Y-11637400D01*
X19917800Y-11582400D02*
G75*
G03*
X19917800Y-11582400I-55000J0D01*
G01*
X20300800Y-11077400D02*
X20410800Y-11187400D01*
X20410800Y-11077400D02*
X20300800Y-11187400D01*
X20410800Y-11132400D02*
G75*
G03*
X20410800Y-11132400I-55000J0D01*
G01*
X20300800Y-11527400D02*
X20410800Y-11637400D01*
X20410800Y-11527400D02*
X20300800Y-11637400D01*
X20410800Y-11582400D02*
G75*
G03*
X20410800Y-11582400I-55000J0D01*
G01*
X20950800Y-11077400D02*
X21060800Y-11187400D01*
X21060800Y-11077400D02*
X20950800Y-11187400D01*
X21060800Y-11132400D02*
G75*
G03*
X21060800Y-11132400I-55000J0D01*
G01*
X20950800Y-11527400D02*
X21060800Y-11637400D01*
X21060800Y-11527400D02*
X20950800Y-11637400D01*
X21060800Y-11582400D02*
G75*
G03*
X21060800Y-11582400I-55000J0D01*
G01*
D18*
X2255150Y-2233400D02*
X2485150Y-2463400D01*
X2485150Y-2233400D02*
X2255150Y-2463400D01*
X2370150Y-2233400D02*
X2370150Y-2463400D01*
X2255150Y-2348400D02*
X2485150Y-2348400D01*
X2255150Y-3433400D02*
X2485150Y-3663400D01*
X2485150Y-3433400D02*
X2255150Y-3663400D01*
X2370150Y-3433400D02*
X2370150Y-3663400D01*
X2255150Y-3548400D02*
X2485150Y-3548400D01*
D11*
X1471819Y-12532876D02*
X1471819Y-12332876D01*
X1519438Y-12332876D01*
X1548009Y-12342400D01*
X1567057Y-12361448D01*
X1576581Y-12380495D01*
X1586105Y-12418590D01*
X1586105Y-12447162D01*
X1576581Y-12485257D01*
X1567057Y-12504305D01*
X1548009Y-12523352D01*
X1519438Y-12532876D01*
X1471819Y-12532876D01*
X1671819Y-12532876D02*
X1671819Y-12399543D01*
X1671819Y-12437638D02*
X1681343Y-12418590D01*
X1690867Y-12409067D01*
X1709914Y-12399543D01*
X1728962Y-12399543D01*
X1795628Y-12532876D02*
X1795628Y-12399543D01*
X1795628Y-12332876D02*
X1786105Y-12342400D01*
X1795628Y-12351924D01*
X1805152Y-12342400D01*
X1795628Y-12332876D01*
X1795628Y-12351924D01*
X1919438Y-12532876D02*
X1900390Y-12523352D01*
X1890867Y-12504305D01*
X1890867Y-12332876D01*
X2024200Y-12532876D02*
X2005152Y-12523352D01*
X1995628Y-12504305D01*
X1995628Y-12332876D01*
X2252771Y-12532876D02*
X2252771Y-12332876D01*
X2319438Y-12475733D01*
X2386105Y-12332876D01*
X2386105Y-12532876D01*
X2567057Y-12532876D02*
X2567057Y-12428114D01*
X2557533Y-12409067D01*
X2538486Y-12399543D01*
X2500390Y-12399543D01*
X2481343Y-12409067D01*
X2567057Y-12523352D02*
X2548010Y-12532876D01*
X2500390Y-12532876D01*
X2481343Y-12523352D01*
X2471819Y-12504305D01*
X2471819Y-12485257D01*
X2481343Y-12466209D01*
X2500390Y-12456686D01*
X2548010Y-12456686D01*
X2567057Y-12447162D01*
X2662295Y-12399543D02*
X2662295Y-12599543D01*
X2662295Y-12409067D02*
X2681343Y-12399543D01*
X2719438Y-12399543D01*
X2738486Y-12409067D01*
X2748010Y-12418590D01*
X2757533Y-12437638D01*
X2757533Y-12494781D01*
X2748010Y-12513828D01*
X2738486Y-12523352D01*
X2719438Y-12532876D01*
X2681343Y-12532876D01*
X2662295Y-12523352D01*
X2843248Y-12513828D02*
X2852771Y-12523352D01*
X2843248Y-12532876D01*
X2833724Y-12523352D01*
X2843248Y-12513828D01*
X2843248Y-12532876D01*
X2843248Y-12409067D02*
X2852771Y-12418590D01*
X2843248Y-12428114D01*
X2833724Y-12418590D01*
X2843248Y-12409067D01*
X2843248Y-12428114D01*
D12*
X1174200Y-12842400D02*
X1214200Y-12882400D01*
X1214200Y-12842400D02*
X1174200Y-12882400D01*
D11*
X1509914Y-12752876D02*
X1528962Y-12752876D01*
X1548009Y-12762400D01*
X1557533Y-12771924D01*
X1567057Y-12790971D01*
X1576581Y-12829067D01*
X1576581Y-12876686D01*
X1567057Y-12914781D01*
X1557533Y-12933828D01*
X1548009Y-12943352D01*
X1528962Y-12952876D01*
X1509914Y-12952876D01*
X1490867Y-12943352D01*
X1481343Y-12933828D01*
X1471819Y-12914781D01*
X1462295Y-12876686D01*
X1462295Y-12829067D01*
X1471819Y-12790971D01*
X1481343Y-12771924D01*
X1490867Y-12762400D01*
X1509914Y-12752876D01*
X1662295Y-12933828D02*
X1671819Y-12943352D01*
X1662295Y-12952876D01*
X1652771Y-12943352D01*
X1662295Y-12933828D01*
X1662295Y-12952876D01*
X1843248Y-12819543D02*
X1843248Y-12952876D01*
X1795628Y-12743352D02*
X1748009Y-12886209D01*
X1871819Y-12886209D01*
X1986105Y-12752876D02*
X2005152Y-12752876D01*
X2024200Y-12762400D01*
X2033724Y-12771924D01*
X2043248Y-12790971D01*
X2052771Y-12829067D01*
X2052771Y-12876686D01*
X2043248Y-12914781D01*
X2033724Y-12933828D01*
X2024200Y-12943352D01*
X2005152Y-12952876D01*
X1986105Y-12952876D01*
X1967057Y-12943352D01*
X1957533Y-12933828D01*
X1948009Y-12914781D01*
X1938486Y-12876686D01*
X1938486Y-12829067D01*
X1948009Y-12790971D01*
X1957533Y-12771924D01*
X1967057Y-12762400D01*
X1986105Y-12752876D01*
X2176581Y-12752876D02*
X2195629Y-12752876D01*
X2214676Y-12762400D01*
X2224200Y-12771924D01*
X2233724Y-12790971D01*
X2243248Y-12829067D01*
X2243248Y-12876686D01*
X2233724Y-12914781D01*
X2224200Y-12933828D01*
X2214676Y-12943352D01*
X2195629Y-12952876D01*
X2176581Y-12952876D01*
X2157533Y-12943352D01*
X2148010Y-12933828D01*
X2138486Y-12914781D01*
X2128962Y-12876686D01*
X2128962Y-12829067D01*
X2138486Y-12790971D01*
X2148010Y-12771924D01*
X2157533Y-12762400D01*
X2176581Y-12752876D01*
X2328962Y-12952876D02*
X2328962Y-12819543D01*
X2328962Y-12838590D02*
X2338486Y-12829067D01*
X2357533Y-12819543D01*
X2386105Y-12819543D01*
X2405152Y-12829067D01*
X2414676Y-12848114D01*
X2414676Y-12952876D01*
X2414676Y-12848114D02*
X2424200Y-12829067D01*
X2443248Y-12819543D01*
X2471819Y-12819543D01*
X2490867Y-12829067D01*
X2500390Y-12848114D01*
X2500390Y-12952876D01*
X2595629Y-12952876D02*
X2595629Y-12819543D01*
X2595629Y-12838590D02*
X2605152Y-12829067D01*
X2624200Y-12819543D01*
X2652771Y-12819543D01*
X2671819Y-12829067D01*
X2681343Y-12848114D01*
X2681343Y-12952876D01*
X2681343Y-12848114D02*
X2690867Y-12829067D01*
X2709914Y-12819543D01*
X2738486Y-12819543D01*
X2757533Y-12829067D01*
X2767057Y-12848114D01*
X2767057Y-12952876D01*
X3157533Y-12743352D02*
X2986105Y-13000495D01*
X3414676Y-12752876D02*
X3433724Y-12752876D01*
X3452771Y-12762400D01*
X3462295Y-12771924D01*
X3471819Y-12790971D01*
X3481343Y-12829067D01*
X3481343Y-12876686D01*
X3471819Y-12914781D01*
X3462295Y-12933828D01*
X3452771Y-12943352D01*
X3433724Y-12952876D01*
X3414676Y-12952876D01*
X3395628Y-12943352D01*
X3386105Y-12933828D01*
X3376581Y-12914781D01*
X3367057Y-12876686D01*
X3367057Y-12829067D01*
X3376581Y-12790971D01*
X3386105Y-12771924D01*
X3395628Y-12762400D01*
X3414676Y-12752876D01*
X3567057Y-12933828D02*
X3576581Y-12943352D01*
X3567057Y-12952876D01*
X3557533Y-12943352D01*
X3567057Y-12933828D01*
X3567057Y-12952876D01*
X3700390Y-12752876D02*
X3719438Y-12752876D01*
X3738486Y-12762400D01*
X3748009Y-12771924D01*
X3757533Y-12790971D01*
X3767057Y-12829067D01*
X3767057Y-12876686D01*
X3757533Y-12914781D01*
X3748009Y-12933828D01*
X3738486Y-12943352D01*
X3719438Y-12952876D01*
X3700390Y-12952876D01*
X3681343Y-12943352D01*
X3671819Y-12933828D01*
X3662295Y-12914781D01*
X3652771Y-12876686D01*
X3652771Y-12829067D01*
X3662295Y-12790971D01*
X3671819Y-12771924D01*
X3681343Y-12762400D01*
X3700390Y-12752876D01*
X3957533Y-12952876D02*
X3843248Y-12952876D01*
X3900390Y-12952876D02*
X3900390Y-12752876D01*
X3881343Y-12781448D01*
X3862295Y-12800495D01*
X3843248Y-12810019D01*
X4138486Y-12752876D02*
X4043248Y-12752876D01*
X4033724Y-12848114D01*
X4043248Y-12838590D01*
X4062295Y-12829067D01*
X4109914Y-12829067D01*
X4128962Y-12838590D01*
X4138486Y-12848114D01*
X4148009Y-12867162D01*
X4148009Y-12914781D01*
X4138486Y-12933828D01*
X4128962Y-12943352D01*
X4109914Y-12952876D01*
X4062295Y-12952876D01*
X4043248Y-12943352D01*
X4033724Y-12933828D01*
X4214676Y-12752876D02*
X4348010Y-12752876D01*
X4262295Y-12952876D01*
X4414676Y-12752876D02*
X4414676Y-12790971D01*
X4490867Y-12752876D02*
X4490867Y-12790971D01*
X4786105Y-13029067D02*
X4776581Y-13019543D01*
X4757533Y-12990971D01*
X4748010Y-12971924D01*
X4738486Y-12943352D01*
X4728962Y-12895733D01*
X4728962Y-12857638D01*
X4738486Y-12810019D01*
X4748010Y-12781448D01*
X4757533Y-12762400D01*
X4776581Y-12733828D01*
X4786105Y-12724305D01*
X4967057Y-12952876D02*
X4852771Y-12952876D01*
X4909914Y-12952876D02*
X4909914Y-12752876D01*
X4890867Y-12781448D01*
X4871819Y-12800495D01*
X4852771Y-12810019D01*
X5043248Y-12771924D02*
X5052771Y-12762400D01*
X5071819Y-12752876D01*
X5119438Y-12752876D01*
X5138486Y-12762400D01*
X5148010Y-12771924D01*
X5157533Y-12790971D01*
X5157533Y-12810019D01*
X5148010Y-12838590D01*
X5033724Y-12952876D01*
X5157533Y-12952876D01*
X5395629Y-12952876D02*
X5395629Y-12752876D01*
X5481343Y-12952876D02*
X5481343Y-12848114D01*
X5471819Y-12829067D01*
X5452771Y-12819543D01*
X5424200Y-12819543D01*
X5405152Y-12829067D01*
X5395629Y-12838590D01*
X5605152Y-12952876D02*
X5586105Y-12943352D01*
X5576581Y-12933828D01*
X5567057Y-12914781D01*
X5567057Y-12857638D01*
X5576581Y-12838590D01*
X5586105Y-12829067D01*
X5605152Y-12819543D01*
X5633724Y-12819543D01*
X5652771Y-12829067D01*
X5662295Y-12838590D01*
X5671819Y-12857638D01*
X5671819Y-12914781D01*
X5662295Y-12933828D01*
X5652771Y-12943352D01*
X5633724Y-12952876D01*
X5605152Y-12952876D01*
X5786105Y-12952876D02*
X5767057Y-12943352D01*
X5757533Y-12924305D01*
X5757533Y-12752876D01*
X5938486Y-12943352D02*
X5919438Y-12952876D01*
X5881343Y-12952876D01*
X5862295Y-12943352D01*
X5852771Y-12924305D01*
X5852771Y-12848114D01*
X5862295Y-12829067D01*
X5881343Y-12819543D01*
X5919438Y-12819543D01*
X5938486Y-12829067D01*
X5948009Y-12848114D01*
X5948009Y-12867162D01*
X5852771Y-12886209D01*
X6024200Y-12943352D02*
X6043248Y-12952876D01*
X6081343Y-12952876D01*
X6100390Y-12943352D01*
X6109914Y-12924305D01*
X6109914Y-12914781D01*
X6100390Y-12895733D01*
X6081343Y-12886209D01*
X6052771Y-12886209D01*
X6033724Y-12876686D01*
X6024200Y-12857638D01*
X6024200Y-12848114D01*
X6033724Y-12829067D01*
X6052771Y-12819543D01*
X6081343Y-12819543D01*
X6100390Y-12829067D01*
X6176581Y-13029067D02*
X6186105Y-13019543D01*
X6205152Y-12990971D01*
X6214676Y-12971924D01*
X6224200Y-12943352D01*
X6233724Y-12895733D01*
X6233724Y-12857638D01*
X6224200Y-12810019D01*
X6214676Y-12781448D01*
X6205152Y-12762400D01*
X6186105Y-12733828D01*
X6176581Y-12724305D01*
D13*
X1214200Y-13126400D02*
G75*
G03*
X1214200Y-13126400I-30000J0D01*
G01*
D11*
X1509914Y-13016876D02*
X1528962Y-13016876D01*
X1548009Y-13026400D01*
X1557533Y-13035924D01*
X1567057Y-13054971D01*
X1576581Y-13093067D01*
X1576581Y-13140686D01*
X1567057Y-13178781D01*
X1557533Y-13197828D01*
X1548009Y-13207352D01*
X1528962Y-13216876D01*
X1509914Y-13216876D01*
X1490867Y-13207352D01*
X1481343Y-13197828D01*
X1471819Y-13178781D01*
X1462295Y-13140686D01*
X1462295Y-13093067D01*
X1471819Y-13054971D01*
X1481343Y-13035924D01*
X1490867Y-13026400D01*
X1509914Y-13016876D01*
X1662295Y-13197828D02*
X1671819Y-13207352D01*
X1662295Y-13216876D01*
X1652771Y-13207352D01*
X1662295Y-13197828D01*
X1662295Y-13216876D01*
X1843248Y-13016876D02*
X1805152Y-13016876D01*
X1786105Y-13026400D01*
X1776581Y-13035924D01*
X1757533Y-13064495D01*
X1748009Y-13102590D01*
X1748009Y-13178781D01*
X1757533Y-13197828D01*
X1767057Y-13207352D01*
X1786105Y-13216876D01*
X1824200Y-13216876D01*
X1843248Y-13207352D01*
X1852771Y-13197828D01*
X1862295Y-13178781D01*
X1862295Y-13131162D01*
X1852771Y-13112114D01*
X1843248Y-13102590D01*
X1824200Y-13093067D01*
X1786105Y-13093067D01*
X1767057Y-13102590D01*
X1757533Y-13112114D01*
X1748009Y-13131162D01*
X1986105Y-13016876D02*
X2005152Y-13016876D01*
X2024200Y-13026400D01*
X2033724Y-13035924D01*
X2043248Y-13054971D01*
X2052771Y-13093067D01*
X2052771Y-13140686D01*
X2043248Y-13178781D01*
X2033724Y-13197828D01*
X2024200Y-13207352D01*
X2005152Y-13216876D01*
X1986105Y-13216876D01*
X1967057Y-13207352D01*
X1957533Y-13197828D01*
X1948009Y-13178781D01*
X1938486Y-13140686D01*
X1938486Y-13093067D01*
X1948009Y-13054971D01*
X1957533Y-13035924D01*
X1967057Y-13026400D01*
X1986105Y-13016876D01*
X2176581Y-13016876D02*
X2195629Y-13016876D01*
X2214676Y-13026400D01*
X2224200Y-13035924D01*
X2233724Y-13054971D01*
X2243248Y-13093067D01*
X2243248Y-13140686D01*
X2233724Y-13178781D01*
X2224200Y-13197828D01*
X2214676Y-13207352D01*
X2195629Y-13216876D01*
X2176581Y-13216876D01*
X2157533Y-13207352D01*
X2148010Y-13197828D01*
X2138486Y-13178781D01*
X2128962Y-13140686D01*
X2128962Y-13093067D01*
X2138486Y-13054971D01*
X2148010Y-13035924D01*
X2157533Y-13026400D01*
X2176581Y-13016876D01*
X2328962Y-13216876D02*
X2328962Y-13083543D01*
X2328962Y-13102590D02*
X2338486Y-13093067D01*
X2357533Y-13083543D01*
X2386105Y-13083543D01*
X2405152Y-13093067D01*
X2414676Y-13112114D01*
X2414676Y-13216876D01*
X2414676Y-13112114D02*
X2424200Y-13093067D01*
X2443248Y-13083543D01*
X2471819Y-13083543D01*
X2490867Y-13093067D01*
X2500390Y-13112114D01*
X2500390Y-13216876D01*
X2595629Y-13216876D02*
X2595629Y-13083543D01*
X2595629Y-13102590D02*
X2605152Y-13093067D01*
X2624200Y-13083543D01*
X2652771Y-13083543D01*
X2671819Y-13093067D01*
X2681343Y-13112114D01*
X2681343Y-13216876D01*
X2681343Y-13112114D02*
X2690867Y-13093067D01*
X2709914Y-13083543D01*
X2738486Y-13083543D01*
X2757533Y-13093067D01*
X2767057Y-13112114D01*
X2767057Y-13216876D01*
X3157533Y-13007352D02*
X2986105Y-13264495D01*
X3414676Y-13016876D02*
X3433724Y-13016876D01*
X3452771Y-13026400D01*
X3462295Y-13035924D01*
X3471819Y-13054971D01*
X3481343Y-13093067D01*
X3481343Y-13140686D01*
X3471819Y-13178781D01*
X3462295Y-13197828D01*
X3452771Y-13207352D01*
X3433724Y-13216876D01*
X3414676Y-13216876D01*
X3395628Y-13207352D01*
X3386105Y-13197828D01*
X3376581Y-13178781D01*
X3367057Y-13140686D01*
X3367057Y-13093067D01*
X3376581Y-13054971D01*
X3386105Y-13035924D01*
X3395628Y-13026400D01*
X3414676Y-13016876D01*
X3567057Y-13197828D02*
X3576581Y-13207352D01*
X3567057Y-13216876D01*
X3557533Y-13207352D01*
X3567057Y-13197828D01*
X3567057Y-13216876D01*
X3700390Y-13016876D02*
X3719438Y-13016876D01*
X3738486Y-13026400D01*
X3748009Y-13035924D01*
X3757533Y-13054971D01*
X3767057Y-13093067D01*
X3767057Y-13140686D01*
X3757533Y-13178781D01*
X3748009Y-13197828D01*
X3738486Y-13207352D01*
X3719438Y-13216876D01*
X3700390Y-13216876D01*
X3681343Y-13207352D01*
X3671819Y-13197828D01*
X3662295Y-13178781D01*
X3652771Y-13140686D01*
X3652771Y-13093067D01*
X3662295Y-13054971D01*
X3671819Y-13035924D01*
X3681343Y-13026400D01*
X3700390Y-13016876D01*
X3843248Y-13035924D02*
X3852771Y-13026400D01*
X3871819Y-13016876D01*
X3919438Y-13016876D01*
X3938486Y-13026400D01*
X3948009Y-13035924D01*
X3957533Y-13054971D01*
X3957533Y-13074019D01*
X3948009Y-13102590D01*
X3833724Y-13216876D01*
X3957533Y-13216876D01*
X4024200Y-13016876D02*
X4148009Y-13016876D01*
X4081343Y-13093067D01*
X4109914Y-13093067D01*
X4128962Y-13102590D01*
X4138486Y-13112114D01*
X4148009Y-13131162D01*
X4148009Y-13178781D01*
X4138486Y-13197828D01*
X4128962Y-13207352D01*
X4109914Y-13216876D01*
X4052771Y-13216876D01*
X4033724Y-13207352D01*
X4024200Y-13197828D01*
X4319438Y-13016876D02*
X4281343Y-13016876D01*
X4262295Y-13026400D01*
X4252771Y-13035924D01*
X4233724Y-13064495D01*
X4224200Y-13102590D01*
X4224200Y-13178781D01*
X4233724Y-13197828D01*
X4243248Y-13207352D01*
X4262295Y-13216876D01*
X4300390Y-13216876D01*
X4319438Y-13207352D01*
X4328962Y-13197828D01*
X4338486Y-13178781D01*
X4338486Y-13131162D01*
X4328962Y-13112114D01*
X4319438Y-13102590D01*
X4300390Y-13093067D01*
X4262295Y-13093067D01*
X4243248Y-13102590D01*
X4233724Y-13112114D01*
X4224200Y-13131162D01*
X4414676Y-13016876D02*
X4414676Y-13054971D01*
X4490867Y-13016876D02*
X4490867Y-13054971D01*
X4786105Y-13293067D02*
X4776581Y-13283543D01*
X4757533Y-13254971D01*
X4748010Y-13235924D01*
X4738486Y-13207352D01*
X4728962Y-13159733D01*
X4728962Y-13121638D01*
X4738486Y-13074019D01*
X4748010Y-13045448D01*
X4757533Y-13026400D01*
X4776581Y-12997828D01*
X4786105Y-12988305D01*
X4852771Y-13035924D02*
X4862295Y-13026400D01*
X4881343Y-13016876D01*
X4928962Y-13016876D01*
X4948010Y-13026400D01*
X4957533Y-13035924D01*
X4967057Y-13054971D01*
X4967057Y-13074019D01*
X4957533Y-13102590D01*
X4843248Y-13216876D01*
X4967057Y-13216876D01*
X5205152Y-13216876D02*
X5205152Y-13016876D01*
X5290867Y-13216876D02*
X5290867Y-13112114D01*
X5281343Y-13093067D01*
X5262295Y-13083543D01*
X5233724Y-13083543D01*
X5214676Y-13093067D01*
X5205152Y-13102590D01*
X5414676Y-13216876D02*
X5395629Y-13207352D01*
X5386105Y-13197828D01*
X5376581Y-13178781D01*
X5376581Y-13121638D01*
X5386105Y-13102590D01*
X5395629Y-13093067D01*
X5414676Y-13083543D01*
X5443248Y-13083543D01*
X5462295Y-13093067D01*
X5471819Y-13102590D01*
X5481343Y-13121638D01*
X5481343Y-13178781D01*
X5471819Y-13197828D01*
X5462295Y-13207352D01*
X5443248Y-13216876D01*
X5414676Y-13216876D01*
X5595628Y-13216876D02*
X5576581Y-13207352D01*
X5567057Y-13188305D01*
X5567057Y-13016876D01*
X5748009Y-13207352D02*
X5728962Y-13216876D01*
X5690867Y-13216876D01*
X5671819Y-13207352D01*
X5662295Y-13188305D01*
X5662295Y-13112114D01*
X5671819Y-13093067D01*
X5690867Y-13083543D01*
X5728962Y-13083543D01*
X5748009Y-13093067D01*
X5757533Y-13112114D01*
X5757533Y-13131162D01*
X5662295Y-13150209D01*
X5833724Y-13207352D02*
X5852771Y-13216876D01*
X5890867Y-13216876D01*
X5909914Y-13207352D01*
X5919438Y-13188305D01*
X5919438Y-13178781D01*
X5909914Y-13159733D01*
X5890867Y-13150209D01*
X5862295Y-13150209D01*
X5843248Y-13140686D01*
X5833724Y-13121638D01*
X5833724Y-13112114D01*
X5843248Y-13093067D01*
X5862295Y-13083543D01*
X5890867Y-13083543D01*
X5909914Y-13093067D01*
X5986105Y-13293067D02*
X5995628Y-13283543D01*
X6014676Y-13254971D01*
X6024200Y-13235924D01*
X6033724Y-13207352D01*
X6043248Y-13159733D01*
X6043248Y-13121638D01*
X6033724Y-13074019D01*
X6024200Y-13045448D01*
X6014676Y-13026400D01*
X5995628Y-12997828D01*
X5986105Y-12988305D01*
D14*
X1169200Y-13345400D02*
X1169200Y-13435400D01*
X1124200Y-13390400D02*
X1214200Y-13390400D01*
D11*
X1509914Y-13280876D02*
X1528962Y-13280876D01*
X1548009Y-13290400D01*
X1557533Y-13299924D01*
X1567057Y-13318971D01*
X1576581Y-13357067D01*
X1576581Y-13404686D01*
X1567057Y-13442781D01*
X1557533Y-13461828D01*
X1548009Y-13471352D01*
X1528962Y-13480876D01*
X1509914Y-13480876D01*
X1490867Y-13471352D01*
X1481343Y-13461828D01*
X1471819Y-13442781D01*
X1462295Y-13404686D01*
X1462295Y-13357067D01*
X1471819Y-13318971D01*
X1481343Y-13299924D01*
X1490867Y-13290400D01*
X1509914Y-13280876D01*
X1662295Y-13461828D02*
X1671819Y-13471352D01*
X1662295Y-13480876D01*
X1652771Y-13471352D01*
X1662295Y-13461828D01*
X1662295Y-13480876D01*
X1767057Y-13480876D02*
X1805152Y-13480876D01*
X1824200Y-13471352D01*
X1833724Y-13461828D01*
X1852771Y-13433257D01*
X1862295Y-13395162D01*
X1862295Y-13318971D01*
X1852771Y-13299924D01*
X1843248Y-13290400D01*
X1824200Y-13280876D01*
X1786105Y-13280876D01*
X1767057Y-13290400D01*
X1757533Y-13299924D01*
X1748009Y-13318971D01*
X1748009Y-13366590D01*
X1757533Y-13385638D01*
X1767057Y-13395162D01*
X1786105Y-13404686D01*
X1824200Y-13404686D01*
X1843248Y-13395162D01*
X1852771Y-13385638D01*
X1862295Y-13366590D01*
X1986105Y-13280876D02*
X2005152Y-13280876D01*
X2024200Y-13290400D01*
X2033724Y-13299924D01*
X2043248Y-13318971D01*
X2052771Y-13357067D01*
X2052771Y-13404686D01*
X2043248Y-13442781D01*
X2033724Y-13461828D01*
X2024200Y-13471352D01*
X2005152Y-13480876D01*
X1986105Y-13480876D01*
X1967057Y-13471352D01*
X1957533Y-13461828D01*
X1948009Y-13442781D01*
X1938486Y-13404686D01*
X1938486Y-13357067D01*
X1948009Y-13318971D01*
X1957533Y-13299924D01*
X1967057Y-13290400D01*
X1986105Y-13280876D01*
X2176581Y-13280876D02*
X2195629Y-13280876D01*
X2214676Y-13290400D01*
X2224200Y-13299924D01*
X2233724Y-13318971D01*
X2243248Y-13357067D01*
X2243248Y-13404686D01*
X2233724Y-13442781D01*
X2224200Y-13461828D01*
X2214676Y-13471352D01*
X2195629Y-13480876D01*
X2176581Y-13480876D01*
X2157533Y-13471352D01*
X2148010Y-13461828D01*
X2138486Y-13442781D01*
X2128962Y-13404686D01*
X2128962Y-13357067D01*
X2138486Y-13318971D01*
X2148010Y-13299924D01*
X2157533Y-13290400D01*
X2176581Y-13280876D01*
X2328962Y-13480876D02*
X2328962Y-13347543D01*
X2328962Y-13366590D02*
X2338486Y-13357067D01*
X2357533Y-13347543D01*
X2386105Y-13347543D01*
X2405152Y-13357067D01*
X2414676Y-13376114D01*
X2414676Y-13480876D01*
X2414676Y-13376114D02*
X2424200Y-13357067D01*
X2443248Y-13347543D01*
X2471819Y-13347543D01*
X2490867Y-13357067D01*
X2500390Y-13376114D01*
X2500390Y-13480876D01*
X2595629Y-13480876D02*
X2595629Y-13347543D01*
X2595629Y-13366590D02*
X2605152Y-13357067D01*
X2624200Y-13347543D01*
X2652771Y-13347543D01*
X2671819Y-13357067D01*
X2681343Y-13376114D01*
X2681343Y-13480876D01*
X2681343Y-13376114D02*
X2690867Y-13357067D01*
X2709914Y-13347543D01*
X2738486Y-13347543D01*
X2757533Y-13357067D01*
X2767057Y-13376114D01*
X2767057Y-13480876D01*
X3157533Y-13271352D02*
X2986105Y-13528495D01*
X3414676Y-13280876D02*
X3433724Y-13280876D01*
X3452771Y-13290400D01*
X3462295Y-13299924D01*
X3471819Y-13318971D01*
X3481343Y-13357067D01*
X3481343Y-13404686D01*
X3471819Y-13442781D01*
X3462295Y-13461828D01*
X3452771Y-13471352D01*
X3433724Y-13480876D01*
X3414676Y-13480876D01*
X3395628Y-13471352D01*
X3386105Y-13461828D01*
X3376581Y-13442781D01*
X3367057Y-13404686D01*
X3367057Y-13357067D01*
X3376581Y-13318971D01*
X3386105Y-13299924D01*
X3395628Y-13290400D01*
X3414676Y-13280876D01*
X3567057Y-13461828D02*
X3576581Y-13471352D01*
X3567057Y-13480876D01*
X3557533Y-13471352D01*
X3567057Y-13461828D01*
X3567057Y-13480876D01*
X3700390Y-13280876D02*
X3719438Y-13280876D01*
X3738486Y-13290400D01*
X3748009Y-13299924D01*
X3757533Y-13318971D01*
X3767057Y-13357067D01*
X3767057Y-13404686D01*
X3757533Y-13442781D01*
X3748009Y-13461828D01*
X3738486Y-13471352D01*
X3719438Y-13480876D01*
X3700390Y-13480876D01*
X3681343Y-13471352D01*
X3671819Y-13461828D01*
X3662295Y-13442781D01*
X3652771Y-13404686D01*
X3652771Y-13357067D01*
X3662295Y-13318971D01*
X3671819Y-13299924D01*
X3681343Y-13290400D01*
X3700390Y-13280876D01*
X3833724Y-13280876D02*
X3957533Y-13280876D01*
X3890867Y-13357067D01*
X3919438Y-13357067D01*
X3938486Y-13366590D01*
X3948009Y-13376114D01*
X3957533Y-13395162D01*
X3957533Y-13442781D01*
X3948009Y-13461828D01*
X3938486Y-13471352D01*
X3919438Y-13480876D01*
X3862295Y-13480876D01*
X3843248Y-13471352D01*
X3833724Y-13461828D01*
X4138486Y-13280876D02*
X4043248Y-13280876D01*
X4033724Y-13376114D01*
X4043248Y-13366590D01*
X4062295Y-13357067D01*
X4109914Y-13357067D01*
X4128962Y-13366590D01*
X4138486Y-13376114D01*
X4148009Y-13395162D01*
X4148009Y-13442781D01*
X4138486Y-13461828D01*
X4128962Y-13471352D01*
X4109914Y-13480876D01*
X4062295Y-13480876D01*
X4043248Y-13471352D01*
X4033724Y-13461828D01*
X4319438Y-13347543D02*
X4319438Y-13480876D01*
X4271819Y-13271352D02*
X4224200Y-13414209D01*
X4348010Y-13414209D01*
X4414676Y-13280876D02*
X4414676Y-13318971D01*
X4490867Y-13280876D02*
X4490867Y-13318971D01*
X4786105Y-13557067D02*
X4776581Y-13547543D01*
X4757533Y-13518971D01*
X4748010Y-13499924D01*
X4738486Y-13471352D01*
X4728962Y-13423733D01*
X4728962Y-13385638D01*
X4738486Y-13338019D01*
X4748010Y-13309448D01*
X4757533Y-13290400D01*
X4776581Y-13261828D01*
X4786105Y-13252305D01*
X4852771Y-13299924D02*
X4862295Y-13290400D01*
X4881343Y-13280876D01*
X4928962Y-13280876D01*
X4948010Y-13290400D01*
X4957533Y-13299924D01*
X4967057Y-13318971D01*
X4967057Y-13338019D01*
X4957533Y-13366590D01*
X4843248Y-13480876D01*
X4967057Y-13480876D01*
X5043248Y-13299924D02*
X5052771Y-13290400D01*
X5071819Y-13280876D01*
X5119438Y-13280876D01*
X5138486Y-13290400D01*
X5148010Y-13299924D01*
X5157533Y-13318971D01*
X5157533Y-13338019D01*
X5148010Y-13366590D01*
X5033724Y-13480876D01*
X5157533Y-13480876D01*
X5328962Y-13347543D02*
X5328962Y-13480876D01*
X5281343Y-13271352D02*
X5233724Y-13414209D01*
X5357533Y-13414209D01*
X5586105Y-13480876D02*
X5586105Y-13280876D01*
X5671819Y-13480876D02*
X5671819Y-13376114D01*
X5662295Y-13357067D01*
X5643248Y-13347543D01*
X5614676Y-13347543D01*
X5595628Y-13357067D01*
X5586105Y-13366590D01*
X5795628Y-13480876D02*
X5776581Y-13471352D01*
X5767057Y-13461828D01*
X5757533Y-13442781D01*
X5757533Y-13385638D01*
X5767057Y-13366590D01*
X5776581Y-13357067D01*
X5795628Y-13347543D01*
X5824200Y-13347543D01*
X5843248Y-13357067D01*
X5852771Y-13366590D01*
X5862295Y-13385638D01*
X5862295Y-13442781D01*
X5852771Y-13461828D01*
X5843248Y-13471352D01*
X5824200Y-13480876D01*
X5795628Y-13480876D01*
X5976581Y-13480876D02*
X5957533Y-13471352D01*
X5948009Y-13452305D01*
X5948009Y-13280876D01*
X6128962Y-13471352D02*
X6109914Y-13480876D01*
X6071819Y-13480876D01*
X6052771Y-13471352D01*
X6043248Y-13452305D01*
X6043248Y-13376114D01*
X6052771Y-13357067D01*
X6071819Y-13347543D01*
X6109914Y-13347543D01*
X6128962Y-13357067D01*
X6138486Y-13376114D01*
X6138486Y-13395162D01*
X6043248Y-13414209D01*
X6214676Y-13471352D02*
X6233724Y-13480876D01*
X6271819Y-13480876D01*
X6290867Y-13471352D01*
X6300390Y-13452305D01*
X6300390Y-13442781D01*
X6290867Y-13423733D01*
X6271819Y-13414209D01*
X6243248Y-13414209D01*
X6224200Y-13404686D01*
X6214676Y-13385638D01*
X6214676Y-13376114D01*
X6224200Y-13357067D01*
X6243248Y-13347543D01*
X6271819Y-13347543D01*
X6290867Y-13357067D01*
X6367057Y-13557067D02*
X6376581Y-13547543D01*
X6395628Y-13518971D01*
X6405152Y-13499924D01*
X6414676Y-13471352D01*
X6424200Y-13423733D01*
X6424200Y-13385638D01*
X6414676Y-13338019D01*
X6405152Y-13309448D01*
X6395628Y-13290400D01*
X6376581Y-13261828D01*
X6367057Y-13252305D01*
D15*
X1200288Y-13687988D02*
X1200288Y-13620812D01*
X1133112Y-13620812D01*
X1133112Y-13687988D01*
X1200288Y-13687988D01*
D11*
X1509914Y-13544876D02*
X1528962Y-13544876D01*
X1548009Y-13554400D01*
X1557533Y-13563924D01*
X1567057Y-13582971D01*
X1576581Y-13621067D01*
X1576581Y-13668686D01*
X1567057Y-13706781D01*
X1557533Y-13725828D01*
X1548009Y-13735352D01*
X1528962Y-13744876D01*
X1509914Y-13744876D01*
X1490867Y-13735352D01*
X1481343Y-13725828D01*
X1471819Y-13706781D01*
X1462295Y-13668686D01*
X1462295Y-13621067D01*
X1471819Y-13582971D01*
X1481343Y-13563924D01*
X1490867Y-13554400D01*
X1509914Y-13544876D01*
X1662295Y-13725828D02*
X1671819Y-13735352D01*
X1662295Y-13744876D01*
X1652771Y-13735352D01*
X1662295Y-13725828D01*
X1662295Y-13744876D01*
X1767057Y-13744876D02*
X1805152Y-13744876D01*
X1824200Y-13735352D01*
X1833724Y-13725828D01*
X1852771Y-13697257D01*
X1862295Y-13659162D01*
X1862295Y-13582971D01*
X1852771Y-13563924D01*
X1843248Y-13554400D01*
X1824200Y-13544876D01*
X1786105Y-13544876D01*
X1767057Y-13554400D01*
X1757533Y-13563924D01*
X1748009Y-13582971D01*
X1748009Y-13630590D01*
X1757533Y-13649638D01*
X1767057Y-13659162D01*
X1786105Y-13668686D01*
X1824200Y-13668686D01*
X1843248Y-13659162D01*
X1852771Y-13649638D01*
X1862295Y-13630590D01*
X2043248Y-13544876D02*
X1948009Y-13544876D01*
X1938486Y-13640114D01*
X1948009Y-13630590D01*
X1967057Y-13621067D01*
X2014676Y-13621067D01*
X2033724Y-13630590D01*
X2043248Y-13640114D01*
X2052771Y-13659162D01*
X2052771Y-13706781D01*
X2043248Y-13725828D01*
X2033724Y-13735352D01*
X2014676Y-13744876D01*
X1967057Y-13744876D01*
X1948009Y-13735352D01*
X1938486Y-13725828D01*
X2176581Y-13544876D02*
X2195629Y-13544876D01*
X2214676Y-13554400D01*
X2224200Y-13563924D01*
X2233724Y-13582971D01*
X2243248Y-13621067D01*
X2243248Y-13668686D01*
X2233724Y-13706781D01*
X2224200Y-13725828D01*
X2214676Y-13735352D01*
X2195629Y-13744876D01*
X2176581Y-13744876D01*
X2157533Y-13735352D01*
X2148010Y-13725828D01*
X2138486Y-13706781D01*
X2128962Y-13668686D01*
X2128962Y-13621067D01*
X2138486Y-13582971D01*
X2148010Y-13563924D01*
X2157533Y-13554400D01*
X2176581Y-13544876D01*
X2328962Y-13744876D02*
X2328962Y-13611543D01*
X2328962Y-13630590D02*
X2338486Y-13621067D01*
X2357533Y-13611543D01*
X2386105Y-13611543D01*
X2405152Y-13621067D01*
X2414676Y-13640114D01*
X2414676Y-13744876D01*
X2414676Y-13640114D02*
X2424200Y-13621067D01*
X2443248Y-13611543D01*
X2471819Y-13611543D01*
X2490867Y-13621067D01*
X2500390Y-13640114D01*
X2500390Y-13744876D01*
X2595629Y-13744876D02*
X2595629Y-13611543D01*
X2595629Y-13630590D02*
X2605152Y-13621067D01*
X2624200Y-13611543D01*
X2652771Y-13611543D01*
X2671819Y-13621067D01*
X2681343Y-13640114D01*
X2681343Y-13744876D01*
X2681343Y-13640114D02*
X2690867Y-13621067D01*
X2709914Y-13611543D01*
X2738486Y-13611543D01*
X2757533Y-13621067D01*
X2767057Y-13640114D01*
X2767057Y-13744876D01*
X3157533Y-13535352D02*
X2986105Y-13792495D01*
X3414676Y-13544876D02*
X3433724Y-13544876D01*
X3452771Y-13554400D01*
X3462295Y-13563924D01*
X3471819Y-13582971D01*
X3481343Y-13621067D01*
X3481343Y-13668686D01*
X3471819Y-13706781D01*
X3462295Y-13725828D01*
X3452771Y-13735352D01*
X3433724Y-13744876D01*
X3414676Y-13744876D01*
X3395628Y-13735352D01*
X3386105Y-13725828D01*
X3376581Y-13706781D01*
X3367057Y-13668686D01*
X3367057Y-13621067D01*
X3376581Y-13582971D01*
X3386105Y-13563924D01*
X3395628Y-13554400D01*
X3414676Y-13544876D01*
X3567057Y-13725828D02*
X3576581Y-13735352D01*
X3567057Y-13744876D01*
X3557533Y-13735352D01*
X3567057Y-13725828D01*
X3567057Y-13744876D01*
X3700390Y-13544876D02*
X3719438Y-13544876D01*
X3738486Y-13554400D01*
X3748009Y-13563924D01*
X3757533Y-13582971D01*
X3767057Y-13621067D01*
X3767057Y-13668686D01*
X3757533Y-13706781D01*
X3748009Y-13725828D01*
X3738486Y-13735352D01*
X3719438Y-13744876D01*
X3700390Y-13744876D01*
X3681343Y-13735352D01*
X3671819Y-13725828D01*
X3662295Y-13706781D01*
X3652771Y-13668686D01*
X3652771Y-13621067D01*
X3662295Y-13582971D01*
X3671819Y-13563924D01*
X3681343Y-13554400D01*
X3700390Y-13544876D01*
X3833724Y-13544876D02*
X3957533Y-13544876D01*
X3890867Y-13621067D01*
X3919438Y-13621067D01*
X3938486Y-13630590D01*
X3948009Y-13640114D01*
X3957533Y-13659162D01*
X3957533Y-13706781D01*
X3948009Y-13725828D01*
X3938486Y-13735352D01*
X3919438Y-13744876D01*
X3862295Y-13744876D01*
X3843248Y-13735352D01*
X3833724Y-13725828D01*
X4024200Y-13544876D02*
X4157533Y-13544876D01*
X4071819Y-13744876D01*
X4319438Y-13611543D02*
X4319438Y-13744876D01*
X4271819Y-13535352D02*
X4224200Y-13678209D01*
X4348010Y-13678209D01*
X4414676Y-13544876D02*
X4414676Y-13582971D01*
X4490867Y-13544876D02*
X4490867Y-13582971D01*
X4786105Y-13821067D02*
X4776581Y-13811543D01*
X4757533Y-13782971D01*
X4748010Y-13763924D01*
X4738486Y-13735352D01*
X4728962Y-13687733D01*
X4728962Y-13649638D01*
X4738486Y-13602019D01*
X4748010Y-13573448D01*
X4757533Y-13554400D01*
X4776581Y-13525828D01*
X4786105Y-13516305D01*
X4871819Y-13744876D02*
X4909914Y-13744876D01*
X4928962Y-13735352D01*
X4938486Y-13725828D01*
X4957533Y-13697257D01*
X4967057Y-13659162D01*
X4967057Y-13582971D01*
X4957533Y-13563924D01*
X4948010Y-13554400D01*
X4928962Y-13544876D01*
X4890867Y-13544876D01*
X4871819Y-13554400D01*
X4862295Y-13563924D01*
X4852771Y-13582971D01*
X4852771Y-13630590D01*
X4862295Y-13649638D01*
X4871819Y-13659162D01*
X4890867Y-13668686D01*
X4928962Y-13668686D01*
X4948010Y-13659162D01*
X4957533Y-13649638D01*
X4967057Y-13630590D01*
X5205152Y-13744876D02*
X5205152Y-13544876D01*
X5290867Y-13744876D02*
X5290867Y-13640114D01*
X5281343Y-13621067D01*
X5262295Y-13611543D01*
X5233724Y-13611543D01*
X5214676Y-13621067D01*
X5205152Y-13630590D01*
X5414676Y-13744876D02*
X5395629Y-13735352D01*
X5386105Y-13725828D01*
X5376581Y-13706781D01*
X5376581Y-13649638D01*
X5386105Y-13630590D01*
X5395629Y-13621067D01*
X5414676Y-13611543D01*
X5443248Y-13611543D01*
X5462295Y-13621067D01*
X5471819Y-13630590D01*
X5481343Y-13649638D01*
X5481343Y-13706781D01*
X5471819Y-13725828D01*
X5462295Y-13735352D01*
X5443248Y-13744876D01*
X5414676Y-13744876D01*
X5595628Y-13744876D02*
X5576581Y-13735352D01*
X5567057Y-13716305D01*
X5567057Y-13544876D01*
X5748009Y-13735352D02*
X5728962Y-13744876D01*
X5690867Y-13744876D01*
X5671819Y-13735352D01*
X5662295Y-13716305D01*
X5662295Y-13640114D01*
X5671819Y-13621067D01*
X5690867Y-13611543D01*
X5728962Y-13611543D01*
X5748009Y-13621067D01*
X5757533Y-13640114D01*
X5757533Y-13659162D01*
X5662295Y-13678209D01*
X5833724Y-13735352D02*
X5852771Y-13744876D01*
X5890867Y-13744876D01*
X5909914Y-13735352D01*
X5919438Y-13716305D01*
X5919438Y-13706781D01*
X5909914Y-13687733D01*
X5890867Y-13678209D01*
X5862295Y-13678209D01*
X5843248Y-13668686D01*
X5833724Y-13649638D01*
X5833724Y-13640114D01*
X5843248Y-13621067D01*
X5862295Y-13611543D01*
X5890867Y-13611543D01*
X5909914Y-13621067D01*
X5986105Y-13821067D02*
X5995628Y-13811543D01*
X6014676Y-13782971D01*
X6024200Y-13763924D01*
X6033724Y-13735352D01*
X6043248Y-13687733D01*
X6043248Y-13649638D01*
X6033724Y-13602019D01*
X6024200Y-13573448D01*
X6014676Y-13554400D01*
X5995628Y-13525828D01*
X5986105Y-13516305D01*
D16*
X1163200Y-13969400D02*
X1214200Y-13918400D01*
X1163200Y-13867400D01*
X1112200Y-13918400D01*
X1163200Y-13969400D01*
D11*
X1576581Y-14008876D02*
X1462295Y-14008876D01*
X1519438Y-14008876D02*
X1519438Y-13808876D01*
X1500390Y-13837448D01*
X1481343Y-13856495D01*
X1462295Y-13866019D01*
X1662295Y-13989828D02*
X1671819Y-13999352D01*
X1662295Y-14008876D01*
X1652771Y-13999352D01*
X1662295Y-13989828D01*
X1662295Y-14008876D01*
X1795628Y-13808876D02*
X1814676Y-13808876D01*
X1833724Y-13818400D01*
X1843248Y-13827924D01*
X1852771Y-13846971D01*
X1862295Y-13885067D01*
X1862295Y-13932686D01*
X1852771Y-13970781D01*
X1843248Y-13989828D01*
X1833724Y-13999352D01*
X1814676Y-14008876D01*
X1795628Y-14008876D01*
X1776581Y-13999352D01*
X1767057Y-13989828D01*
X1757533Y-13970781D01*
X1748009Y-13932686D01*
X1748009Y-13885067D01*
X1757533Y-13846971D01*
X1767057Y-13827924D01*
X1776581Y-13818400D01*
X1795628Y-13808876D01*
X1938486Y-13827924D02*
X1948009Y-13818400D01*
X1967057Y-13808876D01*
X2014676Y-13808876D01*
X2033724Y-13818400D01*
X2043248Y-13827924D01*
X2052771Y-13846971D01*
X2052771Y-13866019D01*
X2043248Y-13894590D01*
X1928962Y-14008876D01*
X2052771Y-14008876D01*
X2176581Y-13808876D02*
X2195629Y-13808876D01*
X2214676Y-13818400D01*
X2224200Y-13827924D01*
X2233724Y-13846971D01*
X2243248Y-13885067D01*
X2243248Y-13932686D01*
X2233724Y-13970781D01*
X2224200Y-13989828D01*
X2214676Y-13999352D01*
X2195629Y-14008876D01*
X2176581Y-14008876D01*
X2157533Y-13999352D01*
X2148010Y-13989828D01*
X2138486Y-13970781D01*
X2128962Y-13932686D01*
X2128962Y-13885067D01*
X2138486Y-13846971D01*
X2148010Y-13827924D01*
X2157533Y-13818400D01*
X2176581Y-13808876D01*
X2328962Y-14008876D02*
X2328962Y-13875543D01*
X2328962Y-13894590D02*
X2338486Y-13885067D01*
X2357533Y-13875543D01*
X2386105Y-13875543D01*
X2405152Y-13885067D01*
X2414676Y-13904114D01*
X2414676Y-14008876D01*
X2414676Y-13904114D02*
X2424200Y-13885067D01*
X2443248Y-13875543D01*
X2471819Y-13875543D01*
X2490867Y-13885067D01*
X2500390Y-13904114D01*
X2500390Y-14008876D01*
X2595629Y-14008876D02*
X2595629Y-13875543D01*
X2595629Y-13894590D02*
X2605152Y-13885067D01*
X2624200Y-13875543D01*
X2652771Y-13875543D01*
X2671819Y-13885067D01*
X2681343Y-13904114D01*
X2681343Y-14008876D01*
X2681343Y-13904114D02*
X2690867Y-13885067D01*
X2709914Y-13875543D01*
X2738486Y-13875543D01*
X2757533Y-13885067D01*
X2767057Y-13904114D01*
X2767057Y-14008876D01*
X3157533Y-13799352D02*
X2986105Y-14056495D01*
X3414676Y-13808876D02*
X3433724Y-13808876D01*
X3452771Y-13818400D01*
X3462295Y-13827924D01*
X3471819Y-13846971D01*
X3481343Y-13885067D01*
X3481343Y-13932686D01*
X3471819Y-13970781D01*
X3462295Y-13989828D01*
X3452771Y-13999352D01*
X3433724Y-14008876D01*
X3414676Y-14008876D01*
X3395628Y-13999352D01*
X3386105Y-13989828D01*
X3376581Y-13970781D01*
X3367057Y-13932686D01*
X3367057Y-13885067D01*
X3376581Y-13846971D01*
X3386105Y-13827924D01*
X3395628Y-13818400D01*
X3414676Y-13808876D01*
X3567057Y-13989828D02*
X3576581Y-13999352D01*
X3567057Y-14008876D01*
X3557533Y-13999352D01*
X3567057Y-13989828D01*
X3567057Y-14008876D01*
X3700390Y-13808876D02*
X3719438Y-13808876D01*
X3738486Y-13818400D01*
X3748009Y-13827924D01*
X3757533Y-13846971D01*
X3767057Y-13885067D01*
X3767057Y-13932686D01*
X3757533Y-13970781D01*
X3748009Y-13989828D01*
X3738486Y-13999352D01*
X3719438Y-14008876D01*
X3700390Y-14008876D01*
X3681343Y-13999352D01*
X3671819Y-13989828D01*
X3662295Y-13970781D01*
X3652771Y-13932686D01*
X3652771Y-13885067D01*
X3662295Y-13846971D01*
X3671819Y-13827924D01*
X3681343Y-13818400D01*
X3700390Y-13808876D01*
X3938486Y-13875543D02*
X3938486Y-14008876D01*
X3890867Y-13799352D02*
X3843248Y-13942209D01*
X3967057Y-13942209D01*
X4081343Y-13808876D02*
X4100390Y-13808876D01*
X4119438Y-13818400D01*
X4128962Y-13827924D01*
X4138486Y-13846971D01*
X4148009Y-13885067D01*
X4148009Y-13932686D01*
X4138486Y-13970781D01*
X4128962Y-13989828D01*
X4119438Y-13999352D01*
X4100390Y-14008876D01*
X4081343Y-14008876D01*
X4062295Y-13999352D01*
X4052771Y-13989828D01*
X4043248Y-13970781D01*
X4033724Y-13932686D01*
X4033724Y-13885067D01*
X4043248Y-13846971D01*
X4052771Y-13827924D01*
X4062295Y-13818400D01*
X4081343Y-13808876D01*
X4224200Y-13827924D02*
X4233724Y-13818400D01*
X4252771Y-13808876D01*
X4300390Y-13808876D01*
X4319438Y-13818400D01*
X4328962Y-13827924D01*
X4338486Y-13846971D01*
X4338486Y-13866019D01*
X4328962Y-13894590D01*
X4214676Y-14008876D01*
X4338486Y-14008876D01*
X4414676Y-13808876D02*
X4414676Y-13846971D01*
X4490867Y-13808876D02*
X4490867Y-13846971D01*
X4786105Y-14085067D02*
X4776581Y-14075543D01*
X4757533Y-14046971D01*
X4748010Y-14027924D01*
X4738486Y-13999352D01*
X4728962Y-13951733D01*
X4728962Y-13913638D01*
X4738486Y-13866019D01*
X4748010Y-13837448D01*
X4757533Y-13818400D01*
X4776581Y-13789828D01*
X4786105Y-13780305D01*
X4948010Y-13875543D02*
X4948010Y-14008876D01*
X4900390Y-13799352D02*
X4852771Y-13942209D01*
X4976581Y-13942209D01*
X5033724Y-13808876D02*
X5157533Y-13808876D01*
X5090867Y-13885067D01*
X5119438Y-13885067D01*
X5138486Y-13894590D01*
X5148010Y-13904114D01*
X5157533Y-13923162D01*
X5157533Y-13970781D01*
X5148010Y-13989828D01*
X5138486Y-13999352D01*
X5119438Y-14008876D01*
X5062295Y-14008876D01*
X5043248Y-13999352D01*
X5033724Y-13989828D01*
X5395629Y-14008876D02*
X5395629Y-13808876D01*
X5481343Y-14008876D02*
X5481343Y-13904114D01*
X5471819Y-13885067D01*
X5452771Y-13875543D01*
X5424200Y-13875543D01*
X5405152Y-13885067D01*
X5395629Y-13894590D01*
X5605152Y-14008876D02*
X5586105Y-13999352D01*
X5576581Y-13989828D01*
X5567057Y-13970781D01*
X5567057Y-13913638D01*
X5576581Y-13894590D01*
X5586105Y-13885067D01*
X5605152Y-13875543D01*
X5633724Y-13875543D01*
X5652771Y-13885067D01*
X5662295Y-13894590D01*
X5671819Y-13913638D01*
X5671819Y-13970781D01*
X5662295Y-13989828D01*
X5652771Y-13999352D01*
X5633724Y-14008876D01*
X5605152Y-14008876D01*
X5786105Y-14008876D02*
X5767057Y-13999352D01*
X5757533Y-13980305D01*
X5757533Y-13808876D01*
X5938486Y-13999352D02*
X5919438Y-14008876D01*
X5881343Y-14008876D01*
X5862295Y-13999352D01*
X5852771Y-13980305D01*
X5852771Y-13904114D01*
X5862295Y-13885067D01*
X5881343Y-13875543D01*
X5919438Y-13875543D01*
X5938486Y-13885067D01*
X5948009Y-13904114D01*
X5948009Y-13923162D01*
X5852771Y-13942209D01*
X6024200Y-13999352D02*
X6043248Y-14008876D01*
X6081343Y-14008876D01*
X6100390Y-13999352D01*
X6109914Y-13980305D01*
X6109914Y-13970781D01*
X6100390Y-13951733D01*
X6081343Y-13942209D01*
X6052771Y-13942209D01*
X6033724Y-13932686D01*
X6024200Y-13913638D01*
X6024200Y-13904114D01*
X6033724Y-13885067D01*
X6052771Y-13875543D01*
X6081343Y-13875543D01*
X6100390Y-13885067D01*
X6176581Y-14085067D02*
X6186105Y-14075543D01*
X6205152Y-14046971D01*
X6214676Y-14027924D01*
X6224200Y-13999352D01*
X6233724Y-13951733D01*
X6233724Y-13913638D01*
X6224200Y-13866019D01*
X6214676Y-13837448D01*
X6205152Y-13818400D01*
X6186105Y-13789828D01*
X6176581Y-13780305D01*
D17*
X1104200Y-14127400D02*
X1214200Y-14237400D01*
X1214200Y-14127400D02*
X1104200Y-14237400D01*
X1214200Y-14182400D02*
G75*
G03*
X1214200Y-14182400I-55000J0D01*
G01*
D11*
X1576581Y-14272876D02*
X1462295Y-14272876D01*
X1519438Y-14272876D02*
X1519438Y-14072876D01*
X1500390Y-14101448D01*
X1481343Y-14120495D01*
X1462295Y-14130019D01*
X1662295Y-14253828D02*
X1671819Y-14263352D01*
X1662295Y-14272876D01*
X1652771Y-14263352D01*
X1662295Y-14253828D01*
X1662295Y-14272876D01*
X1862295Y-14272876D02*
X1748009Y-14272876D01*
X1805152Y-14272876D02*
X1805152Y-14072876D01*
X1786105Y-14101448D01*
X1767057Y-14120495D01*
X1748009Y-14130019D01*
X1986105Y-14072876D02*
X2005152Y-14072876D01*
X2024200Y-14082400D01*
X2033724Y-14091924D01*
X2043248Y-14110971D01*
X2052771Y-14149067D01*
X2052771Y-14196686D01*
X2043248Y-14234781D01*
X2033724Y-14253828D01*
X2024200Y-14263352D01*
X2005152Y-14272876D01*
X1986105Y-14272876D01*
X1967057Y-14263352D01*
X1957533Y-14253828D01*
X1948009Y-14234781D01*
X1938486Y-14196686D01*
X1938486Y-14149067D01*
X1948009Y-14110971D01*
X1957533Y-14091924D01*
X1967057Y-14082400D01*
X1986105Y-14072876D01*
X2176581Y-14072876D02*
X2195629Y-14072876D01*
X2214676Y-14082400D01*
X2224200Y-14091924D01*
X2233724Y-14110971D01*
X2243248Y-14149067D01*
X2243248Y-14196686D01*
X2233724Y-14234781D01*
X2224200Y-14253828D01*
X2214676Y-14263352D01*
X2195629Y-14272876D01*
X2176581Y-14272876D01*
X2157533Y-14263352D01*
X2148010Y-14253828D01*
X2138486Y-14234781D01*
X2128962Y-14196686D01*
X2128962Y-14149067D01*
X2138486Y-14110971D01*
X2148010Y-14091924D01*
X2157533Y-14082400D01*
X2176581Y-14072876D01*
X2328962Y-14272876D02*
X2328962Y-14139543D01*
X2328962Y-14158590D02*
X2338486Y-14149067D01*
X2357533Y-14139543D01*
X2386105Y-14139543D01*
X2405152Y-14149067D01*
X2414676Y-14168114D01*
X2414676Y-14272876D01*
X2414676Y-14168114D02*
X2424200Y-14149067D01*
X2443248Y-14139543D01*
X2471819Y-14139543D01*
X2490867Y-14149067D01*
X2500390Y-14168114D01*
X2500390Y-14272876D01*
X2595629Y-14272876D02*
X2595629Y-14139543D01*
X2595629Y-14158590D02*
X2605152Y-14149067D01*
X2624200Y-14139543D01*
X2652771Y-14139543D01*
X2671819Y-14149067D01*
X2681343Y-14168114D01*
X2681343Y-14272876D01*
X2681343Y-14168114D02*
X2690867Y-14149067D01*
X2709914Y-14139543D01*
X2738486Y-14139543D01*
X2757533Y-14149067D01*
X2767057Y-14168114D01*
X2767057Y-14272876D01*
X3157533Y-14063352D02*
X2986105Y-14320495D01*
X3414676Y-14072876D02*
X3433724Y-14072876D01*
X3452771Y-14082400D01*
X3462295Y-14091924D01*
X3471819Y-14110971D01*
X3481343Y-14149067D01*
X3481343Y-14196686D01*
X3471819Y-14234781D01*
X3462295Y-14253828D01*
X3452771Y-14263352D01*
X3433724Y-14272876D01*
X3414676Y-14272876D01*
X3395628Y-14263352D01*
X3386105Y-14253828D01*
X3376581Y-14234781D01*
X3367057Y-14196686D01*
X3367057Y-14149067D01*
X3376581Y-14110971D01*
X3386105Y-14091924D01*
X3395628Y-14082400D01*
X3414676Y-14072876D01*
X3567057Y-14253828D02*
X3576581Y-14263352D01*
X3567057Y-14272876D01*
X3557533Y-14263352D01*
X3567057Y-14253828D01*
X3567057Y-14272876D01*
X3700390Y-14072876D02*
X3719438Y-14072876D01*
X3738486Y-14082400D01*
X3748009Y-14091924D01*
X3757533Y-14110971D01*
X3767057Y-14149067D01*
X3767057Y-14196686D01*
X3757533Y-14234781D01*
X3748009Y-14253828D01*
X3738486Y-14263352D01*
X3719438Y-14272876D01*
X3700390Y-14272876D01*
X3681343Y-14263352D01*
X3671819Y-14253828D01*
X3662295Y-14234781D01*
X3652771Y-14196686D01*
X3652771Y-14149067D01*
X3662295Y-14110971D01*
X3671819Y-14091924D01*
X3681343Y-14082400D01*
X3700390Y-14072876D01*
X3938486Y-14139543D02*
X3938486Y-14272876D01*
X3890867Y-14063352D02*
X3843248Y-14206209D01*
X3967057Y-14206209D01*
X4024200Y-14072876D02*
X4148009Y-14072876D01*
X4081343Y-14149067D01*
X4109914Y-14149067D01*
X4128962Y-14158590D01*
X4138486Y-14168114D01*
X4148009Y-14187162D01*
X4148009Y-14234781D01*
X4138486Y-14253828D01*
X4128962Y-14263352D01*
X4109914Y-14272876D01*
X4052771Y-14272876D01*
X4033724Y-14263352D01*
X4024200Y-14253828D01*
X4214676Y-14072876D02*
X4338486Y-14072876D01*
X4271819Y-14149067D01*
X4300390Y-14149067D01*
X4319438Y-14158590D01*
X4328962Y-14168114D01*
X4338486Y-14187162D01*
X4338486Y-14234781D01*
X4328962Y-14253828D01*
X4319438Y-14263352D01*
X4300390Y-14272876D01*
X4243248Y-14272876D01*
X4224200Y-14263352D01*
X4214676Y-14253828D01*
X4414676Y-14072876D02*
X4414676Y-14110971D01*
X4490867Y-14072876D02*
X4490867Y-14110971D01*
X4786105Y-14349067D02*
X4776581Y-14339543D01*
X4757533Y-14310971D01*
X4748010Y-14291924D01*
X4738486Y-14263352D01*
X4728962Y-14215733D01*
X4728962Y-14177638D01*
X4738486Y-14130019D01*
X4748010Y-14101448D01*
X4757533Y-14082400D01*
X4776581Y-14053828D01*
X4786105Y-14044305D01*
X4967057Y-14272876D02*
X4852771Y-14272876D01*
X4909914Y-14272876D02*
X4909914Y-14072876D01*
X4890867Y-14101448D01*
X4871819Y-14120495D01*
X4852771Y-14130019D01*
X5138486Y-14072876D02*
X5100390Y-14072876D01*
X5081343Y-14082400D01*
X5071819Y-14091924D01*
X5052771Y-14120495D01*
X5043248Y-14158590D01*
X5043248Y-14234781D01*
X5052771Y-14253828D01*
X5062295Y-14263352D01*
X5081343Y-14272876D01*
X5119438Y-14272876D01*
X5138486Y-14263352D01*
X5148010Y-14253828D01*
X5157533Y-14234781D01*
X5157533Y-14187162D01*
X5148010Y-14168114D01*
X5138486Y-14158590D01*
X5119438Y-14149067D01*
X5081343Y-14149067D01*
X5062295Y-14158590D01*
X5052771Y-14168114D01*
X5043248Y-14187162D01*
X5395629Y-14272876D02*
X5395629Y-14072876D01*
X5481343Y-14272876D02*
X5481343Y-14168114D01*
X5471819Y-14149067D01*
X5452771Y-14139543D01*
X5424200Y-14139543D01*
X5405152Y-14149067D01*
X5395629Y-14158590D01*
X5605152Y-14272876D02*
X5586105Y-14263352D01*
X5576581Y-14253828D01*
X5567057Y-14234781D01*
X5567057Y-14177638D01*
X5576581Y-14158590D01*
X5586105Y-14149067D01*
X5605152Y-14139543D01*
X5633724Y-14139543D01*
X5652771Y-14149067D01*
X5662295Y-14158590D01*
X5671819Y-14177638D01*
X5671819Y-14234781D01*
X5662295Y-14253828D01*
X5652771Y-14263352D01*
X5633724Y-14272876D01*
X5605152Y-14272876D01*
X5786105Y-14272876D02*
X5767057Y-14263352D01*
X5757533Y-14244305D01*
X5757533Y-14072876D01*
X5938486Y-14263352D02*
X5919438Y-14272876D01*
X5881343Y-14272876D01*
X5862295Y-14263352D01*
X5852771Y-14244305D01*
X5852771Y-14168114D01*
X5862295Y-14149067D01*
X5881343Y-14139543D01*
X5919438Y-14139543D01*
X5938486Y-14149067D01*
X5948009Y-14168114D01*
X5948009Y-14187162D01*
X5852771Y-14206209D01*
X6024200Y-14263352D02*
X6043248Y-14272876D01*
X6081343Y-14272876D01*
X6100390Y-14263352D01*
X6109914Y-14244305D01*
X6109914Y-14234781D01*
X6100390Y-14215733D01*
X6081343Y-14206209D01*
X6052771Y-14206209D01*
X6033724Y-14196686D01*
X6024200Y-14177638D01*
X6024200Y-14168114D01*
X6033724Y-14149067D01*
X6052771Y-14139543D01*
X6081343Y-14139543D01*
X6100390Y-14149067D01*
X6176581Y-14349067D02*
X6186105Y-14339543D01*
X6205152Y-14310971D01*
X6214676Y-14291924D01*
X6224200Y-14263352D01*
X6233724Y-14215733D01*
X6233724Y-14177638D01*
X6224200Y-14130019D01*
X6214676Y-14101448D01*
X6205152Y-14082400D01*
X6186105Y-14053828D01*
X6176581Y-14044305D01*
X1014200Y-14346400D02*
X1214200Y-14546400D01*
X1214200Y-14346400D02*
X1014200Y-14546400D01*
X1114200Y-14346400D02*
X1114200Y-14546400D01*
X1014200Y-14446400D02*
X1214200Y-14446400D01*
X1462295Y-14355924D02*
X1471819Y-14346400D01*
X1490867Y-14336876D01*
X1538486Y-14336876D01*
X1557533Y-14346400D01*
X1567057Y-14355924D01*
X1576581Y-14374971D01*
X1576581Y-14394019D01*
X1567057Y-14422590D01*
X1452771Y-14536876D01*
X1576581Y-14536876D01*
X1662295Y-14517828D02*
X1671819Y-14527352D01*
X1662295Y-14536876D01*
X1652771Y-14527352D01*
X1662295Y-14517828D01*
X1662295Y-14536876D01*
X1738486Y-14336876D02*
X1862295Y-14336876D01*
X1795628Y-14413067D01*
X1824200Y-14413067D01*
X1843248Y-14422590D01*
X1852771Y-14432114D01*
X1862295Y-14451162D01*
X1862295Y-14498781D01*
X1852771Y-14517828D01*
X1843248Y-14527352D01*
X1824200Y-14536876D01*
X1767057Y-14536876D01*
X1748009Y-14527352D01*
X1738486Y-14517828D01*
X1986105Y-14336876D02*
X2005152Y-14336876D01*
X2024200Y-14346400D01*
X2033724Y-14355924D01*
X2043248Y-14374971D01*
X2052771Y-14413067D01*
X2052771Y-14460686D01*
X2043248Y-14498781D01*
X2033724Y-14517828D01*
X2024200Y-14527352D01*
X2005152Y-14536876D01*
X1986105Y-14536876D01*
X1967057Y-14527352D01*
X1957533Y-14517828D01*
X1948009Y-14498781D01*
X1938486Y-14460686D01*
X1938486Y-14413067D01*
X1948009Y-14374971D01*
X1957533Y-14355924D01*
X1967057Y-14346400D01*
X1986105Y-14336876D01*
X2176581Y-14336876D02*
X2195629Y-14336876D01*
X2214676Y-14346400D01*
X2224200Y-14355924D01*
X2233724Y-14374971D01*
X2243248Y-14413067D01*
X2243248Y-14460686D01*
X2233724Y-14498781D01*
X2224200Y-14517828D01*
X2214676Y-14527352D01*
X2195629Y-14536876D01*
X2176581Y-14536876D01*
X2157533Y-14527352D01*
X2148010Y-14517828D01*
X2138486Y-14498781D01*
X2128962Y-14460686D01*
X2128962Y-14413067D01*
X2138486Y-14374971D01*
X2148010Y-14355924D01*
X2157533Y-14346400D01*
X2176581Y-14336876D01*
X2328962Y-14536876D02*
X2328962Y-14403543D01*
X2328962Y-14422590D02*
X2338486Y-14413067D01*
X2357533Y-14403543D01*
X2386105Y-14403543D01*
X2405152Y-14413067D01*
X2414676Y-14432114D01*
X2414676Y-14536876D01*
X2414676Y-14432114D02*
X2424200Y-14413067D01*
X2443248Y-14403543D01*
X2471819Y-14403543D01*
X2490867Y-14413067D01*
X2500390Y-14432114D01*
X2500390Y-14536876D01*
X2595629Y-14536876D02*
X2595629Y-14403543D01*
X2595629Y-14422590D02*
X2605152Y-14413067D01*
X2624200Y-14403543D01*
X2652771Y-14403543D01*
X2671819Y-14413067D01*
X2681343Y-14432114D01*
X2681343Y-14536876D01*
X2681343Y-14432114D02*
X2690867Y-14413067D01*
X2709914Y-14403543D01*
X2738486Y-14403543D01*
X2757533Y-14413067D01*
X2767057Y-14432114D01*
X2767057Y-14536876D01*
X3157533Y-14327352D02*
X2986105Y-14584495D01*
X3414676Y-14336876D02*
X3433724Y-14336876D01*
X3452771Y-14346400D01*
X3462295Y-14355924D01*
X3471819Y-14374971D01*
X3481343Y-14413067D01*
X3481343Y-14460686D01*
X3471819Y-14498781D01*
X3462295Y-14517828D01*
X3452771Y-14527352D01*
X3433724Y-14536876D01*
X3414676Y-14536876D01*
X3395628Y-14527352D01*
X3386105Y-14517828D01*
X3376581Y-14498781D01*
X3367057Y-14460686D01*
X3367057Y-14413067D01*
X3376581Y-14374971D01*
X3386105Y-14355924D01*
X3395628Y-14346400D01*
X3414676Y-14336876D01*
X3567057Y-14517828D02*
X3576581Y-14527352D01*
X3567057Y-14536876D01*
X3557533Y-14527352D01*
X3567057Y-14517828D01*
X3567057Y-14536876D01*
X3700390Y-14336876D02*
X3719438Y-14336876D01*
X3738486Y-14346400D01*
X3748009Y-14355924D01*
X3757533Y-14374971D01*
X3767057Y-14413067D01*
X3767057Y-14460686D01*
X3757533Y-14498781D01*
X3748009Y-14517828D01*
X3738486Y-14527352D01*
X3719438Y-14536876D01*
X3700390Y-14536876D01*
X3681343Y-14527352D01*
X3671819Y-14517828D01*
X3662295Y-14498781D01*
X3652771Y-14460686D01*
X3652771Y-14413067D01*
X3662295Y-14374971D01*
X3671819Y-14355924D01*
X3681343Y-14346400D01*
X3700390Y-14336876D01*
X3862295Y-14536876D02*
X3900390Y-14536876D01*
X3919438Y-14527352D01*
X3928962Y-14517828D01*
X3948009Y-14489257D01*
X3957533Y-14451162D01*
X3957533Y-14374971D01*
X3948009Y-14355924D01*
X3938486Y-14346400D01*
X3919438Y-14336876D01*
X3881343Y-14336876D01*
X3862295Y-14346400D01*
X3852771Y-14355924D01*
X3843248Y-14374971D01*
X3843248Y-14422590D01*
X3852771Y-14441638D01*
X3862295Y-14451162D01*
X3881343Y-14460686D01*
X3919438Y-14460686D01*
X3938486Y-14451162D01*
X3948009Y-14441638D01*
X3957533Y-14422590D01*
X4081343Y-14336876D02*
X4100390Y-14336876D01*
X4119438Y-14346400D01*
X4128962Y-14355924D01*
X4138486Y-14374971D01*
X4148009Y-14413067D01*
X4148009Y-14460686D01*
X4138486Y-14498781D01*
X4128962Y-14517828D01*
X4119438Y-14527352D01*
X4100390Y-14536876D01*
X4081343Y-14536876D01*
X4062295Y-14527352D01*
X4052771Y-14517828D01*
X4043248Y-14498781D01*
X4033724Y-14460686D01*
X4033724Y-14413067D01*
X4043248Y-14374971D01*
X4052771Y-14355924D01*
X4062295Y-14346400D01*
X4081343Y-14336876D01*
X4319438Y-14336876D02*
X4281343Y-14336876D01*
X4262295Y-14346400D01*
X4252771Y-14355924D01*
X4233724Y-14384495D01*
X4224200Y-14422590D01*
X4224200Y-14498781D01*
X4233724Y-14517828D01*
X4243248Y-14527352D01*
X4262295Y-14536876D01*
X4300390Y-14536876D01*
X4319438Y-14527352D01*
X4328962Y-14517828D01*
X4338486Y-14498781D01*
X4338486Y-14451162D01*
X4328962Y-14432114D01*
X4319438Y-14422590D01*
X4300390Y-14413067D01*
X4262295Y-14413067D01*
X4243248Y-14422590D01*
X4233724Y-14432114D01*
X4224200Y-14451162D01*
X4414676Y-14336876D02*
X4414676Y-14374971D01*
X4490867Y-14336876D02*
X4490867Y-14374971D01*
X4786105Y-14613067D02*
X4776581Y-14603543D01*
X4757533Y-14574971D01*
X4748010Y-14555924D01*
X4738486Y-14527352D01*
X4728962Y-14479733D01*
X4728962Y-14441638D01*
X4738486Y-14394019D01*
X4748010Y-14365448D01*
X4757533Y-14346400D01*
X4776581Y-14317828D01*
X4786105Y-14308305D01*
X4852771Y-14355924D02*
X4862295Y-14346400D01*
X4881343Y-14336876D01*
X4928962Y-14336876D01*
X4948010Y-14346400D01*
X4957533Y-14355924D01*
X4967057Y-14374971D01*
X4967057Y-14394019D01*
X4957533Y-14422590D01*
X4843248Y-14536876D01*
X4967057Y-14536876D01*
X5205152Y-14536876D02*
X5205152Y-14336876D01*
X5290867Y-14536876D02*
X5290867Y-14432114D01*
X5281343Y-14413067D01*
X5262295Y-14403543D01*
X5233724Y-14403543D01*
X5214676Y-14413067D01*
X5205152Y-14422590D01*
X5414676Y-14536876D02*
X5395629Y-14527352D01*
X5386105Y-14517828D01*
X5376581Y-14498781D01*
X5376581Y-14441638D01*
X5386105Y-14422590D01*
X5395629Y-14413067D01*
X5414676Y-14403543D01*
X5443248Y-14403543D01*
X5462295Y-14413067D01*
X5471819Y-14422590D01*
X5481343Y-14441638D01*
X5481343Y-14498781D01*
X5471819Y-14517828D01*
X5462295Y-14527352D01*
X5443248Y-14536876D01*
X5414676Y-14536876D01*
X5595628Y-14536876D02*
X5576581Y-14527352D01*
X5567057Y-14508305D01*
X5567057Y-14336876D01*
X5748009Y-14527352D02*
X5728962Y-14536876D01*
X5690867Y-14536876D01*
X5671819Y-14527352D01*
X5662295Y-14508305D01*
X5662295Y-14432114D01*
X5671819Y-14413067D01*
X5690867Y-14403543D01*
X5728962Y-14403543D01*
X5748009Y-14413067D01*
X5757533Y-14432114D01*
X5757533Y-14451162D01*
X5662295Y-14470209D01*
X5833724Y-14527352D02*
X5852771Y-14536876D01*
X5890867Y-14536876D01*
X5909914Y-14527352D01*
X5919438Y-14508305D01*
X5919438Y-14498781D01*
X5909914Y-14479733D01*
X5890867Y-14470209D01*
X5862295Y-14470209D01*
X5843248Y-14460686D01*
X5833724Y-14441638D01*
X5833724Y-14432114D01*
X5843248Y-14413067D01*
X5862295Y-14403543D01*
X5890867Y-14403543D01*
X5909914Y-14413067D01*
X5986105Y-14613067D02*
X5995628Y-14603543D01*
X6014676Y-14574971D01*
X6024200Y-14555924D01*
X6033724Y-14527352D01*
X6043248Y-14479733D01*
X6043248Y-14441638D01*
X6033724Y-14394019D01*
X6024200Y-14365448D01*
X6014676Y-14346400D01*
X5995628Y-14317828D01*
X5986105Y-14308305D01*
M02*
