M48
; DRILL file {KiCad (6.0.9-0)} date 
; FORMAT={-:-/ absolute / inch / decimal}
; #@! TF.CreationDate,2023-10-19T19:17:51-04:00
; #@! TF.GenerationSoftware,Kicad,Pcbnew,(6.0.9-0)
; #@! TF.FileFunction,Plated,1,2,PTH
FMAT,2
INCH
; #@! TA.AperFunction,Plated,PTH,ViaDrill
T1C0.0157
; #@! TA.AperFunction,Plated,PTH,ComponentDrill
T2C0.0236
; #@! TA.AperFunction,Plated,PTH,ComponentDrill
T3C0.0354
; #@! TA.AperFunction,Plated,PTH,ComponentDrill
T4C0.0394
; #@! TA.AperFunction,Plated,PTH,ComponentDrill
T5C0.0402
; #@! TA.AperFunction,Plated,PTH,ComponentDrill
T6C0.0433
%
G90
G05
T1
X0.6Y-1.65
X0.7Y-2.45
X0.75Y-2.25
X0.75Y-2.35
X0.85Y-2.15
X0.85Y-2.6
X0.85Y-3.35
X0.9Y-0.7
X0.95Y-1.9
X1.0Y-0.55
X1.0Y-0.85
X1.0Y-2.95
X1.4Y-0.95
X1.45Y-0.55
X1.45Y-0.85
X1.5Y-4.05
X1.5471Y-2.2029
X1.7Y-1.0
X1.85Y-1.45
X1.95Y-0.7
X2.1Y-0.95
X2.2Y-1.75
X2.2Y-1.95
X2.2Y-2.15
X2.2Y-2.35
X2.2Y-2.95
X2.25Y-1.8
X2.25Y-2.2
X2.25Y-2.4
X2.25Y-2.65
X2.3Y-1.6
X2.3Y-2.0
X2.35Y-3.35
X2.4Y-0.7
X2.4Y-1.3
X2.45Y-1.0
X2.45Y-2.6
X2.6Y-0.95
X2.6392Y-3.05
X2.6785Y-2.5274
X2.7Y-1.45
X2.7Y-1.5
X2.7Y-2.483
X2.7Y-3.25
X2.7Y-1.4106
X2.714Y-2.4
X2.7215Y-3.2
X2.75Y-1.5
X3.15Y-2.5
X4.45Y-1.25
X4.95Y-1.4
X5.05Y-1.1
X5.05Y-2.55
X7.4Y-1.1
X7.4Y-2.55
X8.5Y-1.05
X8.8Y-1.35
X8.8Y-2.75
X9.3Y-2.55
X10.7Y-2.75
T2
X1.3Y-0.5909
X1.3Y-0.65
X1.3Y-0.8
X1.3Y-0.8591
T3
X2.892Y-1.3214
X2.892Y-1.6214
X2.892Y-1.9214
X2.892Y-2.2214
X2.892Y-2.7214
X2.892Y-3.0214
X2.892Y-3.3214
X2.892Y-3.6214
X2.992Y-1.3214
X2.992Y-1.6214
X2.992Y-1.9214
X2.992Y-2.2214
X2.992Y-2.7214
X2.992Y-3.0214
X2.992Y-3.3214
X2.992Y-3.6214
X3.242Y-0.9714
X3.242Y-1.0714
X3.242Y-2.4214
X3.242Y-2.5214
X3.242Y-3.8714
X3.242Y-3.9714
X3.542Y-0.9714
X3.542Y-1.0714
X3.542Y-2.4214
X3.542Y-2.5214
X3.542Y-3.8714
X3.542Y-3.9714
X3.842Y-0.9714
X3.842Y-1.0714
X3.842Y-2.4214
X3.842Y-2.5214
X3.842Y-3.8714
X3.842Y-3.9714
X4.142Y-0.9714
X4.142Y-1.0714
X4.142Y-2.4214
X4.142Y-2.5214
X4.142Y-3.8714
X4.142Y-3.9714
X4.392Y-1.3214
X4.392Y-1.6214
X4.392Y-1.9214
X4.392Y-2.2214
X4.392Y-2.7214
X4.392Y-3.0214
X4.392Y-3.3214
X4.392Y-3.6214
X4.492Y-1.3214
X4.492Y-1.6214
X4.492Y-1.9214
X4.492Y-2.2214
X4.492Y-2.7214
X4.492Y-3.0214
X4.492Y-3.3214
X4.492Y-3.6214
X4.792Y-1.3214
X4.792Y-1.6214
X4.792Y-1.9214
X4.792Y-2.2214
X4.792Y-2.7214
X4.792Y-3.0214
X4.792Y-3.3214
X4.792Y-3.6214
X4.892Y-1.3214
X4.892Y-1.6214
X4.892Y-1.9214
X4.892Y-2.2214
X4.892Y-2.7214
X4.892Y-3.0214
X4.892Y-3.3214
X4.892Y-3.6214
X5.142Y-0.9714
X5.142Y-1.0714
X5.142Y-2.4214
X5.142Y-2.5214
X5.142Y-3.8714
X5.142Y-3.9714
X5.442Y-0.9714
X5.442Y-1.0714
X5.442Y-2.4214
X5.442Y-2.5214
X5.442Y-3.8714
X5.442Y-3.9714
X5.742Y-0.9714
X5.742Y-1.0714
X5.742Y-2.4214
X5.742Y-2.5214
X5.742Y-3.8714
X5.742Y-3.9714
X6.042Y-0.9714
X6.042Y-1.0714
X6.042Y-2.4214
X6.042Y-2.5214
X6.042Y-3.8714
X6.042Y-3.9714
X6.292Y-1.3214
X6.292Y-1.6214
X6.292Y-1.9214
X6.292Y-2.2214
X6.292Y-2.7214
X6.292Y-3.0214
X6.292Y-3.3214
X6.292Y-3.6214
X6.392Y-1.3214
X6.392Y-1.6214
X6.392Y-1.9214
X6.392Y-2.2214
X6.392Y-2.7214
X6.392Y-3.0214
X6.392Y-3.3214
X6.392Y-3.6214
X7.142Y-1.3214
X7.142Y-1.6214
X7.142Y-1.9214
X7.142Y-2.2214
X7.142Y-2.7214
X7.142Y-3.0214
X7.142Y-3.3214
X7.142Y-3.6214
X7.242Y-1.3214
X7.242Y-1.6214
X7.242Y-1.9214
X7.242Y-2.2214
X7.242Y-2.7214
X7.242Y-3.0214
X7.242Y-3.3214
X7.242Y-3.6214
X7.492Y-0.9714
X7.492Y-1.0714
X7.492Y-2.4214
X7.492Y-2.5214
X7.492Y-3.8714
X7.492Y-3.9714
X7.792Y-0.9714
X7.792Y-1.0714
X7.792Y-2.4214
X7.792Y-2.5214
X7.792Y-3.8714
X7.792Y-3.9714
X8.092Y-0.9714
X8.092Y-1.0714
X8.092Y-2.4214
X8.092Y-2.5214
X8.092Y-3.8714
X8.092Y-3.9714
X8.392Y-0.9714
X8.392Y-1.0714
X8.392Y-2.4214
X8.392Y-2.5214
X8.392Y-3.8714
X8.392Y-3.9714
X8.642Y-1.3214
X8.642Y-1.6214
X8.642Y-1.9214
X8.642Y-2.2214
X8.642Y-2.7214
X8.642Y-3.0214
X8.642Y-3.3214
X8.642Y-3.6214
X8.742Y-1.3214
X8.742Y-1.6214
X8.742Y-1.9214
X8.742Y-2.2214
X8.742Y-2.7214
X8.742Y-3.0214
X8.742Y-3.3214
X8.742Y-3.6214
X9.042Y-1.3214
X9.042Y-1.6214
X9.042Y-1.9214
X9.042Y-2.2214
X9.042Y-2.7214
X9.042Y-3.0214
X9.042Y-3.3214
X9.042Y-3.6214
X9.142Y-1.3214
X9.142Y-1.6214
X9.142Y-1.9214
X9.142Y-2.2214
X9.142Y-2.7214
X9.142Y-3.0214
X9.142Y-3.3214
X9.142Y-3.6214
X9.392Y-0.9714
X9.392Y-1.0714
X9.392Y-2.4214
X9.392Y-2.5214
X9.392Y-3.8714
X9.392Y-3.9714
X9.692Y-0.9714
X9.692Y-1.0714
X9.692Y-2.4214
X9.692Y-2.5214
X9.692Y-3.8714
X9.692Y-3.9714
X9.992Y-0.9714
X9.992Y-1.0714
X9.992Y-2.4214
X9.992Y-2.5214
X9.992Y-3.8714
X9.992Y-3.9714
X10.292Y-0.9714
X10.292Y-1.0714
X10.292Y-2.4214
X10.292Y-2.5214
X10.292Y-3.8714
X10.292Y-3.9714
X10.542Y-1.3214
X10.542Y-1.6214
X10.542Y-1.9214
X10.542Y-2.2214
X10.542Y-2.7214
X10.542Y-3.0214
X10.542Y-3.3214
X10.542Y-3.6214
X10.642Y-1.3214
X10.642Y-1.6214
X10.642Y-1.9214
X10.642Y-2.2214
X10.642Y-2.7214
X10.642Y-3.0214
X10.642Y-3.3214
X10.642Y-3.6214
T4
X0.6028Y-1.9086
X0.6028Y-2.0086
X0.6028Y-2.1086
X0.6028Y-2.2086
X0.6028Y-2.3086
X0.6028Y-2.4086
X0.6028Y-2.5086
X0.6028Y-2.6086
X0.6028Y-2.7086
X0.6028Y-2.8086
X0.6028Y-2.9086
X0.6028Y-3.0086
T5
X1.29Y-1.1
X1.29Y-1.2
X1.29Y-1.3
X1.29Y-1.4
X1.29Y-1.5
X1.29Y-1.6
X1.29Y-1.7
X1.29Y-1.8
X1.29Y-1.9
X1.29Y-2.0
X1.29Y-2.1
X1.29Y-2.2
X1.29Y-2.3
X1.29Y-2.4
X1.29Y-2.5
X1.29Y-2.6
X1.29Y-2.7
X1.29Y-2.8
X1.29Y-2.9
X1.29Y-3.0
X1.54Y-2.9909
X1.64Y-2.9909
X1.74Y-2.9909
X1.99Y-1.1
X1.99Y-1.2
X1.99Y-1.3
X1.99Y-1.4
X1.99Y-1.5
X1.99Y-1.6
X1.99Y-1.7
X1.99Y-1.8
X1.99Y-1.9
X1.99Y-2.0
X1.99Y-2.1
X1.99Y-2.2
X1.99Y-2.3
X1.99Y-2.4
X1.99Y-2.5
X1.99Y-2.6
X1.99Y-2.7
X1.99Y-2.8
X1.99Y-2.9
X1.99Y-3.0
T6
X4.392Y-4.3828
X4.392Y-4.56
X4.648Y-4.3828
X4.648Y-4.56
X7.1141Y-4.3828
X7.1141Y-4.56
X7.37Y-4.3828
X7.37Y-4.56
X7.5641Y-4.3828
X7.5641Y-4.56
X7.82Y-4.3828
X7.82Y-4.56
X8.0141Y-4.3828
X8.0141Y-4.56
X8.27Y-4.3828
X8.27Y-4.56
X8.75Y-4.3828
X8.75Y-4.56
X9.0059Y-4.3828
X9.0059Y-4.56
T0
M30
