%TF.GenerationSoftware,KiCad,Pcbnew,(6.0.9-0)*%
%TF.CreationDate,2023-10-02T11:36:55-04:00*%
%TF.ProjectId,clock,636c6f63-6b2e-46b6-9963-61645f706362,rev?*%
%TF.SameCoordinates,Original*%
%TF.FileFunction,Drillmap*%
%TF.FilePolarity,Positive*%
%FSLAX45Y45*%
G04 Gerber Fmt 4.5, Leading zero omitted, Abs format (unit mm)*
G04 Created by KiCad (PCBNEW (6.0.9-0)) date 2023-10-02 11:36:55*
%MOMM*%
%LPD*%
G01*
G04 APERTURE LIST*
%ADD10C,0.100000*%
%ADD11C,0.200000*%
%ADD12C,0.150000*%
%ADD13C,0.180000*%
G04 APERTURE END LIST*
D10*
X2017404Y-11734800D02*
G75*
G03*
X2017404Y-11734800I-361002J0D01*
G01*
X2062802Y-1707202D02*
G75*
G03*
X2062802Y-1707202I-361002J0D01*
G01*
X28326402Y-1681802D02*
G75*
G03*
X28326402Y-1681802I-361002J0D01*
G01*
X28275602Y-11658600D02*
G75*
G03*
X28275602Y-11658600I-361002J0D01*
G01*
X1219200Y-1219200D02*
X28448000Y-1219200D01*
X28448000Y-1219200D02*
X28448000Y-12217400D01*
X28448000Y-12217400D02*
X1219200Y-12217400D01*
X1219200Y-12217400D02*
X1219200Y-1219200D01*
D11*
D12*
X4018900Y-4308600D02*
X4168900Y-4458600D01*
X4168900Y-4308600D02*
X4018900Y-4458600D01*
X4503900Y-4308600D02*
X4653900Y-4458600D01*
X4653900Y-4308600D02*
X4503900Y-4458600D01*
D13*
X4153900Y-4080600D02*
G75*
G03*
X4153900Y-4080600I-90000J0D01*
G01*
X4698900Y-4080600D02*
G75*
G03*
X4698900Y-4080600I-90000J0D01*
G01*
D11*
X1471819Y-12532876D02*
X1471819Y-12332876D01*
X1519438Y-12332876D01*
X1548009Y-12342400D01*
X1567057Y-12361448D01*
X1576581Y-12380495D01*
X1586105Y-12418590D01*
X1586105Y-12447162D01*
X1576581Y-12485257D01*
X1567057Y-12504305D01*
X1548009Y-12523352D01*
X1519438Y-12532876D01*
X1471819Y-12532876D01*
X1671819Y-12532876D02*
X1671819Y-12399543D01*
X1671819Y-12437638D02*
X1681343Y-12418590D01*
X1690867Y-12409067D01*
X1709914Y-12399543D01*
X1728962Y-12399543D01*
X1795628Y-12532876D02*
X1795628Y-12399543D01*
X1795628Y-12332876D02*
X1786105Y-12342400D01*
X1795628Y-12351924D01*
X1805152Y-12342400D01*
X1795628Y-12332876D01*
X1795628Y-12351924D01*
X1919438Y-12532876D02*
X1900390Y-12523352D01*
X1890867Y-12504305D01*
X1890867Y-12332876D01*
X2024200Y-12532876D02*
X2005152Y-12523352D01*
X1995628Y-12504305D01*
X1995628Y-12332876D01*
X2252771Y-12532876D02*
X2252771Y-12332876D01*
X2319438Y-12475733D01*
X2386105Y-12332876D01*
X2386105Y-12532876D01*
X2567057Y-12532876D02*
X2567057Y-12428114D01*
X2557533Y-12409067D01*
X2538486Y-12399543D01*
X2500390Y-12399543D01*
X2481343Y-12409067D01*
X2567057Y-12523352D02*
X2548010Y-12532876D01*
X2500390Y-12532876D01*
X2481343Y-12523352D01*
X2471819Y-12504305D01*
X2471819Y-12485257D01*
X2481343Y-12466209D01*
X2500390Y-12456686D01*
X2548010Y-12456686D01*
X2567057Y-12447162D01*
X2662295Y-12399543D02*
X2662295Y-12599543D01*
X2662295Y-12409067D02*
X2681343Y-12399543D01*
X2719438Y-12399543D01*
X2738486Y-12409067D01*
X2748010Y-12418590D01*
X2757533Y-12437638D01*
X2757533Y-12494781D01*
X2748010Y-12513828D01*
X2738486Y-12523352D01*
X2719438Y-12532876D01*
X2681343Y-12532876D01*
X2662295Y-12523352D01*
X2843248Y-12513828D02*
X2852771Y-12523352D01*
X2843248Y-12532876D01*
X2833724Y-12523352D01*
X2843248Y-12513828D01*
X2843248Y-12532876D01*
X2843248Y-12409067D02*
X2852771Y-12418590D01*
X2843248Y-12428114D01*
X2833724Y-12418590D01*
X2843248Y-12409067D01*
X2843248Y-12428114D01*
D12*
X1064200Y-12787400D02*
X1214200Y-12937400D01*
X1214200Y-12787400D02*
X1064200Y-12937400D01*
D11*
X1576581Y-12952876D02*
X1462295Y-12952876D01*
X1519438Y-12952876D02*
X1519438Y-12752876D01*
X1500390Y-12781448D01*
X1481343Y-12800495D01*
X1462295Y-12810019D01*
X1662295Y-12933828D02*
X1671819Y-12943352D01*
X1662295Y-12952876D01*
X1652771Y-12943352D01*
X1662295Y-12933828D01*
X1662295Y-12952876D01*
X1852771Y-12752876D02*
X1757533Y-12752876D01*
X1748009Y-12848114D01*
X1757533Y-12838590D01*
X1776581Y-12829067D01*
X1824200Y-12829067D01*
X1843248Y-12838590D01*
X1852771Y-12848114D01*
X1862295Y-12867162D01*
X1862295Y-12914781D01*
X1852771Y-12933828D01*
X1843248Y-12943352D01*
X1824200Y-12952876D01*
X1776581Y-12952876D01*
X1757533Y-12943352D01*
X1748009Y-12933828D01*
X1986105Y-12752876D02*
X2005152Y-12752876D01*
X2024200Y-12762400D01*
X2033724Y-12771924D01*
X2043248Y-12790971D01*
X2052771Y-12829067D01*
X2052771Y-12876686D01*
X2043248Y-12914781D01*
X2033724Y-12933828D01*
X2024200Y-12943352D01*
X2005152Y-12952876D01*
X1986105Y-12952876D01*
X1967057Y-12943352D01*
X1957533Y-12933828D01*
X1948009Y-12914781D01*
X1938486Y-12876686D01*
X1938486Y-12829067D01*
X1948009Y-12790971D01*
X1957533Y-12771924D01*
X1967057Y-12762400D01*
X1986105Y-12752876D01*
X2176581Y-12752876D02*
X2195629Y-12752876D01*
X2214676Y-12762400D01*
X2224200Y-12771924D01*
X2233724Y-12790971D01*
X2243248Y-12829067D01*
X2243248Y-12876686D01*
X2233724Y-12914781D01*
X2224200Y-12933828D01*
X2214676Y-12943352D01*
X2195629Y-12952876D01*
X2176581Y-12952876D01*
X2157533Y-12943352D01*
X2148010Y-12933828D01*
X2138486Y-12914781D01*
X2128962Y-12876686D01*
X2128962Y-12829067D01*
X2138486Y-12790971D01*
X2148010Y-12771924D01*
X2157533Y-12762400D01*
X2176581Y-12752876D01*
X2328962Y-12952876D02*
X2328962Y-12819543D01*
X2328962Y-12838590D02*
X2338486Y-12829067D01*
X2357533Y-12819543D01*
X2386105Y-12819543D01*
X2405152Y-12829067D01*
X2414676Y-12848114D01*
X2414676Y-12952876D01*
X2414676Y-12848114D02*
X2424200Y-12829067D01*
X2443248Y-12819543D01*
X2471819Y-12819543D01*
X2490867Y-12829067D01*
X2500390Y-12848114D01*
X2500390Y-12952876D01*
X2595629Y-12952876D02*
X2595629Y-12819543D01*
X2595629Y-12838590D02*
X2605152Y-12829067D01*
X2624200Y-12819543D01*
X2652771Y-12819543D01*
X2671819Y-12829067D01*
X2681343Y-12848114D01*
X2681343Y-12952876D01*
X2681343Y-12848114D02*
X2690867Y-12829067D01*
X2709914Y-12819543D01*
X2738486Y-12819543D01*
X2757533Y-12829067D01*
X2767057Y-12848114D01*
X2767057Y-12952876D01*
X3157533Y-12743352D02*
X2986105Y-13000495D01*
X3414676Y-12752876D02*
X3433724Y-12752876D01*
X3452771Y-12762400D01*
X3462295Y-12771924D01*
X3471819Y-12790971D01*
X3481343Y-12829067D01*
X3481343Y-12876686D01*
X3471819Y-12914781D01*
X3462295Y-12933828D01*
X3452771Y-12943352D01*
X3433724Y-12952876D01*
X3414676Y-12952876D01*
X3395628Y-12943352D01*
X3386105Y-12933828D01*
X3376581Y-12914781D01*
X3367057Y-12876686D01*
X3367057Y-12829067D01*
X3376581Y-12790971D01*
X3386105Y-12771924D01*
X3395628Y-12762400D01*
X3414676Y-12752876D01*
X3567057Y-12933828D02*
X3576581Y-12943352D01*
X3567057Y-12952876D01*
X3557533Y-12943352D01*
X3567057Y-12933828D01*
X3567057Y-12952876D01*
X3700390Y-12752876D02*
X3719438Y-12752876D01*
X3738486Y-12762400D01*
X3748009Y-12771924D01*
X3757533Y-12790971D01*
X3767057Y-12829067D01*
X3767057Y-12876686D01*
X3757533Y-12914781D01*
X3748009Y-12933828D01*
X3738486Y-12943352D01*
X3719438Y-12952876D01*
X3700390Y-12952876D01*
X3681343Y-12943352D01*
X3671819Y-12933828D01*
X3662295Y-12914781D01*
X3652771Y-12876686D01*
X3652771Y-12829067D01*
X3662295Y-12790971D01*
X3671819Y-12771924D01*
X3681343Y-12762400D01*
X3700390Y-12752876D01*
X3948009Y-12752876D02*
X3852771Y-12752876D01*
X3843248Y-12848114D01*
X3852771Y-12838590D01*
X3871819Y-12829067D01*
X3919438Y-12829067D01*
X3938486Y-12838590D01*
X3948009Y-12848114D01*
X3957533Y-12867162D01*
X3957533Y-12914781D01*
X3948009Y-12933828D01*
X3938486Y-12943352D01*
X3919438Y-12952876D01*
X3871819Y-12952876D01*
X3852771Y-12943352D01*
X3843248Y-12933828D01*
X4052771Y-12952876D02*
X4090867Y-12952876D01*
X4109914Y-12943352D01*
X4119438Y-12933828D01*
X4138486Y-12905257D01*
X4148009Y-12867162D01*
X4148009Y-12790971D01*
X4138486Y-12771924D01*
X4128962Y-12762400D01*
X4109914Y-12752876D01*
X4071819Y-12752876D01*
X4052771Y-12762400D01*
X4043248Y-12771924D01*
X4033724Y-12790971D01*
X4033724Y-12838590D01*
X4043248Y-12857638D01*
X4052771Y-12867162D01*
X4071819Y-12876686D01*
X4109914Y-12876686D01*
X4128962Y-12867162D01*
X4138486Y-12857638D01*
X4148009Y-12838590D01*
X4338486Y-12952876D02*
X4224200Y-12952876D01*
X4281343Y-12952876D02*
X4281343Y-12752876D01*
X4262295Y-12781448D01*
X4243248Y-12800495D01*
X4224200Y-12810019D01*
X4414676Y-12752876D02*
X4414676Y-12790971D01*
X4490867Y-12752876D02*
X4490867Y-12790971D01*
X4786105Y-13029067D02*
X4776581Y-13019543D01*
X4757533Y-12990971D01*
X4748010Y-12971924D01*
X4738486Y-12943352D01*
X4728962Y-12895733D01*
X4728962Y-12857638D01*
X4738486Y-12810019D01*
X4748010Y-12781448D01*
X4757533Y-12762400D01*
X4776581Y-12733828D01*
X4786105Y-12724305D01*
X4852771Y-12771924D02*
X4862295Y-12762400D01*
X4881343Y-12752876D01*
X4928962Y-12752876D01*
X4948010Y-12762400D01*
X4957533Y-12771924D01*
X4967057Y-12790971D01*
X4967057Y-12810019D01*
X4957533Y-12838590D01*
X4843248Y-12952876D01*
X4967057Y-12952876D01*
X5205152Y-12952876D02*
X5205152Y-12752876D01*
X5290867Y-12952876D02*
X5290867Y-12848114D01*
X5281343Y-12829067D01*
X5262295Y-12819543D01*
X5233724Y-12819543D01*
X5214676Y-12829067D01*
X5205152Y-12838590D01*
X5414676Y-12952876D02*
X5395629Y-12943352D01*
X5386105Y-12933828D01*
X5376581Y-12914781D01*
X5376581Y-12857638D01*
X5386105Y-12838590D01*
X5395629Y-12829067D01*
X5414676Y-12819543D01*
X5443248Y-12819543D01*
X5462295Y-12829067D01*
X5471819Y-12838590D01*
X5481343Y-12857638D01*
X5481343Y-12914781D01*
X5471819Y-12933828D01*
X5462295Y-12943352D01*
X5443248Y-12952876D01*
X5414676Y-12952876D01*
X5595628Y-12952876D02*
X5576581Y-12943352D01*
X5567057Y-12924305D01*
X5567057Y-12752876D01*
X5748009Y-12943352D02*
X5728962Y-12952876D01*
X5690867Y-12952876D01*
X5671819Y-12943352D01*
X5662295Y-12924305D01*
X5662295Y-12848114D01*
X5671819Y-12829067D01*
X5690867Y-12819543D01*
X5728962Y-12819543D01*
X5748009Y-12829067D01*
X5757533Y-12848114D01*
X5757533Y-12867162D01*
X5662295Y-12886209D01*
X5833724Y-12943352D02*
X5852771Y-12952876D01*
X5890867Y-12952876D01*
X5909914Y-12943352D01*
X5919438Y-12924305D01*
X5919438Y-12914781D01*
X5909914Y-12895733D01*
X5890867Y-12886209D01*
X5862295Y-12886209D01*
X5843248Y-12876686D01*
X5833724Y-12857638D01*
X5833724Y-12848114D01*
X5843248Y-12829067D01*
X5862295Y-12819543D01*
X5890867Y-12819543D01*
X5909914Y-12829067D01*
X5986105Y-13029067D02*
X5995628Y-13019543D01*
X6014676Y-12990971D01*
X6024200Y-12971924D01*
X6033724Y-12943352D01*
X6043248Y-12895733D01*
X6043248Y-12857638D01*
X6033724Y-12810019D01*
X6024200Y-12781448D01*
X6014676Y-12762400D01*
X5995628Y-12733828D01*
X5986105Y-12724305D01*
X6348009Y-13029067D02*
X6338486Y-13019543D01*
X6319438Y-12990971D01*
X6309914Y-12971924D01*
X6300390Y-12943352D01*
X6290867Y-12895733D01*
X6290867Y-12857638D01*
X6300390Y-12810019D01*
X6309914Y-12781448D01*
X6319438Y-12762400D01*
X6338486Y-12733828D01*
X6348009Y-12724305D01*
X6424200Y-12819543D02*
X6424200Y-12952876D01*
X6424200Y-12838590D02*
X6433724Y-12829067D01*
X6452771Y-12819543D01*
X6481343Y-12819543D01*
X6500390Y-12829067D01*
X6509914Y-12848114D01*
X6509914Y-12952876D01*
X6633724Y-12952876D02*
X6614676Y-12943352D01*
X6605152Y-12933828D01*
X6595628Y-12914781D01*
X6595628Y-12857638D01*
X6605152Y-12838590D01*
X6614676Y-12829067D01*
X6633724Y-12819543D01*
X6662295Y-12819543D01*
X6681343Y-12829067D01*
X6690867Y-12838590D01*
X6700390Y-12857638D01*
X6700390Y-12914781D01*
X6690867Y-12933828D01*
X6681343Y-12943352D01*
X6662295Y-12952876D01*
X6633724Y-12952876D01*
X6757533Y-12819543D02*
X6833724Y-12819543D01*
X6786105Y-12752876D02*
X6786105Y-12924305D01*
X6795628Y-12943352D01*
X6814676Y-12952876D01*
X6833724Y-12952876D01*
X7052771Y-12819543D02*
X7052771Y-13019543D01*
X7052771Y-12829067D02*
X7071819Y-12819543D01*
X7109914Y-12819543D01*
X7128962Y-12829067D01*
X7138486Y-12838590D01*
X7148009Y-12857638D01*
X7148009Y-12914781D01*
X7138486Y-12933828D01*
X7128962Y-12943352D01*
X7109914Y-12952876D01*
X7071819Y-12952876D01*
X7052771Y-12943352D01*
X7262295Y-12952876D02*
X7243248Y-12943352D01*
X7233724Y-12924305D01*
X7233724Y-12752876D01*
X7424200Y-12952876D02*
X7424200Y-12848114D01*
X7414676Y-12829067D01*
X7395628Y-12819543D01*
X7357533Y-12819543D01*
X7338486Y-12829067D01*
X7424200Y-12943352D02*
X7405152Y-12952876D01*
X7357533Y-12952876D01*
X7338486Y-12943352D01*
X7328962Y-12924305D01*
X7328962Y-12905257D01*
X7338486Y-12886209D01*
X7357533Y-12876686D01*
X7405152Y-12876686D01*
X7424200Y-12867162D01*
X7490867Y-12819543D02*
X7567057Y-12819543D01*
X7519438Y-12752876D02*
X7519438Y-12924305D01*
X7528962Y-12943352D01*
X7548009Y-12952876D01*
X7567057Y-12952876D01*
X7709914Y-12943352D02*
X7690867Y-12952876D01*
X7652771Y-12952876D01*
X7633724Y-12943352D01*
X7624200Y-12924305D01*
X7624200Y-12848114D01*
X7633724Y-12829067D01*
X7652771Y-12819543D01*
X7690867Y-12819543D01*
X7709914Y-12829067D01*
X7719438Y-12848114D01*
X7719438Y-12867162D01*
X7624200Y-12886209D01*
X7890867Y-12952876D02*
X7890867Y-12752876D01*
X7890867Y-12943352D02*
X7871819Y-12952876D01*
X7833724Y-12952876D01*
X7814676Y-12943352D01*
X7805152Y-12933828D01*
X7795628Y-12914781D01*
X7795628Y-12857638D01*
X7805152Y-12838590D01*
X7814676Y-12829067D01*
X7833724Y-12819543D01*
X7871819Y-12819543D01*
X7890867Y-12829067D01*
X7967057Y-13029067D02*
X7976581Y-13019543D01*
X7995628Y-12990971D01*
X8005152Y-12971924D01*
X8014676Y-12943352D01*
X8024200Y-12895733D01*
X8024200Y-12857638D01*
X8014676Y-12810019D01*
X8005152Y-12781448D01*
X7995628Y-12762400D01*
X7976581Y-12733828D01*
X7967057Y-12724305D01*
D13*
X1214200Y-13132400D02*
G75*
G03*
X1214200Y-13132400I-90000J0D01*
G01*
D11*
X1576581Y-13222876D02*
X1462295Y-13222876D01*
X1519438Y-13222876D02*
X1519438Y-13022876D01*
X1500390Y-13051448D01*
X1481343Y-13070495D01*
X1462295Y-13080019D01*
X1662295Y-13203828D02*
X1671819Y-13213352D01*
X1662295Y-13222876D01*
X1652771Y-13213352D01*
X1662295Y-13203828D01*
X1662295Y-13222876D01*
X1786105Y-13108590D02*
X1767057Y-13099067D01*
X1757533Y-13089543D01*
X1748009Y-13070495D01*
X1748009Y-13060971D01*
X1757533Y-13041924D01*
X1767057Y-13032400D01*
X1786105Y-13022876D01*
X1824200Y-13022876D01*
X1843248Y-13032400D01*
X1852771Y-13041924D01*
X1862295Y-13060971D01*
X1862295Y-13070495D01*
X1852771Y-13089543D01*
X1843248Y-13099067D01*
X1824200Y-13108590D01*
X1786105Y-13108590D01*
X1767057Y-13118114D01*
X1757533Y-13127638D01*
X1748009Y-13146686D01*
X1748009Y-13184781D01*
X1757533Y-13203828D01*
X1767057Y-13213352D01*
X1786105Y-13222876D01*
X1824200Y-13222876D01*
X1843248Y-13213352D01*
X1852771Y-13203828D01*
X1862295Y-13184781D01*
X1862295Y-13146686D01*
X1852771Y-13127638D01*
X1843248Y-13118114D01*
X1824200Y-13108590D01*
X1986105Y-13022876D02*
X2005152Y-13022876D01*
X2024200Y-13032400D01*
X2033724Y-13041924D01*
X2043248Y-13060971D01*
X2052771Y-13099067D01*
X2052771Y-13146686D01*
X2043248Y-13184781D01*
X2033724Y-13203828D01*
X2024200Y-13213352D01*
X2005152Y-13222876D01*
X1986105Y-13222876D01*
X1967057Y-13213352D01*
X1957533Y-13203828D01*
X1948009Y-13184781D01*
X1938486Y-13146686D01*
X1938486Y-13099067D01*
X1948009Y-13060971D01*
X1957533Y-13041924D01*
X1967057Y-13032400D01*
X1986105Y-13022876D01*
X2176581Y-13022876D02*
X2195629Y-13022876D01*
X2214676Y-13032400D01*
X2224200Y-13041924D01*
X2233724Y-13060971D01*
X2243248Y-13099067D01*
X2243248Y-13146686D01*
X2233724Y-13184781D01*
X2224200Y-13203828D01*
X2214676Y-13213352D01*
X2195629Y-13222876D01*
X2176581Y-13222876D01*
X2157533Y-13213352D01*
X2148010Y-13203828D01*
X2138486Y-13184781D01*
X2128962Y-13146686D01*
X2128962Y-13099067D01*
X2138486Y-13060971D01*
X2148010Y-13041924D01*
X2157533Y-13032400D01*
X2176581Y-13022876D01*
X2328962Y-13222876D02*
X2328962Y-13089543D01*
X2328962Y-13108590D02*
X2338486Y-13099067D01*
X2357533Y-13089543D01*
X2386105Y-13089543D01*
X2405152Y-13099067D01*
X2414676Y-13118114D01*
X2414676Y-13222876D01*
X2414676Y-13118114D02*
X2424200Y-13099067D01*
X2443248Y-13089543D01*
X2471819Y-13089543D01*
X2490867Y-13099067D01*
X2500390Y-13118114D01*
X2500390Y-13222876D01*
X2595629Y-13222876D02*
X2595629Y-13089543D01*
X2595629Y-13108590D02*
X2605152Y-13099067D01*
X2624200Y-13089543D01*
X2652771Y-13089543D01*
X2671819Y-13099067D01*
X2681343Y-13118114D01*
X2681343Y-13222876D01*
X2681343Y-13118114D02*
X2690867Y-13099067D01*
X2709914Y-13089543D01*
X2738486Y-13089543D01*
X2757533Y-13099067D01*
X2767057Y-13118114D01*
X2767057Y-13222876D01*
X3157533Y-13013352D02*
X2986105Y-13270495D01*
X3414676Y-13022876D02*
X3433724Y-13022876D01*
X3452771Y-13032400D01*
X3462295Y-13041924D01*
X3471819Y-13060971D01*
X3481343Y-13099067D01*
X3481343Y-13146686D01*
X3471819Y-13184781D01*
X3462295Y-13203828D01*
X3452771Y-13213352D01*
X3433724Y-13222876D01*
X3414676Y-13222876D01*
X3395628Y-13213352D01*
X3386105Y-13203828D01*
X3376581Y-13184781D01*
X3367057Y-13146686D01*
X3367057Y-13099067D01*
X3376581Y-13060971D01*
X3386105Y-13041924D01*
X3395628Y-13032400D01*
X3414676Y-13022876D01*
X3567057Y-13203828D02*
X3576581Y-13213352D01*
X3567057Y-13222876D01*
X3557533Y-13213352D01*
X3567057Y-13203828D01*
X3567057Y-13222876D01*
X3700390Y-13022876D02*
X3719438Y-13022876D01*
X3738486Y-13032400D01*
X3748009Y-13041924D01*
X3757533Y-13060971D01*
X3767057Y-13099067D01*
X3767057Y-13146686D01*
X3757533Y-13184781D01*
X3748009Y-13203828D01*
X3738486Y-13213352D01*
X3719438Y-13222876D01*
X3700390Y-13222876D01*
X3681343Y-13213352D01*
X3671819Y-13203828D01*
X3662295Y-13184781D01*
X3652771Y-13146686D01*
X3652771Y-13099067D01*
X3662295Y-13060971D01*
X3671819Y-13041924D01*
X3681343Y-13032400D01*
X3700390Y-13022876D01*
X3833724Y-13022876D02*
X3967057Y-13022876D01*
X3881343Y-13222876D01*
X4081343Y-13022876D02*
X4100390Y-13022876D01*
X4119438Y-13032400D01*
X4128962Y-13041924D01*
X4138486Y-13060971D01*
X4148009Y-13099067D01*
X4148009Y-13146686D01*
X4138486Y-13184781D01*
X4128962Y-13203828D01*
X4119438Y-13213352D01*
X4100390Y-13222876D01*
X4081343Y-13222876D01*
X4062295Y-13213352D01*
X4052771Y-13203828D01*
X4043248Y-13184781D01*
X4033724Y-13146686D01*
X4033724Y-13099067D01*
X4043248Y-13060971D01*
X4052771Y-13041924D01*
X4062295Y-13032400D01*
X4081343Y-13022876D01*
X4243248Y-13222876D02*
X4281343Y-13222876D01*
X4300390Y-13213352D01*
X4309914Y-13203828D01*
X4328962Y-13175257D01*
X4338486Y-13137162D01*
X4338486Y-13060971D01*
X4328962Y-13041924D01*
X4319438Y-13032400D01*
X4300390Y-13022876D01*
X4262295Y-13022876D01*
X4243248Y-13032400D01*
X4233724Y-13041924D01*
X4224200Y-13060971D01*
X4224200Y-13108590D01*
X4233724Y-13127638D01*
X4243248Y-13137162D01*
X4262295Y-13146686D01*
X4300390Y-13146686D01*
X4319438Y-13137162D01*
X4328962Y-13127638D01*
X4338486Y-13108590D01*
X4414676Y-13022876D02*
X4414676Y-13060971D01*
X4490867Y-13022876D02*
X4490867Y-13060971D01*
X4786105Y-13299067D02*
X4776581Y-13289543D01*
X4757533Y-13260971D01*
X4748010Y-13241924D01*
X4738486Y-13213352D01*
X4728962Y-13165733D01*
X4728962Y-13127638D01*
X4738486Y-13080019D01*
X4748010Y-13051448D01*
X4757533Y-13032400D01*
X4776581Y-13003828D01*
X4786105Y-12994305D01*
X4852771Y-13041924D02*
X4862295Y-13032400D01*
X4881343Y-13022876D01*
X4928962Y-13022876D01*
X4948010Y-13032400D01*
X4957533Y-13041924D01*
X4967057Y-13060971D01*
X4967057Y-13080019D01*
X4957533Y-13108590D01*
X4843248Y-13222876D01*
X4967057Y-13222876D01*
X5205152Y-13222876D02*
X5205152Y-13022876D01*
X5290867Y-13222876D02*
X5290867Y-13118114D01*
X5281343Y-13099067D01*
X5262295Y-13089543D01*
X5233724Y-13089543D01*
X5214676Y-13099067D01*
X5205152Y-13108590D01*
X5414676Y-13222876D02*
X5395629Y-13213352D01*
X5386105Y-13203828D01*
X5376581Y-13184781D01*
X5376581Y-13127638D01*
X5386105Y-13108590D01*
X5395629Y-13099067D01*
X5414676Y-13089543D01*
X5443248Y-13089543D01*
X5462295Y-13099067D01*
X5471819Y-13108590D01*
X5481343Y-13127638D01*
X5481343Y-13184781D01*
X5471819Y-13203828D01*
X5462295Y-13213352D01*
X5443248Y-13222876D01*
X5414676Y-13222876D01*
X5595628Y-13222876D02*
X5576581Y-13213352D01*
X5567057Y-13194305D01*
X5567057Y-13022876D01*
X5748009Y-13213352D02*
X5728962Y-13222876D01*
X5690867Y-13222876D01*
X5671819Y-13213352D01*
X5662295Y-13194305D01*
X5662295Y-13118114D01*
X5671819Y-13099067D01*
X5690867Y-13089543D01*
X5728962Y-13089543D01*
X5748009Y-13099067D01*
X5757533Y-13118114D01*
X5757533Y-13137162D01*
X5662295Y-13156209D01*
X5833724Y-13213352D02*
X5852771Y-13222876D01*
X5890867Y-13222876D01*
X5909914Y-13213352D01*
X5919438Y-13194305D01*
X5919438Y-13184781D01*
X5909914Y-13165733D01*
X5890867Y-13156209D01*
X5862295Y-13156209D01*
X5843248Y-13146686D01*
X5833724Y-13127638D01*
X5833724Y-13118114D01*
X5843248Y-13099067D01*
X5862295Y-13089543D01*
X5890867Y-13089543D01*
X5909914Y-13099067D01*
X5986105Y-13299067D02*
X5995628Y-13289543D01*
X6014676Y-13260971D01*
X6024200Y-13241924D01*
X6033724Y-13213352D01*
X6043248Y-13165733D01*
X6043248Y-13127638D01*
X6033724Y-13080019D01*
X6024200Y-13051448D01*
X6014676Y-13032400D01*
X5995628Y-13003828D01*
X5986105Y-12994305D01*
X6348009Y-13299067D02*
X6338486Y-13289543D01*
X6319438Y-13260971D01*
X6309914Y-13241924D01*
X6300390Y-13213352D01*
X6290867Y-13165733D01*
X6290867Y-13127638D01*
X6300390Y-13080019D01*
X6309914Y-13051448D01*
X6319438Y-13032400D01*
X6338486Y-13003828D01*
X6348009Y-12994305D01*
X6424200Y-13089543D02*
X6424200Y-13222876D01*
X6424200Y-13108590D02*
X6433724Y-13099067D01*
X6452771Y-13089543D01*
X6481343Y-13089543D01*
X6500390Y-13099067D01*
X6509914Y-13118114D01*
X6509914Y-13222876D01*
X6633724Y-13222876D02*
X6614676Y-13213352D01*
X6605152Y-13203828D01*
X6595628Y-13184781D01*
X6595628Y-13127638D01*
X6605152Y-13108590D01*
X6614676Y-13099067D01*
X6633724Y-13089543D01*
X6662295Y-13089543D01*
X6681343Y-13099067D01*
X6690867Y-13108590D01*
X6700390Y-13127638D01*
X6700390Y-13184781D01*
X6690867Y-13203828D01*
X6681343Y-13213352D01*
X6662295Y-13222876D01*
X6633724Y-13222876D01*
X6757533Y-13089543D02*
X6833724Y-13089543D01*
X6786105Y-13022876D02*
X6786105Y-13194305D01*
X6795628Y-13213352D01*
X6814676Y-13222876D01*
X6833724Y-13222876D01*
X7052771Y-13089543D02*
X7052771Y-13289543D01*
X7052771Y-13099067D02*
X7071819Y-13089543D01*
X7109914Y-13089543D01*
X7128962Y-13099067D01*
X7138486Y-13108590D01*
X7148009Y-13127638D01*
X7148009Y-13184781D01*
X7138486Y-13203828D01*
X7128962Y-13213352D01*
X7109914Y-13222876D01*
X7071819Y-13222876D01*
X7052771Y-13213352D01*
X7262295Y-13222876D02*
X7243248Y-13213352D01*
X7233724Y-13194305D01*
X7233724Y-13022876D01*
X7424200Y-13222876D02*
X7424200Y-13118114D01*
X7414676Y-13099067D01*
X7395628Y-13089543D01*
X7357533Y-13089543D01*
X7338486Y-13099067D01*
X7424200Y-13213352D02*
X7405152Y-13222876D01*
X7357533Y-13222876D01*
X7338486Y-13213352D01*
X7328962Y-13194305D01*
X7328962Y-13175257D01*
X7338486Y-13156209D01*
X7357533Y-13146686D01*
X7405152Y-13146686D01*
X7424200Y-13137162D01*
X7490867Y-13089543D02*
X7567057Y-13089543D01*
X7519438Y-13022876D02*
X7519438Y-13194305D01*
X7528962Y-13213352D01*
X7548009Y-13222876D01*
X7567057Y-13222876D01*
X7709914Y-13213352D02*
X7690867Y-13222876D01*
X7652771Y-13222876D01*
X7633724Y-13213352D01*
X7624200Y-13194305D01*
X7624200Y-13118114D01*
X7633724Y-13099067D01*
X7652771Y-13089543D01*
X7690867Y-13089543D01*
X7709914Y-13099067D01*
X7719438Y-13118114D01*
X7719438Y-13137162D01*
X7624200Y-13156209D01*
X7890867Y-13222876D02*
X7890867Y-13022876D01*
X7890867Y-13213352D02*
X7871819Y-13222876D01*
X7833724Y-13222876D01*
X7814676Y-13213352D01*
X7805152Y-13203828D01*
X7795628Y-13184781D01*
X7795628Y-13127638D01*
X7805152Y-13108590D01*
X7814676Y-13099067D01*
X7833724Y-13089543D01*
X7871819Y-13089543D01*
X7890867Y-13099067D01*
X7967057Y-13299067D02*
X7976581Y-13289543D01*
X7995628Y-13260971D01*
X8005152Y-13241924D01*
X8014676Y-13213352D01*
X8024200Y-13165733D01*
X8024200Y-13127638D01*
X8014676Y-13080019D01*
X8005152Y-13051448D01*
X7995628Y-13032400D01*
X7976581Y-13003828D01*
X7967057Y-12994305D01*
M02*
