%TF.GenerationSoftware,KiCad,Pcbnew,(6.0.9-0)*%
%TF.CreationDate,2023-10-19T19:17:49-04:00*%
%TF.ProjectId,clock,636c6f63-6b2e-46b6-9963-61645f706362,rev?*%
%TF.SameCoordinates,Original*%
%TF.FileFunction,Legend,Top*%
%TF.FilePolarity,Positive*%
%FSLAX46Y46*%
G04 Gerber Fmt 4.6, Leading zero omitted, Abs format (unit mm)*
G04 Created by KiCad (PCBNEW (6.0.9-0)) date 2023-10-19 19:17:49*
%MOMM*%
%LPD*%
G01*
G04 APERTURE LIST*
%ADD10C,0.150000*%
%ADD11C,0.300000*%
%ADD12C,3.377000*%
%ADD13C,0.120000*%
G04 APERTURE END LIST*
D10*
X17232476Y-71826380D02*
X17232476Y-70826380D01*
X17803904Y-71826380D01*
X17803904Y-70826380D01*
X18994380Y-70778761D02*
X18137238Y-72064476D01*
X19899142Y-71731142D02*
X19851523Y-71778761D01*
X19708666Y-71826380D01*
X19613428Y-71826380D01*
X19470571Y-71778761D01*
X19375333Y-71683523D01*
X19327714Y-71588285D01*
X19280095Y-71397809D01*
X19280095Y-71254952D01*
X19327714Y-71064476D01*
X19375333Y-70969238D01*
X19470571Y-70874000D01*
X19613428Y-70826380D01*
X19708666Y-70826380D01*
X19851523Y-70874000D01*
X19899142Y-70921619D01*
X244221904Y-109005714D02*
X244412380Y-109672380D01*
X244602857Y-109196190D01*
X244793333Y-109672380D01*
X244983809Y-109005714D01*
X245364761Y-109672380D02*
X245364761Y-109005714D01*
X245364761Y-109196190D02*
X245412380Y-109100952D01*
X245460000Y-109053333D01*
X245555238Y-109005714D01*
X245650476Y-109005714D01*
X245983809Y-109672380D02*
X245983809Y-109005714D01*
X245983809Y-108672380D02*
X245936190Y-108720000D01*
X245983809Y-108767619D01*
X246031428Y-108720000D01*
X245983809Y-108672380D01*
X245983809Y-108767619D01*
X246317142Y-109005714D02*
X246698095Y-109005714D01*
X246460000Y-108672380D02*
X246460000Y-109529523D01*
X246507619Y-109624761D01*
X246602857Y-109672380D01*
X246698095Y-109672380D01*
X247412380Y-109624761D02*
X247317142Y-109672380D01*
X247126666Y-109672380D01*
X247031428Y-109624761D01*
X246983809Y-109529523D01*
X246983809Y-109148571D01*
X247031428Y-109053333D01*
X247126666Y-109005714D01*
X247317142Y-109005714D01*
X247412380Y-109053333D01*
X247460000Y-109148571D01*
X247460000Y-109243809D01*
X246983809Y-109339047D01*
X247793333Y-109005714D02*
X248031428Y-109672380D01*
X248269523Y-109005714D02*
X248031428Y-109672380D01*
X247936190Y-109910476D01*
X247888571Y-109958095D01*
X247793333Y-110005714D01*
X249364761Y-108624761D02*
X248507619Y-109910476D01*
X249650476Y-109624761D02*
X249745714Y-109672380D01*
X249936190Y-109672380D01*
X250031428Y-109624761D01*
X250079047Y-109529523D01*
X250079047Y-109481904D01*
X250031428Y-109386666D01*
X249936190Y-109339047D01*
X249793333Y-109339047D01*
X249698095Y-109291428D01*
X249650476Y-109196190D01*
X249650476Y-109148571D01*
X249698095Y-109053333D01*
X249793333Y-109005714D01*
X249936190Y-109005714D01*
X250031428Y-109053333D01*
X250364761Y-109005714D02*
X250745714Y-109005714D01*
X250507619Y-108672380D02*
X250507619Y-109529523D01*
X250555238Y-109624761D01*
X250650476Y-109672380D01*
X250745714Y-109672380D01*
X251079047Y-109672380D02*
X251079047Y-109005714D01*
X251079047Y-108672380D02*
X251031428Y-108720000D01*
X251079047Y-108767619D01*
X251126666Y-108720000D01*
X251079047Y-108672380D01*
X251079047Y-108767619D01*
X251983809Y-109624761D02*
X251888571Y-109672380D01*
X251698095Y-109672380D01*
X251602857Y-109624761D01*
X251555238Y-109577142D01*
X251507619Y-109481904D01*
X251507619Y-109196190D01*
X251555238Y-109100952D01*
X251602857Y-109053333D01*
X251698095Y-109005714D01*
X251888571Y-109005714D01*
X251983809Y-109053333D01*
X252412380Y-109672380D02*
X252412380Y-108672380D01*
X252507619Y-109291428D02*
X252793333Y-109672380D01*
X252793333Y-109005714D02*
X252412380Y-109386666D01*
X253126666Y-109005714D02*
X253364761Y-109672380D01*
X253602857Y-109005714D02*
X253364761Y-109672380D01*
X253269523Y-109910476D01*
X253221904Y-109958095D01*
X253126666Y-110005714D01*
X254698095Y-109624761D02*
X254793333Y-109672380D01*
X254983809Y-109672380D01*
X255079047Y-109624761D01*
X255126666Y-109529523D01*
X255126666Y-109481904D01*
X255079047Y-109386666D01*
X254983809Y-109339047D01*
X254840952Y-109339047D01*
X254745714Y-109291428D01*
X254698095Y-109196190D01*
X254698095Y-109148571D01*
X254745714Y-109053333D01*
X254840952Y-109005714D01*
X254983809Y-109005714D01*
X255079047Y-109053333D01*
X255555238Y-109005714D02*
X255555238Y-110005714D01*
X255555238Y-109053333D02*
X255650476Y-109005714D01*
X255840952Y-109005714D01*
X255936190Y-109053333D01*
X255983809Y-109100952D01*
X256031428Y-109196190D01*
X256031428Y-109481904D01*
X255983809Y-109577142D01*
X255936190Y-109624761D01*
X255840952Y-109672380D01*
X255650476Y-109672380D01*
X255555238Y-109624761D01*
X256888571Y-109672380D02*
X256888571Y-109148571D01*
X256840952Y-109053333D01*
X256745714Y-109005714D01*
X256555238Y-109005714D01*
X256460000Y-109053333D01*
X256888571Y-109624761D02*
X256793333Y-109672380D01*
X256555238Y-109672380D01*
X256460000Y-109624761D01*
X256412380Y-109529523D01*
X256412380Y-109434285D01*
X256460000Y-109339047D01*
X256555238Y-109291428D01*
X256793333Y-109291428D01*
X256888571Y-109243809D01*
X257793333Y-109624761D02*
X257698095Y-109672380D01*
X257507619Y-109672380D01*
X257412380Y-109624761D01*
X257364761Y-109577142D01*
X257317142Y-109481904D01*
X257317142Y-109196190D01*
X257364761Y-109100952D01*
X257412380Y-109053333D01*
X257507619Y-109005714D01*
X257698095Y-109005714D01*
X257793333Y-109053333D01*
X258602857Y-109624761D02*
X258507619Y-109672380D01*
X258317142Y-109672380D01*
X258221904Y-109624761D01*
X258174285Y-109529523D01*
X258174285Y-109148571D01*
X258221904Y-109053333D01*
X258317142Y-109005714D01*
X258507619Y-109005714D01*
X258602857Y-109053333D01*
X258650476Y-109148571D01*
X258650476Y-109243809D01*
X258174285Y-109339047D01*
D11*
X223111428Y-104881071D02*
X223111428Y-103381071D01*
X223468571Y-103381071D01*
X223682857Y-103452500D01*
X223825714Y-103595357D01*
X223897142Y-103738214D01*
X223968571Y-104023928D01*
X223968571Y-104238214D01*
X223897142Y-104523928D01*
X223825714Y-104666785D01*
X223682857Y-104809642D01*
X223468571Y-104881071D01*
X223111428Y-104881071D01*
X224540000Y-104809642D02*
X224754285Y-104881071D01*
X225111428Y-104881071D01*
X225254285Y-104809642D01*
X225325714Y-104738214D01*
X225397142Y-104595357D01*
X225397142Y-104452500D01*
X225325714Y-104309642D01*
X225254285Y-104238214D01*
X225111428Y-104166785D01*
X224825714Y-104095357D01*
X224682857Y-104023928D01*
X224611428Y-103952500D01*
X224540000Y-103809642D01*
X224540000Y-103666785D01*
X224611428Y-103523928D01*
X224682857Y-103452500D01*
X224825714Y-103381071D01*
X225182857Y-103381071D01*
X225397142Y-103452500D01*
X225825714Y-103381071D02*
X226682857Y-103381071D01*
X226254285Y-104881071D02*
X226254285Y-103381071D01*
X215147142Y-106510357D02*
X215361428Y-106581785D01*
X215432857Y-106653214D01*
X215504285Y-106796071D01*
X215504285Y-107010357D01*
X215432857Y-107153214D01*
X215361428Y-107224642D01*
X215218571Y-107296071D01*
X214647142Y-107296071D01*
X214647142Y-105796071D01*
X215147142Y-105796071D01*
X215290000Y-105867500D01*
X215361428Y-105938928D01*
X215432857Y-106081785D01*
X215432857Y-106224642D01*
X215361428Y-106367500D01*
X215290000Y-106438928D01*
X215147142Y-106510357D01*
X214647142Y-106510357D01*
X216147142Y-105796071D02*
X216147142Y-107010357D01*
X216218571Y-107153214D01*
X216290000Y-107224642D01*
X216432857Y-107296071D01*
X216718571Y-107296071D01*
X216861428Y-107224642D01*
X216932857Y-107153214D01*
X217004285Y-107010357D01*
X217004285Y-105796071D01*
X217504285Y-105796071D02*
X218361428Y-105796071D01*
X217932857Y-107296071D02*
X217932857Y-105796071D01*
X218647142Y-105796071D02*
X219504285Y-105796071D01*
X219075714Y-107296071D02*
X219075714Y-105796071D01*
X220290000Y-105796071D02*
X220575714Y-105796071D01*
X220718571Y-105867500D01*
X220861428Y-106010357D01*
X220932857Y-106296071D01*
X220932857Y-106796071D01*
X220861428Y-107081785D01*
X220718571Y-107224642D01*
X220575714Y-107296071D01*
X220290000Y-107296071D01*
X220147142Y-107224642D01*
X220004285Y-107081785D01*
X219932857Y-106796071D01*
X219932857Y-106296071D01*
X220004285Y-106010357D01*
X220147142Y-105867500D01*
X220290000Y-105796071D01*
X221575714Y-107296071D02*
X221575714Y-105796071D01*
X222432857Y-107296071D01*
X222432857Y-105796071D01*
X224575714Y-105796071D02*
X224861428Y-105796071D01*
X225004285Y-105867500D01*
X225147142Y-106010357D01*
X225218571Y-106296071D01*
X225218571Y-106796071D01*
X225147142Y-107081785D01*
X225004285Y-107224642D01*
X224861428Y-107296071D01*
X224575714Y-107296071D01*
X224432857Y-107224642D01*
X224290000Y-107081785D01*
X224218571Y-106796071D01*
X224218571Y-106296071D01*
X224290000Y-106010357D01*
X224432857Y-105867500D01*
X224575714Y-105796071D01*
X226361428Y-106510357D02*
X225861428Y-106510357D01*
X225861428Y-107296071D02*
X225861428Y-105796071D01*
X226575714Y-105796071D01*
X228218571Y-107224642D02*
X228432857Y-107296071D01*
X228790000Y-107296071D01*
X228932857Y-107224642D01*
X229004285Y-107153214D01*
X229075714Y-107010357D01*
X229075714Y-106867500D01*
X229004285Y-106724642D01*
X228932857Y-106653214D01*
X228790000Y-106581785D01*
X228504285Y-106510357D01*
X228361428Y-106438928D01*
X228290000Y-106367500D01*
X228218571Y-106224642D01*
X228218571Y-106081785D01*
X228290000Y-105938928D01*
X228361428Y-105867500D01*
X228504285Y-105796071D01*
X228861428Y-105796071D01*
X229075714Y-105867500D01*
X229718571Y-107296071D02*
X229718571Y-105796071D01*
X229718571Y-106510357D02*
X230575714Y-106510357D01*
X230575714Y-107296071D02*
X230575714Y-105796071D01*
X231218571Y-106867500D02*
X231932857Y-106867500D01*
X231075714Y-107296071D02*
X231575714Y-105796071D01*
X232075714Y-107296071D01*
X232575714Y-107296071D02*
X232575714Y-105796071D01*
X233075714Y-106867500D01*
X233575714Y-105796071D01*
X233575714Y-107296071D01*
X234290000Y-106510357D02*
X234790000Y-106510357D01*
X235004285Y-107296071D02*
X234290000Y-107296071D01*
X234290000Y-105796071D01*
X235004285Y-105796071D01*
D12*
X173392500Y-45212000D02*
G75*
G03*
X173392500Y-45212000I-1688500J0D01*
G01*
X173392500Y-80772000D02*
G75*
G03*
X173392500Y-80772000I-1688500J0D01*
G01*
D10*
X17119904Y-50470380D02*
X17738952Y-50470380D01*
X17405619Y-50851333D01*
X17548476Y-50851333D01*
X17643714Y-50898952D01*
X17691333Y-50946571D01*
X17738952Y-51041809D01*
X17738952Y-51279904D01*
X17691333Y-51375142D01*
X17643714Y-51422761D01*
X17548476Y-51470380D01*
X17262761Y-51470380D01*
X17167523Y-51422761D01*
X17119904Y-51375142D01*
X18024666Y-50470380D02*
X18358000Y-51470380D01*
X18691333Y-50470380D01*
X18929428Y-50470380D02*
X19548476Y-50470380D01*
X19215142Y-50851333D01*
X19358000Y-50851333D01*
X19453238Y-50898952D01*
X19500857Y-50946571D01*
X19548476Y-51041809D01*
X19548476Y-51279904D01*
X19500857Y-51375142D01*
X19453238Y-51422761D01*
X19358000Y-51470380D01*
X19072285Y-51470380D01*
X18977047Y-51422761D01*
X18929428Y-51375142D01*
D11*
X192434571Y-107140571D02*
X192434571Y-105640571D01*
X192791714Y-105640571D01*
X193006000Y-105712000D01*
X193148857Y-105854857D01*
X193220285Y-105997714D01*
X193291714Y-106283428D01*
X193291714Y-106497714D01*
X193220285Y-106783428D01*
X193148857Y-106926285D01*
X193006000Y-107069142D01*
X192791714Y-107140571D01*
X192434571Y-107140571D01*
X194220285Y-105640571D02*
X194506000Y-105640571D01*
X194648857Y-105712000D01*
X194791714Y-105854857D01*
X194863142Y-106140571D01*
X194863142Y-106640571D01*
X194791714Y-106926285D01*
X194648857Y-107069142D01*
X194506000Y-107140571D01*
X194220285Y-107140571D01*
X194077428Y-107069142D01*
X193934571Y-106926285D01*
X193863142Y-106640571D01*
X193863142Y-106140571D01*
X193934571Y-105854857D01*
X194077428Y-105712000D01*
X194220285Y-105640571D01*
X195363142Y-105640571D02*
X195720285Y-107140571D01*
X196006000Y-106069142D01*
X196291714Y-107140571D01*
X196648857Y-105640571D01*
X197220285Y-107140571D02*
X197220285Y-105640571D01*
X198077428Y-107140571D01*
X198077428Y-105640571D01*
X281312857Y-40000000D02*
X279312857Y-40571428D01*
X280741428Y-41142857D01*
X279312857Y-41714285D01*
X281312857Y-42285714D01*
X281312857Y-44714285D02*
X279312857Y-44714285D01*
X281312857Y-43428571D02*
X279741428Y-43428571D01*
X279455714Y-43571428D01*
X279312857Y-43857142D01*
X279312857Y-44285714D01*
X279455714Y-44571428D01*
X279598571Y-44714285D01*
X282312857Y-43571428D02*
X282170000Y-43714285D01*
X282027142Y-43571428D01*
X282170000Y-43428571D01*
X282312857Y-43571428D01*
X282027142Y-43571428D01*
X282312857Y-44714285D02*
X282170000Y-44857142D01*
X282027142Y-44714285D01*
X282170000Y-44571428D01*
X282312857Y-44714285D01*
X282027142Y-44714285D01*
X279312857Y-46142857D02*
X281312857Y-46142857D01*
X280741428Y-46142857D02*
X281027142Y-46285714D01*
X281170000Y-46428571D01*
X281312857Y-46714285D01*
X281312857Y-47000000D01*
X281312857Y-47571428D02*
X281312857Y-48714285D01*
X282312857Y-48000000D02*
X279741428Y-48000000D01*
X279455714Y-48142857D01*
X279312857Y-48428571D01*
X279312857Y-48714285D01*
X279312857Y-49714285D02*
X282312857Y-49714285D01*
X279312857Y-51000000D02*
X280884285Y-51000000D01*
X281170000Y-50857142D01*
X281312857Y-50571428D01*
X281312857Y-50142857D01*
X281170000Y-49857142D01*
X281027142Y-49714285D01*
X279312857Y-52857142D02*
X279455714Y-52571428D01*
X279741428Y-52428571D01*
X282312857Y-52428571D01*
X279455714Y-55142857D02*
X279312857Y-54857142D01*
X279312857Y-54285714D01*
X279455714Y-54000000D01*
X279741428Y-53857142D01*
X280884285Y-53857142D01*
X281170000Y-54000000D01*
X281312857Y-54285714D01*
X281312857Y-54857142D01*
X281170000Y-55142857D01*
X280884285Y-55285714D01*
X280598571Y-55285714D01*
X280312857Y-53857142D01*
X279455714Y-56428571D02*
X279312857Y-56714285D01*
X279312857Y-57285714D01*
X279455714Y-57571428D01*
X279741428Y-57714285D01*
X279884285Y-57714285D01*
X280170000Y-57571428D01*
X280312857Y-57285714D01*
X280312857Y-56857142D01*
X280455714Y-56571428D01*
X280741428Y-56428571D01*
X280884285Y-56428571D01*
X281170000Y-56571428D01*
X281312857Y-56857142D01*
X281312857Y-57285714D01*
X281170000Y-57571428D01*
X279455714Y-58857142D02*
X279312857Y-59142857D01*
X279312857Y-59714285D01*
X279455714Y-60000000D01*
X279741428Y-60142857D01*
X279884285Y-60142857D01*
X280170000Y-60000000D01*
X280312857Y-59714285D01*
X280312857Y-59285714D01*
X280455714Y-59000000D01*
X280741428Y-58857142D01*
X280884285Y-58857142D01*
X281170000Y-59000000D01*
X281312857Y-59285714D01*
X281312857Y-59714285D01*
X281170000Y-60000000D01*
X279455714Y-64857142D02*
X279312857Y-64571428D01*
X279312857Y-64000000D01*
X279455714Y-63714285D01*
X279741428Y-63571428D01*
X280884285Y-63571428D01*
X281170000Y-63714285D01*
X281312857Y-64000000D01*
X281312857Y-64571428D01*
X281170000Y-64857142D01*
X280884285Y-65000000D01*
X280598571Y-65000000D01*
X280312857Y-63571428D01*
X279312857Y-66714285D02*
X279455714Y-66428571D01*
X279741428Y-66285714D01*
X282312857Y-66285714D01*
X279455714Y-69000000D02*
X279312857Y-68714285D01*
X279312857Y-68142857D01*
X279455714Y-67857142D01*
X279741428Y-67714285D01*
X280884285Y-67714285D01*
X281170000Y-67857142D01*
X281312857Y-68142857D01*
X281312857Y-68714285D01*
X281170000Y-69000000D01*
X280884285Y-69142857D01*
X280598571Y-69142857D01*
X280312857Y-67714285D01*
X279312857Y-70428571D02*
X282312857Y-70428571D01*
X280455714Y-70714285D02*
X279312857Y-71571428D01*
X281312857Y-71571428D02*
X280170000Y-70428571D01*
X281312857Y-72428571D02*
X281312857Y-73571428D01*
X282312857Y-72857142D02*
X279741428Y-72857142D01*
X279455714Y-73000000D01*
X279312857Y-73285714D01*
X279312857Y-73571428D01*
X279312857Y-74571428D02*
X281312857Y-74571428D01*
X280741428Y-74571428D02*
X281027142Y-74714285D01*
X281170000Y-74857142D01*
X281312857Y-75142857D01*
X281312857Y-75428571D01*
X279312857Y-76857142D02*
X279455714Y-76571428D01*
X279598571Y-76428571D01*
X279884285Y-76285714D01*
X280741428Y-76285714D01*
X281027142Y-76428571D01*
X281170000Y-76571428D01*
X281312857Y-76857142D01*
X281312857Y-77285714D01*
X281170000Y-77571428D01*
X281027142Y-77714285D01*
X280741428Y-77857142D01*
X279884285Y-77857142D01*
X279598571Y-77714285D01*
X279455714Y-77571428D01*
X279312857Y-77285714D01*
X279312857Y-76857142D01*
X281312857Y-79142857D02*
X279312857Y-79142857D01*
X281027142Y-79142857D02*
X281170000Y-79285714D01*
X281312857Y-79571428D01*
X281312857Y-80000000D01*
X281170000Y-80285714D01*
X280884285Y-80428571D01*
X279312857Y-80428571D01*
X279312857Y-81857142D02*
X281312857Y-81857142D01*
X282312857Y-81857142D02*
X282170000Y-81714285D01*
X282027142Y-81857142D01*
X282170000Y-82000000D01*
X282312857Y-81857142D01*
X282027142Y-81857142D01*
X279312857Y-83285714D02*
X282312857Y-83285714D01*
X280455714Y-83571428D02*
X279312857Y-84428571D01*
X281312857Y-84428571D02*
X280170000Y-83285714D01*
X279455714Y-85571428D02*
X279312857Y-85857142D01*
X279312857Y-86428571D01*
X279455714Y-86714285D01*
X279741428Y-86857142D01*
X279884285Y-86857142D01*
X280170000Y-86714285D01*
X280312857Y-86428571D01*
X280312857Y-86000000D01*
X280455714Y-85714285D01*
X280741428Y-85571428D01*
X280884285Y-85571428D01*
X281170000Y-85714285D01*
X281312857Y-86000000D01*
X281312857Y-86428571D01*
X281170000Y-86714285D01*
X275864000Y-48686285D02*
X275935428Y-48614857D01*
X276149714Y-48472000D01*
X276292571Y-48400571D01*
X276506857Y-48329142D01*
X276864000Y-48257714D01*
X277149714Y-48257714D01*
X277506857Y-48329142D01*
X277721142Y-48400571D01*
X277864000Y-48472000D01*
X278078285Y-48614857D01*
X278149714Y-48686285D01*
X277435428Y-49114857D02*
X276435428Y-49400571D01*
X277149714Y-49686285D01*
X276435428Y-49972000D01*
X277435428Y-50257714D01*
X276435428Y-50829142D02*
X277935428Y-50829142D01*
X276435428Y-51472000D02*
X277221142Y-51472000D01*
X277364000Y-51400571D01*
X277435428Y-51257714D01*
X277435428Y-51043428D01*
X277364000Y-50900571D01*
X277292571Y-50829142D01*
X276435428Y-52829142D02*
X277221142Y-52829142D01*
X277364000Y-52757714D01*
X277435428Y-52614857D01*
X277435428Y-52329142D01*
X277364000Y-52186285D01*
X276506857Y-52829142D02*
X276435428Y-52686285D01*
X276435428Y-52329142D01*
X276506857Y-52186285D01*
X276649714Y-52114857D01*
X276792571Y-52114857D01*
X276935428Y-52186285D01*
X277006857Y-52329142D01*
X277006857Y-52686285D01*
X277078285Y-52829142D01*
X277435428Y-53329142D02*
X277435428Y-53900571D01*
X277935428Y-53543428D02*
X276649714Y-53543428D01*
X276506857Y-53614857D01*
X276435428Y-53757714D01*
X276435428Y-53900571D01*
X276506857Y-56114857D02*
X276435428Y-55972000D01*
X276435428Y-55686285D01*
X276506857Y-55543428D01*
X276649714Y-55472000D01*
X277221142Y-55472000D01*
X277364000Y-55543428D01*
X277435428Y-55686285D01*
X277435428Y-55972000D01*
X277364000Y-56114857D01*
X277221142Y-56186285D01*
X277078285Y-56186285D01*
X276935428Y-55472000D01*
X276435428Y-57043428D02*
X276506857Y-56900571D01*
X276649714Y-56829142D01*
X277935428Y-56829142D01*
X276506857Y-57543428D02*
X276435428Y-57686285D01*
X276435428Y-57972000D01*
X276506857Y-58114857D01*
X276649714Y-58186285D01*
X276721142Y-58186285D01*
X276864000Y-58114857D01*
X276935428Y-57972000D01*
X276935428Y-57757714D01*
X277006857Y-57614857D01*
X277149714Y-57543428D01*
X277221142Y-57543428D01*
X277364000Y-57614857D01*
X277435428Y-57757714D01*
X277435428Y-57972000D01*
X277364000Y-58114857D01*
X276506857Y-59400571D02*
X276435428Y-59257714D01*
X276435428Y-58972000D01*
X276506857Y-58829142D01*
X276649714Y-58757714D01*
X277221142Y-58757714D01*
X277364000Y-58829142D01*
X277435428Y-58972000D01*
X277435428Y-59257714D01*
X277364000Y-59400571D01*
X277221142Y-59472000D01*
X277078285Y-59472000D01*
X276935428Y-58757714D01*
X276435428Y-61900571D02*
X277935428Y-61900571D01*
X276506857Y-61900571D02*
X276435428Y-61757714D01*
X276435428Y-61472000D01*
X276506857Y-61329142D01*
X276578285Y-61257714D01*
X276721142Y-61186285D01*
X277149714Y-61186285D01*
X277292571Y-61257714D01*
X277364000Y-61329142D01*
X277435428Y-61472000D01*
X277435428Y-61757714D01*
X277364000Y-61900571D01*
X276435428Y-62614857D02*
X277435428Y-62614857D01*
X277935428Y-62614857D02*
X277864000Y-62543428D01*
X277792571Y-62614857D01*
X277864000Y-62686285D01*
X277935428Y-62614857D01*
X277792571Y-62614857D01*
X276435428Y-63972000D02*
X277935428Y-63972000D01*
X276506857Y-63972000D02*
X276435428Y-63829142D01*
X276435428Y-63543428D01*
X276506857Y-63400571D01*
X276578285Y-63329142D01*
X276721142Y-63257714D01*
X277149714Y-63257714D01*
X277292571Y-63329142D01*
X277364000Y-63400571D01*
X277435428Y-63543428D01*
X277435428Y-63829142D01*
X277364000Y-63972000D01*
X277435428Y-65686285D02*
X276435428Y-66043428D01*
X277435428Y-66400571D02*
X276435428Y-66043428D01*
X276078285Y-65900571D01*
X276006857Y-65829142D01*
X275935428Y-65686285D01*
X276435428Y-67186285D02*
X276506857Y-67043428D01*
X276578285Y-66972000D01*
X276721142Y-66900571D01*
X277149714Y-66900571D01*
X277292571Y-66972000D01*
X277364000Y-67043428D01*
X277435428Y-67186285D01*
X277435428Y-67400571D01*
X277364000Y-67543428D01*
X277292571Y-67614857D01*
X277149714Y-67686285D01*
X276721142Y-67686285D01*
X276578285Y-67614857D01*
X276506857Y-67543428D01*
X276435428Y-67400571D01*
X276435428Y-67186285D01*
X277435428Y-68972000D02*
X276435428Y-68972000D01*
X277435428Y-68329142D02*
X276649714Y-68329142D01*
X276506857Y-68400571D01*
X276435428Y-68543428D01*
X276435428Y-68757714D01*
X276506857Y-68900571D01*
X276578285Y-68972000D01*
X276506857Y-71400571D02*
X276435428Y-71257714D01*
X276435428Y-70972000D01*
X276506857Y-70829142D01*
X276649714Y-70757714D01*
X277221142Y-70757714D01*
X277364000Y-70829142D01*
X277435428Y-70972000D01*
X277435428Y-71257714D01*
X277364000Y-71400571D01*
X277221142Y-71472000D01*
X277078285Y-71472000D01*
X276935428Y-70757714D01*
X276435428Y-71972000D02*
X277435428Y-72757714D01*
X277435428Y-71972000D02*
X276435428Y-72757714D01*
X277435428Y-73329142D02*
X275935428Y-73329142D01*
X277364000Y-73329142D02*
X277435428Y-73472000D01*
X277435428Y-73757714D01*
X277364000Y-73900571D01*
X277292571Y-73972000D01*
X277149714Y-74043428D01*
X276721142Y-74043428D01*
X276578285Y-73972000D01*
X276506857Y-73900571D01*
X276435428Y-73757714D01*
X276435428Y-73472000D01*
X276506857Y-73329142D01*
X276506857Y-75257714D02*
X276435428Y-75114857D01*
X276435428Y-74829142D01*
X276506857Y-74686285D01*
X276649714Y-74614857D01*
X277221142Y-74614857D01*
X277364000Y-74686285D01*
X277435428Y-74829142D01*
X277435428Y-75114857D01*
X277364000Y-75257714D01*
X277221142Y-75329142D01*
X277078285Y-75329142D01*
X276935428Y-74614857D01*
X276506857Y-76614857D02*
X276435428Y-76472000D01*
X276435428Y-76186285D01*
X276506857Y-76043428D01*
X276578285Y-75972000D01*
X276721142Y-75900571D01*
X277149714Y-75900571D01*
X277292571Y-75972000D01*
X277364000Y-76043428D01*
X277435428Y-76186285D01*
X277435428Y-76472000D01*
X277364000Y-76614857D01*
X277435428Y-77043428D02*
X277435428Y-77614857D01*
X277935428Y-77257714D02*
X276649714Y-77257714D01*
X276506857Y-77329142D01*
X276435428Y-77472000D01*
X276435428Y-77614857D01*
X276578285Y-78329142D02*
X276506857Y-78400571D01*
X276435428Y-78329142D01*
X276506857Y-78257714D01*
X276578285Y-78329142D01*
X276435428Y-78329142D01*
X277864000Y-78043428D02*
X277935428Y-78186285D01*
X277935428Y-78543428D01*
X277864000Y-78686285D01*
X277721142Y-78757714D01*
X277578285Y-78757714D01*
X277435428Y-78686285D01*
X277364000Y-78614857D01*
X277292571Y-78472000D01*
X277221142Y-78400571D01*
X277078285Y-78329142D01*
X277006857Y-78329142D01*
X275864000Y-79257714D02*
X275935428Y-79329142D01*
X276149714Y-79472000D01*
X276292571Y-79543428D01*
X276506857Y-79614857D01*
X276864000Y-79686285D01*
X277149714Y-79686285D01*
X277506857Y-79614857D01*
X277721142Y-79543428D01*
X277864000Y-79472000D01*
X278078285Y-79329142D01*
X278149714Y-79257714D01*
D10*
X17294952Y-69202761D02*
X17437809Y-69250380D01*
X17675904Y-69250380D01*
X17771142Y-69202761D01*
X17818761Y-69155142D01*
X17866380Y-69059904D01*
X17866380Y-68964666D01*
X17818761Y-68869428D01*
X17771142Y-68821809D01*
X17675904Y-68774190D01*
X17485428Y-68726571D01*
X17390190Y-68678952D01*
X17342571Y-68631333D01*
X17294952Y-68536095D01*
X17294952Y-68440857D01*
X17342571Y-68345619D01*
X17390190Y-68298000D01*
X17485428Y-68250380D01*
X17723523Y-68250380D01*
X17866380Y-68298000D01*
X18294952Y-69250380D02*
X18294952Y-68250380D01*
X18675904Y-68250380D01*
X18771142Y-68298000D01*
X18818761Y-68345619D01*
X18866380Y-68440857D01*
X18866380Y-68583714D01*
X18818761Y-68678952D01*
X18771142Y-68726571D01*
X18675904Y-68774190D01*
X18294952Y-68774190D01*
X19294952Y-69250380D02*
X19294952Y-68250380D01*
X19533047Y-69345619D02*
X20294952Y-69345619D01*
X21104476Y-69155142D02*
X21056857Y-69202761D01*
X20914000Y-69250380D01*
X20818761Y-69250380D01*
X20675904Y-69202761D01*
X20580666Y-69107523D01*
X20533047Y-69012285D01*
X20485428Y-68821809D01*
X20485428Y-68678952D01*
X20533047Y-68488476D01*
X20580666Y-68393238D01*
X20675904Y-68298000D01*
X20818761Y-68250380D01*
X20914000Y-68250380D01*
X21056857Y-68298000D01*
X21104476Y-68345619D01*
X21485428Y-69202761D02*
X21628285Y-69250380D01*
X21866380Y-69250380D01*
X21961619Y-69202761D01*
X22009238Y-69155142D01*
X22056857Y-69059904D01*
X22056857Y-68964666D01*
X22009238Y-68869428D01*
X21961619Y-68821809D01*
X21866380Y-68774190D01*
X21675904Y-68726571D01*
X21580666Y-68678952D01*
X21533047Y-68631333D01*
X21485428Y-68536095D01*
X21485428Y-68440857D01*
X21533047Y-68345619D01*
X21580666Y-68298000D01*
X21675904Y-68250380D01*
X21914000Y-68250380D01*
X22056857Y-68298000D01*
X23009238Y-69250380D02*
X22437809Y-69250380D01*
X22723523Y-69250380D02*
X22723523Y-68250380D01*
X22628285Y-68393238D01*
X22533047Y-68488476D01*
X22437809Y-68536095D01*
X23199714Y-69345619D02*
X23961619Y-69345619D01*
X24104476Y-68250380D02*
X24723523Y-68250380D01*
X24390190Y-68631333D01*
X24533047Y-68631333D01*
X24628285Y-68678952D01*
X24675904Y-68726571D01*
X24723523Y-68821809D01*
X24723523Y-69059904D01*
X24675904Y-69155142D01*
X24628285Y-69202761D01*
X24533047Y-69250380D01*
X24247333Y-69250380D01*
X24152095Y-69202761D01*
X24104476Y-69155142D01*
X25009238Y-68250380D02*
X25342571Y-69250380D01*
X25675904Y-68250380D01*
X25914000Y-68250380D02*
X26533047Y-68250380D01*
X26199714Y-68631333D01*
X26342571Y-68631333D01*
X26437809Y-68678952D01*
X26485428Y-68726571D01*
X26533047Y-68821809D01*
X26533047Y-69059904D01*
X26485428Y-69155142D01*
X26437809Y-69202761D01*
X26342571Y-69250380D01*
X26056857Y-69250380D01*
X25961619Y-69202761D01*
X25914000Y-69155142D01*
X43394761Y-87574380D02*
X43394761Y-86574380D01*
X43394761Y-87526761D02*
X43299523Y-87574380D01*
X43109047Y-87574380D01*
X43013809Y-87526761D01*
X42966190Y-87479142D01*
X42918571Y-87383904D01*
X42918571Y-87098190D01*
X42966190Y-87002952D01*
X43013809Y-86955333D01*
X43109047Y-86907714D01*
X43299523Y-86907714D01*
X43394761Y-86955333D01*
X43870952Y-87574380D02*
X43870952Y-86907714D01*
X43870952Y-86574380D02*
X43823333Y-86622000D01*
X43870952Y-86669619D01*
X43918571Y-86622000D01*
X43870952Y-86574380D01*
X43870952Y-86669619D01*
X44775714Y-86907714D02*
X44775714Y-87717238D01*
X44728095Y-87812476D01*
X44680476Y-87860095D01*
X44585238Y-87907714D01*
X44442380Y-87907714D01*
X44347142Y-87860095D01*
X44775714Y-87526761D02*
X44680476Y-87574380D01*
X44490000Y-87574380D01*
X44394761Y-87526761D01*
X44347142Y-87479142D01*
X44299523Y-87383904D01*
X44299523Y-87098190D01*
X44347142Y-87002952D01*
X44394761Y-86955333D01*
X44490000Y-86907714D01*
X44680476Y-86907714D01*
X44775714Y-86955333D01*
X45251904Y-87574380D02*
X45251904Y-86907714D01*
X45251904Y-86574380D02*
X45204285Y-86622000D01*
X45251904Y-86669619D01*
X45299523Y-86622000D01*
X45251904Y-86574380D01*
X45251904Y-86669619D01*
X45585238Y-86907714D02*
X45966190Y-86907714D01*
X45728095Y-86574380D02*
X45728095Y-87431523D01*
X45775714Y-87526761D01*
X45870952Y-87574380D01*
X45966190Y-87574380D01*
X47490000Y-87574380D02*
X47490000Y-86574380D01*
X47490000Y-87526761D02*
X47394761Y-87574380D01*
X47204285Y-87574380D01*
X47109047Y-87526761D01*
X47061428Y-87479142D01*
X47013809Y-87383904D01*
X47013809Y-87098190D01*
X47061428Y-87002952D01*
X47109047Y-86955333D01*
X47204285Y-86907714D01*
X47394761Y-86907714D01*
X47490000Y-86955333D01*
X47966190Y-87574380D02*
X47966190Y-86907714D01*
X47966190Y-87098190D02*
X48013809Y-87002952D01*
X48061428Y-86955333D01*
X48156666Y-86907714D01*
X48251904Y-86907714D01*
X48585238Y-87574380D02*
X48585238Y-86907714D01*
X48585238Y-86574380D02*
X48537619Y-86622000D01*
X48585238Y-86669619D01*
X48632857Y-86622000D01*
X48585238Y-86574380D01*
X48585238Y-86669619D01*
X48966190Y-86907714D02*
X49204285Y-87574380D01*
X49442380Y-86907714D01*
X50204285Y-87526761D02*
X50109047Y-87574380D01*
X49918571Y-87574380D01*
X49823333Y-87526761D01*
X49775714Y-87431523D01*
X49775714Y-87050571D01*
X49823333Y-86955333D01*
X49918571Y-86907714D01*
X50109047Y-86907714D01*
X50204285Y-86955333D01*
X50251904Y-87050571D01*
X50251904Y-87145809D01*
X49775714Y-87241047D01*
X50632857Y-87526761D02*
X50728095Y-87574380D01*
X50918571Y-87574380D01*
X51013809Y-87526761D01*
X51061428Y-87431523D01*
X51061428Y-87383904D01*
X51013809Y-87288666D01*
X50918571Y-87241047D01*
X50775714Y-87241047D01*
X50680476Y-87193428D01*
X50632857Y-87098190D01*
X50632857Y-87050571D01*
X50680476Y-86955333D01*
X50775714Y-86907714D01*
X50918571Y-86907714D01*
X51013809Y-86955333D01*
X17271142Y-59042761D02*
X17414000Y-59090380D01*
X17652095Y-59090380D01*
X17747333Y-59042761D01*
X17794952Y-58995142D01*
X17842571Y-58899904D01*
X17842571Y-58804666D01*
X17794952Y-58709428D01*
X17747333Y-58661809D01*
X17652095Y-58614190D01*
X17461619Y-58566571D01*
X17366380Y-58518952D01*
X17318761Y-58471333D01*
X17271142Y-58376095D01*
X17271142Y-58280857D01*
X17318761Y-58185619D01*
X17366380Y-58138000D01*
X17461619Y-58090380D01*
X17699714Y-58090380D01*
X17842571Y-58138000D01*
X18271142Y-59090380D02*
X18271142Y-58090380D01*
X18652095Y-58090380D01*
X18747333Y-58138000D01*
X18794952Y-58185619D01*
X18842571Y-58280857D01*
X18842571Y-58423714D01*
X18794952Y-58518952D01*
X18747333Y-58566571D01*
X18652095Y-58614190D01*
X18271142Y-58614190D01*
X19271142Y-59090380D02*
X19271142Y-58090380D01*
X19509238Y-59185619D02*
X20271142Y-59185619D01*
X20461619Y-59042761D02*
X20604476Y-59090380D01*
X20842571Y-59090380D01*
X20937809Y-59042761D01*
X20985428Y-58995142D01*
X21033047Y-58899904D01*
X21033047Y-58804666D01*
X20985428Y-58709428D01*
X20937809Y-58661809D01*
X20842571Y-58614190D01*
X20652095Y-58566571D01*
X20556857Y-58518952D01*
X20509238Y-58471333D01*
X20461619Y-58376095D01*
X20461619Y-58280857D01*
X20509238Y-58185619D01*
X20556857Y-58138000D01*
X20652095Y-58090380D01*
X20890190Y-58090380D01*
X21033047Y-58138000D01*
X22033047Y-58995142D02*
X21985428Y-59042761D01*
X21842571Y-59090380D01*
X21747333Y-59090380D01*
X21604476Y-59042761D01*
X21509238Y-58947523D01*
X21461619Y-58852285D01*
X21414000Y-58661809D01*
X21414000Y-58518952D01*
X21461619Y-58328476D01*
X21509238Y-58233238D01*
X21604476Y-58138000D01*
X21747333Y-58090380D01*
X21842571Y-58090380D01*
X21985428Y-58138000D01*
X22033047Y-58185619D01*
X22461619Y-59090380D02*
X22461619Y-58090380D01*
X23033047Y-59090380D02*
X22604476Y-58518952D01*
X23033047Y-58090380D02*
X22461619Y-58661809D01*
X23223523Y-59185619D02*
X23985428Y-59185619D01*
X24128285Y-58090380D02*
X24747333Y-58090380D01*
X24414000Y-58471333D01*
X24556857Y-58471333D01*
X24652095Y-58518952D01*
X24699714Y-58566571D01*
X24747333Y-58661809D01*
X24747333Y-58899904D01*
X24699714Y-58995142D01*
X24652095Y-59042761D01*
X24556857Y-59090380D01*
X24271142Y-59090380D01*
X24175904Y-59042761D01*
X24128285Y-58995142D01*
X25033047Y-58090380D02*
X25366380Y-59090380D01*
X25699714Y-58090380D01*
X25937809Y-58090380D02*
X26556857Y-58090380D01*
X26223523Y-58471333D01*
X26366380Y-58471333D01*
X26461619Y-58518952D01*
X26509238Y-58566571D01*
X26556857Y-58661809D01*
X26556857Y-58899904D01*
X26509238Y-58995142D01*
X26461619Y-59042761D01*
X26366380Y-59090380D01*
X26080666Y-59090380D01*
X25985428Y-59042761D01*
X25937809Y-58995142D01*
D11*
X78391428Y-14168571D02*
X80296190Y-14168571D01*
X79105714Y-12501904D02*
X79105714Y-16787619D01*
X79343809Y-17263809D01*
X79820000Y-17501904D01*
X80296190Y-17501904D01*
X81962857Y-17501904D02*
X81962857Y-12501904D01*
X84105714Y-17501904D02*
X84105714Y-14882857D01*
X83867619Y-14406666D01*
X83391428Y-14168571D01*
X82677142Y-14168571D01*
X82200952Y-14406666D01*
X81962857Y-14644761D01*
X88391428Y-17263809D02*
X87915238Y-17501904D01*
X86962857Y-17501904D01*
X86486666Y-17263809D01*
X86248571Y-16787619D01*
X86248571Y-14882857D01*
X86486666Y-14406666D01*
X86962857Y-14168571D01*
X87915238Y-14168571D01*
X88391428Y-14406666D01*
X88629523Y-14882857D01*
X88629523Y-15359047D01*
X86248571Y-15835238D01*
X94581904Y-17501904D02*
X94581904Y-14168571D01*
X94581904Y-14644761D02*
X94820000Y-14406666D01*
X95296190Y-14168571D01*
X96010476Y-14168571D01*
X96486666Y-14406666D01*
X96724761Y-14882857D01*
X96724761Y-17501904D01*
X96724761Y-14882857D02*
X96962857Y-14406666D01*
X97439047Y-14168571D01*
X98153333Y-14168571D01*
X98629523Y-14406666D01*
X98867619Y-14882857D01*
X98867619Y-17501904D01*
X101962857Y-17501904D02*
X101486666Y-17263809D01*
X101248571Y-17025714D01*
X101010476Y-16549523D01*
X101010476Y-15120952D01*
X101248571Y-14644761D01*
X101486666Y-14406666D01*
X101962857Y-14168571D01*
X102677142Y-14168571D01*
X103153333Y-14406666D01*
X103391428Y-14644761D01*
X103629523Y-15120952D01*
X103629523Y-16549523D01*
X103391428Y-17025714D01*
X103153333Y-17263809D01*
X102677142Y-17501904D01*
X101962857Y-17501904D01*
X105534285Y-17263809D02*
X106010476Y-17501904D01*
X106962857Y-17501904D01*
X107439047Y-17263809D01*
X107677142Y-16787619D01*
X107677142Y-16549523D01*
X107439047Y-16073333D01*
X106962857Y-15835238D01*
X106248571Y-15835238D01*
X105772380Y-15597142D01*
X105534285Y-15120952D01*
X105534285Y-14882857D01*
X105772380Y-14406666D01*
X106248571Y-14168571D01*
X106962857Y-14168571D01*
X107439047Y-14406666D01*
X109105714Y-14168571D02*
X111010476Y-14168571D01*
X109820000Y-12501904D02*
X109820000Y-16787619D01*
X110058095Y-17263809D01*
X110534285Y-17501904D01*
X111010476Y-17501904D01*
X118629523Y-14168571D02*
X118629523Y-17501904D01*
X116486666Y-14168571D02*
X116486666Y-16787619D01*
X116724761Y-17263809D01*
X117200952Y-17501904D01*
X117915238Y-17501904D01*
X118391428Y-17263809D01*
X118629523Y-17025714D01*
X120772380Y-17263809D02*
X121248571Y-17501904D01*
X122200952Y-17501904D01*
X122677142Y-17263809D01*
X122915238Y-16787619D01*
X122915238Y-16549523D01*
X122677142Y-16073333D01*
X122200952Y-15835238D01*
X121486666Y-15835238D01*
X121010476Y-15597142D01*
X120772380Y-15120952D01*
X120772380Y-14882857D01*
X121010476Y-14406666D01*
X121486666Y-14168571D01*
X122200952Y-14168571D01*
X122677142Y-14406666D01*
X126962857Y-17263809D02*
X126486666Y-17501904D01*
X125534285Y-17501904D01*
X125058095Y-17263809D01*
X124819999Y-16787619D01*
X124819999Y-14882857D01*
X125058095Y-14406666D01*
X125534285Y-14168571D01*
X126486666Y-14168571D01*
X126962857Y-14406666D01*
X127200952Y-14882857D01*
X127200952Y-15359047D01*
X124819999Y-15835238D01*
X130058095Y-17501904D02*
X129581904Y-17263809D01*
X129343809Y-16787619D01*
X129343809Y-12501904D01*
X133867619Y-17263809D02*
X133391428Y-17501904D01*
X132439047Y-17501904D01*
X131962857Y-17263809D01*
X131724761Y-16787619D01*
X131724761Y-14882857D01*
X131962857Y-14406666D01*
X132439047Y-14168571D01*
X133391428Y-14168571D01*
X133867619Y-14406666D01*
X134105714Y-14882857D01*
X134105714Y-15359047D01*
X131724761Y-15835238D01*
X136010476Y-17263809D02*
X136486666Y-17501904D01*
X137439047Y-17501904D01*
X137915238Y-17263809D01*
X138153333Y-16787619D01*
X138153333Y-16549523D01*
X137915238Y-16073333D01*
X137439047Y-15835238D01*
X136724761Y-15835238D01*
X136248571Y-15597142D01*
X136010476Y-15120952D01*
X136010476Y-14882857D01*
X136248571Y-14406666D01*
X136724761Y-14168571D01*
X137439047Y-14168571D01*
X137915238Y-14406666D01*
X140058095Y-17263809D02*
X140534285Y-17501904D01*
X141486666Y-17501904D01*
X141962857Y-17263809D01*
X142200952Y-16787619D01*
X142200952Y-16549523D01*
X141962857Y-16073333D01*
X141486666Y-15835238D01*
X140772380Y-15835238D01*
X140296190Y-15597142D01*
X140058095Y-15120952D01*
X140058095Y-14882857D01*
X140296190Y-14406666D01*
X140772380Y-14168571D01*
X141486666Y-14168571D01*
X141962857Y-14406666D01*
X150296190Y-17263809D02*
X149819999Y-17501904D01*
X148867619Y-17501904D01*
X148391428Y-17263809D01*
X148153333Y-17025714D01*
X147915238Y-16549523D01*
X147915238Y-15120952D01*
X148153333Y-14644761D01*
X148391428Y-14406666D01*
X148867619Y-14168571D01*
X149819999Y-14168571D01*
X150296190Y-14406666D01*
X153153333Y-17501904D02*
X152677142Y-17263809D01*
X152439047Y-16787619D01*
X152439047Y-12501904D01*
X155772380Y-17501904D02*
X155296190Y-17263809D01*
X155058095Y-17025714D01*
X154819999Y-16549523D01*
X154819999Y-15120952D01*
X155058095Y-14644761D01*
X155296190Y-14406666D01*
X155772380Y-14168571D01*
X156486666Y-14168571D01*
X156962857Y-14406666D01*
X157200952Y-14644761D01*
X157439047Y-15120952D01*
X157439047Y-16549523D01*
X157200952Y-17025714D01*
X156962857Y-17263809D01*
X156486666Y-17501904D01*
X155772380Y-17501904D01*
X161724761Y-17263809D02*
X161248571Y-17501904D01*
X160296190Y-17501904D01*
X159819999Y-17263809D01*
X159581904Y-17025714D01*
X159343809Y-16549523D01*
X159343809Y-15120952D01*
X159581904Y-14644761D01*
X159819999Y-14406666D01*
X160296190Y-14168571D01*
X161248571Y-14168571D01*
X161724761Y-14406666D01*
X163867619Y-17501904D02*
X163867619Y-12501904D01*
X164343809Y-15597142D02*
X165772380Y-17501904D01*
X165772380Y-14168571D02*
X163867619Y-16073333D01*
X171724761Y-17501904D02*
X171724761Y-14168571D01*
X171724761Y-12501904D02*
X171486666Y-12740000D01*
X171724761Y-12978095D01*
X171962857Y-12740000D01*
X171724761Y-12501904D01*
X171724761Y-12978095D01*
X174105714Y-14168571D02*
X174105714Y-17501904D01*
X174105714Y-14644761D02*
X174343809Y-14406666D01*
X174819999Y-14168571D01*
X175534285Y-14168571D01*
X176010476Y-14406666D01*
X176248571Y-14882857D01*
X176248571Y-17501904D01*
X181724761Y-14168571D02*
X183629523Y-14168571D01*
X182439047Y-12501904D02*
X182439047Y-16787619D01*
X182677142Y-17263809D01*
X183153333Y-17501904D01*
X183629523Y-17501904D01*
X185296190Y-17501904D02*
X185296190Y-12501904D01*
X187439047Y-17501904D02*
X187439047Y-14882857D01*
X187200952Y-14406666D01*
X186724761Y-14168571D01*
X186010476Y-14168571D01*
X185534285Y-14406666D01*
X185296190Y-14644761D01*
X191724761Y-17263809D02*
X191248571Y-17501904D01*
X190296190Y-17501904D01*
X189819999Y-17263809D01*
X189581904Y-16787619D01*
X189581904Y-14882857D01*
X189819999Y-14406666D01*
X190296190Y-14168571D01*
X191248571Y-14168571D01*
X191724761Y-14406666D01*
X191962857Y-14882857D01*
X191962857Y-15359047D01*
X189581904Y-15835238D01*
X197439047Y-14168571D02*
X198391428Y-17501904D01*
X199343809Y-15120952D01*
X200296190Y-17501904D01*
X201248571Y-14168571D01*
X203867619Y-17501904D02*
X203391428Y-17263809D01*
X203153333Y-17025714D01*
X202915238Y-16549523D01*
X202915238Y-15120952D01*
X203153333Y-14644761D01*
X203391428Y-14406666D01*
X203867619Y-14168571D01*
X204581904Y-14168571D01*
X205058095Y-14406666D01*
X205296190Y-14644761D01*
X205534285Y-15120952D01*
X205534285Y-16549523D01*
X205296190Y-17025714D01*
X205058095Y-17263809D01*
X204581904Y-17501904D01*
X203867619Y-17501904D01*
X207677142Y-17501904D02*
X207677142Y-14168571D01*
X207677142Y-15120952D02*
X207915238Y-14644761D01*
X208153333Y-14406666D01*
X208629523Y-14168571D01*
X209105714Y-14168571D01*
X211486666Y-17501904D02*
X211010476Y-17263809D01*
X210772380Y-16787619D01*
X210772380Y-12501904D01*
X215534285Y-17501904D02*
X215534285Y-12501904D01*
X215534285Y-17263809D02*
X215058095Y-17501904D01*
X214105714Y-17501904D01*
X213629523Y-17263809D01*
X213391428Y-17025714D01*
X213153333Y-16549523D01*
X213153333Y-15120952D01*
X213391428Y-14644761D01*
X213629523Y-14406666D01*
X214105714Y-14168571D01*
X215058095Y-14168571D01*
X215534285Y-14406666D01*
X112375428Y-107140571D02*
X111875428Y-106426285D01*
X111518285Y-107140571D02*
X111518285Y-105640571D01*
X112089714Y-105640571D01*
X112232571Y-105712000D01*
X112304000Y-105783428D01*
X112375428Y-105926285D01*
X112375428Y-106140571D01*
X112304000Y-106283428D01*
X112232571Y-106354857D01*
X112089714Y-106426285D01*
X111518285Y-106426285D01*
X113018285Y-106354857D02*
X113518285Y-106354857D01*
X113732571Y-107140571D02*
X113018285Y-107140571D01*
X113018285Y-105640571D01*
X113732571Y-105640571D01*
X114304000Y-107069142D02*
X114518285Y-107140571D01*
X114875428Y-107140571D01*
X115018285Y-107069142D01*
X115089714Y-106997714D01*
X115161142Y-106854857D01*
X115161142Y-106712000D01*
X115089714Y-106569142D01*
X115018285Y-106497714D01*
X114875428Y-106426285D01*
X114589714Y-106354857D01*
X114446857Y-106283428D01*
X114375428Y-106212000D01*
X114304000Y-106069142D01*
X114304000Y-105926285D01*
X114375428Y-105783428D01*
X114446857Y-105712000D01*
X114589714Y-105640571D01*
X114946857Y-105640571D01*
X115161142Y-105712000D01*
X115804000Y-106354857D02*
X116304000Y-106354857D01*
X116518285Y-107140571D02*
X115804000Y-107140571D01*
X115804000Y-105640571D01*
X116518285Y-105640571D01*
X116946857Y-105640571D02*
X117804000Y-105640571D01*
X117375428Y-107140571D02*
X117375428Y-105640571D01*
D10*
X33002952Y-87241380D02*
X33002952Y-86574714D01*
X33002952Y-86669952D02*
X33050571Y-86622333D01*
X33145809Y-86574714D01*
X33288666Y-86574714D01*
X33383904Y-86622333D01*
X33431523Y-86717571D01*
X33431523Y-87241380D01*
X33431523Y-86717571D02*
X33479142Y-86622333D01*
X33574380Y-86574714D01*
X33717238Y-86574714D01*
X33812476Y-86622333D01*
X33860095Y-86717571D01*
X33860095Y-87241380D01*
X34764857Y-87241380D02*
X34764857Y-86717571D01*
X34717238Y-86622333D01*
X34622000Y-86574714D01*
X34431523Y-86574714D01*
X34336285Y-86622333D01*
X34764857Y-87193761D02*
X34669619Y-87241380D01*
X34431523Y-87241380D01*
X34336285Y-87193761D01*
X34288666Y-87098523D01*
X34288666Y-87003285D01*
X34336285Y-86908047D01*
X34431523Y-86860428D01*
X34669619Y-86860428D01*
X34764857Y-86812809D01*
X35098190Y-86574714D02*
X35479142Y-86574714D01*
X35241047Y-86241380D02*
X35241047Y-87098523D01*
X35288666Y-87193761D01*
X35383904Y-87241380D01*
X35479142Y-87241380D01*
X35812476Y-87241380D02*
X35812476Y-86574714D01*
X35812476Y-86765190D02*
X35860095Y-86669952D01*
X35907714Y-86622333D01*
X36002952Y-86574714D01*
X36098190Y-86574714D01*
X36431523Y-87241380D02*
X36431523Y-86574714D01*
X36431523Y-86241380D02*
X36383904Y-86289000D01*
X36431523Y-86336619D01*
X36479142Y-86289000D01*
X36431523Y-86241380D01*
X36431523Y-86336619D01*
X36812476Y-87241380D02*
X37336285Y-86574714D01*
X36812476Y-86574714D02*
X37336285Y-87241380D01*
X33122000Y-88851380D02*
X33122000Y-88184714D01*
X33122000Y-88375190D02*
X33169619Y-88279952D01*
X33217238Y-88232333D01*
X33312476Y-88184714D01*
X33407714Y-88184714D01*
X34122000Y-88803761D02*
X34026761Y-88851380D01*
X33836285Y-88851380D01*
X33741047Y-88803761D01*
X33693428Y-88708523D01*
X33693428Y-88327571D01*
X33741047Y-88232333D01*
X33836285Y-88184714D01*
X34026761Y-88184714D01*
X34122000Y-88232333D01*
X34169619Y-88327571D01*
X34169619Y-88422809D01*
X33693428Y-88518047D01*
X34455333Y-88184714D02*
X34836285Y-88184714D01*
X34598190Y-87851380D02*
X34598190Y-88708523D01*
X34645809Y-88803761D01*
X34741047Y-88851380D01*
X34836285Y-88851380D01*
X35598190Y-88184714D02*
X35598190Y-88851380D01*
X35169619Y-88184714D02*
X35169619Y-88708523D01*
X35217238Y-88803761D01*
X35312476Y-88851380D01*
X35455333Y-88851380D01*
X35550571Y-88803761D01*
X35598190Y-88756142D01*
X36074380Y-88851380D02*
X36074380Y-88184714D01*
X36074380Y-88375190D02*
X36122000Y-88279952D01*
X36169619Y-88232333D01*
X36264857Y-88184714D01*
X36360095Y-88184714D01*
X36693428Y-88184714D02*
X36693428Y-88851380D01*
X36693428Y-88279952D02*
X36741047Y-88232333D01*
X36836285Y-88184714D01*
X36979142Y-88184714D01*
X37074380Y-88232333D01*
X37122000Y-88327571D01*
X37122000Y-88851380D01*
X18048666Y-73282761D02*
X17191523Y-74568476D01*
X18953428Y-74330380D02*
X18620095Y-73854190D01*
X18382000Y-74330380D02*
X18382000Y-73330380D01*
X18762952Y-73330380D01*
X18858190Y-73378000D01*
X18905809Y-73425619D01*
X18953428Y-73520857D01*
X18953428Y-73663714D01*
X18905809Y-73758952D01*
X18858190Y-73806571D01*
X18762952Y-73854190D01*
X18382000Y-73854190D01*
X19382000Y-73806571D02*
X19715333Y-73806571D01*
X19858190Y-74330380D02*
X19382000Y-74330380D01*
X19382000Y-73330380D01*
X19858190Y-73330380D01*
X20239142Y-74282761D02*
X20382000Y-74330380D01*
X20620095Y-74330380D01*
X20715333Y-74282761D01*
X20762952Y-74235142D01*
X20810571Y-74139904D01*
X20810571Y-74044666D01*
X20762952Y-73949428D01*
X20715333Y-73901809D01*
X20620095Y-73854190D01*
X20429619Y-73806571D01*
X20334380Y-73758952D01*
X20286761Y-73711333D01*
X20239142Y-73616095D01*
X20239142Y-73520857D01*
X20286761Y-73425619D01*
X20334380Y-73378000D01*
X20429619Y-73330380D01*
X20667714Y-73330380D01*
X20810571Y-73378000D01*
X21239142Y-73806571D02*
X21572476Y-73806571D01*
X21715333Y-74330380D02*
X21239142Y-74330380D01*
X21239142Y-73330380D01*
X21715333Y-73330380D01*
X22001047Y-73330380D02*
X22572476Y-73330380D01*
X22286761Y-74330380D02*
X22286761Y-73330380D01*
X17191809Y-64122761D02*
X17334666Y-64170380D01*
X17572761Y-64170380D01*
X17668000Y-64122761D01*
X17715619Y-64075142D01*
X17763238Y-63979904D01*
X17763238Y-63884666D01*
X17715619Y-63789428D01*
X17668000Y-63741809D01*
X17572761Y-63694190D01*
X17382285Y-63646571D01*
X17287047Y-63598952D01*
X17239428Y-63551333D01*
X17191809Y-63456095D01*
X17191809Y-63360857D01*
X17239428Y-63265619D01*
X17287047Y-63218000D01*
X17382285Y-63170380D01*
X17620380Y-63170380D01*
X17763238Y-63218000D01*
X18191809Y-64170380D02*
X18191809Y-63170380D01*
X18572761Y-63170380D01*
X18668000Y-63218000D01*
X18715619Y-63265619D01*
X18763238Y-63360857D01*
X18763238Y-63503714D01*
X18715619Y-63598952D01*
X18668000Y-63646571D01*
X18572761Y-63694190D01*
X18191809Y-63694190D01*
X19191809Y-64170380D02*
X19191809Y-63170380D01*
X19429904Y-64265619D02*
X20191809Y-64265619D01*
X20429904Y-64170380D02*
X20429904Y-63170380D01*
X20763238Y-63884666D01*
X21096571Y-63170380D01*
X21096571Y-64170380D01*
X21572761Y-64170380D02*
X21572761Y-63170380D01*
X22001333Y-64122761D02*
X22144190Y-64170380D01*
X22382285Y-64170380D01*
X22477523Y-64122761D01*
X22525142Y-64075142D01*
X22572761Y-63979904D01*
X22572761Y-63884666D01*
X22525142Y-63789428D01*
X22477523Y-63741809D01*
X22382285Y-63694190D01*
X22191809Y-63646571D01*
X22096571Y-63598952D01*
X22048952Y-63551333D01*
X22001333Y-63456095D01*
X22001333Y-63360857D01*
X22048952Y-63265619D01*
X22096571Y-63218000D01*
X22191809Y-63170380D01*
X22429904Y-63170380D01*
X22572761Y-63218000D01*
X23191809Y-63170380D02*
X23382285Y-63170380D01*
X23477523Y-63218000D01*
X23572761Y-63313238D01*
X23620380Y-63503714D01*
X23620380Y-63837047D01*
X23572761Y-64027523D01*
X23477523Y-64122761D01*
X23382285Y-64170380D01*
X23191809Y-64170380D01*
X23096571Y-64122761D01*
X23001333Y-64027523D01*
X22953714Y-63837047D01*
X22953714Y-63503714D01*
X23001333Y-63313238D01*
X23096571Y-63218000D01*
X23191809Y-63170380D01*
X23810857Y-64265619D02*
X24572761Y-64265619D01*
X24715619Y-63170380D02*
X25334666Y-63170380D01*
X25001333Y-63551333D01*
X25144190Y-63551333D01*
X25239428Y-63598952D01*
X25287047Y-63646571D01*
X25334666Y-63741809D01*
X25334666Y-63979904D01*
X25287047Y-64075142D01*
X25239428Y-64122761D01*
X25144190Y-64170380D01*
X24858476Y-64170380D01*
X24763238Y-64122761D01*
X24715619Y-64075142D01*
X25620380Y-63170380D02*
X25953714Y-64170380D01*
X26287047Y-63170380D01*
X26525142Y-63170380D02*
X27144190Y-63170380D01*
X26810857Y-63551333D01*
X26953714Y-63551333D01*
X27048952Y-63598952D01*
X27096571Y-63646571D01*
X27144190Y-63741809D01*
X27144190Y-63979904D01*
X27096571Y-64075142D01*
X27048952Y-64122761D01*
X26953714Y-64170380D01*
X26667999Y-64170380D01*
X26572761Y-64122761D01*
X26525142Y-64075142D01*
X17159809Y-53962761D02*
X17302666Y-54010380D01*
X17540761Y-54010380D01*
X17636000Y-53962761D01*
X17683619Y-53915142D01*
X17731238Y-53819904D01*
X17731238Y-53724666D01*
X17683619Y-53629428D01*
X17636000Y-53581809D01*
X17540761Y-53534190D01*
X17350285Y-53486571D01*
X17255047Y-53438952D01*
X17207428Y-53391333D01*
X17159809Y-53296095D01*
X17159809Y-53200857D01*
X17207428Y-53105619D01*
X17255047Y-53058000D01*
X17350285Y-53010380D01*
X17588380Y-53010380D01*
X17731238Y-53058000D01*
X18159809Y-54010380D02*
X18159809Y-53010380D01*
X18397904Y-53010380D01*
X18540761Y-53058000D01*
X18636000Y-53153238D01*
X18683619Y-53248476D01*
X18731238Y-53438952D01*
X18731238Y-53581809D01*
X18683619Y-53772285D01*
X18636000Y-53867523D01*
X18540761Y-53962761D01*
X18397904Y-54010380D01*
X18159809Y-54010380D01*
X19112190Y-53724666D02*
X19588380Y-53724666D01*
X19016952Y-54010380D02*
X19350285Y-53010380D01*
X19683619Y-54010380D01*
X19778857Y-54105619D02*
X20540761Y-54105619D01*
X20683619Y-53010380D02*
X21302666Y-53010380D01*
X20969333Y-53391333D01*
X21112190Y-53391333D01*
X21207428Y-53438952D01*
X21255047Y-53486571D01*
X21302666Y-53581809D01*
X21302666Y-53819904D01*
X21255047Y-53915142D01*
X21207428Y-53962761D01*
X21112190Y-54010380D01*
X20826476Y-54010380D01*
X20731238Y-53962761D01*
X20683619Y-53915142D01*
X21588380Y-53010380D02*
X21921714Y-54010380D01*
X22255047Y-53010380D01*
X22493142Y-53010380D02*
X23112190Y-53010380D01*
X22778857Y-53391333D01*
X22921714Y-53391333D01*
X23016952Y-53438952D01*
X23064571Y-53486571D01*
X23112190Y-53581809D01*
X23112190Y-53819904D01*
X23064571Y-53915142D01*
X23016952Y-53962761D01*
X22921714Y-54010380D01*
X22636000Y-54010380D01*
X22540761Y-53962761D01*
X22493142Y-53915142D01*
X180239047Y-18835714D02*
X180477142Y-19502380D01*
X180715238Y-18835714D01*
X181000952Y-18502380D02*
X181620000Y-18502380D01*
X181286666Y-18883333D01*
X181429523Y-18883333D01*
X181524761Y-18930952D01*
X181572380Y-18978571D01*
X181620000Y-19073809D01*
X181620000Y-19311904D01*
X181572380Y-19407142D01*
X181524761Y-19454761D01*
X181429523Y-19502380D01*
X181143809Y-19502380D01*
X181048571Y-19454761D01*
X181000952Y-19407142D01*
X182810476Y-19121428D02*
X183572380Y-19121428D01*
X184667619Y-18835714D02*
X185048571Y-18835714D01*
X184810476Y-19502380D02*
X184810476Y-18645238D01*
X184858095Y-18550000D01*
X184953333Y-18502380D01*
X185048571Y-18502380D01*
X185524761Y-19502380D02*
X185429523Y-19454761D01*
X185381904Y-19407142D01*
X185334285Y-19311904D01*
X185334285Y-19026190D01*
X185381904Y-18930952D01*
X185429523Y-18883333D01*
X185524761Y-18835714D01*
X185667619Y-18835714D01*
X185762857Y-18883333D01*
X185810476Y-18930952D01*
X185858095Y-19026190D01*
X185858095Y-19311904D01*
X185810476Y-19407142D01*
X185762857Y-19454761D01*
X185667619Y-19502380D01*
X185524761Y-19502380D01*
X186286666Y-19502380D02*
X186286666Y-18835714D01*
X186286666Y-19026190D02*
X186334285Y-18930952D01*
X186381904Y-18883333D01*
X186477142Y-18835714D01*
X186572380Y-18835714D01*
X187524761Y-18835714D02*
X187905714Y-18835714D01*
X187667619Y-18502380D02*
X187667619Y-19359523D01*
X187715238Y-19454761D01*
X187810476Y-19502380D01*
X187905714Y-19502380D01*
X188239047Y-19502380D02*
X188239047Y-18502380D01*
X188667619Y-19502380D02*
X188667619Y-18978571D01*
X188620000Y-18883333D01*
X188524761Y-18835714D01*
X188381904Y-18835714D01*
X188286666Y-18883333D01*
X188239047Y-18930952D01*
X189286666Y-19502380D02*
X189191428Y-19454761D01*
X189143809Y-19407142D01*
X189096190Y-19311904D01*
X189096190Y-19026190D01*
X189143809Y-18930952D01*
X189191428Y-18883333D01*
X189286666Y-18835714D01*
X189429523Y-18835714D01*
X189524761Y-18883333D01*
X189572380Y-18930952D01*
X189620000Y-19026190D01*
X189620000Y-19311904D01*
X189572380Y-19407142D01*
X189524761Y-19454761D01*
X189429523Y-19502380D01*
X189286666Y-19502380D01*
X190000952Y-19454761D02*
X190096190Y-19502380D01*
X190286666Y-19502380D01*
X190381904Y-19454761D01*
X190429523Y-19359523D01*
X190429523Y-19311904D01*
X190381904Y-19216666D01*
X190286666Y-19169047D01*
X190143809Y-19169047D01*
X190048571Y-19121428D01*
X190000952Y-19026190D01*
X190000952Y-18978571D01*
X190048571Y-18883333D01*
X190143809Y-18835714D01*
X190286666Y-18835714D01*
X190381904Y-18883333D01*
X191239047Y-19454761D02*
X191143809Y-19502380D01*
X190953333Y-19502380D01*
X190858095Y-19454761D01*
X190810476Y-19359523D01*
X190810476Y-18978571D01*
X190858095Y-18883333D01*
X190953333Y-18835714D01*
X191143809Y-18835714D01*
X191239047Y-18883333D01*
X191286666Y-18978571D01*
X191286666Y-19073809D01*
X190810476Y-19169047D01*
X192905714Y-19502380D02*
X192905714Y-18978571D01*
X192858095Y-18883333D01*
X192762857Y-18835714D01*
X192572380Y-18835714D01*
X192477142Y-18883333D01*
X192905714Y-19454761D02*
X192810476Y-19502380D01*
X192572380Y-19502380D01*
X192477142Y-19454761D01*
X192429523Y-19359523D01*
X192429523Y-19264285D01*
X192477142Y-19169047D01*
X192572380Y-19121428D01*
X192810476Y-19121428D01*
X192905714Y-19073809D01*
X193381904Y-19502380D02*
X193381904Y-18502380D01*
X193381904Y-18883333D02*
X193477142Y-18835714D01*
X193667619Y-18835714D01*
X193762857Y-18883333D01*
X193810476Y-18930952D01*
X193858095Y-19026190D01*
X193858095Y-19311904D01*
X193810476Y-19407142D01*
X193762857Y-19454761D01*
X193667619Y-19502380D01*
X193477142Y-19502380D01*
X193381904Y-19454761D01*
X194429523Y-19502380D02*
X194334285Y-19454761D01*
X194286666Y-19407142D01*
X194239047Y-19311904D01*
X194239047Y-19026190D01*
X194286666Y-18930952D01*
X194334285Y-18883333D01*
X194429523Y-18835714D01*
X194572380Y-18835714D01*
X194667619Y-18883333D01*
X194715238Y-18930952D01*
X194762857Y-19026190D01*
X194762857Y-19311904D01*
X194715238Y-19407142D01*
X194667619Y-19454761D01*
X194572380Y-19502380D01*
X194429523Y-19502380D01*
X195620000Y-18835714D02*
X195620000Y-19502380D01*
X195191428Y-18835714D02*
X195191428Y-19359523D01*
X195239047Y-19454761D01*
X195334285Y-19502380D01*
X195477142Y-19502380D01*
X195572380Y-19454761D01*
X195620000Y-19407142D01*
X195953333Y-18835714D02*
X196334285Y-18835714D01*
X196096190Y-18502380D02*
X196096190Y-19359523D01*
X196143809Y-19454761D01*
X196239047Y-19502380D01*
X196334285Y-19502380D01*
X197286666Y-18835714D02*
X197667619Y-18835714D01*
X197429523Y-18502380D02*
X197429523Y-19359523D01*
X197477142Y-19454761D01*
X197572380Y-19502380D01*
X197667619Y-19502380D01*
X198143809Y-19502380D02*
X198048571Y-19454761D01*
X198000952Y-19407142D01*
X197953333Y-19311904D01*
X197953333Y-19026190D01*
X198000952Y-18930952D01*
X198048571Y-18883333D01*
X198143809Y-18835714D01*
X198286666Y-18835714D01*
X198381904Y-18883333D01*
X198429523Y-18930952D01*
X198477142Y-19026190D01*
X198477142Y-19311904D01*
X198429523Y-19407142D01*
X198381904Y-19454761D01*
X198286666Y-19502380D01*
X198143809Y-19502380D01*
X200096190Y-19454761D02*
X200000952Y-19502380D01*
X199810476Y-19502380D01*
X199715238Y-19454761D01*
X199667619Y-19407142D01*
X199620000Y-19311904D01*
X199620000Y-19026190D01*
X199667619Y-18930952D01*
X199715238Y-18883333D01*
X199810476Y-18835714D01*
X200000952Y-18835714D01*
X200096190Y-18883333D01*
X200667619Y-19502380D02*
X200572380Y-19454761D01*
X200524761Y-19359523D01*
X200524761Y-18502380D01*
X201191428Y-19502380D02*
X201096190Y-19454761D01*
X201048571Y-19407142D01*
X201000952Y-19311904D01*
X201000952Y-19026190D01*
X201048571Y-18930952D01*
X201096190Y-18883333D01*
X201191428Y-18835714D01*
X201334285Y-18835714D01*
X201429523Y-18883333D01*
X201477142Y-18930952D01*
X201524761Y-19026190D01*
X201524761Y-19311904D01*
X201477142Y-19407142D01*
X201429523Y-19454761D01*
X201334285Y-19502380D01*
X201191428Y-19502380D01*
X202381904Y-19454761D02*
X202286666Y-19502380D01*
X202096190Y-19502380D01*
X202000952Y-19454761D01*
X201953333Y-19407142D01*
X201905714Y-19311904D01*
X201905714Y-19026190D01*
X201953333Y-18930952D01*
X202000952Y-18883333D01*
X202096190Y-18835714D01*
X202286666Y-18835714D01*
X202381904Y-18883333D01*
X202810476Y-19502380D02*
X202810476Y-18502380D01*
X202905714Y-19121428D02*
X203191428Y-19502380D01*
X203191428Y-18835714D02*
X202810476Y-19216666D01*
X203620000Y-19407142D02*
X203667619Y-19454761D01*
X203620000Y-19502380D01*
X203572380Y-19454761D01*
X203620000Y-19407142D01*
X203620000Y-19502380D01*
X204096190Y-19407142D02*
X204143809Y-19454761D01*
X204096190Y-19502380D01*
X204048571Y-19454761D01*
X204096190Y-19407142D01*
X204096190Y-19502380D01*
X204572380Y-19407142D02*
X204620000Y-19454761D01*
X204572380Y-19502380D01*
X204524761Y-19454761D01*
X204572380Y-19407142D01*
X204572380Y-19502380D01*
X205715238Y-18835714D02*
X205905714Y-19502380D01*
X206096190Y-19026190D01*
X206286666Y-19502380D01*
X206477142Y-18835714D01*
X207239047Y-19454761D02*
X207143809Y-19502380D01*
X206953333Y-19502380D01*
X206858095Y-19454761D01*
X206810476Y-19359523D01*
X206810476Y-18978571D01*
X206858095Y-18883333D01*
X206953333Y-18835714D01*
X207143809Y-18835714D01*
X207239047Y-18883333D01*
X207286666Y-18978571D01*
X207286666Y-19073809D01*
X206810476Y-19169047D01*
X208429523Y-19454761D02*
X208524761Y-19502380D01*
X208715238Y-19502380D01*
X208810476Y-19454761D01*
X208858095Y-19359523D01*
X208858095Y-19311904D01*
X208810476Y-19216666D01*
X208715238Y-19169047D01*
X208572380Y-19169047D01*
X208477142Y-19121428D01*
X208429523Y-19026190D01*
X208429523Y-18978571D01*
X208477142Y-18883333D01*
X208572380Y-18835714D01*
X208715238Y-18835714D01*
X208810476Y-18883333D01*
X209715238Y-19502380D02*
X209715238Y-18978571D01*
X209667619Y-18883333D01*
X209572380Y-18835714D01*
X209381904Y-18835714D01*
X209286666Y-18883333D01*
X209715238Y-19454761D02*
X209620000Y-19502380D01*
X209381904Y-19502380D01*
X209286666Y-19454761D01*
X209239047Y-19359523D01*
X209239047Y-19264285D01*
X209286666Y-19169047D01*
X209381904Y-19121428D01*
X209620000Y-19121428D01*
X209715238Y-19073809D01*
X210334285Y-19502380D02*
X210239047Y-19454761D01*
X210191428Y-19359523D01*
X210191428Y-18502380D01*
X211143809Y-18835714D02*
X211143809Y-19502380D01*
X210715238Y-18835714D02*
X210715238Y-19359523D01*
X210762857Y-19454761D01*
X210858095Y-19502380D01*
X211000952Y-19502380D01*
X211096190Y-19454761D01*
X211143809Y-19407142D01*
X211477142Y-18835714D02*
X211858095Y-18835714D01*
X211620000Y-18502380D02*
X211620000Y-19359523D01*
X211667619Y-19454761D01*
X211762857Y-19502380D01*
X211858095Y-19502380D01*
X212572380Y-19454761D02*
X212477142Y-19502380D01*
X212286666Y-19502380D01*
X212191428Y-19454761D01*
X212143809Y-19359523D01*
X212143809Y-18978571D01*
X212191428Y-18883333D01*
X212286666Y-18835714D01*
X212477142Y-18835714D01*
X212572380Y-18883333D01*
X212620000Y-18978571D01*
X212620000Y-19073809D01*
X212143809Y-19169047D01*
X213715238Y-18835714D02*
X213953333Y-19502380D01*
X214191428Y-18835714D02*
X213953333Y-19502380D01*
X213858095Y-19740476D01*
X213810476Y-19788095D01*
X213715238Y-19835714D01*
X214715238Y-19502380D02*
X214620000Y-19454761D01*
X214572380Y-19407142D01*
X214524761Y-19311904D01*
X214524761Y-19026190D01*
X214572380Y-18930952D01*
X214620000Y-18883333D01*
X214715238Y-18835714D01*
X214858095Y-18835714D01*
X214953333Y-18883333D01*
X215000952Y-18930952D01*
X215048571Y-19026190D01*
X215048571Y-19311904D01*
X215000952Y-19407142D01*
X214953333Y-19454761D01*
X214858095Y-19502380D01*
X214715238Y-19502380D01*
X215905714Y-18835714D02*
X215905714Y-19502380D01*
X215477142Y-18835714D02*
X215477142Y-19359523D01*
X215524761Y-19454761D01*
X215620000Y-19502380D01*
X215762857Y-19502380D01*
X215858095Y-19454761D01*
X215905714Y-19407142D01*
D11*
X205007428Y-107069142D02*
X205221714Y-107140571D01*
X205578857Y-107140571D01*
X205721714Y-107069142D01*
X205793142Y-106997714D01*
X205864571Y-106854857D01*
X205864571Y-106712000D01*
X205793142Y-106569142D01*
X205721714Y-106497714D01*
X205578857Y-106426285D01*
X205293142Y-106354857D01*
X205150285Y-106283428D01*
X205078857Y-106212000D01*
X205007428Y-106069142D01*
X205007428Y-105926285D01*
X205078857Y-105783428D01*
X205150285Y-105712000D01*
X205293142Y-105640571D01*
X205650285Y-105640571D01*
X205864571Y-105712000D01*
X206507428Y-106354857D02*
X207007428Y-106354857D01*
X207221714Y-107140571D02*
X206507428Y-107140571D01*
X206507428Y-105640571D01*
X207221714Y-105640571D01*
X207650285Y-105640571D02*
X208507428Y-105640571D01*
X208078857Y-107140571D02*
X208078857Y-105640571D01*
D10*
X17659523Y-47930380D02*
X17183333Y-47930380D01*
X17135714Y-48406571D01*
X17183333Y-48358952D01*
X17278571Y-48311333D01*
X17516666Y-48311333D01*
X17611904Y-48358952D01*
X17659523Y-48406571D01*
X17707142Y-48501809D01*
X17707142Y-48739904D01*
X17659523Y-48835142D01*
X17611904Y-48882761D01*
X17516666Y-48930380D01*
X17278571Y-48930380D01*
X17183333Y-48882761D01*
X17135714Y-48835142D01*
X17992857Y-47930380D02*
X18326190Y-48930380D01*
X18659523Y-47930380D01*
X17183619Y-56502761D02*
X17326476Y-56550380D01*
X17564571Y-56550380D01*
X17659809Y-56502761D01*
X17707428Y-56455142D01*
X17755047Y-56359904D01*
X17755047Y-56264666D01*
X17707428Y-56169428D01*
X17659809Y-56121809D01*
X17564571Y-56074190D01*
X17374095Y-56026571D01*
X17278857Y-55978952D01*
X17231238Y-55931333D01*
X17183619Y-55836095D01*
X17183619Y-55740857D01*
X17231238Y-55645619D01*
X17278857Y-55598000D01*
X17374095Y-55550380D01*
X17612190Y-55550380D01*
X17755047Y-55598000D01*
X18755047Y-56455142D02*
X18707428Y-56502761D01*
X18564571Y-56550380D01*
X18469333Y-56550380D01*
X18326476Y-56502761D01*
X18231238Y-56407523D01*
X18183619Y-56312285D01*
X18136000Y-56121809D01*
X18136000Y-55978952D01*
X18183619Y-55788476D01*
X18231238Y-55693238D01*
X18326476Y-55598000D01*
X18469333Y-55550380D01*
X18564571Y-55550380D01*
X18707428Y-55598000D01*
X18755047Y-55645619D01*
X19659809Y-56550380D02*
X19183619Y-56550380D01*
X19183619Y-55550380D01*
X19755047Y-56645619D02*
X20516952Y-56645619D01*
X20659809Y-55550380D02*
X21278857Y-55550380D01*
X20945523Y-55931333D01*
X21088380Y-55931333D01*
X21183619Y-55978952D01*
X21231238Y-56026571D01*
X21278857Y-56121809D01*
X21278857Y-56359904D01*
X21231238Y-56455142D01*
X21183619Y-56502761D01*
X21088380Y-56550380D01*
X20802666Y-56550380D01*
X20707428Y-56502761D01*
X20659809Y-56455142D01*
X21564571Y-55550380D02*
X21897904Y-56550380D01*
X22231238Y-55550380D01*
X22469333Y-55550380D02*
X23088380Y-55550380D01*
X22755047Y-55931333D01*
X22897904Y-55931333D01*
X22993142Y-55978952D01*
X23040761Y-56026571D01*
X23088380Y-56121809D01*
X23088380Y-56359904D01*
X23040761Y-56455142D01*
X22993142Y-56502761D01*
X22897904Y-56550380D01*
X22612190Y-56550380D01*
X22516952Y-56502761D01*
X22469333Y-56455142D01*
X17294952Y-66662761D02*
X17437809Y-66710380D01*
X17675904Y-66710380D01*
X17771142Y-66662761D01*
X17818761Y-66615142D01*
X17866380Y-66519904D01*
X17866380Y-66424666D01*
X17818761Y-66329428D01*
X17771142Y-66281809D01*
X17675904Y-66234190D01*
X17485428Y-66186571D01*
X17390190Y-66138952D01*
X17342571Y-66091333D01*
X17294952Y-65996095D01*
X17294952Y-65900857D01*
X17342571Y-65805619D01*
X17390190Y-65758000D01*
X17485428Y-65710380D01*
X17723523Y-65710380D01*
X17866380Y-65758000D01*
X18294952Y-66710380D02*
X18294952Y-65710380D01*
X18675904Y-65710380D01*
X18771142Y-65758000D01*
X18818761Y-65805619D01*
X18866380Y-65900857D01*
X18866380Y-66043714D01*
X18818761Y-66138952D01*
X18771142Y-66186571D01*
X18675904Y-66234190D01*
X18294952Y-66234190D01*
X19294952Y-66710380D02*
X19294952Y-65710380D01*
X19533047Y-66805619D02*
X20294952Y-66805619D01*
X21104476Y-66615142D02*
X21056857Y-66662761D01*
X20914000Y-66710380D01*
X20818761Y-66710380D01*
X20675904Y-66662761D01*
X20580666Y-66567523D01*
X20533047Y-66472285D01*
X20485428Y-66281809D01*
X20485428Y-66138952D01*
X20533047Y-65948476D01*
X20580666Y-65853238D01*
X20675904Y-65758000D01*
X20818761Y-65710380D01*
X20914000Y-65710380D01*
X21056857Y-65758000D01*
X21104476Y-65805619D01*
X21485428Y-66662761D02*
X21628285Y-66710380D01*
X21866380Y-66710380D01*
X21961619Y-66662761D01*
X22009238Y-66615142D01*
X22056857Y-66519904D01*
X22056857Y-66424666D01*
X22009238Y-66329428D01*
X21961619Y-66281809D01*
X21866380Y-66234190D01*
X21675904Y-66186571D01*
X21580666Y-66138952D01*
X21533047Y-66091333D01*
X21485428Y-65996095D01*
X21485428Y-65900857D01*
X21533047Y-65805619D01*
X21580666Y-65758000D01*
X21675904Y-65710380D01*
X21914000Y-65710380D01*
X22056857Y-65758000D01*
X22675904Y-65710380D02*
X22771142Y-65710380D01*
X22866380Y-65758000D01*
X22914000Y-65805619D01*
X22961619Y-65900857D01*
X23009238Y-66091333D01*
X23009238Y-66329428D01*
X22961619Y-66519904D01*
X22914000Y-66615142D01*
X22866380Y-66662761D01*
X22771142Y-66710380D01*
X22675904Y-66710380D01*
X22580666Y-66662761D01*
X22533047Y-66615142D01*
X22485428Y-66519904D01*
X22437809Y-66329428D01*
X22437809Y-66091333D01*
X22485428Y-65900857D01*
X22533047Y-65805619D01*
X22580666Y-65758000D01*
X22675904Y-65710380D01*
X23199714Y-66805619D02*
X23961619Y-66805619D01*
X24104476Y-65710380D02*
X24723523Y-65710380D01*
X24390190Y-66091333D01*
X24533047Y-66091333D01*
X24628285Y-66138952D01*
X24675904Y-66186571D01*
X24723523Y-66281809D01*
X24723523Y-66519904D01*
X24675904Y-66615142D01*
X24628285Y-66662761D01*
X24533047Y-66710380D01*
X24247333Y-66710380D01*
X24152095Y-66662761D01*
X24104476Y-66615142D01*
X25009238Y-65710380D02*
X25342571Y-66710380D01*
X25675904Y-65710380D01*
X25914000Y-65710380D02*
X26533047Y-65710380D01*
X26199714Y-66091333D01*
X26342571Y-66091333D01*
X26437809Y-66138952D01*
X26485428Y-66186571D01*
X26533047Y-66281809D01*
X26533047Y-66519904D01*
X26485428Y-66615142D01*
X26437809Y-66662761D01*
X26342571Y-66710380D01*
X26056857Y-66710380D01*
X25961619Y-66662761D01*
X25914000Y-66615142D01*
D11*
X182647428Y-105640571D02*
X182647428Y-106854857D01*
X182718857Y-106997714D01*
X182790285Y-107069142D01*
X182933142Y-107140571D01*
X183218857Y-107140571D01*
X183361714Y-107069142D01*
X183433142Y-106997714D01*
X183504571Y-106854857D01*
X183504571Y-105640571D01*
X184218857Y-107140571D02*
X184218857Y-105640571D01*
X184790285Y-105640571D01*
X184933142Y-105712000D01*
X185004571Y-105783428D01*
X185076000Y-105926285D01*
X185076000Y-106140571D01*
X185004571Y-106283428D01*
X184933142Y-106354857D01*
X184790285Y-106426285D01*
X184218857Y-106426285D01*
D10*
X63904761Y-65975809D02*
X63952380Y-65880571D01*
X63952380Y-65690095D01*
X63904761Y-65594857D01*
X63809523Y-65547238D01*
X63761904Y-65547238D01*
X63666666Y-65594857D01*
X63619047Y-65690095D01*
X63619047Y-65832952D01*
X63571428Y-65928190D01*
X63476190Y-65975809D01*
X63428571Y-65975809D01*
X63333333Y-65928190D01*
X63285714Y-65832952D01*
X63285714Y-65690095D01*
X63333333Y-65594857D01*
X63904761Y-64737714D02*
X63952380Y-64832952D01*
X63952380Y-65023428D01*
X63904761Y-65118666D01*
X63809523Y-65166285D01*
X63428571Y-65166285D01*
X63333333Y-65118666D01*
X63285714Y-65023428D01*
X63285714Y-64832952D01*
X63333333Y-64737714D01*
X63428571Y-64690095D01*
X63523809Y-64690095D01*
X63619047Y-65166285D01*
X63285714Y-63832952D02*
X64095238Y-63832952D01*
X64190476Y-63880571D01*
X64238095Y-63928190D01*
X64285714Y-64023428D01*
X64285714Y-64166285D01*
X64238095Y-64261523D01*
X63904761Y-63832952D02*
X63952380Y-63928190D01*
X63952380Y-64118666D01*
X63904761Y-64213904D01*
X63857142Y-64261523D01*
X63761904Y-64309142D01*
X63476190Y-64309142D01*
X63380952Y-64261523D01*
X63333333Y-64213904D01*
X63285714Y-64118666D01*
X63285714Y-63928190D01*
X63333333Y-63832952D01*
X63952380Y-63356761D02*
X63285714Y-63356761D01*
X63380952Y-63356761D02*
X63333333Y-63309142D01*
X63285714Y-63213904D01*
X63285714Y-63071047D01*
X63333333Y-62975809D01*
X63428571Y-62928190D01*
X63952380Y-62928190D01*
X63428571Y-62928190D02*
X63333333Y-62880571D01*
X63285714Y-62785333D01*
X63285714Y-62642476D01*
X63333333Y-62547238D01*
X63428571Y-62499619D01*
X63952380Y-62499619D01*
X63904761Y-61642476D02*
X63952380Y-61737714D01*
X63952380Y-61928190D01*
X63904761Y-62023428D01*
X63809523Y-62071047D01*
X63428571Y-62071047D01*
X63333333Y-62023428D01*
X63285714Y-61928190D01*
X63285714Y-61737714D01*
X63333333Y-61642476D01*
X63428571Y-61594857D01*
X63523809Y-61594857D01*
X63619047Y-62071047D01*
X63285714Y-61166285D02*
X63952380Y-61166285D01*
X63380952Y-61166285D02*
X63333333Y-61118666D01*
X63285714Y-61023428D01*
X63285714Y-60880571D01*
X63333333Y-60785333D01*
X63428571Y-60737714D01*
X63952380Y-60737714D01*
X63285714Y-60404380D02*
X63285714Y-60023428D01*
X62952380Y-60261523D02*
X63809523Y-60261523D01*
X63904761Y-60213904D01*
X63952380Y-60118666D01*
X63952380Y-60023428D01*
X63952380Y-58499619D02*
X62952380Y-58499619D01*
X63904761Y-58499619D02*
X63952380Y-58594857D01*
X63952380Y-58785333D01*
X63904761Y-58880571D01*
X63857142Y-58928190D01*
X63761904Y-58975809D01*
X63476190Y-58975809D01*
X63380952Y-58928190D01*
X63333333Y-58880571D01*
X63285714Y-58785333D01*
X63285714Y-58594857D01*
X63333333Y-58499619D01*
X63952380Y-58023428D02*
X63285714Y-58023428D01*
X63476190Y-58023428D02*
X63380952Y-57975809D01*
X63333333Y-57928190D01*
X63285714Y-57832952D01*
X63285714Y-57737714D01*
X63952380Y-57404380D02*
X63285714Y-57404380D01*
X62952380Y-57404380D02*
X63000000Y-57452000D01*
X63047619Y-57404380D01*
X63000000Y-57356761D01*
X62952380Y-57404380D01*
X63047619Y-57404380D01*
X63285714Y-57023428D02*
X63952380Y-56785333D01*
X63285714Y-56547238D01*
X63904761Y-55785333D02*
X63952380Y-55880571D01*
X63952380Y-56071047D01*
X63904761Y-56166285D01*
X63809523Y-56213904D01*
X63428571Y-56213904D01*
X63333333Y-56166285D01*
X63285714Y-56071047D01*
X63285714Y-55880571D01*
X63333333Y-55785333D01*
X63428571Y-55737714D01*
X63523809Y-55737714D01*
X63619047Y-56213904D01*
X63904761Y-55356761D02*
X63952380Y-55261523D01*
X63952380Y-55071047D01*
X63904761Y-54975809D01*
X63809523Y-54928190D01*
X63761904Y-54928190D01*
X63666666Y-54975809D01*
X63619047Y-55071047D01*
X63619047Y-55213904D01*
X63571428Y-55309142D01*
X63476190Y-55356761D01*
X63428571Y-55356761D01*
X63333333Y-55309142D01*
X63285714Y-55213904D01*
X63285714Y-55071047D01*
X63333333Y-54975809D01*
X17191809Y-61836761D02*
X17334666Y-61884380D01*
X17572761Y-61884380D01*
X17668000Y-61836761D01*
X17715619Y-61789142D01*
X17763238Y-61693904D01*
X17763238Y-61598666D01*
X17715619Y-61503428D01*
X17668000Y-61455809D01*
X17572761Y-61408190D01*
X17382285Y-61360571D01*
X17287047Y-61312952D01*
X17239428Y-61265333D01*
X17191809Y-61170095D01*
X17191809Y-61074857D01*
X17239428Y-60979619D01*
X17287047Y-60932000D01*
X17382285Y-60884380D01*
X17620380Y-60884380D01*
X17763238Y-60932000D01*
X18191809Y-61884380D02*
X18191809Y-60884380D01*
X18572761Y-60884380D01*
X18668000Y-60932000D01*
X18715619Y-60979619D01*
X18763238Y-61074857D01*
X18763238Y-61217714D01*
X18715619Y-61312952D01*
X18668000Y-61360571D01*
X18572761Y-61408190D01*
X18191809Y-61408190D01*
X19191809Y-61884380D02*
X19191809Y-60884380D01*
X19429904Y-61979619D02*
X20191809Y-61979619D01*
X20429904Y-61884380D02*
X20429904Y-60884380D01*
X20763238Y-61598666D01*
X21096571Y-60884380D01*
X21096571Y-61884380D01*
X21763238Y-60884380D02*
X21953714Y-60884380D01*
X22048952Y-60932000D01*
X22144190Y-61027238D01*
X22191809Y-61217714D01*
X22191809Y-61551047D01*
X22144190Y-61741523D01*
X22048952Y-61836761D01*
X21953714Y-61884380D01*
X21763238Y-61884380D01*
X21668000Y-61836761D01*
X21572761Y-61741523D01*
X21525142Y-61551047D01*
X21525142Y-61217714D01*
X21572761Y-61027238D01*
X21668000Y-60932000D01*
X21763238Y-60884380D01*
X22572761Y-61836761D02*
X22715619Y-61884380D01*
X22953714Y-61884380D01*
X23048952Y-61836761D01*
X23096571Y-61789142D01*
X23144190Y-61693904D01*
X23144190Y-61598666D01*
X23096571Y-61503428D01*
X23048952Y-61455809D01*
X22953714Y-61408190D01*
X22763238Y-61360571D01*
X22668000Y-61312952D01*
X22620380Y-61265333D01*
X22572761Y-61170095D01*
X22572761Y-61074857D01*
X22620380Y-60979619D01*
X22668000Y-60932000D01*
X22763238Y-60884380D01*
X23001333Y-60884380D01*
X23144190Y-60932000D01*
X23572761Y-61884380D02*
X23572761Y-60884380D01*
X23810857Y-61979619D02*
X24572761Y-61979619D01*
X24715619Y-60884380D02*
X25334666Y-60884380D01*
X25001333Y-61265333D01*
X25144190Y-61265333D01*
X25239428Y-61312952D01*
X25287047Y-61360571D01*
X25334666Y-61455809D01*
X25334666Y-61693904D01*
X25287047Y-61789142D01*
X25239428Y-61836761D01*
X25144190Y-61884380D01*
X24858476Y-61884380D01*
X24763238Y-61836761D01*
X24715619Y-61789142D01*
X25620380Y-60884380D02*
X25953714Y-61884380D01*
X26287047Y-60884380D01*
X26525142Y-60884380D02*
X27144190Y-60884380D01*
X26810857Y-61265333D01*
X26953714Y-61265333D01*
X27048952Y-61312952D01*
X27096571Y-61360571D01*
X27144190Y-61455809D01*
X27144190Y-61693904D01*
X27096571Y-61789142D01*
X27048952Y-61836761D01*
X26953714Y-61884380D01*
X26667999Y-61884380D01*
X26572761Y-61836761D01*
X26525142Y-61789142D01*
X17850095Y-75918000D02*
X17754857Y-75870380D01*
X17612000Y-75870380D01*
X17469142Y-75918000D01*
X17373904Y-76013238D01*
X17326285Y-76108476D01*
X17278666Y-76298952D01*
X17278666Y-76441809D01*
X17326285Y-76632285D01*
X17373904Y-76727523D01*
X17469142Y-76822761D01*
X17612000Y-76870380D01*
X17707238Y-76870380D01*
X17850095Y-76822761D01*
X17897714Y-76775142D01*
X17897714Y-76441809D01*
X17707238Y-76441809D01*
X18326285Y-76870380D02*
X18326285Y-75870380D01*
X18897714Y-76870380D01*
X18897714Y-75870380D01*
X19373904Y-76870380D02*
X19373904Y-75870380D01*
X19612000Y-75870380D01*
X19754857Y-75918000D01*
X19850095Y-76013238D01*
X19897714Y-76108476D01*
X19945333Y-76298952D01*
X19945333Y-76441809D01*
X19897714Y-76632285D01*
X19850095Y-76727523D01*
X19754857Y-76822761D01*
X19612000Y-76870380D01*
X19373904Y-76870380D01*
%TO.C,SW1*%
X182614666Y-118228761D02*
X182757523Y-118276380D01*
X182995619Y-118276380D01*
X183090857Y-118228761D01*
X183138476Y-118181142D01*
X183186095Y-118085904D01*
X183186095Y-117990666D01*
X183138476Y-117895428D01*
X183090857Y-117847809D01*
X182995619Y-117800190D01*
X182805142Y-117752571D01*
X182709904Y-117704952D01*
X182662285Y-117657333D01*
X182614666Y-117562095D01*
X182614666Y-117466857D01*
X182662285Y-117371619D01*
X182709904Y-117324000D01*
X182805142Y-117276380D01*
X183043238Y-117276380D01*
X183186095Y-117324000D01*
X183519428Y-117276380D02*
X183757523Y-118276380D01*
X183948000Y-117562095D01*
X184138476Y-118276380D01*
X184376571Y-117276380D01*
X185281333Y-118276380D02*
X184709904Y-118276380D01*
X184995619Y-118276380D02*
X184995619Y-117276380D01*
X184900380Y-117419238D01*
X184805142Y-117514476D01*
X184709904Y-117562095D01*
%TO.C,SW5*%
X224166666Y-118228761D02*
X224309523Y-118276380D01*
X224547619Y-118276380D01*
X224642857Y-118228761D01*
X224690476Y-118181142D01*
X224738095Y-118085904D01*
X224738095Y-117990666D01*
X224690476Y-117895428D01*
X224642857Y-117847809D01*
X224547619Y-117800190D01*
X224357142Y-117752571D01*
X224261904Y-117704952D01*
X224214285Y-117657333D01*
X224166666Y-117562095D01*
X224166666Y-117466857D01*
X224214285Y-117371619D01*
X224261904Y-117324000D01*
X224357142Y-117276380D01*
X224595238Y-117276380D01*
X224738095Y-117324000D01*
X225071428Y-117276380D02*
X225309523Y-118276380D01*
X225500000Y-117562095D01*
X225690476Y-118276380D01*
X225928571Y-117276380D01*
X226785714Y-117276380D02*
X226309523Y-117276380D01*
X226261904Y-117752571D01*
X226309523Y-117704952D01*
X226404761Y-117657333D01*
X226642857Y-117657333D01*
X226738095Y-117704952D01*
X226785714Y-117752571D01*
X226833333Y-117847809D01*
X226833333Y-118085904D01*
X226785714Y-118181142D01*
X226738095Y-118228761D01*
X226642857Y-118276380D01*
X226404761Y-118276380D01*
X226309523Y-118228761D01*
X226261904Y-118181142D01*
%TO.C,Q11*%
X59626571Y-67235619D02*
X59531333Y-67188000D01*
X59436095Y-67092761D01*
X59293238Y-66949904D01*
X59198000Y-66902285D01*
X59102761Y-66902285D01*
X59150380Y-67140380D02*
X59055142Y-67092761D01*
X58959904Y-66997523D01*
X58912285Y-66807047D01*
X58912285Y-66473714D01*
X58959904Y-66283238D01*
X59055142Y-66188000D01*
X59150380Y-66140380D01*
X59340857Y-66140380D01*
X59436095Y-66188000D01*
X59531333Y-66283238D01*
X59578952Y-66473714D01*
X59578952Y-66807047D01*
X59531333Y-66997523D01*
X59436095Y-67092761D01*
X59340857Y-67140380D01*
X59150380Y-67140380D01*
X60531333Y-67140380D02*
X59959904Y-67140380D01*
X60245619Y-67140380D02*
X60245619Y-66140380D01*
X60150380Y-66283238D01*
X60055142Y-66378476D01*
X59959904Y-66426095D01*
X61483714Y-67140380D02*
X60912285Y-67140380D01*
X61198000Y-67140380D02*
X61198000Y-66140380D01*
X61102761Y-66283238D01*
X61007523Y-66378476D01*
X60912285Y-66426095D01*
%TO.C,J1*%
X14976666Y-45600380D02*
X14976666Y-46314666D01*
X14929047Y-46457523D01*
X14833809Y-46552761D01*
X14690952Y-46600380D01*
X14595714Y-46600380D01*
X15976666Y-46600380D02*
X15405238Y-46600380D01*
X15690952Y-46600380D02*
X15690952Y-45600380D01*
X15595714Y-45743238D01*
X15500476Y-45838476D01*
X15405238Y-45886095D01*
%TO.C,SW4*%
X113474666Y-118296761D02*
X113617523Y-118344380D01*
X113855619Y-118344380D01*
X113950857Y-118296761D01*
X113998476Y-118249142D01*
X114046095Y-118153904D01*
X114046095Y-118058666D01*
X113998476Y-117963428D01*
X113950857Y-117915809D01*
X113855619Y-117868190D01*
X113665142Y-117820571D01*
X113569904Y-117772952D01*
X113522285Y-117725333D01*
X113474666Y-117630095D01*
X113474666Y-117534857D01*
X113522285Y-117439619D01*
X113569904Y-117392000D01*
X113665142Y-117344380D01*
X113903238Y-117344380D01*
X114046095Y-117392000D01*
X114379428Y-117344380D02*
X114617523Y-118344380D01*
X114808000Y-117630095D01*
X114998476Y-118344380D01*
X115236571Y-117344380D01*
X116046095Y-117677714D02*
X116046095Y-118344380D01*
X115808000Y-117296761D02*
X115569904Y-118011047D01*
X116188952Y-118011047D01*
%TO.C,Q4*%
X45292261Y-82475619D02*
X45197023Y-82428000D01*
X45101785Y-82332761D01*
X44958928Y-82189904D01*
X44863690Y-82142285D01*
X44768452Y-82142285D01*
X44816071Y-82380380D02*
X44720833Y-82332761D01*
X44625595Y-82237523D01*
X44577976Y-82047047D01*
X44577976Y-81713714D01*
X44625595Y-81523238D01*
X44720833Y-81428000D01*
X44816071Y-81380380D01*
X45006547Y-81380380D01*
X45101785Y-81428000D01*
X45197023Y-81523238D01*
X45244642Y-81713714D01*
X45244642Y-82047047D01*
X45197023Y-82237523D01*
X45101785Y-82332761D01*
X45006547Y-82380380D01*
X44816071Y-82380380D01*
X46101785Y-81713714D02*
X46101785Y-82380380D01*
X45863690Y-81332761D02*
X45625595Y-82047047D01*
X46244642Y-82047047D01*
%TO.C,Q1*%
X37237619Y-84423238D02*
X37190000Y-84518476D01*
X37094761Y-84613714D01*
X36951904Y-84756571D01*
X36904285Y-84851809D01*
X36904285Y-84947047D01*
X37142380Y-84899428D02*
X37094761Y-84994666D01*
X36999523Y-85089904D01*
X36809047Y-85137523D01*
X36475714Y-85137523D01*
X36285238Y-85089904D01*
X36190000Y-84994666D01*
X36142380Y-84899428D01*
X36142380Y-84708952D01*
X36190000Y-84613714D01*
X36285238Y-84518476D01*
X36475714Y-84470857D01*
X36809047Y-84470857D01*
X36999523Y-84518476D01*
X37094761Y-84613714D01*
X37142380Y-84708952D01*
X37142380Y-84899428D01*
X37142380Y-83518476D02*
X37142380Y-84089904D01*
X37142380Y-83804190D02*
X36142380Y-83804190D01*
X36285238Y-83899428D01*
X36380476Y-83994666D01*
X36428095Y-84089904D01*
%TO.C,Q8*%
X60102761Y-51741619D02*
X60007523Y-51694000D01*
X59912285Y-51598761D01*
X59769428Y-51455904D01*
X59674190Y-51408285D01*
X59578952Y-51408285D01*
X59626571Y-51646380D02*
X59531333Y-51598761D01*
X59436095Y-51503523D01*
X59388476Y-51313047D01*
X59388476Y-50979714D01*
X59436095Y-50789238D01*
X59531333Y-50694000D01*
X59626571Y-50646380D01*
X59817047Y-50646380D01*
X59912285Y-50694000D01*
X60007523Y-50789238D01*
X60055142Y-50979714D01*
X60055142Y-51313047D01*
X60007523Y-51503523D01*
X59912285Y-51598761D01*
X59817047Y-51646380D01*
X59626571Y-51646380D01*
X60626571Y-51074952D02*
X60531333Y-51027333D01*
X60483714Y-50979714D01*
X60436095Y-50884476D01*
X60436095Y-50836857D01*
X60483714Y-50741619D01*
X60531333Y-50694000D01*
X60626571Y-50646380D01*
X60817047Y-50646380D01*
X60912285Y-50694000D01*
X60959904Y-50741619D01*
X61007523Y-50836857D01*
X61007523Y-50884476D01*
X60959904Y-50979714D01*
X60912285Y-51027333D01*
X60817047Y-51074952D01*
X60626571Y-51074952D01*
X60531333Y-51122571D01*
X60483714Y-51170190D01*
X60436095Y-51265428D01*
X60436095Y-51455904D01*
X60483714Y-51551142D01*
X60531333Y-51598761D01*
X60626571Y-51646380D01*
X60817047Y-51646380D01*
X60912285Y-51598761D01*
X60959904Y-51551142D01*
X61007523Y-51455904D01*
X61007523Y-51265428D01*
X60959904Y-51170190D01*
X60912285Y-51122571D01*
X60817047Y-51074952D01*
%TO.C,JP1*%
X47894380Y-25435333D02*
X48608666Y-25435333D01*
X48751523Y-25482952D01*
X48846761Y-25578190D01*
X48894380Y-25721047D01*
X48894380Y-25816285D01*
X48894380Y-24959142D02*
X47894380Y-24959142D01*
X47894380Y-24578190D01*
X47942000Y-24482952D01*
X47989619Y-24435333D01*
X48084857Y-24387714D01*
X48227714Y-24387714D01*
X48322952Y-24435333D01*
X48370571Y-24482952D01*
X48418190Y-24578190D01*
X48418190Y-24959142D01*
X48894380Y-23435333D02*
X48894380Y-24006761D01*
X48894380Y-23721047D02*
X47894380Y-23721047D01*
X48037238Y-23816285D01*
X48132476Y-23911523D01*
X48180095Y-24006761D01*
%TO.C,Q3*%
X49180761Y-82475619D02*
X49085523Y-82428000D01*
X48990285Y-82332761D01*
X48847428Y-82189904D01*
X48752190Y-82142285D01*
X48656952Y-82142285D01*
X48704571Y-82380380D02*
X48609333Y-82332761D01*
X48514095Y-82237523D01*
X48466476Y-82047047D01*
X48466476Y-81713714D01*
X48514095Y-81523238D01*
X48609333Y-81428000D01*
X48704571Y-81380380D01*
X48895047Y-81380380D01*
X48990285Y-81428000D01*
X49085523Y-81523238D01*
X49133142Y-81713714D01*
X49133142Y-82047047D01*
X49085523Y-82237523D01*
X48990285Y-82332761D01*
X48895047Y-82380380D01*
X48704571Y-82380380D01*
X49466476Y-81380380D02*
X50085523Y-81380380D01*
X49752190Y-81761333D01*
X49895047Y-81761333D01*
X49990285Y-81808952D01*
X50037904Y-81856571D01*
X50085523Y-81951809D01*
X50085523Y-82189904D01*
X50037904Y-82285142D01*
X49990285Y-82332761D01*
X49895047Y-82380380D01*
X49609333Y-82380380D01*
X49514095Y-82332761D01*
X49466476Y-82285142D01*
%TO.C,R1*%
X30494380Y-86490666D02*
X30018190Y-86824000D01*
X30494380Y-87062095D02*
X29494380Y-87062095D01*
X29494380Y-86681142D01*
X29542000Y-86585904D01*
X29589619Y-86538285D01*
X29684857Y-86490666D01*
X29827714Y-86490666D01*
X29922952Y-86538285D01*
X29970571Y-86585904D01*
X30018190Y-86681142D01*
X30018190Y-87062095D01*
X30494380Y-85538285D02*
X30494380Y-86109714D01*
X30494380Y-85824000D02*
X29494380Y-85824000D01*
X29637238Y-85919238D01*
X29732476Y-86014476D01*
X29780095Y-86109714D01*
%TO.C,C2*%
X30127142Y-21236666D02*
X30174761Y-21284285D01*
X30222380Y-21427142D01*
X30222380Y-21522380D01*
X30174761Y-21665238D01*
X30079523Y-21760476D01*
X29984285Y-21808095D01*
X29793809Y-21855714D01*
X29650952Y-21855714D01*
X29460476Y-21808095D01*
X29365238Y-21760476D01*
X29270000Y-21665238D01*
X29222380Y-21522380D01*
X29222380Y-21427142D01*
X29270000Y-21284285D01*
X29317619Y-21236666D01*
X29317619Y-20855714D02*
X29270000Y-20808095D01*
X29222380Y-20712857D01*
X29222380Y-20474761D01*
X29270000Y-20379523D01*
X29317619Y-20331904D01*
X29412857Y-20284285D01*
X29508095Y-20284285D01*
X29650952Y-20331904D01*
X30222380Y-20903333D01*
X30222380Y-20284285D01*
%TO.C,SW2*%
X194044666Y-118228761D02*
X194187523Y-118276380D01*
X194425619Y-118276380D01*
X194520857Y-118228761D01*
X194568476Y-118181142D01*
X194616095Y-118085904D01*
X194616095Y-117990666D01*
X194568476Y-117895428D01*
X194520857Y-117847809D01*
X194425619Y-117800190D01*
X194235142Y-117752571D01*
X194139904Y-117704952D01*
X194092285Y-117657333D01*
X194044666Y-117562095D01*
X194044666Y-117466857D01*
X194092285Y-117371619D01*
X194139904Y-117324000D01*
X194235142Y-117276380D01*
X194473238Y-117276380D01*
X194616095Y-117324000D01*
X194949428Y-117276380D02*
X195187523Y-118276380D01*
X195378000Y-117562095D01*
X195568476Y-118276380D01*
X195806571Y-117276380D01*
X196139904Y-117371619D02*
X196187523Y-117324000D01*
X196282761Y-117276380D01*
X196520857Y-117276380D01*
X196616095Y-117324000D01*
X196663714Y-117371619D01*
X196711333Y-117466857D01*
X196711333Y-117562095D01*
X196663714Y-117704952D01*
X196092285Y-118276380D01*
X196711333Y-118276380D01*
%TO.C,U1*%
X40894095Y-51522380D02*
X40894095Y-52331904D01*
X40941714Y-52427142D01*
X40989333Y-52474761D01*
X41084571Y-52522380D01*
X41275047Y-52522380D01*
X41370285Y-52474761D01*
X41417904Y-52427142D01*
X41465523Y-52331904D01*
X41465523Y-51522380D01*
X42465523Y-52522380D02*
X41894095Y-52522380D01*
X42179809Y-52522380D02*
X42179809Y-51522380D01*
X42084571Y-51665238D01*
X41989333Y-51760476D01*
X41894095Y-51808095D01*
X37132190Y-54157571D02*
X37275047Y-54205190D01*
X37322666Y-54252809D01*
X37370285Y-54348047D01*
X37370285Y-54490904D01*
X37322666Y-54586142D01*
X37275047Y-54633761D01*
X37179809Y-54681380D01*
X36798857Y-54681380D01*
X36798857Y-53681380D01*
X37132190Y-53681380D01*
X37227428Y-53729000D01*
X37275047Y-53776619D01*
X37322666Y-53871857D01*
X37322666Y-53967095D01*
X37275047Y-54062333D01*
X37227428Y-54109952D01*
X37132190Y-54157571D01*
X36798857Y-54157571D01*
X37941714Y-54681380D02*
X37846476Y-54633761D01*
X37798857Y-54586142D01*
X37751238Y-54490904D01*
X37751238Y-54205190D01*
X37798857Y-54109952D01*
X37846476Y-54062333D01*
X37941714Y-54014714D01*
X38084571Y-54014714D01*
X38179809Y-54062333D01*
X38227428Y-54109952D01*
X38275047Y-54205190D01*
X38275047Y-54490904D01*
X38227428Y-54586142D01*
X38179809Y-54633761D01*
X38084571Y-54681380D01*
X37941714Y-54681380D01*
X38703619Y-54681380D02*
X38703619Y-53681380D01*
X38798857Y-54300428D02*
X39084571Y-54681380D01*
X39084571Y-54014714D02*
X38703619Y-54395666D01*
X39941714Y-54014714D02*
X39941714Y-54681380D01*
X39513142Y-54014714D02*
X39513142Y-54538523D01*
X39560761Y-54633761D01*
X39656000Y-54681380D01*
X39798857Y-54681380D01*
X39894095Y-54633761D01*
X39941714Y-54586142D01*
X41179809Y-54014714D02*
X41179809Y-54681380D01*
X41179809Y-54109952D02*
X41227428Y-54062333D01*
X41322666Y-54014714D01*
X41465523Y-54014714D01*
X41560761Y-54062333D01*
X41608380Y-54157571D01*
X41608380Y-54681380D01*
X42227428Y-54681380D02*
X42132190Y-54633761D01*
X42084571Y-54586142D01*
X42036952Y-54490904D01*
X42036952Y-54205190D01*
X42084571Y-54109952D01*
X42132190Y-54062333D01*
X42227428Y-54014714D01*
X42370285Y-54014714D01*
X42465523Y-54062333D01*
X42513142Y-54109952D01*
X42560761Y-54205190D01*
X42560761Y-54490904D01*
X42513142Y-54586142D01*
X42465523Y-54633761D01*
X42370285Y-54681380D01*
X42227428Y-54681380D01*
X43751238Y-54681380D02*
X43751238Y-53681380D01*
X44132190Y-53681380D01*
X44227428Y-53729000D01*
X44275047Y-53776619D01*
X44322666Y-53871857D01*
X44322666Y-54014714D01*
X44275047Y-54109952D01*
X44227428Y-54157571D01*
X44132190Y-54205190D01*
X43751238Y-54205190D01*
X44751238Y-54681380D02*
X44751238Y-54014714D01*
X44751238Y-53681380D02*
X44703619Y-53729000D01*
X44751238Y-53776619D01*
X44798857Y-53729000D01*
X44751238Y-53681380D01*
X44751238Y-53776619D01*
X45656000Y-54633761D02*
X45560761Y-54681380D01*
X45370285Y-54681380D01*
X45275047Y-54633761D01*
X45227428Y-54586142D01*
X45179809Y-54490904D01*
X45179809Y-54205190D01*
X45227428Y-54109952D01*
X45275047Y-54062333D01*
X45370285Y-54014714D01*
X45560761Y-54014714D01*
X45656000Y-54062333D01*
X46227428Y-54681380D02*
X46132190Y-54633761D01*
X46084571Y-54586142D01*
X46036952Y-54490904D01*
X46036952Y-54205190D01*
X46084571Y-54109952D01*
X46132190Y-54062333D01*
X46227428Y-54014714D01*
X46370285Y-54014714D01*
X46465523Y-54062333D01*
X46513142Y-54109952D01*
X46560761Y-54205190D01*
X46560761Y-54490904D01*
X46513142Y-54586142D01*
X46465523Y-54633761D01*
X46370285Y-54681380D01*
X46227428Y-54681380D01*
X53753722Y-61360592D02*
X53672910Y-61387529D01*
X53592097Y-61468341D01*
X53538223Y-61576091D01*
X53538223Y-61683841D01*
X53565160Y-61764653D01*
X53645972Y-61899340D01*
X53726784Y-61980152D01*
X53861471Y-62060964D01*
X53942284Y-62087902D01*
X54050033Y-62087902D01*
X54157783Y-62034027D01*
X54211658Y-61980152D01*
X54265532Y-61872402D01*
X54265532Y-61818528D01*
X54076971Y-61629966D01*
X53969221Y-61737715D01*
X54561844Y-61629966D02*
X53996158Y-61064280D01*
X54211658Y-60848781D01*
X54292470Y-60821844D01*
X54346345Y-60821844D01*
X54427157Y-60848781D01*
X54507969Y-60929593D01*
X54534906Y-61010406D01*
X54534906Y-61064280D01*
X54507969Y-61145093D01*
X54292470Y-61360592D01*
X54588781Y-60579407D02*
X54588781Y-60525532D01*
X54615719Y-60444720D01*
X54750406Y-60310033D01*
X54831218Y-60283096D01*
X54885093Y-60283096D01*
X54965905Y-60310033D01*
X55019780Y-60363908D01*
X55073654Y-60471658D01*
X55073654Y-61118155D01*
X55423841Y-60767969D01*
X55962589Y-60229221D02*
X55639340Y-60552470D01*
X55800964Y-60390845D02*
X55235279Y-59825160D01*
X55262216Y-59959847D01*
X55262216Y-60067597D01*
X55235279Y-60148409D01*
X27499722Y-66430592D02*
X27418910Y-66457529D01*
X27338097Y-66538341D01*
X27284223Y-66646091D01*
X27284223Y-66753841D01*
X27311160Y-66834653D01*
X27391972Y-66969340D01*
X27472784Y-67050152D01*
X27607471Y-67130964D01*
X27688284Y-67157902D01*
X27796033Y-67157902D01*
X27903783Y-67104027D01*
X27957658Y-67050152D01*
X28011532Y-66942402D01*
X28011532Y-66888528D01*
X27822971Y-66699966D01*
X27715221Y-66807715D01*
X28307844Y-66699966D02*
X27742158Y-66134280D01*
X27957658Y-65918781D01*
X28038470Y-65891844D01*
X28092345Y-65891844D01*
X28173157Y-65918781D01*
X28253969Y-65999593D01*
X28280906Y-66080406D01*
X28280906Y-66134280D01*
X28253969Y-66215093D01*
X28038470Y-66430592D01*
X29169841Y-65837969D02*
X28846592Y-66161218D01*
X29008216Y-65999593D02*
X28442531Y-65433908D01*
X28469468Y-65568595D01*
X28469468Y-65676345D01*
X28442531Y-65757157D01*
X28873529Y-65110659D02*
X28873529Y-65056784D01*
X28900467Y-64975972D01*
X29035154Y-64841285D01*
X29115966Y-64814348D01*
X29169841Y-64814348D01*
X29250653Y-64841285D01*
X29304528Y-64895160D01*
X29358402Y-65002910D01*
X29358402Y-65649407D01*
X29708589Y-65299221D01*
X28169096Y-53461218D02*
X28088284Y-53488155D01*
X28007471Y-53568967D01*
X27953597Y-53676717D01*
X27953597Y-53784467D01*
X27980534Y-53865279D01*
X28061346Y-53999966D01*
X28142158Y-54080778D01*
X28276845Y-54161590D01*
X28357658Y-54188528D01*
X28465407Y-54188528D01*
X28573157Y-54134653D01*
X28627032Y-54080778D01*
X28680906Y-53973028D01*
X28680906Y-53919154D01*
X28492345Y-53730592D01*
X28384595Y-53838341D01*
X28977218Y-53730592D02*
X28411532Y-53164906D01*
X28627032Y-52949407D01*
X28707844Y-52922470D01*
X28761719Y-52922470D01*
X28842531Y-52949407D01*
X28923343Y-53030219D01*
X28950280Y-53111032D01*
X28950280Y-53164906D01*
X28923343Y-53245719D01*
X28707844Y-53461218D01*
X29300467Y-52760845D02*
X29219654Y-52787783D01*
X29165780Y-52787783D01*
X29084967Y-52760845D01*
X29058030Y-52733908D01*
X29031093Y-52653096D01*
X29031093Y-52599221D01*
X29058030Y-52518409D01*
X29165780Y-52410659D01*
X29246592Y-52383722D01*
X29300467Y-52383722D01*
X29381279Y-52410659D01*
X29408216Y-52437597D01*
X29435154Y-52518409D01*
X29435154Y-52572284D01*
X29408216Y-52653096D01*
X29300467Y-52760845D01*
X29273529Y-52841658D01*
X29273529Y-52895532D01*
X29300467Y-52976345D01*
X29408216Y-53084094D01*
X29489028Y-53111032D01*
X29542903Y-53111032D01*
X29623715Y-53084094D01*
X29731465Y-52976345D01*
X29758402Y-52895532D01*
X29758402Y-52841658D01*
X29731465Y-52760845D01*
X29623715Y-52653096D01*
X29542903Y-52626158D01*
X29489028Y-52626158D01*
X29408216Y-52653096D01*
X28169096Y-56001218D02*
X28088284Y-56028155D01*
X28007471Y-56108967D01*
X27953597Y-56216717D01*
X27953597Y-56324467D01*
X27980534Y-56405279D01*
X28061346Y-56539966D01*
X28142158Y-56620778D01*
X28276845Y-56701590D01*
X28357658Y-56728528D01*
X28465407Y-56728528D01*
X28573157Y-56674653D01*
X28627032Y-56620778D01*
X28680906Y-56513028D01*
X28680906Y-56459154D01*
X28492345Y-56270592D01*
X28384595Y-56378341D01*
X28977218Y-56270592D02*
X28411532Y-55704906D01*
X28627032Y-55489407D01*
X28707844Y-55462470D01*
X28761719Y-55462470D01*
X28842531Y-55489407D01*
X28923343Y-55570219D01*
X28950280Y-55651032D01*
X28950280Y-55704906D01*
X28923343Y-55785719D01*
X28707844Y-56001218D01*
X29569841Y-55677969D02*
X29677590Y-55570219D01*
X29704528Y-55489407D01*
X29704528Y-55435532D01*
X29677590Y-55300845D01*
X29596778Y-55166158D01*
X29381279Y-54950659D01*
X29300467Y-54923722D01*
X29246592Y-54923722D01*
X29165780Y-54950659D01*
X29058030Y-55058409D01*
X29031093Y-55139221D01*
X29031093Y-55193096D01*
X29058030Y-55273908D01*
X29192717Y-55408595D01*
X29273529Y-55435532D01*
X29327404Y-55435532D01*
X29408216Y-55408595D01*
X29515966Y-55300845D01*
X29542903Y-55220033D01*
X29542903Y-55166158D01*
X29515966Y-55085346D01*
X28169096Y-43301218D02*
X28088284Y-43328155D01*
X28007471Y-43408967D01*
X27953597Y-43516717D01*
X27953597Y-43624467D01*
X27980534Y-43705279D01*
X28061346Y-43839966D01*
X28142158Y-43920778D01*
X28276845Y-44001590D01*
X28357658Y-44028528D01*
X28465407Y-44028528D01*
X28573157Y-43974653D01*
X28627032Y-43920778D01*
X28680906Y-43813028D01*
X28680906Y-43759154D01*
X28492345Y-43570592D01*
X28384595Y-43678341D01*
X28977218Y-43570592D02*
X28411532Y-43004906D01*
X28627032Y-42789407D01*
X28707844Y-42762470D01*
X28761719Y-42762470D01*
X28842531Y-42789407D01*
X28923343Y-42870219D01*
X28950280Y-42951032D01*
X28950280Y-43004906D01*
X28923343Y-43085719D01*
X28707844Y-43301218D01*
X29246592Y-42169847D02*
X28977218Y-42439221D01*
X29219654Y-42735532D01*
X29219654Y-42681658D01*
X29246592Y-42600845D01*
X29381279Y-42466158D01*
X29462091Y-42439221D01*
X29515966Y-42439221D01*
X29596778Y-42466158D01*
X29731465Y-42600845D01*
X29758402Y-42681658D01*
X29758402Y-42735532D01*
X29731465Y-42816345D01*
X29596778Y-42951032D01*
X29515966Y-42977969D01*
X29462091Y-42977969D01*
X53576473Y-31139966D02*
X54330720Y-31517089D01*
X53953597Y-30762842D01*
X54653969Y-31139966D02*
X54761719Y-31086091D01*
X54896406Y-30951404D01*
X54923343Y-30870592D01*
X54923343Y-30816717D01*
X54896406Y-30735905D01*
X54842531Y-30682030D01*
X54761719Y-30655093D01*
X54707844Y-30655093D01*
X54627032Y-30682030D01*
X54492345Y-30762842D01*
X54411532Y-30789780D01*
X54357658Y-30789780D01*
X54276845Y-30762842D01*
X54222971Y-30708967D01*
X54196033Y-30628155D01*
X54196033Y-30574280D01*
X54222971Y-30493468D01*
X54357658Y-30358781D01*
X54465407Y-30304906D01*
X55084967Y-30224094D02*
X55354341Y-30493468D01*
X54600094Y-30116345D02*
X55084967Y-30224094D01*
X54977218Y-29739221D01*
X55677590Y-30116345D02*
X55785340Y-30062470D01*
X55920027Y-29927783D01*
X55946964Y-29846971D01*
X55946964Y-29793096D01*
X55920027Y-29712284D01*
X55866152Y-29658409D01*
X55785340Y-29631471D01*
X55731465Y-29631471D01*
X55650653Y-29658409D01*
X55515966Y-29739221D01*
X55435154Y-29766158D01*
X55381279Y-29766158D01*
X55300467Y-29739221D01*
X55246592Y-29685346D01*
X55219654Y-29604534D01*
X55219654Y-29550659D01*
X55246592Y-29469847D01*
X55381279Y-29335160D01*
X55489028Y-29281285D01*
X28142158Y-71268155D02*
X28061346Y-71295093D01*
X27980534Y-71375905D01*
X27926659Y-71483654D01*
X27926659Y-71591404D01*
X27953597Y-71672216D01*
X28034409Y-71806903D01*
X28115221Y-71887715D01*
X28249908Y-71968528D01*
X28330720Y-71995465D01*
X28438470Y-71995465D01*
X28546219Y-71941590D01*
X28600094Y-71887715D01*
X28653969Y-71779966D01*
X28653969Y-71726091D01*
X28465407Y-71537529D01*
X28357658Y-71645279D01*
X28950280Y-71537529D02*
X28384595Y-70971844D01*
X29273529Y-71214280D01*
X28707844Y-70648595D01*
X29542903Y-70944906D02*
X28977218Y-70379221D01*
X29111905Y-70244534D01*
X29219654Y-70190659D01*
X29327404Y-70190659D01*
X29408216Y-70217597D01*
X29542903Y-70298409D01*
X29623715Y-70379221D01*
X29704528Y-70513908D01*
X29731465Y-70594720D01*
X29731465Y-70702470D01*
X29677590Y-70810219D01*
X29542903Y-70944906D01*
X53609129Y-28597309D02*
X54363377Y-28974433D01*
X53986253Y-28220186D01*
X54632751Y-28112436D02*
X54740500Y-28058561D01*
X54794375Y-28058561D01*
X54875187Y-28085499D01*
X54956000Y-28166311D01*
X54982937Y-28247123D01*
X54982937Y-28300998D01*
X54956000Y-28381810D01*
X54740500Y-28597309D01*
X54174815Y-28031624D01*
X54363377Y-27843062D01*
X54444189Y-27816125D01*
X54498064Y-27816125D01*
X54578876Y-27843062D01*
X54632751Y-27896937D01*
X54659688Y-27977749D01*
X54659688Y-28031624D01*
X54632751Y-28112436D01*
X54444189Y-28300998D01*
X54740500Y-27465938D02*
X55198436Y-27923874D01*
X55279248Y-27950812D01*
X55333123Y-27950812D01*
X55413935Y-27923874D01*
X55521685Y-27816125D01*
X55548622Y-27735312D01*
X55548622Y-27681438D01*
X55521685Y-27600625D01*
X55063749Y-27142690D01*
X55844934Y-27439001D02*
X55952683Y-27385126D01*
X56087370Y-27250439D01*
X56114308Y-27169627D01*
X56114308Y-27115752D01*
X56087370Y-27034940D01*
X56033496Y-26981065D01*
X55952683Y-26954128D01*
X55898809Y-26954128D01*
X55817996Y-26981065D01*
X55683309Y-27061877D01*
X55602497Y-27088815D01*
X55548622Y-27088815D01*
X55467810Y-27061877D01*
X55413935Y-27008003D01*
X55386998Y-26927190D01*
X55386998Y-26873316D01*
X55413935Y-26792503D01*
X55548622Y-26657816D01*
X55656372Y-26603942D01*
X27645722Y-76590592D02*
X27564910Y-76617529D01*
X27484097Y-76698341D01*
X27430223Y-76806091D01*
X27430223Y-76913841D01*
X27457160Y-76994653D01*
X27537972Y-77129340D01*
X27618784Y-77210152D01*
X27753471Y-77290964D01*
X27834284Y-77317902D01*
X27942033Y-77317902D01*
X28049783Y-77264027D01*
X28103658Y-77210152D01*
X28157532Y-77102402D01*
X28157532Y-77048528D01*
X27968971Y-76859966D01*
X27861221Y-76967715D01*
X28453844Y-76859966D02*
X27888158Y-76294280D01*
X28103658Y-76078781D01*
X28184470Y-76051844D01*
X28238345Y-76051844D01*
X28319157Y-76078781D01*
X28399969Y-76159593D01*
X28426906Y-76240406D01*
X28426906Y-76294280D01*
X28399969Y-76375093D01*
X28184470Y-76590592D01*
X29315841Y-75997969D02*
X28992592Y-76321218D01*
X29154216Y-76159593D02*
X28588531Y-75593908D01*
X28615468Y-75728595D01*
X28615468Y-75836345D01*
X28588531Y-75917157D01*
X29261966Y-74920473D02*
X28992592Y-75189847D01*
X29235028Y-75486158D01*
X29235028Y-75432284D01*
X29261966Y-75351471D01*
X29396653Y-75216784D01*
X29477465Y-75189847D01*
X29531340Y-75189847D01*
X29612152Y-75216784D01*
X29746839Y-75351471D01*
X29773776Y-75432284D01*
X29773776Y-75486158D01*
X29746839Y-75566971D01*
X29612152Y-75701658D01*
X29531340Y-75728595D01*
X29477465Y-75728595D01*
X28169096Y-48381218D02*
X28088284Y-48408155D01*
X28007471Y-48488967D01*
X27953597Y-48596717D01*
X27953597Y-48704467D01*
X27980534Y-48785279D01*
X28061346Y-48919966D01*
X28142158Y-49000778D01*
X28276845Y-49081590D01*
X28357658Y-49108528D01*
X28465407Y-49108528D01*
X28573157Y-49054653D01*
X28627032Y-49000778D01*
X28680906Y-48893028D01*
X28680906Y-48839154D01*
X28492345Y-48650592D01*
X28384595Y-48758341D01*
X28977218Y-48650592D02*
X28411532Y-48084906D01*
X28627032Y-47869407D01*
X28707844Y-47842470D01*
X28761719Y-47842470D01*
X28842531Y-47869407D01*
X28923343Y-47950219D01*
X28950280Y-48031032D01*
X28950280Y-48084906D01*
X28923343Y-48165719D01*
X28707844Y-48381218D01*
X29219654Y-47276784D02*
X29111905Y-47384534D01*
X29084967Y-47465346D01*
X29084967Y-47519221D01*
X29111905Y-47653908D01*
X29192717Y-47788595D01*
X29408216Y-48004094D01*
X29489028Y-48031032D01*
X29542903Y-48031032D01*
X29623715Y-48004094D01*
X29731465Y-47896345D01*
X29758402Y-47815532D01*
X29758402Y-47761658D01*
X29731465Y-47680845D01*
X29596778Y-47546158D01*
X29515966Y-47519221D01*
X29462091Y-47519221D01*
X29381279Y-47546158D01*
X29273529Y-47653908D01*
X29246592Y-47734720D01*
X29246592Y-47788595D01*
X29273529Y-47869407D01*
X27499722Y-63890592D02*
X27418910Y-63917529D01*
X27338097Y-63998341D01*
X27284223Y-64106091D01*
X27284223Y-64213841D01*
X27311160Y-64294653D01*
X27391972Y-64429340D01*
X27472784Y-64510152D01*
X27607471Y-64590964D01*
X27688284Y-64617902D01*
X27796033Y-64617902D01*
X27903783Y-64564027D01*
X27957658Y-64510152D01*
X28011532Y-64402402D01*
X28011532Y-64348528D01*
X27822971Y-64159966D01*
X27715221Y-64267715D01*
X28307844Y-64159966D02*
X27742158Y-63594280D01*
X27957658Y-63378781D01*
X28038470Y-63351844D01*
X28092345Y-63351844D01*
X28173157Y-63378781D01*
X28253969Y-63459593D01*
X28280906Y-63540406D01*
X28280906Y-63594280D01*
X28253969Y-63675093D01*
X28038470Y-63890592D01*
X29169841Y-63297969D02*
X28846592Y-63621218D01*
X29008216Y-63459593D02*
X28442531Y-62893908D01*
X28469468Y-63028595D01*
X28469468Y-63136345D01*
X28442531Y-63217157D01*
X29708589Y-62759221D02*
X29385340Y-63082470D01*
X29546964Y-62920845D02*
X28981279Y-62355160D01*
X29008216Y-62489847D01*
X29008216Y-62597597D01*
X28981279Y-62678409D01*
X27645722Y-61350592D02*
X27564910Y-61377529D01*
X27484097Y-61458341D01*
X27430223Y-61566091D01*
X27430223Y-61673841D01*
X27457160Y-61754653D01*
X27537972Y-61889340D01*
X27618784Y-61970152D01*
X27753471Y-62050964D01*
X27834284Y-62077902D01*
X27942033Y-62077902D01*
X28049783Y-62024027D01*
X28103658Y-61970152D01*
X28157532Y-61862402D01*
X28157532Y-61808528D01*
X27968971Y-61619966D01*
X27861221Y-61727715D01*
X28453844Y-61619966D02*
X27888158Y-61054280D01*
X28103658Y-60838781D01*
X28184470Y-60811844D01*
X28238345Y-60811844D01*
X28319157Y-60838781D01*
X28399969Y-60919593D01*
X28426906Y-61000406D01*
X28426906Y-61054280D01*
X28399969Y-61135093D01*
X28184470Y-61350592D01*
X29315841Y-60757969D02*
X28992592Y-61081218D01*
X29154216Y-60919593D02*
X28588531Y-60353908D01*
X28615468Y-60488595D01*
X28615468Y-60596345D01*
X28588531Y-60677157D01*
X29100341Y-59842097D02*
X29154216Y-59788223D01*
X29235028Y-59761285D01*
X29288903Y-59761285D01*
X29369715Y-59788223D01*
X29504402Y-59869035D01*
X29639089Y-60003722D01*
X29719902Y-60138409D01*
X29746839Y-60219221D01*
X29746839Y-60273096D01*
X29719902Y-60353908D01*
X29666027Y-60407783D01*
X29585215Y-60434720D01*
X29531340Y-60434720D01*
X29450528Y-60407783D01*
X29315841Y-60326971D01*
X29181154Y-60192284D01*
X29100341Y-60057597D01*
X29073404Y-59976784D01*
X29073404Y-59922910D01*
X29100341Y-59842097D01*
X34146476Y-78593809D02*
X34260761Y-78631904D01*
X34451238Y-78631904D01*
X34527428Y-78593809D01*
X34565523Y-78555714D01*
X34603619Y-78479523D01*
X34603619Y-78403333D01*
X34565523Y-78327142D01*
X34527428Y-78289047D01*
X34451238Y-78250952D01*
X34298857Y-78212857D01*
X34222666Y-78174761D01*
X34184571Y-78136666D01*
X34146476Y-78060476D01*
X34146476Y-77984285D01*
X34184571Y-77908095D01*
X34222666Y-77870000D01*
X34298857Y-77831904D01*
X34489333Y-77831904D01*
X34603619Y-77870000D01*
X34870285Y-77831904D02*
X35060761Y-78631904D01*
X35213142Y-78060476D01*
X35365523Y-78631904D01*
X35556000Y-77831904D01*
X36317904Y-78555714D02*
X36279809Y-78593809D01*
X36165523Y-78631904D01*
X36089333Y-78631904D01*
X35975047Y-78593809D01*
X35898857Y-78517619D01*
X35860761Y-78441428D01*
X35822666Y-78289047D01*
X35822666Y-78174761D01*
X35860761Y-78022380D01*
X35898857Y-77946190D01*
X35975047Y-77870000D01*
X36089333Y-77831904D01*
X36165523Y-77831904D01*
X36279809Y-77870000D01*
X36317904Y-77908095D01*
X37041714Y-78631904D02*
X36660761Y-78631904D01*
X36660761Y-77831904D01*
X37308380Y-78631904D02*
X37308380Y-77831904D01*
X37765523Y-78631904D02*
X37422666Y-78174761D01*
X37765523Y-77831904D02*
X37308380Y-78289047D01*
X53810788Y-41603773D02*
X54080162Y-41334399D01*
X53918537Y-41819272D02*
X53541414Y-41065025D01*
X54295661Y-41442149D01*
X54484223Y-41253587D02*
X53918537Y-40687902D01*
X54053224Y-40553215D01*
X54160974Y-40499340D01*
X54268723Y-40499340D01*
X54349536Y-40526277D01*
X54484223Y-40607089D01*
X54565035Y-40687902D01*
X54645847Y-40822589D01*
X54672784Y-40903401D01*
X54672784Y-41011150D01*
X54618910Y-41118900D01*
X54484223Y-41253587D01*
X55319282Y-40310778D02*
X55319282Y-40364653D01*
X55265407Y-40472402D01*
X55211532Y-40526277D01*
X55103783Y-40580152D01*
X54996033Y-40580152D01*
X54915221Y-40553215D01*
X54780534Y-40472402D01*
X54699722Y-40391590D01*
X54618910Y-40256903D01*
X54591972Y-40176091D01*
X54591972Y-40068341D01*
X54645847Y-39960592D01*
X54699722Y-39906717D01*
X54807471Y-39852842D01*
X54861346Y-39852842D01*
X55534781Y-40310778D02*
X55965780Y-39879780D01*
X55400094Y-39206345D02*
X56154341Y-39583468D01*
X55777218Y-38829221D01*
X56854714Y-38883096D02*
X56396778Y-38802284D01*
X56531465Y-39206345D02*
X55965780Y-38640659D01*
X56181279Y-38425160D01*
X56262091Y-38398223D01*
X56315966Y-38398223D01*
X56396778Y-38425160D01*
X56477590Y-38505972D01*
X56504528Y-38586784D01*
X56504528Y-38640659D01*
X56477590Y-38721471D01*
X56262091Y-38936971D01*
X56800839Y-38344348D02*
X56989401Y-38155786D01*
X57366524Y-38371285D02*
X57097150Y-38640659D01*
X56531465Y-38074974D01*
X56800839Y-37805600D01*
X57501211Y-37643975D02*
X57312650Y-37832537D01*
X57608961Y-38128849D02*
X57043276Y-37563163D01*
X57312650Y-37293789D01*
X53742158Y-71268155D02*
X53661346Y-71295093D01*
X53580534Y-71375905D01*
X53526659Y-71483654D01*
X53526659Y-71591404D01*
X53553597Y-71672216D01*
X53634409Y-71806903D01*
X53715221Y-71887715D01*
X53849908Y-71968528D01*
X53930720Y-71995465D01*
X54038470Y-71995465D01*
X54146219Y-71941590D01*
X54200094Y-71887715D01*
X54253969Y-71779966D01*
X54253969Y-71726091D01*
X54065407Y-71537529D01*
X53957658Y-71645279D01*
X54550280Y-71537529D02*
X53984595Y-70971844D01*
X54873529Y-71214280D01*
X54307844Y-70648595D01*
X55142903Y-70944906D02*
X54577218Y-70379221D01*
X54711905Y-70244534D01*
X54819654Y-70190659D01*
X54927404Y-70190659D01*
X55008216Y-70217597D01*
X55142903Y-70298409D01*
X55223715Y-70379221D01*
X55304528Y-70513908D01*
X55331465Y-70594720D01*
X55331465Y-70702470D01*
X55277590Y-70810219D01*
X55142903Y-70944906D01*
X53753722Y-68970592D02*
X53672910Y-68997529D01*
X53592097Y-69078341D01*
X53538223Y-69186091D01*
X53538223Y-69293841D01*
X53565160Y-69374653D01*
X53645972Y-69509340D01*
X53726784Y-69590152D01*
X53861471Y-69670964D01*
X53942284Y-69697902D01*
X54050033Y-69697902D01*
X54157783Y-69644027D01*
X54211658Y-69590152D01*
X54265532Y-69482402D01*
X54265532Y-69428528D01*
X54076971Y-69239966D01*
X53969221Y-69347715D01*
X54561844Y-69239966D02*
X53996158Y-68674280D01*
X54211658Y-68458781D01*
X54292470Y-68431844D01*
X54346345Y-68431844D01*
X54427157Y-68458781D01*
X54507969Y-68539593D01*
X54534906Y-68620406D01*
X54534906Y-68674280D01*
X54507969Y-68755093D01*
X54292470Y-68970592D01*
X55423841Y-68377969D02*
X55100592Y-68701218D01*
X55262216Y-68539593D02*
X54696531Y-67973908D01*
X54723468Y-68108595D01*
X54723468Y-68216345D01*
X54696531Y-68297157D01*
X55423841Y-67731471D02*
X55343028Y-67758409D01*
X55289154Y-67758409D01*
X55208341Y-67731471D01*
X55181404Y-67704534D01*
X55154467Y-67623722D01*
X55154467Y-67569847D01*
X55181404Y-67489035D01*
X55289154Y-67381285D01*
X55369966Y-67354348D01*
X55423841Y-67354348D01*
X55504653Y-67381285D01*
X55531590Y-67408223D01*
X55558528Y-67489035D01*
X55558528Y-67542910D01*
X55531590Y-67623722D01*
X55423841Y-67731471D01*
X55396903Y-67812284D01*
X55396903Y-67866158D01*
X55423841Y-67946971D01*
X55531590Y-68054720D01*
X55612402Y-68081658D01*
X55666277Y-68081658D01*
X55747089Y-68054720D01*
X55854839Y-67946971D01*
X55881776Y-67866158D01*
X55881776Y-67812284D01*
X55854839Y-67731471D01*
X55747089Y-67623722D01*
X55666277Y-67596784D01*
X55612402Y-67596784D01*
X55531590Y-67623722D01*
X53578131Y-36028308D02*
X53928317Y-35678122D01*
X53955255Y-36082183D01*
X54036067Y-36001370D01*
X54116879Y-35974433D01*
X54170754Y-35974433D01*
X54251566Y-36001370D01*
X54386253Y-36136057D01*
X54413190Y-36216870D01*
X54413190Y-36270744D01*
X54386253Y-36351557D01*
X54224629Y-36513181D01*
X54143816Y-36540118D01*
X54089942Y-36540118D01*
X54089942Y-35516497D02*
X54844189Y-35893621D01*
X54467065Y-35139374D01*
X54601752Y-35004687D02*
X54951938Y-34654500D01*
X54978876Y-35058561D01*
X55059688Y-34977749D01*
X55140500Y-34950812D01*
X55194375Y-34950812D01*
X55275187Y-34977749D01*
X55409874Y-35112436D01*
X55436812Y-35193248D01*
X55436812Y-35247123D01*
X55409874Y-35327935D01*
X55248250Y-35489560D01*
X55167438Y-35516497D01*
X55113563Y-35516497D01*
X55679248Y-35166311D02*
X56110247Y-34735312D01*
X55894748Y-34250439D02*
X56083309Y-34061877D01*
X56460433Y-34277377D02*
X56191059Y-34546751D01*
X55625374Y-33981065D01*
X55894748Y-33711691D01*
X56702870Y-34034940D02*
X56137184Y-33469255D01*
X57026118Y-33711691D01*
X56460433Y-33146006D01*
X28069096Y-30591218D02*
X27988284Y-30618155D01*
X27907471Y-30698967D01*
X27853597Y-30806717D01*
X27853597Y-30914467D01*
X27880534Y-30995279D01*
X27961346Y-31129966D01*
X28042158Y-31210778D01*
X28176845Y-31291590D01*
X28257658Y-31318528D01*
X28365407Y-31318528D01*
X28473157Y-31264653D01*
X28527032Y-31210778D01*
X28580906Y-31103028D01*
X28580906Y-31049154D01*
X28392345Y-30860592D01*
X28284595Y-30968341D01*
X28877218Y-30860592D02*
X28311532Y-30294906D01*
X28527032Y-30079407D01*
X28607844Y-30052470D01*
X28661719Y-30052470D01*
X28742531Y-30079407D01*
X28823343Y-30160219D01*
X28850280Y-30241032D01*
X28850280Y-30294906D01*
X28823343Y-30375719D01*
X28607844Y-30591218D01*
X29739215Y-29998595D02*
X29415966Y-30321844D01*
X29577590Y-30160219D02*
X29011905Y-29594534D01*
X29038842Y-29729221D01*
X29038842Y-29836971D01*
X29011905Y-29917783D01*
X53742158Y-33168155D02*
X53661346Y-33195093D01*
X53580534Y-33275905D01*
X53526659Y-33383654D01*
X53526659Y-33491404D01*
X53553597Y-33572216D01*
X53634409Y-33706903D01*
X53715221Y-33787715D01*
X53849908Y-33868528D01*
X53930720Y-33895465D01*
X54038470Y-33895465D01*
X54146219Y-33841590D01*
X54200094Y-33787715D01*
X54253969Y-33679966D01*
X54253969Y-33626091D01*
X54065407Y-33437529D01*
X53957658Y-33545279D01*
X54550280Y-33437529D02*
X53984595Y-32871844D01*
X54873529Y-33114280D01*
X54307844Y-32548595D01*
X55142903Y-32844906D02*
X54577218Y-32279221D01*
X54711905Y-32144534D01*
X54819654Y-32090659D01*
X54927404Y-32090659D01*
X55008216Y-32117597D01*
X55142903Y-32198409D01*
X55223715Y-32279221D01*
X55304528Y-32413908D01*
X55331465Y-32494720D01*
X55331465Y-32602470D01*
X55277590Y-32710219D01*
X55142903Y-32844906D01*
X53545847Y-38560592D02*
X53896033Y-38210406D01*
X53922971Y-38614467D01*
X54003783Y-38533654D01*
X54084595Y-38506717D01*
X54138470Y-38506717D01*
X54219282Y-38533654D01*
X54353969Y-38668341D01*
X54380906Y-38749154D01*
X54380906Y-38803028D01*
X54353969Y-38883841D01*
X54192345Y-39045465D01*
X54111532Y-39072402D01*
X54057658Y-39072402D01*
X54057658Y-38048781D02*
X54811905Y-38425905D01*
X54434781Y-37671658D01*
X54569468Y-37536971D02*
X54919654Y-37186784D01*
X54946592Y-37590845D01*
X55027404Y-37510033D01*
X55108216Y-37483096D01*
X55162091Y-37483096D01*
X55242903Y-37510033D01*
X55377590Y-37644720D01*
X55404528Y-37725532D01*
X55404528Y-37779407D01*
X55377590Y-37860219D01*
X55215966Y-38021844D01*
X55135154Y-38048781D01*
X55081279Y-38048781D01*
X53753722Y-56270592D02*
X53672910Y-56297529D01*
X53592097Y-56378341D01*
X53538223Y-56486091D01*
X53538223Y-56593841D01*
X53565160Y-56674653D01*
X53645972Y-56809340D01*
X53726784Y-56890152D01*
X53861471Y-56970964D01*
X53942284Y-56997902D01*
X54050033Y-56997902D01*
X54157783Y-56944027D01*
X54211658Y-56890152D01*
X54265532Y-56782402D01*
X54265532Y-56728528D01*
X54076971Y-56539966D01*
X53969221Y-56647715D01*
X54561844Y-56539966D02*
X53996158Y-55974280D01*
X54211658Y-55758781D01*
X54292470Y-55731844D01*
X54346345Y-55731844D01*
X54427157Y-55758781D01*
X54507969Y-55839593D01*
X54534906Y-55920406D01*
X54534906Y-55974280D01*
X54507969Y-56055093D01*
X54292470Y-56270592D01*
X54588781Y-55489407D02*
X54588781Y-55435532D01*
X54615719Y-55354720D01*
X54750406Y-55220033D01*
X54831218Y-55193096D01*
X54885093Y-55193096D01*
X54965905Y-55220033D01*
X55019780Y-55273908D01*
X55073654Y-55381658D01*
X55073654Y-56028155D01*
X55423841Y-55677969D01*
X55127529Y-54950659D02*
X55127529Y-54896784D01*
X55154467Y-54815972D01*
X55289154Y-54681285D01*
X55369966Y-54654348D01*
X55423841Y-54654348D01*
X55504653Y-54681285D01*
X55558528Y-54735160D01*
X55612402Y-54842910D01*
X55612402Y-55489407D01*
X55962589Y-55139221D01*
X53753722Y-48660592D02*
X53672910Y-48687529D01*
X53592097Y-48768341D01*
X53538223Y-48876091D01*
X53538223Y-48983841D01*
X53565160Y-49064653D01*
X53645972Y-49199340D01*
X53726784Y-49280152D01*
X53861471Y-49360964D01*
X53942284Y-49387902D01*
X54050033Y-49387902D01*
X54157783Y-49334027D01*
X54211658Y-49280152D01*
X54265532Y-49172402D01*
X54265532Y-49118528D01*
X54076971Y-48929966D01*
X53969221Y-49037715D01*
X54561844Y-48929966D02*
X53996158Y-48364280D01*
X54211658Y-48148781D01*
X54292470Y-48121844D01*
X54346345Y-48121844D01*
X54427157Y-48148781D01*
X54507969Y-48229593D01*
X54534906Y-48310406D01*
X54534906Y-48364280D01*
X54507969Y-48445093D01*
X54292470Y-48660592D01*
X54588781Y-47879407D02*
X54588781Y-47825532D01*
X54615719Y-47744720D01*
X54750406Y-47610033D01*
X54831218Y-47583096D01*
X54885093Y-47583096D01*
X54965905Y-47610033D01*
X55019780Y-47663908D01*
X55073654Y-47771658D01*
X55073654Y-48418155D01*
X55423841Y-48067969D01*
X55046717Y-47313722D02*
X55423841Y-46936598D01*
X55747089Y-47744720D01*
X45560761Y-78593809D02*
X45675047Y-78631904D01*
X45865523Y-78631904D01*
X45941714Y-78593809D01*
X45979809Y-78555714D01*
X46017904Y-78479523D01*
X46017904Y-78403333D01*
X45979809Y-78327142D01*
X45941714Y-78289047D01*
X45865523Y-78250952D01*
X45713142Y-78212857D01*
X45636952Y-78174761D01*
X45598857Y-78136666D01*
X45560761Y-78060476D01*
X45560761Y-77984285D01*
X45598857Y-77908095D01*
X45636952Y-77870000D01*
X45713142Y-77831904D01*
X45903619Y-77831904D01*
X46017904Y-77870000D01*
X46284571Y-77831904D02*
X46475047Y-78631904D01*
X46627428Y-78060476D01*
X46779809Y-78631904D01*
X46970285Y-77831904D01*
X47275047Y-78631904D02*
X47275047Y-77831904D01*
X47465523Y-77831904D01*
X47579809Y-77870000D01*
X47656000Y-77946190D01*
X47694095Y-78022380D01*
X47732190Y-78174761D01*
X47732190Y-78289047D01*
X47694095Y-78441428D01*
X47656000Y-78517619D01*
X47579809Y-78593809D01*
X47465523Y-78631904D01*
X47275047Y-78631904D01*
X48075047Y-78631904D02*
X48075047Y-77831904D01*
X48608380Y-77831904D02*
X48760761Y-77831904D01*
X48836952Y-77870000D01*
X48913142Y-77946190D01*
X48951238Y-78098571D01*
X48951238Y-78365238D01*
X48913142Y-78517619D01*
X48836952Y-78593809D01*
X48760761Y-78631904D01*
X48608380Y-78631904D01*
X48532190Y-78593809D01*
X48456000Y-78517619D01*
X48417904Y-78365238D01*
X48417904Y-78098571D01*
X48456000Y-77946190D01*
X48532190Y-77870000D01*
X48608380Y-77831904D01*
X53753722Y-63890592D02*
X53672910Y-63917529D01*
X53592097Y-63998341D01*
X53538223Y-64106091D01*
X53538223Y-64213841D01*
X53565160Y-64294653D01*
X53645972Y-64429340D01*
X53726784Y-64510152D01*
X53861471Y-64590964D01*
X53942284Y-64617902D01*
X54050033Y-64617902D01*
X54157783Y-64564027D01*
X54211658Y-64510152D01*
X54265532Y-64402402D01*
X54265532Y-64348528D01*
X54076971Y-64159966D01*
X53969221Y-64267715D01*
X54561844Y-64159966D02*
X53996158Y-63594280D01*
X54211658Y-63378781D01*
X54292470Y-63351844D01*
X54346345Y-63351844D01*
X54427157Y-63378781D01*
X54507969Y-63459593D01*
X54534906Y-63540406D01*
X54534906Y-63594280D01*
X54507969Y-63675093D01*
X54292470Y-63890592D01*
X54588781Y-63109407D02*
X54588781Y-63055532D01*
X54615719Y-62974720D01*
X54750406Y-62840033D01*
X54831218Y-62813096D01*
X54885093Y-62813096D01*
X54965905Y-62840033D01*
X55019780Y-62893908D01*
X55073654Y-63001658D01*
X55073654Y-63648155D01*
X55423841Y-63297969D01*
X55208341Y-62382097D02*
X55262216Y-62328223D01*
X55343028Y-62301285D01*
X55396903Y-62301285D01*
X55477715Y-62328223D01*
X55612402Y-62409035D01*
X55747089Y-62543722D01*
X55827902Y-62678409D01*
X55854839Y-62759221D01*
X55854839Y-62813096D01*
X55827902Y-62893908D01*
X55774027Y-62947783D01*
X55693215Y-62974720D01*
X55639340Y-62974720D01*
X55558528Y-62947783D01*
X55423841Y-62866971D01*
X55289154Y-62732284D01*
X55208341Y-62597597D01*
X55181404Y-62516784D01*
X55181404Y-62462910D01*
X55208341Y-62382097D01*
X28169096Y-40761218D02*
X28088284Y-40788155D01*
X28007471Y-40868967D01*
X27953597Y-40976717D01*
X27953597Y-41084467D01*
X27980534Y-41165279D01*
X28061346Y-41299966D01*
X28142158Y-41380778D01*
X28276845Y-41461590D01*
X28357658Y-41488528D01*
X28465407Y-41488528D01*
X28573157Y-41434653D01*
X28627032Y-41380778D01*
X28680906Y-41273028D01*
X28680906Y-41219154D01*
X28492345Y-41030592D01*
X28384595Y-41138341D01*
X28977218Y-41030592D02*
X28411532Y-40464906D01*
X28627032Y-40249407D01*
X28707844Y-40222470D01*
X28761719Y-40222470D01*
X28842531Y-40249407D01*
X28923343Y-40330219D01*
X28950280Y-40411032D01*
X28950280Y-40464906D01*
X28923343Y-40545719D01*
X28707844Y-40761218D01*
X29408216Y-39845346D02*
X29785340Y-40222470D01*
X29058030Y-39764534D02*
X29327404Y-40303282D01*
X29677590Y-39953096D01*
X53753722Y-51190592D02*
X53672910Y-51217529D01*
X53592097Y-51298341D01*
X53538223Y-51406091D01*
X53538223Y-51513841D01*
X53565160Y-51594653D01*
X53645972Y-51729340D01*
X53726784Y-51810152D01*
X53861471Y-51890964D01*
X53942284Y-51917902D01*
X54050033Y-51917902D01*
X54157783Y-51864027D01*
X54211658Y-51810152D01*
X54265532Y-51702402D01*
X54265532Y-51648528D01*
X54076971Y-51459966D01*
X53969221Y-51567715D01*
X54561844Y-51459966D02*
X53996158Y-50894280D01*
X54211658Y-50678781D01*
X54292470Y-50651844D01*
X54346345Y-50651844D01*
X54427157Y-50678781D01*
X54507969Y-50759593D01*
X54534906Y-50840406D01*
X54534906Y-50894280D01*
X54507969Y-50975093D01*
X54292470Y-51190592D01*
X54588781Y-50409407D02*
X54588781Y-50355532D01*
X54615719Y-50274720D01*
X54750406Y-50140033D01*
X54831218Y-50113096D01*
X54885093Y-50113096D01*
X54965905Y-50140033D01*
X55019780Y-50193908D01*
X55073654Y-50301658D01*
X55073654Y-50948155D01*
X55423841Y-50597969D01*
X55343028Y-49547410D02*
X55235279Y-49655160D01*
X55208341Y-49735972D01*
X55208341Y-49789847D01*
X55235279Y-49924534D01*
X55316091Y-50059221D01*
X55531590Y-50274720D01*
X55612402Y-50301658D01*
X55666277Y-50301658D01*
X55747089Y-50274720D01*
X55854839Y-50166971D01*
X55881776Y-50086158D01*
X55881776Y-50032284D01*
X55854839Y-49951471D01*
X55720152Y-49816784D01*
X55639340Y-49789847D01*
X55585465Y-49789847D01*
X55504653Y-49816784D01*
X55396903Y-49924534D01*
X55369966Y-50005346D01*
X55369966Y-50059221D01*
X55396903Y-50140033D01*
X53753722Y-66430592D02*
X53672910Y-66457529D01*
X53592097Y-66538341D01*
X53538223Y-66646091D01*
X53538223Y-66753841D01*
X53565160Y-66834653D01*
X53645972Y-66969340D01*
X53726784Y-67050152D01*
X53861471Y-67130964D01*
X53942284Y-67157902D01*
X54050033Y-67157902D01*
X54157783Y-67104027D01*
X54211658Y-67050152D01*
X54265532Y-66942402D01*
X54265532Y-66888528D01*
X54076971Y-66699966D01*
X53969221Y-66807715D01*
X54561844Y-66699966D02*
X53996158Y-66134280D01*
X54211658Y-65918781D01*
X54292470Y-65891844D01*
X54346345Y-65891844D01*
X54427157Y-65918781D01*
X54507969Y-65999593D01*
X54534906Y-66080406D01*
X54534906Y-66134280D01*
X54507969Y-66215093D01*
X54292470Y-66430592D01*
X55423841Y-65837969D02*
X55100592Y-66161218D01*
X55262216Y-65999593D02*
X54696531Y-65433908D01*
X54723468Y-65568595D01*
X54723468Y-65676345D01*
X54696531Y-65757157D01*
X55693215Y-65568595D02*
X55800964Y-65460845D01*
X55827902Y-65380033D01*
X55827902Y-65326158D01*
X55800964Y-65191471D01*
X55720152Y-65056784D01*
X55504653Y-64841285D01*
X55423841Y-64814348D01*
X55369966Y-64814348D01*
X55289154Y-64841285D01*
X55181404Y-64949035D01*
X55154467Y-65029847D01*
X55154467Y-65083722D01*
X55181404Y-65164534D01*
X55316091Y-65299221D01*
X55396903Y-65326158D01*
X55450778Y-65326158D01*
X55531590Y-65299221D01*
X55639340Y-65191471D01*
X55666277Y-65110659D01*
X55666277Y-65056784D01*
X55639340Y-64975972D01*
X28142158Y-45868155D02*
X28061346Y-45895093D01*
X27980534Y-45975905D01*
X27926659Y-46083654D01*
X27926659Y-46191404D01*
X27953597Y-46272216D01*
X28034409Y-46406903D01*
X28115221Y-46487715D01*
X28249908Y-46568528D01*
X28330720Y-46595465D01*
X28438470Y-46595465D01*
X28546219Y-46541590D01*
X28600094Y-46487715D01*
X28653969Y-46379966D01*
X28653969Y-46326091D01*
X28465407Y-46137529D01*
X28357658Y-46245279D01*
X28950280Y-46137529D02*
X28384595Y-45571844D01*
X29273529Y-45814280D01*
X28707844Y-45248595D01*
X29542903Y-45544906D02*
X28977218Y-44979221D01*
X29111905Y-44844534D01*
X29219654Y-44790659D01*
X29327404Y-44790659D01*
X29408216Y-44817597D01*
X29542903Y-44898409D01*
X29623715Y-44979221D01*
X29704528Y-45113908D01*
X29731465Y-45194720D01*
X29731465Y-45302470D01*
X29677590Y-45410219D01*
X29542903Y-45544906D01*
X27599722Y-74050592D02*
X27518910Y-74077529D01*
X27438097Y-74158341D01*
X27384223Y-74266091D01*
X27384223Y-74373841D01*
X27411160Y-74454653D01*
X27491972Y-74589340D01*
X27572784Y-74670152D01*
X27707471Y-74750964D01*
X27788284Y-74777902D01*
X27896033Y-74777902D01*
X28003783Y-74724027D01*
X28057658Y-74670152D01*
X28111532Y-74562402D01*
X28111532Y-74508528D01*
X27922971Y-74319966D01*
X27815221Y-74427715D01*
X28407844Y-74319966D02*
X27842158Y-73754280D01*
X28057658Y-73538781D01*
X28138470Y-73511844D01*
X28192345Y-73511844D01*
X28273157Y-73538781D01*
X28353969Y-73619593D01*
X28380906Y-73700406D01*
X28380906Y-73754280D01*
X28353969Y-73835093D01*
X28138470Y-74050592D01*
X29269841Y-73457969D02*
X28946592Y-73781218D01*
X29108216Y-73619593D02*
X28542531Y-73053908D01*
X28569468Y-73188595D01*
X28569468Y-73296345D01*
X28542531Y-73377157D01*
X29377590Y-72595972D02*
X29754714Y-72973096D01*
X29027404Y-72515160D02*
X29296778Y-73053908D01*
X29646964Y-72703722D01*
X53753722Y-76590592D02*
X53672910Y-76617529D01*
X53592097Y-76698341D01*
X53538223Y-76806091D01*
X53538223Y-76913841D01*
X53565160Y-76994653D01*
X53645972Y-77129340D01*
X53726784Y-77210152D01*
X53861471Y-77290964D01*
X53942284Y-77317902D01*
X54050033Y-77317902D01*
X54157783Y-77264027D01*
X54211658Y-77210152D01*
X54265532Y-77102402D01*
X54265532Y-77048528D01*
X54076971Y-76859966D01*
X53969221Y-76967715D01*
X54561844Y-76859966D02*
X53996158Y-76294280D01*
X54211658Y-76078781D01*
X54292470Y-76051844D01*
X54346345Y-76051844D01*
X54427157Y-76078781D01*
X54507969Y-76159593D01*
X54534906Y-76240406D01*
X54534906Y-76294280D01*
X54507969Y-76375093D01*
X54292470Y-76590592D01*
X55423841Y-75997969D02*
X55100592Y-76321218D01*
X55262216Y-76159593D02*
X54696531Y-75593908D01*
X54723468Y-75728595D01*
X54723468Y-75836345D01*
X54696531Y-75917157D01*
X55343028Y-74947410D02*
X55235279Y-75055160D01*
X55208341Y-75135972D01*
X55208341Y-75189847D01*
X55235279Y-75324534D01*
X55316091Y-75459221D01*
X55531590Y-75674720D01*
X55612402Y-75701658D01*
X55666277Y-75701658D01*
X55747089Y-75674720D01*
X55854839Y-75566971D01*
X55881776Y-75486158D01*
X55881776Y-75432284D01*
X55854839Y-75351471D01*
X55720152Y-75216784D01*
X55639340Y-75189847D01*
X55585465Y-75189847D01*
X55504653Y-75216784D01*
X55396903Y-75324534D01*
X55369966Y-75405346D01*
X55369966Y-75459221D01*
X55396903Y-75540033D01*
X54494375Y-54013435D02*
X54036439Y-53932622D01*
X54171126Y-54336683D02*
X53605441Y-53770998D01*
X53820940Y-53555499D01*
X53901752Y-53528561D01*
X53955627Y-53528561D01*
X54036439Y-53555499D01*
X54117251Y-53636311D01*
X54144189Y-53717123D01*
X54144189Y-53770998D01*
X54117251Y-53851810D01*
X53901752Y-54067309D01*
X54171126Y-53205312D02*
X54629062Y-53663248D01*
X54709874Y-53690186D01*
X54763749Y-53690186D01*
X54844561Y-53663248D01*
X54952311Y-53555499D01*
X54979248Y-53474687D01*
X54979248Y-53420812D01*
X54952311Y-53340000D01*
X54494375Y-52882064D01*
X55329435Y-53178375D02*
X54763749Y-52612690D01*
X55652683Y-52855126D01*
X55086998Y-52289441D01*
X27645722Y-68970592D02*
X27564910Y-68997529D01*
X27484097Y-69078341D01*
X27430223Y-69186091D01*
X27430223Y-69293841D01*
X27457160Y-69374653D01*
X27537972Y-69509340D01*
X27618784Y-69590152D01*
X27753471Y-69670964D01*
X27834284Y-69697902D01*
X27942033Y-69697902D01*
X28049783Y-69644027D01*
X28103658Y-69590152D01*
X28157532Y-69482402D01*
X28157532Y-69428528D01*
X27968971Y-69239966D01*
X27861221Y-69347715D01*
X28453844Y-69239966D02*
X27888158Y-68674280D01*
X28103658Y-68458781D01*
X28184470Y-68431844D01*
X28238345Y-68431844D01*
X28319157Y-68458781D01*
X28399969Y-68539593D01*
X28426906Y-68620406D01*
X28426906Y-68674280D01*
X28399969Y-68755093D01*
X28184470Y-68970592D01*
X29315841Y-68377969D02*
X28992592Y-68701218D01*
X29154216Y-68539593D02*
X28588531Y-67973908D01*
X28615468Y-68108595D01*
X28615468Y-68216345D01*
X28588531Y-68297157D01*
X28938717Y-67623722D02*
X29288903Y-67273536D01*
X29315841Y-67677597D01*
X29396653Y-67596784D01*
X29477465Y-67569847D01*
X29531340Y-67569847D01*
X29612152Y-67596784D01*
X29746839Y-67731471D01*
X29773776Y-67812284D01*
X29773776Y-67866158D01*
X29746839Y-67946971D01*
X29585215Y-68108595D01*
X29504402Y-68135532D01*
X29450528Y-68135532D01*
X28169096Y-38221218D02*
X28088284Y-38248155D01*
X28007471Y-38328967D01*
X27953597Y-38436717D01*
X27953597Y-38544467D01*
X27980534Y-38625279D01*
X28061346Y-38759966D01*
X28142158Y-38840778D01*
X28276845Y-38921590D01*
X28357658Y-38948528D01*
X28465407Y-38948528D01*
X28573157Y-38894653D01*
X28627032Y-38840778D01*
X28680906Y-38733028D01*
X28680906Y-38679154D01*
X28492345Y-38490592D01*
X28384595Y-38598341D01*
X28977218Y-38490592D02*
X28411532Y-37924906D01*
X28627032Y-37709407D01*
X28707844Y-37682470D01*
X28761719Y-37682470D01*
X28842531Y-37709407D01*
X28923343Y-37790219D01*
X28950280Y-37871032D01*
X28950280Y-37924906D01*
X28923343Y-38005719D01*
X28707844Y-38221218D01*
X28923343Y-37413096D02*
X29273529Y-37062910D01*
X29300467Y-37466971D01*
X29381279Y-37386158D01*
X29462091Y-37359221D01*
X29515966Y-37359221D01*
X29596778Y-37386158D01*
X29731465Y-37520845D01*
X29758402Y-37601658D01*
X29758402Y-37655532D01*
X29731465Y-37736345D01*
X29569841Y-37897969D01*
X29489028Y-37924906D01*
X29435154Y-37924906D01*
X28142158Y-33168155D02*
X28061346Y-33195093D01*
X27980534Y-33275905D01*
X27926659Y-33383654D01*
X27926659Y-33491404D01*
X27953597Y-33572216D01*
X28034409Y-33706903D01*
X28115221Y-33787715D01*
X28249908Y-33868528D01*
X28330720Y-33895465D01*
X28438470Y-33895465D01*
X28546219Y-33841590D01*
X28600094Y-33787715D01*
X28653969Y-33679966D01*
X28653969Y-33626091D01*
X28465407Y-33437529D01*
X28357658Y-33545279D01*
X28950280Y-33437529D02*
X28384595Y-32871844D01*
X29273529Y-33114280D01*
X28707844Y-32548595D01*
X29542903Y-32844906D02*
X28977218Y-32279221D01*
X29111905Y-32144534D01*
X29219654Y-32090659D01*
X29327404Y-32090659D01*
X29408216Y-32117597D01*
X29542903Y-32198409D01*
X29623715Y-32279221D01*
X29704528Y-32413908D01*
X29731465Y-32494720D01*
X29731465Y-32602470D01*
X29677590Y-32710219D01*
X29542903Y-32844906D01*
X28069096Y-35681218D02*
X27988284Y-35708155D01*
X27907471Y-35788967D01*
X27853597Y-35896717D01*
X27853597Y-36004467D01*
X27880534Y-36085279D01*
X27961346Y-36219966D01*
X28042158Y-36300778D01*
X28176845Y-36381590D01*
X28257658Y-36408528D01*
X28365407Y-36408528D01*
X28473157Y-36354653D01*
X28527032Y-36300778D01*
X28580906Y-36193028D01*
X28580906Y-36139154D01*
X28392345Y-35950592D01*
X28284595Y-36058341D01*
X28877218Y-35950592D02*
X28311532Y-35384906D01*
X28527032Y-35169407D01*
X28607844Y-35142470D01*
X28661719Y-35142470D01*
X28742531Y-35169407D01*
X28823343Y-35250219D01*
X28850280Y-35331032D01*
X28850280Y-35384906D01*
X28823343Y-35465719D01*
X28607844Y-35681218D01*
X28904155Y-34900033D02*
X28904155Y-34846158D01*
X28931093Y-34765346D01*
X29065780Y-34630659D01*
X29146592Y-34603722D01*
X29200467Y-34603722D01*
X29281279Y-34630659D01*
X29335154Y-34684534D01*
X29389028Y-34792284D01*
X29389028Y-35438781D01*
X29739215Y-35088595D01*
X53807597Y-46810964D02*
X54076971Y-46541590D01*
X53915346Y-47026463D02*
X53538223Y-46272216D01*
X54292470Y-46649340D01*
X54238595Y-45625719D02*
X54157783Y-45652656D01*
X54076971Y-45733468D01*
X54023096Y-45841218D01*
X54023096Y-45948967D01*
X54050033Y-46029780D01*
X54130845Y-46164467D01*
X54211658Y-46245279D01*
X54346345Y-46326091D01*
X54427157Y-46353028D01*
X54534906Y-46353028D01*
X54642656Y-46299154D01*
X54696531Y-46245279D01*
X54750406Y-46137529D01*
X54750406Y-46083654D01*
X54561844Y-45895093D01*
X54454094Y-46002842D01*
X55046717Y-45895093D02*
X54481032Y-45329407D01*
X55369966Y-45571844D01*
X54804280Y-45006158D01*
X55639340Y-45302470D02*
X55073654Y-44736784D01*
X55208341Y-44602097D01*
X55316091Y-44548223D01*
X55423841Y-44548223D01*
X55504653Y-44575160D01*
X55639340Y-44655972D01*
X55720152Y-44736784D01*
X55800964Y-44871471D01*
X55827902Y-44952284D01*
X55827902Y-45060033D01*
X55774027Y-45167783D01*
X55639340Y-45302470D01*
X53753722Y-43316592D02*
X53672910Y-43343529D01*
X53592097Y-43424341D01*
X53538223Y-43532091D01*
X53538223Y-43639841D01*
X53565160Y-43720653D01*
X53645972Y-43855340D01*
X53726784Y-43936152D01*
X53861471Y-44016964D01*
X53942284Y-44043902D01*
X54050033Y-44043902D01*
X54157783Y-43990027D01*
X54211658Y-43936152D01*
X54265532Y-43828402D01*
X54265532Y-43774528D01*
X54076971Y-43585966D01*
X53969221Y-43693715D01*
X54561844Y-43585966D02*
X53996158Y-43020280D01*
X54211658Y-42804781D01*
X54292470Y-42777844D01*
X54346345Y-42777844D01*
X54427157Y-42804781D01*
X54507969Y-42885593D01*
X54534906Y-42966406D01*
X54534906Y-43020280D01*
X54507969Y-43101093D01*
X54292470Y-43316592D01*
X54588781Y-42535407D02*
X54588781Y-42481532D01*
X54615719Y-42400720D01*
X54750406Y-42266033D01*
X54831218Y-42239096D01*
X54885093Y-42239096D01*
X54965905Y-42266033D01*
X55019780Y-42319908D01*
X55073654Y-42427658D01*
X55073654Y-43074155D01*
X55423841Y-42723969D01*
X55423841Y-42077471D02*
X55343028Y-42104409D01*
X55289154Y-42104409D01*
X55208341Y-42077471D01*
X55181404Y-42050534D01*
X55154467Y-41969722D01*
X55154467Y-41915847D01*
X55181404Y-41835035D01*
X55289154Y-41727285D01*
X55369966Y-41700348D01*
X55423841Y-41700348D01*
X55504653Y-41727285D01*
X55531590Y-41754223D01*
X55558528Y-41835035D01*
X55558528Y-41888910D01*
X55531590Y-41969722D01*
X55423841Y-42077471D01*
X55396903Y-42158284D01*
X55396903Y-42212158D01*
X55423841Y-42292971D01*
X55531590Y-42400720D01*
X55612402Y-42427658D01*
X55666277Y-42427658D01*
X55747089Y-42400720D01*
X55854839Y-42292971D01*
X55881776Y-42212158D01*
X55881776Y-42158284D01*
X55854839Y-42077471D01*
X55747089Y-41969722D01*
X55666277Y-41942784D01*
X55612402Y-41942784D01*
X55531590Y-41969722D01*
X53753722Y-74050592D02*
X53672910Y-74077529D01*
X53592097Y-74158341D01*
X53538223Y-74266091D01*
X53538223Y-74373841D01*
X53565160Y-74454653D01*
X53645972Y-74589340D01*
X53726784Y-74670152D01*
X53861471Y-74750964D01*
X53942284Y-74777902D01*
X54050033Y-74777902D01*
X54157783Y-74724027D01*
X54211658Y-74670152D01*
X54265532Y-74562402D01*
X54265532Y-74508528D01*
X54076971Y-74319966D01*
X53969221Y-74427715D01*
X54561844Y-74319966D02*
X53996158Y-73754280D01*
X54211658Y-73538781D01*
X54292470Y-73511844D01*
X54346345Y-73511844D01*
X54427157Y-73538781D01*
X54507969Y-73619593D01*
X54534906Y-73700406D01*
X54534906Y-73754280D01*
X54507969Y-73835093D01*
X54292470Y-74050592D01*
X55423841Y-73457969D02*
X55100592Y-73781218D01*
X55262216Y-73619593D02*
X54696531Y-73053908D01*
X54723468Y-73188595D01*
X54723468Y-73296345D01*
X54696531Y-73377157D01*
X55046717Y-72703722D02*
X55423841Y-72326598D01*
X55747089Y-73134720D01*
X28269096Y-50891218D02*
X28188284Y-50918155D01*
X28107471Y-50998967D01*
X28053597Y-51106717D01*
X28053597Y-51214467D01*
X28080534Y-51295279D01*
X28161346Y-51429966D01*
X28242158Y-51510778D01*
X28376845Y-51591590D01*
X28457658Y-51618528D01*
X28565407Y-51618528D01*
X28673157Y-51564653D01*
X28727032Y-51510778D01*
X28780906Y-51403028D01*
X28780906Y-51349154D01*
X28592345Y-51160592D01*
X28484595Y-51268341D01*
X29077218Y-51160592D02*
X28511532Y-50594906D01*
X28727032Y-50379407D01*
X28807844Y-50352470D01*
X28861719Y-50352470D01*
X28942531Y-50379407D01*
X29023343Y-50460219D01*
X29050280Y-50541032D01*
X29050280Y-50594906D01*
X29023343Y-50675719D01*
X28807844Y-50891218D01*
X29023343Y-50083096D02*
X29400467Y-49705972D01*
X29723715Y-50514094D01*
X28142158Y-58568155D02*
X28061346Y-58595093D01*
X27980534Y-58675905D01*
X27926659Y-58783654D01*
X27926659Y-58891404D01*
X27953597Y-58972216D01*
X28034409Y-59106903D01*
X28115221Y-59187715D01*
X28249908Y-59268528D01*
X28330720Y-59295465D01*
X28438470Y-59295465D01*
X28546219Y-59241590D01*
X28600094Y-59187715D01*
X28653969Y-59079966D01*
X28653969Y-59026091D01*
X28465407Y-58837529D01*
X28357658Y-58945279D01*
X28950280Y-58837529D02*
X28384595Y-58271844D01*
X29273529Y-58514280D01*
X28707844Y-57948595D01*
X29542903Y-58244906D02*
X28977218Y-57679221D01*
X29111905Y-57544534D01*
X29219654Y-57490659D01*
X29327404Y-57490659D01*
X29408216Y-57517597D01*
X29542903Y-57598409D01*
X29623715Y-57679221D01*
X29704528Y-57813908D01*
X29731465Y-57894720D01*
X29731465Y-58002470D01*
X29677590Y-58110219D01*
X29542903Y-58244906D01*
X28169096Y-28061218D02*
X28088284Y-28088155D01*
X28007471Y-28168967D01*
X27953597Y-28276717D01*
X27953597Y-28384467D01*
X27980534Y-28465279D01*
X28061346Y-28599966D01*
X28142158Y-28680778D01*
X28276845Y-28761590D01*
X28357658Y-28788528D01*
X28465407Y-28788528D01*
X28573157Y-28734653D01*
X28627032Y-28680778D01*
X28680906Y-28573028D01*
X28680906Y-28519154D01*
X28492345Y-28330592D01*
X28384595Y-28438341D01*
X28977218Y-28330592D02*
X28411532Y-27764906D01*
X28627032Y-27549407D01*
X28707844Y-27522470D01*
X28761719Y-27522470D01*
X28842531Y-27549407D01*
X28923343Y-27630219D01*
X28950280Y-27711032D01*
X28950280Y-27764906D01*
X28923343Y-27845719D01*
X28707844Y-28061218D01*
X29084967Y-27091471D02*
X29138842Y-27037597D01*
X29219654Y-27010659D01*
X29273529Y-27010659D01*
X29354341Y-27037597D01*
X29489028Y-27118409D01*
X29623715Y-27253096D01*
X29704528Y-27387783D01*
X29731465Y-27468595D01*
X29731465Y-27522470D01*
X29704528Y-27603282D01*
X29650653Y-27657157D01*
X29569841Y-27684094D01*
X29515966Y-27684094D01*
X29435154Y-27657157D01*
X29300467Y-27576345D01*
X29165780Y-27441658D01*
X29084967Y-27306971D01*
X29058030Y-27226158D01*
X29058030Y-27172284D01*
X29084967Y-27091471D01*
X53742158Y-58568155D02*
X53661346Y-58595093D01*
X53580534Y-58675905D01*
X53526659Y-58783654D01*
X53526659Y-58891404D01*
X53553597Y-58972216D01*
X53634409Y-59106903D01*
X53715221Y-59187715D01*
X53849908Y-59268528D01*
X53930720Y-59295465D01*
X54038470Y-59295465D01*
X54146219Y-59241590D01*
X54200094Y-59187715D01*
X54253969Y-59079966D01*
X54253969Y-59026091D01*
X54065407Y-58837529D01*
X53957658Y-58945279D01*
X54550280Y-58837529D02*
X53984595Y-58271844D01*
X54873529Y-58514280D01*
X54307844Y-57948595D01*
X55142903Y-58244906D02*
X54577218Y-57679221D01*
X54711905Y-57544534D01*
X54819654Y-57490659D01*
X54927404Y-57490659D01*
X55008216Y-57517597D01*
X55142903Y-57598409D01*
X55223715Y-57679221D01*
X55304528Y-57813908D01*
X55331465Y-57894720D01*
X55331465Y-58002470D01*
X55277590Y-58110219D01*
X55142903Y-58244906D01*
%TO.C,Q6*%
X59848761Y-41581619D02*
X59753523Y-41534000D01*
X59658285Y-41438761D01*
X59515428Y-41295904D01*
X59420190Y-41248285D01*
X59324952Y-41248285D01*
X59372571Y-41486380D02*
X59277333Y-41438761D01*
X59182095Y-41343523D01*
X59134476Y-41153047D01*
X59134476Y-40819714D01*
X59182095Y-40629238D01*
X59277333Y-40534000D01*
X59372571Y-40486380D01*
X59563047Y-40486380D01*
X59658285Y-40534000D01*
X59753523Y-40629238D01*
X59801142Y-40819714D01*
X59801142Y-41153047D01*
X59753523Y-41343523D01*
X59658285Y-41438761D01*
X59563047Y-41486380D01*
X59372571Y-41486380D01*
X60658285Y-40486380D02*
X60467809Y-40486380D01*
X60372571Y-40534000D01*
X60324952Y-40581619D01*
X60229714Y-40724476D01*
X60182095Y-40914952D01*
X60182095Y-41295904D01*
X60229714Y-41391142D01*
X60277333Y-41438761D01*
X60372571Y-41486380D01*
X60563047Y-41486380D01*
X60658285Y-41438761D01*
X60705904Y-41391142D01*
X60753523Y-41295904D01*
X60753523Y-41057809D01*
X60705904Y-40962571D01*
X60658285Y-40914952D01*
X60563047Y-40867333D01*
X60372571Y-40867333D01*
X60277333Y-40914952D01*
X60229714Y-40962571D01*
X60182095Y-41057809D01*
%TO.C,J2*%
X23502380Y-28273333D02*
X24216666Y-28273333D01*
X24359523Y-28320952D01*
X24454761Y-28416190D01*
X24502380Y-28559047D01*
X24502380Y-28654285D01*
X23597619Y-27844761D02*
X23550000Y-27797142D01*
X23502380Y-27701904D01*
X23502380Y-27463809D01*
X23550000Y-27368571D01*
X23597619Y-27320952D01*
X23692857Y-27273333D01*
X23788095Y-27273333D01*
X23930952Y-27320952D01*
X24502380Y-27892380D01*
X24502380Y-27273333D01*
%TO.C,U2*%
X51308095Y-18248380D02*
X51308095Y-19057904D01*
X51355714Y-19153142D01*
X51403333Y-19200761D01*
X51498571Y-19248380D01*
X51689047Y-19248380D01*
X51784285Y-19200761D01*
X51831904Y-19153142D01*
X51879523Y-19057904D01*
X51879523Y-18248380D01*
X52308095Y-18343619D02*
X52355714Y-18296000D01*
X52450952Y-18248380D01*
X52689047Y-18248380D01*
X52784285Y-18296000D01*
X52831904Y-18343619D01*
X52879523Y-18438857D01*
X52879523Y-18534095D01*
X52831904Y-18676952D01*
X52260476Y-19248380D01*
X52879523Y-19248380D01*
%TO.C,C1*%
X30127142Y-15926666D02*
X30174761Y-15974285D01*
X30222380Y-16117142D01*
X30222380Y-16212380D01*
X30174761Y-16355238D01*
X30079523Y-16450476D01*
X29984285Y-16498095D01*
X29793809Y-16545714D01*
X29650952Y-16545714D01*
X29460476Y-16498095D01*
X29365238Y-16450476D01*
X29270000Y-16355238D01*
X29222380Y-16212380D01*
X29222380Y-16117142D01*
X29270000Y-15974285D01*
X29317619Y-15926666D01*
X30222380Y-14974285D02*
X30222380Y-15545714D01*
X30222380Y-15260000D02*
X29222380Y-15260000D01*
X29365238Y-15355238D01*
X29460476Y-15450476D01*
X29508095Y-15545714D01*
%TO.C,SW3*%
X205474666Y-118228761D02*
X205617523Y-118276380D01*
X205855619Y-118276380D01*
X205950857Y-118228761D01*
X205998476Y-118181142D01*
X206046095Y-118085904D01*
X206046095Y-117990666D01*
X205998476Y-117895428D01*
X205950857Y-117847809D01*
X205855619Y-117800190D01*
X205665142Y-117752571D01*
X205569904Y-117704952D01*
X205522285Y-117657333D01*
X205474666Y-117562095D01*
X205474666Y-117466857D01*
X205522285Y-117371619D01*
X205569904Y-117324000D01*
X205665142Y-117276380D01*
X205903238Y-117276380D01*
X206046095Y-117324000D01*
X206379428Y-117276380D02*
X206617523Y-118276380D01*
X206808000Y-117562095D01*
X206998476Y-118276380D01*
X207236571Y-117276380D01*
X207522285Y-117276380D02*
X208141333Y-117276380D01*
X207808000Y-117657333D01*
X207950857Y-117657333D01*
X208046095Y-117704952D01*
X208093714Y-117752571D01*
X208141333Y-117847809D01*
X208141333Y-118085904D01*
X208093714Y-118181142D01*
X208046095Y-118228761D01*
X207950857Y-118276380D01*
X207665142Y-118276380D01*
X207569904Y-118228761D01*
X207522285Y-118181142D01*
%TO.C,Q7*%
X60102761Y-46407619D02*
X60007523Y-46360000D01*
X59912285Y-46264761D01*
X59769428Y-46121904D01*
X59674190Y-46074285D01*
X59578952Y-46074285D01*
X59626571Y-46312380D02*
X59531333Y-46264761D01*
X59436095Y-46169523D01*
X59388476Y-45979047D01*
X59388476Y-45645714D01*
X59436095Y-45455238D01*
X59531333Y-45360000D01*
X59626571Y-45312380D01*
X59817047Y-45312380D01*
X59912285Y-45360000D01*
X60007523Y-45455238D01*
X60055142Y-45645714D01*
X60055142Y-45979047D01*
X60007523Y-46169523D01*
X59912285Y-46264761D01*
X59817047Y-46312380D01*
X59626571Y-46312380D01*
X60388476Y-45312380D02*
X61055142Y-45312380D01*
X60626571Y-46312380D01*
%TO.C,Q10*%
X59626571Y-62155619D02*
X59531333Y-62108000D01*
X59436095Y-62012761D01*
X59293238Y-61869904D01*
X59198000Y-61822285D01*
X59102761Y-61822285D01*
X59150380Y-62060380D02*
X59055142Y-62012761D01*
X58959904Y-61917523D01*
X58912285Y-61727047D01*
X58912285Y-61393714D01*
X58959904Y-61203238D01*
X59055142Y-61108000D01*
X59150380Y-61060380D01*
X59340857Y-61060380D01*
X59436095Y-61108000D01*
X59531333Y-61203238D01*
X59578952Y-61393714D01*
X59578952Y-61727047D01*
X59531333Y-61917523D01*
X59436095Y-62012761D01*
X59340857Y-62060380D01*
X59150380Y-62060380D01*
X60531333Y-62060380D02*
X59959904Y-62060380D01*
X60245619Y-62060380D02*
X60245619Y-61060380D01*
X60150380Y-61203238D01*
X60055142Y-61298476D01*
X59959904Y-61346095D01*
X61150380Y-61060380D02*
X61245619Y-61060380D01*
X61340857Y-61108000D01*
X61388476Y-61155619D01*
X61436095Y-61250857D01*
X61483714Y-61441333D01*
X61483714Y-61679428D01*
X61436095Y-61869904D01*
X61388476Y-61965142D01*
X61340857Y-62012761D01*
X61245619Y-62060380D01*
X61150380Y-62060380D01*
X61055142Y-62012761D01*
X61007523Y-61965142D01*
X60959904Y-61869904D01*
X60912285Y-61679428D01*
X60912285Y-61441333D01*
X60959904Y-61250857D01*
X61007523Y-61155619D01*
X61055142Y-61108000D01*
X61150380Y-61060380D01*
%TO.C,Q12*%
X59626571Y-72315619D02*
X59531333Y-72268000D01*
X59436095Y-72172761D01*
X59293238Y-72029904D01*
X59198000Y-71982285D01*
X59102761Y-71982285D01*
X59150380Y-72220380D02*
X59055142Y-72172761D01*
X58959904Y-72077523D01*
X58912285Y-71887047D01*
X58912285Y-71553714D01*
X58959904Y-71363238D01*
X59055142Y-71268000D01*
X59150380Y-71220380D01*
X59340857Y-71220380D01*
X59436095Y-71268000D01*
X59531333Y-71363238D01*
X59578952Y-71553714D01*
X59578952Y-71887047D01*
X59531333Y-72077523D01*
X59436095Y-72172761D01*
X59340857Y-72220380D01*
X59150380Y-72220380D01*
X60531333Y-72220380D02*
X59959904Y-72220380D01*
X60245619Y-72220380D02*
X60245619Y-71220380D01*
X60150380Y-71363238D01*
X60055142Y-71458476D01*
X59959904Y-71506095D01*
X60912285Y-71315619D02*
X60959904Y-71268000D01*
X61055142Y-71220380D01*
X61293238Y-71220380D01*
X61388476Y-71268000D01*
X61436095Y-71315619D01*
X61483714Y-71410857D01*
X61483714Y-71506095D01*
X61436095Y-71648952D01*
X60864666Y-72220380D01*
X61483714Y-72220380D01*
%TO.C,Q5*%
X41306761Y-82475619D02*
X41211523Y-82428000D01*
X41116285Y-82332761D01*
X40973428Y-82189904D01*
X40878190Y-82142285D01*
X40782952Y-82142285D01*
X40830571Y-82380380D02*
X40735333Y-82332761D01*
X40640095Y-82237523D01*
X40592476Y-82047047D01*
X40592476Y-81713714D01*
X40640095Y-81523238D01*
X40735333Y-81428000D01*
X40830571Y-81380380D01*
X41021047Y-81380380D01*
X41116285Y-81428000D01*
X41211523Y-81523238D01*
X41259142Y-81713714D01*
X41259142Y-82047047D01*
X41211523Y-82237523D01*
X41116285Y-82332761D01*
X41021047Y-82380380D01*
X40830571Y-82380380D01*
X42163904Y-81380380D02*
X41687714Y-81380380D01*
X41640095Y-81856571D01*
X41687714Y-81808952D01*
X41782952Y-81761333D01*
X42021047Y-81761333D01*
X42116285Y-81808952D01*
X42163904Y-81856571D01*
X42211523Y-81951809D01*
X42211523Y-82189904D01*
X42163904Y-82285142D01*
X42116285Y-82332761D01*
X42021047Y-82380380D01*
X41782952Y-82380380D01*
X41687714Y-82332761D01*
X41640095Y-82285142D01*
%TO.C,Q2*%
X53060761Y-82475619D02*
X52965523Y-82428000D01*
X52870285Y-82332761D01*
X52727428Y-82189904D01*
X52632190Y-82142285D01*
X52536952Y-82142285D01*
X52584571Y-82380380D02*
X52489333Y-82332761D01*
X52394095Y-82237523D01*
X52346476Y-82047047D01*
X52346476Y-81713714D01*
X52394095Y-81523238D01*
X52489333Y-81428000D01*
X52584571Y-81380380D01*
X52775047Y-81380380D01*
X52870285Y-81428000D01*
X52965523Y-81523238D01*
X53013142Y-81713714D01*
X53013142Y-82047047D01*
X52965523Y-82237523D01*
X52870285Y-82332761D01*
X52775047Y-82380380D01*
X52584571Y-82380380D01*
X53394095Y-81475619D02*
X53441714Y-81428000D01*
X53536952Y-81380380D01*
X53775047Y-81380380D01*
X53870285Y-81428000D01*
X53917904Y-81475619D01*
X53965523Y-81570857D01*
X53965523Y-81666095D01*
X53917904Y-81808952D01*
X53346476Y-82380380D01*
X53965523Y-82380380D01*
%TO.C,Q9*%
X60102761Y-56821619D02*
X60007523Y-56774000D01*
X59912285Y-56678761D01*
X59769428Y-56535904D01*
X59674190Y-56488285D01*
X59578952Y-56488285D01*
X59626571Y-56726380D02*
X59531333Y-56678761D01*
X59436095Y-56583523D01*
X59388476Y-56393047D01*
X59388476Y-56059714D01*
X59436095Y-55869238D01*
X59531333Y-55774000D01*
X59626571Y-55726380D01*
X59817047Y-55726380D01*
X59912285Y-55774000D01*
X60007523Y-55869238D01*
X60055142Y-56059714D01*
X60055142Y-56393047D01*
X60007523Y-56583523D01*
X59912285Y-56678761D01*
X59817047Y-56726380D01*
X59626571Y-56726380D01*
X60531333Y-56726380D02*
X60721809Y-56726380D01*
X60817047Y-56678761D01*
X60864666Y-56631142D01*
X60959904Y-56488285D01*
X61007523Y-56297809D01*
X61007523Y-55916857D01*
X60959904Y-55821619D01*
X60912285Y-55774000D01*
X60817047Y-55726380D01*
X60626571Y-55726380D01*
X60531333Y-55774000D01*
X60483714Y-55821619D01*
X60436095Y-55916857D01*
X60436095Y-56154952D01*
X60483714Y-56250190D01*
X60531333Y-56297809D01*
X60626571Y-56345428D01*
X60817047Y-56345428D01*
X60912285Y-56297809D01*
X60959904Y-56250190D01*
X61007523Y-56154952D01*
D13*
%TO.C,SW1*%
X181698000Y-116824000D02*
X186198000Y-116824000D01*
X187448000Y-114324000D02*
X187448000Y-112824000D01*
X186198000Y-110324000D02*
X181698000Y-110324000D01*
X180448000Y-112824000D02*
X180448000Y-114324000D01*
%TO.C,SW5*%
X222000000Y-112824000D02*
X222000000Y-114324000D01*
X223250000Y-116824000D02*
X227750000Y-116824000D01*
X229000000Y-114324000D02*
X229000000Y-112824000D01*
X227750000Y-110324000D02*
X223250000Y-110324000D01*
%TO.C,D104*%
X120428000Y-32019000D02*
X120428000Y-35109000D01*
X120428000Y-35108830D02*
G75*
G03*
X125978000Y-33563538I2560000J1544830D01*
G01*
X125978000Y-33564462D02*
G75*
G03*
X120428000Y-32019170I-2990000J462D01*
G01*
X125488000Y-33564000D02*
G75*
G03*
X125488000Y-33564000I-2500000J0D01*
G01*
%TO.C,D72*%
X158528000Y-54879000D02*
X158528000Y-57969000D01*
X158528000Y-57968830D02*
G75*
G03*
X164078000Y-56423538I2560000J1544830D01*
G01*
X164078000Y-56424462D02*
G75*
G03*
X158528000Y-54879170I-2990000J462D01*
G01*
X163588000Y-56424000D02*
G75*
G03*
X163588000Y-56424000I-2500000J0D01*
G01*
%TO.C,D1*%
X188753000Y-28504000D02*
X191843000Y-28504000D01*
X190298462Y-22954000D02*
G75*
G03*
X188753170Y-28504000I-462J-2990000D01*
G01*
X191842830Y-28504000D02*
G75*
G03*
X190297538Y-22954000I-1544830J2560000D01*
G01*
X192798000Y-25944000D02*
G75*
G03*
X192798000Y-25944000I-2500000J0D01*
G01*
%TO.C,D91*%
X228378000Y-75199000D02*
X228378000Y-78289000D01*
X228378000Y-78288830D02*
G75*
G03*
X233928000Y-76743538I2560000J1544830D01*
G01*
X233928000Y-76744462D02*
G75*
G03*
X228378000Y-75199170I-2990000J462D01*
G01*
X233438000Y-76744000D02*
G75*
G03*
X233438000Y-76744000I-2500000J0D01*
G01*
%TO.C,D43*%
X180118000Y-39639000D02*
X180118000Y-42729000D01*
X185668000Y-41184462D02*
G75*
G03*
X180118000Y-39639170I-2990000J462D01*
G01*
X180118000Y-42728830D02*
G75*
G03*
X185668000Y-41183538I2560000J1544830D01*
G01*
X185178000Y-41184000D02*
G75*
G03*
X185178000Y-41184000I-2500000J0D01*
G01*
%TO.C,D36*%
X180118000Y-67579000D02*
X180118000Y-70669000D01*
X185668000Y-69124462D02*
G75*
G03*
X180118000Y-67579170I-2990000J462D01*
G01*
X180118000Y-70668830D02*
G75*
G03*
X185668000Y-69123538I2560000J1544830D01*
G01*
X185178000Y-69124000D02*
G75*
G03*
X185178000Y-69124000I-2500000J0D01*
G01*
%TO.C,Q11*%
X60198000Y-67528000D02*
X60848000Y-67528000D01*
X60198000Y-70648000D02*
X59548000Y-70648000D01*
X60198000Y-67528000D02*
X58523000Y-67528000D01*
X60198000Y-70648000D02*
X60848000Y-70648000D01*
%TO.C,D5*%
X218218000Y-32019000D02*
X218218000Y-35109000D01*
X218218000Y-35108830D02*
G75*
G03*
X223768000Y-33563538I2560000J1544830D01*
G01*
X223768000Y-33564462D02*
G75*
G03*
X218218000Y-32019170I-2990000J462D01*
G01*
X223278000Y-33564000D02*
G75*
G03*
X223278000Y-33564000I-2500000J0D01*
G01*
%TO.C,D48*%
X72168000Y-32019000D02*
X72168000Y-35109000D01*
X77718000Y-33564462D02*
G75*
G03*
X72168000Y-32019170I-2990000J462D01*
G01*
X72168000Y-35108830D02*
G75*
G03*
X77718000Y-33563538I2560000J1544830D01*
G01*
X77228000Y-33564000D02*
G75*
G03*
X77228000Y-33564000I-2500000J0D01*
G01*
%TO.C,J1*%
X13980000Y-48478000D02*
X13980000Y-47148000D01*
X16640000Y-49748000D02*
X16640000Y-77748000D01*
X13980000Y-49748000D02*
X13980000Y-77748000D01*
X13980000Y-47148000D02*
X15310000Y-47148000D01*
X13980000Y-77748000D02*
X16640000Y-77748000D01*
X13980000Y-49748000D02*
X16640000Y-49748000D01*
%TO.C,D22*%
X110268000Y-75199000D02*
X110268000Y-78289000D01*
X115818000Y-76744462D02*
G75*
G03*
X110268000Y-75199170I-2990000J462D01*
G01*
X110268000Y-78288830D02*
G75*
G03*
X115818000Y-76743538I2560000J1544830D01*
G01*
X115328000Y-76744000D02*
G75*
G03*
X115328000Y-76744000I-2500000J0D01*
G01*
%TO.C,SW4*%
X112558000Y-116824000D02*
X117058000Y-116824000D01*
X117058000Y-110324000D02*
X112558000Y-110324000D01*
X111308000Y-112824000D02*
X111308000Y-114324000D01*
X118308000Y-114324000D02*
X118308000Y-112824000D01*
%TO.C,D27*%
X196373000Y-102164000D02*
X199463000Y-102164000D01*
X197918462Y-96614000D02*
G75*
G03*
X196373170Y-102164000I-462J-2990000D01*
G01*
X199462830Y-102164000D02*
G75*
G03*
X197917538Y-96614000I-1544830J2560000D01*
G01*
X200418000Y-99604000D02*
G75*
G03*
X200418000Y-99604000I-2500000J0D01*
G01*
%TO.C,D53*%
X80803000Y-65334000D02*
X83893000Y-65334000D01*
X83892830Y-65334000D02*
G75*
G03*
X82347538Y-59784000I-1544830J2560000D01*
G01*
X82348462Y-59784000D02*
G75*
G03*
X80803170Y-65334000I-462J-2990000D01*
G01*
X84848000Y-62774000D02*
G75*
G03*
X84848000Y-62774000I-2500000J0D01*
G01*
%TO.C,D81*%
X259873000Y-102164000D02*
X262963000Y-102164000D01*
X262962830Y-102164000D02*
G75*
G03*
X261417538Y-96614000I-1544830J2560000D01*
G01*
X261418462Y-96614000D02*
G75*
G03*
X259873170Y-102164000I-462J-2990000D01*
G01*
X263918000Y-99604000D02*
G75*
G03*
X263918000Y-99604000I-2500000J0D01*
G01*
%TO.C,D52*%
X211613000Y-65334000D02*
X214703000Y-65334000D01*
X213158462Y-59784000D02*
G75*
G03*
X211613170Y-65334000I-462J-2990000D01*
G01*
X214702830Y-65334000D02*
G75*
G03*
X213157538Y-59784000I-1544830J2560000D01*
G01*
X215658000Y-62774000D02*
G75*
G03*
X215658000Y-62774000I-2500000J0D01*
G01*
%TO.C,D10*%
X88423000Y-28504000D02*
X91513000Y-28504000D01*
X91512830Y-28504000D02*
G75*
G03*
X89967538Y-22954000I-1544830J2560000D01*
G01*
X89968462Y-22954000D02*
G75*
G03*
X88423170Y-28504000I-462J-2990000D01*
G01*
X92468000Y-25944000D02*
G75*
G03*
X92468000Y-25944000I-2500000J0D01*
G01*
%TO.C,D21*%
X110268000Y-67579000D02*
X110268000Y-70669000D01*
X115818000Y-69124462D02*
G75*
G03*
X110268000Y-67579170I-2990000J462D01*
G01*
X110268000Y-70668830D02*
G75*
G03*
X115818000Y-69123538I2560000J1544830D01*
G01*
X115328000Y-69124000D02*
G75*
G03*
X115328000Y-69124000I-2500000J0D01*
G01*
%TO.C,D63*%
X144303000Y-28504000D02*
X147393000Y-28504000D01*
X145848462Y-22954000D02*
G75*
G03*
X144303170Y-28504000I-462J-2990000D01*
G01*
X147392830Y-28504000D02*
G75*
G03*
X145847538Y-22954000I-1544830J2560000D01*
G01*
X148348000Y-25944000D02*
G75*
G03*
X148348000Y-25944000I-2500000J0D01*
G01*
%TO.C,D59*%
X252253000Y-28504000D02*
X255343000Y-28504000D01*
X253798462Y-22954000D02*
G75*
G03*
X252253170Y-28504000I-462J-2990000D01*
G01*
X255342830Y-28504000D02*
G75*
G03*
X253797538Y-22954000I-1544830J2560000D01*
G01*
X256298000Y-25944000D02*
G75*
G03*
X256298000Y-25944000I-2500000J0D01*
G01*
%TO.C,D103*%
X120428000Y-39639000D02*
X120428000Y-42729000D01*
X120428000Y-42728830D02*
G75*
G03*
X125978000Y-41183538I2560000J1544830D01*
G01*
X125978000Y-41184462D02*
G75*
G03*
X120428000Y-39639170I-2990000J462D01*
G01*
X125488000Y-41184000D02*
G75*
G03*
X125488000Y-41184000I-2500000J0D01*
G01*
%TO.C,D51*%
X203993000Y-65334000D02*
X207083000Y-65334000D01*
X205538462Y-59784000D02*
G75*
G03*
X203993170Y-65334000I-462J-2990000D01*
G01*
X207082830Y-65334000D02*
G75*
G03*
X205537538Y-59784000I-1544830J2560000D01*
G01*
X208038000Y-62774000D02*
G75*
G03*
X208038000Y-62774000I-2500000J0D01*
G01*
%TO.C,D61*%
X129063000Y-28504000D02*
X132153000Y-28504000D01*
X130608462Y-22954000D02*
G75*
G03*
X129063170Y-28504000I-462J-2990000D01*
G01*
X132152830Y-28504000D02*
G75*
G03*
X130607538Y-22954000I-1544830J2560000D01*
G01*
X133108000Y-25944000D02*
G75*
G03*
X133108000Y-25944000I-2500000J0D01*
G01*
%TO.C,D45*%
X72168000Y-54879000D02*
X72168000Y-57969000D01*
X72168000Y-57968830D02*
G75*
G03*
X77718000Y-56423538I2560000J1544830D01*
G01*
X77718000Y-56424462D02*
G75*
G03*
X72168000Y-54879170I-2990000J462D01*
G01*
X77228000Y-56424000D02*
G75*
G03*
X77228000Y-56424000I-2500000J0D01*
G01*
%TO.C,D29*%
X103663000Y-102164000D02*
X106753000Y-102164000D01*
X106752830Y-102164000D02*
G75*
G03*
X105207538Y-96614000I-1544830J2560000D01*
G01*
X105208462Y-96614000D02*
G75*
G03*
X103663170Y-102164000I-462J-2990000D01*
G01*
X107708000Y-99604000D02*
G75*
G03*
X107708000Y-99604000I-2500000J0D01*
G01*
%TO.C,D90*%
X228378000Y-82819000D02*
X228378000Y-85909000D01*
X233928000Y-84364462D02*
G75*
G03*
X228378000Y-82819170I-2990000J462D01*
G01*
X228378000Y-85908830D02*
G75*
G03*
X233928000Y-84363538I2560000J1544830D01*
G01*
X233438000Y-84364000D02*
G75*
G03*
X233438000Y-84364000I-2500000J0D01*
G01*
%TO.C,D96*%
X120428000Y-67579000D02*
X120428000Y-70669000D01*
X125978000Y-69124462D02*
G75*
G03*
X120428000Y-67579170I-2990000J462D01*
G01*
X120428000Y-70668830D02*
G75*
G03*
X125978000Y-69123538I2560000J1544830D01*
G01*
X125488000Y-69124000D02*
G75*
G03*
X125488000Y-69124000I-2500000J0D01*
G01*
%TO.C,D40*%
X72168000Y-67579000D02*
X72168000Y-70669000D01*
X77718000Y-69124462D02*
G75*
G03*
X72168000Y-67579170I-2990000J462D01*
G01*
X72168000Y-70668830D02*
G75*
G03*
X77718000Y-69123538I2560000J1544830D01*
G01*
X77228000Y-69124000D02*
G75*
G03*
X77228000Y-69124000I-2500000J0D01*
G01*
%TO.C,Q4*%
X45387500Y-85888000D02*
X44737500Y-85888000D01*
X45387500Y-85888000D02*
X46037500Y-85888000D01*
X45387500Y-82768000D02*
X46037500Y-82768000D01*
X45387500Y-82768000D02*
X43712500Y-82768000D01*
%TO.C,D83*%
X244633000Y-102164000D02*
X247723000Y-102164000D01*
X247722830Y-102164000D02*
G75*
G03*
X246177538Y-96614000I-1544830J2560000D01*
G01*
X246178462Y-96614000D02*
G75*
G03*
X244633170Y-102164000I-462J-2990000D01*
G01*
X248678000Y-99604000D02*
G75*
G03*
X248678000Y-99604000I-2500000J0D01*
G01*
%TO.C,D19*%
X218218000Y-82819000D02*
X218218000Y-85909000D01*
X223768000Y-84364462D02*
G75*
G03*
X218218000Y-82819170I-2990000J462D01*
G01*
X218218000Y-85908830D02*
G75*
G03*
X223768000Y-84363538I2560000J1544830D01*
G01*
X223278000Y-84364000D02*
G75*
G03*
X223278000Y-84364000I-2500000J0D01*
G01*
%TO.C,D74*%
X266478000Y-75199000D02*
X266478000Y-78289000D01*
X266478000Y-78288830D02*
G75*
G03*
X272028000Y-76743538I2560000J1544830D01*
G01*
X272028000Y-76744462D02*
G75*
G03*
X266478000Y-75199170I-2990000J462D01*
G01*
X271538000Y-76744000D02*
G75*
G03*
X271538000Y-76744000I-2500000J0D01*
G01*
%TO.C,D26*%
X203993000Y-102164000D02*
X207083000Y-102164000D01*
X205538462Y-96614000D02*
G75*
G03*
X203993170Y-102164000I-462J-2990000D01*
G01*
X207082830Y-102164000D02*
G75*
G03*
X205537538Y-96614000I-1544830J2560000D01*
G01*
X208038000Y-99604000D02*
G75*
G03*
X208038000Y-99604000I-2500000J0D01*
G01*
%TO.C,Q1*%
X32730000Y-84328000D02*
X32730000Y-83678000D01*
X35850000Y-84328000D02*
X35850000Y-82653000D01*
X32730000Y-84328000D02*
X32730000Y-84978000D01*
X35850000Y-84328000D02*
X35850000Y-84978000D01*
%TO.C,D67*%
X266478000Y-47259000D02*
X266478000Y-50349000D01*
X266478000Y-50348830D02*
G75*
G03*
X272028000Y-48803538I2560000J1544830D01*
G01*
X272028000Y-48804462D02*
G75*
G03*
X266478000Y-47259170I-2990000J462D01*
G01*
X271538000Y-48804000D02*
G75*
G03*
X271538000Y-48804000I-2500000J0D01*
G01*
%TO.C,Q8*%
X60198000Y-52034000D02*
X60848000Y-52034000D01*
X60198000Y-52034000D02*
X58523000Y-52034000D01*
X60198000Y-55154000D02*
X60848000Y-55154000D01*
X60198000Y-55154000D02*
X59548000Y-55154000D01*
%TO.C,D70*%
X158528000Y-39639000D02*
X158528000Y-42729000D01*
X158528000Y-42728830D02*
G75*
G03*
X164078000Y-41183538I2560000J1544830D01*
G01*
X164078000Y-41184462D02*
G75*
G03*
X158528000Y-39639170I-2990000J462D01*
G01*
X163588000Y-41184000D02*
G75*
G03*
X163588000Y-41184000I-2500000J0D01*
G01*
%TO.C,JP1*%
X52382000Y-25602000D02*
X49582000Y-25602000D01*
X52382000Y-23602000D02*
X52382000Y-25602000D01*
X49582000Y-23602000D02*
X52382000Y-23602000D01*
X49582000Y-25602000D02*
X49582000Y-23602000D01*
%TO.C,D39*%
X72168000Y-75199000D02*
X72168000Y-78289000D01*
X77718000Y-76744462D02*
G75*
G03*
X72168000Y-75199170I-2990000J462D01*
G01*
X72168000Y-78288830D02*
G75*
G03*
X77718000Y-76743538I2560000J1544830D01*
G01*
X77228000Y-76744000D02*
G75*
G03*
X77228000Y-76744000I-2500000J0D01*
G01*
%TO.C,Q3*%
X49276000Y-85888000D02*
X48626000Y-85888000D01*
X49276000Y-82768000D02*
X49926000Y-82768000D01*
X49276000Y-82768000D02*
X47601000Y-82768000D01*
X49276000Y-85888000D02*
X49926000Y-85888000D01*
%TO.C,D56*%
X103663000Y-65334000D02*
X106753000Y-65334000D01*
X105208462Y-59784000D02*
G75*
G03*
X103663170Y-65334000I-462J-2990000D01*
G01*
X106752830Y-65334000D02*
G75*
G03*
X105207538Y-59784000I-1544830J2560000D01*
G01*
X107708000Y-62774000D02*
G75*
G03*
X107708000Y-62774000I-2500000J0D01*
G01*
%TO.C,R1*%
X31397000Y-83237737D02*
X31397000Y-81790263D01*
X28687000Y-83237737D02*
X28687000Y-81790263D01*
%TO.C,D68*%
X266478000Y-54879000D02*
X266478000Y-57969000D01*
X266478000Y-57968830D02*
G75*
G03*
X272028000Y-56423538I2560000J1544830D01*
G01*
X272028000Y-56424462D02*
G75*
G03*
X266478000Y-54879170I-2990000J462D01*
G01*
X271538000Y-56424000D02*
G75*
G03*
X271538000Y-56424000I-2500000J0D01*
G01*
%TO.C,D64*%
X151923000Y-28504000D02*
X155013000Y-28504000D01*
X153468462Y-22954000D02*
G75*
G03*
X151923170Y-28504000I-462J-2990000D01*
G01*
X155012830Y-28504000D02*
G75*
G03*
X153467538Y-22954000I-1544830J2560000D01*
G01*
X155968000Y-25944000D02*
G75*
G03*
X155968000Y-25944000I-2500000J0D01*
G01*
%TO.C,D109*%
X129063000Y-65334000D02*
X132153000Y-65334000D01*
X132152830Y-65334000D02*
G75*
G03*
X130607538Y-59784000I-1544830J2560000D01*
G01*
X130608462Y-59784000D02*
G75*
G03*
X129063170Y-65334000I-462J-2990000D01*
G01*
X133108000Y-62774000D02*
G75*
G03*
X133108000Y-62774000I-2500000J0D01*
G01*
%TO.C,D69*%
X158528000Y-32019000D02*
X158528000Y-35109000D01*
X158528000Y-35108830D02*
G75*
G03*
X164078000Y-33563538I2560000J1544830D01*
G01*
X164078000Y-33564462D02*
G75*
G03*
X158528000Y-32019170I-2990000J462D01*
G01*
X163588000Y-33564000D02*
G75*
G03*
X163588000Y-33564000I-2500000J0D01*
G01*
%TO.C,D73*%
X266478000Y-67579000D02*
X266478000Y-70669000D01*
X272028000Y-69124462D02*
G75*
G03*
X266478000Y-67579170I-2990000J462D01*
G01*
X266478000Y-70668830D02*
G75*
G03*
X272028000Y-69123538I2560000J1544830D01*
G01*
X271538000Y-69124000D02*
G75*
G03*
X271538000Y-69124000I-2500000J0D01*
G01*
%TO.C,D89*%
X228378000Y-90439000D02*
X228378000Y-93529000D01*
X233928000Y-91984462D02*
G75*
G03*
X228378000Y-90439170I-2990000J462D01*
G01*
X228378000Y-93528830D02*
G75*
G03*
X233928000Y-91983538I2560000J1544830D01*
G01*
X233438000Y-91984000D02*
G75*
G03*
X233438000Y-91984000I-2500000J0D01*
G01*
%TO.C,C2*%
X35140000Y-21070000D02*
G75*
G03*
X35140000Y-21070000I-2120000J0D01*
G01*
X33860000Y-20910000D02*
X35094000Y-20910000D01*
X33860000Y-20470000D02*
X35014000Y-20470000D01*
X33860000Y-20950000D02*
X35097000Y-20950000D01*
X30941000Y-20990000D02*
X32180000Y-20990000D01*
X31096000Y-20269000D02*
X32180000Y-20269000D01*
X33860000Y-20830000D02*
X35087000Y-20830000D01*
X33860000Y-19869000D02*
X34728000Y-19869000D01*
X33860000Y-19989000D02*
X34805000Y-19989000D01*
X33860000Y-20510000D02*
X35025000Y-20510000D01*
X31625000Y-23139801D02*
X32025000Y-23139801D01*
X33860000Y-20630000D02*
X35054000Y-20630000D01*
X31038000Y-20430000D02*
X32180000Y-20430000D01*
X30949000Y-20870000D02*
X32180000Y-20870000D01*
X32483000Y-19029000D02*
X33557000Y-19029000D01*
X33860000Y-20750000D02*
X35076000Y-20750000D01*
X32007000Y-19229000D02*
X34033000Y-19229000D01*
X31026000Y-20470000D02*
X32180000Y-20470000D01*
X33860000Y-19709000D02*
X34607000Y-19709000D01*
X30953000Y-20830000D02*
X32180000Y-20830000D01*
X31285000Y-19909000D02*
X32180000Y-19909000D01*
X33860000Y-19949000D02*
X34780000Y-19949000D01*
X31370000Y-19789000D02*
X32180000Y-19789000D01*
X31582000Y-19549000D02*
X32180000Y-19549000D01*
X33860000Y-20670000D02*
X35062000Y-20670000D01*
X31235000Y-19989000D02*
X32180000Y-19989000D01*
X33860000Y-20109000D02*
X34871000Y-20109000D01*
X31825000Y-23339801D02*
X31825000Y-22939801D01*
X31169000Y-20109000D02*
X32180000Y-20109000D01*
X33860000Y-19789000D02*
X34670000Y-19789000D01*
X30986000Y-20630000D02*
X32180000Y-20630000D01*
X30964000Y-20750000D02*
X32180000Y-20750000D01*
X31940000Y-19269000D02*
X34100000Y-19269000D01*
X33860000Y-20990000D02*
X35099000Y-20990000D01*
X31052000Y-20390000D02*
X32180000Y-20390000D01*
X31004000Y-20550000D02*
X32180000Y-20550000D01*
X31669000Y-19469000D02*
X34371000Y-19469000D01*
X31113000Y-20229000D02*
X32180000Y-20229000D01*
X33860000Y-20790000D02*
X35082000Y-20790000D01*
X30958000Y-20790000D02*
X32180000Y-20790000D01*
X31504000Y-19629000D02*
X32180000Y-19629000D01*
X30943000Y-20950000D02*
X32180000Y-20950000D01*
X31015000Y-20510000D02*
X32180000Y-20510000D01*
X32080000Y-19189000D02*
X33960000Y-19189000D01*
X33860000Y-20189000D02*
X34909000Y-20189000D01*
X30970000Y-20710000D02*
X32180000Y-20710000D01*
X32650000Y-18989000D02*
X33390000Y-18989000D01*
X33860000Y-19509000D02*
X34416000Y-19509000D01*
X31190000Y-20069000D02*
X32180000Y-20069000D01*
X33860000Y-20269000D02*
X34944000Y-20269000D01*
X33860000Y-20029000D02*
X34828000Y-20029000D01*
X31212000Y-20029000D02*
X32180000Y-20029000D01*
X30946000Y-20910000D02*
X32180000Y-20910000D01*
X30995000Y-20590000D02*
X32180000Y-20590000D01*
X33860000Y-20590000D02*
X35045000Y-20590000D01*
X33860000Y-19829000D02*
X34700000Y-19829000D01*
X33860000Y-20069000D02*
X34850000Y-20069000D01*
X33860000Y-19669000D02*
X34572000Y-19669000D01*
X33860000Y-20870000D02*
X35091000Y-20870000D01*
X33860000Y-20430000D02*
X35002000Y-20430000D01*
X33860000Y-20710000D02*
X35070000Y-20710000D01*
X33860000Y-19909000D02*
X34755000Y-19909000D01*
X33860000Y-20229000D02*
X34927000Y-20229000D01*
X32252000Y-19109000D02*
X33788000Y-19109000D01*
X30978000Y-20670000D02*
X32180000Y-20670000D01*
X32161000Y-19149000D02*
X33879000Y-19149000D01*
X31401000Y-19749000D02*
X32180000Y-19749000D01*
X31468000Y-19669000D02*
X32180000Y-19669000D01*
X31542000Y-19589000D02*
X32180000Y-19589000D01*
X31766000Y-19389000D02*
X34274000Y-19389000D01*
X31716000Y-19429000D02*
X34324000Y-19429000D01*
X31312000Y-19869000D02*
X32180000Y-19869000D01*
X33860000Y-20349000D02*
X34974000Y-20349000D01*
X31624000Y-19509000D02*
X32180000Y-19509000D01*
X33860000Y-19629000D02*
X34536000Y-19629000D01*
X33860000Y-20309000D02*
X34960000Y-20309000D01*
X33860000Y-20550000D02*
X35036000Y-20550000D01*
X33860000Y-19549000D02*
X34458000Y-19549000D01*
X33860000Y-21070000D02*
X35100000Y-21070000D01*
X32356000Y-19069000D02*
X33684000Y-19069000D01*
X30940000Y-21070000D02*
X32180000Y-21070000D01*
X30940000Y-21030000D02*
X32180000Y-21030000D01*
X31080000Y-20309000D02*
X32180000Y-20309000D01*
X31878000Y-19309000D02*
X34162000Y-19309000D01*
X33860000Y-19749000D02*
X34639000Y-19749000D01*
X33860000Y-19589000D02*
X34498000Y-19589000D01*
X31820000Y-19349000D02*
X34220000Y-19349000D01*
X31131000Y-20189000D02*
X32180000Y-20189000D01*
X33860000Y-20149000D02*
X34890000Y-20149000D01*
X33860000Y-20390000D02*
X34988000Y-20390000D01*
X31066000Y-20349000D02*
X32180000Y-20349000D01*
X31260000Y-19949000D02*
X32180000Y-19949000D01*
X31340000Y-19829000D02*
X32180000Y-19829000D01*
X31150000Y-20149000D02*
X32180000Y-20149000D01*
X31433000Y-19709000D02*
X32180000Y-19709000D01*
X33860000Y-21030000D02*
X35100000Y-21030000D01*
%TO.C,D9*%
X80803000Y-28504000D02*
X83893000Y-28504000D01*
X83892830Y-28504000D02*
G75*
G03*
X82347538Y-22954000I-1544830J2560000D01*
G01*
X82348462Y-22954000D02*
G75*
G03*
X80803170Y-28504000I-462J-2990000D01*
G01*
X84848000Y-25944000D02*
G75*
G03*
X84848000Y-25944000I-2500000J0D01*
G01*
%TO.C,SW2*%
X191878000Y-112824000D02*
X191878000Y-114324000D01*
X198878000Y-114324000D02*
X198878000Y-112824000D01*
X197628000Y-110324000D02*
X193128000Y-110324000D01*
X193128000Y-116824000D02*
X197628000Y-116824000D01*
%TO.C,D4*%
X211613000Y-28504000D02*
X214703000Y-28504000D01*
X213158462Y-22954000D02*
G75*
G03*
X211613170Y-28504000I-462J-2990000D01*
G01*
X214702830Y-28504000D02*
G75*
G03*
X213157538Y-22954000I-1544830J2560000D01*
G01*
X215658000Y-25944000D02*
G75*
G03*
X215658000Y-25944000I-2500000J0D01*
G01*
%TO.C,D88*%
X129063000Y-102164000D02*
X132153000Y-102164000D01*
X132152830Y-102164000D02*
G75*
G03*
X130607538Y-96614000I-1544830J2560000D01*
G01*
X130608462Y-96614000D02*
G75*
G03*
X129063170Y-102164000I-462J-2990000D01*
G01*
X133108000Y-99604000D02*
G75*
G03*
X133108000Y-99604000I-2500000J0D01*
G01*
%TO.C,D28*%
X188753000Y-102164000D02*
X191843000Y-102164000D01*
X191842830Y-102164000D02*
G75*
G03*
X190297538Y-96614000I-1544830J2560000D01*
G01*
X190298462Y-96614000D02*
G75*
G03*
X188753170Y-102164000I-462J-2990000D01*
G01*
X192798000Y-99604000D02*
G75*
G03*
X192798000Y-99604000I-2500000J0D01*
G01*
%TO.C,D57*%
X237013000Y-28504000D02*
X240103000Y-28504000D01*
X238558462Y-22954000D02*
G75*
G03*
X237013170Y-28504000I-462J-2990000D01*
G01*
X240102830Y-28504000D02*
G75*
G03*
X238557538Y-22954000I-1544830J2560000D01*
G01*
X241058000Y-25944000D02*
G75*
G03*
X241058000Y-25944000I-2500000J0D01*
G01*
%TO.C,U1*%
X31156000Y-54370000D02*
X31156000Y-54770000D01*
X52156000Y-46770000D02*
X52156000Y-47170000D01*
X52156000Y-74770000D02*
X52156000Y-75170000D01*
X52156000Y-26570000D02*
X52156000Y-26870000D01*
X52156000Y-28970000D02*
X52156000Y-29370000D01*
X31156000Y-59470000D02*
X31156000Y-59870000D01*
X31156000Y-44270000D02*
X31156000Y-44670000D01*
X31156000Y-64570000D02*
X31156000Y-64970000D01*
X31156000Y-29237000D02*
X34163000Y-29237000D01*
X31156000Y-67170000D02*
X31156000Y-67570000D01*
X31156000Y-26570000D02*
X52156000Y-26570000D01*
X31156000Y-49370000D02*
X31156000Y-49770000D01*
X52156000Y-41670000D02*
X52156000Y-42070000D01*
X31156000Y-51870000D02*
X31156000Y-52270000D01*
X31156000Y-72170000D02*
X31156000Y-72570000D01*
X52156000Y-67170000D02*
X52156000Y-67570000D01*
X34163000Y-29237000D02*
X34163000Y-26570000D01*
X40156000Y-77570000D02*
X40556000Y-77570000D01*
X31156000Y-41670000D02*
X31156000Y-42070000D01*
X52156000Y-51870000D02*
X52156000Y-52270000D01*
X52156000Y-77570000D02*
X45356000Y-77570000D01*
X31156000Y-28970000D02*
X31156000Y-29370000D01*
X31156000Y-34070000D02*
X31156000Y-34470000D01*
X52156000Y-72170000D02*
X52156000Y-72570000D01*
X52156000Y-39170000D02*
X52156000Y-39570000D01*
X52156000Y-36670000D02*
X52156000Y-37070000D01*
X52156000Y-49370000D02*
X52156000Y-49770000D01*
X31156000Y-36670000D02*
X31156000Y-37070000D01*
X52156000Y-31570000D02*
X52156000Y-31970000D01*
X52156000Y-69670000D02*
X52156000Y-70070000D01*
X31156000Y-56970000D02*
X31156000Y-57370000D01*
X31156000Y-74770000D02*
X31156000Y-75170000D01*
X52156000Y-44270000D02*
X52156000Y-44670000D01*
X31156000Y-46770000D02*
X31156000Y-47170000D01*
X31156000Y-62070000D02*
X31156000Y-62470000D01*
X31156000Y-26570000D02*
X31156000Y-26870000D01*
X31156000Y-39170000D02*
X31156000Y-39570000D01*
X42756000Y-77570000D02*
X43156000Y-77570000D01*
X52156000Y-34070000D02*
X52156000Y-34470000D01*
X31156000Y-31570000D02*
X31156000Y-31970000D01*
X52156000Y-64570000D02*
X52156000Y-64970000D01*
X37956000Y-77570000D02*
X31156000Y-77570000D01*
X52156000Y-56970000D02*
X52156000Y-57370000D01*
X52156000Y-62070000D02*
X52156000Y-62470000D01*
X52156000Y-54370000D02*
X52156000Y-54770000D01*
X31156000Y-69670000D02*
X31156000Y-70070000D01*
X52156000Y-59470000D02*
X52156000Y-59870000D01*
%TO.C,D65*%
X266478000Y-32019000D02*
X266478000Y-35109000D01*
X266478000Y-35108830D02*
G75*
G03*
X272028000Y-33563538I2560000J1544830D01*
G01*
X272028000Y-33564462D02*
G75*
G03*
X266478000Y-32019170I-2990000J462D01*
G01*
X271538000Y-33564000D02*
G75*
G03*
X271538000Y-33564000I-2500000J0D01*
G01*
%TO.C,D24*%
X110268000Y-90439000D02*
X110268000Y-93529000D01*
X115818000Y-91984462D02*
G75*
G03*
X110268000Y-90439170I-2990000J462D01*
G01*
X110268000Y-93528830D02*
G75*
G03*
X115818000Y-91983538I2560000J1544830D01*
G01*
X115328000Y-91984000D02*
G75*
G03*
X115328000Y-91984000I-2500000J0D01*
G01*
%TO.C,D20*%
X218218000Y-90439000D02*
X218218000Y-93529000D01*
X218218000Y-93528830D02*
G75*
G03*
X223768000Y-91983538I2560000J1544830D01*
G01*
X223768000Y-91984462D02*
G75*
G03*
X218218000Y-90439170I-2990000J462D01*
G01*
X223278000Y-91984000D02*
G75*
G03*
X223278000Y-91984000I-2500000J0D01*
G01*
%TO.C,D37*%
X72168000Y-90439000D02*
X72168000Y-93529000D01*
X77718000Y-91984462D02*
G75*
G03*
X72168000Y-90439170I-2990000J462D01*
G01*
X72168000Y-93528830D02*
G75*
G03*
X77718000Y-91983538I2560000J1544830D01*
G01*
X77228000Y-91984000D02*
G75*
G03*
X77228000Y-91984000I-2500000J0D01*
G01*
%TO.C,D54*%
X88423000Y-65334000D02*
X91513000Y-65334000D01*
X91512830Y-65334000D02*
G75*
G03*
X89967538Y-59784000I-1544830J2560000D01*
G01*
X89968462Y-59784000D02*
G75*
G03*
X88423170Y-65334000I-462J-2990000D01*
G01*
X92468000Y-62774000D02*
G75*
G03*
X92468000Y-62774000I-2500000J0D01*
G01*
%TO.C,D80*%
X158528000Y-90439000D02*
X158528000Y-93529000D01*
X158528000Y-93528830D02*
G75*
G03*
X164078000Y-91983538I2560000J1544830D01*
G01*
X164078000Y-91984462D02*
G75*
G03*
X158528000Y-90439170I-2990000J462D01*
G01*
X163588000Y-91984000D02*
G75*
G03*
X163588000Y-91984000I-2500000J0D01*
G01*
%TO.C,D47*%
X72168000Y-39639000D02*
X72168000Y-42729000D01*
X72168000Y-42728830D02*
G75*
G03*
X77718000Y-41183538I2560000J1544830D01*
G01*
X77718000Y-41184462D02*
G75*
G03*
X72168000Y-39639170I-2990000J462D01*
G01*
X77228000Y-41184000D02*
G75*
G03*
X77228000Y-41184000I-2500000J0D01*
G01*
%TO.C,D34*%
X180118000Y-82819000D02*
X180118000Y-85909000D01*
X180118000Y-85908830D02*
G75*
G03*
X185668000Y-84363538I2560000J1544830D01*
G01*
X185668000Y-84364462D02*
G75*
G03*
X180118000Y-82819170I-2990000J462D01*
G01*
X185178000Y-84364000D02*
G75*
G03*
X185178000Y-84364000I-2500000J0D01*
G01*
%TO.C,D102*%
X120428000Y-47259000D02*
X120428000Y-50349000D01*
X125978000Y-48804462D02*
G75*
G03*
X120428000Y-47259170I-2990000J462D01*
G01*
X120428000Y-50348830D02*
G75*
G03*
X125978000Y-48803538I2560000J1544830D01*
G01*
X125488000Y-48804000D02*
G75*
G03*
X125488000Y-48804000I-2500000J0D01*
G01*
%TO.C,D35*%
X180118000Y-75199000D02*
X180118000Y-78289000D01*
X180118000Y-78288830D02*
G75*
G03*
X185668000Y-76743538I2560000J1544830D01*
G01*
X185668000Y-76744462D02*
G75*
G03*
X180118000Y-75199170I-2990000J462D01*
G01*
X185178000Y-76744000D02*
G75*
G03*
X185178000Y-76744000I-2500000J0D01*
G01*
%TO.C,D112*%
X151923000Y-65334000D02*
X155013000Y-65334000D01*
X153468462Y-59784000D02*
G75*
G03*
X151923170Y-65334000I-462J-2990000D01*
G01*
X155012830Y-65334000D02*
G75*
G03*
X153467538Y-59784000I-1544830J2560000D01*
G01*
X155968000Y-62774000D02*
G75*
G03*
X155968000Y-62774000I-2500000J0D01*
G01*
%TO.C,D71*%
X158528000Y-47259000D02*
X158528000Y-50349000D01*
X164078000Y-48804462D02*
G75*
G03*
X158528000Y-47259170I-2990000J462D01*
G01*
X158528000Y-50348830D02*
G75*
G03*
X164078000Y-48803538I2560000J1544830D01*
G01*
X163588000Y-48804000D02*
G75*
G03*
X163588000Y-48804000I-2500000J0D01*
G01*
%TO.C,D49*%
X188753000Y-65334000D02*
X191843000Y-65334000D01*
X191842830Y-65334000D02*
G75*
G03*
X190297538Y-59784000I-1544830J2560000D01*
G01*
X190298462Y-59784000D02*
G75*
G03*
X188753170Y-65334000I-462J-2990000D01*
G01*
X192798000Y-62774000D02*
G75*
G03*
X192798000Y-62774000I-2500000J0D01*
G01*
%TO.C,D17*%
X218218000Y-67579000D02*
X218218000Y-70669000D01*
X218218000Y-70668830D02*
G75*
G03*
X223768000Y-69123538I2560000J1544830D01*
G01*
X223768000Y-69124462D02*
G75*
G03*
X218218000Y-67579170I-2990000J462D01*
G01*
X223278000Y-69124000D02*
G75*
G03*
X223278000Y-69124000I-2500000J0D01*
G01*
%TO.C,D106*%
X244633000Y-65334000D02*
X247723000Y-65334000D01*
X246178462Y-59784000D02*
G75*
G03*
X244633170Y-65334000I-462J-2990000D01*
G01*
X247722830Y-65334000D02*
G75*
G03*
X246177538Y-59784000I-1544830J2560000D01*
G01*
X248678000Y-62774000D02*
G75*
G03*
X248678000Y-62774000I-2500000J0D01*
G01*
%TO.C,Q6*%
X59944000Y-44994000D02*
X59294000Y-44994000D01*
X59944000Y-41874000D02*
X58269000Y-41874000D01*
X59944000Y-44994000D02*
X60594000Y-44994000D01*
X59944000Y-41874000D02*
X60594000Y-41874000D01*
%TO.C,D32*%
X80803000Y-102164000D02*
X83893000Y-102164000D01*
X83892830Y-102164000D02*
G75*
G03*
X82347538Y-96614000I-1544830J2560000D01*
G01*
X82348462Y-96614000D02*
G75*
G03*
X80803170Y-102164000I-462J-2990000D01*
G01*
X84848000Y-99604000D02*
G75*
G03*
X84848000Y-99604000I-2500000J0D01*
G01*
%TO.C,D100*%
X228378000Y-32019000D02*
X228378000Y-35109000D01*
X228378000Y-35108830D02*
G75*
G03*
X233928000Y-33563538I2560000J1544830D01*
G01*
X233928000Y-33564462D02*
G75*
G03*
X228378000Y-32019170I-2990000J462D01*
G01*
X233438000Y-33564000D02*
G75*
G03*
X233438000Y-33564000I-2500000J0D01*
G01*
%TO.C,J2*%
X13140000Y-31850000D02*
X13140000Y-24030000D01*
X22460000Y-25830000D02*
X22890000Y-25830000D01*
X13140000Y-31850000D02*
X15090000Y-31850000D01*
X13140000Y-24030000D02*
X15090000Y-24030000D01*
X22460000Y-24750000D02*
X22460000Y-25830000D01*
X17310000Y-24030000D02*
X20540000Y-24030000D01*
X22460000Y-30050000D02*
X22460000Y-31130000D01*
X17310000Y-31850000D02*
X20540000Y-31850000D01*
%TO.C,D55*%
X96043000Y-65334000D02*
X99133000Y-65334000D01*
X99132830Y-65334000D02*
G75*
G03*
X97587538Y-59784000I-1544830J2560000D01*
G01*
X97588462Y-59784000D02*
G75*
G03*
X96043170Y-65334000I-462J-2990000D01*
G01*
X100088000Y-62774000D02*
G75*
G03*
X100088000Y-62774000I-2500000J0D01*
G01*
%TO.C,D44*%
X180118000Y-32019000D02*
X180118000Y-35109000D01*
X180118000Y-35108830D02*
G75*
G03*
X185668000Y-33563538I2560000J1544830D01*
G01*
X185668000Y-33564462D02*
G75*
G03*
X180118000Y-32019170I-2990000J462D01*
G01*
X185178000Y-33564000D02*
G75*
G03*
X185178000Y-33564000I-2500000J0D01*
G01*
%TO.C,D15*%
X110268000Y-47259000D02*
X110268000Y-50349000D01*
X115818000Y-48804462D02*
G75*
G03*
X110268000Y-47259170I-2990000J462D01*
G01*
X110268000Y-50348830D02*
G75*
G03*
X115818000Y-48803538I2560000J1544830D01*
G01*
X115328000Y-48804000D02*
G75*
G03*
X115328000Y-48804000I-2500000J0D01*
G01*
%TO.C,D99*%
X228378000Y-39639000D02*
X228378000Y-42729000D01*
X228378000Y-42728830D02*
G75*
G03*
X233928000Y-41183538I2560000J1544830D01*
G01*
X233928000Y-41184462D02*
G75*
G03*
X228378000Y-39639170I-2990000J462D01*
G01*
X233438000Y-41184000D02*
G75*
G03*
X233438000Y-41184000I-2500000J0D01*
G01*
%TO.C,D108*%
X259873000Y-65334000D02*
X262963000Y-65334000D01*
X262962830Y-65334000D02*
G75*
G03*
X261417538Y-59784000I-1544830J2560000D01*
G01*
X261418462Y-59784000D02*
G75*
G03*
X259873170Y-65334000I-462J-2990000D01*
G01*
X263918000Y-62774000D02*
G75*
G03*
X263918000Y-62774000I-2500000J0D01*
G01*
%TO.C,D66*%
X266478000Y-39639000D02*
X266478000Y-42729000D01*
X266478000Y-42728830D02*
G75*
G03*
X272028000Y-41183538I2560000J1544830D01*
G01*
X272028000Y-41184462D02*
G75*
G03*
X266478000Y-39639170I-2990000J462D01*
G01*
X271538000Y-41184000D02*
G75*
G03*
X271538000Y-41184000I-2500000J0D01*
G01*
%TO.C,U2*%
X55480000Y-19630000D02*
X55480000Y-15870000D01*
X55480000Y-15870000D02*
X54220000Y-15870000D01*
X48660000Y-15870000D02*
X49920000Y-15870000D01*
X48660000Y-21880000D02*
X48660000Y-15870000D01*
%TO.C,D58*%
X244633000Y-28504000D02*
X247723000Y-28504000D01*
X247722830Y-28504000D02*
G75*
G03*
X246177538Y-22954000I-1544830J2560000D01*
G01*
X246178462Y-22954000D02*
G75*
G03*
X244633170Y-28504000I-462J-2990000D01*
G01*
X248678000Y-25944000D02*
G75*
G03*
X248678000Y-25944000I-2500000J0D01*
G01*
%TO.C,D110*%
X136683000Y-65334000D02*
X139773000Y-65334000D01*
X139772830Y-65334000D02*
G75*
G03*
X138227538Y-59784000I-1544830J2560000D01*
G01*
X138228462Y-59784000D02*
G75*
G03*
X136683170Y-65334000I-462J-2990000D01*
G01*
X140728000Y-62774000D02*
G75*
G03*
X140728000Y-62774000I-2500000J0D01*
G01*
%TO.C,D23*%
X110268000Y-82819000D02*
X110268000Y-85909000D01*
X115818000Y-84364462D02*
G75*
G03*
X110268000Y-82819170I-2990000J462D01*
G01*
X110268000Y-85908830D02*
G75*
G03*
X115818000Y-84363538I2560000J1544830D01*
G01*
X115328000Y-84364000D02*
G75*
G03*
X115328000Y-84364000I-2500000J0D01*
G01*
%TO.C,D33*%
X180118000Y-90439000D02*
X180118000Y-93529000D01*
X185668000Y-91984462D02*
G75*
G03*
X180118000Y-90439170I-2990000J462D01*
G01*
X180118000Y-93528830D02*
G75*
G03*
X185668000Y-91983538I2560000J1544830D01*
G01*
X185178000Y-91984000D02*
G75*
G03*
X185178000Y-91984000I-2500000J0D01*
G01*
%TO.C,D92*%
X228378000Y-67579000D02*
X228378000Y-70669000D01*
X233928000Y-69124462D02*
G75*
G03*
X228378000Y-67579170I-2990000J462D01*
G01*
X228378000Y-70668830D02*
G75*
G03*
X233928000Y-69123538I2560000J1544830D01*
G01*
X233438000Y-69124000D02*
G75*
G03*
X233438000Y-69124000I-2500000J0D01*
G01*
%TO.C,D7*%
X218218000Y-47259000D02*
X218218000Y-50349000D01*
X218218000Y-50348830D02*
G75*
G03*
X223768000Y-48803538I2560000J1544830D01*
G01*
X223768000Y-48804462D02*
G75*
G03*
X218218000Y-47259170I-2990000J462D01*
G01*
X223278000Y-48804000D02*
G75*
G03*
X223278000Y-48804000I-2500000J0D01*
G01*
%TO.C,D82*%
X252253000Y-102164000D02*
X255343000Y-102164000D01*
X253798462Y-96614000D02*
G75*
G03*
X252253170Y-102164000I-462J-2990000D01*
G01*
X255342830Y-102164000D02*
G75*
G03*
X253797538Y-96614000I-1544830J2560000D01*
G01*
X256298000Y-99604000D02*
G75*
G03*
X256298000Y-99604000I-2500000J0D01*
G01*
%TO.C,D79*%
X158528000Y-82819000D02*
X158528000Y-85909000D01*
X158528000Y-85908830D02*
G75*
G03*
X164078000Y-84363538I2560000J1544830D01*
G01*
X164078000Y-84364462D02*
G75*
G03*
X158528000Y-82819170I-2990000J462D01*
G01*
X163588000Y-84364000D02*
G75*
G03*
X163588000Y-84364000I-2500000J0D01*
G01*
%TO.C,D30*%
X96043000Y-102164000D02*
X99133000Y-102164000D01*
X99132830Y-102164000D02*
G75*
G03*
X97587538Y-96614000I-1544830J2560000D01*
G01*
X97588462Y-96614000D02*
G75*
G03*
X96043170Y-102164000I-462J-2990000D01*
G01*
X100088000Y-99604000D02*
G75*
G03*
X100088000Y-99604000I-2500000J0D01*
G01*
%TO.C,D95*%
X120428000Y-75199000D02*
X120428000Y-78289000D01*
X120428000Y-78288830D02*
G75*
G03*
X125978000Y-76743538I2560000J1544830D01*
G01*
X125978000Y-76744462D02*
G75*
G03*
X120428000Y-75199170I-2990000J462D01*
G01*
X125488000Y-76744000D02*
G75*
G03*
X125488000Y-76744000I-2500000J0D01*
G01*
%TO.C,D16*%
X110268000Y-54879000D02*
X110268000Y-57969000D01*
X110268000Y-57968830D02*
G75*
G03*
X115818000Y-56423538I2560000J1544830D01*
G01*
X115818000Y-56424462D02*
G75*
G03*
X110268000Y-54879170I-2990000J462D01*
G01*
X115328000Y-56424000D02*
G75*
G03*
X115328000Y-56424000I-2500000J0D01*
G01*
%TO.C,D13*%
X110268000Y-32019000D02*
X110268000Y-35109000D01*
X110268000Y-35108830D02*
G75*
G03*
X115818000Y-33563538I2560000J1544830D01*
G01*
X115818000Y-33564462D02*
G75*
G03*
X110268000Y-32019170I-2990000J462D01*
G01*
X115328000Y-33564000D02*
G75*
G03*
X115328000Y-33564000I-2500000J0D01*
G01*
%TO.C,D60*%
X259873000Y-28504000D02*
X262963000Y-28504000D01*
X261418462Y-22954000D02*
G75*
G03*
X259873170Y-28504000I-462J-2990000D01*
G01*
X262962830Y-28504000D02*
G75*
G03*
X261417538Y-22954000I-1544830J2560000D01*
G01*
X263918000Y-25944000D02*
G75*
G03*
X263918000Y-25944000I-2500000J0D01*
G01*
%TO.C,D2*%
X196373000Y-28504000D02*
X199463000Y-28504000D01*
X197918462Y-22954000D02*
G75*
G03*
X196373170Y-28504000I-462J-2990000D01*
G01*
X199462830Y-28504000D02*
G75*
G03*
X197917538Y-22954000I-1544830J2560000D01*
G01*
X200418000Y-25944000D02*
G75*
G03*
X200418000Y-25944000I-2500000J0D01*
G01*
%TO.C,D11*%
X96043000Y-28504000D02*
X99133000Y-28504000D01*
X97588462Y-22954000D02*
G75*
G03*
X96043170Y-28504000I-462J-2990000D01*
G01*
X99132830Y-28504000D02*
G75*
G03*
X97587538Y-22954000I-1544830J2560000D01*
G01*
X100088000Y-25944000D02*
G75*
G03*
X100088000Y-25944000I-2500000J0D01*
G01*
%TO.C,C1*%
X35140000Y-15760000D02*
G75*
G03*
X35140000Y-15760000I-2120000J0D01*
G01*
X30943000Y-15640000D02*
X32180000Y-15640000D01*
X30986000Y-15320000D02*
X32180000Y-15320000D01*
X31113000Y-14919000D02*
X32180000Y-14919000D01*
X33860000Y-15360000D02*
X35062000Y-15360000D01*
X33860000Y-15760000D02*
X35100000Y-15760000D01*
X33860000Y-14559000D02*
X34728000Y-14559000D01*
X33860000Y-14439000D02*
X34639000Y-14439000D01*
X33860000Y-15440000D02*
X35076000Y-15440000D01*
X33860000Y-15039000D02*
X34974000Y-15039000D01*
X31260000Y-14639000D02*
X32180000Y-14639000D01*
X32650000Y-13679000D02*
X33390000Y-13679000D01*
X33860000Y-14919000D02*
X34927000Y-14919000D01*
X31052000Y-15080000D02*
X32180000Y-15080000D01*
X33860000Y-14599000D02*
X34755000Y-14599000D01*
X31468000Y-14359000D02*
X32180000Y-14359000D01*
X30964000Y-15440000D02*
X32180000Y-15440000D01*
X31235000Y-14679000D02*
X32180000Y-14679000D01*
X33860000Y-15640000D02*
X35097000Y-15640000D01*
X33860000Y-15560000D02*
X35091000Y-15560000D01*
X33860000Y-15160000D02*
X35014000Y-15160000D01*
X33860000Y-14719000D02*
X34828000Y-14719000D01*
X31820000Y-14039000D02*
X34220000Y-14039000D01*
X33860000Y-14359000D02*
X34572000Y-14359000D01*
X33860000Y-14199000D02*
X34416000Y-14199000D01*
X31212000Y-14719000D02*
X32180000Y-14719000D01*
X33860000Y-14399000D02*
X34607000Y-14399000D01*
X30978000Y-15360000D02*
X32180000Y-15360000D01*
X30946000Y-15600000D02*
X32180000Y-15600000D01*
X31015000Y-15200000D02*
X32180000Y-15200000D01*
X31312000Y-14559000D02*
X32180000Y-14559000D01*
X31878000Y-13999000D02*
X34162000Y-13999000D01*
X33860000Y-14319000D02*
X34536000Y-14319000D01*
X33860000Y-14239000D02*
X34458000Y-14239000D01*
X30953000Y-15520000D02*
X32180000Y-15520000D01*
X33860000Y-15320000D02*
X35054000Y-15320000D01*
X33860000Y-14479000D02*
X34670000Y-14479000D01*
X33860000Y-14799000D02*
X34871000Y-14799000D01*
X31096000Y-14959000D02*
X32180000Y-14959000D01*
X30995000Y-15280000D02*
X32180000Y-15280000D01*
X33860000Y-14639000D02*
X34780000Y-14639000D01*
X31624000Y-14199000D02*
X32180000Y-14199000D01*
X31340000Y-14519000D02*
X32180000Y-14519000D01*
X32356000Y-13759000D02*
X33684000Y-13759000D01*
X33860000Y-14759000D02*
X34850000Y-14759000D01*
X30958000Y-15480000D02*
X32180000Y-15480000D01*
X31131000Y-14879000D02*
X32180000Y-14879000D01*
X31026000Y-15160000D02*
X32180000Y-15160000D01*
X32252000Y-13799000D02*
X33788000Y-13799000D01*
X33860000Y-15080000D02*
X34988000Y-15080000D01*
X33860000Y-15520000D02*
X35087000Y-15520000D01*
X31080000Y-14999000D02*
X32180000Y-14999000D01*
X33860000Y-14279000D02*
X34498000Y-14279000D01*
X31940000Y-13959000D02*
X34100000Y-13959000D01*
X33860000Y-15120000D02*
X35002000Y-15120000D01*
X31825000Y-18029801D02*
X31825000Y-17629801D01*
X31669000Y-14159000D02*
X34371000Y-14159000D01*
X33860000Y-15600000D02*
X35094000Y-15600000D01*
X31150000Y-14839000D02*
X32180000Y-14839000D01*
X30949000Y-15560000D02*
X32180000Y-15560000D01*
X31038000Y-15120000D02*
X32180000Y-15120000D01*
X31625000Y-17829801D02*
X32025000Y-17829801D01*
X33860000Y-14839000D02*
X34890000Y-14839000D01*
X33860000Y-14519000D02*
X34700000Y-14519000D01*
X33860000Y-15680000D02*
X35099000Y-15680000D01*
X31370000Y-14479000D02*
X32180000Y-14479000D01*
X33860000Y-15400000D02*
X35070000Y-15400000D01*
X33860000Y-14879000D02*
X34909000Y-14879000D01*
X32161000Y-13839000D02*
X33879000Y-13839000D01*
X32483000Y-13719000D02*
X33557000Y-13719000D01*
X33860000Y-14679000D02*
X34805000Y-14679000D01*
X33860000Y-14959000D02*
X34944000Y-14959000D01*
X31582000Y-14239000D02*
X32180000Y-14239000D01*
X30941000Y-15680000D02*
X32180000Y-15680000D01*
X30940000Y-15720000D02*
X32180000Y-15720000D01*
X31766000Y-14079000D02*
X34274000Y-14079000D01*
X33860000Y-15480000D02*
X35082000Y-15480000D01*
X31433000Y-14399000D02*
X32180000Y-14399000D01*
X31066000Y-15039000D02*
X32180000Y-15039000D01*
X31504000Y-14319000D02*
X32180000Y-14319000D01*
X31004000Y-15240000D02*
X32180000Y-15240000D01*
X33860000Y-15200000D02*
X35025000Y-15200000D01*
X31169000Y-14799000D02*
X32180000Y-14799000D01*
X31190000Y-14759000D02*
X32180000Y-14759000D01*
X31401000Y-14439000D02*
X32180000Y-14439000D01*
X33860000Y-14999000D02*
X34960000Y-14999000D01*
X33860000Y-15280000D02*
X35045000Y-15280000D01*
X31716000Y-14119000D02*
X34324000Y-14119000D01*
X30970000Y-15400000D02*
X32180000Y-15400000D01*
X32080000Y-13879000D02*
X33960000Y-13879000D01*
X30940000Y-15760000D02*
X32180000Y-15760000D01*
X31542000Y-14279000D02*
X32180000Y-14279000D01*
X33860000Y-15240000D02*
X35036000Y-15240000D01*
X32007000Y-13919000D02*
X34033000Y-13919000D01*
X33860000Y-15720000D02*
X35100000Y-15720000D01*
X31285000Y-14599000D02*
X32180000Y-14599000D01*
%TO.C,D101*%
X120428000Y-54879000D02*
X120428000Y-57969000D01*
X120428000Y-57968830D02*
G75*
G03*
X125978000Y-56423538I2560000J1544830D01*
G01*
X125978000Y-56424462D02*
G75*
G03*
X120428000Y-54879170I-2990000J462D01*
G01*
X125488000Y-56424000D02*
G75*
G03*
X125488000Y-56424000I-2500000J0D01*
G01*
%TO.C,SW3*%
X210308000Y-114324000D02*
X210308000Y-112824000D01*
X203308000Y-112824000D02*
X203308000Y-114324000D01*
X204558000Y-116824000D02*
X209058000Y-116824000D01*
X209058000Y-110324000D02*
X204558000Y-110324000D01*
%TO.C,Q7*%
X60198000Y-49820000D02*
X59548000Y-49820000D01*
X60198000Y-49820000D02*
X60848000Y-49820000D01*
X60198000Y-46700000D02*
X58523000Y-46700000D01*
X60198000Y-46700000D02*
X60848000Y-46700000D01*
%TO.C,D50*%
X196373000Y-65334000D02*
X199463000Y-65334000D01*
X199462830Y-65334000D02*
G75*
G03*
X197917538Y-59784000I-1544830J2560000D01*
G01*
X197918462Y-59784000D02*
G75*
G03*
X196373170Y-65334000I-462J-2990000D01*
G01*
X200418000Y-62774000D02*
G75*
G03*
X200418000Y-62774000I-2500000J0D01*
G01*
%TO.C,D86*%
X144303000Y-102164000D02*
X147393000Y-102164000D01*
X147392830Y-102164000D02*
G75*
G03*
X145847538Y-96614000I-1544830J2560000D01*
G01*
X145848462Y-96614000D02*
G75*
G03*
X144303170Y-102164000I-462J-2990000D01*
G01*
X148348000Y-99604000D02*
G75*
G03*
X148348000Y-99604000I-2500000J0D01*
G01*
%TO.C,D3*%
X203993000Y-28504000D02*
X207083000Y-28504000D01*
X207082830Y-28504000D02*
G75*
G03*
X205537538Y-22954000I-1544830J2560000D01*
G01*
X205538462Y-22954000D02*
G75*
G03*
X203993170Y-28504000I-462J-2990000D01*
G01*
X208038000Y-25944000D02*
G75*
G03*
X208038000Y-25944000I-2500000J0D01*
G01*
%TO.C,D76*%
X266478000Y-90439000D02*
X266478000Y-93529000D01*
X266478000Y-93528830D02*
G75*
G03*
X272028000Y-91983538I2560000J1544830D01*
G01*
X272028000Y-91984462D02*
G75*
G03*
X266478000Y-90439170I-2990000J462D01*
G01*
X271538000Y-91984000D02*
G75*
G03*
X271538000Y-91984000I-2500000J0D01*
G01*
%TO.C,D14*%
X110268000Y-39639000D02*
X110268000Y-42729000D01*
X110268000Y-42728830D02*
G75*
G03*
X115818000Y-41183538I2560000J1544830D01*
G01*
X115818000Y-41184462D02*
G75*
G03*
X110268000Y-39639170I-2990000J462D01*
G01*
X115328000Y-41184000D02*
G75*
G03*
X115328000Y-41184000I-2500000J0D01*
G01*
%TO.C,Q10*%
X60198000Y-65568000D02*
X60848000Y-65568000D01*
X60198000Y-62448000D02*
X58523000Y-62448000D01*
X60198000Y-62448000D02*
X60848000Y-62448000D01*
X60198000Y-65568000D02*
X59548000Y-65568000D01*
%TO.C,D78*%
X158528000Y-75199000D02*
X158528000Y-78289000D01*
X158528000Y-78288830D02*
G75*
G03*
X164078000Y-76743538I2560000J1544830D01*
G01*
X164078000Y-76744462D02*
G75*
G03*
X158528000Y-75199170I-2990000J462D01*
G01*
X163588000Y-76744000D02*
G75*
G03*
X163588000Y-76744000I-2500000J0D01*
G01*
%TO.C,D42*%
X180118000Y-47259000D02*
X180118000Y-50349000D01*
X180118000Y-50348830D02*
G75*
G03*
X185668000Y-48803538I2560000J1544830D01*
G01*
X185668000Y-48804462D02*
G75*
G03*
X180118000Y-47259170I-2990000J462D01*
G01*
X185178000Y-48804000D02*
G75*
G03*
X185178000Y-48804000I-2500000J0D01*
G01*
%TO.C,D97*%
X228378000Y-54879000D02*
X228378000Y-57969000D01*
X233928000Y-56424462D02*
G75*
G03*
X228378000Y-54879170I-2990000J462D01*
G01*
X228378000Y-57968830D02*
G75*
G03*
X233928000Y-56423538I2560000J1544830D01*
G01*
X233438000Y-56424000D02*
G75*
G03*
X233438000Y-56424000I-2500000J0D01*
G01*
%TO.C,D98*%
X228378000Y-47259000D02*
X228378000Y-50349000D01*
X228378000Y-50348830D02*
G75*
G03*
X233928000Y-48803538I2560000J1544830D01*
G01*
X233928000Y-48804462D02*
G75*
G03*
X228378000Y-47259170I-2990000J462D01*
G01*
X233438000Y-48804000D02*
G75*
G03*
X233438000Y-48804000I-2500000J0D01*
G01*
%TO.C,D94*%
X120428000Y-82819000D02*
X120428000Y-85909000D01*
X125978000Y-84364462D02*
G75*
G03*
X120428000Y-82819170I-2990000J462D01*
G01*
X120428000Y-85908830D02*
G75*
G03*
X125978000Y-84363538I2560000J1544830D01*
G01*
X125488000Y-84364000D02*
G75*
G03*
X125488000Y-84364000I-2500000J0D01*
G01*
%TO.C,D38*%
X72168000Y-82819000D02*
X72168000Y-85909000D01*
X77718000Y-84364462D02*
G75*
G03*
X72168000Y-82819170I-2990000J462D01*
G01*
X72168000Y-85908830D02*
G75*
G03*
X77718000Y-84363538I2560000J1544830D01*
G01*
X77228000Y-84364000D02*
G75*
G03*
X77228000Y-84364000I-2500000J0D01*
G01*
%TO.C,D85*%
X151923000Y-102164000D02*
X155013000Y-102164000D01*
X153468462Y-96614000D02*
G75*
G03*
X151923170Y-102164000I-462J-2990000D01*
G01*
X155012830Y-102164000D02*
G75*
G03*
X153467538Y-96614000I-1544830J2560000D01*
G01*
X155968000Y-99604000D02*
G75*
G03*
X155968000Y-99604000I-2500000J0D01*
G01*
%TO.C,D77*%
X158528000Y-67579000D02*
X158528000Y-70669000D01*
X164078000Y-69124462D02*
G75*
G03*
X158528000Y-67579170I-2990000J462D01*
G01*
X158528000Y-70668830D02*
G75*
G03*
X164078000Y-69123538I2560000J1544830D01*
G01*
X163588000Y-69124000D02*
G75*
G03*
X163588000Y-69124000I-2500000J0D01*
G01*
%TO.C,D8*%
X218218000Y-54879000D02*
X218218000Y-57969000D01*
X218218000Y-57968830D02*
G75*
G03*
X223768000Y-56423538I2560000J1544830D01*
G01*
X223768000Y-56424462D02*
G75*
G03*
X218218000Y-54879170I-2990000J462D01*
G01*
X223278000Y-56424000D02*
G75*
G03*
X223278000Y-56424000I-2500000J0D01*
G01*
%TO.C,D93*%
X120428000Y-90439000D02*
X120428000Y-93529000D01*
X125978000Y-91984462D02*
G75*
G03*
X120428000Y-90439170I-2990000J462D01*
G01*
X120428000Y-93528830D02*
G75*
G03*
X125978000Y-91983538I2560000J1544830D01*
G01*
X125488000Y-91984000D02*
G75*
G03*
X125488000Y-91984000I-2500000J0D01*
G01*
%TO.C,D41*%
X180118000Y-54879000D02*
X180118000Y-57969000D01*
X180118000Y-57968830D02*
G75*
G03*
X185668000Y-56423538I2560000J1544830D01*
G01*
X185668000Y-56424462D02*
G75*
G03*
X180118000Y-54879170I-2990000J462D01*
G01*
X185178000Y-56424000D02*
G75*
G03*
X185178000Y-56424000I-2500000J0D01*
G01*
%TO.C,D12*%
X103663000Y-28504000D02*
X106753000Y-28504000D01*
X105208462Y-22954000D02*
G75*
G03*
X103663170Y-28504000I-462J-2990000D01*
G01*
X106752830Y-28504000D02*
G75*
G03*
X105207538Y-22954000I-1544830J2560000D01*
G01*
X107708000Y-25944000D02*
G75*
G03*
X107708000Y-25944000I-2500000J0D01*
G01*
%TO.C,D25*%
X211613000Y-102164000D02*
X214703000Y-102164000D01*
X213158462Y-96614000D02*
G75*
G03*
X211613170Y-102164000I-462J-2990000D01*
G01*
X214702830Y-102164000D02*
G75*
G03*
X213157538Y-96614000I-1544830J2560000D01*
G01*
X215658000Y-99604000D02*
G75*
G03*
X215658000Y-99604000I-2500000J0D01*
G01*
%TO.C,D105*%
X237013000Y-65334000D02*
X240103000Y-65334000D01*
X238558462Y-59784000D02*
G75*
G03*
X237013170Y-65334000I-462J-2990000D01*
G01*
X240102830Y-65334000D02*
G75*
G03*
X238557538Y-59784000I-1544830J2560000D01*
G01*
X241058000Y-62774000D02*
G75*
G03*
X241058000Y-62774000I-2500000J0D01*
G01*
%TO.C,D31*%
X88423000Y-102164000D02*
X91513000Y-102164000D01*
X91512830Y-102164000D02*
G75*
G03*
X89967538Y-96614000I-1544830J2560000D01*
G01*
X89968462Y-96614000D02*
G75*
G03*
X88423170Y-102164000I-462J-2990000D01*
G01*
X92468000Y-99604000D02*
G75*
G03*
X92468000Y-99604000I-2500000J0D01*
G01*
%TO.C,D18*%
X218218000Y-75199000D02*
X218218000Y-78289000D01*
X218218000Y-78288830D02*
G75*
G03*
X223768000Y-76743538I2560000J1544830D01*
G01*
X223768000Y-76744462D02*
G75*
G03*
X218218000Y-75199170I-2990000J462D01*
G01*
X223278000Y-76744000D02*
G75*
G03*
X223278000Y-76744000I-2500000J0D01*
G01*
%TO.C,D107*%
X252253000Y-65334000D02*
X255343000Y-65334000D01*
X253798462Y-59784000D02*
G75*
G03*
X252253170Y-65334000I-462J-2990000D01*
G01*
X255342830Y-65334000D02*
G75*
G03*
X253797538Y-59784000I-1544830J2560000D01*
G01*
X256298000Y-62774000D02*
G75*
G03*
X256298000Y-62774000I-2500000J0D01*
G01*
%TO.C,Q12*%
X60198000Y-72608000D02*
X60848000Y-72608000D01*
X60198000Y-75728000D02*
X59548000Y-75728000D01*
X60198000Y-72608000D02*
X58523000Y-72608000D01*
X60198000Y-75728000D02*
X60848000Y-75728000D01*
%TO.C,D75*%
X266478000Y-82819000D02*
X266478000Y-85909000D01*
X266478000Y-85908830D02*
G75*
G03*
X272028000Y-84363538I2560000J1544830D01*
G01*
X272028000Y-84364462D02*
G75*
G03*
X266478000Y-82819170I-2990000J462D01*
G01*
X271538000Y-84364000D02*
G75*
G03*
X271538000Y-84364000I-2500000J0D01*
G01*
%TO.C,D87*%
X136683000Y-102164000D02*
X139773000Y-102164000D01*
X138228462Y-96614000D02*
G75*
G03*
X136683170Y-102164000I-462J-2990000D01*
G01*
X139772830Y-102164000D02*
G75*
G03*
X138227538Y-96614000I-1544830J2560000D01*
G01*
X140728000Y-99604000D02*
G75*
G03*
X140728000Y-99604000I-2500000J0D01*
G01*
%TO.C,Q5*%
X41402000Y-82768000D02*
X39727000Y-82768000D01*
X41402000Y-82768000D02*
X42052000Y-82768000D01*
X41402000Y-85888000D02*
X40752000Y-85888000D01*
X41402000Y-85888000D02*
X42052000Y-85888000D01*
%TO.C,D84*%
X237013000Y-102164000D02*
X240103000Y-102164000D01*
X240102830Y-102164000D02*
G75*
G03*
X238557538Y-96614000I-1544830J2560000D01*
G01*
X238558462Y-96614000D02*
G75*
G03*
X237013170Y-102164000I-462J-2990000D01*
G01*
X241058000Y-99604000D02*
G75*
G03*
X241058000Y-99604000I-2500000J0D01*
G01*
%TO.C,Q2*%
X53156000Y-82768000D02*
X53806000Y-82768000D01*
X53156000Y-82768000D02*
X51481000Y-82768000D01*
X53156000Y-85888000D02*
X52506000Y-85888000D01*
X53156000Y-85888000D02*
X53806000Y-85888000D01*
%TO.C,D46*%
X72168000Y-47259000D02*
X72168000Y-50349000D01*
X77718000Y-48804462D02*
G75*
G03*
X72168000Y-47259170I-2990000J462D01*
G01*
X72168000Y-50348830D02*
G75*
G03*
X77718000Y-48803538I2560000J1544830D01*
G01*
X77228000Y-48804000D02*
G75*
G03*
X77228000Y-48804000I-2500000J0D01*
G01*
%TO.C,D111*%
X144303000Y-65334000D02*
X147393000Y-65334000D01*
X145848462Y-59784000D02*
G75*
G03*
X144303170Y-65334000I-462J-2990000D01*
G01*
X147392830Y-65334000D02*
G75*
G03*
X145847538Y-59784000I-1544830J2560000D01*
G01*
X148348000Y-62774000D02*
G75*
G03*
X148348000Y-62774000I-2500000J0D01*
G01*
%TO.C,D6*%
X218218000Y-39639000D02*
X218218000Y-42729000D01*
X223768000Y-41184462D02*
G75*
G03*
X218218000Y-39639170I-2990000J462D01*
G01*
X218218000Y-42728830D02*
G75*
G03*
X223768000Y-41183538I2560000J1544830D01*
G01*
X223278000Y-41184000D02*
G75*
G03*
X223278000Y-41184000I-2500000J0D01*
G01*
%TO.C,D62*%
X136683000Y-28504000D02*
X139773000Y-28504000D01*
X138228462Y-22954000D02*
G75*
G03*
X136683170Y-28504000I-462J-2990000D01*
G01*
X139772830Y-28504000D02*
G75*
G03*
X138227538Y-22954000I-1544830J2560000D01*
G01*
X140728000Y-25944000D02*
G75*
G03*
X140728000Y-25944000I-2500000J0D01*
G01*
%TO.C,Q9*%
X60198000Y-60234000D02*
X60848000Y-60234000D01*
X60198000Y-57114000D02*
X58523000Y-57114000D01*
X60198000Y-57114000D02*
X60848000Y-57114000D01*
X60198000Y-60234000D02*
X59548000Y-60234000D01*
%TD*%
G36*
X267912121Y-110510002D02*
G01*
X267958614Y-110563658D01*
X267970000Y-110616000D01*
X267970000Y-119254000D01*
X267949998Y-119322121D01*
X267896342Y-119368614D01*
X267844000Y-119380000D01*
X235076000Y-119380000D01*
X235007879Y-119359998D01*
X234961386Y-119306342D01*
X234950000Y-119254000D01*
X234950000Y-110616000D01*
X234970002Y-110547879D01*
X235023658Y-110501386D01*
X235076000Y-110490000D01*
X267844000Y-110490000D01*
X267912121Y-110510002D01*
G37*
M02*
