%TF.GenerationSoftware,KiCad,Pcbnew,7.0.11*%
%TF.CreationDate,2026-01-24T09:13:29-05:00*%
%TF.ProjectId,clock_iv11_tubes,636c6f63-6b5f-4697-9631-315f74756265,rev?*%
%TF.SameCoordinates,Original*%
%TF.FileFunction,Copper,L2,Bot*%
%TF.FilePolarity,Positive*%
%FSLAX46Y46*%
G04 Gerber Fmt 4.6, Leading zero omitted, Abs format (unit mm)*
G04 Created by KiCad (PCBNEW 7.0.11) date 2026-01-24 09:13:29*
%MOMM*%
%LPD*%
G01*
G04 APERTURE LIST*
G04 Aperture macros list*
%AMHorizOval*
0 Thick line with rounded ends*
0 $1 width*
0 $2 $3 position (X,Y) of the first rounded end (center of the circle)*
0 $4 $5 position (X,Y) of the second rounded end (center of the circle)*
0 Add line between two ends*
20,1,$1,$2,$3,$4,$5,0*
0 Add two circle primitives to create the rounded ends*
1,1,$1,$2,$3*
1,1,$1,$4,$5*%
G04 Aperture macros list end*
%TA.AperFunction,ComponentPad*%
%ADD10C,8.600000*%
%TD*%
%TA.AperFunction,ComponentPad*%
%ADD11HorizOval,1.524000X-0.126304X0.471372X0.126304X-0.471372X0*%
%TD*%
%TA.AperFunction,ComponentPad*%
%ADD12HorizOval,1.524000X-0.345068X0.345068X0.345068X-0.345068X0*%
%TD*%
%TA.AperFunction,ComponentPad*%
%ADD13HorizOval,1.524000X-0.471372X0.126304X0.471372X-0.126304X0*%
%TD*%
%TA.AperFunction,ComponentPad*%
%ADD14HorizOval,1.524000X-0.471372X-0.126304X0.471372X0.126304X0*%
%TD*%
%TA.AperFunction,ComponentPad*%
%ADD15HorizOval,1.524000X-0.345068X-0.345068X0.345068X0.345068X0*%
%TD*%
%TA.AperFunction,ComponentPad*%
%ADD16HorizOval,1.524000X-0.126304X-0.471372X0.126304X0.471372X0*%
%TD*%
%TA.AperFunction,ComponentPad*%
%ADD17HorizOval,1.524000X0.126304X-0.471372X-0.126304X0.471372X0*%
%TD*%
%TA.AperFunction,ComponentPad*%
%ADD18HorizOval,1.524000X0.345068X-0.345068X-0.345068X0.345068X0*%
%TD*%
%TA.AperFunction,ComponentPad*%
%ADD19HorizOval,1.524000X0.471372X-0.126304X-0.471372X0.126304X0*%
%TD*%
%TA.AperFunction,ComponentPad*%
%ADD20HorizOval,1.524000X0.471372X0.126304X-0.471372X-0.126304X0*%
%TD*%
%TA.AperFunction,ComponentPad*%
%ADD21HorizOval,1.524000X0.345068X0.345068X-0.345068X-0.345068X0*%
%TD*%
%TA.AperFunction,ComponentPad*%
%ADD22R,1.700000X1.700000*%
%TD*%
%TA.AperFunction,ComponentPad*%
%ADD23O,1.700000X1.700000*%
%TD*%
%TA.AperFunction,ViaPad*%
%ADD24C,0.600000*%
%TD*%
%TA.AperFunction,Conductor*%
%ADD25C,0.200000*%
%TD*%
%TA.AperFunction,Conductor*%
%ADD26C,1.000000*%
%TD*%
G04 APERTURE END LIST*
D10*
%TO.P,H4,1,1*%
%TO.N,GND*%
X134750000Y-140500000D03*
%TD*%
%TO.P,H2,1,1*%
%TO.N,GND*%
X25750000Y-140500000D03*
%TD*%
D11*
%TO.P,V1,1,Pin_1*%
%TO.N,FILA_0_1*%
X41802914Y-127545555D03*
D12*
%TO.P,V1,2,Pin_2*%
%TO.N,+24V*%
X44492640Y-125992641D03*
D13*
%TO.P,V1,3,Pin_3*%
%TO.N,OUT_DIG_0_SEG_C*%
X46045555Y-123302915D03*
D14*
%TO.P,V1,4,Pin_4*%
%TO.N,GND*%
X46045555Y-120197086D03*
D15*
%TO.P,V1,5,Pin_5*%
%TO.N,OUT_DIG_0_SEG_B*%
X44492641Y-117507360D03*
D16*
%TO.P,V1,6,Pin_6*%
%TO.N,OUT_DIG_0_SEG_A*%
X41802915Y-115954445D03*
D17*
%TO.P,V1,7,Pin_7*%
%TO.N,OUT_DIG_0_SEG_G*%
X38697086Y-115954445D03*
D18*
%TO.P,V1,8,Pin_8*%
%TO.N,OUT_DIG_0_SEG_F*%
X36007360Y-117507359D03*
D19*
%TO.P,V1,9,Pin_9*%
%TO.N,OUT_DIG_0_SEG_E*%
X34454445Y-120197085D03*
D20*
%TO.P,V1,10,Pin_10*%
%TO.N,OUT_DIG_0_SEG_D*%
X34454445Y-123302914D03*
D21*
%TO.P,V1,11,Pin_11*%
%TO.N,+BATT*%
X36007359Y-125992640D03*
%TD*%
D11*
%TO.P,V2,1,Pin_1*%
%TO.N,-BATT*%
X65802914Y-127545555D03*
D12*
%TO.P,V2,2,Pin_2*%
%TO.N,+24V*%
X68492640Y-125992641D03*
D13*
%TO.P,V2,3,Pin_3*%
%TO.N,OUT_DIG_1_SEG_C*%
X70045555Y-123302915D03*
D14*
%TO.P,V2,4,Pin_4*%
%TO.N,GND*%
X70045555Y-120197086D03*
D15*
%TO.P,V2,5,Pin_5*%
%TO.N,OUT_DIG_1_SEG_B*%
X68492641Y-117507360D03*
D16*
%TO.P,V2,6,Pin_6*%
%TO.N,OUT_DIG_1_SEG_A*%
X65802915Y-115954445D03*
D17*
%TO.P,V2,7,Pin_7*%
%TO.N,OUT_DIG_1_SEG_G*%
X62697086Y-115954445D03*
D18*
%TO.P,V2,8,Pin_8*%
%TO.N,OUT_DIG_1_SEG_F*%
X60007360Y-117507359D03*
D19*
%TO.P,V2,9,Pin_9*%
%TO.N,OUT_DIG_1_SEG_E*%
X58454445Y-120197085D03*
D20*
%TO.P,V2,10,Pin_10*%
%TO.N,OUT_DIG_1_SEG_D*%
X58454445Y-123302914D03*
D21*
%TO.P,V2,11,Pin_11*%
%TO.N,FILA_0_1*%
X60007359Y-125992640D03*
%TD*%
D10*
%TO.P,H3,1,1*%
%TO.N,GND*%
X134750000Y-103000000D03*
%TD*%
D11*
%TO.P,V4,1,Pin_1*%
%TO.N,-BATT*%
X121802914Y-127545555D03*
D12*
%TO.P,V4,2,Pin_2*%
%TO.N,+24V*%
X124492640Y-125992641D03*
D13*
%TO.P,V4,3,Pin_3*%
%TO.N,OUT_DIG_3_SEG_C*%
X126045555Y-123302915D03*
D14*
%TO.P,V4,4,Pin_4*%
%TO.N,GND*%
X126045555Y-120197086D03*
D15*
%TO.P,V4,5,Pin_5*%
%TO.N,OUT_DIG_3_SEG_B*%
X124492641Y-117507360D03*
D16*
%TO.P,V4,6,Pin_6*%
%TO.N,OUT_DIG_3_SEG_A*%
X121802915Y-115954445D03*
D17*
%TO.P,V4,7,Pin_7*%
%TO.N,OUT_DIG_3_SEG_G*%
X118697086Y-115954445D03*
D18*
%TO.P,V4,8,Pin_8*%
%TO.N,OUT_DIG_3_SEG_F*%
X116007360Y-117507359D03*
D19*
%TO.P,V4,9,Pin_9*%
%TO.N,OUT_DIG_3_SEG_E*%
X114454445Y-120197085D03*
D20*
%TO.P,V4,10,Pin_10*%
%TO.N,OUT_DIG_3_SEG_D*%
X114454445Y-123302914D03*
D21*
%TO.P,V4,11,Pin_11*%
%TO.N,FILA_2_3*%
X116007359Y-125992640D03*
%TD*%
D11*
%TO.P,V3,1,Pin_1*%
%TO.N,FILA_2_3*%
X97802914Y-127545555D03*
D12*
%TO.P,V3,2,Pin_2*%
%TO.N,+24V*%
X100492640Y-125992641D03*
D13*
%TO.P,V3,3,Pin_3*%
%TO.N,OUT_DIG_2_SEG_C*%
X102045555Y-123302915D03*
D14*
%TO.P,V3,4,Pin_4*%
%TO.N,GND*%
X102045555Y-120197086D03*
D15*
%TO.P,V3,5,Pin_5*%
%TO.N,OUT_DIG_2_SEG_B*%
X100492641Y-117507360D03*
D16*
%TO.P,V3,6,Pin_6*%
%TO.N,OUT_DIG_2_SEG_A*%
X97802915Y-115954445D03*
D17*
%TO.P,V3,7,Pin_7*%
%TO.N,OUT_DIG_2_SEG_G*%
X94697086Y-115954445D03*
D18*
%TO.P,V3,8,Pin_8*%
%TO.N,OUT_DIG_2_SEG_F*%
X92007360Y-117507359D03*
D19*
%TO.P,V3,9,Pin_9*%
%TO.N,OUT_DIG_2_SEG_E*%
X90454445Y-120197085D03*
D20*
%TO.P,V3,10,Pin_10*%
%TO.N,OUT_DIG_2_SEG_D*%
X90454445Y-123302914D03*
D21*
%TO.P,V3,11,Pin_11*%
%TO.N,+BATT*%
X92007359Y-125992640D03*
%TD*%
D10*
%TO.P,H1,1,1*%
%TO.N,GND*%
X25750000Y-103000000D03*
%TD*%
D22*
%TO.P,J1,1,Pin_1*%
%TO.N,+BATT*%
X60265000Y-102975000D03*
D23*
%TO.P,J1,2,Pin_2*%
X60265000Y-105515000D03*
%TO.P,J1,3,Pin_3*%
%TO.N,GND*%
X62805000Y-102975000D03*
%TO.P,J1,4,Pin_4*%
X62805000Y-105515000D03*
%TO.P,J1,5,Pin_5*%
%TO.N,+24V*%
X65345000Y-102975000D03*
%TO.P,J1,6,Pin_6*%
X65345000Y-105515000D03*
%TO.P,J1,7,Pin_7*%
%TO.N,OUT_DIG_0_SEG_A*%
X67885000Y-102975000D03*
%TO.P,J1,8,Pin_8*%
%TO.N,OUT_DIG_0_SEG_B*%
X67885000Y-105515000D03*
%TO.P,J1,9,Pin_9*%
%TO.N,OUT_DIG_0_SEG_C*%
X70425000Y-102975000D03*
%TO.P,J1,10,Pin_10*%
%TO.N,OUT_DIG_0_SEG_D*%
X70425000Y-105515000D03*
%TO.P,J1,11,Pin_11*%
%TO.N,OUT_DIG_0_SEG_E*%
X72965000Y-102975000D03*
%TO.P,J1,12,Pin_12*%
%TO.N,OUT_DIG_0_SEG_F*%
X72965000Y-105515000D03*
%TO.P,J1,13,Pin_13*%
%TO.N,OUT_DIG_0_SEG_G*%
X75505000Y-102975000D03*
%TO.P,J1,14,Pin_14*%
%TO.N,OUT_DIG_1_SEG_A*%
X75505000Y-105515000D03*
%TO.P,J1,15,Pin_15*%
%TO.N,OUT_DIG_1_SEG_B*%
X78045000Y-102975000D03*
%TO.P,J1,16,Pin_16*%
%TO.N,OUT_DIG_1_SEG_C*%
X78045000Y-105515000D03*
%TO.P,J1,17,Pin_17*%
%TO.N,OUT_DIG_1_SEG_D*%
X80585000Y-102975000D03*
%TO.P,J1,18,Pin_18*%
%TO.N,OUT_DIG_1_SEG_E*%
X80585000Y-105515000D03*
%TO.P,J1,19,Pin_19*%
%TO.N,OUT_DIG_1_SEG_F*%
X83125000Y-102975000D03*
%TO.P,J1,20,Pin_20*%
%TO.N,OUT_DIG_1_SEG_G*%
X83125000Y-105515000D03*
%TO.P,J1,21,Pin_21*%
%TO.N,OUT_DIG_2_SEG_A*%
X85665000Y-102975000D03*
%TO.P,J1,22,Pin_22*%
%TO.N,OUT_DIG_2_SEG_B*%
X85665000Y-105515000D03*
%TO.P,J1,23,Pin_23*%
%TO.N,OUT_DIG_2_SEG_C*%
X88205000Y-102975000D03*
%TO.P,J1,24,Pin_24*%
%TO.N,OUT_DIG_2_SEG_D*%
X88205000Y-105515000D03*
%TO.P,J1,25,Pin_25*%
%TO.N,OUT_DIG_2_SEG_E*%
X90745000Y-102975000D03*
%TO.P,J1,26,Pin_26*%
%TO.N,OUT_DIG_2_SEG_F*%
X90745000Y-105515000D03*
%TO.P,J1,27,Pin_27*%
%TO.N,OUT_DIG_2_SEG_G*%
X93285000Y-102975000D03*
%TO.P,J1,28,Pin_28*%
%TO.N,OUT_DIG_3_SEG_A*%
X93285000Y-105515000D03*
%TO.P,J1,29,Pin_29*%
%TO.N,OUT_DIG_3_SEG_B*%
X95825000Y-102975000D03*
%TO.P,J1,30,Pin_30*%
%TO.N,OUT_DIG_3_SEG_C*%
X95825000Y-105515000D03*
%TO.P,J1,31,Pin_31*%
%TO.N,OUT_DIG_3_SEG_D*%
X98365000Y-102975000D03*
%TO.P,J1,32,Pin_32*%
%TO.N,OUT_DIG_3_SEG_E*%
X98365000Y-105515000D03*
%TO.P,J1,33,Pin_33*%
%TO.N,OUT_DIG_3_SEG_F*%
X100905000Y-102975000D03*
%TO.P,J1,34,Pin_34*%
%TO.N,OUT_DIG_3_SEG_G*%
X100905000Y-105515000D03*
%TO.P,J1,35,Pin_35*%
%TO.N,+24V*%
X103445000Y-102975000D03*
%TO.P,J1,36,Pin_36*%
X103445000Y-105515000D03*
%TO.P,J1,37,Pin_37*%
%TO.N,GND*%
X105985000Y-102975000D03*
%TO.P,J1,38,Pin_38*%
X105985000Y-105515000D03*
%TO.P,J1,39,Pin_39*%
%TO.N,-BATT*%
X108525000Y-102975000D03*
%TO.P,J1,40,Pin_40*%
X108525000Y-105515000D03*
%TD*%
D24*
%TO.N,GND*%
X32750000Y-109850000D03*
X106125000Y-101200000D03*
X107250000Y-107025000D03*
X105850000Y-107200000D03*
X74425000Y-109950000D03*
X110475000Y-101975000D03*
X63950000Y-106775000D03*
X104775000Y-107125000D03*
X79325000Y-109500000D03*
X55700000Y-110075000D03*
X49400000Y-108800000D03*
X44525000Y-108400000D03*
X108725000Y-101100000D03*
X30200000Y-105675000D03*
X115500000Y-108625000D03*
X47200000Y-108775000D03*
X62825000Y-101125000D03*
X114175000Y-108625000D03*
X38325000Y-105050000D03*
X63875000Y-104300000D03*
X41650000Y-108200000D03*
X110700000Y-104000000D03*
X30200000Y-110350000D03*
X37975000Y-108125000D03*
X44875000Y-104975000D03*
X52825000Y-105225000D03*
X104650000Y-110500000D03*
X110475000Y-106675000D03*
X55925000Y-104975000D03*
X105800000Y-110425000D03*
X49625000Y-104950000D03*
X47325000Y-105000000D03*
X107075000Y-104250000D03*
X61700000Y-106750000D03*
X107225000Y-110475000D03*
X52525000Y-109050000D03*
X27600000Y-108025000D03*
X104925000Y-104275000D03*
X103575000Y-101225000D03*
X113175000Y-108625000D03*
X41775000Y-105050000D03*
X61550000Y-101275000D03*
X110850000Y-105325000D03*
X80925000Y-109575000D03*
X63950000Y-101175000D03*
X82500000Y-109550000D03*
X61900000Y-104275000D03*
X61775000Y-110150000D03*
%TO.N,OUT_DIG_0_SEG_D*%
X69225000Y-99725000D03*
%TO.N,OUT_DIG_0_SEG_E*%
X72400000Y-100325000D03*
%TO.N,OUT_DIG_0_SEG_F*%
X71375000Y-100525000D03*
%TO.N,OUT_DIG_1_SEG_D*%
X70375000Y-108050000D03*
%TO.N,OUT_DIG_1_SEG_E*%
X71300000Y-108400000D03*
%TO.N,OUT_DIG_1_SEG_F*%
X72200000Y-108900000D03*
%TO.N,OUT_DIG_1_SEG_G*%
X73075000Y-109300000D03*
%TO.N,OUT_DIG_2_SEG_A*%
X99025000Y-110250000D03*
%TO.N,OUT_DIG_2_SEG_B*%
X100100000Y-109850000D03*
%TO.N,OUT_DIG_2_SEG_C*%
X101050000Y-109550000D03*
%TO.N,OUT_DIG_3_SEG_D*%
X118225000Y-107100000D03*
%TO.N,OUT_DIG_3_SEG_E*%
X119075000Y-107100000D03*
%TO.N,OUT_DIG_3_SEG_F*%
X119875003Y-107100000D03*
%TO.N,OUT_DIG_3_SEG_G*%
X120675006Y-107100000D03*
%TO.N,-BATT*%
X124150000Y-128525000D03*
X123150000Y-127550000D03*
X123550000Y-128075000D03*
X124550000Y-129025000D03*
%TD*%
D25*
%TO.N,OUT_DIG_0_SEG_A*%
X66875000Y-102975000D02*
X66625000Y-103225000D01*
X43850000Y-107375000D02*
X41802915Y-109422085D01*
X66100000Y-107375000D02*
X43850000Y-107375000D01*
X67885000Y-102975000D02*
X66875000Y-102975000D01*
X66625000Y-103225000D02*
X66625000Y-106850000D01*
X41802915Y-109422085D02*
X41802915Y-115954445D01*
X66625000Y-106850000D02*
X66100000Y-107375000D01*
%TO.N,OUT_DIG_0_SEG_B*%
X67525000Y-107775000D02*
X46700000Y-107775000D01*
X67885000Y-107415000D02*
X67525000Y-107775000D01*
X46700000Y-107775000D02*
X45397086Y-109077914D01*
X45397086Y-116602915D02*
X44492641Y-117507360D01*
X45397086Y-109077914D02*
X45397086Y-116602915D01*
X67885000Y-105515000D02*
X67885000Y-107415000D01*
%TO.N,OUT_DIG_0_SEG_C*%
X69125000Y-107900000D02*
X68850000Y-108175000D01*
X70425000Y-102975000D02*
X69525000Y-102975000D01*
X51275000Y-108175000D02*
X49900000Y-109550000D01*
X49900000Y-109550000D02*
X49900000Y-122350000D01*
X48947085Y-123302915D02*
X46045555Y-123302915D01*
X49900000Y-122350000D02*
X48947085Y-123302915D01*
X69525000Y-102975000D02*
X69125000Y-103375000D01*
X69125000Y-103375000D02*
X69125000Y-107900000D01*
X68850000Y-108175000D02*
X51275000Y-108175000D01*
%TO.N,OUT_DIG_0_SEG_D*%
X31775000Y-122750000D02*
X32327914Y-123302914D01*
X69225000Y-99725000D02*
X68825000Y-99325000D01*
X68825000Y-99325000D02*
X39927942Y-99325000D01*
X31775000Y-107477942D02*
X31775000Y-122750000D01*
X32327914Y-123302914D02*
X34454445Y-123302914D01*
X39927942Y-99325000D02*
X31775000Y-107477942D01*
%TO.N,OUT_DIG_0_SEG_E*%
X72400000Y-100325000D02*
X72000000Y-99925000D01*
X40093628Y-99725000D02*
X33975000Y-105843628D01*
X68376471Y-99725000D02*
X40093628Y-99725000D01*
X33975000Y-105843628D02*
X33975000Y-119717640D01*
X70475000Y-100325000D02*
X68976471Y-100325000D01*
X72000000Y-99925000D02*
X70875000Y-99925000D01*
X33975000Y-119717640D02*
X34454445Y-120197085D01*
X68976471Y-100325000D02*
X68376471Y-99725000D01*
X70875000Y-99925000D02*
X70475000Y-100325000D01*
%TO.N,OUT_DIG_0_SEG_F*%
X36007360Y-104376954D02*
X36007360Y-117507359D01*
X68810785Y-100725000D02*
X68210785Y-100125000D01*
X71375000Y-100525000D02*
X71175000Y-100725000D01*
X71175000Y-100725000D02*
X68810785Y-100725000D01*
X68210785Y-100125000D02*
X40259314Y-100125000D01*
X40259314Y-100125000D02*
X36007360Y-104376954D01*
%TO.N,OUT_DIG_0_SEG_G*%
X39601531Y-101348469D02*
X39601531Y-115050000D01*
X75505000Y-101455000D02*
X75175000Y-101125000D01*
X68645099Y-101125000D02*
X68045099Y-100525000D01*
X75175000Y-101125000D02*
X68645099Y-101125000D01*
X39601531Y-115050000D02*
X38697086Y-115954445D01*
X40425000Y-100525000D02*
X39601531Y-101348469D01*
X68045099Y-100525000D02*
X40425000Y-100525000D01*
X75505000Y-102975000D02*
X75505000Y-101455000D01*
%TO.N,OUT_DIG_1_SEG_A*%
X75505000Y-114870000D02*
X74825000Y-115550000D01*
X75505000Y-105515000D02*
X75505000Y-114870000D01*
X74825000Y-115550000D02*
X66207360Y-115550000D01*
X66207360Y-115550000D02*
X65802915Y-115954445D01*
%TO.N,OUT_DIG_1_SEG_B*%
X76775000Y-104245000D02*
X76775000Y-116775000D01*
X76775000Y-116775000D02*
X76042640Y-117507360D01*
X76042640Y-117507360D02*
X68492641Y-117507360D01*
X78045000Y-102975000D02*
X76775000Y-104245000D01*
%TO.N,OUT_DIG_1_SEG_C*%
X78045000Y-122530000D02*
X77272085Y-123302915D01*
X78045000Y-105515000D02*
X78045000Y-122530000D01*
X77272085Y-123302915D02*
X70045555Y-123302915D01*
%TO.N,OUT_DIG_1_SEG_D*%
X70325000Y-108125000D02*
X70375000Y-108075000D01*
X56575000Y-109325000D02*
X56575000Y-123100000D01*
X56575000Y-123100000D02*
X56777914Y-123302914D01*
X69850000Y-108600000D02*
X57300000Y-108600000D01*
X57300000Y-108600000D02*
X56575000Y-109325000D01*
X70375000Y-108075000D02*
X70375000Y-108050000D01*
X56777914Y-123302914D02*
X58758889Y-123302914D01*
X70400000Y-108050000D02*
X69850000Y-108600000D01*
X70375000Y-108050000D02*
X70400000Y-108050000D01*
%TO.N,OUT_DIG_1_SEG_E*%
X58454445Y-120197085D02*
X58758889Y-120197085D01*
X71300000Y-108400000D02*
X71300000Y-108575000D01*
X59350000Y-109050000D02*
X58000000Y-110400000D01*
X58000000Y-110400000D02*
X58000000Y-119742640D01*
X58000000Y-119742640D02*
X58454445Y-120197085D01*
X71075000Y-108400000D02*
X71300000Y-108400000D01*
X71300000Y-108575000D02*
X70825000Y-109050000D01*
X70825000Y-109050000D02*
X59350000Y-109050000D01*
%TO.N,OUT_DIG_1_SEG_F*%
X72200000Y-108900000D02*
X72200000Y-109025000D01*
X60750000Y-109500000D02*
X59450000Y-110800000D01*
X59450000Y-116949999D02*
X60007360Y-117507359D01*
X72200000Y-109025000D02*
X71725000Y-109500000D01*
X71975000Y-108825000D02*
X72200000Y-108900000D01*
X59450000Y-110800000D02*
X59450000Y-116949999D01*
X60007360Y-117507359D02*
X60311804Y-117507359D01*
X71725000Y-109500000D02*
X60750000Y-109500000D01*
%TO.N,OUT_DIG_1_SEG_G*%
X73075000Y-109300000D02*
X73075000Y-109175000D01*
X63475000Y-109925000D02*
X72325000Y-109925000D01*
X62697086Y-115954445D02*
X62525000Y-115782359D01*
X62525000Y-110875000D02*
X63475000Y-109925000D01*
X62525000Y-115782359D02*
X62525000Y-110875000D01*
X72325000Y-109925000D02*
X72950000Y-109300000D01*
X72950000Y-109300000D02*
X73075000Y-109300000D01*
X73075000Y-109175000D02*
X72975000Y-109275000D01*
%TO.N,OUT_DIG_2_SEG_A*%
X99447085Y-110672085D02*
X99447085Y-115427915D01*
X99025000Y-110250000D02*
X99447085Y-110672085D01*
X98920555Y-115954445D02*
X97802915Y-115954445D01*
X99447085Y-115427915D02*
X98920555Y-115954445D01*
%TO.N,OUT_DIG_2_SEG_B*%
X100300000Y-110050000D02*
X100300000Y-117314719D01*
X100300000Y-117314719D02*
X100492641Y-117507360D01*
X100100000Y-109850000D02*
X100300000Y-110050000D01*
%TO.N,OUT_DIG_2_SEG_C*%
X101050000Y-109550000D02*
X101050000Y-115075000D01*
X104125000Y-115325000D02*
X104575000Y-115775000D01*
X104575000Y-122875000D02*
X104147085Y-123302915D01*
X101050000Y-115075000D02*
X101300000Y-115325000D01*
X101300000Y-115325000D02*
X104125000Y-115325000D01*
X104575000Y-115775000D02*
X104575000Y-122875000D01*
X104147085Y-123302915D02*
X102045555Y-123302915D01*
%TO.N,OUT_DIG_2_SEG_D*%
X88702914Y-123302914D02*
X90454445Y-123302914D01*
X88205000Y-105515000D02*
X88205000Y-122805000D01*
X88205000Y-122805000D02*
X88702914Y-123302914D01*
%TO.N,OUT_DIG_2_SEG_E*%
X89450000Y-104270000D02*
X89450000Y-119975000D01*
X89450000Y-119975000D02*
X89672085Y-120197085D01*
X89672085Y-120197085D02*
X90454445Y-120197085D01*
X90745000Y-102975000D02*
X89450000Y-104270000D01*
%TO.N,OUT_DIG_2_SEG_F*%
X90745000Y-117020000D02*
X91232359Y-117507359D01*
X90745000Y-105515000D02*
X90745000Y-117020000D01*
X91232359Y-117507359D02*
X92007360Y-117507359D01*
%TO.N,OUT_DIG_2_SEG_G*%
X92025000Y-104235000D02*
X93285000Y-102975000D01*
X94325000Y-109300000D02*
X92350000Y-109300000D01*
X92025000Y-108975000D02*
X92025000Y-104235000D01*
X92350000Y-109300000D02*
X92025000Y-108975000D01*
X94697086Y-115954445D02*
X94697086Y-109672086D01*
X94697086Y-109672086D02*
X94325000Y-109300000D01*
%TO.N,OUT_DIG_3_SEG_A*%
X123194163Y-115630837D02*
X122870555Y-115954445D01*
X93285000Y-105515000D02*
X93285000Y-108410000D01*
X93775000Y-108900000D02*
X110756372Y-108900000D01*
X122525000Y-106500000D02*
X123194163Y-107169163D01*
X113156372Y-106500000D02*
X122525000Y-106500000D01*
X110756372Y-108900000D02*
X113156372Y-106500000D01*
X122870555Y-115954445D02*
X121802915Y-115954445D01*
X93285000Y-108410000D02*
X93775000Y-108900000D01*
X123194163Y-107169163D02*
X123194163Y-115630837D01*
%TO.N,OUT_DIG_3_SEG_B*%
X112990686Y-106100000D02*
X125125000Y-106100000D01*
X110590686Y-108500000D02*
X112990686Y-106100000D01*
X94550000Y-107725000D02*
X95325000Y-108500000D01*
X95325000Y-108500000D02*
X110590686Y-108500000D01*
X125917640Y-117507360D02*
X124492641Y-117507360D01*
X126125000Y-117300000D02*
X125917640Y-117507360D01*
X126125000Y-107100000D02*
X126125000Y-117300000D01*
X94550000Y-104250000D02*
X94550000Y-107725000D01*
X95825000Y-102975000D02*
X94550000Y-104250000D01*
X125125000Y-106100000D02*
X126125000Y-107100000D01*
%TO.N,OUT_DIG_3_SEG_C*%
X95825000Y-107650000D02*
X96275000Y-108100000D01*
X129497085Y-123302915D02*
X126045555Y-123302915D01*
X130175000Y-122625000D02*
X129497085Y-123302915D01*
X112825000Y-105700000D02*
X127175000Y-105700000D01*
X127175000Y-105700000D02*
X130175000Y-108700000D01*
X95825000Y-105515000D02*
X95825000Y-107650000D01*
X130175000Y-108700000D02*
X130175000Y-122625000D01*
X110425000Y-108100000D02*
X112825000Y-105700000D01*
X96275000Y-108100000D02*
X110425000Y-108100000D01*
%TO.N,OUT_DIG_3_SEG_D*%
X114250000Y-112775000D02*
X112500000Y-114525000D01*
X118313462Y-112361538D02*
X117900000Y-112775000D01*
X112500000Y-114525000D02*
X112500000Y-123000000D01*
X118313462Y-107188462D02*
X118313462Y-112361538D01*
X118225000Y-107100000D02*
X118313462Y-107188462D01*
X117900000Y-112775000D02*
X114250000Y-112775000D01*
X112802914Y-123302914D02*
X114454445Y-123302914D01*
X112500000Y-123000000D02*
X112802914Y-123302914D01*
%TO.N,OUT_DIG_3_SEG_E*%
X119075000Y-107100000D02*
X118975000Y-107200000D01*
X118975000Y-112850000D02*
X118650000Y-113175000D01*
X114000000Y-114025000D02*
X114000000Y-119742640D01*
X114850000Y-113175000D02*
X114000000Y-114025000D01*
X118650000Y-113175000D02*
X114850000Y-113175000D01*
X118975000Y-107200000D02*
X118975000Y-112850000D01*
X114000000Y-119742640D02*
X114454445Y-120197085D01*
%TO.N,OUT_DIG_3_SEG_F*%
X119400000Y-113575000D02*
X116325000Y-113575000D01*
X119688334Y-107286669D02*
X119688334Y-113286666D01*
X116325000Y-113575000D02*
X116007360Y-113892640D01*
X116007360Y-113892640D02*
X116007360Y-117507359D01*
X119875003Y-107100000D02*
X119688334Y-107286669D01*
X119688334Y-113286666D02*
X119400000Y-113575000D01*
%TO.N,OUT_DIG_3_SEG_G*%
X120123532Y-107700000D02*
X120088334Y-107700000D01*
X120475003Y-107348529D02*
X120123532Y-107700000D01*
X120675006Y-107100000D02*
X120475003Y-107300003D01*
X120088334Y-115761666D02*
X119895555Y-115954445D01*
X120088334Y-107700000D02*
X120088334Y-115761666D01*
X120475003Y-107300003D02*
X120475003Y-107348529D01*
X119895555Y-115954445D02*
X118697086Y-115954445D01*
D26*
%TO.N,-BATT*%
X123154445Y-127545555D02*
X123170555Y-127545555D01*
X123170555Y-127545555D02*
X124150000Y-128525000D01*
X124550000Y-129025000D02*
X124400000Y-128875000D01*
X124400000Y-129300000D02*
X123950000Y-129750000D01*
X124550000Y-129025000D02*
X124400000Y-129175000D01*
X124400000Y-129175000D02*
X124400000Y-129300000D01*
X123145555Y-127545555D02*
X123150000Y-127550000D01*
X121802914Y-127545555D02*
X123145555Y-127545555D01*
X124173607Y-128525000D02*
X124150000Y-128525000D01*
X124400000Y-128875000D02*
X124400000Y-128751393D01*
X123150000Y-127550000D02*
X123154445Y-127545555D01*
X65802914Y-128477914D02*
X65802914Y-127545555D01*
X124400000Y-128751393D02*
X124173607Y-128525000D01*
X123950000Y-129750000D02*
X67075000Y-129750000D01*
X67075000Y-129750000D02*
X65802914Y-128477914D01*
%TD*%
%TA.AperFunction,Conductor*%
%TO.N,GND*%
G36*
X20955703Y-141096308D02*
G01*
X20993477Y-141155086D01*
X20997378Y-141173376D01*
X21022378Y-141357938D01*
X21118313Y-141778258D01*
X21251542Y-142188296D01*
X21251545Y-142188304D01*
X21420985Y-142584730D01*
X21420989Y-142584738D01*
X21625294Y-142964399D01*
X21862799Y-143324207D01*
X21862800Y-143324208D01*
X22131608Y-143661282D01*
X22182223Y-143714221D01*
X24063103Y-141833341D01*
X24175031Y-141970918D01*
X24389990Y-142171676D01*
X24414544Y-142189008D01*
X22536877Y-144066675D01*
X22754227Y-144256569D01*
X22754244Y-144256582D01*
X23103024Y-144509986D01*
X23473140Y-144731120D01*
X23473146Y-144731123D01*
X23861569Y-144918178D01*
X23861583Y-144918184D01*
X24265209Y-145069667D01*
X24265234Y-145069675D01*
X24680816Y-145184369D01*
X25061718Y-145253493D01*
X25124165Y-145284831D01*
X25159756Y-145344957D01*
X25157191Y-145414779D01*
X25117285Y-145472131D01*
X25052706Y-145498803D01*
X25039577Y-145499500D01*
X20874500Y-145499500D01*
X20807461Y-145479815D01*
X20761706Y-145427011D01*
X20750500Y-145375500D01*
X20750500Y-141190021D01*
X20770185Y-141122982D01*
X20822989Y-141077227D01*
X20892147Y-141067283D01*
X20955703Y-141096308D01*
G37*
%TD.AperFunction*%
%TA.AperFunction,Conductor*%
G36*
X134106616Y-98020185D02*
G01*
X134152371Y-98072989D01*
X134162315Y-98142147D01*
X134133290Y-98205703D01*
X134074512Y-98243477D01*
X134061718Y-98246507D01*
X133680816Y-98315630D01*
X133265234Y-98430324D01*
X133265209Y-98430332D01*
X132861583Y-98581815D01*
X132861569Y-98581821D01*
X132473146Y-98768876D01*
X132473140Y-98768879D01*
X132103024Y-98990013D01*
X131754235Y-99243423D01*
X131536877Y-99433322D01*
X131536877Y-99433323D01*
X133414545Y-101310991D01*
X133389990Y-101328324D01*
X133175031Y-101529082D01*
X133063104Y-101666657D01*
X131182223Y-99785777D01*
X131131624Y-99838699D01*
X131131612Y-99838712D01*
X130862800Y-100175791D01*
X130862799Y-100175792D01*
X130625294Y-100535600D01*
X130420989Y-100915261D01*
X130420985Y-100915269D01*
X130251545Y-101311695D01*
X130251542Y-101311703D01*
X130118313Y-101721741D01*
X130022378Y-102142061D01*
X129964505Y-102569298D01*
X129964504Y-102569307D01*
X129945162Y-102999996D01*
X129945162Y-103000003D01*
X129964504Y-103430692D01*
X129964505Y-103430701D01*
X130022378Y-103857938D01*
X130118313Y-104278258D01*
X130251542Y-104688296D01*
X130251545Y-104688304D01*
X130420985Y-105084730D01*
X130420989Y-105084738D01*
X130625294Y-105464399D01*
X130862799Y-105824207D01*
X130862800Y-105824208D01*
X131131608Y-106161282D01*
X131182223Y-106214221D01*
X133063103Y-104333341D01*
X133175031Y-104470918D01*
X133389990Y-104671676D01*
X133414544Y-104689008D01*
X131536877Y-106566675D01*
X131754227Y-106756569D01*
X131754244Y-106756582D01*
X132103024Y-107009986D01*
X132473140Y-107231120D01*
X132473146Y-107231123D01*
X132861569Y-107418178D01*
X132861583Y-107418184D01*
X133265209Y-107569667D01*
X133265234Y-107569675D01*
X133680816Y-107684369D01*
X134105023Y-107761351D01*
X134534435Y-107799999D01*
X134534438Y-107800000D01*
X134965562Y-107800000D01*
X134965564Y-107799999D01*
X135394976Y-107761351D01*
X135819183Y-107684369D01*
X136234765Y-107569675D01*
X136234790Y-107569667D01*
X136638416Y-107418184D01*
X136638430Y-107418178D01*
X137026853Y-107231123D01*
X137026859Y-107231120D01*
X137396975Y-107009986D01*
X137745755Y-106756582D01*
X137745772Y-106756569D01*
X137963121Y-106566675D01*
X136085455Y-104689008D01*
X136110010Y-104671676D01*
X136324969Y-104470918D01*
X136436895Y-104333342D01*
X138317775Y-106214222D01*
X138317776Y-106214222D01*
X138368386Y-106161289D01*
X138368386Y-106161288D01*
X138637199Y-105824208D01*
X138637200Y-105824207D01*
X138874705Y-105464399D01*
X139079010Y-105084738D01*
X139079014Y-105084730D01*
X139248454Y-104688304D01*
X139248457Y-104688296D01*
X139381686Y-104278258D01*
X139477621Y-103857938D01*
X139502622Y-103673376D01*
X139531128Y-103609586D01*
X139589595Y-103571333D01*
X139659463Y-103570763D01*
X139718547Y-103608056D01*
X139748090Y-103671373D01*
X139749500Y-103690021D01*
X139749500Y-139809978D01*
X139729815Y-139877017D01*
X139677011Y-139922772D01*
X139607853Y-139932716D01*
X139544297Y-139903691D01*
X139506523Y-139844913D01*
X139502622Y-139826623D01*
X139477621Y-139642061D01*
X139381686Y-139221741D01*
X139248457Y-138811703D01*
X139248454Y-138811695D01*
X139079014Y-138415269D01*
X139079010Y-138415261D01*
X138874705Y-138035600D01*
X138637200Y-137675792D01*
X138637199Y-137675791D01*
X138368391Y-137338717D01*
X138317774Y-137285776D01*
X136436894Y-139166656D01*
X136324969Y-139029082D01*
X136110010Y-138828324D01*
X136085453Y-138810990D01*
X137963121Y-136933323D01*
X137745772Y-136743430D01*
X137745755Y-136743417D01*
X137396975Y-136490013D01*
X137026859Y-136268879D01*
X137026853Y-136268876D01*
X136638430Y-136081821D01*
X136638416Y-136081815D01*
X136234790Y-135930332D01*
X136234765Y-135930324D01*
X135819183Y-135815630D01*
X135394976Y-135738648D01*
X134965564Y-135700000D01*
X134534435Y-135700000D01*
X134105023Y-135738648D01*
X133680816Y-135815630D01*
X133265234Y-135930324D01*
X133265209Y-135930332D01*
X132861583Y-136081815D01*
X132861569Y-136081821D01*
X132473146Y-136268876D01*
X132473140Y-136268879D01*
X132103024Y-136490013D01*
X131754235Y-136743423D01*
X131536877Y-136933322D01*
X131536877Y-136933323D01*
X133414545Y-138810991D01*
X133389990Y-138828324D01*
X133175031Y-139029082D01*
X133063104Y-139166657D01*
X131182223Y-137285777D01*
X131131624Y-137338699D01*
X131131612Y-137338712D01*
X130862800Y-137675791D01*
X130862799Y-137675792D01*
X130625294Y-138035600D01*
X130420989Y-138415261D01*
X130420985Y-138415269D01*
X130251545Y-138811695D01*
X130251542Y-138811703D01*
X130118313Y-139221741D01*
X130022378Y-139642061D01*
X129964505Y-140069298D01*
X129964504Y-140069307D01*
X129945162Y-140499996D01*
X129945162Y-140500003D01*
X129964504Y-140930692D01*
X129964505Y-140930701D01*
X130022378Y-141357938D01*
X130118313Y-141778258D01*
X130251542Y-142188296D01*
X130251545Y-142188304D01*
X130420985Y-142584730D01*
X130420989Y-142584738D01*
X130625294Y-142964399D01*
X130862799Y-143324207D01*
X130862800Y-143324208D01*
X131131608Y-143661282D01*
X131182223Y-143714221D01*
X133063103Y-141833341D01*
X133175031Y-141970918D01*
X133389990Y-142171676D01*
X133414544Y-142189008D01*
X131536877Y-144066675D01*
X131754227Y-144256569D01*
X131754244Y-144256582D01*
X132103024Y-144509986D01*
X132473140Y-144731120D01*
X132473146Y-144731123D01*
X132861569Y-144918178D01*
X132861583Y-144918184D01*
X133265209Y-145069667D01*
X133265234Y-145069675D01*
X133680816Y-145184369D01*
X134061718Y-145253493D01*
X134124165Y-145284831D01*
X134159756Y-145344957D01*
X134157191Y-145414779D01*
X134117285Y-145472131D01*
X134052706Y-145498803D01*
X134039577Y-145499500D01*
X26460423Y-145499500D01*
X26393384Y-145479815D01*
X26347629Y-145427011D01*
X26337685Y-145357853D01*
X26366710Y-145294297D01*
X26425488Y-145256523D01*
X26438282Y-145253493D01*
X26819183Y-145184369D01*
X27234765Y-145069675D01*
X27234790Y-145069667D01*
X27638416Y-144918184D01*
X27638430Y-144918178D01*
X28026853Y-144731123D01*
X28026859Y-144731120D01*
X28396975Y-144509986D01*
X28745755Y-144256582D01*
X28745772Y-144256569D01*
X28963121Y-144066675D01*
X27085455Y-142189008D01*
X27110010Y-142171676D01*
X27324969Y-141970918D01*
X27436895Y-141833342D01*
X29317775Y-143714222D01*
X29317776Y-143714222D01*
X29368386Y-143661289D01*
X29368386Y-143661288D01*
X29637199Y-143324208D01*
X29637200Y-143324207D01*
X29874705Y-142964399D01*
X30079010Y-142584738D01*
X30079014Y-142584730D01*
X30248454Y-142188304D01*
X30248457Y-142188296D01*
X30381686Y-141778258D01*
X30477621Y-141357938D01*
X30535494Y-140930701D01*
X30535495Y-140930692D01*
X30554838Y-140500003D01*
X30554838Y-140499996D01*
X30535495Y-140069307D01*
X30535494Y-140069298D01*
X30477621Y-139642061D01*
X30381686Y-139221741D01*
X30248457Y-138811703D01*
X30248454Y-138811695D01*
X30079014Y-138415269D01*
X30079010Y-138415261D01*
X29874705Y-138035600D01*
X29637200Y-137675792D01*
X29637199Y-137675791D01*
X29368391Y-137338717D01*
X29317774Y-137285776D01*
X27436894Y-139166656D01*
X27324969Y-139029082D01*
X27110010Y-138828324D01*
X27085453Y-138810990D01*
X28963121Y-136933323D01*
X28745772Y-136743430D01*
X28745755Y-136743417D01*
X28396975Y-136490013D01*
X28026859Y-136268879D01*
X28026853Y-136268876D01*
X27638430Y-136081821D01*
X27638416Y-136081815D01*
X27234790Y-135930332D01*
X27234765Y-135930324D01*
X26819183Y-135815630D01*
X26394976Y-135738648D01*
X25965564Y-135700000D01*
X25534435Y-135700000D01*
X25105023Y-135738648D01*
X24680816Y-135815630D01*
X24265234Y-135930324D01*
X24265209Y-135930332D01*
X23861583Y-136081815D01*
X23861569Y-136081821D01*
X23473146Y-136268876D01*
X23473140Y-136268879D01*
X23103024Y-136490013D01*
X22754235Y-136743423D01*
X22536877Y-136933322D01*
X22536877Y-136933323D01*
X24414545Y-138810991D01*
X24389990Y-138828324D01*
X24175031Y-139029082D01*
X24063104Y-139166657D01*
X22182223Y-137285777D01*
X22131624Y-137338699D01*
X22131612Y-137338712D01*
X21862800Y-137675791D01*
X21862799Y-137675792D01*
X21625294Y-138035600D01*
X21420989Y-138415261D01*
X21420985Y-138415269D01*
X21251545Y-138811695D01*
X21251542Y-138811703D01*
X21118313Y-139221741D01*
X21022378Y-139642061D01*
X20997378Y-139826623D01*
X20968872Y-139890413D01*
X20910404Y-139928666D01*
X20840537Y-139929236D01*
X20781453Y-139891943D01*
X20751910Y-139828626D01*
X20750500Y-139809978D01*
X20750500Y-126252437D01*
X34397559Y-126252437D01*
X34402658Y-126479634D01*
X34406869Y-126500201D01*
X34448242Y-126702268D01*
X34448244Y-126702276D01*
X34532848Y-126913189D01*
X34653756Y-127105612D01*
X34733563Y-127192924D01*
X34807076Y-127273350D01*
X34946728Y-127379681D01*
X34987888Y-127411020D01*
X35190367Y-127514187D01*
X35190371Y-127514189D01*
X35408023Y-127579548D01*
X35633848Y-127604992D01*
X35633850Y-127604991D01*
X35633852Y-127604992D01*
X35677389Y-127602056D01*
X35860588Y-127589704D01*
X36080954Y-127534177D01*
X36287863Y-127440194D01*
X36474667Y-127310777D01*
X36720742Y-127064702D01*
X40409043Y-127064702D01*
X40427720Y-127291187D01*
X40712715Y-128354799D01*
X40724413Y-128398457D01*
X40783067Y-128558365D01*
X40898163Y-128754317D01*
X41046393Y-128926563D01*
X41046396Y-128926566D01*
X41046397Y-128926567D01*
X41073651Y-128948637D01*
X41223006Y-129069583D01*
X41422313Y-129178765D01*
X41637907Y-129250603D01*
X41637911Y-129250603D01*
X41637915Y-129250605D01*
X41862877Y-129282793D01*
X41862879Y-129282792D01*
X41862880Y-129282793D01*
X41931005Y-129280243D01*
X42089973Y-129274296D01*
X42311901Y-129225386D01*
X42521530Y-129137635D01*
X42712121Y-129013863D01*
X42877550Y-128858049D01*
X43012497Y-128675201D01*
X43112627Y-128471195D01*
X43174723Y-128252589D01*
X43196785Y-128026408D01*
X43178108Y-127799923D01*
X42881416Y-126692656D01*
X42822762Y-126532748D01*
X42822760Y-126532744D01*
X42707667Y-126336797D01*
X42707666Y-126336796D01*
X42559433Y-126164545D01*
X42559432Y-126164544D01*
X42382821Y-126021526D01*
X42183514Y-125912344D01*
X41967920Y-125840506D01*
X41967915Y-125840505D01*
X41742947Y-125808316D01*
X41515853Y-125816814D01*
X41293929Y-125865723D01*
X41084303Y-125953472D01*
X41084299Y-125953474D01*
X41084298Y-125953475D01*
X41078410Y-125957299D01*
X40893707Y-126077247D01*
X40728281Y-126233057D01*
X40593330Y-126415911D01*
X40593329Y-126415913D01*
X40493198Y-126619922D01*
X40431106Y-126838517D01*
X40431104Y-126838530D01*
X40409043Y-127064692D01*
X40409043Y-127064699D01*
X40409043Y-127064702D01*
X36720742Y-127064702D01*
X37285242Y-126500202D01*
X37394399Y-126369452D01*
X37506551Y-126171800D01*
X37581609Y-125957298D01*
X37617159Y-125732842D01*
X37614607Y-125619134D01*
X42880287Y-125619134D01*
X42887955Y-125732845D01*
X42895576Y-125845870D01*
X42900579Y-125865725D01*
X42951103Y-126066238D01*
X43035680Y-126252437D01*
X43045086Y-126273145D01*
X43174503Y-126459949D01*
X43985078Y-127270524D01*
X44115828Y-127379681D01*
X44115829Y-127379682D01*
X44115831Y-127379683D01*
X44183850Y-127418278D01*
X44313480Y-127491833D01*
X44527982Y-127566891D01*
X44752438Y-127602441D01*
X44979634Y-127597342D01*
X45202271Y-127551757D01*
X45413188Y-127467152D01*
X45605610Y-127346245D01*
X45773350Y-127192924D01*
X45911019Y-127012115D01*
X46014190Y-126809629D01*
X46046429Y-126702270D01*
X46079548Y-126591978D01*
X46079548Y-126591975D01*
X46085089Y-126542799D01*
X46104992Y-126366152D01*
X46097325Y-126252437D01*
X58397559Y-126252437D01*
X58402658Y-126479634D01*
X58406869Y-126500201D01*
X58448242Y-126702268D01*
X58448244Y-126702276D01*
X58532848Y-126913189D01*
X58653756Y-127105612D01*
X58733563Y-127192924D01*
X58807076Y-127273350D01*
X58946728Y-127379681D01*
X58987888Y-127411020D01*
X59190367Y-127514187D01*
X59190371Y-127514189D01*
X59408023Y-127579548D01*
X59633848Y-127604992D01*
X59633850Y-127604991D01*
X59633852Y-127604992D01*
X59677389Y-127602056D01*
X59860588Y-127589704D01*
X60080954Y-127534177D01*
X60287863Y-127440194D01*
X60474667Y-127310777D01*
X60720742Y-127064702D01*
X64409043Y-127064702D01*
X64427720Y-127291187D01*
X64712715Y-128354799D01*
X64724413Y-128398457D01*
X64734039Y-128424700D01*
X64783066Y-128558362D01*
X64796413Y-128581085D01*
X64812854Y-128631336D01*
X64817839Y-128680344D01*
X64817841Y-128680358D01*
X64826947Y-128709382D01*
X64830686Y-128724615D01*
X64836056Y-128754567D01*
X64836056Y-128754569D01*
X64843615Y-128773491D01*
X64853271Y-128797666D01*
X64857934Y-128809338D01*
X64861091Y-128818206D01*
X64878755Y-128874502D01*
X64878756Y-128874503D01*
X64878758Y-128874509D01*
X64893517Y-128901099D01*
X64900250Y-128915275D01*
X64911536Y-128943528D01*
X64911541Y-128943538D01*
X64943994Y-128992780D01*
X64948876Y-129000837D01*
X64977502Y-129052412D01*
X64977503Y-129052414D01*
X64977505Y-129052416D01*
X64997324Y-129075502D01*
X65006769Y-129088029D01*
X65023513Y-129113435D01*
X65065213Y-129155134D01*
X65071618Y-129162045D01*
X65106278Y-129202418D01*
X65110048Y-129206809D01*
X65134048Y-129225386D01*
X65134101Y-129225427D01*
X65145882Y-129235803D01*
X66357450Y-130447371D01*
X66359643Y-130449620D01*
X66419940Y-130513052D01*
X66419947Y-130513058D01*
X66468352Y-130546748D01*
X66475869Y-130552415D01*
X66521593Y-130589698D01*
X66548565Y-130603786D01*
X66561980Y-130611915D01*
X66586951Y-130629295D01*
X66615105Y-130641377D01*
X66641163Y-130652559D01*
X66649652Y-130656590D01*
X66701951Y-130683909D01*
X66723998Y-130690216D01*
X66731184Y-130692273D01*
X66745976Y-130697539D01*
X66773939Y-130709539D01*
X66773942Y-130709540D01*
X66831727Y-130721414D01*
X66840869Y-130723657D01*
X66897582Y-130739886D01*
X66927918Y-130742196D01*
X66943457Y-130744376D01*
X66973255Y-130750500D01*
X66973259Y-130750500D01*
X67032244Y-130750500D01*
X67041659Y-130750857D01*
X67100476Y-130755337D01*
X67130651Y-130751493D01*
X67146318Y-130750500D01*
X123935721Y-130750500D01*
X123938863Y-130750540D01*
X124026358Y-130752757D01*
X124026358Y-130752756D01*
X124026363Y-130752757D01*
X124084425Y-130742349D01*
X124093754Y-130741041D01*
X124152438Y-130735074D01*
X124181471Y-130725964D01*
X124196700Y-130722226D01*
X124226653Y-130716858D01*
X124226657Y-130716856D01*
X124226659Y-130716856D01*
X124281423Y-130694980D01*
X124290292Y-130691821D01*
X124346588Y-130674159D01*
X124373200Y-130659387D01*
X124387362Y-130652662D01*
X124415617Y-130641377D01*
X124464879Y-130608909D01*
X124472910Y-130604043D01*
X124524502Y-130575409D01*
X124524509Y-130575402D01*
X124524512Y-130575401D01*
X124547583Y-130555594D01*
X124560125Y-130546137D01*
X124585519Y-130529402D01*
X124627219Y-130487701D01*
X124634131Y-130481295D01*
X124673647Y-130447371D01*
X124678895Y-130442866D01*
X124697524Y-130418798D01*
X124707884Y-130407035D01*
X125097391Y-130017527D01*
X125099560Y-130015412D01*
X125163053Y-129955059D01*
X125196752Y-129906641D01*
X125202428Y-129899113D01*
X125239698Y-129853407D01*
X125253782Y-129826444D01*
X125261919Y-129813013D01*
X125279292Y-129788053D01*
X125279295Y-129788049D01*
X125302563Y-129733825D01*
X125306582Y-129725361D01*
X125333909Y-129673049D01*
X125338456Y-129657156D01*
X125361571Y-129612900D01*
X125389698Y-129578407D01*
X125397158Y-129564123D01*
X125407118Y-129548143D01*
X125416649Y-129535167D01*
X125447229Y-129468611D01*
X125449981Y-129462998D01*
X125483909Y-129398049D01*
X125488339Y-129382567D01*
X125494881Y-129364901D01*
X125501605Y-129350268D01*
X125518166Y-129278897D01*
X125519728Y-129272866D01*
X125539887Y-129202418D01*
X125541110Y-129186358D01*
X125543962Y-129167737D01*
X125546887Y-129155134D01*
X125547602Y-129152054D01*
X125549457Y-129078823D01*
X125549775Y-129072557D01*
X125550002Y-129069583D01*
X125555337Y-128999524D01*
X125554979Y-128996717D01*
X125553303Y-128983557D01*
X125552348Y-128964742D01*
X125552757Y-128948637D01*
X125539829Y-128876511D01*
X125538886Y-128870356D01*
X125529630Y-128797672D01*
X125524418Y-128782427D01*
X125519698Y-128764198D01*
X125516858Y-128748347D01*
X125489683Y-128680318D01*
X125487507Y-128674439D01*
X125472480Y-128630477D01*
X125463816Y-128605128D01*
X125461993Y-128602032D01*
X125461546Y-128601272D01*
X125455644Y-128591246D01*
X125447350Y-128574337D01*
X125441379Y-128559387D01*
X125441378Y-128559386D01*
X125441377Y-128559383D01*
X125401062Y-128498212D01*
X125397754Y-128492906D01*
X125384973Y-128471195D01*
X125360590Y-128429773D01*
X125360589Y-128429772D01*
X125360588Y-128429770D01*
X125359000Y-128428013D01*
X125357949Y-128426174D01*
X125356866Y-128424700D01*
X125357034Y-128424576D01*
X125332691Y-128382000D01*
X125324157Y-128354799D01*
X125309396Y-128328207D01*
X125302659Y-128314022D01*
X125291378Y-128285778D01*
X125291375Y-128285773D01*
X125258918Y-128236524D01*
X125254036Y-128228467D01*
X125225409Y-128176891D01*
X125205588Y-128153803D01*
X125196144Y-128141278D01*
X125179402Y-128115874D01*
X125137699Y-128074171D01*
X125131294Y-128067261D01*
X125096224Y-128026410D01*
X125092866Y-128022498D01*
X125068800Y-128003869D01*
X125057037Y-127993509D01*
X124891132Y-127827605D01*
X124889017Y-127825436D01*
X124871689Y-127807208D01*
X124839771Y-127745058D01*
X124846519Y-127675515D01*
X124889794Y-127620660D01*
X124955856Y-127597910D01*
X124958717Y-127597811D01*
X124979634Y-127597342D01*
X125202271Y-127551757D01*
X125413188Y-127467152D01*
X125605610Y-127346245D01*
X125773350Y-127192924D01*
X125911019Y-127012115D01*
X126014190Y-126809629D01*
X126046429Y-126702270D01*
X126079548Y-126591978D01*
X126079548Y-126591975D01*
X126085089Y-126542799D01*
X126104992Y-126366152D01*
X126089704Y-126139412D01*
X126034177Y-125919046D01*
X126031133Y-125912345D01*
X125949600Y-125732845D01*
X125940194Y-125712137D01*
X125810777Y-125525333D01*
X125000202Y-124714758D01*
X124978672Y-124696784D01*
X124877870Y-124612629D01*
X124869452Y-124605601D01*
X124869450Y-124605600D01*
X124869448Y-124605598D01*
X124705369Y-124512497D01*
X124671800Y-124493449D01*
X124457298Y-124418392D01*
X124457295Y-124418391D01*
X124457294Y-124418391D01*
X124232847Y-124382841D01*
X124232835Y-124382841D01*
X124005646Y-124387940D01*
X123783011Y-124433524D01*
X123783003Y-124433526D01*
X123572090Y-124518130D01*
X123379667Y-124639038D01*
X123211932Y-124792355D01*
X123074259Y-124973170D01*
X122971092Y-125175648D01*
X122971092Y-125175649D01*
X122905731Y-125393306D01*
X122880288Y-125619123D01*
X122880287Y-125619134D01*
X122887955Y-125732845D01*
X122895576Y-125845870D01*
X122900579Y-125865725D01*
X122951103Y-126066238D01*
X123045084Y-126273141D01*
X123045087Y-126273147D01*
X123098635Y-126350439D01*
X123120632Y-126416756D01*
X123103284Y-126484437D01*
X123052098Y-126531996D01*
X122996707Y-126545055D01*
X122900965Y-126545055D01*
X122833926Y-126525370D01*
X122794045Y-126483857D01*
X122707667Y-126336797D01*
X122707666Y-126336796D01*
X122559433Y-126164545D01*
X122559432Y-126164544D01*
X122382821Y-126021526D01*
X122183514Y-125912344D01*
X121967920Y-125840506D01*
X121967915Y-125840505D01*
X121742947Y-125808316D01*
X121515853Y-125816814D01*
X121293929Y-125865723D01*
X121084303Y-125953472D01*
X121084299Y-125953474D01*
X121084298Y-125953475D01*
X121078410Y-125957299D01*
X120893707Y-126077247D01*
X120728281Y-126233057D01*
X120593330Y-126415911D01*
X120593329Y-126415913D01*
X120493198Y-126619922D01*
X120431106Y-126838517D01*
X120431104Y-126838530D01*
X120409043Y-127064692D01*
X120409043Y-127064699D01*
X120409043Y-127064702D01*
X120427720Y-127291187D01*
X120712715Y-128354799D01*
X120724413Y-128398457D01*
X120783068Y-128558368D01*
X120785614Y-128562702D01*
X120802592Y-128630477D01*
X120780233Y-128696672D01*
X120725635Y-128740271D01*
X120678692Y-128749500D01*
X99175022Y-128749500D01*
X99107983Y-128729815D01*
X99062228Y-128677011D01*
X99052284Y-128607853D01*
X99063707Y-128570865D01*
X99112627Y-128471195D01*
X99174723Y-128252589D01*
X99196785Y-128026408D01*
X99178108Y-127799923D01*
X98881416Y-126692656D01*
X98822762Y-126532748D01*
X98822760Y-126532744D01*
X98707667Y-126336797D01*
X98707666Y-126336796D01*
X98559433Y-126164545D01*
X98559432Y-126164544D01*
X98382821Y-126021526D01*
X98183514Y-125912344D01*
X97967920Y-125840506D01*
X97967915Y-125840505D01*
X97742947Y-125808316D01*
X97515853Y-125816814D01*
X97293929Y-125865723D01*
X97084303Y-125953472D01*
X97084299Y-125953474D01*
X97084298Y-125953475D01*
X97078410Y-125957299D01*
X96893707Y-126077247D01*
X96728281Y-126233057D01*
X96593330Y-126415911D01*
X96593329Y-126415913D01*
X96493198Y-126619922D01*
X96431106Y-126838517D01*
X96431104Y-126838530D01*
X96409043Y-127064692D01*
X96409043Y-127064699D01*
X96409043Y-127064702D01*
X96427720Y-127291187D01*
X96712715Y-128354799D01*
X96724413Y-128398457D01*
X96783068Y-128558368D01*
X96785614Y-128562702D01*
X96802592Y-128630477D01*
X96780233Y-128696672D01*
X96725635Y-128740271D01*
X96678692Y-128749500D01*
X67540783Y-128749500D01*
X67473744Y-128729815D01*
X67453102Y-128713181D01*
X67185915Y-128445994D01*
X67152430Y-128384671D01*
X67154314Y-128324433D01*
X67174723Y-128252589D01*
X67196785Y-128026408D01*
X67178108Y-127799923D01*
X66881416Y-126692656D01*
X66822762Y-126532748D01*
X66822760Y-126532744D01*
X66707667Y-126336797D01*
X66707666Y-126336796D01*
X66559433Y-126164545D01*
X66559432Y-126164544D01*
X66382821Y-126021526D01*
X66183514Y-125912344D01*
X65967920Y-125840506D01*
X65967915Y-125840505D01*
X65742947Y-125808316D01*
X65515853Y-125816814D01*
X65293929Y-125865723D01*
X65084303Y-125953472D01*
X65084299Y-125953474D01*
X65084298Y-125953475D01*
X65078410Y-125957299D01*
X64893707Y-126077247D01*
X64728281Y-126233057D01*
X64593330Y-126415911D01*
X64593329Y-126415913D01*
X64493198Y-126619922D01*
X64431106Y-126838517D01*
X64431104Y-126838530D01*
X64409043Y-127064692D01*
X64409043Y-127064699D01*
X64409043Y-127064702D01*
X60720742Y-127064702D01*
X61285242Y-126500202D01*
X61394399Y-126369452D01*
X61506551Y-126171800D01*
X61581609Y-125957298D01*
X61617159Y-125732842D01*
X61614607Y-125619134D01*
X66880287Y-125619134D01*
X66887955Y-125732845D01*
X66895576Y-125845870D01*
X66900579Y-125865725D01*
X66951103Y-126066238D01*
X67035680Y-126252437D01*
X67045086Y-126273145D01*
X67174503Y-126459949D01*
X67985078Y-127270524D01*
X68115828Y-127379681D01*
X68115829Y-127379682D01*
X68115831Y-127379683D01*
X68183850Y-127418278D01*
X68313480Y-127491833D01*
X68527982Y-127566891D01*
X68752438Y-127602441D01*
X68979634Y-127597342D01*
X69202271Y-127551757D01*
X69413188Y-127467152D01*
X69605610Y-127346245D01*
X69773350Y-127192924D01*
X69911019Y-127012115D01*
X70014190Y-126809629D01*
X70046429Y-126702270D01*
X70079548Y-126591978D01*
X70079548Y-126591975D01*
X70085089Y-126542799D01*
X70104992Y-126366152D01*
X70097325Y-126252437D01*
X90397559Y-126252437D01*
X90402658Y-126479634D01*
X90406869Y-126500201D01*
X90448242Y-126702268D01*
X90448244Y-126702276D01*
X90532848Y-126913189D01*
X90653756Y-127105612D01*
X90733563Y-127192924D01*
X90807076Y-127273350D01*
X90946728Y-127379681D01*
X90987888Y-127411020D01*
X91190367Y-127514187D01*
X91190371Y-127514189D01*
X91408023Y-127579548D01*
X91633848Y-127604992D01*
X91633850Y-127604991D01*
X91633852Y-127604992D01*
X91677389Y-127602056D01*
X91860588Y-127589704D01*
X92080954Y-127534177D01*
X92287863Y-127440194D01*
X92474667Y-127310777D01*
X93285242Y-126500202D01*
X93394399Y-126369452D01*
X93506551Y-126171800D01*
X93581609Y-125957298D01*
X93617159Y-125732842D01*
X93614607Y-125619134D01*
X98880287Y-125619134D01*
X98887955Y-125732845D01*
X98895576Y-125845870D01*
X98900579Y-125865725D01*
X98951103Y-126066238D01*
X99035680Y-126252437D01*
X99045086Y-126273145D01*
X99174503Y-126459949D01*
X99985078Y-127270524D01*
X100115828Y-127379681D01*
X100115829Y-127379682D01*
X100115831Y-127379683D01*
X100183850Y-127418278D01*
X100313480Y-127491833D01*
X100527982Y-127566891D01*
X100752438Y-127602441D01*
X100979634Y-127597342D01*
X101202271Y-127551757D01*
X101413188Y-127467152D01*
X101605610Y-127346245D01*
X101773350Y-127192924D01*
X101911019Y-127012115D01*
X102014190Y-126809629D01*
X102046429Y-126702270D01*
X102079548Y-126591978D01*
X102079548Y-126591975D01*
X102085089Y-126542799D01*
X102104992Y-126366152D01*
X102097325Y-126252437D01*
X114397559Y-126252437D01*
X114402658Y-126479634D01*
X114406869Y-126500201D01*
X114448242Y-126702268D01*
X114448244Y-126702276D01*
X114532848Y-126913189D01*
X114653756Y-127105612D01*
X114733563Y-127192924D01*
X114807076Y-127273350D01*
X114946728Y-127379681D01*
X114987888Y-127411020D01*
X115190367Y-127514187D01*
X115190371Y-127514189D01*
X115408023Y-127579548D01*
X115633848Y-127604992D01*
X115633850Y-127604991D01*
X115633852Y-127604992D01*
X115677389Y-127602056D01*
X115860588Y-127589704D01*
X116080954Y-127534177D01*
X116287863Y-127440194D01*
X116474667Y-127310777D01*
X117285242Y-126500202D01*
X117394399Y-126369452D01*
X117506551Y-126171800D01*
X117581609Y-125957298D01*
X117617159Y-125732842D01*
X117612060Y-125505646D01*
X117566475Y-125283009D01*
X117481870Y-125072092D01*
X117360963Y-124879670D01*
X117360962Y-124879669D01*
X117360961Y-124879667D01*
X117207644Y-124711931D01*
X117207638Y-124711926D01*
X117026832Y-124574260D01*
X117026828Y-124574258D01*
X116824346Y-124471089D01*
X116824342Y-124471087D01*
X116606695Y-124405731D01*
X116380876Y-124380288D01*
X116380865Y-124380287D01*
X116165015Y-124394842D01*
X116154130Y-124395576D01*
X116113829Y-124405731D01*
X115933761Y-124451103D01*
X115726858Y-124545084D01*
X115726852Y-124545087D01*
X115540050Y-124674503D01*
X114729475Y-125485078D01*
X114620316Y-125615831D01*
X114508169Y-125813476D01*
X114508167Y-125813480D01*
X114473573Y-125912345D01*
X114433109Y-126027985D01*
X114397559Y-126252432D01*
X114397559Y-126252437D01*
X102097325Y-126252437D01*
X102089704Y-126139412D01*
X102034177Y-125919046D01*
X102031133Y-125912345D01*
X101949600Y-125732845D01*
X101940194Y-125712137D01*
X101810777Y-125525333D01*
X101000202Y-124714758D01*
X100978672Y-124696784D01*
X100877870Y-124612629D01*
X100869452Y-124605601D01*
X100869450Y-124605600D01*
X100869448Y-124605598D01*
X100705369Y-124512497D01*
X100671800Y-124493449D01*
X100457298Y-124418392D01*
X100457295Y-124418391D01*
X100457294Y-124418391D01*
X100232847Y-124382841D01*
X100232835Y-124382841D01*
X100005646Y-124387940D01*
X99783011Y-124433524D01*
X99783003Y-124433526D01*
X99572090Y-124518130D01*
X99379667Y-124639038D01*
X99211932Y-124792355D01*
X99074259Y-124973170D01*
X98971092Y-125175648D01*
X98971092Y-125175649D01*
X98905731Y-125393306D01*
X98880288Y-125619123D01*
X98880287Y-125619134D01*
X93614607Y-125619134D01*
X93612060Y-125505646D01*
X93566475Y-125283009D01*
X93481870Y-125072092D01*
X93360963Y-124879670D01*
X93360962Y-124879669D01*
X93360961Y-124879667D01*
X93207644Y-124711931D01*
X93207638Y-124711926D01*
X93026832Y-124574260D01*
X93026828Y-124574258D01*
X92824346Y-124471089D01*
X92824342Y-124471087D01*
X92606695Y-124405731D01*
X92380876Y-124380288D01*
X92380865Y-124380287D01*
X92165015Y-124394842D01*
X92154130Y-124395576D01*
X92113829Y-124405731D01*
X91933761Y-124451103D01*
X91726858Y-124545084D01*
X91726852Y-124545087D01*
X91540050Y-124674503D01*
X90729475Y-125485078D01*
X90620316Y-125615831D01*
X90508169Y-125813476D01*
X90508167Y-125813480D01*
X90473573Y-125912345D01*
X90433109Y-126027985D01*
X90397559Y-126252432D01*
X90397559Y-126252437D01*
X70097325Y-126252437D01*
X70089704Y-126139412D01*
X70034177Y-125919046D01*
X70031133Y-125912345D01*
X69949600Y-125732845D01*
X69940194Y-125712137D01*
X69810777Y-125525333D01*
X69000202Y-124714758D01*
X68978672Y-124696784D01*
X68877870Y-124612629D01*
X68869452Y-124605601D01*
X68869450Y-124605600D01*
X68869448Y-124605598D01*
X68705369Y-124512497D01*
X68671800Y-124493449D01*
X68457298Y-124418392D01*
X68457295Y-124418391D01*
X68457294Y-124418391D01*
X68232847Y-124382841D01*
X68232835Y-124382841D01*
X68005646Y-124387940D01*
X67783011Y-124433524D01*
X67783003Y-124433526D01*
X67572090Y-124518130D01*
X67379667Y-124639038D01*
X67211932Y-124792355D01*
X67074259Y-124973170D01*
X66971092Y-125175648D01*
X66971092Y-125175649D01*
X66905731Y-125393306D01*
X66880288Y-125619123D01*
X66880287Y-125619134D01*
X61614607Y-125619134D01*
X61612060Y-125505646D01*
X61566475Y-125283009D01*
X61481870Y-125072092D01*
X61360963Y-124879670D01*
X61360962Y-124879669D01*
X61360961Y-124879667D01*
X61207644Y-124711931D01*
X61207638Y-124711926D01*
X61026832Y-124574260D01*
X61026828Y-124574258D01*
X60824346Y-124471089D01*
X60824342Y-124471087D01*
X60606695Y-124405731D01*
X60380876Y-124380288D01*
X60380865Y-124380287D01*
X60165015Y-124394842D01*
X60154130Y-124395576D01*
X60113829Y-124405731D01*
X59933761Y-124451103D01*
X59726858Y-124545084D01*
X59726852Y-124545087D01*
X59540050Y-124674503D01*
X58729475Y-125485078D01*
X58620316Y-125615831D01*
X58508169Y-125813476D01*
X58508167Y-125813480D01*
X58473573Y-125912345D01*
X58433109Y-126027985D01*
X58397559Y-126252432D01*
X58397559Y-126252437D01*
X46097325Y-126252437D01*
X46089704Y-126139412D01*
X46034177Y-125919046D01*
X46031133Y-125912345D01*
X45949600Y-125732845D01*
X45940194Y-125712137D01*
X45810777Y-125525333D01*
X45000202Y-124714758D01*
X44978672Y-124696784D01*
X44877870Y-124612629D01*
X44869452Y-124605601D01*
X44869450Y-124605600D01*
X44869448Y-124605598D01*
X44705369Y-124512497D01*
X44671800Y-124493449D01*
X44457298Y-124418392D01*
X44457295Y-124418391D01*
X44457294Y-124418391D01*
X44232847Y-124382841D01*
X44232835Y-124382841D01*
X44005646Y-124387940D01*
X43783011Y-124433524D01*
X43783003Y-124433526D01*
X43572090Y-124518130D01*
X43379667Y-124639038D01*
X43211932Y-124792355D01*
X43074259Y-124973170D01*
X42971092Y-125175648D01*
X42971092Y-125175649D01*
X42905731Y-125393306D01*
X42880288Y-125619123D01*
X42880287Y-125619134D01*
X37614607Y-125619134D01*
X37612060Y-125505646D01*
X37566475Y-125283009D01*
X37481870Y-125072092D01*
X37360963Y-124879670D01*
X37360962Y-124879669D01*
X37360961Y-124879667D01*
X37207644Y-124711931D01*
X37207638Y-124711926D01*
X37026832Y-124574260D01*
X37026828Y-124574258D01*
X36824346Y-124471089D01*
X36824342Y-124471087D01*
X36606695Y-124405731D01*
X36380876Y-124380288D01*
X36380865Y-124380287D01*
X36165015Y-124394842D01*
X36154130Y-124395576D01*
X36113829Y-124405731D01*
X35933761Y-124451103D01*
X35726858Y-124545084D01*
X35726852Y-124545087D01*
X35540050Y-124674503D01*
X34729475Y-125485078D01*
X34620316Y-125615831D01*
X34508169Y-125813476D01*
X34508167Y-125813480D01*
X34473573Y-125912345D01*
X34433109Y-126027985D01*
X34397559Y-126252432D01*
X34397559Y-126252437D01*
X20750500Y-126252437D01*
X20750500Y-122750000D01*
X31169318Y-122750000D01*
X31173499Y-122781761D01*
X31174500Y-122789360D01*
X31174500Y-122789361D01*
X31189955Y-122906760D01*
X31189956Y-122906762D01*
X31228576Y-123000000D01*
X31250464Y-123052841D01*
X31346718Y-123178282D01*
X31346719Y-123178283D01*
X31371769Y-123197504D01*
X31383963Y-123208198D01*
X31869724Y-123693960D01*
X31880404Y-123706138D01*
X31899631Y-123731195D01*
X31899632Y-123731196D01*
X31927897Y-123752884D01*
X31927917Y-123752901D01*
X32025071Y-123827449D01*
X32025072Y-123827449D01*
X32025073Y-123827450D01*
X32171152Y-123887958D01*
X32249533Y-123898277D01*
X32327913Y-123908596D01*
X32327914Y-123908596D01*
X32359216Y-123904474D01*
X32375401Y-123903414D01*
X32730402Y-123903414D01*
X32797441Y-123923099D01*
X32843196Y-123975903D01*
X32844785Y-123979534D01*
X32862362Y-124021524D01*
X32862365Y-124021530D01*
X32986137Y-124212120D01*
X33131715Y-124366683D01*
X33141951Y-124377550D01*
X33324800Y-124512497D01*
X33528806Y-124612627D01*
X33528810Y-124612628D01*
X33528812Y-124612629D01*
X33747407Y-124674721D01*
X33747410Y-124674721D01*
X33747412Y-124674722D01*
X33747416Y-124674722D01*
X33747420Y-124674723D01*
X33825724Y-124682361D01*
X33973592Y-124696785D01*
X34200077Y-124678108D01*
X35307344Y-124381416D01*
X35467252Y-124322762D01*
X35663205Y-124207666D01*
X35835457Y-124059431D01*
X35961797Y-123903414D01*
X35978473Y-123882821D01*
X36087655Y-123683514D01*
X36159493Y-123467920D01*
X36159494Y-123467915D01*
X36159495Y-123467913D01*
X36191683Y-123242951D01*
X36183186Y-123015855D01*
X36179691Y-122999998D01*
X36136716Y-122804998D01*
X36134276Y-122793927D01*
X36046525Y-122584298D01*
X36021913Y-122546399D01*
X35922756Y-122393711D01*
X35922753Y-122393707D01*
X35766942Y-122228280D01*
X35584091Y-122093331D01*
X35584088Y-122093329D01*
X35472360Y-122038491D01*
X35380085Y-121993201D01*
X35380082Y-121993200D01*
X35380078Y-121993198D01*
X35161483Y-121931105D01*
X35161470Y-121931103D01*
X34935304Y-121909043D01*
X34935300Y-121909043D01*
X34935298Y-121909043D01*
X34708813Y-121927720D01*
X34090746Y-122093331D01*
X33601542Y-122224413D01*
X33441634Y-122283067D01*
X33245687Y-122398160D01*
X33245686Y-122398161D01*
X33073435Y-122546394D01*
X33073434Y-122546395D01*
X32984314Y-122656450D01*
X32926827Y-122696161D01*
X32887948Y-122702414D01*
X32628012Y-122702414D01*
X32560973Y-122682729D01*
X32540331Y-122666095D01*
X32411819Y-122537583D01*
X32378334Y-122476260D01*
X32375500Y-122449902D01*
X32375500Y-107778039D01*
X32395185Y-107711000D01*
X32411819Y-107690358D01*
X33162819Y-106939358D01*
X33224142Y-106905873D01*
X33293834Y-106910857D01*
X33349767Y-106952729D01*
X33374184Y-107018193D01*
X33374500Y-107027039D01*
X33374500Y-118893522D01*
X33354815Y-118960561D01*
X33314895Y-118999490D01*
X33230352Y-119050865D01*
X33230341Y-119050873D01*
X33060332Y-119201661D01*
X32919972Y-119380392D01*
X32919969Y-119380397D01*
X32813787Y-119581305D01*
X32813779Y-119581323D01*
X32745175Y-119797965D01*
X32745175Y-119797967D01*
X32716355Y-120023386D01*
X32728249Y-120250323D01*
X32728250Y-120250328D01*
X32780471Y-120471491D01*
X32871352Y-120679794D01*
X32997956Y-120868505D01*
X33043532Y-120915466D01*
X33156231Y-121031588D01*
X33341078Y-121163785D01*
X33341081Y-121163786D01*
X33341082Y-121163787D01*
X33341083Y-121163788D01*
X33447893Y-121214244D01*
X33546558Y-121260853D01*
X34653825Y-121557545D01*
X34713690Y-121567947D01*
X34821628Y-121586703D01*
X34821630Y-121586702D01*
X34821636Y-121586704D01*
X35048884Y-121585004D01*
X35272177Y-121542755D01*
X35484336Y-121461315D01*
X35678545Y-121343301D01*
X35848561Y-121192505D01*
X35988918Y-121013776D01*
X36095107Y-120812856D01*
X36163715Y-120596206D01*
X36192534Y-120370787D01*
X36186575Y-120257079D01*
X44308817Y-120257079D01*
X44314246Y-120402167D01*
X44314247Y-120402167D01*
X45562432Y-120067717D01*
X45545555Y-120125197D01*
X45545555Y-120268975D01*
X45586062Y-120406930D01*
X45663794Y-120527884D01*
X45690514Y-120551037D01*
X44441467Y-120885718D01*
X44453920Y-120915466D01*
X44453924Y-120915474D01*
X44577642Y-121105982D01*
X44733390Y-121271343D01*
X44916168Y-121406239D01*
X45120101Y-121506333D01*
X45120100Y-121506333D01*
X45338609Y-121568401D01*
X45338621Y-121568403D01*
X45564698Y-121590454D01*
X45791101Y-121571784D01*
X46130701Y-121480787D01*
X45917139Y-120683764D01*
X46009792Y-120697086D01*
X46081318Y-120697086D01*
X46187870Y-120681766D01*
X46318655Y-120622038D01*
X46399474Y-120552008D01*
X46613665Y-121351378D01*
X46898286Y-121275115D01*
X46898298Y-121275111D01*
X47058151Y-121216478D01*
X47254024Y-121101428D01*
X47426202Y-120953256D01*
X47426204Y-120953254D01*
X47569167Y-120776711D01*
X47678304Y-120577483D01*
X47678306Y-120577478D01*
X47750115Y-120361969D01*
X47782292Y-120137093D01*
X47776862Y-119992003D01*
X46528678Y-120326451D01*
X46545555Y-120268975D01*
X46545555Y-120125197D01*
X46505048Y-119987242D01*
X46427316Y-119866288D01*
X46400593Y-119843132D01*
X47649643Y-119508452D01*
X47637191Y-119478705D01*
X47637189Y-119478701D01*
X47513472Y-119288193D01*
X47513469Y-119288189D01*
X47357719Y-119122828D01*
X47174941Y-118987932D01*
X46971008Y-118887838D01*
X46971009Y-118887838D01*
X46752500Y-118825770D01*
X46752488Y-118825768D01*
X46526410Y-118803717D01*
X46300010Y-118822386D01*
X45960407Y-118913382D01*
X46173968Y-119710407D01*
X46081318Y-119697086D01*
X46009792Y-119697086D01*
X45903240Y-119712406D01*
X45772455Y-119772134D01*
X45691633Y-119842164D01*
X45477443Y-119042792D01*
X45192804Y-119119062D01*
X45032958Y-119177693D01*
X44837085Y-119292743D01*
X44664907Y-119440915D01*
X44664905Y-119440917D01*
X44521943Y-119617459D01*
X44412805Y-119816685D01*
X44340995Y-120032197D01*
X44308817Y-120257079D01*
X36186575Y-120257079D01*
X36180640Y-120143844D01*
X36128417Y-119922672D01*
X36128416Y-119922670D01*
X36128415Y-119922665D01*
X36037541Y-119714383D01*
X36037538Y-119714377D01*
X35910933Y-119525664D01*
X35752660Y-119362583D01*
X35752659Y-119362582D01*
X35567813Y-119230385D01*
X35567810Y-119230383D01*
X35567808Y-119230382D01*
X35567803Y-119230379D01*
X35362344Y-119133322D01*
X35362336Y-119133319D01*
X35362332Y-119133317D01*
X34972678Y-119028909D01*
X34667406Y-118947111D01*
X34607746Y-118910746D01*
X34577217Y-118847899D01*
X34575500Y-118827336D01*
X34575500Y-118160306D01*
X34595185Y-118093267D01*
X34647989Y-118047512D01*
X34717147Y-118037568D01*
X34780703Y-118066593D01*
X34787181Y-118072625D01*
X35499798Y-118785242D01*
X35630548Y-118894399D01*
X35630549Y-118894400D01*
X35630551Y-118894401D01*
X35685782Y-118925740D01*
X35828200Y-119006551D01*
X36042702Y-119081609D01*
X36267158Y-119117159D01*
X36494354Y-119112060D01*
X36716991Y-119066475D01*
X36927908Y-118981870D01*
X37120330Y-118860963D01*
X37288070Y-118707642D01*
X37425739Y-118526833D01*
X37528910Y-118324347D01*
X37561149Y-118216988D01*
X37594268Y-118106696D01*
X37594268Y-118106693D01*
X37595878Y-118092402D01*
X37619712Y-117880870D01*
X37617401Y-117846601D01*
X37612045Y-117767157D01*
X37604424Y-117654130D01*
X37548897Y-117433764D01*
X37538525Y-117410930D01*
X37488137Y-117299998D01*
X37454914Y-117226855D01*
X37325497Y-117040051D01*
X36644179Y-116358733D01*
X36610694Y-116297410D01*
X36607860Y-116271052D01*
X36607860Y-104677051D01*
X36627545Y-104610012D01*
X36644179Y-104589370D01*
X38789350Y-102444199D01*
X38850673Y-102410714D01*
X38920365Y-102415698D01*
X38976298Y-102457570D01*
X39000715Y-102523034D01*
X39001031Y-102531880D01*
X39001031Y-114126270D01*
X38981346Y-114193309D01*
X38928542Y-114239064D01*
X38859468Y-114249020D01*
X38637120Y-114217206D01*
X38410025Y-114225704D01*
X38188101Y-114274613D01*
X37978475Y-114362362D01*
X37978471Y-114362364D01*
X37978470Y-114362365D01*
X37944775Y-114384247D01*
X37787879Y-114486137D01*
X37622453Y-114641947D01*
X37622450Y-114641950D01*
X37622450Y-114641951D01*
X37611911Y-114656231D01*
X37487502Y-114824801D01*
X37487501Y-114824803D01*
X37387370Y-115028812D01*
X37325278Y-115247407D01*
X37325276Y-115247420D01*
X37303215Y-115473582D01*
X37303215Y-115473589D01*
X37303215Y-115473592D01*
X37321892Y-115700077D01*
X37616006Y-116797723D01*
X37618585Y-116807347D01*
X37677239Y-116967255D01*
X37792335Y-117163207D01*
X37940565Y-117335453D01*
X37940568Y-117335456D01*
X38117178Y-117478473D01*
X38316485Y-117587655D01*
X38532079Y-117659493D01*
X38532083Y-117659493D01*
X38532087Y-117659495D01*
X38757049Y-117691683D01*
X38757051Y-117691682D01*
X38757052Y-117691683D01*
X38825177Y-117689133D01*
X38984145Y-117683186D01*
X39206073Y-117634276D01*
X39415702Y-117546525D01*
X39606293Y-117422753D01*
X39771722Y-117266939D01*
X39906669Y-117084091D01*
X40006799Y-116880085D01*
X40027461Y-116807344D01*
X40068894Y-116661483D01*
X40068896Y-116661470D01*
X40080197Y-116545613D01*
X40090957Y-116435298D01*
X40072280Y-116208813D01*
X39925906Y-115662539D01*
X39927569Y-115592689D01*
X39957998Y-115542766D01*
X39992574Y-115508190D01*
X40004754Y-115497509D01*
X40029813Y-115478282D01*
X40126067Y-115352841D01*
X40186575Y-115206762D01*
X40202031Y-115089361D01*
X40207213Y-115050000D01*
X40203092Y-115018697D01*
X40202031Y-115002512D01*
X40202031Y-101648566D01*
X40221716Y-101581527D01*
X40238350Y-101560885D01*
X40637416Y-101161819D01*
X40698739Y-101128334D01*
X40725097Y-101125500D01*
X67745002Y-101125500D01*
X67812041Y-101145185D01*
X67832683Y-101161819D01*
X68088153Y-101417289D01*
X68121638Y-101478612D01*
X68116654Y-101548304D01*
X68074782Y-101604237D01*
X68009318Y-101628654D01*
X67989664Y-101628498D01*
X67885001Y-101619341D01*
X67884999Y-101619341D01*
X67649596Y-101639936D01*
X67649586Y-101639938D01*
X67421344Y-101701094D01*
X67421335Y-101701098D01*
X67207171Y-101800964D01*
X67207169Y-101800965D01*
X67013597Y-101936505D01*
X66846505Y-102103597D01*
X66716575Y-102289158D01*
X66661998Y-102332783D01*
X66592500Y-102339977D01*
X66530145Y-102308454D01*
X66513425Y-102289158D01*
X66383494Y-102103597D01*
X66216402Y-101936506D01*
X66216395Y-101936501D01*
X66022834Y-101800967D01*
X66022830Y-101800965D01*
X66016448Y-101797989D01*
X65808663Y-101701097D01*
X65808659Y-101701096D01*
X65808655Y-101701094D01*
X65580413Y-101639938D01*
X65580403Y-101639936D01*
X65345001Y-101619341D01*
X65344999Y-101619341D01*
X65109596Y-101639936D01*
X65109586Y-101639938D01*
X64881344Y-101701094D01*
X64881335Y-101701098D01*
X64667171Y-101800964D01*
X64667169Y-101800965D01*
X64473597Y-101936505D01*
X64306505Y-102103597D01*
X64170965Y-102297169D01*
X64170964Y-102297171D01*
X64071098Y-102511335D01*
X64071094Y-102511344D01*
X64009938Y-102739586D01*
X64009936Y-102739596D01*
X63989341Y-102974999D01*
X63989341Y-102975000D01*
X64009936Y-103210403D01*
X64009938Y-103210413D01*
X64071094Y-103438655D01*
X64071096Y-103438659D01*
X64071097Y-103438663D01*
X64150800Y-103609586D01*
X64170965Y-103652830D01*
X64170967Y-103652834D01*
X64185351Y-103673376D01*
X64306501Y-103846396D01*
X64306506Y-103846402D01*
X64473597Y-104013493D01*
X64473603Y-104013498D01*
X64659158Y-104143425D01*
X64702783Y-104198002D01*
X64709977Y-104267500D01*
X64678454Y-104329855D01*
X64659158Y-104346575D01*
X64473597Y-104476505D01*
X64306505Y-104643597D01*
X64170965Y-104837169D01*
X64170964Y-104837171D01*
X64071098Y-105051335D01*
X64071094Y-105051344D01*
X64009938Y-105279586D01*
X64009936Y-105279596D01*
X63989341Y-105514999D01*
X63989341Y-105515000D01*
X64009936Y-105750403D01*
X64009938Y-105750413D01*
X64071094Y-105978655D01*
X64071096Y-105978659D01*
X64071097Y-105978663D01*
X64148067Y-106143725D01*
X64170965Y-106192830D01*
X64170967Y-106192834D01*
X64260140Y-106320185D01*
X64306501Y-106386396D01*
X64306506Y-106386402D01*
X64473600Y-106553496D01*
X64476007Y-106555516D01*
X64476775Y-106556671D01*
X64477427Y-106557323D01*
X64477296Y-106557453D01*
X64514705Y-106613690D01*
X64515809Y-106683551D01*
X64478968Y-106742918D01*
X64415879Y-106772944D01*
X64396295Y-106774500D01*
X61213705Y-106774500D01*
X61146666Y-106754815D01*
X61100911Y-106702011D01*
X61090967Y-106632853D01*
X61119992Y-106569297D01*
X61133993Y-106555516D01*
X61136396Y-106553498D01*
X61136401Y-106553495D01*
X61303495Y-106386401D01*
X61439035Y-106192830D01*
X61538903Y-105978663D01*
X61600063Y-105750408D01*
X61620659Y-105515000D01*
X61600063Y-105279592D01*
X61538903Y-105051337D01*
X61439035Y-104837171D01*
X61433424Y-104829158D01*
X61303496Y-104643600D01*
X61249266Y-104589370D01*
X61181567Y-104521671D01*
X61148084Y-104460351D01*
X61153068Y-104390659D01*
X61194939Y-104334725D01*
X61225915Y-104317810D01*
X61357331Y-104268796D01*
X61472546Y-104182546D01*
X61558796Y-104067331D01*
X61609091Y-103932483D01*
X61615500Y-103872873D01*
X61615499Y-102077128D01*
X61609091Y-102017517D01*
X61605746Y-102008549D01*
X61558797Y-101882671D01*
X61558793Y-101882664D01*
X61472547Y-101767455D01*
X61472544Y-101767452D01*
X61357335Y-101681206D01*
X61357328Y-101681202D01*
X61222482Y-101630908D01*
X61222483Y-101630908D01*
X61162883Y-101624501D01*
X61162881Y-101624500D01*
X61162873Y-101624500D01*
X61162864Y-101624500D01*
X59367129Y-101624500D01*
X59367123Y-101624501D01*
X59307516Y-101630908D01*
X59172671Y-101681202D01*
X59172664Y-101681206D01*
X59057455Y-101767452D01*
X59057452Y-101767455D01*
X58971206Y-101882664D01*
X58971202Y-101882671D01*
X58920908Y-102017517D01*
X58914501Y-102077116D01*
X58914501Y-102077123D01*
X58914500Y-102077135D01*
X58914500Y-103872870D01*
X58914501Y-103872876D01*
X58920908Y-103932483D01*
X58971202Y-104067328D01*
X58971206Y-104067335D01*
X59057452Y-104182544D01*
X59057455Y-104182547D01*
X59172664Y-104268793D01*
X59172671Y-104268797D01*
X59304081Y-104317810D01*
X59360015Y-104359681D01*
X59384432Y-104425145D01*
X59369580Y-104493418D01*
X59348430Y-104521673D01*
X59226503Y-104643600D01*
X59090965Y-104837169D01*
X59090964Y-104837171D01*
X58991098Y-105051335D01*
X58991094Y-105051344D01*
X58929938Y-105279586D01*
X58929936Y-105279596D01*
X58909341Y-105514999D01*
X58909341Y-105515000D01*
X58929936Y-105750403D01*
X58929938Y-105750413D01*
X58991094Y-105978655D01*
X58991096Y-105978659D01*
X58991097Y-105978663D01*
X59068067Y-106143725D01*
X59090965Y-106192830D01*
X59090967Y-106192834D01*
X59180140Y-106320185D01*
X59226501Y-106386396D01*
X59226506Y-106386402D01*
X59393600Y-106553496D01*
X59396007Y-106555516D01*
X59396775Y-106556671D01*
X59397427Y-106557323D01*
X59397296Y-106557453D01*
X59434705Y-106613690D01*
X59435809Y-106683551D01*
X59398968Y-106742918D01*
X59335879Y-106772944D01*
X59316295Y-106774500D01*
X43897487Y-106774500D01*
X43881302Y-106773439D01*
X43850000Y-106769318D01*
X43849999Y-106769318D01*
X43701236Y-106788902D01*
X43701236Y-106788903D01*
X43693238Y-106789956D01*
X43547160Y-106850463D01*
X43421714Y-106946721D01*
X43402495Y-106971769D01*
X43391800Y-106983964D01*
X41411880Y-108963883D01*
X41399690Y-108974574D01*
X41374631Y-108993803D01*
X41288786Y-109105681D01*
X41288784Y-109105683D01*
X41278380Y-109119241D01*
X41278377Y-109119244D01*
X41217872Y-109265319D01*
X41217870Y-109265324D01*
X41198537Y-109412181D01*
X41197233Y-109422085D01*
X41198696Y-109433199D01*
X41201354Y-109453386D01*
X41202415Y-109469572D01*
X41202415Y-114384247D01*
X41182730Y-114451286D01*
X41147499Y-114487220D01*
X41131492Y-114497958D01*
X40968413Y-114656229D01*
X40836212Y-114841081D01*
X40836209Y-114841086D01*
X40739152Y-115046545D01*
X40739147Y-115046558D01*
X40442455Y-116153823D01*
X40413297Y-116321634D01*
X40414996Y-116548886D01*
X40414997Y-116548892D01*
X40457244Y-116772173D01*
X40538686Y-116984339D01*
X40656697Y-117178541D01*
X40656698Y-117178543D01*
X40656700Y-117178545D01*
X40695686Y-117222500D01*
X40803354Y-117343893D01*
X40807495Y-117348561D01*
X40886915Y-117410930D01*
X40986222Y-117488917D01*
X40986227Y-117488920D01*
X41087994Y-117542705D01*
X41187144Y-117595107D01*
X41187151Y-117595109D01*
X41187153Y-117595110D01*
X41211567Y-117602841D01*
X41403794Y-117663714D01*
X41629213Y-117692534D01*
X41856156Y-117680640D01*
X41989569Y-117649137D01*
X42077321Y-117628418D01*
X42077322Y-117628417D01*
X42077328Y-117628416D01*
X42285620Y-117537539D01*
X42285621Y-117537538D01*
X42285624Y-117537537D01*
X42474335Y-117410933D01*
X42474336Y-117410931D01*
X42474339Y-117410930D01*
X42637418Y-117252659D01*
X42769615Y-117067812D01*
X42866683Y-116862332D01*
X43163375Y-115755065D01*
X43184961Y-115630837D01*
X43192533Y-115587262D01*
X43192533Y-115587260D01*
X43192532Y-115587259D01*
X43192534Y-115587254D01*
X43190834Y-115360006D01*
X43148585Y-115136713D01*
X43067145Y-114924554D01*
X43065451Y-114921767D01*
X42949133Y-114730348D01*
X42949132Y-114730347D01*
X42949131Y-114730345D01*
X42833965Y-114600500D01*
X42798338Y-114560332D01*
X42798336Y-114560331D01*
X42798335Y-114560329D01*
X42619606Y-114419972D01*
X42549122Y-114382720D01*
X42469473Y-114340624D01*
X42419401Y-114291895D01*
X42403415Y-114230994D01*
X42403415Y-109722182D01*
X42423100Y-109655143D01*
X42439734Y-109634501D01*
X44062416Y-108011819D01*
X44123739Y-107978334D01*
X44150097Y-107975500D01*
X45350903Y-107975500D01*
X45417942Y-107995185D01*
X45463697Y-108047989D01*
X45473641Y-108117147D01*
X45444616Y-108180703D01*
X45438584Y-108187181D01*
X45006051Y-108619712D01*
X44993861Y-108630403D01*
X44968806Y-108649629D01*
X44968804Y-108649632D01*
X44884082Y-108760044D01*
X44875232Y-108771577D01*
X44872549Y-108775074D01*
X44812042Y-108921151D01*
X44812041Y-108921153D01*
X44801287Y-109002841D01*
X44791404Y-109077914D01*
X44795060Y-109105681D01*
X44795525Y-109109215D01*
X44796586Y-109125401D01*
X44796586Y-115783777D01*
X44776901Y-115850816D01*
X44724097Y-115896571D01*
X44680931Y-115907496D01*
X44644952Y-115909922D01*
X44639412Y-115910296D01*
X44599111Y-115920451D01*
X44419043Y-115965823D01*
X44212140Y-116059804D01*
X44212134Y-116059807D01*
X44025332Y-116189223D01*
X43214757Y-116999798D01*
X43105598Y-117130551D01*
X43028208Y-117266942D01*
X42993449Y-117328200D01*
X42940867Y-117478472D01*
X42918391Y-117542705D01*
X42882841Y-117767152D01*
X42882841Y-117767164D01*
X42887940Y-117994353D01*
X42933524Y-118216988D01*
X42933526Y-118216996D01*
X43018130Y-118427909D01*
X43139038Y-118620332D01*
X43289773Y-118785242D01*
X43292358Y-118788070D01*
X43468895Y-118922485D01*
X43473170Y-118925740D01*
X43642306Y-119011918D01*
X43675653Y-119028909D01*
X43893305Y-119094268D01*
X44119130Y-119119712D01*
X44119132Y-119119711D01*
X44119134Y-119119712D01*
X44162671Y-119116776D01*
X44345870Y-119104424D01*
X44566236Y-119048897D01*
X44773145Y-118954914D01*
X44959949Y-118825497D01*
X45770524Y-118014922D01*
X45879681Y-117884172D01*
X45991833Y-117686520D01*
X46066891Y-117472018D01*
X46101388Y-117254212D01*
X46102441Y-117247565D01*
X46102441Y-117247562D01*
X46097342Y-117020366D01*
X46051757Y-116797729D01*
X46026850Y-116735638D01*
X46007656Y-116687786D01*
X45999803Y-116625436D01*
X46002768Y-116602915D01*
X46002768Y-116602913D01*
X45998647Y-116571612D01*
X45997586Y-116555427D01*
X45997586Y-109378011D01*
X46017271Y-109310972D01*
X46033905Y-109290330D01*
X46912416Y-108411819D01*
X46973739Y-108378334D01*
X47000097Y-108375500D01*
X49925903Y-108375500D01*
X49992942Y-108395185D01*
X50038697Y-108447989D01*
X50048641Y-108517147D01*
X50019616Y-108580703D01*
X50013584Y-108587181D01*
X49508965Y-109091798D01*
X49496775Y-109102489D01*
X49471717Y-109121718D01*
X49436023Y-109168237D01*
X49409093Y-109203334D01*
X49406464Y-109206760D01*
X49406462Y-109206762D01*
X49375464Y-109247157D01*
X49375461Y-109247163D01*
X49314957Y-109393234D01*
X49314955Y-109393239D01*
X49294318Y-109549998D01*
X49294318Y-109549999D01*
X49298439Y-109581301D01*
X49299500Y-109597487D01*
X49299500Y-122049903D01*
X49279815Y-122116942D01*
X49263181Y-122137584D01*
X48734669Y-122666096D01*
X48673346Y-122699581D01*
X48646988Y-122702415D01*
X47615753Y-122702415D01*
X47548714Y-122682730D01*
X47512780Y-122647499D01*
X47502041Y-122631492D01*
X47343770Y-122468413D01*
X47343769Y-122468412D01*
X47158923Y-122336215D01*
X47158920Y-122336213D01*
X47158918Y-122336212D01*
X47158913Y-122336209D01*
X46953454Y-122239152D01*
X46953446Y-122239149D01*
X46953442Y-122239147D01*
X45846176Y-121942455D01*
X45780854Y-121931105D01*
X45678365Y-121913297D01*
X45678364Y-121913297D01*
X45621552Y-121913721D01*
X45451113Y-121914996D01*
X45451107Y-121914997D01*
X45227826Y-121957244D01*
X45015660Y-122038686D01*
X45015660Y-122038687D01*
X44821458Y-122156697D01*
X44821451Y-122156703D01*
X44651442Y-122307491D01*
X44511082Y-122486222D01*
X44511079Y-122486227D01*
X44404897Y-122687135D01*
X44404889Y-122687153D01*
X44336285Y-122903795D01*
X44336285Y-122903797D01*
X44307465Y-123129216D01*
X44319359Y-123356153D01*
X44319360Y-123356158D01*
X44371581Y-123577321D01*
X44462462Y-123785624D01*
X44589066Y-123974335D01*
X44634871Y-124021532D01*
X44747341Y-124137418D01*
X44932188Y-124269615D01*
X44932191Y-124269616D01*
X44932192Y-124269617D01*
X44932193Y-124269618D01*
X45044689Y-124322760D01*
X45137668Y-124366683D01*
X46244935Y-124663375D01*
X46304800Y-124673777D01*
X46412738Y-124692533D01*
X46412740Y-124692532D01*
X46412746Y-124692534D01*
X46639994Y-124690834D01*
X46863287Y-124648585D01*
X47075446Y-124567145D01*
X47269655Y-124449131D01*
X47439671Y-124298335D01*
X47580028Y-124119606D01*
X47612964Y-124057286D01*
X47659375Y-123969474D01*
X47708103Y-123919401D01*
X47769005Y-123903415D01*
X48899598Y-123903415D01*
X48915782Y-123904475D01*
X48947085Y-123908597D01*
X48947086Y-123908597D01*
X49004881Y-123900988D01*
X49103847Y-123887959D01*
X49249926Y-123827451D01*
X49304441Y-123785620D01*
X49375367Y-123731197D01*
X49394594Y-123706138D01*
X49405275Y-123693958D01*
X50291043Y-122808190D01*
X50303223Y-122797509D01*
X50328282Y-122778282D01*
X50424536Y-122652841D01*
X50485044Y-122506762D01*
X50500500Y-122389361D01*
X50505682Y-122350000D01*
X50505240Y-122346645D01*
X50501561Y-122318697D01*
X50500500Y-122302512D01*
X50500500Y-109850097D01*
X50520185Y-109783058D01*
X50536819Y-109762416D01*
X51487416Y-108811819D01*
X51548739Y-108778334D01*
X51575097Y-108775500D01*
X55988285Y-108775500D01*
X56055324Y-108795185D01*
X56101079Y-108847989D01*
X56111023Y-108917147D01*
X56086662Y-108974984D01*
X56065287Y-109002841D01*
X56053912Y-109017665D01*
X56050463Y-109022160D01*
X55989956Y-109168237D01*
X55989955Y-109168239D01*
X55970181Y-109318442D01*
X55969318Y-109325000D01*
X55972276Y-109347467D01*
X55973439Y-109356301D01*
X55974500Y-109372487D01*
X55974500Y-123052512D01*
X55973439Y-123068697D01*
X55972287Y-123077451D01*
X55969318Y-123100000D01*
X55986523Y-123230682D01*
X55989956Y-123256762D01*
X56050464Y-123402841D01*
X56100397Y-123467915D01*
X56146719Y-123528283D01*
X56171769Y-123547504D01*
X56183964Y-123558199D01*
X56319713Y-123693948D01*
X56330407Y-123706142D01*
X56349631Y-123731195D01*
X56349632Y-123731196D01*
X56381130Y-123755365D01*
X56475073Y-123827450D01*
X56475075Y-123827450D01*
X56475077Y-123827452D01*
X56548112Y-123857704D01*
X56621152Y-123887958D01*
X56746587Y-123904471D01*
X56810482Y-123932737D01*
X56844782Y-123979527D01*
X56862365Y-124021529D01*
X56862366Y-124021532D01*
X56886980Y-124059434D01*
X56986137Y-124212120D01*
X57131715Y-124366683D01*
X57141951Y-124377550D01*
X57324800Y-124512497D01*
X57528806Y-124612627D01*
X57528810Y-124612628D01*
X57528812Y-124612629D01*
X57747407Y-124674721D01*
X57747410Y-124674721D01*
X57747412Y-124674722D01*
X57747416Y-124674722D01*
X57747420Y-124674723D01*
X57825724Y-124682361D01*
X57973592Y-124696785D01*
X58200077Y-124678108D01*
X59307344Y-124381416D01*
X59467252Y-124322762D01*
X59663205Y-124207666D01*
X59835457Y-124059431D01*
X59961797Y-123903414D01*
X59978473Y-123882821D01*
X60087655Y-123683514D01*
X60159493Y-123467920D01*
X60159494Y-123467915D01*
X60159495Y-123467913D01*
X60191683Y-123242951D01*
X60183186Y-123015855D01*
X60179691Y-122999998D01*
X60136716Y-122804998D01*
X60134276Y-122793927D01*
X60046525Y-122584298D01*
X60021913Y-122546399D01*
X59922756Y-122393711D01*
X59922753Y-122393707D01*
X59766942Y-122228280D01*
X59584091Y-122093331D01*
X59584088Y-122093329D01*
X59472360Y-122038491D01*
X59380085Y-121993201D01*
X59380082Y-121993200D01*
X59380078Y-121993198D01*
X59161483Y-121931105D01*
X59161470Y-121931103D01*
X58935304Y-121909043D01*
X58935300Y-121909043D01*
X58935298Y-121909043D01*
X58708813Y-121927720D01*
X58090746Y-122093331D01*
X57601542Y-122224413D01*
X57441634Y-122283067D01*
X57362302Y-122329665D01*
X57294527Y-122346645D01*
X57228331Y-122324288D01*
X57184730Y-122269691D01*
X57175500Y-122222745D01*
X57175500Y-121281283D01*
X57195185Y-121214244D01*
X57247989Y-121168489D01*
X57317147Y-121158545D01*
X57352463Y-121169163D01*
X57546558Y-121260853D01*
X58653825Y-121557545D01*
X58713690Y-121567947D01*
X58821628Y-121586703D01*
X58821630Y-121586702D01*
X58821636Y-121586704D01*
X59048884Y-121585004D01*
X59272177Y-121542755D01*
X59484336Y-121461315D01*
X59678545Y-121343301D01*
X59848561Y-121192505D01*
X59988918Y-121013776D01*
X60095107Y-120812856D01*
X60163715Y-120596206D01*
X60192534Y-120370787D01*
X60186575Y-120257079D01*
X68308817Y-120257079D01*
X68314246Y-120402167D01*
X68314247Y-120402167D01*
X69562432Y-120067717D01*
X69545555Y-120125197D01*
X69545555Y-120268975D01*
X69586062Y-120406930D01*
X69663794Y-120527884D01*
X69690514Y-120551037D01*
X68441467Y-120885718D01*
X68453920Y-120915466D01*
X68453924Y-120915474D01*
X68577642Y-121105982D01*
X68733390Y-121271343D01*
X68916168Y-121406239D01*
X69120101Y-121506333D01*
X69120100Y-121506333D01*
X69338609Y-121568401D01*
X69338621Y-121568403D01*
X69564698Y-121590454D01*
X69791101Y-121571784D01*
X70130701Y-121480787D01*
X69917139Y-120683764D01*
X70009792Y-120697086D01*
X70081318Y-120697086D01*
X70187870Y-120681766D01*
X70318655Y-120622038D01*
X70399474Y-120552008D01*
X70613665Y-121351378D01*
X70898286Y-121275115D01*
X70898298Y-121275111D01*
X71058151Y-121216478D01*
X71254024Y-121101428D01*
X71426202Y-120953256D01*
X71426204Y-120953254D01*
X71569167Y-120776711D01*
X71678304Y-120577483D01*
X71678306Y-120577478D01*
X71750115Y-120361969D01*
X71782292Y-120137093D01*
X71776862Y-119992003D01*
X70528678Y-120326451D01*
X70545555Y-120268975D01*
X70545555Y-120125197D01*
X70505048Y-119987242D01*
X70427316Y-119866288D01*
X70400593Y-119843132D01*
X71649643Y-119508452D01*
X71637191Y-119478705D01*
X71637189Y-119478701D01*
X71513472Y-119288193D01*
X71513469Y-119288189D01*
X71357719Y-119122828D01*
X71174941Y-118987932D01*
X70971008Y-118887838D01*
X70971009Y-118887838D01*
X70752500Y-118825770D01*
X70752488Y-118825768D01*
X70526410Y-118803717D01*
X70300010Y-118822386D01*
X69960407Y-118913382D01*
X70173968Y-119710407D01*
X70081318Y-119697086D01*
X70009792Y-119697086D01*
X69903240Y-119712406D01*
X69772455Y-119772134D01*
X69691633Y-119842164D01*
X69477443Y-119042792D01*
X69192804Y-119119062D01*
X69032958Y-119177693D01*
X68837085Y-119292743D01*
X68664907Y-119440915D01*
X68664905Y-119440917D01*
X68521943Y-119617459D01*
X68412805Y-119816685D01*
X68340995Y-120032197D01*
X68308817Y-120257079D01*
X60186575Y-120257079D01*
X60180640Y-120143844D01*
X60128417Y-119922672D01*
X60128416Y-119922670D01*
X60128415Y-119922665D01*
X60037541Y-119714383D01*
X60037538Y-119714377D01*
X59910933Y-119525664D01*
X59752660Y-119362583D01*
X59752659Y-119362582D01*
X59567813Y-119230385D01*
X59567810Y-119230383D01*
X59567808Y-119230382D01*
X59567803Y-119230379D01*
X59362344Y-119133322D01*
X59362336Y-119133319D01*
X59362332Y-119133317D01*
X58989001Y-119033283D01*
X58692406Y-118953810D01*
X58632746Y-118917445D01*
X58602217Y-118854598D01*
X58600500Y-118834035D01*
X58600500Y-118185306D01*
X58620185Y-118118267D01*
X58672989Y-118072512D01*
X58742147Y-118062568D01*
X58805703Y-118091593D01*
X58812181Y-118097625D01*
X59499798Y-118785242D01*
X59630548Y-118894399D01*
X59630549Y-118894400D01*
X59630551Y-118894401D01*
X59685782Y-118925740D01*
X59828200Y-119006551D01*
X60042702Y-119081609D01*
X60267158Y-119117159D01*
X60494354Y-119112060D01*
X60716991Y-119066475D01*
X60927908Y-118981870D01*
X61120330Y-118860963D01*
X61288070Y-118707642D01*
X61425739Y-118526833D01*
X61528910Y-118324347D01*
X61561149Y-118216988D01*
X61594268Y-118106696D01*
X61594268Y-118106693D01*
X61595878Y-118092402D01*
X61619712Y-117880870D01*
X61617401Y-117846601D01*
X61612045Y-117767157D01*
X61604424Y-117654130D01*
X61548897Y-117433764D01*
X61538525Y-117410930D01*
X61488137Y-117299998D01*
X61454914Y-117226855D01*
X61325497Y-117040051D01*
X60514922Y-116229476D01*
X60384172Y-116120319D01*
X60384170Y-116120318D01*
X60384168Y-116120316D01*
X60258022Y-116048739D01*
X60186520Y-116008167D01*
X60151533Y-115995924D01*
X60133543Y-115989629D01*
X60076768Y-115948906D01*
X60051022Y-115883953D01*
X60050500Y-115872588D01*
X60050500Y-111100097D01*
X60070185Y-111033058D01*
X60086819Y-111012416D01*
X60962416Y-110136819D01*
X61023739Y-110103334D01*
X61050097Y-110100500D01*
X62150902Y-110100500D01*
X62217941Y-110120185D01*
X62263696Y-110172989D01*
X62273640Y-110242147D01*
X62244615Y-110305703D01*
X62238591Y-110312172D01*
X62179046Y-110371718D01*
X62133965Y-110416799D01*
X62121775Y-110427489D01*
X62096720Y-110446715D01*
X62084458Y-110462696D01*
X62015287Y-110552841D01*
X62008398Y-110561819D01*
X62000463Y-110572160D01*
X61939956Y-110718237D01*
X61939955Y-110718239D01*
X61919318Y-110874998D01*
X61919318Y-110874999D01*
X61923439Y-110906301D01*
X61924500Y-110922487D01*
X61924500Y-114330087D01*
X61904815Y-114397126D01*
X61868037Y-114434081D01*
X61787882Y-114486135D01*
X61787879Y-114486137D01*
X61622453Y-114641947D01*
X61622450Y-114641950D01*
X61622450Y-114641951D01*
X61611911Y-114656231D01*
X61487502Y-114824801D01*
X61487501Y-114824803D01*
X61387370Y-115028812D01*
X61325278Y-115247407D01*
X61325276Y-115247420D01*
X61303215Y-115473582D01*
X61303215Y-115473589D01*
X61303215Y-115473592D01*
X61321892Y-115700077D01*
X61616006Y-116797723D01*
X61618585Y-116807347D01*
X61677239Y-116967255D01*
X61792335Y-117163207D01*
X61940565Y-117335453D01*
X61940568Y-117335456D01*
X62117178Y-117478473D01*
X62316485Y-117587655D01*
X62532079Y-117659493D01*
X62532083Y-117659493D01*
X62532087Y-117659495D01*
X62757049Y-117691683D01*
X62757051Y-117691682D01*
X62757052Y-117691683D01*
X62825177Y-117689133D01*
X62984145Y-117683186D01*
X63206073Y-117634276D01*
X63415702Y-117546525D01*
X63606293Y-117422753D01*
X63771722Y-117266939D01*
X63906669Y-117084091D01*
X64006799Y-116880085D01*
X64027461Y-116807344D01*
X64068894Y-116661483D01*
X64068896Y-116661470D01*
X64080197Y-116545613D01*
X64090957Y-116435298D01*
X64072280Y-116208813D01*
X63775588Y-115101546D01*
X63716934Y-114941638D01*
X63709050Y-114928215D01*
X63601839Y-114745687D01*
X63601838Y-114745686D01*
X63453605Y-114573435D01*
X63453604Y-114573434D01*
X63437424Y-114560332D01*
X63345803Y-114486138D01*
X63276992Y-114430416D01*
X63189925Y-114382720D01*
X63140587Y-114333247D01*
X63125500Y-114273969D01*
X63125500Y-111175097D01*
X63145185Y-111108058D01*
X63161819Y-111087416D01*
X63687416Y-110561819D01*
X63748739Y-110528334D01*
X63775097Y-110525500D01*
X72277513Y-110525500D01*
X72293697Y-110526560D01*
X72325000Y-110530682D01*
X72325001Y-110530682D01*
X72377254Y-110523802D01*
X72481762Y-110510044D01*
X72627841Y-110449536D01*
X72688208Y-110403215D01*
X72753282Y-110353282D01*
X72772510Y-110328222D01*
X72783189Y-110316044D01*
X72959681Y-110139553D01*
X73021003Y-110106069D01*
X73061244Y-110104015D01*
X73075000Y-110105565D01*
X73075000Y-110105564D01*
X73075001Y-110105565D01*
X73075003Y-110105565D01*
X73254249Y-110085369D01*
X73254252Y-110085368D01*
X73254255Y-110085368D01*
X73424522Y-110025789D01*
X73577262Y-109929816D01*
X73704816Y-109802262D01*
X73800789Y-109649522D01*
X73860368Y-109479255D01*
X73864658Y-109441180D01*
X73880565Y-109300003D01*
X73880565Y-109299996D01*
X73860369Y-109120750D01*
X73860368Y-109120745D01*
X73845380Y-109077912D01*
X73800789Y-108950478D01*
X73791464Y-108935638D01*
X73736391Y-108847989D01*
X73704816Y-108797738D01*
X73577262Y-108670184D01*
X73513951Y-108630403D01*
X73424523Y-108574211D01*
X73254254Y-108514631D01*
X73254249Y-108514630D01*
X73075004Y-108494435D01*
X73074996Y-108494435D01*
X72980191Y-108505116D01*
X72911370Y-108493061D01*
X72861316Y-108447869D01*
X72829817Y-108397739D01*
X72702262Y-108270184D01*
X72549523Y-108174211D01*
X72379254Y-108114631D01*
X72379249Y-108114630D01*
X72200004Y-108094435D01*
X72200001Y-108094435D01*
X72200000Y-108094435D01*
X72140523Y-108101135D01*
X72071702Y-108089080D01*
X72021648Y-108043887D01*
X71929815Y-107897737D01*
X71802262Y-107770184D01*
X71649523Y-107674211D01*
X71479254Y-107614631D01*
X71479249Y-107614630D01*
X71300004Y-107594435D01*
X71299996Y-107594435D01*
X71129157Y-107613683D01*
X71060335Y-107601628D01*
X71010279Y-107556433D01*
X71006403Y-107550265D01*
X71004816Y-107547738D01*
X70877262Y-107420184D01*
X70845294Y-107400097D01*
X70724523Y-107324211D01*
X70554254Y-107264631D01*
X70554249Y-107264630D01*
X70375004Y-107244435D01*
X70374996Y-107244435D01*
X70195750Y-107264630D01*
X70195745Y-107264631D01*
X70025476Y-107324211D01*
X69915472Y-107393332D01*
X69848235Y-107412332D01*
X69781400Y-107391964D01*
X69736186Y-107338696D01*
X69725500Y-107288338D01*
X69725500Y-106873571D01*
X69745185Y-106806532D01*
X69797989Y-106760777D01*
X69867147Y-106750833D01*
X69901903Y-106761188D01*
X69961337Y-106788903D01*
X69961342Y-106788904D01*
X69961344Y-106788905D01*
X69985872Y-106795477D01*
X70189592Y-106850063D01*
X70375429Y-106866322D01*
X70424999Y-106870659D01*
X70425000Y-106870659D01*
X70425001Y-106870659D01*
X70474571Y-106866322D01*
X70660408Y-106850063D01*
X70888663Y-106788903D01*
X71102830Y-106689035D01*
X71296401Y-106553495D01*
X71463495Y-106386401D01*
X71593425Y-106200842D01*
X71648002Y-106157217D01*
X71717500Y-106150023D01*
X71779855Y-106181546D01*
X71796575Y-106200842D01*
X71926500Y-106386395D01*
X71926505Y-106386401D01*
X72093599Y-106553495D01*
X72116167Y-106569297D01*
X72287165Y-106689032D01*
X72287167Y-106689033D01*
X72287170Y-106689035D01*
X72501337Y-106788903D01*
X72501343Y-106788904D01*
X72501344Y-106788905D01*
X72525872Y-106795477D01*
X72729592Y-106850063D01*
X72915429Y-106866322D01*
X72964999Y-106870659D01*
X72965000Y-106870659D01*
X72965001Y-106870659D01*
X73014571Y-106866322D01*
X73200408Y-106850063D01*
X73428663Y-106788903D01*
X73642830Y-106689035D01*
X73836401Y-106553495D01*
X74003495Y-106386401D01*
X74133425Y-106200842D01*
X74188002Y-106157217D01*
X74257500Y-106150023D01*
X74319855Y-106181546D01*
X74336575Y-106200842D01*
X74466500Y-106386395D01*
X74466505Y-106386401D01*
X74633599Y-106553495D01*
X74656167Y-106569297D01*
X74827165Y-106689032D01*
X74827167Y-106689033D01*
X74827170Y-106689035D01*
X74832898Y-106691706D01*
X74885339Y-106737872D01*
X74904500Y-106804090D01*
X74904500Y-114569903D01*
X74884815Y-114636942D01*
X74868181Y-114657584D01*
X74612584Y-114913181D01*
X74551261Y-114946666D01*
X74524903Y-114949500D01*
X67152052Y-114949500D01*
X67085013Y-114929815D01*
X67046083Y-114889894D01*
X67016421Y-114841081D01*
X66949131Y-114730345D01*
X66833965Y-114600500D01*
X66798338Y-114560332D01*
X66798336Y-114560331D01*
X66798335Y-114560329D01*
X66678108Y-114465914D01*
X66619607Y-114419972D01*
X66619602Y-114419969D01*
X66418694Y-114313787D01*
X66418691Y-114313785D01*
X66418686Y-114313783D01*
X66418682Y-114313781D01*
X66418676Y-114313779D01*
X66202033Y-114245174D01*
X65976612Y-114216355D01*
X65749679Y-114228249D01*
X65749674Y-114228249D01*
X65749674Y-114228250D01*
X65738053Y-114230994D01*
X65528495Y-114280474D01*
X65320213Y-114371348D01*
X65320207Y-114371351D01*
X65131494Y-114497956D01*
X64968413Y-114656229D01*
X64836212Y-114841081D01*
X64836209Y-114841086D01*
X64739152Y-115046545D01*
X64739147Y-115046558D01*
X64442455Y-116153823D01*
X64413297Y-116321634D01*
X64414996Y-116548886D01*
X64414997Y-116548892D01*
X64457244Y-116772173D01*
X64538686Y-116984339D01*
X64656697Y-117178541D01*
X64656698Y-117178543D01*
X64656700Y-117178545D01*
X64695686Y-117222500D01*
X64803354Y-117343893D01*
X64807495Y-117348561D01*
X64886915Y-117410930D01*
X64986222Y-117488917D01*
X64986227Y-117488920D01*
X65087994Y-117542705D01*
X65187144Y-117595107D01*
X65187151Y-117595109D01*
X65187153Y-117595110D01*
X65211567Y-117602841D01*
X65403794Y-117663714D01*
X65629213Y-117692534D01*
X65856156Y-117680640D01*
X65989569Y-117649137D01*
X66077321Y-117628418D01*
X66077322Y-117628417D01*
X66077328Y-117628416D01*
X66285620Y-117537539D01*
X66285621Y-117537538D01*
X66285624Y-117537537D01*
X66474335Y-117410933D01*
X66474336Y-117410931D01*
X66474339Y-117410930D01*
X66637418Y-117252659D01*
X66769615Y-117067812D01*
X66866683Y-116862332D01*
X67018054Y-116297410D01*
X67032792Y-116242406D01*
X67069157Y-116182746D01*
X67132004Y-116152217D01*
X67152567Y-116150500D01*
X67764694Y-116150500D01*
X67831733Y-116170185D01*
X67877488Y-116222989D01*
X67887432Y-116292147D01*
X67858407Y-116355703D01*
X67852375Y-116362181D01*
X67214757Y-116999798D01*
X67105598Y-117130551D01*
X67028208Y-117266942D01*
X66993449Y-117328200D01*
X66940867Y-117478472D01*
X66918391Y-117542705D01*
X66882841Y-117767152D01*
X66882841Y-117767164D01*
X66887940Y-117994353D01*
X66933524Y-118216988D01*
X66933526Y-118216996D01*
X67018130Y-118427909D01*
X67139038Y-118620332D01*
X67289773Y-118785242D01*
X67292358Y-118788070D01*
X67468895Y-118922485D01*
X67473170Y-118925740D01*
X67642306Y-119011918D01*
X67675653Y-119028909D01*
X67893305Y-119094268D01*
X68119130Y-119119712D01*
X68119132Y-119119711D01*
X68119134Y-119119712D01*
X68162671Y-119116776D01*
X68345870Y-119104424D01*
X68566236Y-119048897D01*
X68773145Y-118954914D01*
X68959949Y-118825497D01*
X69641267Y-118144179D01*
X69702590Y-118110694D01*
X69728948Y-118107860D01*
X75995153Y-118107860D01*
X76011337Y-118108920D01*
X76042640Y-118113042D01*
X76042641Y-118113042D01*
X76094894Y-118106162D01*
X76199402Y-118092404D01*
X76345481Y-118031896D01*
X76420063Y-117974667D01*
X76470922Y-117935642D01*
X76490150Y-117910582D01*
X76500829Y-117898404D01*
X77166045Y-117233189D01*
X77178230Y-117222503D01*
X77203282Y-117203282D01*
X77222125Y-117178724D01*
X77278552Y-117137523D01*
X77348298Y-117133368D01*
X77409218Y-117167580D01*
X77441971Y-117229298D01*
X77444500Y-117254212D01*
X77444500Y-122229903D01*
X77424815Y-122296942D01*
X77408181Y-122317584D01*
X77059669Y-122666096D01*
X76998346Y-122699581D01*
X76971988Y-122702415D01*
X71615753Y-122702415D01*
X71548714Y-122682730D01*
X71512780Y-122647499D01*
X71502041Y-122631492D01*
X71343770Y-122468413D01*
X71343769Y-122468412D01*
X71158923Y-122336215D01*
X71158920Y-122336213D01*
X71158918Y-122336212D01*
X71158913Y-122336209D01*
X70953454Y-122239152D01*
X70953446Y-122239149D01*
X70953442Y-122239147D01*
X69846176Y-121942455D01*
X69780854Y-121931105D01*
X69678365Y-121913297D01*
X69678364Y-121913297D01*
X69621552Y-121913721D01*
X69451113Y-121914996D01*
X69451107Y-121914997D01*
X69227826Y-121957244D01*
X69015660Y-122038686D01*
X69015660Y-122038687D01*
X68821458Y-122156697D01*
X68821451Y-122156703D01*
X68651442Y-122307491D01*
X68511082Y-122486222D01*
X68511079Y-122486227D01*
X68404897Y-122687135D01*
X68404889Y-122687153D01*
X68336285Y-122903795D01*
X68336285Y-122903797D01*
X68307465Y-123129216D01*
X68319359Y-123356153D01*
X68319360Y-123356158D01*
X68371581Y-123577321D01*
X68462462Y-123785624D01*
X68589066Y-123974335D01*
X68634871Y-124021532D01*
X68747341Y-124137418D01*
X68932188Y-124269615D01*
X68932191Y-124269616D01*
X68932192Y-124269617D01*
X68932193Y-124269618D01*
X69044689Y-124322760D01*
X69137668Y-124366683D01*
X70244935Y-124663375D01*
X70304800Y-124673777D01*
X70412738Y-124692533D01*
X70412740Y-124692532D01*
X70412746Y-124692534D01*
X70639994Y-124690834D01*
X70863287Y-124648585D01*
X71075446Y-124567145D01*
X71269655Y-124449131D01*
X71439671Y-124298335D01*
X71580028Y-124119606D01*
X71612964Y-124057286D01*
X71659375Y-123969474D01*
X71708103Y-123919401D01*
X71769005Y-123903415D01*
X77224598Y-123903415D01*
X77240782Y-123904475D01*
X77272085Y-123908597D01*
X77272086Y-123908597D01*
X77329881Y-123900988D01*
X77428847Y-123887959D01*
X77574926Y-123827451D01*
X77629441Y-123785620D01*
X77700367Y-123731197D01*
X77719594Y-123706138D01*
X77730275Y-123693958D01*
X78436043Y-122988190D01*
X78448223Y-122977509D01*
X78473282Y-122958282D01*
X78569536Y-122832841D01*
X78630044Y-122686762D01*
X78645500Y-122569361D01*
X78650682Y-122530000D01*
X78647622Y-122506760D01*
X78646561Y-122498697D01*
X78645500Y-122482512D01*
X78645500Y-106804090D01*
X78665185Y-106737051D01*
X78717101Y-106691706D01*
X78722830Y-106689035D01*
X78916401Y-106553495D01*
X79083495Y-106386401D01*
X79213425Y-106200842D01*
X79268002Y-106157217D01*
X79337500Y-106150023D01*
X79399855Y-106181546D01*
X79416575Y-106200842D01*
X79546500Y-106386395D01*
X79546505Y-106386401D01*
X79713599Y-106553495D01*
X79736167Y-106569297D01*
X79907165Y-106689032D01*
X79907167Y-106689033D01*
X79907170Y-106689035D01*
X80121337Y-106788903D01*
X80121343Y-106788904D01*
X80121344Y-106788905D01*
X80145872Y-106795477D01*
X80349592Y-106850063D01*
X80535429Y-106866322D01*
X80584999Y-106870659D01*
X80585000Y-106870659D01*
X80585001Y-106870659D01*
X80634571Y-106866322D01*
X80820408Y-106850063D01*
X81048663Y-106788903D01*
X81262830Y-106689035D01*
X81456401Y-106553495D01*
X81623495Y-106386401D01*
X81753425Y-106200842D01*
X81808002Y-106157217D01*
X81877500Y-106150023D01*
X81939855Y-106181546D01*
X81956575Y-106200842D01*
X82086500Y-106386395D01*
X82086505Y-106386401D01*
X82253599Y-106553495D01*
X82276167Y-106569297D01*
X82447165Y-106689032D01*
X82447167Y-106689033D01*
X82447170Y-106689035D01*
X82661337Y-106788903D01*
X82661343Y-106788904D01*
X82661344Y-106788905D01*
X82685872Y-106795477D01*
X82889592Y-106850063D01*
X83075429Y-106866322D01*
X83124999Y-106870659D01*
X83125000Y-106870659D01*
X83125001Y-106870659D01*
X83174571Y-106866322D01*
X83360408Y-106850063D01*
X83588663Y-106788903D01*
X83802830Y-106689035D01*
X83996401Y-106553495D01*
X84163495Y-106386401D01*
X84293425Y-106200842D01*
X84348002Y-106157217D01*
X84417500Y-106150023D01*
X84479855Y-106181546D01*
X84496575Y-106200842D01*
X84626500Y-106386395D01*
X84626505Y-106386401D01*
X84793599Y-106553495D01*
X84816167Y-106569297D01*
X84987165Y-106689032D01*
X84987167Y-106689033D01*
X84987170Y-106689035D01*
X85201337Y-106788903D01*
X85201343Y-106788904D01*
X85201344Y-106788905D01*
X85225872Y-106795477D01*
X85429592Y-106850063D01*
X85615429Y-106866322D01*
X85664999Y-106870659D01*
X85665000Y-106870659D01*
X85665001Y-106870659D01*
X85714571Y-106866322D01*
X85900408Y-106850063D01*
X86128663Y-106788903D01*
X86342830Y-106689035D01*
X86536401Y-106553495D01*
X86703495Y-106386401D01*
X86833425Y-106200842D01*
X86888002Y-106157217D01*
X86957500Y-106150023D01*
X87019855Y-106181546D01*
X87036575Y-106200842D01*
X87166500Y-106386395D01*
X87166505Y-106386401D01*
X87333599Y-106553495D01*
X87356167Y-106569297D01*
X87527165Y-106689032D01*
X87527167Y-106689033D01*
X87527170Y-106689035D01*
X87532898Y-106691706D01*
X87585339Y-106737872D01*
X87604500Y-106804090D01*
X87604500Y-122757512D01*
X87603439Y-122773697D01*
X87599654Y-122802451D01*
X87599318Y-122805000D01*
X87602983Y-122832842D01*
X87604500Y-122844360D01*
X87604500Y-122844361D01*
X87619955Y-122961760D01*
X87619956Y-122961762D01*
X87670256Y-123083198D01*
X87680464Y-123107841D01*
X87734177Y-123177841D01*
X87776719Y-123233283D01*
X87801769Y-123252504D01*
X87813964Y-123263199D01*
X88244713Y-123693948D01*
X88255407Y-123706142D01*
X88274631Y-123731195D01*
X88274632Y-123731196D01*
X88306130Y-123755365D01*
X88400073Y-123827450D01*
X88400075Y-123827450D01*
X88400077Y-123827452D01*
X88473112Y-123857704D01*
X88546152Y-123887958D01*
X88702914Y-123908596D01*
X88715260Y-123906970D01*
X88784293Y-123917734D01*
X88836550Y-123964112D01*
X88845829Y-123982028D01*
X88862362Y-124021524D01*
X88862365Y-124021530D01*
X88986137Y-124212120D01*
X89131715Y-124366683D01*
X89141951Y-124377550D01*
X89324800Y-124512497D01*
X89528806Y-124612627D01*
X89528810Y-124612628D01*
X89528812Y-124612629D01*
X89747407Y-124674721D01*
X89747410Y-124674721D01*
X89747412Y-124674722D01*
X89747416Y-124674722D01*
X89747420Y-124674723D01*
X89825724Y-124682361D01*
X89973592Y-124696785D01*
X90200077Y-124678108D01*
X91307344Y-124381416D01*
X91467252Y-124322762D01*
X91663205Y-124207666D01*
X91835457Y-124059431D01*
X91961797Y-123903414D01*
X91978473Y-123882821D01*
X92087655Y-123683514D01*
X92159493Y-123467920D01*
X92159494Y-123467915D01*
X92159495Y-123467913D01*
X92191683Y-123242951D01*
X92183186Y-123015855D01*
X92179691Y-122999998D01*
X92136716Y-122804998D01*
X92134276Y-122793927D01*
X92046525Y-122584298D01*
X92021913Y-122546399D01*
X91922756Y-122393711D01*
X91922753Y-122393707D01*
X91766942Y-122228280D01*
X91584091Y-122093331D01*
X91584088Y-122093329D01*
X91472360Y-122038491D01*
X91380085Y-121993201D01*
X91380082Y-121993200D01*
X91380078Y-121993198D01*
X91161483Y-121931105D01*
X91161470Y-121931103D01*
X90935304Y-121909043D01*
X90935300Y-121909043D01*
X90935298Y-121909043D01*
X90708813Y-121927720D01*
X90090746Y-122093331D01*
X89601542Y-122224413D01*
X89441634Y-122283067D01*
X89245687Y-122398160D01*
X89245687Y-122398161D01*
X89245686Y-122398162D01*
X89073437Y-122546394D01*
X89073432Y-122546398D01*
X89073430Y-122546399D01*
X89035797Y-122592872D01*
X88978309Y-122632583D01*
X88908478Y-122634909D01*
X88851751Y-122602516D01*
X88841819Y-122592584D01*
X88808334Y-122531261D01*
X88805500Y-122504903D01*
X88805500Y-120976015D01*
X88825185Y-120908976D01*
X88877989Y-120863221D01*
X88947147Y-120853277D01*
X89010703Y-120882302D01*
X89018477Y-120889649D01*
X89156231Y-121031588D01*
X89341078Y-121163785D01*
X89341081Y-121163786D01*
X89341082Y-121163787D01*
X89341083Y-121163788D01*
X89447893Y-121214244D01*
X89546558Y-121260853D01*
X90653825Y-121557545D01*
X90713690Y-121567947D01*
X90821628Y-121586703D01*
X90821630Y-121586702D01*
X90821636Y-121586704D01*
X91048884Y-121585004D01*
X91272177Y-121542755D01*
X91484336Y-121461315D01*
X91678545Y-121343301D01*
X91848561Y-121192505D01*
X91988918Y-121013776D01*
X92095107Y-120812856D01*
X92163715Y-120596206D01*
X92192534Y-120370787D01*
X92180640Y-120143844D01*
X92128417Y-119922672D01*
X92128416Y-119922670D01*
X92128415Y-119922665D01*
X92037541Y-119714383D01*
X92037538Y-119714377D01*
X91910933Y-119525664D01*
X91752660Y-119362583D01*
X91752659Y-119362582D01*
X91567813Y-119230385D01*
X91567810Y-119230383D01*
X91567808Y-119230382D01*
X91567803Y-119230379D01*
X91362344Y-119133322D01*
X91362336Y-119133319D01*
X91362332Y-119133317D01*
X90255066Y-118836625D01*
X90255063Y-118836624D01*
X90255054Y-118836622D01*
X90255056Y-118836622D01*
X90153272Y-118818937D01*
X90090592Y-118788067D01*
X90054552Y-118728209D01*
X90050500Y-118696768D01*
X90050500Y-117466631D01*
X90070185Y-117399592D01*
X90122989Y-117353837D01*
X90192147Y-117343893D01*
X90255703Y-117372918D01*
X90272872Y-117391141D01*
X90316718Y-117448282D01*
X90340631Y-117466631D01*
X90341769Y-117467504D01*
X90353964Y-117478199D01*
X90457486Y-117581721D01*
X90482704Y-117618120D01*
X90559806Y-117787863D01*
X90559807Y-117787865D01*
X90644834Y-117910595D01*
X90689223Y-117974667D01*
X91499798Y-118785242D01*
X91630548Y-118894399D01*
X91630549Y-118894400D01*
X91630551Y-118894401D01*
X91685782Y-118925740D01*
X91828200Y-119006551D01*
X92042702Y-119081609D01*
X92267158Y-119117159D01*
X92494354Y-119112060D01*
X92716991Y-119066475D01*
X92927908Y-118981870D01*
X93120330Y-118860963D01*
X93288070Y-118707642D01*
X93425739Y-118526833D01*
X93528910Y-118324347D01*
X93561149Y-118216988D01*
X93594268Y-118106696D01*
X93594268Y-118106693D01*
X93595878Y-118092402D01*
X93619712Y-117880870D01*
X93617401Y-117846601D01*
X93612045Y-117767157D01*
X93604424Y-117654130D01*
X93548897Y-117433764D01*
X93538525Y-117410930D01*
X93488137Y-117299998D01*
X93454914Y-117226855D01*
X93325497Y-117040051D01*
X92514922Y-116229476D01*
X92384172Y-116120319D01*
X92384170Y-116120318D01*
X92384168Y-116120316D01*
X92230015Y-116032847D01*
X92186520Y-116008167D01*
X91972018Y-115933110D01*
X91972015Y-115933109D01*
X91972014Y-115933109D01*
X91747567Y-115897559D01*
X91747555Y-115897559D01*
X91520365Y-115902658D01*
X91494372Y-115907980D01*
X91424747Y-115902142D01*
X91369330Y-115859589D01*
X91345717Y-115793831D01*
X91345500Y-115786500D01*
X91345500Y-109441180D01*
X91365185Y-109374141D01*
X91417989Y-109328386D01*
X91487147Y-109318442D01*
X91550703Y-109347467D01*
X91567874Y-109365692D01*
X91596718Y-109403282D01*
X91608316Y-109412181D01*
X91621769Y-109422504D01*
X91633964Y-109433199D01*
X91891799Y-109691034D01*
X91902493Y-109703228D01*
X91908800Y-109711447D01*
X91921718Y-109728282D01*
X91993104Y-109783058D01*
X92034674Y-109814956D01*
X92034675Y-109814957D01*
X92047157Y-109824535D01*
X92047158Y-109824535D01*
X92047159Y-109824536D01*
X92193238Y-109885044D01*
X92271619Y-109895363D01*
X92349999Y-109905682D01*
X92350000Y-109905682D01*
X92381302Y-109901560D01*
X92397487Y-109900500D01*
X93972586Y-109900500D01*
X94039625Y-109920185D01*
X94085380Y-109972989D01*
X94096586Y-110024500D01*
X94096586Y-114230402D01*
X94076901Y-114297441D01*
X94024097Y-114343196D01*
X94020466Y-114344785D01*
X93978475Y-114362362D01*
X93978471Y-114362364D01*
X93978470Y-114362365D01*
X93944775Y-114384247D01*
X93787879Y-114486137D01*
X93622453Y-114641947D01*
X93622450Y-114641950D01*
X93622450Y-114641951D01*
X93611911Y-114656231D01*
X93487502Y-114824801D01*
X93487501Y-114824803D01*
X93387370Y-115028812D01*
X93325278Y-115247407D01*
X93325276Y-115247420D01*
X93303215Y-115473582D01*
X93303215Y-115473589D01*
X93303215Y-115473592D01*
X93321892Y-115700077D01*
X93616006Y-116797723D01*
X93618585Y-116807347D01*
X93677239Y-116967255D01*
X93792335Y-117163207D01*
X93940565Y-117335453D01*
X93940568Y-117335456D01*
X94117178Y-117478473D01*
X94316485Y-117587655D01*
X94532079Y-117659493D01*
X94532083Y-117659493D01*
X94532087Y-117659495D01*
X94757049Y-117691683D01*
X94757051Y-117691682D01*
X94757052Y-117691683D01*
X94825177Y-117689133D01*
X94984145Y-117683186D01*
X95206073Y-117634276D01*
X95415702Y-117546525D01*
X95606293Y-117422753D01*
X95771722Y-117266939D01*
X95906669Y-117084091D01*
X96006799Y-116880085D01*
X96027461Y-116807344D01*
X96068894Y-116661483D01*
X96068896Y-116661470D01*
X96080197Y-116545613D01*
X96090957Y-116435298D01*
X96072280Y-116208813D01*
X95775588Y-115101546D01*
X95716934Y-114941638D01*
X95709050Y-114928215D01*
X95601839Y-114745687D01*
X95601838Y-114745686D01*
X95453605Y-114573435D01*
X95453603Y-114573433D01*
X95343550Y-114484313D01*
X95303838Y-114426825D01*
X95297586Y-114387947D01*
X95297586Y-109719573D01*
X95298647Y-109703387D01*
X95298668Y-109703228D01*
X95302768Y-109672086D01*
X95298634Y-109640685D01*
X95309399Y-109571650D01*
X95355779Y-109519394D01*
X95421573Y-109500500D01*
X98343060Y-109500500D01*
X98410099Y-109520185D01*
X98455854Y-109572989D01*
X98465798Y-109642147D01*
X98436773Y-109705703D01*
X98430741Y-109712181D01*
X98395184Y-109747737D01*
X98299211Y-109900476D01*
X98239631Y-110070745D01*
X98239630Y-110070750D01*
X98219435Y-110249996D01*
X98219435Y-110250003D01*
X98239630Y-110429249D01*
X98239631Y-110429254D01*
X98299211Y-110599523D01*
X98373805Y-110718237D01*
X98395184Y-110752262D01*
X98522738Y-110879816D01*
X98599108Y-110927802D01*
X98675479Y-110975790D01*
X98724127Y-110992812D01*
X98763539Y-111006603D01*
X98820315Y-111047323D01*
X98846063Y-111112275D01*
X98846585Y-111123644D01*
X98846585Y-114343176D01*
X98826900Y-114410215D01*
X98774096Y-114455970D01*
X98704938Y-114465914D01*
X98646000Y-114440699D01*
X98619607Y-114419972D01*
X98619602Y-114419969D01*
X98418694Y-114313787D01*
X98418691Y-114313785D01*
X98418686Y-114313783D01*
X98418682Y-114313781D01*
X98418676Y-114313779D01*
X98202033Y-114245174D01*
X97976612Y-114216355D01*
X97749679Y-114228249D01*
X97749674Y-114228249D01*
X97749674Y-114228250D01*
X97738053Y-114230994D01*
X97528495Y-114280474D01*
X97320213Y-114371348D01*
X97320207Y-114371351D01*
X97131494Y-114497956D01*
X96968413Y-114656229D01*
X96836212Y-114841081D01*
X96836209Y-114841086D01*
X96739152Y-115046545D01*
X96739147Y-115046558D01*
X96442455Y-116153823D01*
X96413297Y-116321634D01*
X96414996Y-116548886D01*
X96414997Y-116548892D01*
X96457244Y-116772173D01*
X96538686Y-116984339D01*
X96656697Y-117178541D01*
X96656698Y-117178543D01*
X96656700Y-117178545D01*
X96695686Y-117222500D01*
X96803354Y-117343893D01*
X96807495Y-117348561D01*
X96886915Y-117410930D01*
X96986222Y-117488917D01*
X96986227Y-117488920D01*
X97087994Y-117542705D01*
X97187144Y-117595107D01*
X97187151Y-117595109D01*
X97187153Y-117595110D01*
X97211567Y-117602841D01*
X97403794Y-117663714D01*
X97629213Y-117692534D01*
X97856156Y-117680640D01*
X97989569Y-117649137D01*
X98077321Y-117628418D01*
X98077322Y-117628417D01*
X98077328Y-117628416D01*
X98285620Y-117537539D01*
X98285621Y-117537538D01*
X98285624Y-117537537D01*
X98474335Y-117410933D01*
X98474336Y-117410931D01*
X98474339Y-117410930D01*
X98637418Y-117252659D01*
X98769615Y-117067812D01*
X98866683Y-116862332D01*
X98927205Y-116636456D01*
X98963568Y-116576799D01*
X99026415Y-116546269D01*
X99030763Y-116545617D01*
X99077317Y-116539489D01*
X99223396Y-116478981D01*
X99280325Y-116435298D01*
X99348837Y-116382727D01*
X99368065Y-116357667D01*
X99378737Y-116345496D01*
X99487821Y-116236412D01*
X99549142Y-116202930D01*
X99618834Y-116207914D01*
X99674767Y-116249786D01*
X99699184Y-116315251D01*
X99699500Y-116324096D01*
X99699500Y-116463694D01*
X99679815Y-116530733D01*
X99663181Y-116551375D01*
X99214757Y-116999798D01*
X99105598Y-117130551D01*
X99028208Y-117266942D01*
X98993449Y-117328200D01*
X98940867Y-117478472D01*
X98918391Y-117542705D01*
X98882841Y-117767152D01*
X98882841Y-117767164D01*
X98887940Y-117994353D01*
X98933524Y-118216988D01*
X98933526Y-118216996D01*
X99018130Y-118427909D01*
X99139038Y-118620332D01*
X99289773Y-118785242D01*
X99292358Y-118788070D01*
X99468895Y-118922485D01*
X99473170Y-118925740D01*
X99642306Y-119011918D01*
X99675653Y-119028909D01*
X99893305Y-119094268D01*
X100119130Y-119119712D01*
X100119132Y-119119711D01*
X100119134Y-119119712D01*
X100162671Y-119116776D01*
X100345870Y-119104424D01*
X100566236Y-119048897D01*
X100773145Y-118954914D01*
X100959949Y-118825497D01*
X101770524Y-118014922D01*
X101879681Y-117884172D01*
X101991833Y-117686520D01*
X102066891Y-117472018D01*
X102101388Y-117254212D01*
X102102441Y-117247565D01*
X102102441Y-117247562D01*
X102097342Y-117020366D01*
X102051757Y-116797729D01*
X101967152Y-116586812D01*
X101846245Y-116394390D01*
X101846244Y-116394389D01*
X101846243Y-116394387D01*
X101692926Y-116226651D01*
X101692920Y-116226646D01*
X101589835Y-116148157D01*
X101548421Y-116091884D01*
X101544006Y-116022154D01*
X101577990Y-115961106D01*
X101639585Y-115928123D01*
X101664953Y-115925500D01*
X103824903Y-115925500D01*
X103891942Y-115945185D01*
X103912584Y-115961819D01*
X103938181Y-115987416D01*
X103971666Y-116048739D01*
X103974500Y-116075097D01*
X103974500Y-119892235D01*
X103954815Y-119959274D01*
X103902011Y-120005029D01*
X103832853Y-120014973D01*
X103776868Y-119992006D01*
X103776863Y-119992002D01*
X102528678Y-120326451D01*
X102545555Y-120268975D01*
X102545555Y-120125197D01*
X102505048Y-119987242D01*
X102427316Y-119866288D01*
X102400593Y-119843132D01*
X103649643Y-119508452D01*
X103637191Y-119478705D01*
X103637189Y-119478701D01*
X103513472Y-119288193D01*
X103513469Y-119288189D01*
X103357719Y-119122828D01*
X103174941Y-118987932D01*
X102971008Y-118887838D01*
X102971009Y-118887838D01*
X102752500Y-118825770D01*
X102752488Y-118825768D01*
X102526410Y-118803717D01*
X102300010Y-118822386D01*
X101960407Y-118913382D01*
X102173968Y-119710407D01*
X102081318Y-119697086D01*
X102009792Y-119697086D01*
X101903240Y-119712406D01*
X101772455Y-119772134D01*
X101691633Y-119842164D01*
X101477443Y-119042792D01*
X101192804Y-119119062D01*
X101032958Y-119177693D01*
X100837085Y-119292743D01*
X100664907Y-119440915D01*
X100664905Y-119440917D01*
X100521943Y-119617459D01*
X100412805Y-119816685D01*
X100340995Y-120032197D01*
X100308817Y-120257079D01*
X100314246Y-120402167D01*
X100314247Y-120402167D01*
X101562432Y-120067717D01*
X101545555Y-120125197D01*
X101545555Y-120268975D01*
X101586062Y-120406930D01*
X101663794Y-120527884D01*
X101690514Y-120551037D01*
X100441467Y-120885718D01*
X100453920Y-120915466D01*
X100453924Y-120915474D01*
X100577642Y-121105982D01*
X100733390Y-121271343D01*
X100916168Y-121406239D01*
X101120101Y-121506333D01*
X101120100Y-121506333D01*
X101338609Y-121568401D01*
X101338621Y-121568403D01*
X101564698Y-121590454D01*
X101791101Y-121571784D01*
X102130701Y-121480787D01*
X101917139Y-120683764D01*
X102009792Y-120697086D01*
X102081318Y-120697086D01*
X102187870Y-120681766D01*
X102318655Y-120622038D01*
X102399474Y-120552008D01*
X102613665Y-121351378D01*
X102898286Y-121275115D01*
X102898298Y-121275111D01*
X103058151Y-121216478D01*
X103254024Y-121101428D01*
X103426202Y-120953256D01*
X103426204Y-120953254D01*
X103569167Y-120776711D01*
X103678304Y-120577483D01*
X103678306Y-120577478D01*
X103732859Y-120413759D01*
X103772726Y-120356380D01*
X103837287Y-120329664D01*
X103906042Y-120342093D01*
X103957163Y-120389721D01*
X103974500Y-120452958D01*
X103974500Y-122574903D01*
X103954815Y-122641942D01*
X103938181Y-122662584D01*
X103934669Y-122666096D01*
X103873346Y-122699581D01*
X103846988Y-122702415D01*
X103615753Y-122702415D01*
X103548714Y-122682730D01*
X103512780Y-122647499D01*
X103502041Y-122631492D01*
X103343770Y-122468413D01*
X103343769Y-122468412D01*
X103158923Y-122336215D01*
X103158920Y-122336213D01*
X103158918Y-122336212D01*
X103158913Y-122336209D01*
X102953454Y-122239152D01*
X102953446Y-122239149D01*
X102953442Y-122239147D01*
X101846176Y-121942455D01*
X101780854Y-121931105D01*
X101678365Y-121913297D01*
X101678364Y-121913297D01*
X101621552Y-121913721D01*
X101451113Y-121914996D01*
X101451107Y-121914997D01*
X101227826Y-121957244D01*
X101015660Y-122038686D01*
X101015660Y-122038687D01*
X100821458Y-122156697D01*
X100821451Y-122156703D01*
X100651442Y-122307491D01*
X100511082Y-122486222D01*
X100511079Y-122486227D01*
X100404897Y-122687135D01*
X100404889Y-122687153D01*
X100336285Y-122903795D01*
X100336285Y-122903797D01*
X100307465Y-123129216D01*
X100319359Y-123356153D01*
X100319360Y-123356158D01*
X100371581Y-123577321D01*
X100462462Y-123785624D01*
X100589066Y-123974335D01*
X100634871Y-124021532D01*
X100747341Y-124137418D01*
X100932188Y-124269615D01*
X100932191Y-124269616D01*
X100932192Y-124269617D01*
X100932193Y-124269618D01*
X101044689Y-124322760D01*
X101137668Y-124366683D01*
X102244935Y-124663375D01*
X102304800Y-124673777D01*
X102412738Y-124692533D01*
X102412740Y-124692532D01*
X102412746Y-124692534D01*
X102639994Y-124690834D01*
X102863287Y-124648585D01*
X103075446Y-124567145D01*
X103269655Y-124449131D01*
X103439671Y-124298335D01*
X103580028Y-124119606D01*
X103612964Y-124057286D01*
X103659375Y-123969474D01*
X103708103Y-123919401D01*
X103769005Y-123903415D01*
X104099598Y-123903415D01*
X104115782Y-123904475D01*
X104147085Y-123908597D01*
X104147086Y-123908597D01*
X104204881Y-123900988D01*
X104303847Y-123887959D01*
X104449926Y-123827451D01*
X104504441Y-123785620D01*
X104575367Y-123731197D01*
X104594594Y-123706138D01*
X104605275Y-123693958D01*
X104966043Y-123333190D01*
X104978223Y-123322509D01*
X105003282Y-123303282D01*
X105099536Y-123177841D01*
X105160044Y-123031762D01*
X105169407Y-122960638D01*
X105170328Y-122953645D01*
X105170328Y-122953644D01*
X105180682Y-122875000D01*
X105180682Y-122874998D01*
X105176561Y-122843697D01*
X105175500Y-122827512D01*
X105175500Y-115822487D01*
X105176561Y-115806301D01*
X105179023Y-115787599D01*
X105180682Y-115775000D01*
X105178056Y-115755057D01*
X105160044Y-115618239D01*
X105160044Y-115618238D01*
X105099536Y-115472159D01*
X105080066Y-115446785D01*
X105003282Y-115346718D01*
X105003280Y-115346716D01*
X105003279Y-115346715D01*
X104978228Y-115327493D01*
X104966034Y-115316799D01*
X104583199Y-114933964D01*
X104572503Y-114921767D01*
X104553286Y-114896722D01*
X104553283Y-114896720D01*
X104553282Y-114896718D01*
X104427841Y-114800464D01*
X104368340Y-114775818D01*
X104281762Y-114739956D01*
X104281760Y-114739955D01*
X104164361Y-114724500D01*
X104125000Y-114719318D01*
X104093697Y-114723439D01*
X104077513Y-114724500D01*
X101774500Y-114724500D01*
X101707461Y-114704815D01*
X101661706Y-114652011D01*
X101650500Y-114600500D01*
X101650500Y-110132412D01*
X101670185Y-110065373D01*
X101677555Y-110055097D01*
X101679810Y-110052267D01*
X101679816Y-110052262D01*
X101775789Y-109899522D01*
X101835368Y-109729255D01*
X101837292Y-109712181D01*
X101848736Y-109610616D01*
X101875803Y-109546202D01*
X101933397Y-109506647D01*
X101971956Y-109500500D01*
X110708885Y-109500500D01*
X110725069Y-109501560D01*
X110756372Y-109505682D01*
X110756373Y-109505682D01*
X110808626Y-109498802D01*
X110913134Y-109485044D01*
X111059213Y-109424536D01*
X111100074Y-109393182D01*
X111184654Y-109328282D01*
X111203882Y-109303222D01*
X111214561Y-109291044D01*
X113368788Y-107136819D01*
X113430111Y-107103334D01*
X113456469Y-107100500D01*
X117308678Y-107100500D01*
X117375717Y-107120185D01*
X117421472Y-107172989D01*
X117431898Y-107210617D01*
X117439630Y-107279249D01*
X117499210Y-107449521D01*
X117595184Y-107602262D01*
X117676643Y-107683721D01*
X117710128Y-107745044D01*
X117712962Y-107771402D01*
X117712962Y-112050500D01*
X117693277Y-112117539D01*
X117640473Y-112163294D01*
X117588962Y-112174500D01*
X114297487Y-112174500D01*
X114281302Y-112173439D01*
X114250000Y-112169318D01*
X114210639Y-112174500D01*
X114093239Y-112189955D01*
X114093237Y-112189956D01*
X113947160Y-112250463D01*
X113821714Y-112346721D01*
X113802495Y-112371769D01*
X113791800Y-112383964D01*
X112108965Y-114066798D01*
X112096775Y-114077489D01*
X112071717Y-114096718D01*
X112006464Y-114181760D01*
X112006462Y-114181762D01*
X111975464Y-114222157D01*
X111975461Y-114222163D01*
X111914957Y-114368234D01*
X111914955Y-114368239D01*
X111894318Y-114524998D01*
X111894318Y-114524999D01*
X111898439Y-114556301D01*
X111899500Y-114572487D01*
X111899500Y-122952512D01*
X111898439Y-122968697D01*
X111894318Y-122999998D01*
X111894318Y-123000000D01*
X111899500Y-123039360D01*
X111899500Y-123039361D01*
X111914955Y-123156760D01*
X111914956Y-123156762D01*
X111975464Y-123302841D01*
X112071718Y-123428282D01*
X112071719Y-123428283D01*
X112096769Y-123447504D01*
X112108964Y-123458199D01*
X112344713Y-123693948D01*
X112355407Y-123706142D01*
X112374631Y-123731195D01*
X112374632Y-123731196D01*
X112406130Y-123755365D01*
X112500073Y-123827450D01*
X112500075Y-123827450D01*
X112500077Y-123827452D01*
X112573112Y-123857704D01*
X112646152Y-123887958D01*
X112745127Y-123900988D01*
X112809024Y-123929254D01*
X112843325Y-123976046D01*
X112862362Y-124021524D01*
X112862365Y-124021530D01*
X112986137Y-124212120D01*
X113131715Y-124366683D01*
X113141951Y-124377550D01*
X113324800Y-124512497D01*
X113528806Y-124612627D01*
X113528810Y-124612628D01*
X113528812Y-124612629D01*
X113747407Y-124674721D01*
X113747410Y-124674721D01*
X113747412Y-124674722D01*
X113747416Y-124674722D01*
X113747420Y-124674723D01*
X113825724Y-124682361D01*
X113973592Y-124696785D01*
X114200077Y-124678108D01*
X115307344Y-124381416D01*
X115467252Y-124322762D01*
X115663205Y-124207666D01*
X115835457Y-124059431D01*
X115961797Y-123903414D01*
X115978473Y-123882821D01*
X116087655Y-123683514D01*
X116159493Y-123467920D01*
X116159494Y-123467915D01*
X116159495Y-123467913D01*
X116191683Y-123242951D01*
X116183186Y-123015855D01*
X116179691Y-122999998D01*
X116136716Y-122804998D01*
X116134276Y-122793927D01*
X116046525Y-122584298D01*
X116021913Y-122546399D01*
X115922756Y-122393711D01*
X115922753Y-122393707D01*
X115766942Y-122228280D01*
X115584091Y-122093331D01*
X115584088Y-122093329D01*
X115472360Y-122038491D01*
X115380085Y-121993201D01*
X115380082Y-121993200D01*
X115380078Y-121993198D01*
X115161483Y-121931105D01*
X115161470Y-121931103D01*
X114935304Y-121909043D01*
X114935300Y-121909043D01*
X114935298Y-121909043D01*
X114708813Y-121927720D01*
X114090746Y-122093331D01*
X113601542Y-122224413D01*
X113441634Y-122283067D01*
X113287302Y-122373718D01*
X113219527Y-122390698D01*
X113153331Y-122368341D01*
X113109730Y-122313744D01*
X113100500Y-122266798D01*
X113100500Y-121232859D01*
X113120185Y-121165820D01*
X113172989Y-121120065D01*
X113242147Y-121110121D01*
X113296633Y-121131999D01*
X113341075Y-121163783D01*
X113341083Y-121163788D01*
X113447893Y-121214244D01*
X113546558Y-121260853D01*
X114653825Y-121557545D01*
X114713690Y-121567947D01*
X114821628Y-121586703D01*
X114821630Y-121586702D01*
X114821636Y-121586704D01*
X115048884Y-121585004D01*
X115272177Y-121542755D01*
X115484336Y-121461315D01*
X115678545Y-121343301D01*
X115848561Y-121192505D01*
X115988918Y-121013776D01*
X116095107Y-120812856D01*
X116163715Y-120596206D01*
X116192534Y-120370787D01*
X116186575Y-120257079D01*
X124308817Y-120257079D01*
X124314246Y-120402167D01*
X124314247Y-120402167D01*
X125562432Y-120067717D01*
X125545555Y-120125197D01*
X125545555Y-120268975D01*
X125586062Y-120406930D01*
X125663794Y-120527884D01*
X125690514Y-120551037D01*
X124441467Y-120885718D01*
X124453920Y-120915466D01*
X124453924Y-120915474D01*
X124577642Y-121105982D01*
X124733390Y-121271343D01*
X124916168Y-121406239D01*
X125120101Y-121506333D01*
X125120100Y-121506333D01*
X125338609Y-121568401D01*
X125338621Y-121568403D01*
X125564698Y-121590454D01*
X125791101Y-121571784D01*
X126130701Y-121480787D01*
X125917139Y-120683764D01*
X126009792Y-120697086D01*
X126081318Y-120697086D01*
X126187870Y-120681766D01*
X126318655Y-120622038D01*
X126399474Y-120552008D01*
X126613665Y-121351378D01*
X126898286Y-121275115D01*
X126898298Y-121275111D01*
X127058151Y-121216478D01*
X127254024Y-121101428D01*
X127426202Y-120953256D01*
X127426204Y-120953254D01*
X127569167Y-120776711D01*
X127678304Y-120577483D01*
X127678306Y-120577478D01*
X127750115Y-120361969D01*
X127782292Y-120137093D01*
X127776862Y-119992003D01*
X126528678Y-120326451D01*
X126545555Y-120268975D01*
X126545555Y-120125197D01*
X126505048Y-119987242D01*
X126427316Y-119866288D01*
X126400593Y-119843132D01*
X127649643Y-119508452D01*
X127637191Y-119478705D01*
X127637189Y-119478701D01*
X127513472Y-119288193D01*
X127513469Y-119288189D01*
X127357719Y-119122828D01*
X127174941Y-118987932D01*
X126971008Y-118887838D01*
X126971009Y-118887838D01*
X126752500Y-118825770D01*
X126752488Y-118825768D01*
X126526410Y-118803717D01*
X126300010Y-118822386D01*
X125960407Y-118913382D01*
X126173968Y-119710407D01*
X126081318Y-119697086D01*
X126009792Y-119697086D01*
X125903240Y-119712406D01*
X125772455Y-119772134D01*
X125691633Y-119842164D01*
X125477443Y-119042792D01*
X125192804Y-119119062D01*
X125032958Y-119177693D01*
X124837085Y-119292743D01*
X124664907Y-119440915D01*
X124664905Y-119440917D01*
X124521943Y-119617459D01*
X124412805Y-119816685D01*
X124340995Y-120032197D01*
X124308817Y-120257079D01*
X116186575Y-120257079D01*
X116180640Y-120143844D01*
X116128417Y-119922672D01*
X116128416Y-119922670D01*
X116128415Y-119922665D01*
X116037541Y-119714383D01*
X116037538Y-119714377D01*
X115910933Y-119525664D01*
X115752660Y-119362583D01*
X115752659Y-119362582D01*
X115567813Y-119230385D01*
X115567810Y-119230383D01*
X115567808Y-119230382D01*
X115567803Y-119230379D01*
X115362344Y-119133322D01*
X115362336Y-119133319D01*
X115362332Y-119133317D01*
X114989001Y-119033283D01*
X114692406Y-118953810D01*
X114632746Y-118917445D01*
X114602217Y-118854598D01*
X114600500Y-118834035D01*
X114600500Y-118185306D01*
X114620185Y-118118267D01*
X114672989Y-118072512D01*
X114742147Y-118062568D01*
X114805703Y-118091593D01*
X114812181Y-118097625D01*
X115499798Y-118785242D01*
X115630548Y-118894399D01*
X115630549Y-118894400D01*
X115630551Y-118894401D01*
X115685782Y-118925740D01*
X115828200Y-119006551D01*
X116042702Y-119081609D01*
X116267158Y-119117159D01*
X116494354Y-119112060D01*
X116716991Y-119066475D01*
X116927908Y-118981870D01*
X117120330Y-118860963D01*
X117288070Y-118707642D01*
X117425739Y-118526833D01*
X117528910Y-118324347D01*
X117561149Y-118216988D01*
X117594268Y-118106696D01*
X117594268Y-118106693D01*
X117595878Y-118092402D01*
X117619712Y-117880870D01*
X117617401Y-117846601D01*
X117612045Y-117767157D01*
X117604424Y-117654130D01*
X117548897Y-117433764D01*
X117538525Y-117410930D01*
X117488137Y-117299998D01*
X117454914Y-117226855D01*
X117325497Y-117040051D01*
X116644179Y-116358733D01*
X116610694Y-116297410D01*
X116607860Y-116271052D01*
X116607860Y-114299500D01*
X116627545Y-114232461D01*
X116680349Y-114186706D01*
X116731860Y-114175500D01*
X117847601Y-114175500D01*
X117914640Y-114195185D01*
X117960395Y-114247989D01*
X117970339Y-114317147D01*
X117941314Y-114380703D01*
X117915139Y-114403493D01*
X117879212Y-114426825D01*
X117787879Y-114486137D01*
X117622453Y-114641947D01*
X117622450Y-114641950D01*
X117622450Y-114641951D01*
X117611911Y-114656231D01*
X117487502Y-114824801D01*
X117487501Y-114824803D01*
X117387370Y-115028812D01*
X117325278Y-115247407D01*
X117325276Y-115247420D01*
X117303215Y-115473582D01*
X117303215Y-115473589D01*
X117303215Y-115473592D01*
X117321892Y-115700077D01*
X117616006Y-116797723D01*
X117618585Y-116807347D01*
X117677239Y-116967255D01*
X117792335Y-117163207D01*
X117940565Y-117335453D01*
X117940568Y-117335456D01*
X118117178Y-117478473D01*
X118316485Y-117587655D01*
X118532079Y-117659493D01*
X118532083Y-117659493D01*
X118532087Y-117659495D01*
X118757049Y-117691683D01*
X118757051Y-117691682D01*
X118757052Y-117691683D01*
X118825177Y-117689133D01*
X118984145Y-117683186D01*
X119206073Y-117634276D01*
X119415702Y-117546525D01*
X119606293Y-117422753D01*
X119771722Y-117266939D01*
X119906669Y-117084091D01*
X120006799Y-116880085D01*
X120027461Y-116807344D01*
X120068894Y-116661483D01*
X120068896Y-116661469D01*
X120074770Y-116601248D01*
X120100869Y-116536435D01*
X120150731Y-116498724D01*
X120198396Y-116478981D01*
X120216354Y-116465201D01*
X120281521Y-116440007D01*
X120349966Y-116454044D01*
X120399956Y-116502858D01*
X120412773Y-116543636D01*
X120413960Y-116543412D01*
X120457244Y-116772173D01*
X120538686Y-116984339D01*
X120656697Y-117178541D01*
X120656698Y-117178543D01*
X120656700Y-117178545D01*
X120695686Y-117222500D01*
X120803354Y-117343893D01*
X120807495Y-117348561D01*
X120886915Y-117410930D01*
X120986222Y-117488917D01*
X120986227Y-117488920D01*
X121087994Y-117542705D01*
X121187144Y-117595107D01*
X121187151Y-117595109D01*
X121187153Y-117595110D01*
X121211567Y-117602841D01*
X121403794Y-117663714D01*
X121629213Y-117692534D01*
X121856156Y-117680640D01*
X121989569Y-117649137D01*
X122077321Y-117628418D01*
X122077322Y-117628417D01*
X122077328Y-117628416D01*
X122285620Y-117537539D01*
X122285621Y-117537538D01*
X122285624Y-117537537D01*
X122474335Y-117410933D01*
X122474336Y-117410931D01*
X122474339Y-117410930D01*
X122637418Y-117252659D01*
X122769615Y-117067812D01*
X122866683Y-116862332D01*
X122929033Y-116629634D01*
X122965398Y-116569976D01*
X123019963Y-116543469D01*
X123019461Y-116541594D01*
X123027309Y-116539489D01*
X123027317Y-116539489D01*
X123173396Y-116478981D01*
X123230325Y-116435298D01*
X123298837Y-116382727D01*
X123318064Y-116357668D01*
X123328745Y-116345488D01*
X123585206Y-116089027D01*
X123597386Y-116078346D01*
X123622445Y-116059119D01*
X123718699Y-115933678D01*
X123779207Y-115787599D01*
X123794663Y-115670198D01*
X123799845Y-115630837D01*
X123798186Y-115618239D01*
X123795724Y-115599534D01*
X123794663Y-115583349D01*
X123794663Y-107216650D01*
X123795724Y-107200464D01*
X123799845Y-107169162D01*
X123799845Y-107169161D01*
X123780173Y-107019740D01*
X123779207Y-107012401D01*
X123754490Y-106952729D01*
X123721032Y-106871952D01*
X123713563Y-106802483D01*
X123744838Y-106740004D01*
X123804928Y-106704352D01*
X123835593Y-106700500D01*
X124824903Y-106700500D01*
X124891942Y-106720185D01*
X124912584Y-106736819D01*
X125488181Y-107312416D01*
X125521666Y-107373739D01*
X125524500Y-107400097D01*
X125524500Y-115892942D01*
X125504815Y-115959981D01*
X125452011Y-116005736D01*
X125382853Y-116015680D01*
X125344207Y-116003428D01*
X125309624Y-115985807D01*
X125091977Y-115920451D01*
X124866158Y-115895008D01*
X124866147Y-115895007D01*
X124650297Y-115909562D01*
X124639412Y-115910296D01*
X124599111Y-115920451D01*
X124419043Y-115965823D01*
X124212140Y-116059804D01*
X124212134Y-116059807D01*
X124025332Y-116189223D01*
X123214757Y-116999798D01*
X123105598Y-117130551D01*
X123028208Y-117266942D01*
X122993449Y-117328200D01*
X122940867Y-117478472D01*
X122918391Y-117542705D01*
X122882841Y-117767152D01*
X122882841Y-117767164D01*
X122887940Y-117994353D01*
X122933524Y-118216988D01*
X122933526Y-118216996D01*
X123018130Y-118427909D01*
X123139038Y-118620332D01*
X123289773Y-118785242D01*
X123292358Y-118788070D01*
X123468895Y-118922485D01*
X123473170Y-118925740D01*
X123642306Y-119011918D01*
X123675653Y-119028909D01*
X123893305Y-119094268D01*
X124119130Y-119119712D01*
X124119132Y-119119711D01*
X124119134Y-119119712D01*
X124162671Y-119116776D01*
X124345870Y-119104424D01*
X124566236Y-119048897D01*
X124773145Y-118954914D01*
X124959949Y-118825497D01*
X125641267Y-118144179D01*
X125702590Y-118110694D01*
X125728948Y-118107860D01*
X125870153Y-118107860D01*
X125886337Y-118108920D01*
X125917640Y-118113042D01*
X125917641Y-118113042D01*
X125969894Y-118106162D01*
X126074402Y-118092404D01*
X126220481Y-118031896D01*
X126295063Y-117974667D01*
X126345922Y-117935642D01*
X126365149Y-117910583D01*
X126375830Y-117898403D01*
X126516043Y-117758190D01*
X126528223Y-117747509D01*
X126553282Y-117728282D01*
X126649536Y-117602841D01*
X126710044Y-117456762D01*
X126725500Y-117339361D01*
X126730682Y-117300000D01*
X126726561Y-117268697D01*
X126725500Y-117252512D01*
X126725500Y-107147494D01*
X126726561Y-107131308D01*
X126730683Y-107100000D01*
X126730683Y-107099999D01*
X126710044Y-106943238D01*
X126687727Y-106889361D01*
X126649536Y-106797159D01*
X126648245Y-106795477D01*
X126648243Y-106795474D01*
X126648244Y-106795472D01*
X126648234Y-106795463D01*
X126644008Y-106789956D01*
X126553282Y-106671718D01*
X126553281Y-106671717D01*
X126528228Y-106652493D01*
X126516034Y-106641799D01*
X126386416Y-106512181D01*
X126352931Y-106450858D01*
X126357915Y-106381166D01*
X126399787Y-106325233D01*
X126465251Y-106300816D01*
X126474097Y-106300500D01*
X126874903Y-106300500D01*
X126941942Y-106320185D01*
X126962584Y-106336819D01*
X129538181Y-108912416D01*
X129571666Y-108973739D01*
X129574500Y-109000097D01*
X129574500Y-122324903D01*
X129554815Y-122391942D01*
X129538181Y-122412584D01*
X129284669Y-122666096D01*
X129223346Y-122699581D01*
X129196988Y-122702415D01*
X127615753Y-122702415D01*
X127548714Y-122682730D01*
X127512780Y-122647499D01*
X127502041Y-122631492D01*
X127343770Y-122468413D01*
X127343769Y-122468412D01*
X127158923Y-122336215D01*
X127158920Y-122336213D01*
X127158918Y-122336212D01*
X127158913Y-122336209D01*
X126953454Y-122239152D01*
X126953446Y-122239149D01*
X126953442Y-122239147D01*
X125846176Y-121942455D01*
X125780854Y-121931105D01*
X125678365Y-121913297D01*
X125678364Y-121913297D01*
X125621552Y-121913721D01*
X125451113Y-121914996D01*
X125451107Y-121914997D01*
X125227826Y-121957244D01*
X125015660Y-122038686D01*
X125015660Y-122038687D01*
X124821458Y-122156697D01*
X124821451Y-122156703D01*
X124651442Y-122307491D01*
X124511082Y-122486222D01*
X124511079Y-122486227D01*
X124404897Y-122687135D01*
X124404889Y-122687153D01*
X124336285Y-122903795D01*
X124336285Y-122903797D01*
X124307465Y-123129216D01*
X124319359Y-123356153D01*
X124319360Y-123356158D01*
X124371581Y-123577321D01*
X124462462Y-123785624D01*
X124589066Y-123974335D01*
X124634871Y-124021532D01*
X124747341Y-124137418D01*
X124932188Y-124269615D01*
X124932191Y-124269616D01*
X124932192Y-124269617D01*
X124932193Y-124269618D01*
X125044689Y-124322760D01*
X125137668Y-124366683D01*
X126244935Y-124663375D01*
X126304800Y-124673777D01*
X126412738Y-124692533D01*
X126412740Y-124692532D01*
X126412746Y-124692534D01*
X126639994Y-124690834D01*
X126863287Y-124648585D01*
X127075446Y-124567145D01*
X127269655Y-124449131D01*
X127439671Y-124298335D01*
X127580028Y-124119606D01*
X127612964Y-124057286D01*
X127659375Y-123969474D01*
X127708103Y-123919401D01*
X127769005Y-123903415D01*
X129449598Y-123903415D01*
X129465782Y-123904475D01*
X129497085Y-123908597D01*
X129497086Y-123908597D01*
X129554881Y-123900988D01*
X129653847Y-123887959D01*
X129799926Y-123827451D01*
X129854441Y-123785620D01*
X129925367Y-123731197D01*
X129944594Y-123706138D01*
X129955275Y-123693958D01*
X130566043Y-123083190D01*
X130578223Y-123072509D01*
X130603282Y-123053282D01*
X130699536Y-122927841D01*
X130760044Y-122781762D01*
X130760502Y-122778282D01*
X130780683Y-122625000D01*
X130776561Y-122593689D01*
X130775500Y-122577504D01*
X130775500Y-108747487D01*
X130776561Y-108731301D01*
X130780682Y-108699999D01*
X130780682Y-108699998D01*
X130760044Y-108543239D01*
X130760044Y-108543238D01*
X130699536Y-108397159D01*
X130684713Y-108377841D01*
X130603282Y-108271718D01*
X130603280Y-108271716D01*
X130603279Y-108271715D01*
X130578228Y-108252493D01*
X130566034Y-108241799D01*
X127633199Y-105308964D01*
X127622504Y-105296769D01*
X127603283Y-105271719D01*
X127589318Y-105261003D01*
X127477841Y-105175464D01*
X127331762Y-105114956D01*
X127331760Y-105114955D01*
X127214361Y-105099500D01*
X127175000Y-105094318D01*
X127143697Y-105098439D01*
X127127513Y-105099500D01*
X112872494Y-105099500D01*
X112856308Y-105098439D01*
X112825001Y-105094317D01*
X112824999Y-105094317D01*
X112668238Y-105114955D01*
X112522157Y-105175464D01*
X112396718Y-105271716D01*
X112377489Y-105296775D01*
X112366798Y-105308965D01*
X110212584Y-107463181D01*
X110151261Y-107496666D01*
X110124903Y-107499500D01*
X96575097Y-107499500D01*
X96508058Y-107479815D01*
X96487416Y-107463181D01*
X96461819Y-107437584D01*
X96428334Y-107376261D01*
X96425500Y-107349903D01*
X96425500Y-106804090D01*
X96445185Y-106737051D01*
X96497101Y-106691706D01*
X96502830Y-106689035D01*
X96696401Y-106553495D01*
X96863495Y-106386401D01*
X96993425Y-106200842D01*
X97048002Y-106157217D01*
X97117500Y-106150023D01*
X97179855Y-106181546D01*
X97196575Y-106200842D01*
X97326500Y-106386395D01*
X97326505Y-106386401D01*
X97493599Y-106553495D01*
X97516167Y-106569297D01*
X97687165Y-106689032D01*
X97687167Y-106689033D01*
X97687170Y-106689035D01*
X97901337Y-106788903D01*
X97901343Y-106788904D01*
X97901344Y-106788905D01*
X97925872Y-106795477D01*
X98129592Y-106850063D01*
X98315429Y-106866322D01*
X98364999Y-106870659D01*
X98365000Y-106870659D01*
X98365001Y-106870659D01*
X98414571Y-106866322D01*
X98600408Y-106850063D01*
X98828663Y-106788903D01*
X99042830Y-106689035D01*
X99236401Y-106553495D01*
X99403495Y-106386401D01*
X99533425Y-106200842D01*
X99588002Y-106157217D01*
X99657500Y-106150023D01*
X99719855Y-106181546D01*
X99736575Y-106200842D01*
X99866500Y-106386395D01*
X99866505Y-106386401D01*
X100033599Y-106553495D01*
X100056167Y-106569297D01*
X100227165Y-106689032D01*
X100227167Y-106689033D01*
X100227170Y-106689035D01*
X100441337Y-106788903D01*
X100441343Y-106788904D01*
X100441344Y-106788905D01*
X100465872Y-106795477D01*
X100669592Y-106850063D01*
X100855429Y-106866322D01*
X100904999Y-106870659D01*
X100905000Y-106870659D01*
X100905001Y-106870659D01*
X100954571Y-106866322D01*
X101140408Y-106850063D01*
X101368663Y-106788903D01*
X101582830Y-106689035D01*
X101776401Y-106553495D01*
X101943495Y-106386401D01*
X102073425Y-106200842D01*
X102128002Y-106157217D01*
X102197500Y-106150023D01*
X102259855Y-106181546D01*
X102276575Y-106200842D01*
X102406500Y-106386395D01*
X102406505Y-106386401D01*
X102573599Y-106553495D01*
X102596167Y-106569297D01*
X102767165Y-106689032D01*
X102767167Y-106689033D01*
X102767170Y-106689035D01*
X102981337Y-106788903D01*
X102981343Y-106788904D01*
X102981344Y-106788905D01*
X103005872Y-106795477D01*
X103209592Y-106850063D01*
X103395429Y-106866322D01*
X103444999Y-106870659D01*
X103445000Y-106870659D01*
X103445001Y-106870659D01*
X103494571Y-106866322D01*
X103680408Y-106850063D01*
X103908663Y-106788903D01*
X104122830Y-106689035D01*
X104316401Y-106553495D01*
X104483495Y-106386401D01*
X104619035Y-106192830D01*
X104718903Y-105978663D01*
X104780063Y-105750408D01*
X104800659Y-105515000D01*
X107169341Y-105515000D01*
X107189936Y-105750403D01*
X107189938Y-105750413D01*
X107251094Y-105978655D01*
X107251096Y-105978659D01*
X107251097Y-105978663D01*
X107328067Y-106143725D01*
X107350965Y-106192830D01*
X107350967Y-106192834D01*
X107440140Y-106320185D01*
X107486505Y-106386401D01*
X107653599Y-106553495D01*
X107676167Y-106569297D01*
X107847165Y-106689032D01*
X107847167Y-106689033D01*
X107847170Y-106689035D01*
X108061337Y-106788903D01*
X108061343Y-106788904D01*
X108061344Y-106788905D01*
X108085872Y-106795477D01*
X108289592Y-106850063D01*
X108475429Y-106866322D01*
X108524999Y-106870659D01*
X108525000Y-106870659D01*
X108525001Y-106870659D01*
X108574571Y-106866322D01*
X108760408Y-106850063D01*
X108988663Y-106788903D01*
X109202830Y-106689035D01*
X109396401Y-106553495D01*
X109563495Y-106386401D01*
X109699035Y-106192830D01*
X109798903Y-105978663D01*
X109860063Y-105750408D01*
X109880659Y-105515000D01*
X109860063Y-105279592D01*
X109798903Y-105051337D01*
X109699035Y-104837171D01*
X109693425Y-104829158D01*
X109563494Y-104643597D01*
X109396402Y-104476506D01*
X109396396Y-104476501D01*
X109210842Y-104346575D01*
X109167217Y-104291998D01*
X109160023Y-104222500D01*
X109191546Y-104160145D01*
X109210842Y-104143425D01*
X109233026Y-104127891D01*
X109396401Y-104013495D01*
X109563495Y-103846401D01*
X109699035Y-103652830D01*
X109798903Y-103438663D01*
X109860063Y-103210408D01*
X109880659Y-102975000D01*
X109860063Y-102739592D01*
X109798903Y-102511337D01*
X109699035Y-102297171D01*
X109693425Y-102289158D01*
X109563494Y-102103597D01*
X109396402Y-101936506D01*
X109396395Y-101936501D01*
X109202834Y-101800967D01*
X109202830Y-101800965D01*
X109196448Y-101797989D01*
X108988663Y-101701097D01*
X108988659Y-101701096D01*
X108988655Y-101701094D01*
X108760413Y-101639938D01*
X108760403Y-101639936D01*
X108525001Y-101619341D01*
X108524999Y-101619341D01*
X108289596Y-101639936D01*
X108289586Y-101639938D01*
X108061344Y-101701094D01*
X108061335Y-101701098D01*
X107847171Y-101800964D01*
X107847169Y-101800965D01*
X107653597Y-101936505D01*
X107486505Y-102103597D01*
X107350965Y-102297169D01*
X107350964Y-102297171D01*
X107251098Y-102511335D01*
X107251094Y-102511344D01*
X107189938Y-102739586D01*
X107189936Y-102739596D01*
X107169341Y-102974999D01*
X107169341Y-102975000D01*
X107189936Y-103210403D01*
X107189938Y-103210413D01*
X107251094Y-103438655D01*
X107251096Y-103438659D01*
X107251097Y-103438663D01*
X107330800Y-103609586D01*
X107350965Y-103652830D01*
X107350967Y-103652834D01*
X107365351Y-103673376D01*
X107486501Y-103846396D01*
X107486506Y-103846402D01*
X107653597Y-104013493D01*
X107653603Y-104013498D01*
X107839158Y-104143425D01*
X107882783Y-104198002D01*
X107889977Y-104267500D01*
X107858454Y-104329855D01*
X107839158Y-104346575D01*
X107653597Y-104476505D01*
X107486505Y-104643597D01*
X107350965Y-104837169D01*
X107350964Y-104837171D01*
X107251098Y-105051335D01*
X107251094Y-105051344D01*
X107189938Y-105279586D01*
X107189936Y-105279596D01*
X107169341Y-105514999D01*
X107169341Y-105515000D01*
X104800659Y-105515000D01*
X104780063Y-105279592D01*
X104718903Y-105051337D01*
X104619035Y-104837171D01*
X104613425Y-104829158D01*
X104483494Y-104643597D01*
X104316402Y-104476506D01*
X104316396Y-104476501D01*
X104130842Y-104346575D01*
X104087217Y-104291998D01*
X104080023Y-104222500D01*
X104111546Y-104160145D01*
X104130842Y-104143425D01*
X104153026Y-104127891D01*
X104316401Y-104013495D01*
X104483495Y-103846401D01*
X104619035Y-103652830D01*
X104718903Y-103438663D01*
X104780063Y-103210408D01*
X104800659Y-102975000D01*
X104780063Y-102739592D01*
X104718903Y-102511337D01*
X104619035Y-102297171D01*
X104613425Y-102289158D01*
X104483494Y-102103597D01*
X104316402Y-101936506D01*
X104316395Y-101936501D01*
X104122834Y-101800967D01*
X104122830Y-101800965D01*
X104116448Y-101797989D01*
X103908663Y-101701097D01*
X103908659Y-101701096D01*
X103908655Y-101701094D01*
X103680413Y-101639938D01*
X103680403Y-101639936D01*
X103445001Y-101619341D01*
X103444999Y-101619341D01*
X103209596Y-101639936D01*
X103209586Y-101639938D01*
X102981344Y-101701094D01*
X102981335Y-101701098D01*
X102767171Y-101800964D01*
X102767169Y-101800965D01*
X102573597Y-101936505D01*
X102406505Y-102103597D01*
X102276575Y-102289158D01*
X102221998Y-102332783D01*
X102152500Y-102339977D01*
X102090145Y-102308454D01*
X102073425Y-102289158D01*
X101943494Y-102103597D01*
X101776402Y-101936506D01*
X101776395Y-101936501D01*
X101582834Y-101800967D01*
X101582830Y-101800965D01*
X101576448Y-101797989D01*
X101368663Y-101701097D01*
X101368659Y-101701096D01*
X101368655Y-101701094D01*
X101140413Y-101639938D01*
X101140403Y-101639936D01*
X100905001Y-101619341D01*
X100904999Y-101619341D01*
X100669596Y-101639936D01*
X100669586Y-101639938D01*
X100441344Y-101701094D01*
X100441335Y-101701098D01*
X100227171Y-101800964D01*
X100227169Y-101800965D01*
X100033597Y-101936505D01*
X99866505Y-102103597D01*
X99736575Y-102289158D01*
X99681998Y-102332783D01*
X99612500Y-102339977D01*
X99550145Y-102308454D01*
X99533425Y-102289158D01*
X99403494Y-102103597D01*
X99236402Y-101936506D01*
X99236395Y-101936501D01*
X99042834Y-101800967D01*
X99042830Y-101800965D01*
X99036448Y-101797989D01*
X98828663Y-101701097D01*
X98828659Y-101701096D01*
X98828655Y-101701094D01*
X98600413Y-101639938D01*
X98600403Y-101639936D01*
X98365001Y-101619341D01*
X98364999Y-101619341D01*
X98129596Y-101639936D01*
X98129586Y-101639938D01*
X97901344Y-101701094D01*
X97901335Y-101701098D01*
X97687171Y-101800964D01*
X97687169Y-101800965D01*
X97493597Y-101936505D01*
X97326505Y-102103597D01*
X97196575Y-102289158D01*
X97141998Y-102332783D01*
X97072500Y-102339977D01*
X97010145Y-102308454D01*
X96993425Y-102289158D01*
X96863494Y-102103597D01*
X96696402Y-101936506D01*
X96696395Y-101936501D01*
X96502834Y-101800967D01*
X96502830Y-101800965D01*
X96496448Y-101797989D01*
X96288663Y-101701097D01*
X96288659Y-101701096D01*
X96288655Y-101701094D01*
X96060413Y-101639938D01*
X96060403Y-101639936D01*
X95825001Y-101619341D01*
X95824999Y-101619341D01*
X95589596Y-101639936D01*
X95589586Y-101639938D01*
X95361344Y-101701094D01*
X95361335Y-101701098D01*
X95147171Y-101800964D01*
X95147169Y-101800965D01*
X94953597Y-101936505D01*
X94786505Y-102103597D01*
X94656575Y-102289158D01*
X94601998Y-102332783D01*
X94532500Y-102339977D01*
X94470145Y-102308454D01*
X94453425Y-102289158D01*
X94323494Y-102103597D01*
X94156402Y-101936506D01*
X94156395Y-101936501D01*
X93962834Y-101800967D01*
X93962830Y-101800965D01*
X93956448Y-101797989D01*
X93748663Y-101701097D01*
X93748659Y-101701096D01*
X93748655Y-101701094D01*
X93520413Y-101639938D01*
X93520403Y-101639936D01*
X93285001Y-101619341D01*
X93284999Y-101619341D01*
X93049596Y-101639936D01*
X93049586Y-101639938D01*
X92821344Y-101701094D01*
X92821335Y-101701098D01*
X92607171Y-101800964D01*
X92607169Y-101800965D01*
X92413597Y-101936505D01*
X92246505Y-102103597D01*
X92116575Y-102289158D01*
X92061998Y-102332783D01*
X91992500Y-102339977D01*
X91930145Y-102308454D01*
X91913425Y-102289158D01*
X91783494Y-102103597D01*
X91616402Y-101936506D01*
X91616395Y-101936501D01*
X91422834Y-101800967D01*
X91422830Y-101800965D01*
X91416448Y-101797989D01*
X91208663Y-101701097D01*
X91208659Y-101701096D01*
X91208655Y-101701094D01*
X90980413Y-101639938D01*
X90980403Y-101639936D01*
X90745001Y-101619341D01*
X90744999Y-101619341D01*
X90509596Y-101639936D01*
X90509586Y-101639938D01*
X90281344Y-101701094D01*
X90281335Y-101701098D01*
X90067171Y-101800964D01*
X90067169Y-101800965D01*
X89873597Y-101936505D01*
X89706505Y-102103597D01*
X89576575Y-102289158D01*
X89521998Y-102332783D01*
X89452500Y-102339977D01*
X89390145Y-102308454D01*
X89373425Y-102289158D01*
X89243494Y-102103597D01*
X89076402Y-101936506D01*
X89076395Y-101936501D01*
X88882834Y-101800967D01*
X88882830Y-101800965D01*
X88876448Y-101797989D01*
X88668663Y-101701097D01*
X88668659Y-101701096D01*
X88668655Y-101701094D01*
X88440413Y-101639938D01*
X88440403Y-101639936D01*
X88205001Y-101619341D01*
X88204999Y-101619341D01*
X87969596Y-101639936D01*
X87969586Y-101639938D01*
X87741344Y-101701094D01*
X87741335Y-101701098D01*
X87527171Y-101800964D01*
X87527169Y-101800965D01*
X87333597Y-101936505D01*
X87166505Y-102103597D01*
X87036575Y-102289158D01*
X86981998Y-102332783D01*
X86912500Y-102339977D01*
X86850145Y-102308454D01*
X86833425Y-102289158D01*
X86703494Y-102103597D01*
X86536402Y-101936506D01*
X86536395Y-101936501D01*
X86342834Y-101800967D01*
X86342830Y-101800965D01*
X86336448Y-101797989D01*
X86128663Y-101701097D01*
X86128659Y-101701096D01*
X86128655Y-101701094D01*
X85900413Y-101639938D01*
X85900403Y-101639936D01*
X85665001Y-101619341D01*
X85664999Y-101619341D01*
X85429596Y-101639936D01*
X85429586Y-101639938D01*
X85201344Y-101701094D01*
X85201335Y-101701098D01*
X84987171Y-101800964D01*
X84987169Y-101800965D01*
X84793597Y-101936505D01*
X84626505Y-102103597D01*
X84496575Y-102289158D01*
X84441998Y-102332783D01*
X84372500Y-102339977D01*
X84310145Y-102308454D01*
X84293425Y-102289158D01*
X84163494Y-102103597D01*
X83996402Y-101936506D01*
X83996395Y-101936501D01*
X83802834Y-101800967D01*
X83802830Y-101800965D01*
X83796448Y-101797989D01*
X83588663Y-101701097D01*
X83588659Y-101701096D01*
X83588655Y-101701094D01*
X83360413Y-101639938D01*
X83360403Y-101639936D01*
X83125001Y-101619341D01*
X83124999Y-101619341D01*
X82889596Y-101639936D01*
X82889586Y-101639938D01*
X82661344Y-101701094D01*
X82661335Y-101701098D01*
X82447171Y-101800964D01*
X82447169Y-101800965D01*
X82253597Y-101936505D01*
X82086505Y-102103597D01*
X81956575Y-102289158D01*
X81901998Y-102332783D01*
X81832500Y-102339977D01*
X81770145Y-102308454D01*
X81753425Y-102289158D01*
X81623494Y-102103597D01*
X81456402Y-101936506D01*
X81456395Y-101936501D01*
X81262834Y-101800967D01*
X81262830Y-101800965D01*
X81256448Y-101797989D01*
X81048663Y-101701097D01*
X81048659Y-101701096D01*
X81048655Y-101701094D01*
X80820413Y-101639938D01*
X80820403Y-101639936D01*
X80585001Y-101619341D01*
X80584999Y-101619341D01*
X80349596Y-101639936D01*
X80349586Y-101639938D01*
X80121344Y-101701094D01*
X80121335Y-101701098D01*
X79907171Y-101800964D01*
X79907169Y-101800965D01*
X79713597Y-101936505D01*
X79546505Y-102103597D01*
X79416575Y-102289158D01*
X79361998Y-102332783D01*
X79292500Y-102339977D01*
X79230145Y-102308454D01*
X79213425Y-102289158D01*
X79083494Y-102103597D01*
X78916402Y-101936506D01*
X78916395Y-101936501D01*
X78722834Y-101800967D01*
X78722830Y-101800965D01*
X78716448Y-101797989D01*
X78508663Y-101701097D01*
X78508659Y-101701096D01*
X78508655Y-101701094D01*
X78280413Y-101639938D01*
X78280403Y-101639936D01*
X78045001Y-101619341D01*
X78044999Y-101619341D01*
X77809596Y-101639936D01*
X77809586Y-101639938D01*
X77581344Y-101701094D01*
X77581335Y-101701098D01*
X77367171Y-101800964D01*
X77367169Y-101800965D01*
X77173597Y-101936505D01*
X77006505Y-102103597D01*
X76876575Y-102289158D01*
X76821998Y-102332783D01*
X76752500Y-102339977D01*
X76690145Y-102308454D01*
X76673425Y-102289158D01*
X76543494Y-102103597D01*
X76376402Y-101936506D01*
X76376395Y-101936501D01*
X76182831Y-101800965D01*
X76182826Y-101800962D01*
X76177091Y-101798288D01*
X76124653Y-101752113D01*
X76105500Y-101685908D01*
X76105500Y-101502487D01*
X76106561Y-101486301D01*
X76110682Y-101454999D01*
X76110682Y-101454998D01*
X76090044Y-101298239D01*
X76090044Y-101298238D01*
X76029536Y-101152159D01*
X76029535Y-101152158D01*
X76029535Y-101152157D01*
X75954988Y-101055005D01*
X75954970Y-101054983D01*
X75933281Y-101026717D01*
X75908233Y-101007497D01*
X75896038Y-100996802D01*
X75633199Y-100733964D01*
X75622503Y-100721767D01*
X75603286Y-100696722D01*
X75603283Y-100696720D01*
X75603282Y-100696718D01*
X75477841Y-100600464D01*
X75331762Y-100539956D01*
X75331760Y-100539955D01*
X75214361Y-100524500D01*
X75175000Y-100519318D01*
X75143697Y-100523439D01*
X75127513Y-100524500D01*
X73321843Y-100524500D01*
X73254804Y-100504815D01*
X73209049Y-100452011D01*
X73198623Y-100386617D01*
X73205565Y-100325003D01*
X73205565Y-100324996D01*
X73185369Y-100145750D01*
X73185368Y-100145745D01*
X73125788Y-99975476D01*
X73029815Y-99822737D01*
X72902262Y-99695184D01*
X72749523Y-99599211D01*
X72579254Y-99539631D01*
X72579250Y-99539630D01*
X72500591Y-99530768D01*
X72436177Y-99503701D01*
X72429351Y-99497538D01*
X72302842Y-99400464D01*
X72156762Y-99339956D01*
X72156760Y-99339955D01*
X72000001Y-99319318D01*
X72000000Y-99319318D01*
X71968697Y-99323439D01*
X71952513Y-99324500D01*
X70922487Y-99324500D01*
X70906302Y-99323439D01*
X70875000Y-99319318D01*
X70874999Y-99319318D01*
X70718239Y-99339955D01*
X70718237Y-99339956D01*
X70572157Y-99400464D01*
X70446718Y-99496716D01*
X70427489Y-99521775D01*
X70416798Y-99533965D01*
X70262582Y-99688182D01*
X70201262Y-99721666D01*
X70174903Y-99724500D01*
X70141322Y-99724500D01*
X70074283Y-99704815D01*
X70028528Y-99652011D01*
X70018102Y-99614383D01*
X70010369Y-99545750D01*
X70010368Y-99545748D01*
X70010368Y-99545745D01*
X69950789Y-99375478D01*
X69854816Y-99222738D01*
X69727262Y-99095184D01*
X69574523Y-98999211D01*
X69404254Y-98939631D01*
X69404250Y-98939630D01*
X69325591Y-98930768D01*
X69261177Y-98903701D01*
X69254351Y-98897538D01*
X69127842Y-98800464D01*
X68981762Y-98739956D01*
X68981760Y-98739955D01*
X68864361Y-98724500D01*
X68825000Y-98719318D01*
X68793697Y-98723439D01*
X68777513Y-98724500D01*
X39975429Y-98724500D01*
X39959244Y-98723439D01*
X39927942Y-98719318D01*
X39888581Y-98724500D01*
X39771181Y-98739955D01*
X39771179Y-98739956D01*
X39625099Y-98800464D01*
X39499660Y-98896716D01*
X39480431Y-98921775D01*
X39469740Y-98933965D01*
X31383965Y-107019740D01*
X31371775Y-107030431D01*
X31346716Y-107049660D01*
X31284068Y-107131308D01*
X31267545Y-107152841D01*
X31252085Y-107172989D01*
X31250462Y-107175104D01*
X31250461Y-107175105D01*
X31189957Y-107321176D01*
X31189955Y-107321181D01*
X31169318Y-107477940D01*
X31169318Y-107477941D01*
X31173439Y-107509243D01*
X31174500Y-107525429D01*
X31174500Y-122702512D01*
X31173438Y-122718697D01*
X31169318Y-122750000D01*
X20750500Y-122750000D01*
X20750500Y-103690021D01*
X20770185Y-103622982D01*
X20822989Y-103577227D01*
X20892147Y-103567283D01*
X20955703Y-103596308D01*
X20993477Y-103655086D01*
X20997378Y-103673376D01*
X21022378Y-103857938D01*
X21118313Y-104278258D01*
X21251542Y-104688296D01*
X21251545Y-104688304D01*
X21420985Y-105084730D01*
X21420989Y-105084738D01*
X21625294Y-105464399D01*
X21862799Y-105824207D01*
X21862800Y-105824208D01*
X22131608Y-106161282D01*
X22182223Y-106214221D01*
X24063103Y-104333341D01*
X24175031Y-104470918D01*
X24389990Y-104671676D01*
X24414544Y-104689008D01*
X22536877Y-106566675D01*
X22754227Y-106756569D01*
X22754244Y-106756582D01*
X23103024Y-107009986D01*
X23473140Y-107231120D01*
X23473146Y-107231123D01*
X23861569Y-107418178D01*
X23861583Y-107418184D01*
X24265209Y-107569667D01*
X24265234Y-107569675D01*
X24680816Y-107684369D01*
X25105023Y-107761351D01*
X25534435Y-107799999D01*
X25534438Y-107800000D01*
X25965562Y-107800000D01*
X25965564Y-107799999D01*
X26394976Y-107761351D01*
X26819183Y-107684369D01*
X27234765Y-107569675D01*
X27234790Y-107569667D01*
X27638416Y-107418184D01*
X27638430Y-107418178D01*
X28026853Y-107231123D01*
X28026859Y-107231120D01*
X28396975Y-107009986D01*
X28745755Y-106756582D01*
X28745772Y-106756569D01*
X28963121Y-106566675D01*
X27085455Y-104689008D01*
X27110010Y-104671676D01*
X27324969Y-104470918D01*
X27436895Y-104333342D01*
X29317775Y-106214222D01*
X29317776Y-106214222D01*
X29368386Y-106161289D01*
X29368386Y-106161288D01*
X29637199Y-105824208D01*
X29637200Y-105824207D01*
X29874705Y-105464399D01*
X30079010Y-105084738D01*
X30079014Y-105084730D01*
X30248454Y-104688304D01*
X30248457Y-104688296D01*
X30381686Y-104278258D01*
X30477621Y-103857938D01*
X30535494Y-103430701D01*
X30535495Y-103430692D01*
X30554838Y-103000003D01*
X30554838Y-102999996D01*
X30535495Y-102569307D01*
X30535494Y-102569298D01*
X30477621Y-102142061D01*
X30381686Y-101721741D01*
X30248457Y-101311703D01*
X30248454Y-101311695D01*
X30079014Y-100915269D01*
X30079010Y-100915261D01*
X29874705Y-100535600D01*
X29637200Y-100175792D01*
X29637199Y-100175791D01*
X29368391Y-99838717D01*
X29317774Y-99785776D01*
X27436894Y-101666656D01*
X27324969Y-101529082D01*
X27110010Y-101328324D01*
X27085453Y-101310990D01*
X28963121Y-99433323D01*
X28745772Y-99243430D01*
X28745755Y-99243417D01*
X28396975Y-98990013D01*
X28026859Y-98768879D01*
X28026853Y-98768876D01*
X27638430Y-98581821D01*
X27638416Y-98581815D01*
X27234790Y-98430332D01*
X27234765Y-98430324D01*
X26819183Y-98315630D01*
X26438282Y-98246507D01*
X26375835Y-98215169D01*
X26340244Y-98155043D01*
X26342809Y-98085221D01*
X26382715Y-98027869D01*
X26447294Y-98001197D01*
X26460423Y-98000500D01*
X134039577Y-98000500D01*
X134106616Y-98020185D01*
G37*
%TD.AperFunction*%
%TA.AperFunction,Conductor*%
G36*
X139718547Y-141108056D02*
G01*
X139748090Y-141171373D01*
X139749500Y-141190021D01*
X139749500Y-145375500D01*
X139729815Y-145442539D01*
X139677011Y-145488294D01*
X139625500Y-145499500D01*
X135460423Y-145499500D01*
X135393384Y-145479815D01*
X135347629Y-145427011D01*
X135337685Y-145357853D01*
X135366710Y-145294297D01*
X135425488Y-145256523D01*
X135438282Y-145253493D01*
X135819183Y-145184369D01*
X136234765Y-145069675D01*
X136234790Y-145069667D01*
X136638416Y-144918184D01*
X136638430Y-144918178D01*
X137026853Y-144731123D01*
X137026859Y-144731120D01*
X137396975Y-144509986D01*
X137745755Y-144256582D01*
X137745772Y-144256569D01*
X137963121Y-144066675D01*
X136085455Y-142189008D01*
X136110010Y-142171676D01*
X136324969Y-141970918D01*
X136436895Y-141833342D01*
X138317775Y-143714222D01*
X138317776Y-143714222D01*
X138368386Y-143661289D01*
X138368386Y-143661288D01*
X138637199Y-143324208D01*
X138637200Y-143324207D01*
X138874705Y-142964399D01*
X139079010Y-142584738D01*
X139079014Y-142584730D01*
X139248454Y-142188304D01*
X139248457Y-142188296D01*
X139381686Y-141778258D01*
X139477621Y-141357938D01*
X139502622Y-141173376D01*
X139531128Y-141109586D01*
X139589595Y-141071333D01*
X139659463Y-141070763D01*
X139718547Y-141108056D01*
G37*
%TD.AperFunction*%
%TA.AperFunction,Conductor*%
G36*
X139692539Y-98020185D02*
G01*
X139738294Y-98072989D01*
X139749500Y-98124500D01*
X139749500Y-102309978D01*
X139729815Y-102377017D01*
X139677011Y-102422772D01*
X139607853Y-102432716D01*
X139544297Y-102403691D01*
X139506523Y-102344913D01*
X139502622Y-102326623D01*
X139477621Y-102142061D01*
X139381686Y-101721741D01*
X139248457Y-101311703D01*
X139248454Y-101311695D01*
X139079014Y-100915269D01*
X139079010Y-100915261D01*
X138874705Y-100535600D01*
X138637200Y-100175792D01*
X138637199Y-100175791D01*
X138368391Y-99838717D01*
X138317774Y-99785776D01*
X136436894Y-101666656D01*
X136324969Y-101529082D01*
X136110010Y-101328324D01*
X136085453Y-101310990D01*
X137963121Y-99433323D01*
X137745772Y-99243430D01*
X137745755Y-99243417D01*
X137396975Y-98990013D01*
X137026859Y-98768879D01*
X137026853Y-98768876D01*
X136638430Y-98581821D01*
X136638416Y-98581815D01*
X136234790Y-98430332D01*
X136234765Y-98430324D01*
X135819183Y-98315630D01*
X135438282Y-98246507D01*
X135375835Y-98215169D01*
X135340244Y-98155043D01*
X135342809Y-98085221D01*
X135382715Y-98027869D01*
X135447294Y-98001197D01*
X135460423Y-98000500D01*
X139625500Y-98000500D01*
X139692539Y-98020185D01*
G37*
%TD.AperFunction*%
%TA.AperFunction,Conductor*%
G36*
X25106616Y-98020185D02*
G01*
X25152371Y-98072989D01*
X25162315Y-98142147D01*
X25133290Y-98205703D01*
X25074512Y-98243477D01*
X25061718Y-98246507D01*
X24680816Y-98315630D01*
X24265234Y-98430324D01*
X24265209Y-98430332D01*
X23861583Y-98581815D01*
X23861569Y-98581821D01*
X23473146Y-98768876D01*
X23473140Y-98768879D01*
X23103024Y-98990013D01*
X22754235Y-99243423D01*
X22536877Y-99433322D01*
X22536877Y-99433323D01*
X24414545Y-101310991D01*
X24389990Y-101328324D01*
X24175031Y-101529082D01*
X24063104Y-101666657D01*
X22182223Y-99785777D01*
X22131624Y-99838699D01*
X22131612Y-99838712D01*
X21862800Y-100175791D01*
X21862799Y-100175792D01*
X21625294Y-100535600D01*
X21420989Y-100915261D01*
X21420985Y-100915269D01*
X21251545Y-101311695D01*
X21251542Y-101311703D01*
X21118313Y-101721741D01*
X21022378Y-102142061D01*
X20997378Y-102326623D01*
X20968872Y-102390413D01*
X20910404Y-102428666D01*
X20840537Y-102429236D01*
X20781453Y-102391943D01*
X20751910Y-102328626D01*
X20750500Y-102309978D01*
X20750500Y-98124500D01*
X20770185Y-98057461D01*
X20822989Y-98011706D01*
X20874500Y-98000500D01*
X25039577Y-98000500D01*
X25106616Y-98020185D01*
G37*
%TD.AperFunction*%
%TD*%
M02*
