%TF.GenerationSoftware,KiCad,Pcbnew,7.0.11*%
%TF.CreationDate,2026-01-24T09:13:31-05:00*%
%TF.ProjectId,clock_iv11_tubes,636c6f63-6b5f-4697-9631-315f74756265,rev?*%
%TF.SameCoordinates,Original*%
%TF.FileFunction,Drillmap*%
%TF.FilePolarity,Positive*%
%FSLAX45Y45*%
G04 Gerber Fmt 4.5, Leading zero omitted, Abs format (unit mm)*
G04 Created by KiCad (PCBNEW 7.0.11) date 2026-01-24 09:13:31*
%MOMM*%
%LPD*%
G01*
G04 APERTURE LIST*
%ADD10C,0.050000*%
%ADD11C,0.200000*%
G04 APERTURE END LIST*
D10*
X2025000Y-9750000D02*
X14025000Y-9750000D01*
X14025000Y-14600000D01*
X2025000Y-14600000D01*
X2025000Y-9750000D01*
D11*
X2283277Y-14913984D02*
X2283277Y-14713984D01*
X2283277Y-14713984D02*
X2330896Y-14713984D01*
X2330896Y-14713984D02*
X2359467Y-14723508D01*
X2359467Y-14723508D02*
X2378515Y-14742555D01*
X2378515Y-14742555D02*
X2388039Y-14761603D01*
X2388039Y-14761603D02*
X2397563Y-14799698D01*
X2397563Y-14799698D02*
X2397563Y-14828269D01*
X2397563Y-14828269D02*
X2388039Y-14866365D01*
X2388039Y-14866365D02*
X2378515Y-14885412D01*
X2378515Y-14885412D02*
X2359467Y-14904460D01*
X2359467Y-14904460D02*
X2330896Y-14913984D01*
X2330896Y-14913984D02*
X2283277Y-14913984D01*
X2483277Y-14913984D02*
X2483277Y-14780650D01*
X2483277Y-14818746D02*
X2492801Y-14799698D01*
X2492801Y-14799698D02*
X2502324Y-14790174D01*
X2502324Y-14790174D02*
X2521372Y-14780650D01*
X2521372Y-14780650D02*
X2540420Y-14780650D01*
X2607086Y-14913984D02*
X2607086Y-14780650D01*
X2607086Y-14713984D02*
X2597563Y-14723508D01*
X2597563Y-14723508D02*
X2607086Y-14733031D01*
X2607086Y-14733031D02*
X2616610Y-14723508D01*
X2616610Y-14723508D02*
X2607086Y-14713984D01*
X2607086Y-14713984D02*
X2607086Y-14733031D01*
X2730896Y-14913984D02*
X2711848Y-14904460D01*
X2711848Y-14904460D02*
X2702324Y-14885412D01*
X2702324Y-14885412D02*
X2702324Y-14713984D01*
X2835658Y-14913984D02*
X2816610Y-14904460D01*
X2816610Y-14904460D02*
X2807086Y-14885412D01*
X2807086Y-14885412D02*
X2807086Y-14713984D01*
X3064229Y-14913984D02*
X3064229Y-14713984D01*
X3064229Y-14713984D02*
X3130896Y-14856841D01*
X3130896Y-14856841D02*
X3197562Y-14713984D01*
X3197562Y-14713984D02*
X3197562Y-14913984D01*
X3378515Y-14913984D02*
X3378515Y-14809222D01*
X3378515Y-14809222D02*
X3368991Y-14790174D01*
X3368991Y-14790174D02*
X3349943Y-14780650D01*
X3349943Y-14780650D02*
X3311848Y-14780650D01*
X3311848Y-14780650D02*
X3292801Y-14790174D01*
X3378515Y-14904460D02*
X3359467Y-14913984D01*
X3359467Y-14913984D02*
X3311848Y-14913984D01*
X3311848Y-14913984D02*
X3292801Y-14904460D01*
X3292801Y-14904460D02*
X3283277Y-14885412D01*
X3283277Y-14885412D02*
X3283277Y-14866365D01*
X3283277Y-14866365D02*
X3292801Y-14847317D01*
X3292801Y-14847317D02*
X3311848Y-14837793D01*
X3311848Y-14837793D02*
X3359467Y-14837793D01*
X3359467Y-14837793D02*
X3378515Y-14828269D01*
X3473753Y-14780650D02*
X3473753Y-14980650D01*
X3473753Y-14790174D02*
X3492801Y-14780650D01*
X3492801Y-14780650D02*
X3530896Y-14780650D01*
X3530896Y-14780650D02*
X3549943Y-14790174D01*
X3549943Y-14790174D02*
X3559467Y-14799698D01*
X3559467Y-14799698D02*
X3568991Y-14818746D01*
X3568991Y-14818746D02*
X3568991Y-14875888D01*
X3568991Y-14875888D02*
X3559467Y-14894936D01*
X3559467Y-14894936D02*
X3549943Y-14904460D01*
X3549943Y-14904460D02*
X3530896Y-14913984D01*
X3530896Y-14913984D02*
X3492801Y-14913984D01*
X3492801Y-14913984D02*
X3473753Y-14904460D01*
X3654705Y-14894936D02*
X3664229Y-14904460D01*
X3664229Y-14904460D02*
X3654705Y-14913984D01*
X3654705Y-14913984D02*
X3645182Y-14904460D01*
X3645182Y-14904460D02*
X3654705Y-14894936D01*
X3654705Y-14894936D02*
X3654705Y-14913984D01*
X3654705Y-14790174D02*
X3664229Y-14799698D01*
X3664229Y-14799698D02*
X3654705Y-14809222D01*
X3654705Y-14809222D02*
X3645182Y-14799698D01*
X3645182Y-14799698D02*
X3654705Y-14790174D01*
X3654705Y-14790174D02*
X3654705Y-14809222D01*
M02*
