M48
; DRILL file {KiCad 7.0.11} date Saturday, January 24, 2026 at 09:13:30 AM
; FORMAT={-:-/ absolute / inch / decimal}
; #@! TF.CreationDate,2026-01-24T09:13:30-05:00
; #@! TF.GenerationSoftware,Kicad,Pcbnew,7.0.11
; #@! TF.FileFunction,Plated,1,2,PTH
FMAT,2
INCH
; #@! TA.AperFunction,Plated,PTH,ViaDrill
T1C0.0118
; #@! TA.AperFunction,Plated,PTH,ComponentDrill
T2C0.0394
; #@! TA.AperFunction,Plated,PTH,ComponentDrill
T3C0.1693
%
G90
G05
T1
X1.0866Y-4.253
X1.189Y-4.1604
X1.189Y-4.3445
X1.2894Y-4.3248
X1.4951Y-4.2569
X1.5089Y-4.1358
X1.6398Y-4.2598
X1.6447Y-4.1358
X1.753Y-4.2677
X1.7667Y-4.1329
X1.8583Y-4.2825
X1.8632Y-4.1339
X1.9449Y-4.2835
X1.9537Y-4.1319
X2.0679Y-4.2933
X2.0797Y-4.1427
X2.1929Y-4.3337
X2.2018Y-4.1329
X2.4232Y-3.9872
X2.4291Y-4.2028
X2.4321Y-4.3366
X2.437Y-4.1053
X2.4734Y-3.9813
X2.5148Y-4.1063
X2.5177Y-3.9833
X2.5177Y-4.2037
X2.7254Y-3.9262
X2.7707Y-4.2539
X2.8071Y-4.2677
X2.81Y-3.9577
X2.8425Y-4.2874
X2.8504Y-3.9498
X2.877Y-4.3031
X2.9301Y-4.3287
X3.123Y-4.311
X3.186Y-4.314
X3.248Y-4.313
X3.8986Y-4.3406
X3.9409Y-4.3248
X3.9783Y-4.313
X4.0778Y-3.9852
X4.1201Y-4.3504
X4.125Y-4.2175
X4.1309Y-4.1053
X4.1654Y-4.3474
X4.1673Y-4.2205
X4.1781Y-3.9843
X4.2156Y-4.1043
X4.2215Y-4.3494
X4.2224Y-4.2136
X4.2805Y-3.9803
X4.3494Y-4.0148
X4.3494Y-4.1998
X4.3583Y-4.0945
X4.3642Y-4.1467
X4.4557Y-4.2766
X4.4951Y-4.2766
X4.5472Y-4.2766
X4.6545Y-4.2165
X4.688Y-4.2165
X4.7195Y-4.2165
X4.751Y-4.2165
X4.8484Y-5.0217
X4.8642Y-5.0423
X4.8878Y-5.06
X4.9035Y-5.0797
T2
X1.3565Y-4.7322
X1.3565Y-4.8544
X1.4176Y-4.9603
X1.4176Y-4.6263
X1.5235Y-4.5651
X1.6458Y-5.0215
X1.6458Y-4.5651
X1.7517Y-4.9603
X1.7517Y-4.6263
X1.8128Y-4.7322
X1.8128Y-4.8544
X2.3014Y-4.7322
X2.3014Y-4.8544
X2.3625Y-4.9603
X2.3625Y-4.6263
X2.3726Y-4.0541
X2.3726Y-4.1541
X2.4684Y-4.5651
X2.4726Y-4.0541
X2.4726Y-4.1541
X2.5726Y-4.0541
X2.5726Y-4.1541
X2.5907Y-5.0215
X2.5907Y-4.5651
X2.6726Y-4.0541
X2.6726Y-4.1541
X2.6966Y-4.9603
X2.6966Y-4.6263
X2.7577Y-4.7322
X2.7577Y-4.8544
X2.7726Y-4.0541
X2.7726Y-4.1541
X2.8726Y-4.0541
X2.8726Y-4.1541
X2.9726Y-4.0541
X2.9726Y-4.1541
X3.0726Y-4.0541
X3.0726Y-4.1541
X3.1726Y-4.0541
X3.1726Y-4.1541
X3.2726Y-4.0541
X3.2726Y-4.1541
X3.3726Y-4.0541
X3.3726Y-4.1541
X3.4726Y-4.0541
X3.4726Y-4.1541
X3.5612Y-4.7322
X3.5612Y-4.8544
X3.5726Y-4.0541
X3.5726Y-4.1541
X3.6223Y-4.9603
X3.6223Y-4.6263
X3.6726Y-4.0541
X3.6726Y-4.1541
X3.7282Y-4.5651
X3.7726Y-4.0541
X3.7726Y-4.1541
X3.8505Y-5.0215
X3.8505Y-4.5651
X3.8726Y-4.0541
X3.8726Y-4.1541
X3.9564Y-4.9603
X3.9564Y-4.6263
X3.9726Y-4.0541
X3.9726Y-4.1541
X4.0175Y-4.7322
X4.0175Y-4.8544
X4.0726Y-4.0541
X4.0726Y-4.1541
X4.1726Y-4.0541
X4.1726Y-4.1541
X4.2726Y-4.0541
X4.2726Y-4.1541
X4.5061Y-4.7322
X4.5061Y-4.8544
X4.5672Y-4.9603
X4.5672Y-4.6263
X4.6731Y-4.5651
X4.7954Y-5.0215
X4.7954Y-4.5651
X4.9013Y-4.9603
X4.9013Y-4.6263
X4.9624Y-4.7322
X4.9624Y-4.8544
T3
X1.0138Y-4.0551
X1.0138Y-5.5315
X5.3051Y-4.0551
X5.3051Y-5.5315
M30
