%TF.GenerationSoftware,KiCad,Pcbnew,7.0.11*%
%TF.CreationDate,2026-01-24T09:13:29-05:00*%
%TF.ProjectId,clock_iv11_tubes,636c6f63-6b5f-4697-9631-315f74756265,rev?*%
%TF.SameCoordinates,Original*%
%TF.FileFunction,Copper,L1,Top*%
%TF.FilePolarity,Positive*%
%FSLAX46Y46*%
G04 Gerber Fmt 4.6, Leading zero omitted, Abs format (unit mm)*
G04 Created by KiCad (PCBNEW 7.0.11) date 2026-01-24 09:13:29*
%MOMM*%
%LPD*%
G01*
G04 APERTURE LIST*
G04 Aperture macros list*
%AMHorizOval*
0 Thick line with rounded ends*
0 $1 width*
0 $2 $3 position (X,Y) of the first rounded end (center of the circle)*
0 $4 $5 position (X,Y) of the second rounded end (center of the circle)*
0 Add line between two ends*
20,1,$1,$2,$3,$4,$5,0*
0 Add two circle primitives to create the rounded ends*
1,1,$1,$2,$3*
1,1,$1,$4,$5*%
G04 Aperture macros list end*
%TA.AperFunction,ComponentPad*%
%ADD10C,8.600000*%
%TD*%
%TA.AperFunction,ComponentPad*%
%ADD11HorizOval,1.524000X-0.126304X0.471372X0.126304X-0.471372X0*%
%TD*%
%TA.AperFunction,ComponentPad*%
%ADD12HorizOval,1.524000X-0.345068X0.345068X0.345068X-0.345068X0*%
%TD*%
%TA.AperFunction,ComponentPad*%
%ADD13HorizOval,1.524000X-0.471372X0.126304X0.471372X-0.126304X0*%
%TD*%
%TA.AperFunction,ComponentPad*%
%ADD14HorizOval,1.524000X-0.471372X-0.126304X0.471372X0.126304X0*%
%TD*%
%TA.AperFunction,ComponentPad*%
%ADD15HorizOval,1.524000X-0.345068X-0.345068X0.345068X0.345068X0*%
%TD*%
%TA.AperFunction,ComponentPad*%
%ADD16HorizOval,1.524000X-0.126304X-0.471372X0.126304X0.471372X0*%
%TD*%
%TA.AperFunction,ComponentPad*%
%ADD17HorizOval,1.524000X0.126304X-0.471372X-0.126304X0.471372X0*%
%TD*%
%TA.AperFunction,ComponentPad*%
%ADD18HorizOval,1.524000X0.345068X-0.345068X-0.345068X0.345068X0*%
%TD*%
%TA.AperFunction,ComponentPad*%
%ADD19HorizOval,1.524000X0.471372X-0.126304X-0.471372X0.126304X0*%
%TD*%
%TA.AperFunction,ComponentPad*%
%ADD20HorizOval,1.524000X0.471372X0.126304X-0.471372X-0.126304X0*%
%TD*%
%TA.AperFunction,ComponentPad*%
%ADD21HorizOval,1.524000X0.345068X0.345068X-0.345068X-0.345068X0*%
%TD*%
%TA.AperFunction,ComponentPad*%
%ADD22R,1.700000X1.700000*%
%TD*%
%TA.AperFunction,ComponentPad*%
%ADD23O,1.700000X1.700000*%
%TD*%
%TA.AperFunction,ViaPad*%
%ADD24C,0.600000*%
%TD*%
%TA.AperFunction,Conductor*%
%ADD25C,1.000000*%
%TD*%
%TA.AperFunction,Conductor*%
%ADD26C,0.200000*%
%TD*%
G04 APERTURE END LIST*
D10*
%TO.P,H4,1,1*%
%TO.N,GND*%
X134750000Y-140500000D03*
%TD*%
%TO.P,H2,1,1*%
%TO.N,GND*%
X25750000Y-140500000D03*
%TD*%
D11*
%TO.P,V1,1,Pin_1*%
%TO.N,FILA_0_1*%
X41802914Y-127545555D03*
D12*
%TO.P,V1,2,Pin_2*%
%TO.N,+24V*%
X44492640Y-125992641D03*
D13*
%TO.P,V1,3,Pin_3*%
%TO.N,OUT_DIG_0_SEG_C*%
X46045555Y-123302915D03*
D14*
%TO.P,V1,4,Pin_4*%
%TO.N,GND*%
X46045555Y-120197086D03*
D15*
%TO.P,V1,5,Pin_5*%
%TO.N,OUT_DIG_0_SEG_B*%
X44492641Y-117507360D03*
D16*
%TO.P,V1,6,Pin_6*%
%TO.N,OUT_DIG_0_SEG_A*%
X41802915Y-115954445D03*
D17*
%TO.P,V1,7,Pin_7*%
%TO.N,OUT_DIG_0_SEG_G*%
X38697086Y-115954445D03*
D18*
%TO.P,V1,8,Pin_8*%
%TO.N,OUT_DIG_0_SEG_F*%
X36007360Y-117507359D03*
D19*
%TO.P,V1,9,Pin_9*%
%TO.N,OUT_DIG_0_SEG_E*%
X34454445Y-120197085D03*
D20*
%TO.P,V1,10,Pin_10*%
%TO.N,OUT_DIG_0_SEG_D*%
X34454445Y-123302914D03*
D21*
%TO.P,V1,11,Pin_11*%
%TO.N,+BATT*%
X36007359Y-125992640D03*
%TD*%
D11*
%TO.P,V2,1,Pin_1*%
%TO.N,-BATT*%
X65802914Y-127545555D03*
D12*
%TO.P,V2,2,Pin_2*%
%TO.N,+24V*%
X68492640Y-125992641D03*
D13*
%TO.P,V2,3,Pin_3*%
%TO.N,OUT_DIG_1_SEG_C*%
X70045555Y-123302915D03*
D14*
%TO.P,V2,4,Pin_4*%
%TO.N,GND*%
X70045555Y-120197086D03*
D15*
%TO.P,V2,5,Pin_5*%
%TO.N,OUT_DIG_1_SEG_B*%
X68492641Y-117507360D03*
D16*
%TO.P,V2,6,Pin_6*%
%TO.N,OUT_DIG_1_SEG_A*%
X65802915Y-115954445D03*
D17*
%TO.P,V2,7,Pin_7*%
%TO.N,OUT_DIG_1_SEG_G*%
X62697086Y-115954445D03*
D18*
%TO.P,V2,8,Pin_8*%
%TO.N,OUT_DIG_1_SEG_F*%
X60007360Y-117507359D03*
D19*
%TO.P,V2,9,Pin_9*%
%TO.N,OUT_DIG_1_SEG_E*%
X58454445Y-120197085D03*
D20*
%TO.P,V2,10,Pin_10*%
%TO.N,OUT_DIG_1_SEG_D*%
X58454445Y-123302914D03*
D21*
%TO.P,V2,11,Pin_11*%
%TO.N,FILA_0_1*%
X60007359Y-125992640D03*
%TD*%
D10*
%TO.P,H3,1,1*%
%TO.N,GND*%
X134750000Y-103000000D03*
%TD*%
D11*
%TO.P,V4,1,Pin_1*%
%TO.N,-BATT*%
X121802914Y-127545555D03*
D12*
%TO.P,V4,2,Pin_2*%
%TO.N,+24V*%
X124492640Y-125992641D03*
D13*
%TO.P,V4,3,Pin_3*%
%TO.N,OUT_DIG_3_SEG_C*%
X126045555Y-123302915D03*
D14*
%TO.P,V4,4,Pin_4*%
%TO.N,GND*%
X126045555Y-120197086D03*
D15*
%TO.P,V4,5,Pin_5*%
%TO.N,OUT_DIG_3_SEG_B*%
X124492641Y-117507360D03*
D16*
%TO.P,V4,6,Pin_6*%
%TO.N,OUT_DIG_3_SEG_A*%
X121802915Y-115954445D03*
D17*
%TO.P,V4,7,Pin_7*%
%TO.N,OUT_DIG_3_SEG_G*%
X118697086Y-115954445D03*
D18*
%TO.P,V4,8,Pin_8*%
%TO.N,OUT_DIG_3_SEG_F*%
X116007360Y-117507359D03*
D19*
%TO.P,V4,9,Pin_9*%
%TO.N,OUT_DIG_3_SEG_E*%
X114454445Y-120197085D03*
D20*
%TO.P,V4,10,Pin_10*%
%TO.N,OUT_DIG_3_SEG_D*%
X114454445Y-123302914D03*
D21*
%TO.P,V4,11,Pin_11*%
%TO.N,FILA_2_3*%
X116007359Y-125992640D03*
%TD*%
D11*
%TO.P,V3,1,Pin_1*%
%TO.N,FILA_2_3*%
X97802914Y-127545555D03*
D12*
%TO.P,V3,2,Pin_2*%
%TO.N,+24V*%
X100492640Y-125992641D03*
D13*
%TO.P,V3,3,Pin_3*%
%TO.N,OUT_DIG_2_SEG_C*%
X102045555Y-123302915D03*
D14*
%TO.P,V3,4,Pin_4*%
%TO.N,GND*%
X102045555Y-120197086D03*
D15*
%TO.P,V3,5,Pin_5*%
%TO.N,OUT_DIG_2_SEG_B*%
X100492641Y-117507360D03*
D16*
%TO.P,V3,6,Pin_6*%
%TO.N,OUT_DIG_2_SEG_A*%
X97802915Y-115954445D03*
D17*
%TO.P,V3,7,Pin_7*%
%TO.N,OUT_DIG_2_SEG_G*%
X94697086Y-115954445D03*
D18*
%TO.P,V3,8,Pin_8*%
%TO.N,OUT_DIG_2_SEG_F*%
X92007360Y-117507359D03*
D19*
%TO.P,V3,9,Pin_9*%
%TO.N,OUT_DIG_2_SEG_E*%
X90454445Y-120197085D03*
D20*
%TO.P,V3,10,Pin_10*%
%TO.N,OUT_DIG_2_SEG_D*%
X90454445Y-123302914D03*
D21*
%TO.P,V3,11,Pin_11*%
%TO.N,+BATT*%
X92007359Y-125992640D03*
%TD*%
D10*
%TO.P,H1,1,1*%
%TO.N,GND*%
X25750000Y-103000000D03*
%TD*%
D22*
%TO.P,J1,1,Pin_1*%
%TO.N,+BATT*%
X60265000Y-102975000D03*
D23*
%TO.P,J1,2,Pin_2*%
X60265000Y-105515000D03*
%TO.P,J1,3,Pin_3*%
%TO.N,GND*%
X62805000Y-102975000D03*
%TO.P,J1,4,Pin_4*%
X62805000Y-105515000D03*
%TO.P,J1,5,Pin_5*%
%TO.N,+24V*%
X65345000Y-102975000D03*
%TO.P,J1,6,Pin_6*%
X65345000Y-105515000D03*
%TO.P,J1,7,Pin_7*%
%TO.N,OUT_DIG_0_SEG_A*%
X67885000Y-102975000D03*
%TO.P,J1,8,Pin_8*%
%TO.N,OUT_DIG_0_SEG_B*%
X67885000Y-105515000D03*
%TO.P,J1,9,Pin_9*%
%TO.N,OUT_DIG_0_SEG_C*%
X70425000Y-102975000D03*
%TO.P,J1,10,Pin_10*%
%TO.N,OUT_DIG_0_SEG_D*%
X70425000Y-105515000D03*
%TO.P,J1,11,Pin_11*%
%TO.N,OUT_DIG_0_SEG_E*%
X72965000Y-102975000D03*
%TO.P,J1,12,Pin_12*%
%TO.N,OUT_DIG_0_SEG_F*%
X72965000Y-105515000D03*
%TO.P,J1,13,Pin_13*%
%TO.N,OUT_DIG_0_SEG_G*%
X75505000Y-102975000D03*
%TO.P,J1,14,Pin_14*%
%TO.N,OUT_DIG_1_SEG_A*%
X75505000Y-105515000D03*
%TO.P,J1,15,Pin_15*%
%TO.N,OUT_DIG_1_SEG_B*%
X78045000Y-102975000D03*
%TO.P,J1,16,Pin_16*%
%TO.N,OUT_DIG_1_SEG_C*%
X78045000Y-105515000D03*
%TO.P,J1,17,Pin_17*%
%TO.N,OUT_DIG_1_SEG_D*%
X80585000Y-102975000D03*
%TO.P,J1,18,Pin_18*%
%TO.N,OUT_DIG_1_SEG_E*%
X80585000Y-105515000D03*
%TO.P,J1,19,Pin_19*%
%TO.N,OUT_DIG_1_SEG_F*%
X83125000Y-102975000D03*
%TO.P,J1,20,Pin_20*%
%TO.N,OUT_DIG_1_SEG_G*%
X83125000Y-105515000D03*
%TO.P,J1,21,Pin_21*%
%TO.N,OUT_DIG_2_SEG_A*%
X85665000Y-102975000D03*
%TO.P,J1,22,Pin_22*%
%TO.N,OUT_DIG_2_SEG_B*%
X85665000Y-105515000D03*
%TO.P,J1,23,Pin_23*%
%TO.N,OUT_DIG_2_SEG_C*%
X88205000Y-102975000D03*
%TO.P,J1,24,Pin_24*%
%TO.N,OUT_DIG_2_SEG_D*%
X88205000Y-105515000D03*
%TO.P,J1,25,Pin_25*%
%TO.N,OUT_DIG_2_SEG_E*%
X90745000Y-102975000D03*
%TO.P,J1,26,Pin_26*%
%TO.N,OUT_DIG_2_SEG_F*%
X90745000Y-105515000D03*
%TO.P,J1,27,Pin_27*%
%TO.N,OUT_DIG_2_SEG_G*%
X93285000Y-102975000D03*
%TO.P,J1,28,Pin_28*%
%TO.N,OUT_DIG_3_SEG_A*%
X93285000Y-105515000D03*
%TO.P,J1,29,Pin_29*%
%TO.N,OUT_DIG_3_SEG_B*%
X95825000Y-102975000D03*
%TO.P,J1,30,Pin_30*%
%TO.N,OUT_DIG_3_SEG_C*%
X95825000Y-105515000D03*
%TO.P,J1,31,Pin_31*%
%TO.N,OUT_DIG_3_SEG_D*%
X98365000Y-102975000D03*
%TO.P,J1,32,Pin_32*%
%TO.N,OUT_DIG_3_SEG_E*%
X98365000Y-105515000D03*
%TO.P,J1,33,Pin_33*%
%TO.N,OUT_DIG_3_SEG_F*%
X100905000Y-102975000D03*
%TO.P,J1,34,Pin_34*%
%TO.N,OUT_DIG_3_SEG_G*%
X100905000Y-105515000D03*
%TO.P,J1,35,Pin_35*%
%TO.N,+24V*%
X103445000Y-102975000D03*
%TO.P,J1,36,Pin_36*%
X103445000Y-105515000D03*
%TO.P,J1,37,Pin_37*%
%TO.N,GND*%
X105985000Y-102975000D03*
%TO.P,J1,38,Pin_38*%
X105985000Y-105515000D03*
%TO.P,J1,39,Pin_39*%
%TO.N,-BATT*%
X108525000Y-102975000D03*
%TO.P,J1,40,Pin_40*%
X108525000Y-105515000D03*
%TD*%
D24*
%TO.N,GND*%
X32750000Y-109850000D03*
X106125000Y-101200000D03*
X107250000Y-107025000D03*
X105850000Y-107200000D03*
X74425000Y-109950000D03*
X110475000Y-101975000D03*
X63950000Y-106775000D03*
X104775000Y-107125000D03*
X79325000Y-109500000D03*
X55700000Y-110075000D03*
X49400000Y-108800000D03*
X44525000Y-108400000D03*
X108725000Y-101100000D03*
X30200000Y-105675000D03*
X115500000Y-108625000D03*
X47200000Y-108775000D03*
X62825000Y-101125000D03*
X114175000Y-108625000D03*
X38325000Y-105050000D03*
X63875000Y-104300000D03*
X41650000Y-108200000D03*
X110700000Y-104000000D03*
X30200000Y-110350000D03*
X37975000Y-108125000D03*
X44875000Y-104975000D03*
X52825000Y-105225000D03*
X104650000Y-110500000D03*
X110475000Y-106675000D03*
X55925000Y-104975000D03*
X105800000Y-110425000D03*
X49625000Y-104950000D03*
X47325000Y-105000000D03*
X107075000Y-104250000D03*
X61700000Y-106750000D03*
X107225000Y-110475000D03*
X52525000Y-109050000D03*
X27600000Y-108025000D03*
X104925000Y-104275000D03*
X103575000Y-101225000D03*
X113175000Y-108625000D03*
X41775000Y-105050000D03*
X61550000Y-101275000D03*
X110850000Y-105325000D03*
X80925000Y-109575000D03*
X63950000Y-101175000D03*
X82500000Y-109550000D03*
X61900000Y-104275000D03*
X61775000Y-110150000D03*
%TO.N,OUT_DIG_0_SEG_D*%
X69225000Y-99725000D03*
%TO.N,OUT_DIG_0_SEG_E*%
X72400000Y-100325000D03*
%TO.N,OUT_DIG_0_SEG_F*%
X71375000Y-100525000D03*
%TO.N,OUT_DIG_1_SEG_D*%
X70375000Y-108050000D03*
%TO.N,OUT_DIG_1_SEG_E*%
X71300000Y-108400000D03*
%TO.N,OUT_DIG_1_SEG_F*%
X72200000Y-108900000D03*
%TO.N,OUT_DIG_1_SEG_G*%
X73075000Y-109300000D03*
%TO.N,OUT_DIG_2_SEG_A*%
X99025000Y-110250000D03*
%TO.N,OUT_DIG_2_SEG_B*%
X100100000Y-109850000D03*
%TO.N,OUT_DIG_2_SEG_C*%
X101050000Y-109550000D03*
%TO.N,OUT_DIG_3_SEG_D*%
X118225000Y-107100000D03*
%TO.N,OUT_DIG_3_SEG_E*%
X119075000Y-107100000D03*
%TO.N,OUT_DIG_3_SEG_F*%
X119875003Y-107100000D03*
%TO.N,OUT_DIG_3_SEG_G*%
X120675006Y-107100000D03*
%TO.N,-BATT*%
X124150000Y-128525000D03*
X123150000Y-127550000D03*
X123550000Y-128075000D03*
X124550000Y-129025000D03*
%TD*%
D25*
%TO.N,+BATT*%
X92100000Y-131875000D02*
X92100000Y-126085281D01*
X60265000Y-102975000D02*
X60265000Y-105515000D01*
X28600000Y-109625000D02*
X28600000Y-125992640D01*
X60265000Y-105515000D02*
X59180000Y-106600000D01*
X91150000Y-132825000D02*
X92100000Y-131875000D01*
X92100000Y-126085281D02*
X92007359Y-125992640D01*
X30350000Y-132825000D02*
X91150000Y-132825000D01*
X59180000Y-106600000D02*
X31625000Y-106600000D01*
X28600000Y-131075000D02*
X30350000Y-132825000D01*
X28600000Y-125992640D02*
X28600000Y-131075000D01*
X31625000Y-106600000D02*
X28600000Y-109625000D01*
X28600000Y-125992640D02*
X36007359Y-125992640D01*
%TO.N,+24V*%
X65975000Y-111250000D02*
X80650000Y-111250000D01*
X65345000Y-102975000D02*
X65345000Y-105515000D01*
X131275000Y-111075000D02*
X132200000Y-112000000D01*
X132200000Y-112000000D02*
X132200000Y-125050000D01*
X80650000Y-111250000D02*
X80650000Y-124200000D01*
X65975000Y-111250000D02*
X53850000Y-111250000D01*
X110000000Y-111075000D02*
X131275000Y-111075000D01*
X65345000Y-110905000D02*
X65000000Y-111250000D01*
X52875000Y-112225000D02*
X52875000Y-124525000D01*
X131257359Y-125992641D02*
X124492640Y-125992641D01*
X65345000Y-105515000D02*
X65345000Y-110905000D01*
X80650000Y-111250000D02*
X102425000Y-111250000D01*
X103445000Y-110230000D02*
X103445000Y-105515000D01*
X102425000Y-111250000D02*
X103445000Y-110230000D01*
X110000000Y-111075000D02*
X110000000Y-125175000D01*
X78857359Y-125992641D02*
X68492640Y-125992641D01*
X103150000Y-111975000D02*
X109100000Y-111975000D01*
X109100000Y-111975000D02*
X110000000Y-111075000D01*
X53850000Y-111250000D02*
X52875000Y-112225000D01*
X51407359Y-125992641D02*
X44492640Y-125992641D01*
X52875000Y-124525000D02*
X51407359Y-125992641D01*
X80650000Y-124200000D02*
X78857359Y-125992641D01*
X65000000Y-111250000D02*
X65975000Y-111250000D01*
X103445000Y-105515000D02*
X103445000Y-102975000D01*
X110000000Y-125175000D02*
X109182359Y-125992641D01*
X102425000Y-111250000D02*
X103150000Y-111975000D01*
X109182359Y-125992641D02*
X100492640Y-125992641D01*
X132200000Y-125050000D02*
X131257359Y-125992641D01*
D26*
%TO.N,OUT_DIG_0_SEG_D*%
X69225000Y-99725000D02*
X69100000Y-99850000D01*
X69100000Y-104190000D02*
X70425000Y-105515000D01*
X69225000Y-99725000D02*
X69100000Y-99600000D01*
X69100000Y-99850000D02*
X69100000Y-104190000D01*
%TO.N,OUT_DIG_0_SEG_E*%
X72400000Y-100325000D02*
X72965000Y-100890000D01*
X72965000Y-100890000D02*
X72965000Y-102975000D01*
%TO.N,OUT_DIG_0_SEG_F*%
X71375000Y-100525000D02*
X71675000Y-100825000D01*
X71675000Y-104225000D02*
X72965000Y-105515000D01*
X71675000Y-100825000D02*
X71675000Y-104225000D01*
%TO.N,OUT_DIG_1_SEG_D*%
X70375000Y-108050000D02*
X71150000Y-107275000D01*
X71150000Y-107275000D02*
X78975000Y-107275000D01*
X79325000Y-104235000D02*
X80585000Y-102975000D01*
X79325000Y-106925000D02*
X79325000Y-104235000D01*
X78975000Y-107275000D02*
X79325000Y-106925000D01*
%TO.N,OUT_DIG_1_SEG_E*%
X80125000Y-107675000D02*
X72025000Y-107675000D01*
X72025000Y-107675000D02*
X71300000Y-108400000D01*
X80585000Y-107215000D02*
X80125000Y-107675000D01*
X80585000Y-105515000D02*
X80585000Y-107215000D01*
%TO.N,OUT_DIG_1_SEG_F*%
X73025000Y-108075000D02*
X81175000Y-108075000D01*
X81875000Y-104225000D02*
X83125000Y-102975000D01*
X81875000Y-107375000D02*
X81875000Y-104225000D01*
X81175000Y-108075000D02*
X81875000Y-107375000D01*
X72200000Y-108900000D02*
X73025000Y-108075000D01*
%TO.N,OUT_DIG_1_SEG_G*%
X82725000Y-108475000D02*
X73900000Y-108475000D01*
X83125000Y-105515000D02*
X83125000Y-108075000D01*
X73900000Y-108475000D02*
X73075000Y-109300000D01*
X83125000Y-108075000D02*
X82725000Y-108475000D01*
%TO.N,OUT_DIG_2_SEG_A*%
X98975000Y-110200000D02*
X98875000Y-110200000D01*
X99025000Y-110250000D02*
X98975000Y-110200000D01*
X84775000Y-110400000D02*
X84400000Y-110025000D01*
X98900000Y-110125000D02*
X97806372Y-110125000D01*
X84400000Y-104240000D02*
X85665000Y-102975000D01*
X99025000Y-110250000D02*
X98900000Y-110125000D01*
X97531372Y-110400000D02*
X84775000Y-110400000D01*
X84400000Y-110025000D02*
X84400000Y-104240000D01*
X97806372Y-110125000D02*
X97531372Y-110400000D01*
%TO.N,OUT_DIG_2_SEG_B*%
X99900000Y-109650000D02*
X97715686Y-109650000D01*
X100100000Y-109850000D02*
X99900000Y-109650000D01*
X97365686Y-110000000D02*
X85925000Y-110000000D01*
X97715686Y-109650000D02*
X97365686Y-110000000D01*
X100100000Y-109850000D02*
X100175000Y-109775000D01*
X85665000Y-109740000D02*
X85665000Y-105515000D01*
X85925000Y-110000000D02*
X85665000Y-109740000D01*
%TO.N,OUT_DIG_2_SEG_C*%
X101050000Y-109550000D02*
X101100000Y-109550000D01*
X86875000Y-109400000D02*
X87075000Y-109600000D01*
X97200000Y-109600000D02*
X97550001Y-109250000D01*
X101100000Y-109550000D02*
X101000000Y-109450000D01*
X97550001Y-109250000D02*
X100800000Y-109250000D01*
X87075000Y-109600000D02*
X97200000Y-109600000D01*
X101050000Y-109500000D02*
X101050000Y-109550000D01*
X100800000Y-109250000D02*
X101050000Y-109500000D01*
X86900000Y-104280000D02*
X86900000Y-109375000D01*
X88205000Y-102975000D02*
X86900000Y-104280000D01*
X86900000Y-109375000D02*
X86875000Y-109400000D01*
%TO.N,OUT_DIG_3_SEG_D*%
X99850000Y-98825000D02*
X98365000Y-100310000D01*
X98365000Y-100310000D02*
X98365000Y-102975000D01*
X118025000Y-101552944D02*
X115297056Y-98825000D01*
X118225000Y-107100000D02*
X118025000Y-106900000D01*
X115297056Y-98825000D02*
X99850000Y-98825000D01*
X118025000Y-106900000D02*
X118025000Y-101552944D01*
%TO.N,OUT_DIG_3_SEG_E*%
X99410000Y-105515000D02*
X98365000Y-105515000D01*
X117976471Y-107700000D02*
X117625000Y-107348529D01*
X119075000Y-107100000D02*
X119075000Y-107600000D01*
X100350000Y-99225000D02*
X99650000Y-99925000D01*
X99650000Y-99925000D02*
X99650000Y-105275000D01*
X117625000Y-101718629D02*
X115131370Y-99225000D01*
X115131370Y-99225000D02*
X100350000Y-99225000D01*
X99650000Y-105275000D02*
X99410000Y-105515000D01*
X117625000Y-107348529D02*
X117625000Y-101718629D01*
X119075000Y-107600000D02*
X118975000Y-107700000D01*
X118975000Y-107700000D02*
X117976471Y-107700000D01*
%TO.N,OUT_DIG_3_SEG_F*%
X114965685Y-99625000D02*
X101575000Y-99625000D01*
X119350000Y-108100000D02*
X117810786Y-108100000D01*
X101575000Y-99625000D02*
X100905000Y-100295000D01*
X119700000Y-107750000D02*
X119350000Y-108100000D01*
X117810786Y-108100000D02*
X117200000Y-107489215D01*
X117200000Y-107489215D02*
X117200000Y-101859315D01*
X119700000Y-107275003D02*
X119700000Y-107750000D01*
X119875003Y-107100000D02*
X119700000Y-107275003D01*
X100905000Y-100295000D02*
X100905000Y-102975000D01*
X117200000Y-101859315D02*
X114965685Y-99625000D01*
%TO.N,OUT_DIG_3_SEG_G*%
X114800000Y-100025000D02*
X102475000Y-100025000D01*
X116750000Y-101975000D02*
X114800000Y-100025000D01*
X117645100Y-108500000D02*
X116750000Y-107604901D01*
X102075000Y-100425000D02*
X102075000Y-105350000D01*
X120250000Y-108500000D02*
X117645100Y-108500000D01*
X102475000Y-100025000D02*
X102075000Y-100425000D01*
X120475003Y-107300003D02*
X120475003Y-108274997D01*
X101910000Y-105515000D02*
X100905000Y-105515000D01*
X102075000Y-105350000D02*
X101910000Y-105515000D01*
X120675006Y-107100000D02*
X120475003Y-107300003D01*
X120475003Y-108274997D02*
X120250000Y-108500000D01*
X116750000Y-107604901D02*
X116750000Y-101975000D01*
D25*
%TO.N,-BATT*%
X131825000Y-109875000D02*
X133400000Y-111450000D01*
X124550000Y-129025000D02*
X123600000Y-128075000D01*
X132225000Y-129025000D02*
X124550000Y-129025000D01*
X108950000Y-109875000D02*
X131825000Y-109875000D01*
X123070555Y-127545555D02*
X121802914Y-127545555D01*
X123550000Y-128075000D02*
X123550000Y-128025000D01*
X133400000Y-127850000D02*
X132225000Y-129025000D01*
X123600000Y-128075000D02*
X123550000Y-128075000D01*
X108525000Y-102975000D02*
X108525000Y-105515000D01*
X108525000Y-105515000D02*
X108525000Y-109450000D01*
X133400000Y-111450000D02*
X133400000Y-127850000D01*
X108525000Y-109450000D02*
X108950000Y-109875000D01*
X123550000Y-128025000D02*
X123070555Y-127545555D01*
%TO.N,FILA_0_1*%
X60007359Y-129642641D02*
X60007359Y-126297084D01*
X44150000Y-130150000D02*
X59500000Y-130150000D01*
X41802914Y-127802914D02*
X44150000Y-130150000D01*
X41802914Y-127545555D02*
X41802914Y-127802914D01*
X59500000Y-130150000D02*
X60007359Y-129642641D01*
%TO.N,FILA_2_3*%
X97802914Y-127545555D02*
X98532359Y-128275000D01*
X116007359Y-127892641D02*
X116007359Y-125992640D01*
X98532359Y-128275000D02*
X115625000Y-128275000D01*
X115625000Y-128275000D02*
X116007359Y-127892641D01*
%TD*%
%TA.AperFunction,Conductor*%
%TO.N,GND*%
G36*
X20955703Y-141096308D02*
G01*
X20993477Y-141155086D01*
X20997378Y-141173376D01*
X21022378Y-141357938D01*
X21118313Y-141778258D01*
X21251542Y-142188296D01*
X21251545Y-142188304D01*
X21420985Y-142584730D01*
X21420989Y-142584738D01*
X21625294Y-142964399D01*
X21862799Y-143324207D01*
X21862800Y-143324208D01*
X22131608Y-143661282D01*
X22182223Y-143714221D01*
X24063103Y-141833341D01*
X24175031Y-141970918D01*
X24389990Y-142171676D01*
X24414544Y-142189008D01*
X22536877Y-144066675D01*
X22754227Y-144256569D01*
X22754244Y-144256582D01*
X23103024Y-144509986D01*
X23473140Y-144731120D01*
X23473146Y-144731123D01*
X23861569Y-144918178D01*
X23861583Y-144918184D01*
X24265209Y-145069667D01*
X24265234Y-145069675D01*
X24680816Y-145184369D01*
X25061718Y-145253493D01*
X25124165Y-145284831D01*
X25159756Y-145344957D01*
X25157191Y-145414779D01*
X25117285Y-145472131D01*
X25052706Y-145498803D01*
X25039577Y-145499500D01*
X20874500Y-145499500D01*
X20807461Y-145479815D01*
X20761706Y-145427011D01*
X20750500Y-145375500D01*
X20750500Y-141190021D01*
X20770185Y-141122982D01*
X20822989Y-141077227D01*
X20892147Y-141067283D01*
X20955703Y-141096308D01*
G37*
%TD.AperFunction*%
%TA.AperFunction,Conductor*%
G36*
X99714986Y-98020185D02*
G01*
X99760741Y-98072989D01*
X99770685Y-98142147D01*
X99741660Y-98205703D01*
X99695400Y-98239061D01*
X99693239Y-98239955D01*
X99693238Y-98239956D01*
X99677423Y-98246507D01*
X99547157Y-98300464D01*
X99421718Y-98396716D01*
X99402489Y-98421775D01*
X99391798Y-98433965D01*
X97973965Y-99851798D01*
X97961774Y-99862490D01*
X97936718Y-99881717D01*
X97912549Y-99913213D01*
X97912550Y-99913214D01*
X97840464Y-100007158D01*
X97840461Y-100007163D01*
X97779957Y-100153234D01*
X97779955Y-100153239D01*
X97759318Y-100309998D01*
X97759318Y-100309999D01*
X97763439Y-100341301D01*
X97764500Y-100357487D01*
X97764500Y-101685908D01*
X97744815Y-101752947D01*
X97692914Y-101798286D01*
X97687173Y-101800963D01*
X97687169Y-101800965D01*
X97493597Y-101936505D01*
X97326505Y-102103597D01*
X97196575Y-102289158D01*
X97141998Y-102332783D01*
X97072500Y-102339977D01*
X97010145Y-102308454D01*
X96993425Y-102289158D01*
X96863494Y-102103597D01*
X96696402Y-101936506D01*
X96696395Y-101936501D01*
X96502834Y-101800967D01*
X96502830Y-101800965D01*
X96440594Y-101771944D01*
X96288663Y-101701097D01*
X96288659Y-101701096D01*
X96288655Y-101701094D01*
X96060413Y-101639938D01*
X96060403Y-101639936D01*
X95825001Y-101619341D01*
X95824999Y-101619341D01*
X95589596Y-101639936D01*
X95589586Y-101639938D01*
X95361344Y-101701094D01*
X95361337Y-101701096D01*
X95361337Y-101701097D01*
X95351903Y-101705496D01*
X95147171Y-101800964D01*
X95147169Y-101800965D01*
X94953597Y-101936505D01*
X94786505Y-102103597D01*
X94656575Y-102289158D01*
X94601998Y-102332783D01*
X94532500Y-102339977D01*
X94470145Y-102308454D01*
X94453425Y-102289158D01*
X94323494Y-102103597D01*
X94156402Y-101936506D01*
X94156395Y-101936501D01*
X93962834Y-101800967D01*
X93962830Y-101800965D01*
X93900594Y-101771944D01*
X93748663Y-101701097D01*
X93748659Y-101701096D01*
X93748655Y-101701094D01*
X93520413Y-101639938D01*
X93520403Y-101639936D01*
X93285001Y-101619341D01*
X93284999Y-101619341D01*
X93049596Y-101639936D01*
X93049586Y-101639938D01*
X92821344Y-101701094D01*
X92821337Y-101701096D01*
X92821337Y-101701097D01*
X92811903Y-101705496D01*
X92607171Y-101800964D01*
X92607169Y-101800965D01*
X92413597Y-101936505D01*
X92246505Y-102103597D01*
X92116575Y-102289158D01*
X92061998Y-102332783D01*
X91992500Y-102339977D01*
X91930145Y-102308454D01*
X91913425Y-102289158D01*
X91783494Y-102103597D01*
X91616402Y-101936506D01*
X91616395Y-101936501D01*
X91422834Y-101800967D01*
X91422830Y-101800965D01*
X91360594Y-101771944D01*
X91208663Y-101701097D01*
X91208659Y-101701096D01*
X91208655Y-101701094D01*
X90980413Y-101639938D01*
X90980403Y-101639936D01*
X90745001Y-101619341D01*
X90744999Y-101619341D01*
X90509596Y-101639936D01*
X90509586Y-101639938D01*
X90281344Y-101701094D01*
X90281337Y-101701096D01*
X90281337Y-101701097D01*
X90271903Y-101705496D01*
X90067171Y-101800964D01*
X90067169Y-101800965D01*
X89873597Y-101936505D01*
X89706505Y-102103597D01*
X89576575Y-102289158D01*
X89521998Y-102332783D01*
X89452500Y-102339977D01*
X89390145Y-102308454D01*
X89373425Y-102289158D01*
X89243494Y-102103597D01*
X89076402Y-101936506D01*
X89076395Y-101936501D01*
X88882834Y-101800967D01*
X88882830Y-101800965D01*
X88820594Y-101771944D01*
X88668663Y-101701097D01*
X88668659Y-101701096D01*
X88668655Y-101701094D01*
X88440413Y-101639938D01*
X88440403Y-101639936D01*
X88205001Y-101619341D01*
X88204999Y-101619341D01*
X87969596Y-101639936D01*
X87969586Y-101639938D01*
X87741344Y-101701094D01*
X87741337Y-101701096D01*
X87741337Y-101701097D01*
X87731903Y-101705496D01*
X87527171Y-101800964D01*
X87527169Y-101800965D01*
X87333597Y-101936505D01*
X87166505Y-102103597D01*
X87036575Y-102289158D01*
X86981998Y-102332783D01*
X86912500Y-102339977D01*
X86850145Y-102308454D01*
X86833425Y-102289158D01*
X86703494Y-102103597D01*
X86536402Y-101936506D01*
X86536395Y-101936501D01*
X86342834Y-101800967D01*
X86342830Y-101800965D01*
X86280594Y-101771944D01*
X86128663Y-101701097D01*
X86128659Y-101701096D01*
X86128655Y-101701094D01*
X85900413Y-101639938D01*
X85900403Y-101639936D01*
X85665001Y-101619341D01*
X85664999Y-101619341D01*
X85429596Y-101639936D01*
X85429586Y-101639938D01*
X85201344Y-101701094D01*
X85201337Y-101701096D01*
X85201337Y-101701097D01*
X85191903Y-101705496D01*
X84987171Y-101800964D01*
X84987169Y-101800965D01*
X84793597Y-101936505D01*
X84626505Y-102103597D01*
X84496575Y-102289158D01*
X84441998Y-102332783D01*
X84372500Y-102339977D01*
X84310145Y-102308454D01*
X84293425Y-102289158D01*
X84163494Y-102103597D01*
X83996402Y-101936506D01*
X83996395Y-101936501D01*
X83802834Y-101800967D01*
X83802830Y-101800965D01*
X83740594Y-101771944D01*
X83588663Y-101701097D01*
X83588659Y-101701096D01*
X83588655Y-101701094D01*
X83360413Y-101639938D01*
X83360403Y-101639936D01*
X83125001Y-101619341D01*
X83124999Y-101619341D01*
X82889596Y-101639936D01*
X82889586Y-101639938D01*
X82661344Y-101701094D01*
X82661337Y-101701096D01*
X82661337Y-101701097D01*
X82651903Y-101705496D01*
X82447171Y-101800964D01*
X82447169Y-101800965D01*
X82253597Y-101936505D01*
X82086505Y-102103597D01*
X81956575Y-102289158D01*
X81901998Y-102332783D01*
X81832500Y-102339977D01*
X81770145Y-102308454D01*
X81753425Y-102289158D01*
X81623494Y-102103597D01*
X81456402Y-101936506D01*
X81456395Y-101936501D01*
X81262834Y-101800967D01*
X81262830Y-101800965D01*
X81200594Y-101771944D01*
X81048663Y-101701097D01*
X81048659Y-101701096D01*
X81048655Y-101701094D01*
X80820413Y-101639938D01*
X80820403Y-101639936D01*
X80585001Y-101619341D01*
X80584999Y-101619341D01*
X80349596Y-101639936D01*
X80349586Y-101639938D01*
X80121344Y-101701094D01*
X80121337Y-101701096D01*
X80121337Y-101701097D01*
X80111903Y-101705496D01*
X79907171Y-101800964D01*
X79907169Y-101800965D01*
X79713597Y-101936505D01*
X79546505Y-102103597D01*
X79416575Y-102289158D01*
X79361998Y-102332783D01*
X79292500Y-102339977D01*
X79230145Y-102308454D01*
X79213425Y-102289158D01*
X79083494Y-102103597D01*
X78916402Y-101936506D01*
X78916395Y-101936501D01*
X78722834Y-101800967D01*
X78722830Y-101800965D01*
X78660594Y-101771944D01*
X78508663Y-101701097D01*
X78508659Y-101701096D01*
X78508655Y-101701094D01*
X78280413Y-101639938D01*
X78280403Y-101639936D01*
X78045001Y-101619341D01*
X78044999Y-101619341D01*
X77809596Y-101639936D01*
X77809586Y-101639938D01*
X77581344Y-101701094D01*
X77581337Y-101701096D01*
X77581337Y-101701097D01*
X77571903Y-101705496D01*
X77367171Y-101800964D01*
X77367169Y-101800965D01*
X77173597Y-101936505D01*
X77006505Y-102103597D01*
X76876575Y-102289158D01*
X76821998Y-102332783D01*
X76752500Y-102339977D01*
X76690145Y-102308454D01*
X76673425Y-102289158D01*
X76543494Y-102103597D01*
X76376402Y-101936506D01*
X76376395Y-101936501D01*
X76182834Y-101800967D01*
X76182830Y-101800965D01*
X76120594Y-101771944D01*
X75968663Y-101701097D01*
X75968659Y-101701096D01*
X75968655Y-101701094D01*
X75740413Y-101639938D01*
X75740403Y-101639936D01*
X75505001Y-101619341D01*
X75504999Y-101619341D01*
X75269596Y-101639936D01*
X75269586Y-101639938D01*
X75041344Y-101701094D01*
X75041337Y-101701096D01*
X75041337Y-101701097D01*
X75031903Y-101705496D01*
X74827171Y-101800964D01*
X74827169Y-101800965D01*
X74633597Y-101936505D01*
X74466505Y-102103597D01*
X74336575Y-102289158D01*
X74281998Y-102332783D01*
X74212500Y-102339977D01*
X74150145Y-102308454D01*
X74133425Y-102289158D01*
X74003494Y-102103597D01*
X73836402Y-101936506D01*
X73836395Y-101936501D01*
X73642831Y-101800965D01*
X73642826Y-101800962D01*
X73637091Y-101798288D01*
X73584653Y-101752113D01*
X73565500Y-101685908D01*
X73565500Y-100937487D01*
X73566561Y-100921301D01*
X73570682Y-100889999D01*
X73570682Y-100889998D01*
X73550044Y-100733239D01*
X73550042Y-100733234D01*
X73489538Y-100587163D01*
X73489535Y-100587158D01*
X73430614Y-100510369D01*
X73430610Y-100510366D01*
X73393282Y-100461718D01*
X73368228Y-100442493D01*
X73356034Y-100431799D01*
X73230700Y-100306465D01*
X73197215Y-100245142D01*
X73195163Y-100232686D01*
X73185368Y-100145745D01*
X73125789Y-99975478D01*
X73029816Y-99822738D01*
X72902262Y-99695184D01*
X72902260Y-99695183D01*
X72749523Y-99599211D01*
X72579254Y-99539631D01*
X72579249Y-99539630D01*
X72400004Y-99519435D01*
X72399996Y-99519435D01*
X72220750Y-99539630D01*
X72220745Y-99539631D01*
X72050476Y-99599211D01*
X71897739Y-99695183D01*
X71830870Y-99762052D01*
X71769546Y-99795536D01*
X71702234Y-99791412D01*
X71554254Y-99739631D01*
X71554249Y-99739630D01*
X71375004Y-99719435D01*
X71374996Y-99719435D01*
X71195750Y-99739630D01*
X71195745Y-99739631D01*
X71025476Y-99799211D01*
X70872737Y-99895184D01*
X70745184Y-100022737D01*
X70649211Y-100175476D01*
X70589631Y-100345745D01*
X70589630Y-100345750D01*
X70569435Y-100524996D01*
X70569435Y-100525003D01*
X70589630Y-100704249D01*
X70589631Y-100704254D01*
X70649211Y-100874523D01*
X70742750Y-101023388D01*
X70745184Y-101027262D01*
X70872738Y-101154816D01*
X71016474Y-101245131D01*
X71062763Y-101297463D01*
X71074500Y-101350123D01*
X71074500Y-101593113D01*
X71054815Y-101660152D01*
X71002011Y-101705907D01*
X70932853Y-101715851D01*
X70898098Y-101705496D01*
X70888670Y-101701099D01*
X70888655Y-101701094D01*
X70660413Y-101639938D01*
X70660403Y-101639936D01*
X70425001Y-101619341D01*
X70424999Y-101619341D01*
X70189596Y-101639936D01*
X70189586Y-101639938D01*
X69961344Y-101701094D01*
X69961330Y-101701099D01*
X69876904Y-101740468D01*
X69807827Y-101750960D01*
X69744043Y-101722440D01*
X69705804Y-101663963D01*
X69700500Y-101628086D01*
X69700500Y-100432940D01*
X69720185Y-100365901D01*
X69736819Y-100345259D01*
X69787078Y-100295000D01*
X69854816Y-100227262D01*
X69950789Y-100074522D01*
X70010368Y-99904255D01*
X70011390Y-99895184D01*
X70030565Y-99725003D01*
X70030565Y-99724996D01*
X70010369Y-99545750D01*
X70010368Y-99545745D01*
X69950788Y-99375476D01*
X69911582Y-99313080D01*
X69854816Y-99222738D01*
X69727262Y-99095184D01*
X69574523Y-98999211D01*
X69404254Y-98939631D01*
X69404249Y-98939630D01*
X69225004Y-98919435D01*
X69224996Y-98919435D01*
X69045750Y-98939630D01*
X69045745Y-98939631D01*
X68875476Y-98999211D01*
X68722737Y-99095184D01*
X68595184Y-99222737D01*
X68499211Y-99375476D01*
X68439631Y-99545745D01*
X68439630Y-99545750D01*
X68419435Y-99724996D01*
X68419435Y-99725003D01*
X68439630Y-99904249D01*
X68439633Y-99904262D01*
X68492541Y-100055461D01*
X68499500Y-100096416D01*
X68499500Y-101579913D01*
X68479815Y-101646952D01*
X68427011Y-101692707D01*
X68357853Y-101702651D01*
X68343407Y-101699688D01*
X68120413Y-101639938D01*
X68120403Y-101639936D01*
X67885001Y-101619341D01*
X67884999Y-101619341D01*
X67649596Y-101639936D01*
X67649586Y-101639938D01*
X67421344Y-101701094D01*
X67421337Y-101701096D01*
X67421337Y-101701097D01*
X67411903Y-101705496D01*
X67207171Y-101800964D01*
X67207169Y-101800965D01*
X67013597Y-101936505D01*
X66846505Y-102103597D01*
X66716575Y-102289158D01*
X66661998Y-102332783D01*
X66592500Y-102339977D01*
X66530145Y-102308454D01*
X66513425Y-102289158D01*
X66383494Y-102103597D01*
X66216402Y-101936506D01*
X66216395Y-101936501D01*
X66022834Y-101800967D01*
X66022830Y-101800965D01*
X65960594Y-101771944D01*
X65808663Y-101701097D01*
X65808659Y-101701096D01*
X65808655Y-101701094D01*
X65580413Y-101639938D01*
X65580403Y-101639936D01*
X65345001Y-101619341D01*
X65344999Y-101619341D01*
X65109596Y-101639936D01*
X65109586Y-101639938D01*
X64881344Y-101701094D01*
X64881337Y-101701096D01*
X64881337Y-101701097D01*
X64871903Y-101705496D01*
X64667171Y-101800964D01*
X64667169Y-101800965D01*
X64473597Y-101936505D01*
X64306505Y-102103597D01*
X64170965Y-102297169D01*
X64170964Y-102297171D01*
X64071098Y-102511335D01*
X64071094Y-102511344D01*
X64009938Y-102739586D01*
X64009936Y-102739596D01*
X63989341Y-102974999D01*
X63989341Y-102975000D01*
X64009936Y-103210403D01*
X64009938Y-103210413D01*
X64071094Y-103438655D01*
X64071096Y-103438659D01*
X64071097Y-103438663D01*
X64150800Y-103609586D01*
X64170965Y-103652830D01*
X64170967Y-103652834D01*
X64185351Y-103673376D01*
X64306501Y-103846396D01*
X64306506Y-103846402D01*
X64308181Y-103848077D01*
X64308682Y-103848995D01*
X64309982Y-103850544D01*
X64309670Y-103850805D01*
X64341666Y-103909400D01*
X64344500Y-103935758D01*
X64344500Y-104554241D01*
X64324815Y-104621280D01*
X64308181Y-104641922D01*
X64306505Y-104643597D01*
X64170965Y-104837169D01*
X64170964Y-104837171D01*
X64071098Y-105051335D01*
X64071094Y-105051344D01*
X64009938Y-105279586D01*
X64009936Y-105279596D01*
X63989341Y-105514999D01*
X63989341Y-105515000D01*
X64009936Y-105750403D01*
X64009938Y-105750413D01*
X64071094Y-105978655D01*
X64071096Y-105978659D01*
X64071097Y-105978663D01*
X64075000Y-105987032D01*
X64170965Y-106192830D01*
X64170967Y-106192834D01*
X64256250Y-106314630D01*
X64306501Y-106386396D01*
X64306506Y-106386402D01*
X64308181Y-106388077D01*
X64308682Y-106388995D01*
X64309982Y-106390544D01*
X64309670Y-106390805D01*
X64341666Y-106449400D01*
X64344500Y-106475758D01*
X64344500Y-110125500D01*
X64324815Y-110192539D01*
X64272011Y-110238294D01*
X64220500Y-110249500D01*
X53864238Y-110249500D01*
X53861098Y-110249460D01*
X53773637Y-110247244D01*
X53773625Y-110247245D01*
X53715589Y-110257646D01*
X53706265Y-110258954D01*
X53647563Y-110264925D01*
X53647554Y-110264927D01*
X53618528Y-110274034D01*
X53603288Y-110277775D01*
X53573349Y-110283141D01*
X53518567Y-110305022D01*
X53509698Y-110308179D01*
X53453414Y-110325840D01*
X53453410Y-110325842D01*
X53426811Y-110340605D01*
X53412638Y-110347336D01*
X53384382Y-110358623D01*
X53384378Y-110358625D01*
X53335122Y-110391086D01*
X53327069Y-110395965D01*
X53275501Y-110424588D01*
X53252413Y-110444408D01*
X53239887Y-110453852D01*
X53214482Y-110470596D01*
X53214476Y-110470601D01*
X53172777Y-110512301D01*
X53165869Y-110518704D01*
X53121105Y-110557134D01*
X53102480Y-110581194D01*
X53092108Y-110592969D01*
X52177645Y-111507433D01*
X52175398Y-111509625D01*
X52111946Y-111569942D01*
X52078245Y-111618361D01*
X52072574Y-111625882D01*
X52035302Y-111671592D01*
X52035298Y-111671598D01*
X52021209Y-111698568D01*
X52013082Y-111711983D01*
X51995702Y-111736955D01*
X51972438Y-111791165D01*
X51968398Y-111799672D01*
X51941090Y-111851951D01*
X51941090Y-111851952D01*
X51932720Y-111881201D01*
X51927459Y-111895979D01*
X51915459Y-111923943D01*
X51903588Y-111981711D01*
X51901342Y-111990860D01*
X51885113Y-112047577D01*
X51882802Y-112077926D01*
X51880622Y-112093466D01*
X51874500Y-112123258D01*
X51874500Y-112182240D01*
X51874142Y-112191656D01*
X51869662Y-112250474D01*
X51873506Y-112280649D01*
X51874500Y-112296317D01*
X51874500Y-124059218D01*
X51854815Y-124126257D01*
X51838181Y-124146899D01*
X51029258Y-124955822D01*
X50967935Y-124989307D01*
X50941577Y-124992141D01*
X45328947Y-124992141D01*
X45261908Y-124972456D01*
X45241266Y-124955822D01*
X45000201Y-124714757D01*
X44905361Y-124635580D01*
X44869452Y-124605601D01*
X44869450Y-124605600D01*
X44869448Y-124605598D01*
X44705369Y-124512497D01*
X44671800Y-124493449D01*
X44457298Y-124418392D01*
X44457295Y-124418391D01*
X44457294Y-124418391D01*
X44232847Y-124382841D01*
X44232835Y-124382841D01*
X44005646Y-124387940D01*
X43783011Y-124433524D01*
X43783003Y-124433526D01*
X43572090Y-124518130D01*
X43379667Y-124639038D01*
X43211932Y-124792355D01*
X43074259Y-124973170D01*
X42971092Y-125175648D01*
X42971092Y-125175649D01*
X42905731Y-125393306D01*
X42880288Y-125619123D01*
X42880287Y-125619134D01*
X42891245Y-125781641D01*
X42895576Y-125845870D01*
X42907343Y-125892568D01*
X42951103Y-126066238D01*
X43045084Y-126273141D01*
X43045086Y-126273145D01*
X43174503Y-126459949D01*
X43985078Y-127270524D01*
X44115828Y-127379681D01*
X44115829Y-127379682D01*
X44115831Y-127379683D01*
X44183850Y-127418278D01*
X44313480Y-127491833D01*
X44527982Y-127566891D01*
X44752438Y-127602441D01*
X44979634Y-127597342D01*
X45202271Y-127551757D01*
X45413188Y-127467152D01*
X45605610Y-127346245D01*
X45695793Y-127263814D01*
X45773348Y-127192926D01*
X45773353Y-127192920D01*
X45888248Y-127042023D01*
X45944521Y-127000609D01*
X45986905Y-126993141D01*
X51393080Y-126993141D01*
X51396222Y-126993181D01*
X51483717Y-126995398D01*
X51483717Y-126995397D01*
X51483722Y-126995398D01*
X51541784Y-126984990D01*
X51551113Y-126983682D01*
X51609797Y-126977715D01*
X51638830Y-126968605D01*
X51654059Y-126964867D01*
X51684012Y-126959499D01*
X51684016Y-126959497D01*
X51684018Y-126959497D01*
X51738782Y-126937621D01*
X51747651Y-126934462D01*
X51803947Y-126916800D01*
X51830559Y-126902028D01*
X51844721Y-126895303D01*
X51872976Y-126884018D01*
X51922238Y-126851550D01*
X51930269Y-126846684D01*
X51981861Y-126818050D01*
X51981868Y-126818043D01*
X51981871Y-126818042D01*
X52004942Y-126798235D01*
X52017484Y-126788778D01*
X52042878Y-126772043D01*
X52084585Y-126730335D01*
X52091497Y-126723929D01*
X52116729Y-126702268D01*
X52136254Y-126685507D01*
X52154883Y-126661439D01*
X52165243Y-126649676D01*
X53572390Y-125242528D01*
X53574559Y-125240413D01*
X53638053Y-125180059D01*
X53671752Y-125131641D01*
X53677428Y-125124113D01*
X53687678Y-125111543D01*
X53714698Y-125078407D01*
X53728782Y-125051444D01*
X53736919Y-125038013D01*
X53754292Y-125013053D01*
X53754295Y-125013049D01*
X53777563Y-124958825D01*
X53781582Y-124950361D01*
X53808909Y-124898049D01*
X53817278Y-124868797D01*
X53822538Y-124854023D01*
X53834540Y-124826058D01*
X53846415Y-124768268D01*
X53848649Y-124759162D01*
X53864887Y-124702418D01*
X53867197Y-124672077D01*
X53869376Y-124656535D01*
X53875500Y-124626741D01*
X53875500Y-124567758D01*
X53875858Y-124558342D01*
X53880337Y-124499527D01*
X53879563Y-124493451D01*
X53876716Y-124471089D01*
X53876493Y-124469339D01*
X53875500Y-124453675D01*
X53875500Y-123362880D01*
X56717206Y-123362880D01*
X56725704Y-123589974D01*
X56774613Y-123811898D01*
X56862362Y-124021524D01*
X56862365Y-124021530D01*
X56986137Y-124212120D01*
X57141826Y-124377418D01*
X57141951Y-124377550D01*
X57324800Y-124512497D01*
X57528806Y-124612627D01*
X57528810Y-124612628D01*
X57528812Y-124612629D01*
X57747407Y-124674721D01*
X57747410Y-124674721D01*
X57747412Y-124674722D01*
X57747416Y-124674722D01*
X57747420Y-124674723D01*
X57825724Y-124682361D01*
X57973592Y-124696785D01*
X58200077Y-124678108D01*
X59307344Y-124381416D01*
X59467252Y-124322762D01*
X59663205Y-124207666D01*
X59835457Y-124059431D01*
X59978472Y-123882822D01*
X60017324Y-123811901D01*
X60087655Y-123683514D01*
X60159493Y-123467920D01*
X60159494Y-123467915D01*
X60159495Y-123467913D01*
X60191683Y-123242951D01*
X60187428Y-123129216D01*
X68307465Y-123129216D01*
X68319359Y-123356153D01*
X68319360Y-123356158D01*
X68371581Y-123577321D01*
X68462462Y-123785624D01*
X68589066Y-123974335D01*
X68671446Y-124059218D01*
X68747341Y-124137418D01*
X68932188Y-124269615D01*
X68932191Y-124269616D01*
X68932192Y-124269617D01*
X68932193Y-124269618D01*
X69044689Y-124322760D01*
X69137668Y-124366683D01*
X70244935Y-124663375D01*
X70293991Y-124671899D01*
X70412738Y-124692533D01*
X70412740Y-124692532D01*
X70412746Y-124692534D01*
X70639994Y-124690834D01*
X70863287Y-124648585D01*
X71075446Y-124567145D01*
X71269655Y-124449131D01*
X71439671Y-124298335D01*
X71580028Y-124119606D01*
X71686217Y-123918686D01*
X71754825Y-123702036D01*
X71783644Y-123476617D01*
X71771750Y-123249674D01*
X71719527Y-123028502D01*
X71719526Y-123028500D01*
X71719525Y-123028495D01*
X71628651Y-122820213D01*
X71628648Y-122820207D01*
X71502043Y-122631494D01*
X71343770Y-122468413D01*
X71245541Y-122398162D01*
X71158923Y-122336215D01*
X71158920Y-122336213D01*
X71158918Y-122336212D01*
X71158913Y-122336209D01*
X70953454Y-122239152D01*
X70953446Y-122239149D01*
X70953442Y-122239147D01*
X69846176Y-121942455D01*
X69780854Y-121931105D01*
X69678365Y-121913297D01*
X69678364Y-121913297D01*
X69621552Y-121913721D01*
X69451113Y-121914996D01*
X69451107Y-121914997D01*
X69227826Y-121957244D01*
X69015660Y-122038686D01*
X69015660Y-122038687D01*
X68821458Y-122156697D01*
X68821451Y-122156703D01*
X68651442Y-122307491D01*
X68511082Y-122486222D01*
X68511079Y-122486227D01*
X68404897Y-122687135D01*
X68404889Y-122687153D01*
X68336285Y-122903795D01*
X68336285Y-122903797D01*
X68307465Y-123129216D01*
X60187428Y-123129216D01*
X60183186Y-123015855D01*
X60158489Y-122903795D01*
X60134277Y-122793932D01*
X60134276Y-122793927D01*
X60046525Y-122584298D01*
X60021912Y-122546397D01*
X59922756Y-122393711D01*
X59922753Y-122393707D01*
X59766942Y-122228280D01*
X59584091Y-122093331D01*
X59584088Y-122093329D01*
X59472360Y-122038491D01*
X59380085Y-121993201D01*
X59380082Y-121993200D01*
X59380078Y-121993198D01*
X59161483Y-121931105D01*
X59161470Y-121931103D01*
X58935304Y-121909043D01*
X58935300Y-121909043D01*
X58935298Y-121909043D01*
X58708813Y-121927720D01*
X58090746Y-122093331D01*
X57601542Y-122224413D01*
X57441634Y-122283067D01*
X57245687Y-122398160D01*
X57245686Y-122398161D01*
X57073435Y-122546394D01*
X57073434Y-122546395D01*
X56930416Y-122723006D01*
X56821234Y-122922313D01*
X56749396Y-123137907D01*
X56749395Y-123137912D01*
X56717206Y-123362880D01*
X53875500Y-123362880D01*
X53875500Y-120023386D01*
X56716355Y-120023386D01*
X56728249Y-120250323D01*
X56728250Y-120250328D01*
X56780471Y-120471491D01*
X56871352Y-120679794D01*
X56997956Y-120868505D01*
X57043532Y-120915466D01*
X57156231Y-121031588D01*
X57341078Y-121163785D01*
X57341081Y-121163786D01*
X57341082Y-121163787D01*
X57341083Y-121163788D01*
X57452622Y-121216478D01*
X57546558Y-121260853D01*
X58653825Y-121557545D01*
X58713690Y-121567947D01*
X58821628Y-121586703D01*
X58821630Y-121586702D01*
X58821636Y-121586704D01*
X59048884Y-121585004D01*
X59272177Y-121542755D01*
X59484336Y-121461315D01*
X59678545Y-121343301D01*
X59848561Y-121192505D01*
X59988918Y-121013776D01*
X60095107Y-120812856D01*
X60163715Y-120596206D01*
X60192534Y-120370787D01*
X60186575Y-120257079D01*
X68308817Y-120257079D01*
X68314246Y-120402167D01*
X68314247Y-120402167D01*
X69562432Y-120067717D01*
X69545555Y-120125197D01*
X69545555Y-120268975D01*
X69586062Y-120406930D01*
X69663794Y-120527884D01*
X69690514Y-120551037D01*
X68441467Y-120885718D01*
X68453920Y-120915466D01*
X68453924Y-120915474D01*
X68577642Y-121105982D01*
X68733390Y-121271343D01*
X68916168Y-121406239D01*
X69120101Y-121506333D01*
X69120100Y-121506333D01*
X69338609Y-121568401D01*
X69338621Y-121568403D01*
X69564698Y-121590454D01*
X69791101Y-121571784D01*
X70130701Y-121480787D01*
X69917139Y-120683764D01*
X70009792Y-120697086D01*
X70081318Y-120697086D01*
X70187870Y-120681766D01*
X70318655Y-120622038D01*
X70399474Y-120552008D01*
X70613665Y-121351378D01*
X70898286Y-121275115D01*
X70898298Y-121275111D01*
X71058151Y-121216478D01*
X71254024Y-121101428D01*
X71426202Y-120953256D01*
X71426204Y-120953254D01*
X71569167Y-120776711D01*
X71678304Y-120577483D01*
X71678306Y-120577478D01*
X71750115Y-120361969D01*
X71782292Y-120137093D01*
X71776862Y-119992003D01*
X70528678Y-120326451D01*
X70545555Y-120268975D01*
X70545555Y-120125197D01*
X70505048Y-119987242D01*
X70427316Y-119866288D01*
X70400593Y-119843132D01*
X71649643Y-119508452D01*
X71637191Y-119478705D01*
X71637189Y-119478701D01*
X71513472Y-119288193D01*
X71513469Y-119288189D01*
X71357719Y-119122828D01*
X71174941Y-118987932D01*
X70971008Y-118887838D01*
X70971009Y-118887838D01*
X70752500Y-118825770D01*
X70752488Y-118825768D01*
X70526410Y-118803717D01*
X70300010Y-118822386D01*
X69960407Y-118913382D01*
X70173968Y-119710407D01*
X70081318Y-119697086D01*
X70009792Y-119697086D01*
X69903240Y-119712406D01*
X69772455Y-119772134D01*
X69691633Y-119842164D01*
X69477443Y-119042792D01*
X69192804Y-119119062D01*
X69032958Y-119177693D01*
X68837085Y-119292743D01*
X68664907Y-119440915D01*
X68664905Y-119440917D01*
X68521943Y-119617459D01*
X68412805Y-119816685D01*
X68340995Y-120032197D01*
X68308817Y-120257079D01*
X60186575Y-120257079D01*
X60180640Y-120143844D01*
X60128417Y-119922672D01*
X60128416Y-119922670D01*
X60128415Y-119922665D01*
X60037541Y-119714383D01*
X60037538Y-119714377D01*
X59910933Y-119525664D01*
X59752660Y-119362583D01*
X59752659Y-119362582D01*
X59567813Y-119230385D01*
X59567810Y-119230383D01*
X59567808Y-119230382D01*
X59567803Y-119230379D01*
X59362344Y-119133322D01*
X59362336Y-119133319D01*
X59362332Y-119133317D01*
X58255066Y-118836625D01*
X58192581Y-118825768D01*
X58087255Y-118807467D01*
X58087254Y-118807467D01*
X58030442Y-118807891D01*
X57860003Y-118809166D01*
X57859997Y-118809167D01*
X57636716Y-118851414D01*
X57424550Y-118932856D01*
X57424550Y-118932857D01*
X57230348Y-119050867D01*
X57230341Y-119050873D01*
X57060332Y-119201661D01*
X56919972Y-119380392D01*
X56919969Y-119380397D01*
X56813787Y-119581305D01*
X56813779Y-119581323D01*
X56745175Y-119797965D01*
X56745175Y-119797967D01*
X56716355Y-120023386D01*
X53875500Y-120023386D01*
X53875500Y-117133852D01*
X58395007Y-117133852D01*
X58408112Y-117328196D01*
X58410296Y-117360588D01*
X58422981Y-117410930D01*
X58465823Y-117580956D01*
X58559804Y-117787859D01*
X58559807Y-117787865D01*
X58626528Y-117884172D01*
X58689223Y-117974667D01*
X59499798Y-118785242D01*
X59630548Y-118894399D01*
X59630549Y-118894400D01*
X59630551Y-118894401D01*
X59685782Y-118925740D01*
X59828200Y-119006551D01*
X60042702Y-119081609D01*
X60267158Y-119117159D01*
X60494354Y-119112060D01*
X60716991Y-119066475D01*
X60927908Y-118981870D01*
X61120330Y-118860963D01*
X61288070Y-118707642D01*
X61425739Y-118526833D01*
X61528910Y-118324347D01*
X61561149Y-118216988D01*
X61594268Y-118106696D01*
X61594268Y-118106693D01*
X61604608Y-118014921D01*
X61619712Y-117880870D01*
X61612045Y-117767164D01*
X66882841Y-117767164D01*
X66887940Y-117994353D01*
X66933524Y-118216988D01*
X66933526Y-118216996D01*
X67018130Y-118427909D01*
X67139038Y-118620332D01*
X67218845Y-118707644D01*
X67292358Y-118788070D01*
X67432010Y-118894401D01*
X67473170Y-118925740D01*
X67675649Y-119028907D01*
X67675653Y-119028909D01*
X67893305Y-119094268D01*
X68119130Y-119119712D01*
X68119132Y-119119711D01*
X68119134Y-119119712D01*
X68162671Y-119116776D01*
X68345870Y-119104424D01*
X68566236Y-119048897D01*
X68773145Y-118954914D01*
X68959949Y-118825497D01*
X69770524Y-118014922D01*
X69879681Y-117884172D01*
X69991833Y-117686520D01*
X70066891Y-117472018D01*
X70099372Y-117266939D01*
X70102441Y-117247565D01*
X70100892Y-117178541D01*
X70097342Y-117020366D01*
X70051757Y-116797729D01*
X69967152Y-116586812D01*
X69846245Y-116394390D01*
X69846244Y-116394389D01*
X69846243Y-116394387D01*
X69692926Y-116226651D01*
X69692920Y-116226646D01*
X69512114Y-116088980D01*
X69512110Y-116088978D01*
X69309628Y-115985809D01*
X69309624Y-115985807D01*
X69091977Y-115920451D01*
X68866158Y-115895008D01*
X68866147Y-115895007D01*
X68650297Y-115909562D01*
X68639412Y-115910296D01*
X68599111Y-115920451D01*
X68419043Y-115965823D01*
X68212140Y-116059804D01*
X68212134Y-116059807D01*
X68025332Y-116189223D01*
X67214757Y-116999798D01*
X67105598Y-117130551D01*
X67028208Y-117266942D01*
X66993449Y-117328200D01*
X66964501Y-117410930D01*
X66918391Y-117542705D01*
X66882841Y-117767152D01*
X66882841Y-117767164D01*
X61612045Y-117767164D01*
X61604424Y-117654130D01*
X61548897Y-117433764D01*
X61538525Y-117410930D01*
X61473121Y-117266939D01*
X61454914Y-117226855D01*
X61325497Y-117040051D01*
X60514922Y-116229476D01*
X60384172Y-116120319D01*
X60384170Y-116120318D01*
X60384168Y-116120316D01*
X60230017Y-116032848D01*
X60186520Y-116008167D01*
X59972018Y-115933110D01*
X59972015Y-115933109D01*
X59972014Y-115933109D01*
X59747567Y-115897559D01*
X59747555Y-115897559D01*
X59520366Y-115902658D01*
X59297731Y-115948242D01*
X59297723Y-115948244D01*
X59086810Y-116032848D01*
X58894387Y-116153756D01*
X58726652Y-116307073D01*
X58588979Y-116487888D01*
X58485812Y-116690366D01*
X58485812Y-116690367D01*
X58420451Y-116908024D01*
X58395008Y-117133841D01*
X58395007Y-117133852D01*
X53875500Y-117133852D01*
X53875500Y-115473592D01*
X61303215Y-115473592D01*
X61321892Y-115700077D01*
X61579501Y-116661483D01*
X61618585Y-116807347D01*
X61677239Y-116967255D01*
X61792335Y-117163207D01*
X61940565Y-117335453D01*
X61940568Y-117335456D01*
X62117178Y-117478473D01*
X62316485Y-117587655D01*
X62532079Y-117659493D01*
X62532083Y-117659493D01*
X62532087Y-117659495D01*
X62757049Y-117691683D01*
X62757051Y-117691682D01*
X62757052Y-117691683D01*
X62825177Y-117689133D01*
X62984145Y-117683186D01*
X63206073Y-117634276D01*
X63415702Y-117546525D01*
X63606293Y-117422753D01*
X63771722Y-117266939D01*
X63906669Y-117084091D01*
X64006799Y-116880085D01*
X64068895Y-116661479D01*
X64079878Y-116548886D01*
X64090956Y-116435308D01*
X64090957Y-116435298D01*
X64081584Y-116321634D01*
X64413297Y-116321634D01*
X64414996Y-116548886D01*
X64414997Y-116548892D01*
X64457244Y-116772173D01*
X64538686Y-116984339D01*
X64656697Y-117178541D01*
X64656703Y-117178548D01*
X64795871Y-117335456D01*
X64807495Y-117348561D01*
X64886915Y-117410930D01*
X64986222Y-117488917D01*
X64986227Y-117488920D01*
X65087994Y-117542705D01*
X65187144Y-117595107D01*
X65403794Y-117663714D01*
X65629213Y-117692534D01*
X65856156Y-117680640D01*
X65989569Y-117649137D01*
X66077321Y-117628418D01*
X66077322Y-117628417D01*
X66077328Y-117628416D01*
X66285620Y-117537539D01*
X66285621Y-117537538D01*
X66285624Y-117537537D01*
X66474335Y-117410933D01*
X66474336Y-117410931D01*
X66474339Y-117410930D01*
X66637418Y-117252659D01*
X66769615Y-117067812D01*
X66866683Y-116862332D01*
X67163375Y-115755065D01*
X67192534Y-115587254D01*
X67190834Y-115360006D01*
X67148585Y-115136713D01*
X67067145Y-114924554D01*
X67016424Y-114841086D01*
X66949133Y-114730348D01*
X66949132Y-114730347D01*
X66949131Y-114730345D01*
X66862961Y-114633193D01*
X66798338Y-114560332D01*
X66798336Y-114560331D01*
X66798335Y-114560329D01*
X66703860Y-114486137D01*
X66619607Y-114419972D01*
X66619602Y-114419969D01*
X66418694Y-114313787D01*
X66418691Y-114313785D01*
X66418686Y-114313783D01*
X66418682Y-114313781D01*
X66418676Y-114313779D01*
X66202033Y-114245174D01*
X65976612Y-114216355D01*
X65749679Y-114228249D01*
X65749674Y-114228249D01*
X65749674Y-114228250D01*
X65701750Y-114239565D01*
X65528495Y-114280474D01*
X65320213Y-114371348D01*
X65320207Y-114371351D01*
X65131494Y-114497956D01*
X64968413Y-114656229D01*
X64836212Y-114841081D01*
X64836209Y-114841086D01*
X64739152Y-115046545D01*
X64739147Y-115046558D01*
X64442455Y-116153823D01*
X64413297Y-116321634D01*
X64081584Y-116321634D01*
X64072280Y-116208813D01*
X63775588Y-115101546D01*
X63716934Y-114941638D01*
X63716932Y-114941634D01*
X63601839Y-114745687D01*
X63601838Y-114745686D01*
X63453605Y-114573435D01*
X63453604Y-114573434D01*
X63276993Y-114430416D01*
X63077686Y-114321234D01*
X62862092Y-114249396D01*
X62862087Y-114249395D01*
X62637119Y-114217206D01*
X62410025Y-114225704D01*
X62188101Y-114274613D01*
X61978475Y-114362362D01*
X61787879Y-114486137D01*
X61622453Y-114641947D01*
X61622450Y-114641950D01*
X61622450Y-114641951D01*
X61611911Y-114656231D01*
X61487502Y-114824801D01*
X61487501Y-114824803D01*
X61387370Y-115028812D01*
X61325278Y-115247407D01*
X61325276Y-115247420D01*
X61303215Y-115473582D01*
X61303215Y-115473589D01*
X61303215Y-115473592D01*
X53875500Y-115473592D01*
X53875500Y-112690782D01*
X53895185Y-112623743D01*
X53911819Y-112603101D01*
X54228101Y-112286819D01*
X54289424Y-112253334D01*
X54315782Y-112250500D01*
X64898259Y-112250500D01*
X64985721Y-112250500D01*
X64988863Y-112250540D01*
X65076360Y-112252757D01*
X65076361Y-112252757D01*
X65076361Y-112252756D01*
X65076363Y-112252757D01*
X65077410Y-112252569D01*
X65078105Y-112252445D01*
X65099979Y-112250500D01*
X65873259Y-112250500D01*
X79525500Y-112250500D01*
X79592539Y-112270185D01*
X79638294Y-112322989D01*
X79649500Y-112374500D01*
X79649500Y-123734217D01*
X79629815Y-123801256D01*
X79613181Y-123821898D01*
X78479258Y-124955822D01*
X78417935Y-124989307D01*
X78391577Y-124992141D01*
X69328947Y-124992141D01*
X69261908Y-124972456D01*
X69241266Y-124955822D01*
X69000201Y-124714757D01*
X68905361Y-124635580D01*
X68869452Y-124605601D01*
X68869450Y-124605600D01*
X68869448Y-124605598D01*
X68705369Y-124512497D01*
X68671800Y-124493449D01*
X68457298Y-124418392D01*
X68457295Y-124418391D01*
X68457294Y-124418391D01*
X68232847Y-124382841D01*
X68232835Y-124382841D01*
X68005646Y-124387940D01*
X67783011Y-124433524D01*
X67783003Y-124433526D01*
X67572090Y-124518130D01*
X67379667Y-124639038D01*
X67211932Y-124792355D01*
X67074259Y-124973170D01*
X66971092Y-125175648D01*
X66971092Y-125175649D01*
X66905731Y-125393306D01*
X66880288Y-125619123D01*
X66880287Y-125619134D01*
X66891245Y-125781641D01*
X66895576Y-125845870D01*
X66907343Y-125892568D01*
X66951103Y-126066238D01*
X67045084Y-126273141D01*
X67045086Y-126273145D01*
X67174503Y-126459949D01*
X67985078Y-127270524D01*
X68115828Y-127379681D01*
X68115829Y-127379682D01*
X68115831Y-127379683D01*
X68183850Y-127418278D01*
X68313480Y-127491833D01*
X68527982Y-127566891D01*
X68752438Y-127602441D01*
X68979634Y-127597342D01*
X69202271Y-127551757D01*
X69413188Y-127467152D01*
X69605610Y-127346245D01*
X69695793Y-127263814D01*
X69773348Y-127192926D01*
X69773353Y-127192920D01*
X69888248Y-127042023D01*
X69944521Y-127000609D01*
X69986905Y-126993141D01*
X78843080Y-126993141D01*
X78846222Y-126993181D01*
X78933717Y-126995398D01*
X78933717Y-126995397D01*
X78933722Y-126995398D01*
X78991784Y-126984990D01*
X79001113Y-126983682D01*
X79059797Y-126977715D01*
X79088830Y-126968605D01*
X79104059Y-126964867D01*
X79134012Y-126959499D01*
X79134016Y-126959497D01*
X79134018Y-126959497D01*
X79188782Y-126937621D01*
X79197651Y-126934462D01*
X79253947Y-126916800D01*
X79280559Y-126902028D01*
X79294721Y-126895303D01*
X79322976Y-126884018D01*
X79372238Y-126851550D01*
X79380269Y-126846684D01*
X79431861Y-126818050D01*
X79431868Y-126818043D01*
X79431871Y-126818042D01*
X79454942Y-126798235D01*
X79467484Y-126788778D01*
X79492878Y-126772043D01*
X79534585Y-126730335D01*
X79541497Y-126723929D01*
X79566729Y-126702268D01*
X79586254Y-126685507D01*
X79604883Y-126661439D01*
X79615243Y-126649676D01*
X81347390Y-124917528D01*
X81349559Y-124915413D01*
X81413053Y-124855059D01*
X81446752Y-124806641D01*
X81452428Y-124799113D01*
X81489698Y-124753407D01*
X81503782Y-124726444D01*
X81511919Y-124713013D01*
X81514561Y-124709217D01*
X81529295Y-124688049D01*
X81552563Y-124633825D01*
X81556582Y-124625361D01*
X81583909Y-124573049D01*
X81592275Y-124543808D01*
X81597544Y-124529009D01*
X81604630Y-124512498D01*
X81609540Y-124501058D01*
X81621421Y-124443238D01*
X81623650Y-124434155D01*
X81639886Y-124377418D01*
X81642196Y-124347080D01*
X81644376Y-124331540D01*
X81650500Y-124301743D01*
X81650500Y-124242754D01*
X81650858Y-124233339D01*
X81655337Y-124174524D01*
X81651493Y-124144339D01*
X81650500Y-124128675D01*
X81650500Y-123362880D01*
X88717206Y-123362880D01*
X88725704Y-123589974D01*
X88774613Y-123811898D01*
X88862362Y-124021524D01*
X88862365Y-124021530D01*
X88986137Y-124212120D01*
X89141826Y-124377418D01*
X89141951Y-124377550D01*
X89324800Y-124512497D01*
X89528806Y-124612627D01*
X89528810Y-124612628D01*
X89528812Y-124612629D01*
X89747407Y-124674721D01*
X89747410Y-124674721D01*
X89747412Y-124674722D01*
X89747416Y-124674722D01*
X89747420Y-124674723D01*
X89825724Y-124682361D01*
X89973592Y-124696785D01*
X90200077Y-124678108D01*
X91307344Y-124381416D01*
X91467252Y-124322762D01*
X91663205Y-124207666D01*
X91835457Y-124059431D01*
X91978472Y-123882822D01*
X92017324Y-123811901D01*
X92087655Y-123683514D01*
X92159493Y-123467920D01*
X92159494Y-123467915D01*
X92159495Y-123467913D01*
X92191683Y-123242951D01*
X92187428Y-123129216D01*
X100307465Y-123129216D01*
X100319359Y-123356153D01*
X100319360Y-123356158D01*
X100371581Y-123577321D01*
X100462462Y-123785624D01*
X100589066Y-123974335D01*
X100671446Y-124059218D01*
X100747341Y-124137418D01*
X100932188Y-124269615D01*
X100932191Y-124269616D01*
X100932192Y-124269617D01*
X100932193Y-124269618D01*
X101044689Y-124322760D01*
X101137668Y-124366683D01*
X102244935Y-124663375D01*
X102293991Y-124671899D01*
X102412738Y-124692533D01*
X102412740Y-124692532D01*
X102412746Y-124692534D01*
X102639994Y-124690834D01*
X102863287Y-124648585D01*
X103075446Y-124567145D01*
X103269655Y-124449131D01*
X103439671Y-124298335D01*
X103580028Y-124119606D01*
X103686217Y-123918686D01*
X103754825Y-123702036D01*
X103783644Y-123476617D01*
X103771750Y-123249674D01*
X103719527Y-123028502D01*
X103719526Y-123028500D01*
X103719525Y-123028495D01*
X103628651Y-122820213D01*
X103628648Y-122820207D01*
X103502043Y-122631494D01*
X103343770Y-122468413D01*
X103245541Y-122398162D01*
X103158923Y-122336215D01*
X103158920Y-122336213D01*
X103158918Y-122336212D01*
X103158913Y-122336209D01*
X102953454Y-122239152D01*
X102953446Y-122239149D01*
X102953442Y-122239147D01*
X101846176Y-121942455D01*
X101780854Y-121931105D01*
X101678365Y-121913297D01*
X101678364Y-121913297D01*
X101621552Y-121913721D01*
X101451113Y-121914996D01*
X101451107Y-121914997D01*
X101227826Y-121957244D01*
X101015660Y-122038686D01*
X101015660Y-122038687D01*
X100821458Y-122156697D01*
X100821451Y-122156703D01*
X100651442Y-122307491D01*
X100511082Y-122486222D01*
X100511079Y-122486227D01*
X100404897Y-122687135D01*
X100404889Y-122687153D01*
X100336285Y-122903795D01*
X100336285Y-122903797D01*
X100307465Y-123129216D01*
X92187428Y-123129216D01*
X92183186Y-123015855D01*
X92158489Y-122903795D01*
X92134277Y-122793932D01*
X92134276Y-122793927D01*
X92046525Y-122584298D01*
X92021912Y-122546397D01*
X91922756Y-122393711D01*
X91922753Y-122393707D01*
X91766942Y-122228280D01*
X91584091Y-122093331D01*
X91584088Y-122093329D01*
X91472360Y-122038491D01*
X91380085Y-121993201D01*
X91380082Y-121993200D01*
X91380078Y-121993198D01*
X91161483Y-121931105D01*
X91161470Y-121931103D01*
X90935304Y-121909043D01*
X90935300Y-121909043D01*
X90935298Y-121909043D01*
X90708813Y-121927720D01*
X90090746Y-122093331D01*
X89601542Y-122224413D01*
X89441634Y-122283067D01*
X89245687Y-122398160D01*
X89245686Y-122398161D01*
X89073435Y-122546394D01*
X89073434Y-122546395D01*
X88930416Y-122723006D01*
X88821234Y-122922313D01*
X88749396Y-123137907D01*
X88749395Y-123137912D01*
X88717206Y-123362880D01*
X81650500Y-123362880D01*
X81650500Y-120023386D01*
X88716355Y-120023386D01*
X88728249Y-120250323D01*
X88728250Y-120250328D01*
X88780471Y-120471491D01*
X88871352Y-120679794D01*
X88997956Y-120868505D01*
X89043532Y-120915466D01*
X89156231Y-121031588D01*
X89341078Y-121163785D01*
X89341081Y-121163786D01*
X89341082Y-121163787D01*
X89341083Y-121163788D01*
X89452622Y-121216478D01*
X89546558Y-121260853D01*
X90653825Y-121557545D01*
X90713690Y-121567947D01*
X90821628Y-121586703D01*
X90821630Y-121586702D01*
X90821636Y-121586704D01*
X91048884Y-121585004D01*
X91272177Y-121542755D01*
X91484336Y-121461315D01*
X91678545Y-121343301D01*
X91848561Y-121192505D01*
X91988918Y-121013776D01*
X92095107Y-120812856D01*
X92163715Y-120596206D01*
X92192534Y-120370787D01*
X92186575Y-120257079D01*
X100308817Y-120257079D01*
X100314246Y-120402167D01*
X100314247Y-120402167D01*
X101562432Y-120067717D01*
X101545555Y-120125197D01*
X101545555Y-120268975D01*
X101586062Y-120406930D01*
X101663794Y-120527884D01*
X101690514Y-120551037D01*
X100441467Y-120885718D01*
X100453920Y-120915466D01*
X100453924Y-120915474D01*
X100577642Y-121105982D01*
X100733390Y-121271343D01*
X100916168Y-121406239D01*
X101120101Y-121506333D01*
X101120100Y-121506333D01*
X101338609Y-121568401D01*
X101338621Y-121568403D01*
X101564698Y-121590454D01*
X101791101Y-121571784D01*
X102130701Y-121480787D01*
X101917139Y-120683764D01*
X102009792Y-120697086D01*
X102081318Y-120697086D01*
X102187870Y-120681766D01*
X102318655Y-120622038D01*
X102399474Y-120552008D01*
X102613665Y-121351378D01*
X102898286Y-121275115D01*
X102898298Y-121275111D01*
X103058151Y-121216478D01*
X103254024Y-121101428D01*
X103426202Y-120953256D01*
X103426204Y-120953254D01*
X103569167Y-120776711D01*
X103678304Y-120577483D01*
X103678306Y-120577478D01*
X103750115Y-120361969D01*
X103782292Y-120137093D01*
X103776862Y-119992003D01*
X102528678Y-120326451D01*
X102545555Y-120268975D01*
X102545555Y-120125197D01*
X102505048Y-119987242D01*
X102427316Y-119866288D01*
X102400593Y-119843132D01*
X103649643Y-119508452D01*
X103637191Y-119478705D01*
X103637189Y-119478701D01*
X103513472Y-119288193D01*
X103513469Y-119288189D01*
X103357719Y-119122828D01*
X103174941Y-118987932D01*
X102971008Y-118887838D01*
X102971009Y-118887838D01*
X102752500Y-118825770D01*
X102752488Y-118825768D01*
X102526410Y-118803717D01*
X102300010Y-118822386D01*
X101960407Y-118913382D01*
X102173968Y-119710407D01*
X102081318Y-119697086D01*
X102009792Y-119697086D01*
X101903240Y-119712406D01*
X101772455Y-119772134D01*
X101691633Y-119842164D01*
X101477443Y-119042792D01*
X101192804Y-119119062D01*
X101032958Y-119177693D01*
X100837085Y-119292743D01*
X100664907Y-119440915D01*
X100664905Y-119440917D01*
X100521943Y-119617459D01*
X100412805Y-119816685D01*
X100340995Y-120032197D01*
X100308817Y-120257079D01*
X92186575Y-120257079D01*
X92180640Y-120143844D01*
X92128417Y-119922672D01*
X92128416Y-119922670D01*
X92128415Y-119922665D01*
X92037541Y-119714383D01*
X92037538Y-119714377D01*
X91910933Y-119525664D01*
X91752660Y-119362583D01*
X91752659Y-119362582D01*
X91567813Y-119230385D01*
X91567810Y-119230383D01*
X91567808Y-119230382D01*
X91567803Y-119230379D01*
X91362344Y-119133322D01*
X91362336Y-119133319D01*
X91362332Y-119133317D01*
X90255066Y-118836625D01*
X90192581Y-118825768D01*
X90087255Y-118807467D01*
X90087254Y-118807467D01*
X90030442Y-118807891D01*
X89860003Y-118809166D01*
X89859997Y-118809167D01*
X89636716Y-118851414D01*
X89424550Y-118932856D01*
X89424550Y-118932857D01*
X89230348Y-119050867D01*
X89230341Y-119050873D01*
X89060332Y-119201661D01*
X88919972Y-119380392D01*
X88919969Y-119380397D01*
X88813787Y-119581305D01*
X88813779Y-119581323D01*
X88745175Y-119797965D01*
X88745175Y-119797967D01*
X88716355Y-120023386D01*
X81650500Y-120023386D01*
X81650500Y-117133852D01*
X90395007Y-117133852D01*
X90408112Y-117328196D01*
X90410296Y-117360588D01*
X90422981Y-117410930D01*
X90465823Y-117580956D01*
X90559804Y-117787859D01*
X90559807Y-117787865D01*
X90626528Y-117884172D01*
X90689223Y-117974667D01*
X91499798Y-118785242D01*
X91630548Y-118894399D01*
X91630549Y-118894400D01*
X91630551Y-118894401D01*
X91685782Y-118925740D01*
X91828200Y-119006551D01*
X92042702Y-119081609D01*
X92267158Y-119117159D01*
X92494354Y-119112060D01*
X92716991Y-119066475D01*
X92927908Y-118981870D01*
X93120330Y-118860963D01*
X93288070Y-118707642D01*
X93425739Y-118526833D01*
X93528910Y-118324347D01*
X93561149Y-118216988D01*
X93594268Y-118106696D01*
X93594268Y-118106693D01*
X93604608Y-118014921D01*
X93619712Y-117880870D01*
X93612045Y-117767164D01*
X98882841Y-117767164D01*
X98887940Y-117994353D01*
X98933524Y-118216988D01*
X98933526Y-118216996D01*
X99018130Y-118427909D01*
X99139038Y-118620332D01*
X99218845Y-118707644D01*
X99292358Y-118788070D01*
X99432010Y-118894401D01*
X99473170Y-118925740D01*
X99675649Y-119028907D01*
X99675653Y-119028909D01*
X99893305Y-119094268D01*
X100119130Y-119119712D01*
X100119132Y-119119711D01*
X100119134Y-119119712D01*
X100162671Y-119116776D01*
X100345870Y-119104424D01*
X100566236Y-119048897D01*
X100773145Y-118954914D01*
X100959949Y-118825497D01*
X101770524Y-118014922D01*
X101879681Y-117884172D01*
X101991833Y-117686520D01*
X102066891Y-117472018D01*
X102099372Y-117266939D01*
X102102441Y-117247565D01*
X102100892Y-117178541D01*
X102097342Y-117020366D01*
X102051757Y-116797729D01*
X101967152Y-116586812D01*
X101846245Y-116394390D01*
X101846244Y-116394389D01*
X101846243Y-116394387D01*
X101692926Y-116226651D01*
X101692920Y-116226646D01*
X101512114Y-116088980D01*
X101512110Y-116088978D01*
X101309628Y-115985809D01*
X101309624Y-115985807D01*
X101091977Y-115920451D01*
X100866158Y-115895008D01*
X100866147Y-115895007D01*
X100650297Y-115909562D01*
X100639412Y-115910296D01*
X100599111Y-115920451D01*
X100419043Y-115965823D01*
X100212140Y-116059804D01*
X100212134Y-116059807D01*
X100025332Y-116189223D01*
X99214757Y-116999798D01*
X99105598Y-117130551D01*
X99028208Y-117266942D01*
X98993449Y-117328200D01*
X98964501Y-117410930D01*
X98918391Y-117542705D01*
X98882841Y-117767152D01*
X98882841Y-117767164D01*
X93612045Y-117767164D01*
X93604424Y-117654130D01*
X93548897Y-117433764D01*
X93538525Y-117410930D01*
X93473121Y-117266939D01*
X93454914Y-117226855D01*
X93325497Y-117040051D01*
X92514922Y-116229476D01*
X92384172Y-116120319D01*
X92384170Y-116120318D01*
X92384168Y-116120316D01*
X92230017Y-116032848D01*
X92186520Y-116008167D01*
X91972018Y-115933110D01*
X91972015Y-115933109D01*
X91972014Y-115933109D01*
X91747567Y-115897559D01*
X91747555Y-115897559D01*
X91520366Y-115902658D01*
X91297731Y-115948242D01*
X91297723Y-115948244D01*
X91086810Y-116032848D01*
X90894387Y-116153756D01*
X90726652Y-116307073D01*
X90588979Y-116487888D01*
X90485812Y-116690366D01*
X90485812Y-116690367D01*
X90420451Y-116908024D01*
X90395008Y-117133841D01*
X90395007Y-117133852D01*
X81650500Y-117133852D01*
X81650500Y-115473592D01*
X93303215Y-115473592D01*
X93321892Y-115700077D01*
X93579501Y-116661483D01*
X93618585Y-116807347D01*
X93677239Y-116967255D01*
X93792335Y-117163207D01*
X93940565Y-117335453D01*
X93940568Y-117335456D01*
X94117178Y-117478473D01*
X94316485Y-117587655D01*
X94532079Y-117659493D01*
X94532083Y-117659493D01*
X94532087Y-117659495D01*
X94757049Y-117691683D01*
X94757051Y-117691682D01*
X94757052Y-117691683D01*
X94825177Y-117689133D01*
X94984145Y-117683186D01*
X95206073Y-117634276D01*
X95415702Y-117546525D01*
X95606293Y-117422753D01*
X95771722Y-117266939D01*
X95906669Y-117084091D01*
X96006799Y-116880085D01*
X96068895Y-116661479D01*
X96079878Y-116548886D01*
X96090956Y-116435308D01*
X96090957Y-116435298D01*
X96081584Y-116321634D01*
X96413297Y-116321634D01*
X96414996Y-116548886D01*
X96414997Y-116548892D01*
X96457244Y-116772173D01*
X96538686Y-116984339D01*
X96656697Y-117178541D01*
X96656703Y-117178548D01*
X96795871Y-117335456D01*
X96807495Y-117348561D01*
X96886915Y-117410930D01*
X96986222Y-117488917D01*
X96986227Y-117488920D01*
X97087994Y-117542705D01*
X97187144Y-117595107D01*
X97403794Y-117663714D01*
X97629213Y-117692534D01*
X97856156Y-117680640D01*
X97989569Y-117649137D01*
X98077321Y-117628418D01*
X98077322Y-117628417D01*
X98077328Y-117628416D01*
X98285620Y-117537539D01*
X98285621Y-117537538D01*
X98285624Y-117537537D01*
X98474335Y-117410933D01*
X98474336Y-117410931D01*
X98474339Y-117410930D01*
X98637418Y-117252659D01*
X98769615Y-117067812D01*
X98866683Y-116862332D01*
X99163375Y-115755065D01*
X99192534Y-115587254D01*
X99190834Y-115360006D01*
X99148585Y-115136713D01*
X99067145Y-114924554D01*
X99016424Y-114841086D01*
X98949133Y-114730348D01*
X98949132Y-114730347D01*
X98949131Y-114730345D01*
X98862961Y-114633193D01*
X98798338Y-114560332D01*
X98798336Y-114560331D01*
X98798335Y-114560329D01*
X98703860Y-114486137D01*
X98619607Y-114419972D01*
X98619602Y-114419969D01*
X98418694Y-114313787D01*
X98418691Y-114313785D01*
X98418686Y-114313783D01*
X98418682Y-114313781D01*
X98418676Y-114313779D01*
X98202033Y-114245174D01*
X97976612Y-114216355D01*
X97749679Y-114228249D01*
X97749674Y-114228249D01*
X97749674Y-114228250D01*
X97701750Y-114239565D01*
X97528495Y-114280474D01*
X97320213Y-114371348D01*
X97320207Y-114371351D01*
X97131494Y-114497956D01*
X96968413Y-114656229D01*
X96836212Y-114841081D01*
X96836209Y-114841086D01*
X96739152Y-115046545D01*
X96739147Y-115046558D01*
X96442455Y-116153823D01*
X96413297Y-116321634D01*
X96081584Y-116321634D01*
X96072280Y-116208813D01*
X95775588Y-115101546D01*
X95716934Y-114941638D01*
X95716932Y-114941634D01*
X95601839Y-114745687D01*
X95601838Y-114745686D01*
X95453605Y-114573435D01*
X95453604Y-114573434D01*
X95276993Y-114430416D01*
X95077686Y-114321234D01*
X94862092Y-114249396D01*
X94862087Y-114249395D01*
X94637119Y-114217206D01*
X94410025Y-114225704D01*
X94188101Y-114274613D01*
X93978475Y-114362362D01*
X93787879Y-114486137D01*
X93622453Y-114641947D01*
X93622450Y-114641950D01*
X93622450Y-114641951D01*
X93611911Y-114656231D01*
X93487502Y-114824801D01*
X93487501Y-114824803D01*
X93387370Y-115028812D01*
X93325278Y-115247407D01*
X93325276Y-115247420D01*
X93303215Y-115473582D01*
X93303215Y-115473589D01*
X93303215Y-115473592D01*
X81650500Y-115473592D01*
X81650500Y-112374500D01*
X81670185Y-112307461D01*
X81722989Y-112261706D01*
X81774500Y-112250500D01*
X101959217Y-112250500D01*
X102026256Y-112270185D01*
X102046898Y-112286819D01*
X102432432Y-112672352D01*
X102434625Y-112674601D01*
X102494940Y-112738052D01*
X102494948Y-112738058D01*
X102543362Y-112771755D01*
X102550871Y-112777416D01*
X102596593Y-112814698D01*
X102623565Y-112828786D01*
X102636982Y-112836916D01*
X102661951Y-112854295D01*
X102716163Y-112877559D01*
X102724663Y-112881595D01*
X102776951Y-112908909D01*
X102806199Y-112917277D01*
X102820975Y-112922538D01*
X102848942Y-112934540D01*
X102848945Y-112934540D01*
X102848946Y-112934541D01*
X102906713Y-112946412D01*
X102915866Y-112948658D01*
X102972582Y-112964887D01*
X103002914Y-112967196D01*
X103018463Y-112969377D01*
X103048255Y-112975500D01*
X103048259Y-112975500D01*
X103107241Y-112975500D01*
X103116655Y-112975857D01*
X103125009Y-112976494D01*
X103175475Y-112980337D01*
X103175475Y-112980336D01*
X103175476Y-112980337D01*
X103205651Y-112976493D01*
X103221318Y-112975500D01*
X108875500Y-112975500D01*
X108942539Y-112995185D01*
X108988294Y-113047989D01*
X108999500Y-113099500D01*
X108999500Y-124709217D01*
X108979815Y-124776256D01*
X108963185Y-124796893D01*
X108804256Y-124955823D01*
X108742935Y-124989307D01*
X108716577Y-124992141D01*
X101328947Y-124992141D01*
X101261908Y-124972456D01*
X101241266Y-124955822D01*
X101000201Y-124714757D01*
X100905361Y-124635580D01*
X100869452Y-124605601D01*
X100869450Y-124605600D01*
X100869448Y-124605598D01*
X100705369Y-124512497D01*
X100671800Y-124493449D01*
X100457298Y-124418392D01*
X100457295Y-124418391D01*
X100457294Y-124418391D01*
X100232847Y-124382841D01*
X100232835Y-124382841D01*
X100005646Y-124387940D01*
X99783011Y-124433524D01*
X99783003Y-124433526D01*
X99572090Y-124518130D01*
X99379667Y-124639038D01*
X99211932Y-124792355D01*
X99074259Y-124973170D01*
X98971092Y-125175648D01*
X98971092Y-125175649D01*
X98905731Y-125393306D01*
X98880288Y-125619123D01*
X98880287Y-125619134D01*
X98891245Y-125781641D01*
X98895576Y-125845870D01*
X98907343Y-125892568D01*
X98951103Y-126066238D01*
X99045084Y-126273141D01*
X99045087Y-126273147D01*
X99174503Y-126459949D01*
X99777373Y-127062819D01*
X99810858Y-127124142D01*
X99805874Y-127193834D01*
X99764002Y-127249767D01*
X99698538Y-127274184D01*
X99689692Y-127274500D01*
X99132470Y-127274500D01*
X99065431Y-127254815D01*
X99019676Y-127202011D01*
X99012695Y-127182594D01*
X98975029Y-127042023D01*
X98881416Y-126692656D01*
X98822762Y-126532748D01*
X98822760Y-126532744D01*
X98707667Y-126336797D01*
X98707666Y-126336796D01*
X98559433Y-126164545D01*
X98559432Y-126164544D01*
X98382821Y-126021526D01*
X98183514Y-125912344D01*
X97967920Y-125840506D01*
X97967915Y-125840505D01*
X97742947Y-125808316D01*
X97515853Y-125816814D01*
X97293929Y-125865723D01*
X97084303Y-125953472D01*
X97084299Y-125953474D01*
X97084298Y-125953475D01*
X97078410Y-125957299D01*
X96893707Y-126077247D01*
X96728281Y-126233057D01*
X96593330Y-126415911D01*
X96593329Y-126415913D01*
X96493198Y-126619922D01*
X96431106Y-126838517D01*
X96431104Y-126838530D01*
X96409043Y-127064692D01*
X96409043Y-127064699D01*
X96409043Y-127064702D01*
X96427720Y-127291187D01*
X96719651Y-128380686D01*
X96724413Y-128398457D01*
X96783067Y-128558365D01*
X96898163Y-128754317D01*
X97046393Y-128926563D01*
X97046396Y-128926566D01*
X97046397Y-128926567D01*
X97057478Y-128935540D01*
X97223006Y-129069583D01*
X97422313Y-129178765D01*
X97637907Y-129250603D01*
X97637911Y-129250603D01*
X97637915Y-129250605D01*
X97862877Y-129282793D01*
X97862879Y-129282792D01*
X97862880Y-129282793D01*
X97931005Y-129280243D01*
X98089973Y-129274296D01*
X98225733Y-129244375D01*
X98277384Y-129244010D01*
X98289079Y-129246414D01*
X98298225Y-129248658D01*
X98354941Y-129264887D01*
X98385273Y-129267196D01*
X98400822Y-129269377D01*
X98430614Y-129275500D01*
X98430618Y-129275500D01*
X98489600Y-129275500D01*
X98499014Y-129275857D01*
X98507368Y-129276494D01*
X98557834Y-129280337D01*
X98557834Y-129280336D01*
X98557835Y-129280337D01*
X98588010Y-129276493D01*
X98603677Y-129275500D01*
X115610721Y-129275500D01*
X115613863Y-129275540D01*
X115701358Y-129277757D01*
X115701358Y-129277756D01*
X115701363Y-129277757D01*
X115759425Y-129267349D01*
X115768754Y-129266041D01*
X115827438Y-129260074D01*
X115856471Y-129250964D01*
X115871700Y-129247226D01*
X115901653Y-129241858D01*
X115901657Y-129241856D01*
X115901659Y-129241856D01*
X115956423Y-129219980D01*
X115965292Y-129216821D01*
X116021588Y-129199159D01*
X116048200Y-129184387D01*
X116062362Y-129177662D01*
X116090617Y-129166377D01*
X116139879Y-129133909D01*
X116147910Y-129129043D01*
X116199502Y-129100409D01*
X116199509Y-129100402D01*
X116199512Y-129100401D01*
X116222583Y-129080594D01*
X116235125Y-129071137D01*
X116237483Y-129069583D01*
X116260519Y-129054402D01*
X116302237Y-129012682D01*
X116309122Y-129006301D01*
X116353895Y-128967866D01*
X116372520Y-128943802D01*
X116382880Y-128932039D01*
X116704768Y-128610151D01*
X116706937Y-128608036D01*
X116770412Y-128547700D01*
X116804109Y-128499285D01*
X116809776Y-128491767D01*
X116847057Y-128446048D01*
X116861147Y-128419071D01*
X116869268Y-128405667D01*
X116886654Y-128380690D01*
X116909922Y-128326466D01*
X116913941Y-128318002D01*
X116941268Y-128265690D01*
X116949634Y-128236449D01*
X116954903Y-128221650D01*
X116966897Y-128193703D01*
X116966899Y-128193699D01*
X116978780Y-128135879D01*
X116981009Y-128126796D01*
X116997245Y-128070059D01*
X116999555Y-128039721D01*
X117001735Y-128024181D01*
X117007859Y-127994384D01*
X117007859Y-127935395D01*
X117008217Y-127925980D01*
X117012696Y-127867165D01*
X117008852Y-127836980D01*
X117007859Y-127821316D01*
X117007859Y-126828947D01*
X117027544Y-126761908D01*
X117044178Y-126741266D01*
X117136819Y-126648625D01*
X117285242Y-126500202D01*
X117394399Y-126369452D01*
X117506551Y-126171800D01*
X117581609Y-125957298D01*
X117610043Y-125777773D01*
X117617159Y-125732845D01*
X117616153Y-125688013D01*
X117612060Y-125505646D01*
X117566475Y-125283009D01*
X117481870Y-125072092D01*
X117360963Y-124879670D01*
X117360962Y-124879669D01*
X117360961Y-124879667D01*
X117207644Y-124711931D01*
X117207638Y-124711926D01*
X117026832Y-124574260D01*
X117026828Y-124574258D01*
X116824346Y-124471089D01*
X116824342Y-124471087D01*
X116606695Y-124405731D01*
X116380876Y-124380288D01*
X116380865Y-124380287D01*
X116165015Y-124394842D01*
X116154130Y-124395576D01*
X116113829Y-124405731D01*
X115933761Y-124451103D01*
X115726858Y-124545084D01*
X115726852Y-124545087D01*
X115540050Y-124674503D01*
X114729475Y-125485078D01*
X114620316Y-125615831D01*
X114508169Y-125813476D01*
X114508167Y-125813480D01*
X114454349Y-125967284D01*
X114433109Y-126027985D01*
X114397559Y-126252432D01*
X114397559Y-126252444D01*
X114402020Y-126451234D01*
X114402658Y-126479634D01*
X114404877Y-126490472D01*
X114448242Y-126702268D01*
X114448244Y-126702276D01*
X114532849Y-126913190D01*
X114561947Y-126959499D01*
X114628044Y-127064692D01*
X114640508Y-127084527D01*
X114659509Y-127151764D01*
X114639142Y-127218599D01*
X114585874Y-127263814D01*
X114535515Y-127274500D01*
X101961505Y-127274500D01*
X101894466Y-127254815D01*
X101848711Y-127202011D01*
X101838767Y-127132853D01*
X101862848Y-127075381D01*
X101888248Y-127042022D01*
X101944522Y-127000609D01*
X101986905Y-126993141D01*
X109168080Y-126993141D01*
X109171222Y-126993181D01*
X109258717Y-126995398D01*
X109258717Y-126995397D01*
X109258722Y-126995398D01*
X109316784Y-126984990D01*
X109326113Y-126983682D01*
X109384797Y-126977715D01*
X109413830Y-126968605D01*
X109429059Y-126964867D01*
X109459012Y-126959499D01*
X109459016Y-126959497D01*
X109459018Y-126959497D01*
X109513782Y-126937621D01*
X109522651Y-126934462D01*
X109578947Y-126916800D01*
X109605559Y-126902028D01*
X109619721Y-126895303D01*
X109647976Y-126884018D01*
X109697238Y-126851550D01*
X109705269Y-126846684D01*
X109756861Y-126818050D01*
X109756868Y-126818043D01*
X109756871Y-126818042D01*
X109779942Y-126798235D01*
X109792484Y-126788778D01*
X109817878Y-126772043D01*
X109859583Y-126730337D01*
X109866490Y-126723936D01*
X109902931Y-126692652D01*
X109911254Y-126685507D01*
X109929883Y-126661439D01*
X109940243Y-126649676D01*
X110697390Y-125892528D01*
X110699559Y-125890413D01*
X110763053Y-125830059D01*
X110796752Y-125781641D01*
X110802428Y-125774113D01*
X110839698Y-125728407D01*
X110853782Y-125701444D01*
X110861919Y-125688013D01*
X110879292Y-125663053D01*
X110879295Y-125663049D01*
X110902563Y-125608825D01*
X110906582Y-125600361D01*
X110933909Y-125548049D01*
X110942278Y-125518797D01*
X110947538Y-125504023D01*
X110959540Y-125476058D01*
X110971415Y-125418268D01*
X110973649Y-125409162D01*
X110989887Y-125352418D01*
X110992197Y-125322077D01*
X110994376Y-125306535D01*
X111000500Y-125276741D01*
X111000500Y-125217758D01*
X111000858Y-125208342D01*
X111005337Y-125149527D01*
X111003059Y-125131641D01*
X111001493Y-125119339D01*
X111000500Y-125103675D01*
X111000500Y-123362880D01*
X112717206Y-123362880D01*
X112725704Y-123589974D01*
X112774613Y-123811898D01*
X112862362Y-124021524D01*
X112862365Y-124021530D01*
X112986137Y-124212120D01*
X113141826Y-124377418D01*
X113141951Y-124377550D01*
X113324800Y-124512497D01*
X113528806Y-124612627D01*
X113528810Y-124612628D01*
X113528812Y-124612629D01*
X113747407Y-124674721D01*
X113747410Y-124674721D01*
X113747412Y-124674722D01*
X113747416Y-124674722D01*
X113747420Y-124674723D01*
X113825724Y-124682361D01*
X113973592Y-124696785D01*
X114200077Y-124678108D01*
X115307344Y-124381416D01*
X115467252Y-124322762D01*
X115663205Y-124207666D01*
X115835457Y-124059431D01*
X115978472Y-123882822D01*
X116017324Y-123811901D01*
X116087655Y-123683514D01*
X116159493Y-123467920D01*
X116159494Y-123467915D01*
X116159495Y-123467913D01*
X116191683Y-123242951D01*
X116187428Y-123129216D01*
X124307465Y-123129216D01*
X124319359Y-123356153D01*
X124319360Y-123356158D01*
X124371581Y-123577321D01*
X124462462Y-123785624D01*
X124589066Y-123974335D01*
X124671446Y-124059218D01*
X124747341Y-124137418D01*
X124932188Y-124269615D01*
X124932191Y-124269616D01*
X124932192Y-124269617D01*
X124932193Y-124269618D01*
X125044689Y-124322760D01*
X125137668Y-124366683D01*
X126244935Y-124663375D01*
X126293991Y-124671899D01*
X126412738Y-124692533D01*
X126412740Y-124692532D01*
X126412746Y-124692534D01*
X126639994Y-124690834D01*
X126863287Y-124648585D01*
X127075446Y-124567145D01*
X127269655Y-124449131D01*
X127439671Y-124298335D01*
X127580028Y-124119606D01*
X127686217Y-123918686D01*
X127754825Y-123702036D01*
X127783644Y-123476617D01*
X127771750Y-123249674D01*
X127719527Y-123028502D01*
X127719526Y-123028500D01*
X127719525Y-123028495D01*
X127628651Y-122820213D01*
X127628648Y-122820207D01*
X127502043Y-122631494D01*
X127343770Y-122468413D01*
X127245541Y-122398162D01*
X127158923Y-122336215D01*
X127158920Y-122336213D01*
X127158918Y-122336212D01*
X127158913Y-122336209D01*
X126953454Y-122239152D01*
X126953446Y-122239149D01*
X126953442Y-122239147D01*
X125846176Y-121942455D01*
X125780854Y-121931105D01*
X125678365Y-121913297D01*
X125678364Y-121913297D01*
X125621552Y-121913721D01*
X125451113Y-121914996D01*
X125451107Y-121914997D01*
X125227826Y-121957244D01*
X125015660Y-122038686D01*
X125015660Y-122038687D01*
X124821458Y-122156697D01*
X124821451Y-122156703D01*
X124651442Y-122307491D01*
X124511082Y-122486222D01*
X124511079Y-122486227D01*
X124404897Y-122687135D01*
X124404889Y-122687153D01*
X124336285Y-122903795D01*
X124336285Y-122903797D01*
X124307465Y-123129216D01*
X116187428Y-123129216D01*
X116183186Y-123015855D01*
X116158489Y-122903795D01*
X116134277Y-122793932D01*
X116134276Y-122793927D01*
X116046525Y-122584298D01*
X116021912Y-122546397D01*
X115922756Y-122393711D01*
X115922753Y-122393707D01*
X115766942Y-122228280D01*
X115584091Y-122093331D01*
X115584088Y-122093329D01*
X115472360Y-122038491D01*
X115380085Y-121993201D01*
X115380082Y-121993200D01*
X115380078Y-121993198D01*
X115161483Y-121931105D01*
X115161470Y-121931103D01*
X114935304Y-121909043D01*
X114935300Y-121909043D01*
X114935298Y-121909043D01*
X114708813Y-121927720D01*
X114090746Y-122093331D01*
X113601542Y-122224413D01*
X113441634Y-122283067D01*
X113245687Y-122398160D01*
X113245686Y-122398161D01*
X113073435Y-122546394D01*
X113073434Y-122546395D01*
X112930416Y-122723006D01*
X112821234Y-122922313D01*
X112749396Y-123137907D01*
X112749395Y-123137912D01*
X112717206Y-123362880D01*
X111000500Y-123362880D01*
X111000500Y-120023386D01*
X112716355Y-120023386D01*
X112728249Y-120250323D01*
X112728250Y-120250328D01*
X112780471Y-120471491D01*
X112871352Y-120679794D01*
X112997956Y-120868505D01*
X113043532Y-120915466D01*
X113156231Y-121031588D01*
X113341078Y-121163785D01*
X113341081Y-121163786D01*
X113341082Y-121163787D01*
X113341083Y-121163788D01*
X113452622Y-121216478D01*
X113546558Y-121260853D01*
X114653825Y-121557545D01*
X114713690Y-121567947D01*
X114821628Y-121586703D01*
X114821630Y-121586702D01*
X114821636Y-121586704D01*
X115048884Y-121585004D01*
X115272177Y-121542755D01*
X115484336Y-121461315D01*
X115678545Y-121343301D01*
X115848561Y-121192505D01*
X115988918Y-121013776D01*
X116095107Y-120812856D01*
X116163715Y-120596206D01*
X116192534Y-120370787D01*
X116186575Y-120257079D01*
X124308817Y-120257079D01*
X124314246Y-120402167D01*
X124314247Y-120402167D01*
X125562432Y-120067717D01*
X125545555Y-120125197D01*
X125545555Y-120268975D01*
X125586062Y-120406930D01*
X125663794Y-120527884D01*
X125690514Y-120551037D01*
X124441467Y-120885718D01*
X124453920Y-120915466D01*
X124453924Y-120915474D01*
X124577642Y-121105982D01*
X124733390Y-121271343D01*
X124916168Y-121406239D01*
X125120101Y-121506333D01*
X125120100Y-121506333D01*
X125338609Y-121568401D01*
X125338621Y-121568403D01*
X125564698Y-121590454D01*
X125791101Y-121571784D01*
X126130701Y-121480787D01*
X125917139Y-120683764D01*
X126009792Y-120697086D01*
X126081318Y-120697086D01*
X126187870Y-120681766D01*
X126318655Y-120622038D01*
X126399474Y-120552008D01*
X126613665Y-121351378D01*
X126898286Y-121275115D01*
X126898298Y-121275111D01*
X127058151Y-121216478D01*
X127254024Y-121101428D01*
X127426202Y-120953256D01*
X127426204Y-120953254D01*
X127569167Y-120776711D01*
X127678304Y-120577483D01*
X127678306Y-120577478D01*
X127750115Y-120361969D01*
X127782292Y-120137093D01*
X127776862Y-119992003D01*
X126528678Y-120326451D01*
X126545555Y-120268975D01*
X126545555Y-120125197D01*
X126505048Y-119987242D01*
X126427316Y-119866288D01*
X126400593Y-119843132D01*
X127649643Y-119508452D01*
X127637191Y-119478705D01*
X127637189Y-119478701D01*
X127513472Y-119288193D01*
X127513469Y-119288189D01*
X127357719Y-119122828D01*
X127174941Y-118987932D01*
X126971008Y-118887838D01*
X126971009Y-118887838D01*
X126752500Y-118825770D01*
X126752488Y-118825768D01*
X126526410Y-118803717D01*
X126300010Y-118822386D01*
X125960407Y-118913382D01*
X126173968Y-119710407D01*
X126081318Y-119697086D01*
X126009792Y-119697086D01*
X125903240Y-119712406D01*
X125772455Y-119772134D01*
X125691633Y-119842164D01*
X125477443Y-119042792D01*
X125192804Y-119119062D01*
X125032958Y-119177693D01*
X124837085Y-119292743D01*
X124664907Y-119440915D01*
X124664905Y-119440917D01*
X124521943Y-119617459D01*
X124412805Y-119816685D01*
X124340995Y-120032197D01*
X124308817Y-120257079D01*
X116186575Y-120257079D01*
X116180640Y-120143844D01*
X116128417Y-119922672D01*
X116128416Y-119922670D01*
X116128415Y-119922665D01*
X116037541Y-119714383D01*
X116037538Y-119714377D01*
X115910933Y-119525664D01*
X115752660Y-119362583D01*
X115752659Y-119362582D01*
X115567813Y-119230385D01*
X115567810Y-119230383D01*
X115567808Y-119230382D01*
X115567803Y-119230379D01*
X115362344Y-119133322D01*
X115362336Y-119133319D01*
X115362332Y-119133317D01*
X114255066Y-118836625D01*
X114192581Y-118825768D01*
X114087255Y-118807467D01*
X114087254Y-118807467D01*
X114030442Y-118807891D01*
X113860003Y-118809166D01*
X113859997Y-118809167D01*
X113636716Y-118851414D01*
X113424550Y-118932856D01*
X113424550Y-118932857D01*
X113230348Y-119050867D01*
X113230341Y-119050873D01*
X113060332Y-119201661D01*
X112919972Y-119380392D01*
X112919969Y-119380397D01*
X112813787Y-119581305D01*
X112813779Y-119581323D01*
X112745175Y-119797965D01*
X112745175Y-119797967D01*
X112716355Y-120023386D01*
X111000500Y-120023386D01*
X111000500Y-117133852D01*
X114395007Y-117133852D01*
X114408112Y-117328196D01*
X114410296Y-117360588D01*
X114422981Y-117410930D01*
X114465823Y-117580956D01*
X114559804Y-117787859D01*
X114559807Y-117787865D01*
X114626528Y-117884172D01*
X114689223Y-117974667D01*
X115499798Y-118785242D01*
X115630548Y-118894399D01*
X115630549Y-118894400D01*
X115630551Y-118894401D01*
X115685782Y-118925740D01*
X115828200Y-119006551D01*
X116042702Y-119081609D01*
X116267158Y-119117159D01*
X116494354Y-119112060D01*
X116716991Y-119066475D01*
X116927908Y-118981870D01*
X117120330Y-118860963D01*
X117288070Y-118707642D01*
X117425739Y-118526833D01*
X117528910Y-118324347D01*
X117561149Y-118216988D01*
X117594268Y-118106696D01*
X117594268Y-118106693D01*
X117604608Y-118014921D01*
X117619712Y-117880870D01*
X117612045Y-117767164D01*
X122882841Y-117767164D01*
X122887940Y-117994353D01*
X122933524Y-118216988D01*
X122933526Y-118216996D01*
X123018130Y-118427909D01*
X123139038Y-118620332D01*
X123218845Y-118707644D01*
X123292358Y-118788070D01*
X123432010Y-118894401D01*
X123473170Y-118925740D01*
X123675649Y-119028907D01*
X123675653Y-119028909D01*
X123893305Y-119094268D01*
X124119130Y-119119712D01*
X124119132Y-119119711D01*
X124119134Y-119119712D01*
X124162671Y-119116776D01*
X124345870Y-119104424D01*
X124566236Y-119048897D01*
X124773145Y-118954914D01*
X124959949Y-118825497D01*
X125770524Y-118014922D01*
X125879681Y-117884172D01*
X125991833Y-117686520D01*
X126066891Y-117472018D01*
X126099372Y-117266939D01*
X126102441Y-117247565D01*
X126100892Y-117178541D01*
X126097342Y-117020366D01*
X126051757Y-116797729D01*
X125967152Y-116586812D01*
X125846245Y-116394390D01*
X125846244Y-116394389D01*
X125846243Y-116394387D01*
X125692926Y-116226651D01*
X125692920Y-116226646D01*
X125512114Y-116088980D01*
X125512110Y-116088978D01*
X125309628Y-115985809D01*
X125309624Y-115985807D01*
X125091977Y-115920451D01*
X124866158Y-115895008D01*
X124866147Y-115895007D01*
X124650297Y-115909562D01*
X124639412Y-115910296D01*
X124599111Y-115920451D01*
X124419043Y-115965823D01*
X124212140Y-116059804D01*
X124212134Y-116059807D01*
X124025332Y-116189223D01*
X123214757Y-116999798D01*
X123105598Y-117130551D01*
X123028208Y-117266942D01*
X122993449Y-117328200D01*
X122964501Y-117410930D01*
X122918391Y-117542705D01*
X122882841Y-117767152D01*
X122882841Y-117767164D01*
X117612045Y-117767164D01*
X117604424Y-117654130D01*
X117548897Y-117433764D01*
X117538525Y-117410930D01*
X117473121Y-117266939D01*
X117454914Y-117226855D01*
X117325497Y-117040051D01*
X116514922Y-116229476D01*
X116384172Y-116120319D01*
X116384170Y-116120318D01*
X116384168Y-116120316D01*
X116230017Y-116032848D01*
X116186520Y-116008167D01*
X115972018Y-115933110D01*
X115972015Y-115933109D01*
X115972014Y-115933109D01*
X115747567Y-115897559D01*
X115747555Y-115897559D01*
X115520366Y-115902658D01*
X115297731Y-115948242D01*
X115297723Y-115948244D01*
X115086810Y-116032848D01*
X114894387Y-116153756D01*
X114726652Y-116307073D01*
X114588979Y-116487888D01*
X114485812Y-116690366D01*
X114485812Y-116690367D01*
X114420451Y-116908024D01*
X114395008Y-117133841D01*
X114395007Y-117133852D01*
X111000500Y-117133852D01*
X111000500Y-115473592D01*
X117303215Y-115473592D01*
X117321892Y-115700077D01*
X117579501Y-116661483D01*
X117618585Y-116807347D01*
X117677239Y-116967255D01*
X117792335Y-117163207D01*
X117940565Y-117335453D01*
X117940568Y-117335456D01*
X118117178Y-117478473D01*
X118316485Y-117587655D01*
X118532079Y-117659493D01*
X118532083Y-117659493D01*
X118532087Y-117659495D01*
X118757049Y-117691683D01*
X118757051Y-117691682D01*
X118757052Y-117691683D01*
X118825177Y-117689133D01*
X118984145Y-117683186D01*
X119206073Y-117634276D01*
X119415702Y-117546525D01*
X119606293Y-117422753D01*
X119771722Y-117266939D01*
X119906669Y-117084091D01*
X120006799Y-116880085D01*
X120068895Y-116661479D01*
X120079878Y-116548886D01*
X120090956Y-116435308D01*
X120090957Y-116435298D01*
X120081584Y-116321634D01*
X120413297Y-116321634D01*
X120414996Y-116548886D01*
X120414997Y-116548892D01*
X120457244Y-116772173D01*
X120538686Y-116984339D01*
X120656697Y-117178541D01*
X120656703Y-117178548D01*
X120795871Y-117335456D01*
X120807495Y-117348561D01*
X120886915Y-117410930D01*
X120986222Y-117488917D01*
X120986227Y-117488920D01*
X121087994Y-117542705D01*
X121187144Y-117595107D01*
X121403794Y-117663714D01*
X121629213Y-117692534D01*
X121856156Y-117680640D01*
X121989569Y-117649137D01*
X122077321Y-117628418D01*
X122077322Y-117628417D01*
X122077328Y-117628416D01*
X122285620Y-117537539D01*
X122285621Y-117537538D01*
X122285624Y-117537537D01*
X122474335Y-117410933D01*
X122474336Y-117410931D01*
X122474339Y-117410930D01*
X122637418Y-117252659D01*
X122769615Y-117067812D01*
X122866683Y-116862332D01*
X123163375Y-115755065D01*
X123192534Y-115587254D01*
X123190834Y-115360006D01*
X123148585Y-115136713D01*
X123067145Y-114924554D01*
X123016424Y-114841086D01*
X122949133Y-114730348D01*
X122949132Y-114730347D01*
X122949131Y-114730345D01*
X122862961Y-114633193D01*
X122798338Y-114560332D01*
X122798336Y-114560331D01*
X122798335Y-114560329D01*
X122703860Y-114486137D01*
X122619607Y-114419972D01*
X122619602Y-114419969D01*
X122418694Y-114313787D01*
X122418691Y-114313785D01*
X122418686Y-114313783D01*
X122418682Y-114313781D01*
X122418676Y-114313779D01*
X122202033Y-114245174D01*
X121976612Y-114216355D01*
X121749679Y-114228249D01*
X121749674Y-114228249D01*
X121749674Y-114228250D01*
X121701750Y-114239565D01*
X121528495Y-114280474D01*
X121320213Y-114371348D01*
X121320207Y-114371351D01*
X121131494Y-114497956D01*
X120968413Y-114656229D01*
X120836212Y-114841081D01*
X120836209Y-114841086D01*
X120739152Y-115046545D01*
X120739147Y-115046558D01*
X120442455Y-116153823D01*
X120413297Y-116321634D01*
X120081584Y-116321634D01*
X120072280Y-116208813D01*
X119775588Y-115101546D01*
X119716934Y-114941638D01*
X119716932Y-114941634D01*
X119601839Y-114745687D01*
X119601838Y-114745686D01*
X119453605Y-114573435D01*
X119453604Y-114573434D01*
X119276993Y-114430416D01*
X119077686Y-114321234D01*
X118862092Y-114249396D01*
X118862087Y-114249395D01*
X118637119Y-114217206D01*
X118410025Y-114225704D01*
X118188101Y-114274613D01*
X117978475Y-114362362D01*
X117787879Y-114486137D01*
X117622453Y-114641947D01*
X117622450Y-114641950D01*
X117622450Y-114641951D01*
X117611911Y-114656231D01*
X117487502Y-114824801D01*
X117487501Y-114824803D01*
X117387370Y-115028812D01*
X117325278Y-115247407D01*
X117325276Y-115247420D01*
X117303215Y-115473582D01*
X117303215Y-115473589D01*
X117303215Y-115473592D01*
X111000500Y-115473592D01*
X111000500Y-112199500D01*
X111020185Y-112132461D01*
X111072989Y-112086706D01*
X111124500Y-112075500D01*
X130809217Y-112075500D01*
X130876256Y-112095185D01*
X130896898Y-112111819D01*
X131163181Y-112378102D01*
X131196666Y-112439425D01*
X131199500Y-112465783D01*
X131199500Y-124584218D01*
X131179815Y-124651257D01*
X131163181Y-124671899D01*
X130879258Y-124955822D01*
X130817935Y-124989307D01*
X130791577Y-124992141D01*
X125328947Y-124992141D01*
X125261908Y-124972456D01*
X125241266Y-124955822D01*
X125000201Y-124714757D01*
X124905361Y-124635580D01*
X124869452Y-124605601D01*
X124869450Y-124605600D01*
X124869448Y-124605598D01*
X124705369Y-124512497D01*
X124671800Y-124493449D01*
X124457298Y-124418392D01*
X124457295Y-124418391D01*
X124457294Y-124418391D01*
X124232847Y-124382841D01*
X124232835Y-124382841D01*
X124005646Y-124387940D01*
X123783011Y-124433524D01*
X123783003Y-124433526D01*
X123572090Y-124518130D01*
X123379667Y-124639038D01*
X123211932Y-124792355D01*
X123074259Y-124973170D01*
X122971092Y-125175648D01*
X122971092Y-125175649D01*
X122905731Y-125393306D01*
X122880288Y-125619123D01*
X122880287Y-125619134D01*
X122891245Y-125781641D01*
X122895576Y-125845870D01*
X122907343Y-125892568D01*
X122951103Y-126066238D01*
X123045084Y-126273141D01*
X123045087Y-126273147D01*
X123098635Y-126350439D01*
X123120632Y-126416756D01*
X123103284Y-126484437D01*
X123052098Y-126531996D01*
X122996707Y-126545055D01*
X122900965Y-126545055D01*
X122833926Y-126525370D01*
X122794045Y-126483857D01*
X122707667Y-126336797D01*
X122707666Y-126336796D01*
X122559433Y-126164545D01*
X122559432Y-126164544D01*
X122382821Y-126021526D01*
X122183514Y-125912344D01*
X121967920Y-125840506D01*
X121967915Y-125840505D01*
X121742947Y-125808316D01*
X121515853Y-125816814D01*
X121293929Y-125865723D01*
X121084303Y-125953472D01*
X121084299Y-125953474D01*
X121084298Y-125953475D01*
X121078410Y-125957299D01*
X120893707Y-126077247D01*
X120728281Y-126233057D01*
X120593330Y-126415911D01*
X120593329Y-126415913D01*
X120493198Y-126619922D01*
X120431106Y-126838517D01*
X120431104Y-126838530D01*
X120409043Y-127064692D01*
X120409043Y-127064699D01*
X120409043Y-127064702D01*
X120427720Y-127291187D01*
X120719651Y-128380686D01*
X120724413Y-128398457D01*
X120783067Y-128558365D01*
X120898163Y-128754317D01*
X121046393Y-128926563D01*
X121046396Y-128926566D01*
X121046397Y-128926567D01*
X121057478Y-128935540D01*
X121223006Y-129069583D01*
X121422313Y-129178765D01*
X121637907Y-129250603D01*
X121637911Y-129250603D01*
X121637915Y-129250605D01*
X121862877Y-129282793D01*
X121862879Y-129282792D01*
X121862880Y-129282793D01*
X121931005Y-129280243D01*
X122089973Y-129274296D01*
X122311901Y-129225386D01*
X122521530Y-129137635D01*
X122712121Y-129013863D01*
X122822771Y-128909643D01*
X122885064Y-128878011D01*
X122954575Y-128885077D01*
X122983688Y-128901856D01*
X123018036Y-128928444D01*
X123018037Y-128928444D01*
X123018042Y-128928448D01*
X123032511Y-128935545D01*
X123048728Y-128945091D01*
X123060876Y-128953547D01*
X123077718Y-128967639D01*
X123832432Y-129722352D01*
X123834625Y-129724601D01*
X123894940Y-129788052D01*
X123894948Y-129788058D01*
X123943362Y-129821755D01*
X123950871Y-129827416D01*
X123996593Y-129864698D01*
X124023565Y-129878786D01*
X124036980Y-129886915D01*
X124061951Y-129904295D01*
X124090105Y-129916377D01*
X124116163Y-129927559D01*
X124124663Y-129931595D01*
X124176951Y-129958909D01*
X124206199Y-129967277D01*
X124220975Y-129972538D01*
X124248942Y-129984540D01*
X124248945Y-129984540D01*
X124248946Y-129984541D01*
X124306713Y-129996412D01*
X124315866Y-129998658D01*
X124372582Y-130014887D01*
X124402914Y-130017196D01*
X124418463Y-130019377D01*
X124448255Y-130025500D01*
X124448259Y-130025500D01*
X124507241Y-130025500D01*
X124516655Y-130025857D01*
X124525009Y-130026494D01*
X124575475Y-130030337D01*
X124575475Y-130030336D01*
X124575476Y-130030337D01*
X124605651Y-130026493D01*
X124621318Y-130025500D01*
X132210721Y-130025500D01*
X132213863Y-130025540D01*
X132301358Y-130027757D01*
X132301358Y-130027756D01*
X132301363Y-130027757D01*
X132359425Y-130017349D01*
X132368754Y-130016041D01*
X132427438Y-130010074D01*
X132456471Y-130000964D01*
X132471700Y-129997226D01*
X132501653Y-129991858D01*
X132501657Y-129991856D01*
X132501659Y-129991856D01*
X132556423Y-129969980D01*
X132565292Y-129966821D01*
X132621588Y-129949159D01*
X132648200Y-129934387D01*
X132662362Y-129927662D01*
X132690617Y-129916377D01*
X132739879Y-129883909D01*
X132747910Y-129879043D01*
X132799502Y-129850409D01*
X132799509Y-129850402D01*
X132799512Y-129850401D01*
X132822583Y-129830594D01*
X132835125Y-129821137D01*
X132836767Y-129820055D01*
X132860519Y-129804402D01*
X132902226Y-129762694D01*
X132909138Y-129756288D01*
X132923009Y-129744380D01*
X132953895Y-129717866D01*
X132972524Y-129693798D01*
X132982884Y-129682035D01*
X134097390Y-128567528D01*
X134099559Y-128565413D01*
X134163053Y-128505059D01*
X134196752Y-128456641D01*
X134202428Y-128449113D01*
X134239698Y-128403407D01*
X134253782Y-128376444D01*
X134261919Y-128363013D01*
X134279292Y-128338053D01*
X134279295Y-128338049D01*
X134302563Y-128283825D01*
X134306582Y-128275361D01*
X134333909Y-128223049D01*
X134342278Y-128193797D01*
X134347538Y-128179023D01*
X134359540Y-128151058D01*
X134371415Y-128093268D01*
X134373649Y-128084162D01*
X134389887Y-128027418D01*
X134392197Y-127997077D01*
X134394376Y-127981535D01*
X134400500Y-127951741D01*
X134400500Y-127892758D01*
X134400858Y-127883342D01*
X134405337Y-127824527D01*
X134401493Y-127794339D01*
X134400500Y-127778675D01*
X134400500Y-111464237D01*
X134400540Y-111461095D01*
X134402756Y-111373642D01*
X134402755Y-111373641D01*
X134402756Y-111373636D01*
X134392345Y-111315554D01*
X134391042Y-111306260D01*
X134385074Y-111247562D01*
X134383396Y-111242214D01*
X134375967Y-111218536D01*
X134372224Y-111203287D01*
X134366858Y-111173348D01*
X134344976Y-111118567D01*
X134341822Y-111109709D01*
X134324159Y-111053412D01*
X134324158Y-111053411D01*
X134324157Y-111053406D01*
X134309396Y-111026814D01*
X134302659Y-111012629D01*
X134291378Y-110984385D01*
X134291375Y-110984380D01*
X134258918Y-110935131D01*
X134254036Y-110927074D01*
X134225409Y-110875498D01*
X134205588Y-110852410D01*
X134196144Y-110839885D01*
X134179402Y-110814481D01*
X134137692Y-110772771D01*
X134131300Y-110765875D01*
X134092866Y-110721105D01*
X134068804Y-110702479D01*
X134057026Y-110692105D01*
X132542566Y-109177646D01*
X132540373Y-109175397D01*
X132480061Y-109111949D01*
X132480060Y-109111948D01*
X132480059Y-109111947D01*
X132431640Y-109078246D01*
X132424120Y-109072575D01*
X132378413Y-109035305D01*
X132378406Y-109035301D01*
X132351441Y-109021216D01*
X132338026Y-109013089D01*
X132313049Y-108995705D01*
X132313046Y-108995703D01*
X132313045Y-108995703D01*
X132313041Y-108995701D01*
X132258845Y-108972443D01*
X132250336Y-108968402D01*
X132198057Y-108941094D01*
X132198046Y-108941090D01*
X132168806Y-108932723D01*
X132154021Y-108927459D01*
X132126058Y-108915459D01*
X132068273Y-108903583D01*
X132059127Y-108901338D01*
X132002423Y-108885113D01*
X131978699Y-108883306D01*
X131972072Y-108882801D01*
X131956533Y-108880622D01*
X131926742Y-108874500D01*
X131926741Y-108874500D01*
X131867759Y-108874500D01*
X131858344Y-108874142D01*
X131855643Y-108873936D01*
X131799524Y-108869662D01*
X131769349Y-108873506D01*
X131753682Y-108874500D01*
X121023350Y-108874500D01*
X120956311Y-108854815D01*
X120910556Y-108802011D01*
X120900612Y-108732853D01*
X120924974Y-108675014D01*
X120999538Y-108577839D01*
X120999537Y-108577839D01*
X120999539Y-108577838D01*
X121060047Y-108431759D01*
X121075503Y-108314358D01*
X121080685Y-108274997D01*
X121076564Y-108243694D01*
X121075503Y-108227509D01*
X121075503Y-107862291D01*
X121095188Y-107795252D01*
X121133532Y-107757297D01*
X121177265Y-107729818D01*
X121177265Y-107729817D01*
X121177268Y-107729816D01*
X121304822Y-107602262D01*
X121400795Y-107449522D01*
X121460374Y-107279255D01*
X121460375Y-107279249D01*
X121480571Y-107100003D01*
X121480571Y-107099996D01*
X121460375Y-106920750D01*
X121460374Y-106920745D01*
X121451530Y-106895470D01*
X121400795Y-106750478D01*
X121374883Y-106709240D01*
X121304821Y-106597737D01*
X121177268Y-106470184D01*
X121024529Y-106374211D01*
X120854260Y-106314631D01*
X120854255Y-106314630D01*
X120675010Y-106294435D01*
X120675002Y-106294435D01*
X120495756Y-106314630D01*
X120495743Y-106314633D01*
X120318912Y-106376510D01*
X120318163Y-106374369D01*
X120259827Y-106383958D01*
X120231411Y-106375611D01*
X120231097Y-106376510D01*
X120054265Y-106314633D01*
X120054252Y-106314630D01*
X119875007Y-106294435D01*
X119874999Y-106294435D01*
X119695753Y-106314630D01*
X119695740Y-106314633D01*
X119518909Y-106376510D01*
X119518160Y-106374369D01*
X119459824Y-106383958D01*
X119431408Y-106375611D01*
X119431094Y-106376510D01*
X119254262Y-106314633D01*
X119254249Y-106314630D01*
X119075004Y-106294435D01*
X119074996Y-106294435D01*
X118895750Y-106314630D01*
X118895742Y-106314632D01*
X118790454Y-106351474D01*
X118720675Y-106355035D01*
X118660048Y-106320306D01*
X118627821Y-106258312D01*
X118625500Y-106234432D01*
X118625500Y-101600431D01*
X118626561Y-101584245D01*
X118630682Y-101552944D01*
X118630682Y-101552942D01*
X118610044Y-101396183D01*
X118610042Y-101396178D01*
X118549538Y-101250107D01*
X118549535Y-101250102D01*
X118477451Y-101156160D01*
X118477450Y-101156159D01*
X118453556Y-101125019D01*
X118453281Y-101124660D01*
X118428229Y-101105438D01*
X118416034Y-101094743D01*
X115755255Y-98433964D01*
X115744560Y-98421769D01*
X115725339Y-98396719D01*
X115725335Y-98396716D01*
X115599897Y-98300464D01*
X115453818Y-98239956D01*
X115453816Y-98239955D01*
X115451656Y-98239061D01*
X115397253Y-98195220D01*
X115375188Y-98128926D01*
X115392467Y-98061227D01*
X115443604Y-98013616D01*
X115499109Y-98000500D01*
X134039577Y-98000500D01*
X134106616Y-98020185D01*
X134152371Y-98072989D01*
X134162315Y-98142147D01*
X134133290Y-98205703D01*
X134074512Y-98243477D01*
X134061718Y-98246507D01*
X133680816Y-98315630D01*
X133265234Y-98430324D01*
X133265209Y-98430332D01*
X132861583Y-98581815D01*
X132861569Y-98581821D01*
X132473146Y-98768876D01*
X132473140Y-98768879D01*
X132103024Y-98990013D01*
X131754235Y-99243423D01*
X131536877Y-99433322D01*
X131536877Y-99433323D01*
X133414545Y-101310991D01*
X133389990Y-101328324D01*
X133175031Y-101529082D01*
X133063104Y-101666657D01*
X131182223Y-99785777D01*
X131131624Y-99838699D01*
X131131612Y-99838712D01*
X130862800Y-100175791D01*
X130862799Y-100175792D01*
X130625294Y-100535600D01*
X130420989Y-100915261D01*
X130420985Y-100915269D01*
X130251545Y-101311695D01*
X130251542Y-101311703D01*
X130118313Y-101721741D01*
X130022378Y-102142061D01*
X129964505Y-102569298D01*
X129964504Y-102569307D01*
X129945162Y-102999996D01*
X129945162Y-103000003D01*
X129964504Y-103430692D01*
X129964505Y-103430701D01*
X130022378Y-103857938D01*
X130118313Y-104278258D01*
X130251542Y-104688296D01*
X130251545Y-104688304D01*
X130420985Y-105084730D01*
X130420989Y-105084738D01*
X130625294Y-105464399D01*
X130862799Y-105824207D01*
X130862800Y-105824208D01*
X131131608Y-106161282D01*
X131182223Y-106214221D01*
X133063103Y-104333341D01*
X133175031Y-104470918D01*
X133389990Y-104671676D01*
X133414544Y-104689008D01*
X131536877Y-106566675D01*
X131754227Y-106756569D01*
X131754244Y-106756582D01*
X132103024Y-107009986D01*
X132473140Y-107231120D01*
X132473146Y-107231123D01*
X132861569Y-107418178D01*
X132861583Y-107418184D01*
X133265209Y-107569667D01*
X133265234Y-107569675D01*
X133680816Y-107684369D01*
X134105023Y-107761351D01*
X134534435Y-107799999D01*
X134534438Y-107800000D01*
X134965562Y-107800000D01*
X134965564Y-107799999D01*
X135394976Y-107761351D01*
X135819183Y-107684369D01*
X136234765Y-107569675D01*
X136234790Y-107569667D01*
X136638416Y-107418184D01*
X136638430Y-107418178D01*
X137026853Y-107231123D01*
X137026859Y-107231120D01*
X137396975Y-107009986D01*
X137745755Y-106756582D01*
X137745772Y-106756569D01*
X137963121Y-106566675D01*
X136085455Y-104689008D01*
X136110010Y-104671676D01*
X136324969Y-104470918D01*
X136436895Y-104333342D01*
X138317775Y-106214222D01*
X138317776Y-106214222D01*
X138368386Y-106161289D01*
X138368386Y-106161288D01*
X138637199Y-105824208D01*
X138637200Y-105824207D01*
X138874705Y-105464399D01*
X139079010Y-105084738D01*
X139079014Y-105084730D01*
X139248454Y-104688304D01*
X139248457Y-104688296D01*
X139381686Y-104278258D01*
X139477621Y-103857938D01*
X139502622Y-103673376D01*
X139531128Y-103609586D01*
X139589595Y-103571333D01*
X139659463Y-103570763D01*
X139718547Y-103608056D01*
X139748090Y-103671373D01*
X139749500Y-103690021D01*
X139749500Y-139809978D01*
X139729815Y-139877017D01*
X139677011Y-139922772D01*
X139607853Y-139932716D01*
X139544297Y-139903691D01*
X139506523Y-139844913D01*
X139502622Y-139826623D01*
X139477621Y-139642061D01*
X139381686Y-139221741D01*
X139248457Y-138811703D01*
X139248454Y-138811695D01*
X139079014Y-138415269D01*
X139079010Y-138415261D01*
X138874705Y-138035600D01*
X138637200Y-137675792D01*
X138637199Y-137675791D01*
X138368391Y-137338717D01*
X138317774Y-137285776D01*
X136436894Y-139166656D01*
X136324969Y-139029082D01*
X136110010Y-138828324D01*
X136085453Y-138810990D01*
X137963121Y-136933323D01*
X137745772Y-136743430D01*
X137745755Y-136743417D01*
X137396975Y-136490013D01*
X137026859Y-136268879D01*
X137026853Y-136268876D01*
X136638430Y-136081821D01*
X136638416Y-136081815D01*
X136234790Y-135930332D01*
X136234765Y-135930324D01*
X135819183Y-135815630D01*
X135394976Y-135738648D01*
X134965564Y-135700000D01*
X134534435Y-135700000D01*
X134105023Y-135738648D01*
X133680816Y-135815630D01*
X133265234Y-135930324D01*
X133265209Y-135930332D01*
X132861583Y-136081815D01*
X132861569Y-136081821D01*
X132473146Y-136268876D01*
X132473140Y-136268879D01*
X132103024Y-136490013D01*
X131754235Y-136743423D01*
X131536877Y-136933322D01*
X131536877Y-136933323D01*
X133414545Y-138810991D01*
X133389990Y-138828324D01*
X133175031Y-139029082D01*
X133063104Y-139166657D01*
X131182223Y-137285777D01*
X131131624Y-137338699D01*
X131131612Y-137338712D01*
X130862800Y-137675791D01*
X130862799Y-137675792D01*
X130625294Y-138035600D01*
X130420989Y-138415261D01*
X130420985Y-138415269D01*
X130251545Y-138811695D01*
X130251542Y-138811703D01*
X130118313Y-139221741D01*
X130022378Y-139642061D01*
X129964505Y-140069298D01*
X129964504Y-140069307D01*
X129945162Y-140499996D01*
X129945162Y-140500003D01*
X129964504Y-140930692D01*
X129964505Y-140930701D01*
X130022378Y-141357938D01*
X130118313Y-141778258D01*
X130251542Y-142188296D01*
X130251545Y-142188304D01*
X130420985Y-142584730D01*
X130420989Y-142584738D01*
X130625294Y-142964399D01*
X130862799Y-143324207D01*
X130862800Y-143324208D01*
X131131608Y-143661282D01*
X131182223Y-143714221D01*
X133063103Y-141833341D01*
X133175031Y-141970918D01*
X133389990Y-142171676D01*
X133414544Y-142189008D01*
X131536877Y-144066675D01*
X131754227Y-144256569D01*
X131754244Y-144256582D01*
X132103024Y-144509986D01*
X132473140Y-144731120D01*
X132473146Y-144731123D01*
X132861569Y-144918178D01*
X132861583Y-144918184D01*
X133265209Y-145069667D01*
X133265234Y-145069675D01*
X133680816Y-145184369D01*
X134061718Y-145253493D01*
X134124165Y-145284831D01*
X134159756Y-145344957D01*
X134157191Y-145414779D01*
X134117285Y-145472131D01*
X134052706Y-145498803D01*
X134039577Y-145499500D01*
X26460423Y-145499500D01*
X26393384Y-145479815D01*
X26347629Y-145427011D01*
X26337685Y-145357853D01*
X26366710Y-145294297D01*
X26425488Y-145256523D01*
X26438282Y-145253493D01*
X26819183Y-145184369D01*
X27234765Y-145069675D01*
X27234790Y-145069667D01*
X27638416Y-144918184D01*
X27638430Y-144918178D01*
X28026853Y-144731123D01*
X28026859Y-144731120D01*
X28396975Y-144509986D01*
X28745755Y-144256582D01*
X28745772Y-144256569D01*
X28963121Y-144066675D01*
X27085455Y-142189008D01*
X27110010Y-142171676D01*
X27324969Y-141970918D01*
X27436895Y-141833342D01*
X29317775Y-143714222D01*
X29317776Y-143714222D01*
X29368386Y-143661289D01*
X29368386Y-143661288D01*
X29637199Y-143324208D01*
X29637200Y-143324207D01*
X29874705Y-142964399D01*
X30079010Y-142584738D01*
X30079014Y-142584730D01*
X30248454Y-142188304D01*
X30248457Y-142188296D01*
X30381686Y-141778258D01*
X30477621Y-141357938D01*
X30535494Y-140930701D01*
X30535495Y-140930692D01*
X30554838Y-140500003D01*
X30554838Y-140499996D01*
X30535495Y-140069307D01*
X30535494Y-140069298D01*
X30477621Y-139642061D01*
X30381686Y-139221741D01*
X30248457Y-138811703D01*
X30248454Y-138811695D01*
X30079014Y-138415269D01*
X30079010Y-138415261D01*
X29874705Y-138035600D01*
X29637200Y-137675792D01*
X29637199Y-137675791D01*
X29368391Y-137338717D01*
X29317774Y-137285776D01*
X27436894Y-139166656D01*
X27324969Y-139029082D01*
X27110010Y-138828324D01*
X27085453Y-138810990D01*
X28963121Y-136933323D01*
X28745772Y-136743430D01*
X28745755Y-136743417D01*
X28396975Y-136490013D01*
X28026859Y-136268879D01*
X28026853Y-136268876D01*
X27638430Y-136081821D01*
X27638416Y-136081815D01*
X27234790Y-135930332D01*
X27234765Y-135930324D01*
X26819183Y-135815630D01*
X26394976Y-135738648D01*
X25965564Y-135700000D01*
X25534435Y-135700000D01*
X25105023Y-135738648D01*
X24680816Y-135815630D01*
X24265234Y-135930324D01*
X24265209Y-135930332D01*
X23861583Y-136081815D01*
X23861569Y-136081821D01*
X23473146Y-136268876D01*
X23473140Y-136268879D01*
X23103024Y-136490013D01*
X22754235Y-136743423D01*
X22536877Y-136933322D01*
X22536877Y-136933323D01*
X24414545Y-138810991D01*
X24389990Y-138828324D01*
X24175031Y-139029082D01*
X24063104Y-139166657D01*
X22182223Y-137285777D01*
X22131624Y-137338699D01*
X22131612Y-137338712D01*
X21862800Y-137675791D01*
X21862799Y-137675792D01*
X21625294Y-138035600D01*
X21420989Y-138415261D01*
X21420985Y-138415269D01*
X21251545Y-138811695D01*
X21251542Y-138811703D01*
X21118313Y-139221741D01*
X21022378Y-139642061D01*
X20997378Y-139826623D01*
X20968872Y-139890413D01*
X20910404Y-139928666D01*
X20840537Y-139929236D01*
X20781453Y-139891943D01*
X20751910Y-139828626D01*
X20750500Y-139809978D01*
X20750500Y-109650474D01*
X27594662Y-109650474D01*
X27598506Y-109680649D01*
X27599500Y-109696317D01*
X27599500Y-125964139D01*
X27599341Y-125970419D01*
X27595631Y-126043575D01*
X27595631Y-126043576D01*
X27598070Y-126059497D01*
X27599500Y-126078273D01*
X27599500Y-131060721D01*
X27599460Y-131063861D01*
X27597243Y-131151362D01*
X27597243Y-131151371D01*
X27607648Y-131209420D01*
X27608956Y-131218748D01*
X27614925Y-131277430D01*
X27614927Y-131277444D01*
X27624033Y-131306468D01*
X27627772Y-131321701D01*
X27633142Y-131351653D01*
X27633142Y-131351655D01*
X27655020Y-131406424D01*
X27658177Y-131415292D01*
X27675841Y-131471588D01*
X27675842Y-131471589D01*
X27675844Y-131471595D01*
X27690603Y-131498185D01*
X27697336Y-131512361D01*
X27708622Y-131540614D01*
X27708627Y-131540624D01*
X27741080Y-131589866D01*
X27745962Y-131597923D01*
X27774588Y-131649498D01*
X27774589Y-131649500D01*
X27774591Y-131649502D01*
X27794410Y-131672588D01*
X27803855Y-131685115D01*
X27820599Y-131710521D01*
X27862299Y-131752220D01*
X27868704Y-131759131D01*
X27906945Y-131803675D01*
X27907134Y-131803895D01*
X27931187Y-131822513D01*
X27942968Y-131832889D01*
X29632449Y-133522370D01*
X29634642Y-133524619D01*
X29694938Y-133588050D01*
X29694941Y-133588053D01*
X29743348Y-133621746D01*
X29750869Y-133627417D01*
X29796587Y-133664694D01*
X29796590Y-133664695D01*
X29796593Y-133664698D01*
X29823565Y-133678786D01*
X29836980Y-133686915D01*
X29861951Y-133704295D01*
X29890105Y-133716377D01*
X29916163Y-133727559D01*
X29924663Y-133731595D01*
X29976951Y-133758909D01*
X30006199Y-133767277D01*
X30020975Y-133772538D01*
X30048942Y-133784540D01*
X30048945Y-133784540D01*
X30048946Y-133784541D01*
X30106713Y-133796412D01*
X30115866Y-133798658D01*
X30172582Y-133814887D01*
X30202914Y-133817196D01*
X30218463Y-133819377D01*
X30248255Y-133825500D01*
X30248259Y-133825500D01*
X30307242Y-133825500D01*
X30316656Y-133825857D01*
X30325010Y-133826494D01*
X30375476Y-133830337D01*
X30375476Y-133830336D01*
X30375477Y-133830337D01*
X30405652Y-133826493D01*
X30421319Y-133825500D01*
X91135721Y-133825500D01*
X91138863Y-133825540D01*
X91226358Y-133827757D01*
X91226358Y-133827756D01*
X91226363Y-133827757D01*
X91284425Y-133817349D01*
X91293754Y-133816041D01*
X91352438Y-133810074D01*
X91381471Y-133800964D01*
X91396700Y-133797226D01*
X91426653Y-133791858D01*
X91426657Y-133791856D01*
X91426659Y-133791856D01*
X91481423Y-133769980D01*
X91490292Y-133766821D01*
X91546588Y-133749159D01*
X91573200Y-133734387D01*
X91587362Y-133727662D01*
X91615617Y-133716377D01*
X91664879Y-133683909D01*
X91672910Y-133679043D01*
X91724502Y-133650409D01*
X91724509Y-133650402D01*
X91724512Y-133650401D01*
X91747583Y-133630594D01*
X91760125Y-133621137D01*
X91785519Y-133604402D01*
X91827242Y-133562676D01*
X91834111Y-133556309D01*
X91878895Y-133517866D01*
X91897524Y-133493798D01*
X91907884Y-133482035D01*
X92797390Y-132592528D01*
X92799559Y-132590413D01*
X92863053Y-132530059D01*
X92896752Y-132481641D01*
X92902428Y-132474113D01*
X92939698Y-132428407D01*
X92953782Y-132401444D01*
X92961919Y-132388013D01*
X92979292Y-132363053D01*
X92979295Y-132363049D01*
X93002563Y-132308825D01*
X93006582Y-132300361D01*
X93033909Y-132248049D01*
X93042278Y-132218797D01*
X93047538Y-132204023D01*
X93059540Y-132176058D01*
X93071415Y-132118268D01*
X93073649Y-132109162D01*
X93089887Y-132052418D01*
X93092197Y-132022077D01*
X93094376Y-132006535D01*
X93100500Y-131976741D01*
X93100500Y-131917758D01*
X93100858Y-131908342D01*
X93105337Y-131849527D01*
X93101493Y-131819339D01*
X93100500Y-131803675D01*
X93100500Y-126736306D01*
X93120185Y-126669267D01*
X93136819Y-126648625D01*
X93165528Y-126619916D01*
X93285242Y-126500202D01*
X93394399Y-126369452D01*
X93506551Y-126171800D01*
X93581609Y-125957298D01*
X93610043Y-125777773D01*
X93617159Y-125732845D01*
X93616153Y-125688013D01*
X93612060Y-125505646D01*
X93566475Y-125283009D01*
X93481870Y-125072092D01*
X93360963Y-124879670D01*
X93360962Y-124879669D01*
X93360961Y-124879667D01*
X93207644Y-124711931D01*
X93207638Y-124711926D01*
X93026832Y-124574260D01*
X93026828Y-124574258D01*
X92824346Y-124471089D01*
X92824342Y-124471087D01*
X92606695Y-124405731D01*
X92380876Y-124380288D01*
X92380865Y-124380287D01*
X92165015Y-124394842D01*
X92154130Y-124395576D01*
X92113829Y-124405731D01*
X91933761Y-124451103D01*
X91726858Y-124545084D01*
X91726852Y-124545087D01*
X91540050Y-124674503D01*
X90729475Y-125485078D01*
X90620316Y-125615831D01*
X90508169Y-125813476D01*
X90508167Y-125813480D01*
X90454349Y-125967284D01*
X90433109Y-126027985D01*
X90397559Y-126252432D01*
X90397559Y-126252444D01*
X90402020Y-126451234D01*
X90402658Y-126479634D01*
X90404877Y-126490472D01*
X90448242Y-126702268D01*
X90448244Y-126702276D01*
X90532848Y-126913189D01*
X90653756Y-127105612D01*
X90804493Y-127270524D01*
X90807076Y-127273350D01*
X90987885Y-127411018D01*
X91031795Y-127433391D01*
X91082590Y-127481363D01*
X91099500Y-127543875D01*
X91099500Y-131409217D01*
X91079815Y-131476256D01*
X91063181Y-131496898D01*
X90771899Y-131788181D01*
X90710576Y-131821666D01*
X90684218Y-131824500D01*
X30815782Y-131824500D01*
X30748743Y-131804815D01*
X30728101Y-131788181D01*
X29636819Y-130696899D01*
X29603334Y-130635576D01*
X29600500Y-130609218D01*
X29600500Y-127117140D01*
X29620185Y-127050101D01*
X29672989Y-127004346D01*
X29724500Y-126993140D01*
X34514553Y-126993140D01*
X34581592Y-127012825D01*
X34619545Y-127051166D01*
X34628049Y-127064699D01*
X34653756Y-127105612D01*
X34804493Y-127270524D01*
X34807076Y-127273350D01*
X34957976Y-127388245D01*
X34987888Y-127411020D01*
X35190367Y-127514187D01*
X35190371Y-127514189D01*
X35408023Y-127579548D01*
X35633848Y-127604992D01*
X35633850Y-127604991D01*
X35633852Y-127604992D01*
X35677389Y-127602056D01*
X35860588Y-127589704D01*
X36080954Y-127534177D01*
X36287863Y-127440194D01*
X36474667Y-127310777D01*
X36720742Y-127064702D01*
X40409043Y-127064702D01*
X40427720Y-127291187D01*
X40719651Y-128380686D01*
X40724413Y-128398457D01*
X40783067Y-128558365D01*
X40898163Y-128754317D01*
X41046393Y-128926563D01*
X41046396Y-128926566D01*
X41046397Y-128926567D01*
X41057478Y-128935540D01*
X41223006Y-129069583D01*
X41422313Y-129178765D01*
X41637907Y-129250603D01*
X41637910Y-129250603D01*
X41637915Y-129250605D01*
X41827807Y-129277775D01*
X41891380Y-129306755D01*
X41897923Y-129312843D01*
X43432432Y-130847352D01*
X43434625Y-130849601D01*
X43494940Y-130913052D01*
X43494948Y-130913058D01*
X43543362Y-130946755D01*
X43550871Y-130952416D01*
X43596593Y-130989698D01*
X43623565Y-131003786D01*
X43636980Y-131011915D01*
X43661951Y-131029295D01*
X43690105Y-131041377D01*
X43716163Y-131052559D01*
X43724663Y-131056595D01*
X43776951Y-131083909D01*
X43806199Y-131092277D01*
X43820975Y-131097538D01*
X43848942Y-131109540D01*
X43848945Y-131109540D01*
X43848946Y-131109541D01*
X43906713Y-131121412D01*
X43915866Y-131123658D01*
X43972582Y-131139887D01*
X44002914Y-131142196D01*
X44018463Y-131144377D01*
X44048255Y-131150500D01*
X44048259Y-131150500D01*
X44107241Y-131150500D01*
X44116655Y-131150857D01*
X44125009Y-131151494D01*
X44175475Y-131155337D01*
X44175475Y-131155336D01*
X44175476Y-131155337D01*
X44205651Y-131151493D01*
X44221318Y-131150500D01*
X59485721Y-131150500D01*
X59488863Y-131150540D01*
X59576358Y-131152757D01*
X59576358Y-131152756D01*
X59576363Y-131152757D01*
X59634425Y-131142349D01*
X59643754Y-131141041D01*
X59702438Y-131135074D01*
X59731471Y-131125964D01*
X59746700Y-131122226D01*
X59776653Y-131116858D01*
X59776657Y-131116856D01*
X59776659Y-131116856D01*
X59831423Y-131094980D01*
X59840292Y-131091821D01*
X59896588Y-131074159D01*
X59923200Y-131059387D01*
X59937362Y-131052662D01*
X59965617Y-131041377D01*
X60014879Y-131008909D01*
X60022910Y-131004043D01*
X60074502Y-130975409D01*
X60074509Y-130975402D01*
X60074512Y-130975401D01*
X60097583Y-130955594D01*
X60110125Y-130946137D01*
X60135519Y-130929402D01*
X60177219Y-130887701D01*
X60184131Y-130881295D01*
X60210793Y-130858405D01*
X60228895Y-130842866D01*
X60247524Y-130818798D01*
X60257884Y-130807035D01*
X60704750Y-130360168D01*
X60706919Y-130358053D01*
X60770412Y-130297700D01*
X60804111Y-130249282D01*
X60809787Y-130241754D01*
X60847057Y-130196048D01*
X60861141Y-130169085D01*
X60869278Y-130155654D01*
X60886651Y-130130694D01*
X60886654Y-130130690D01*
X60909922Y-130076466D01*
X60913941Y-130068002D01*
X60941268Y-130015690D01*
X60949637Y-129986438D01*
X60954897Y-129971664D01*
X60966899Y-129943699D01*
X60978774Y-129885909D01*
X60981008Y-129876803D01*
X60997246Y-129820059D01*
X60999556Y-129789718D01*
X61001735Y-129774176D01*
X61007859Y-129744382D01*
X61007859Y-129685399D01*
X61008217Y-129675983D01*
X61012696Y-129617168D01*
X61008852Y-129586980D01*
X61007859Y-129571316D01*
X61007859Y-127064702D01*
X64409043Y-127064702D01*
X64427720Y-127291187D01*
X64719651Y-128380686D01*
X64724413Y-128398457D01*
X64783067Y-128558365D01*
X64898163Y-128754317D01*
X65046393Y-128926563D01*
X65046396Y-128926566D01*
X65046397Y-128926567D01*
X65057478Y-128935540D01*
X65223006Y-129069583D01*
X65422313Y-129178765D01*
X65637907Y-129250603D01*
X65637911Y-129250603D01*
X65637915Y-129250605D01*
X65862877Y-129282793D01*
X65862879Y-129282792D01*
X65862880Y-129282793D01*
X65931005Y-129280243D01*
X66089973Y-129274296D01*
X66311901Y-129225386D01*
X66521530Y-129137635D01*
X66712121Y-129013863D01*
X66877550Y-128858049D01*
X67012497Y-128675201D01*
X67112627Y-128471195D01*
X67117860Y-128452773D01*
X67174722Y-128252593D01*
X67174724Y-128252580D01*
X67196784Y-128026418D01*
X67196785Y-128026408D01*
X67178108Y-127799923D01*
X66881416Y-126692656D01*
X66822762Y-126532748D01*
X66822760Y-126532744D01*
X66707667Y-126336797D01*
X66707666Y-126336796D01*
X66559433Y-126164545D01*
X66559432Y-126164544D01*
X66382821Y-126021526D01*
X66183514Y-125912344D01*
X65967920Y-125840506D01*
X65967915Y-125840505D01*
X65742947Y-125808316D01*
X65515853Y-125816814D01*
X65293929Y-125865723D01*
X65084303Y-125953472D01*
X65084299Y-125953474D01*
X65084298Y-125953475D01*
X65078410Y-125957299D01*
X64893707Y-126077247D01*
X64728281Y-126233057D01*
X64593330Y-126415911D01*
X64593329Y-126415913D01*
X64493198Y-126619922D01*
X64431106Y-126838517D01*
X64431104Y-126838530D01*
X64409043Y-127064692D01*
X64409043Y-127064699D01*
X64409043Y-127064702D01*
X61007859Y-127064702D01*
X61007859Y-126828947D01*
X61027544Y-126761908D01*
X61044178Y-126741266D01*
X61136819Y-126648625D01*
X61285242Y-126500202D01*
X61394399Y-126369452D01*
X61506551Y-126171800D01*
X61581609Y-125957298D01*
X61610043Y-125777773D01*
X61617159Y-125732845D01*
X61616153Y-125688013D01*
X61612060Y-125505646D01*
X61566475Y-125283009D01*
X61481870Y-125072092D01*
X61360963Y-124879670D01*
X61360962Y-124879669D01*
X61360961Y-124879667D01*
X61207644Y-124711931D01*
X61207638Y-124711926D01*
X61026832Y-124574260D01*
X61026828Y-124574258D01*
X60824346Y-124471089D01*
X60824342Y-124471087D01*
X60606695Y-124405731D01*
X60380876Y-124380288D01*
X60380865Y-124380287D01*
X60165015Y-124394842D01*
X60154130Y-124395576D01*
X60113829Y-124405731D01*
X59933761Y-124451103D01*
X59726858Y-124545084D01*
X59726852Y-124545087D01*
X59540050Y-124674503D01*
X58729475Y-125485078D01*
X58620316Y-125615831D01*
X58508169Y-125813476D01*
X58508167Y-125813480D01*
X58454349Y-125967284D01*
X58433109Y-126027985D01*
X58397559Y-126252432D01*
X58397559Y-126252444D01*
X58402020Y-126451234D01*
X58402658Y-126479634D01*
X58404877Y-126490472D01*
X58448242Y-126702268D01*
X58448244Y-126702276D01*
X58532848Y-126913189D01*
X58653756Y-127105612D01*
X58804493Y-127270524D01*
X58807076Y-127273350D01*
X58957978Y-127388247D01*
X58999390Y-127444518D01*
X59006859Y-127486903D01*
X59006859Y-129025500D01*
X58987174Y-129092539D01*
X58934370Y-129138294D01*
X58882859Y-129149500D01*
X44615782Y-129149500D01*
X44548743Y-129129815D01*
X44528101Y-129113181D01*
X43188156Y-127773236D01*
X43156063Y-127717651D01*
X42881416Y-126692656D01*
X42822762Y-126532748D01*
X42822760Y-126532744D01*
X42707667Y-126336797D01*
X42707666Y-126336796D01*
X42559433Y-126164545D01*
X42559432Y-126164544D01*
X42382821Y-126021526D01*
X42183514Y-125912344D01*
X41967920Y-125840506D01*
X41967915Y-125840505D01*
X41742947Y-125808316D01*
X41515853Y-125816814D01*
X41293929Y-125865723D01*
X41084303Y-125953472D01*
X41084299Y-125953474D01*
X41084298Y-125953475D01*
X41078410Y-125957299D01*
X40893707Y-126077247D01*
X40728281Y-126233057D01*
X40593330Y-126415911D01*
X40593329Y-126415913D01*
X40493198Y-126619922D01*
X40431106Y-126838517D01*
X40431104Y-126838530D01*
X40409043Y-127064692D01*
X40409043Y-127064699D01*
X40409043Y-127064702D01*
X36720742Y-127064702D01*
X37285242Y-126500202D01*
X37394399Y-126369452D01*
X37506551Y-126171800D01*
X37581609Y-125957298D01*
X37610043Y-125777773D01*
X37617159Y-125732845D01*
X37616153Y-125688013D01*
X37612060Y-125505646D01*
X37566475Y-125283009D01*
X37481870Y-125072092D01*
X37360963Y-124879670D01*
X37360962Y-124879669D01*
X37360961Y-124879667D01*
X37207644Y-124711931D01*
X37207638Y-124711926D01*
X37026832Y-124574260D01*
X37026828Y-124574258D01*
X36824346Y-124471089D01*
X36824342Y-124471087D01*
X36606695Y-124405731D01*
X36380876Y-124380288D01*
X36380865Y-124380287D01*
X36165015Y-124394842D01*
X36154130Y-124395576D01*
X36113829Y-124405731D01*
X35933761Y-124451103D01*
X35726858Y-124545084D01*
X35726852Y-124545087D01*
X35540050Y-124674503D01*
X35258733Y-124955821D01*
X35197410Y-124989306D01*
X35171052Y-124992140D01*
X29724500Y-124992140D01*
X29657461Y-124972455D01*
X29611706Y-124919651D01*
X29600500Y-124868140D01*
X29600500Y-123362880D01*
X32717206Y-123362880D01*
X32725704Y-123589974D01*
X32774613Y-123811898D01*
X32862362Y-124021524D01*
X32862365Y-124021530D01*
X32986137Y-124212120D01*
X33141826Y-124377418D01*
X33141951Y-124377550D01*
X33324800Y-124512497D01*
X33528806Y-124612627D01*
X33528810Y-124612628D01*
X33528812Y-124612629D01*
X33747407Y-124674721D01*
X33747410Y-124674721D01*
X33747412Y-124674722D01*
X33747416Y-124674722D01*
X33747420Y-124674723D01*
X33825724Y-124682361D01*
X33973592Y-124696785D01*
X34200077Y-124678108D01*
X35307344Y-124381416D01*
X35467252Y-124322762D01*
X35663205Y-124207666D01*
X35835457Y-124059431D01*
X35978472Y-123882822D01*
X36017324Y-123811901D01*
X36087655Y-123683514D01*
X36159493Y-123467920D01*
X36159494Y-123467915D01*
X36159495Y-123467913D01*
X36191683Y-123242951D01*
X36187428Y-123129216D01*
X44307465Y-123129216D01*
X44319359Y-123356153D01*
X44319360Y-123356158D01*
X44371581Y-123577321D01*
X44462462Y-123785624D01*
X44589066Y-123974335D01*
X44671446Y-124059218D01*
X44747341Y-124137418D01*
X44932188Y-124269615D01*
X44932191Y-124269616D01*
X44932192Y-124269617D01*
X44932193Y-124269618D01*
X45044689Y-124322760D01*
X45137668Y-124366683D01*
X46244935Y-124663375D01*
X46293991Y-124671899D01*
X46412738Y-124692533D01*
X46412740Y-124692532D01*
X46412746Y-124692534D01*
X46639994Y-124690834D01*
X46863287Y-124648585D01*
X47075446Y-124567145D01*
X47269655Y-124449131D01*
X47439671Y-124298335D01*
X47580028Y-124119606D01*
X47686217Y-123918686D01*
X47754825Y-123702036D01*
X47783644Y-123476617D01*
X47771750Y-123249674D01*
X47719527Y-123028502D01*
X47719526Y-123028500D01*
X47719525Y-123028495D01*
X47628651Y-122820213D01*
X47628648Y-122820207D01*
X47502043Y-122631494D01*
X47343770Y-122468413D01*
X47245541Y-122398162D01*
X47158923Y-122336215D01*
X47158920Y-122336213D01*
X47158918Y-122336212D01*
X47158913Y-122336209D01*
X46953454Y-122239152D01*
X46953446Y-122239149D01*
X46953442Y-122239147D01*
X45846176Y-121942455D01*
X45780854Y-121931105D01*
X45678365Y-121913297D01*
X45678364Y-121913297D01*
X45621552Y-121913721D01*
X45451113Y-121914996D01*
X45451107Y-121914997D01*
X45227826Y-121957244D01*
X45015660Y-122038686D01*
X45015660Y-122038687D01*
X44821458Y-122156697D01*
X44821451Y-122156703D01*
X44651442Y-122307491D01*
X44511082Y-122486222D01*
X44511079Y-122486227D01*
X44404897Y-122687135D01*
X44404889Y-122687153D01*
X44336285Y-122903795D01*
X44336285Y-122903797D01*
X44307465Y-123129216D01*
X36187428Y-123129216D01*
X36183186Y-123015855D01*
X36158489Y-122903795D01*
X36134277Y-122793932D01*
X36134276Y-122793927D01*
X36046525Y-122584298D01*
X36021912Y-122546397D01*
X35922756Y-122393711D01*
X35922753Y-122393707D01*
X35766942Y-122228280D01*
X35584091Y-122093331D01*
X35584088Y-122093329D01*
X35472360Y-122038491D01*
X35380085Y-121993201D01*
X35380082Y-121993200D01*
X35380078Y-121993198D01*
X35161483Y-121931105D01*
X35161470Y-121931103D01*
X34935304Y-121909043D01*
X34935300Y-121909043D01*
X34935298Y-121909043D01*
X34708813Y-121927720D01*
X34090746Y-122093331D01*
X33601542Y-122224413D01*
X33441634Y-122283067D01*
X33245687Y-122398160D01*
X33245686Y-122398161D01*
X33073435Y-122546394D01*
X33073434Y-122546395D01*
X32930416Y-122723006D01*
X32821234Y-122922313D01*
X32749396Y-123137907D01*
X32749395Y-123137912D01*
X32717206Y-123362880D01*
X29600500Y-123362880D01*
X29600500Y-120023386D01*
X32716355Y-120023386D01*
X32728249Y-120250323D01*
X32728250Y-120250328D01*
X32780471Y-120471491D01*
X32871352Y-120679794D01*
X32997956Y-120868505D01*
X33043532Y-120915466D01*
X33156231Y-121031588D01*
X33341078Y-121163785D01*
X33341081Y-121163786D01*
X33341082Y-121163787D01*
X33341083Y-121163788D01*
X33452622Y-121216478D01*
X33546558Y-121260853D01*
X34653825Y-121557545D01*
X34713690Y-121567947D01*
X34821628Y-121586703D01*
X34821630Y-121586702D01*
X34821636Y-121586704D01*
X35048884Y-121585004D01*
X35272177Y-121542755D01*
X35484336Y-121461315D01*
X35678545Y-121343301D01*
X35848561Y-121192505D01*
X35988918Y-121013776D01*
X36095107Y-120812856D01*
X36163715Y-120596206D01*
X36192534Y-120370787D01*
X36186575Y-120257079D01*
X44308817Y-120257079D01*
X44314246Y-120402167D01*
X44314247Y-120402167D01*
X45562432Y-120067717D01*
X45545555Y-120125197D01*
X45545555Y-120268975D01*
X45586062Y-120406930D01*
X45663794Y-120527884D01*
X45690514Y-120551037D01*
X44441467Y-120885718D01*
X44453920Y-120915466D01*
X44453924Y-120915474D01*
X44577642Y-121105982D01*
X44733390Y-121271343D01*
X44916168Y-121406239D01*
X45120101Y-121506333D01*
X45120100Y-121506333D01*
X45338609Y-121568401D01*
X45338621Y-121568403D01*
X45564698Y-121590454D01*
X45791101Y-121571784D01*
X46130701Y-121480787D01*
X45917139Y-120683764D01*
X46009792Y-120697086D01*
X46081318Y-120697086D01*
X46187870Y-120681766D01*
X46318655Y-120622038D01*
X46399474Y-120552008D01*
X46613665Y-121351378D01*
X46898286Y-121275115D01*
X46898298Y-121275111D01*
X47058151Y-121216478D01*
X47254024Y-121101428D01*
X47426202Y-120953256D01*
X47426204Y-120953254D01*
X47569167Y-120776711D01*
X47678304Y-120577483D01*
X47678306Y-120577478D01*
X47750115Y-120361969D01*
X47782292Y-120137093D01*
X47776862Y-119992003D01*
X46528678Y-120326451D01*
X46545555Y-120268975D01*
X46545555Y-120125197D01*
X46505048Y-119987242D01*
X46427316Y-119866288D01*
X46400593Y-119843132D01*
X47649643Y-119508452D01*
X47637191Y-119478705D01*
X47637189Y-119478701D01*
X47513472Y-119288193D01*
X47513469Y-119288189D01*
X47357719Y-119122828D01*
X47174941Y-118987932D01*
X46971008Y-118887838D01*
X46971009Y-118887838D01*
X46752500Y-118825770D01*
X46752488Y-118825768D01*
X46526410Y-118803717D01*
X46300010Y-118822386D01*
X45960407Y-118913382D01*
X46173968Y-119710407D01*
X46081318Y-119697086D01*
X46009792Y-119697086D01*
X45903240Y-119712406D01*
X45772455Y-119772134D01*
X45691633Y-119842164D01*
X45477443Y-119042792D01*
X45192804Y-119119062D01*
X45032958Y-119177693D01*
X44837085Y-119292743D01*
X44664907Y-119440915D01*
X44664905Y-119440917D01*
X44521943Y-119617459D01*
X44412805Y-119816685D01*
X44340995Y-120032197D01*
X44308817Y-120257079D01*
X36186575Y-120257079D01*
X36180640Y-120143844D01*
X36128417Y-119922672D01*
X36128416Y-119922670D01*
X36128415Y-119922665D01*
X36037541Y-119714383D01*
X36037538Y-119714377D01*
X35910933Y-119525664D01*
X35752660Y-119362583D01*
X35752659Y-119362582D01*
X35567813Y-119230385D01*
X35567810Y-119230383D01*
X35567808Y-119230382D01*
X35567803Y-119230379D01*
X35362344Y-119133322D01*
X35362336Y-119133319D01*
X35362332Y-119133317D01*
X34255066Y-118836625D01*
X34192581Y-118825768D01*
X34087255Y-118807467D01*
X34087254Y-118807467D01*
X34030442Y-118807891D01*
X33860003Y-118809166D01*
X33859997Y-118809167D01*
X33636716Y-118851414D01*
X33424550Y-118932856D01*
X33424550Y-118932857D01*
X33230348Y-119050867D01*
X33230341Y-119050873D01*
X33060332Y-119201661D01*
X32919972Y-119380392D01*
X32919969Y-119380397D01*
X32813787Y-119581305D01*
X32813779Y-119581323D01*
X32745175Y-119797965D01*
X32745175Y-119797967D01*
X32716355Y-120023386D01*
X29600500Y-120023386D01*
X29600500Y-117133852D01*
X34395007Y-117133852D01*
X34408112Y-117328196D01*
X34410296Y-117360588D01*
X34422981Y-117410930D01*
X34465823Y-117580956D01*
X34559804Y-117787859D01*
X34559807Y-117787865D01*
X34626528Y-117884172D01*
X34689223Y-117974667D01*
X35499798Y-118785242D01*
X35630548Y-118894399D01*
X35630549Y-118894400D01*
X35630551Y-118894401D01*
X35685782Y-118925740D01*
X35828200Y-119006551D01*
X36042702Y-119081609D01*
X36267158Y-119117159D01*
X36494354Y-119112060D01*
X36716991Y-119066475D01*
X36927908Y-118981870D01*
X37120330Y-118860963D01*
X37288070Y-118707642D01*
X37425739Y-118526833D01*
X37528910Y-118324347D01*
X37561149Y-118216988D01*
X37594268Y-118106696D01*
X37594268Y-118106693D01*
X37604608Y-118014921D01*
X37619712Y-117880870D01*
X37612045Y-117767164D01*
X42882841Y-117767164D01*
X42887940Y-117994353D01*
X42933524Y-118216988D01*
X42933526Y-118216996D01*
X43018130Y-118427909D01*
X43139038Y-118620332D01*
X43218845Y-118707644D01*
X43292358Y-118788070D01*
X43432010Y-118894401D01*
X43473170Y-118925740D01*
X43675649Y-119028907D01*
X43675653Y-119028909D01*
X43893305Y-119094268D01*
X44119130Y-119119712D01*
X44119132Y-119119711D01*
X44119134Y-119119712D01*
X44162671Y-119116776D01*
X44345870Y-119104424D01*
X44566236Y-119048897D01*
X44773145Y-118954914D01*
X44959949Y-118825497D01*
X45770524Y-118014922D01*
X45879681Y-117884172D01*
X45991833Y-117686520D01*
X46066891Y-117472018D01*
X46099372Y-117266939D01*
X46102441Y-117247565D01*
X46100892Y-117178541D01*
X46097342Y-117020366D01*
X46051757Y-116797729D01*
X45967152Y-116586812D01*
X45846245Y-116394390D01*
X45846244Y-116394389D01*
X45846243Y-116394387D01*
X45692926Y-116226651D01*
X45692920Y-116226646D01*
X45512114Y-116088980D01*
X45512110Y-116088978D01*
X45309628Y-115985809D01*
X45309624Y-115985807D01*
X45091977Y-115920451D01*
X44866158Y-115895008D01*
X44866147Y-115895007D01*
X44650297Y-115909562D01*
X44639412Y-115910296D01*
X44599111Y-115920451D01*
X44419043Y-115965823D01*
X44212140Y-116059804D01*
X44212134Y-116059807D01*
X44025332Y-116189223D01*
X43214757Y-116999798D01*
X43105598Y-117130551D01*
X43028208Y-117266942D01*
X42993449Y-117328200D01*
X42964501Y-117410930D01*
X42918391Y-117542705D01*
X42882841Y-117767152D01*
X42882841Y-117767164D01*
X37612045Y-117767164D01*
X37604424Y-117654130D01*
X37548897Y-117433764D01*
X37538525Y-117410930D01*
X37473121Y-117266939D01*
X37454914Y-117226855D01*
X37325497Y-117040051D01*
X36514922Y-116229476D01*
X36384172Y-116120319D01*
X36384170Y-116120318D01*
X36384168Y-116120316D01*
X36230017Y-116032848D01*
X36186520Y-116008167D01*
X35972018Y-115933110D01*
X35972015Y-115933109D01*
X35972014Y-115933109D01*
X35747567Y-115897559D01*
X35747555Y-115897559D01*
X35520366Y-115902658D01*
X35297731Y-115948242D01*
X35297723Y-115948244D01*
X35086810Y-116032848D01*
X34894387Y-116153756D01*
X34726652Y-116307073D01*
X34588979Y-116487888D01*
X34485812Y-116690366D01*
X34485812Y-116690367D01*
X34420451Y-116908024D01*
X34395008Y-117133841D01*
X34395007Y-117133852D01*
X29600500Y-117133852D01*
X29600500Y-115473592D01*
X37303215Y-115473592D01*
X37321892Y-115700077D01*
X37579501Y-116661483D01*
X37618585Y-116807347D01*
X37677239Y-116967255D01*
X37792335Y-117163207D01*
X37940565Y-117335453D01*
X37940568Y-117335456D01*
X38117178Y-117478473D01*
X38316485Y-117587655D01*
X38532079Y-117659493D01*
X38532083Y-117659493D01*
X38532087Y-117659495D01*
X38757049Y-117691683D01*
X38757051Y-117691682D01*
X38757052Y-117691683D01*
X38825177Y-117689133D01*
X38984145Y-117683186D01*
X39206073Y-117634276D01*
X39415702Y-117546525D01*
X39606293Y-117422753D01*
X39771722Y-117266939D01*
X39906669Y-117084091D01*
X40006799Y-116880085D01*
X40068895Y-116661479D01*
X40079878Y-116548886D01*
X40090956Y-116435308D01*
X40090957Y-116435298D01*
X40081584Y-116321634D01*
X40413297Y-116321634D01*
X40414996Y-116548886D01*
X40414997Y-116548892D01*
X40457244Y-116772173D01*
X40538686Y-116984339D01*
X40656697Y-117178541D01*
X40656703Y-117178548D01*
X40795871Y-117335456D01*
X40807495Y-117348561D01*
X40886915Y-117410930D01*
X40986222Y-117488917D01*
X40986227Y-117488920D01*
X41087994Y-117542705D01*
X41187144Y-117595107D01*
X41403794Y-117663714D01*
X41629213Y-117692534D01*
X41856156Y-117680640D01*
X41989569Y-117649137D01*
X42077321Y-117628418D01*
X42077322Y-117628417D01*
X42077328Y-117628416D01*
X42285620Y-117537539D01*
X42285621Y-117537538D01*
X42285624Y-117537537D01*
X42474335Y-117410933D01*
X42474336Y-117410931D01*
X42474339Y-117410930D01*
X42637418Y-117252659D01*
X42769615Y-117067812D01*
X42866683Y-116862332D01*
X43163375Y-115755065D01*
X43192534Y-115587254D01*
X43190834Y-115360006D01*
X43148585Y-115136713D01*
X43067145Y-114924554D01*
X43016424Y-114841086D01*
X42949133Y-114730348D01*
X42949132Y-114730347D01*
X42949131Y-114730345D01*
X42862961Y-114633193D01*
X42798338Y-114560332D01*
X42798336Y-114560331D01*
X42798335Y-114560329D01*
X42703860Y-114486137D01*
X42619607Y-114419972D01*
X42619602Y-114419969D01*
X42418694Y-114313787D01*
X42418691Y-114313785D01*
X42418686Y-114313783D01*
X42418682Y-114313781D01*
X42418676Y-114313779D01*
X42202033Y-114245174D01*
X41976612Y-114216355D01*
X41749679Y-114228249D01*
X41749674Y-114228249D01*
X41749674Y-114228250D01*
X41701750Y-114239565D01*
X41528495Y-114280474D01*
X41320213Y-114371348D01*
X41320207Y-114371351D01*
X41131494Y-114497956D01*
X40968413Y-114656229D01*
X40836212Y-114841081D01*
X40836209Y-114841086D01*
X40739152Y-115046545D01*
X40739147Y-115046558D01*
X40442455Y-116153823D01*
X40413297Y-116321634D01*
X40081584Y-116321634D01*
X40072280Y-116208813D01*
X39775588Y-115101546D01*
X39716934Y-114941638D01*
X39716932Y-114941634D01*
X39601839Y-114745687D01*
X39601838Y-114745686D01*
X39453605Y-114573435D01*
X39453604Y-114573434D01*
X39276993Y-114430416D01*
X39077686Y-114321234D01*
X38862092Y-114249396D01*
X38862087Y-114249395D01*
X38637119Y-114217206D01*
X38410025Y-114225704D01*
X38188101Y-114274613D01*
X37978475Y-114362362D01*
X37787879Y-114486137D01*
X37622453Y-114641947D01*
X37622450Y-114641950D01*
X37622450Y-114641951D01*
X37611911Y-114656231D01*
X37487502Y-114824801D01*
X37487501Y-114824803D01*
X37387370Y-115028812D01*
X37325278Y-115247407D01*
X37325276Y-115247420D01*
X37303215Y-115473582D01*
X37303215Y-115473589D01*
X37303215Y-115473592D01*
X29600500Y-115473592D01*
X29600500Y-110090782D01*
X29620185Y-110023743D01*
X29636819Y-110003101D01*
X32003101Y-107636819D01*
X32064424Y-107603334D01*
X32090782Y-107600500D01*
X59165721Y-107600500D01*
X59168863Y-107600540D01*
X59256358Y-107602757D01*
X59256358Y-107602756D01*
X59256363Y-107602757D01*
X59314425Y-107592349D01*
X59323754Y-107591041D01*
X59382438Y-107585074D01*
X59411471Y-107575964D01*
X59426700Y-107572226D01*
X59456653Y-107566858D01*
X59456657Y-107566856D01*
X59456659Y-107566856D01*
X59511423Y-107544980D01*
X59520292Y-107541821D01*
X59576588Y-107524159D01*
X59603200Y-107509387D01*
X59617362Y-107502662D01*
X59645617Y-107491377D01*
X59694879Y-107458909D01*
X59702910Y-107454043D01*
X59754502Y-107425409D01*
X59754509Y-107425402D01*
X59754512Y-107425401D01*
X59777583Y-107405594D01*
X59790125Y-107396137D01*
X59815519Y-107379402D01*
X59857237Y-107337682D01*
X59864122Y-107331301D01*
X59908895Y-107292866D01*
X59927520Y-107268802D01*
X59937880Y-107257039D01*
X60298031Y-106896888D01*
X60359352Y-106863405D01*
X60374896Y-106861044D01*
X60500408Y-106850063D01*
X60728663Y-106788903D01*
X60942830Y-106689035D01*
X61136401Y-106553495D01*
X61303495Y-106386401D01*
X61439035Y-106192830D01*
X61538903Y-105978663D01*
X61600063Y-105750408D01*
X61620659Y-105515000D01*
X61600063Y-105279592D01*
X61538903Y-105051337D01*
X61439035Y-104837171D01*
X61433425Y-104829158D01*
X61303494Y-104643597D01*
X61301819Y-104641922D01*
X61301315Y-104641000D01*
X61300014Y-104639449D01*
X61300325Y-104639187D01*
X61268334Y-104580599D01*
X61265500Y-104554241D01*
X61265500Y-104389141D01*
X61285185Y-104322102D01*
X61337989Y-104276347D01*
X61346149Y-104272966D01*
X61357331Y-104268796D01*
X61359063Y-104267500D01*
X61419174Y-104222500D01*
X61472546Y-104182546D01*
X61558796Y-104067331D01*
X61609091Y-103932483D01*
X61615500Y-103872873D01*
X61615499Y-102077128D01*
X61609091Y-102017517D01*
X61605746Y-102008549D01*
X61558797Y-101882671D01*
X61558793Y-101882664D01*
X61472547Y-101767455D01*
X61472544Y-101767452D01*
X61357335Y-101681206D01*
X61357328Y-101681202D01*
X61222482Y-101630908D01*
X61222483Y-101630908D01*
X61162883Y-101624501D01*
X61162881Y-101624500D01*
X61162873Y-101624500D01*
X61162864Y-101624500D01*
X59367129Y-101624500D01*
X59367123Y-101624501D01*
X59307516Y-101630908D01*
X59172671Y-101681202D01*
X59172664Y-101681206D01*
X59057455Y-101767452D01*
X59057452Y-101767455D01*
X58971206Y-101882664D01*
X58971202Y-101882671D01*
X58920908Y-102017517D01*
X58914501Y-102077116D01*
X58914501Y-102077123D01*
X58914500Y-102077135D01*
X58914500Y-103872870D01*
X58914501Y-103872876D01*
X58920908Y-103932483D01*
X58971202Y-104067328D01*
X58971206Y-104067335D01*
X59057452Y-104182544D01*
X59057455Y-104182547D01*
X59172665Y-104268794D01*
X59172667Y-104268794D01*
X59172669Y-104268796D01*
X59183830Y-104272958D01*
X59239764Y-104314826D01*
X59264184Y-104380289D01*
X59264500Y-104389141D01*
X59264500Y-104554241D01*
X59244815Y-104621280D01*
X59228181Y-104641922D01*
X59226505Y-104643597D01*
X59090965Y-104837169D01*
X59090964Y-104837171D01*
X58991098Y-105051335D01*
X58991094Y-105051344D01*
X58929938Y-105279586D01*
X58929936Y-105279596D01*
X58918955Y-105405097D01*
X58893501Y-105470166D01*
X58883109Y-105481968D01*
X58801899Y-105563180D01*
X58740577Y-105596666D01*
X58714217Y-105599500D01*
X31639262Y-105599500D01*
X31636121Y-105599460D01*
X31634900Y-105599429D01*
X31548639Y-105597242D01*
X31548635Y-105597242D01*
X31490578Y-105607648D01*
X31481252Y-105608956D01*
X31422564Y-105614925D01*
X31422562Y-105614926D01*
X31393526Y-105624035D01*
X31378290Y-105627774D01*
X31348350Y-105633141D01*
X31348349Y-105633141D01*
X31293567Y-105655022D01*
X31284698Y-105658179D01*
X31228414Y-105675840D01*
X31228410Y-105675842D01*
X31201811Y-105690605D01*
X31187638Y-105697336D01*
X31159382Y-105708623D01*
X31159378Y-105708625D01*
X31110122Y-105741086D01*
X31102069Y-105745965D01*
X31050501Y-105774588D01*
X31027413Y-105794408D01*
X31014887Y-105803852D01*
X30989485Y-105820594D01*
X30989478Y-105820600D01*
X30947774Y-105862303D01*
X30940869Y-105868703D01*
X30896102Y-105907136D01*
X30877480Y-105931193D01*
X30867108Y-105942969D01*
X27902646Y-108907432D01*
X27900398Y-108909624D01*
X27836947Y-108969941D01*
X27836946Y-108969941D01*
X27803245Y-109018361D01*
X27797574Y-109025882D01*
X27760302Y-109071592D01*
X27760298Y-109071598D01*
X27746209Y-109098568D01*
X27738082Y-109111983D01*
X27720702Y-109136955D01*
X27697438Y-109191165D01*
X27693398Y-109199672D01*
X27666090Y-109251951D01*
X27666090Y-109251952D01*
X27657720Y-109281201D01*
X27652459Y-109295979D01*
X27640459Y-109323943D01*
X27628588Y-109381711D01*
X27626342Y-109390860D01*
X27610113Y-109447577D01*
X27607802Y-109477926D01*
X27605622Y-109493466D01*
X27599500Y-109523258D01*
X27599500Y-109582240D01*
X27599142Y-109591656D01*
X27594662Y-109650474D01*
X20750500Y-109650474D01*
X20750500Y-103690021D01*
X20770185Y-103622982D01*
X20822989Y-103577227D01*
X20892147Y-103567283D01*
X20955703Y-103596308D01*
X20993477Y-103655086D01*
X20997378Y-103673376D01*
X21022378Y-103857938D01*
X21118313Y-104278258D01*
X21251542Y-104688296D01*
X21251545Y-104688304D01*
X21420985Y-105084730D01*
X21420989Y-105084738D01*
X21625294Y-105464399D01*
X21862799Y-105824207D01*
X21862800Y-105824208D01*
X22131608Y-106161282D01*
X22182223Y-106214221D01*
X24063103Y-104333341D01*
X24175031Y-104470918D01*
X24389990Y-104671676D01*
X24414544Y-104689008D01*
X22536877Y-106566675D01*
X22754227Y-106756569D01*
X22754244Y-106756582D01*
X23103024Y-107009986D01*
X23473140Y-107231120D01*
X23473146Y-107231123D01*
X23861569Y-107418178D01*
X23861583Y-107418184D01*
X24265209Y-107569667D01*
X24265234Y-107569675D01*
X24680816Y-107684369D01*
X25105023Y-107761351D01*
X25534435Y-107799999D01*
X25534438Y-107800000D01*
X25965562Y-107800000D01*
X25965564Y-107799999D01*
X26394976Y-107761351D01*
X26819183Y-107684369D01*
X27234765Y-107569675D01*
X27234790Y-107569667D01*
X27638416Y-107418184D01*
X27638430Y-107418178D01*
X28026853Y-107231123D01*
X28026859Y-107231120D01*
X28396975Y-107009986D01*
X28745755Y-106756582D01*
X28745772Y-106756569D01*
X28963121Y-106566675D01*
X27085455Y-104689008D01*
X27110010Y-104671676D01*
X27324969Y-104470918D01*
X27436895Y-104333342D01*
X29317775Y-106214222D01*
X29317776Y-106214222D01*
X29368386Y-106161289D01*
X29368386Y-106161288D01*
X29637199Y-105824208D01*
X29637200Y-105824207D01*
X29874705Y-105464399D01*
X30079010Y-105084738D01*
X30079014Y-105084730D01*
X30248454Y-104688304D01*
X30248457Y-104688296D01*
X30381686Y-104278258D01*
X30477621Y-103857938D01*
X30535494Y-103430701D01*
X30535495Y-103430692D01*
X30554838Y-103000003D01*
X30554838Y-102999996D01*
X30535495Y-102569307D01*
X30535494Y-102569298D01*
X30477621Y-102142061D01*
X30381686Y-101721741D01*
X30248457Y-101311703D01*
X30248454Y-101311695D01*
X30079014Y-100915269D01*
X30079010Y-100915261D01*
X29874705Y-100535600D01*
X29637200Y-100175792D01*
X29637199Y-100175791D01*
X29368391Y-99838717D01*
X29317774Y-99785776D01*
X27436894Y-101666656D01*
X27324969Y-101529082D01*
X27110010Y-101328324D01*
X27085453Y-101310990D01*
X28963121Y-99433323D01*
X28745772Y-99243430D01*
X28745755Y-99243417D01*
X28396975Y-98990013D01*
X28026859Y-98768879D01*
X28026853Y-98768876D01*
X27638430Y-98581821D01*
X27638416Y-98581815D01*
X27234790Y-98430332D01*
X27234765Y-98430324D01*
X26819183Y-98315630D01*
X26438282Y-98246507D01*
X26375835Y-98215169D01*
X26340244Y-98155043D01*
X26342809Y-98085221D01*
X26382715Y-98027869D01*
X26447294Y-98001197D01*
X26460423Y-98000500D01*
X99647947Y-98000500D01*
X99714986Y-98020185D01*
G37*
%TD.AperFunction*%
%TA.AperFunction,Conductor*%
G36*
X139718547Y-141108056D02*
G01*
X139748090Y-141171373D01*
X139749500Y-141190021D01*
X139749500Y-145375500D01*
X139729815Y-145442539D01*
X139677011Y-145488294D01*
X139625500Y-145499500D01*
X135460423Y-145499500D01*
X135393384Y-145479815D01*
X135347629Y-145427011D01*
X135337685Y-145357853D01*
X135366710Y-145294297D01*
X135425488Y-145256523D01*
X135438282Y-145253493D01*
X135819183Y-145184369D01*
X136234765Y-145069675D01*
X136234790Y-145069667D01*
X136638416Y-144918184D01*
X136638430Y-144918178D01*
X137026853Y-144731123D01*
X137026859Y-144731120D01*
X137396975Y-144509986D01*
X137745755Y-144256582D01*
X137745772Y-144256569D01*
X137963121Y-144066675D01*
X136085455Y-142189008D01*
X136110010Y-142171676D01*
X136324969Y-141970918D01*
X136436895Y-141833342D01*
X138317775Y-143714222D01*
X138317776Y-143714222D01*
X138368386Y-143661289D01*
X138368386Y-143661288D01*
X138637199Y-143324208D01*
X138637200Y-143324207D01*
X138874705Y-142964399D01*
X139079010Y-142584738D01*
X139079014Y-142584730D01*
X139248454Y-142188304D01*
X139248457Y-142188296D01*
X139381686Y-141778258D01*
X139477621Y-141357938D01*
X139502622Y-141173376D01*
X139531128Y-141109586D01*
X139589595Y-141071333D01*
X139659463Y-141070763D01*
X139718547Y-141108056D01*
G37*
%TD.AperFunction*%
%TA.AperFunction,Conductor*%
G36*
X114566942Y-100645185D02*
G01*
X114587584Y-100661819D01*
X116113181Y-102187416D01*
X116146666Y-102248739D01*
X116149500Y-102275097D01*
X116149500Y-107557413D01*
X116148439Y-107573598D01*
X116144318Y-107604899D01*
X116144318Y-107604901D01*
X116149500Y-107644261D01*
X116149500Y-107644262D01*
X116164955Y-107761661D01*
X116164956Y-107761663D01*
X116206637Y-107862291D01*
X116225464Y-107907742D01*
X116321718Y-108033183D01*
X116346778Y-108052412D01*
X116358965Y-108063101D01*
X116756927Y-108461063D01*
X116958684Y-108662819D01*
X116992169Y-108724142D01*
X116987185Y-108793833D01*
X116945314Y-108849767D01*
X116879849Y-108874184D01*
X116871003Y-108874500D01*
X109649500Y-108874500D01*
X109582461Y-108854815D01*
X109536706Y-108802011D01*
X109525500Y-108750500D01*
X109525500Y-106475758D01*
X109545185Y-106408719D01*
X109561819Y-106388077D01*
X109563495Y-106386401D01*
X109699035Y-106192830D01*
X109798903Y-105978663D01*
X109860063Y-105750408D01*
X109880659Y-105515000D01*
X109860063Y-105279592D01*
X109798903Y-105051337D01*
X109699035Y-104837171D01*
X109693425Y-104829158D01*
X109563494Y-104643597D01*
X109561819Y-104641922D01*
X109561315Y-104641000D01*
X109560014Y-104639449D01*
X109560325Y-104639187D01*
X109528334Y-104580599D01*
X109525500Y-104554241D01*
X109525500Y-103935758D01*
X109545185Y-103868719D01*
X109561819Y-103848077D01*
X109563495Y-103846401D01*
X109699035Y-103652830D01*
X109798903Y-103438663D01*
X109860063Y-103210408D01*
X109880659Y-102975000D01*
X109860063Y-102739592D01*
X109798903Y-102511337D01*
X109699035Y-102297171D01*
X109693425Y-102289158D01*
X109563494Y-102103597D01*
X109396402Y-101936506D01*
X109396395Y-101936501D01*
X109202834Y-101800967D01*
X109202830Y-101800965D01*
X109140594Y-101771944D01*
X108988663Y-101701097D01*
X108988659Y-101701096D01*
X108988655Y-101701094D01*
X108760413Y-101639938D01*
X108760403Y-101639936D01*
X108525001Y-101619341D01*
X108524999Y-101619341D01*
X108289596Y-101639936D01*
X108289586Y-101639938D01*
X108061344Y-101701094D01*
X108061337Y-101701096D01*
X108061337Y-101701097D01*
X108051903Y-101705496D01*
X107847171Y-101800964D01*
X107847169Y-101800965D01*
X107653597Y-101936505D01*
X107486505Y-102103597D01*
X107350965Y-102297169D01*
X107350964Y-102297171D01*
X107251098Y-102511335D01*
X107251094Y-102511344D01*
X107189938Y-102739586D01*
X107189936Y-102739596D01*
X107169341Y-102974999D01*
X107169341Y-102975000D01*
X107189936Y-103210403D01*
X107189938Y-103210413D01*
X107251094Y-103438655D01*
X107251096Y-103438659D01*
X107251097Y-103438663D01*
X107330800Y-103609586D01*
X107350965Y-103652830D01*
X107350967Y-103652834D01*
X107365351Y-103673376D01*
X107486501Y-103846396D01*
X107486506Y-103846402D01*
X107488181Y-103848077D01*
X107488682Y-103848995D01*
X107489982Y-103850544D01*
X107489670Y-103850805D01*
X107521666Y-103909400D01*
X107524500Y-103935758D01*
X107524500Y-104554241D01*
X107504815Y-104621280D01*
X107488181Y-104641922D01*
X107486505Y-104643597D01*
X107350965Y-104837169D01*
X107350964Y-104837171D01*
X107251098Y-105051335D01*
X107251094Y-105051344D01*
X107189938Y-105279586D01*
X107189936Y-105279596D01*
X107169341Y-105514999D01*
X107169341Y-105515000D01*
X107189936Y-105750403D01*
X107189938Y-105750413D01*
X107251094Y-105978655D01*
X107251096Y-105978659D01*
X107251097Y-105978663D01*
X107255000Y-105987032D01*
X107350965Y-106192830D01*
X107350967Y-106192834D01*
X107436250Y-106314630D01*
X107486501Y-106386396D01*
X107486506Y-106386402D01*
X107488181Y-106388077D01*
X107488682Y-106388995D01*
X107489982Y-106390544D01*
X107489670Y-106390805D01*
X107521666Y-106449400D01*
X107524500Y-106475758D01*
X107524500Y-109435721D01*
X107524460Y-109438861D01*
X107522243Y-109526362D01*
X107522243Y-109526371D01*
X107532648Y-109584420D01*
X107533956Y-109593748D01*
X107539925Y-109652430D01*
X107539927Y-109652444D01*
X107549033Y-109681468D01*
X107552772Y-109696701D01*
X107558142Y-109726653D01*
X107558142Y-109726655D01*
X107580020Y-109781424D01*
X107583177Y-109790292D01*
X107600841Y-109846588D01*
X107600842Y-109846589D01*
X107600844Y-109846595D01*
X107615603Y-109873185D01*
X107622336Y-109887361D01*
X107633622Y-109915614D01*
X107633627Y-109915624D01*
X107666080Y-109964866D01*
X107670962Y-109972923D01*
X107699588Y-110024498D01*
X107699589Y-110024500D01*
X107700019Y-110025001D01*
X107719410Y-110047588D01*
X107728855Y-110060115D01*
X107745599Y-110085521D01*
X107787299Y-110127220D01*
X107793704Y-110134131D01*
X107831666Y-110178350D01*
X107832134Y-110178895D01*
X107833324Y-110179816D01*
X107856187Y-110197513D01*
X107867968Y-110207889D01*
X108232449Y-110572370D01*
X108234642Y-110574619D01*
X108294938Y-110638050D01*
X108294941Y-110638053D01*
X108343348Y-110671746D01*
X108350869Y-110677417D01*
X108396587Y-110714694D01*
X108396590Y-110714695D01*
X108396593Y-110714698D01*
X108423565Y-110728786D01*
X108436978Y-110736913D01*
X108445742Y-110743013D01*
X108453950Y-110748726D01*
X108497727Y-110803181D01*
X108505115Y-110872659D01*
X108473767Y-110935101D01*
X108413637Y-110970684D01*
X108383111Y-110974500D01*
X104388988Y-110974500D01*
X104321949Y-110954815D01*
X104276194Y-110902011D01*
X104266250Y-110832853D01*
X104282718Y-110789470D01*
X104281786Y-110788983D01*
X104298782Y-110756444D01*
X104306919Y-110743013D01*
X104324292Y-110718053D01*
X104324295Y-110718049D01*
X104347563Y-110663825D01*
X104351582Y-110655361D01*
X104378909Y-110603049D01*
X104387278Y-110573797D01*
X104392538Y-110559023D01*
X104404540Y-110531058D01*
X104416415Y-110473268D01*
X104418649Y-110464162D01*
X104434887Y-110407418D01*
X104437197Y-110377077D01*
X104439376Y-110361535D01*
X104445500Y-110331741D01*
X104445500Y-110272758D01*
X104445858Y-110263342D01*
X104450337Y-110204527D01*
X104446493Y-110174339D01*
X104445500Y-110158675D01*
X104445500Y-106475758D01*
X104465185Y-106408719D01*
X104481819Y-106388077D01*
X104483495Y-106386401D01*
X104619035Y-106192830D01*
X104718903Y-105978663D01*
X104780063Y-105750408D01*
X104800659Y-105515000D01*
X104780063Y-105279592D01*
X104718903Y-105051337D01*
X104619035Y-104837171D01*
X104613425Y-104829158D01*
X104483494Y-104643597D01*
X104481819Y-104641922D01*
X104481315Y-104641000D01*
X104480014Y-104639449D01*
X104480325Y-104639187D01*
X104448334Y-104580599D01*
X104445500Y-104554241D01*
X104445500Y-103935758D01*
X104465185Y-103868719D01*
X104481819Y-103848077D01*
X104483495Y-103846401D01*
X104619035Y-103652830D01*
X104718903Y-103438663D01*
X104780063Y-103210408D01*
X104800659Y-102975000D01*
X104780063Y-102739592D01*
X104718903Y-102511337D01*
X104619035Y-102297171D01*
X104613425Y-102289158D01*
X104483494Y-102103597D01*
X104316402Y-101936506D01*
X104316395Y-101936501D01*
X104122834Y-101800967D01*
X104122830Y-101800965D01*
X104060594Y-101771944D01*
X103908663Y-101701097D01*
X103908659Y-101701096D01*
X103908655Y-101701094D01*
X103680413Y-101639938D01*
X103680403Y-101639936D01*
X103445001Y-101619341D01*
X103444999Y-101619341D01*
X103209596Y-101639936D01*
X103209586Y-101639938D01*
X102981344Y-101701094D01*
X102981330Y-101701099D01*
X102851904Y-101761452D01*
X102782827Y-101771944D01*
X102719043Y-101743424D01*
X102680804Y-101684947D01*
X102675500Y-101649070D01*
X102675500Y-100749500D01*
X102695185Y-100682461D01*
X102747989Y-100636706D01*
X102799500Y-100625500D01*
X114499903Y-100625500D01*
X114566942Y-100645185D01*
G37*
%TD.AperFunction*%
%TA.AperFunction,Conductor*%
G36*
X83764217Y-108461063D02*
G01*
X83796971Y-108522780D01*
X83799500Y-108547696D01*
X83799500Y-109977512D01*
X83798439Y-109993697D01*
X83794318Y-110024998D01*
X83794318Y-110025001D01*
X83805418Y-110109315D01*
X83794652Y-110178350D01*
X83748272Y-110230606D01*
X83682479Y-110249500D01*
X80678500Y-110249500D01*
X80672221Y-110249341D01*
X80599064Y-110245631D01*
X80599060Y-110245631D01*
X80583143Y-110248070D01*
X80564367Y-110249500D01*
X73498902Y-110249500D01*
X73431863Y-110229815D01*
X73386108Y-110177011D01*
X73376164Y-110107853D01*
X73405189Y-110044297D01*
X73432930Y-110020506D01*
X73475596Y-109993697D01*
X73577262Y-109929816D01*
X73704816Y-109802262D01*
X73800789Y-109649522D01*
X73860368Y-109479255D01*
X73870161Y-109392329D01*
X73897226Y-109327918D01*
X73905680Y-109318553D01*
X74112417Y-109111816D01*
X74173739Y-109078334D01*
X74200097Y-109075500D01*
X82677513Y-109075500D01*
X82693697Y-109076560D01*
X82725000Y-109080682D01*
X82725001Y-109080682D01*
X82794038Y-109071593D01*
X82881762Y-109060044D01*
X83027841Y-108999536D01*
X83066410Y-108969941D01*
X83153282Y-108903282D01*
X83172509Y-108878223D01*
X83183190Y-108866043D01*
X83516043Y-108533190D01*
X83528223Y-108522509D01*
X83553282Y-108503282D01*
X83577124Y-108472210D01*
X83633550Y-108431007D01*
X83703296Y-108426852D01*
X83764217Y-108461063D01*
G37*
%TD.AperFunction*%
%TA.AperFunction,Conductor*%
G36*
X139692539Y-98020185D02*
G01*
X139738294Y-98072989D01*
X139749500Y-98124500D01*
X139749500Y-102309978D01*
X139729815Y-102377017D01*
X139677011Y-102422772D01*
X139607853Y-102432716D01*
X139544297Y-102403691D01*
X139506523Y-102344913D01*
X139502622Y-102326623D01*
X139477621Y-102142061D01*
X139381686Y-101721741D01*
X139248457Y-101311703D01*
X139248454Y-101311695D01*
X139079014Y-100915269D01*
X139079010Y-100915261D01*
X138874705Y-100535600D01*
X138637200Y-100175792D01*
X138637199Y-100175791D01*
X138368391Y-99838717D01*
X138317774Y-99785776D01*
X136436894Y-101666656D01*
X136324969Y-101529082D01*
X136110010Y-101328324D01*
X136085453Y-101310990D01*
X137963121Y-99433323D01*
X137745772Y-99243430D01*
X137745755Y-99243417D01*
X137396975Y-98990013D01*
X137026859Y-98768879D01*
X137026853Y-98768876D01*
X136638430Y-98581821D01*
X136638416Y-98581815D01*
X136234790Y-98430332D01*
X136234765Y-98430324D01*
X135819183Y-98315630D01*
X135438282Y-98246507D01*
X135375835Y-98215169D01*
X135340244Y-98155043D01*
X135342809Y-98085221D01*
X135382715Y-98027869D01*
X135447294Y-98001197D01*
X135460423Y-98000500D01*
X139625500Y-98000500D01*
X139692539Y-98020185D01*
G37*
%TD.AperFunction*%
%TA.AperFunction,Conductor*%
G36*
X25106616Y-98020185D02*
G01*
X25152371Y-98072989D01*
X25162315Y-98142147D01*
X25133290Y-98205703D01*
X25074512Y-98243477D01*
X25061718Y-98246507D01*
X24680816Y-98315630D01*
X24265234Y-98430324D01*
X24265209Y-98430332D01*
X23861583Y-98581815D01*
X23861569Y-98581821D01*
X23473146Y-98768876D01*
X23473140Y-98768879D01*
X23103024Y-98990013D01*
X22754235Y-99243423D01*
X22536877Y-99433322D01*
X22536877Y-99433323D01*
X24414545Y-101310991D01*
X24389990Y-101328324D01*
X24175031Y-101529082D01*
X24063104Y-101666657D01*
X22182223Y-99785777D01*
X22131624Y-99838699D01*
X22131612Y-99838712D01*
X21862800Y-100175791D01*
X21862799Y-100175792D01*
X21625294Y-100535600D01*
X21420989Y-100915261D01*
X21420985Y-100915269D01*
X21251545Y-101311695D01*
X21251542Y-101311703D01*
X21118313Y-101721741D01*
X21022378Y-102142061D01*
X20997378Y-102326623D01*
X20968872Y-102390413D01*
X20910404Y-102428666D01*
X20840537Y-102429236D01*
X20781453Y-102391943D01*
X20751910Y-102328626D01*
X20750500Y-102309978D01*
X20750500Y-98124500D01*
X20770185Y-98057461D01*
X20822989Y-98011706D01*
X20874500Y-98000500D01*
X25039577Y-98000500D01*
X25106616Y-98020185D01*
G37*
%TD.AperFunction*%
%TD*%
M02*
