%TF.GenerationSoftware,KiCad,Pcbnew,7.0.11*%
%TF.CreationDate,2026-01-24T09:13:29-05:00*%
%TF.ProjectId,clock_iv11_tubes,636c6f63-6b5f-4697-9631-315f74756265,rev?*%
%TF.SameCoordinates,Original*%
%TF.FileFunction,Legend,Top*%
%TF.FilePolarity,Positive*%
%FSLAX46Y46*%
G04 Gerber Fmt 4.6, Leading zero omitted, Abs format (unit mm)*
G04 Created by KiCad (PCBNEW 7.0.11) date 2026-01-24 09:13:29*
%MOMM*%
%LPD*%
G01*
G04 APERTURE LIST*
%ADD10C,0.150000*%
G04 APERTURE END LIST*
D10*
X39440476Y-122474819D02*
X39773809Y-123474819D01*
X39773809Y-123474819D02*
X40107142Y-122474819D01*
X40964285Y-123474819D02*
X40392857Y-123474819D01*
X40678571Y-123474819D02*
X40678571Y-122474819D01*
X40678571Y-122474819D02*
X40583333Y-122617676D01*
X40583333Y-122617676D02*
X40488095Y-122712914D01*
X40488095Y-122712914D02*
X40392857Y-122760533D01*
X63440476Y-122474819D02*
X63773809Y-123474819D01*
X63773809Y-123474819D02*
X64107142Y-122474819D01*
X64392857Y-122570057D02*
X64440476Y-122522438D01*
X64440476Y-122522438D02*
X64535714Y-122474819D01*
X64535714Y-122474819D02*
X64773809Y-122474819D01*
X64773809Y-122474819D02*
X64869047Y-122522438D01*
X64869047Y-122522438D02*
X64916666Y-122570057D01*
X64916666Y-122570057D02*
X64964285Y-122665295D01*
X64964285Y-122665295D02*
X64964285Y-122760533D01*
X64964285Y-122760533D02*
X64916666Y-122903390D01*
X64916666Y-122903390D02*
X64345238Y-123474819D01*
X64345238Y-123474819D02*
X64964285Y-123474819D01*
X119440476Y-122474819D02*
X119773809Y-123474819D01*
X119773809Y-123474819D02*
X120107142Y-122474819D01*
X120869047Y-122808152D02*
X120869047Y-123474819D01*
X120630952Y-122427200D02*
X120392857Y-123141485D01*
X120392857Y-123141485D02*
X121011904Y-123141485D01*
X95440476Y-122474819D02*
X95773809Y-123474819D01*
X95773809Y-123474819D02*
X96107142Y-122474819D01*
X96345238Y-122474819D02*
X96964285Y-122474819D01*
X96964285Y-122474819D02*
X96630952Y-122855771D01*
X96630952Y-122855771D02*
X96773809Y-122855771D01*
X96773809Y-122855771D02*
X96869047Y-122903390D01*
X96869047Y-122903390D02*
X96916666Y-122951009D01*
X96916666Y-122951009D02*
X96964285Y-123046247D01*
X96964285Y-123046247D02*
X96964285Y-123284342D01*
X96964285Y-123284342D02*
X96916666Y-123379580D01*
X96916666Y-123379580D02*
X96869047Y-123427200D01*
X96869047Y-123427200D02*
X96773809Y-123474819D01*
X96773809Y-123474819D02*
X96488095Y-123474819D01*
X96488095Y-123474819D02*
X96392857Y-123427200D01*
X96392857Y-123427200D02*
X96345238Y-123379580D01*
%TO.C,V1*%
X51250000Y-121750000D02*
G75*
G03*
X29250000Y-121750000I-11000000J0D01*
G01*
X29250000Y-121750000D02*
G75*
G03*
X51250000Y-121750000I11000000J0D01*
G01*
%TO.C,V2*%
X75250000Y-121750000D02*
G75*
G03*
X53250000Y-121750000I-11000000J0D01*
G01*
X53250000Y-121750000D02*
G75*
G03*
X75250000Y-121750000I11000000J0D01*
G01*
%TO.C,V4*%
X131250000Y-121750000D02*
G75*
G03*
X109250000Y-121750000I-11000000J0D01*
G01*
X109250000Y-121750000D02*
G75*
G03*
X131250000Y-121750000I11000000J0D01*
G01*
%TO.C,V3*%
X107250000Y-121750000D02*
G75*
G03*
X85250000Y-121750000I-11000000J0D01*
G01*
X85250000Y-121750000D02*
G75*
G03*
X107250000Y-121750000I11000000J0D01*
G01*
%TD*%
M02*
