%TF.GenerationSoftware,KiCad,Pcbnew,7.0.11*%
%TF.CreationDate,2026-01-05T11:39:19-05:00*%
%TF.ProjectId,clock_iv22_board,636c6f63-6b5f-4697-9632-325f626f6172,rev?*%
%TF.SameCoordinates,Original*%
%TF.FileFunction,Drillmap*%
%TF.FilePolarity,Positive*%
%FSLAX45Y45*%
G04 Gerber Fmt 4.5, Leading zero omitted, Abs format (unit mm)*
G04 Created by KiCad (PCBNEW 7.0.11) date 2026-01-05 11:39:19*
%MOMM*%
%LPD*%
G01*
G04 APERTURE LIST*
%ADD10C,0.050000*%
%ADD11C,0.200000*%
%ADD12C,0.100000*%
%ADD13C,0.110000*%
%ADD14C,0.430000*%
G04 APERTURE END LIST*
D10*
X2025000Y-9750000D02*
X14025000Y-9750000D01*
X14025000Y-15600000D01*
X2025000Y-15600000D01*
X2025000Y-9750000D01*
D11*
D12*
X5476000Y-10120000D02*
X5576000Y-10220000D01*
X5576000Y-10120000D02*
X5476000Y-10220000D01*
X5476000Y-10374000D02*
X5576000Y-10474000D01*
X5576000Y-10374000D02*
X5476000Y-10474000D01*
X5730000Y-10120000D02*
X5830000Y-10220000D01*
X5830000Y-10120000D02*
X5730000Y-10220000D01*
X5730000Y-10374000D02*
X5830000Y-10474000D01*
X5830000Y-10374000D02*
X5730000Y-10474000D01*
X5984000Y-10120000D02*
X6084000Y-10220000D01*
X6084000Y-10120000D02*
X5984000Y-10220000D01*
X5984000Y-10374000D02*
X6084000Y-10474000D01*
X6084000Y-10374000D02*
X5984000Y-10474000D01*
X6238000Y-10120000D02*
X6338000Y-10220000D01*
X6338000Y-10120000D02*
X6238000Y-10220000D01*
X6238000Y-10374000D02*
X6338000Y-10474000D01*
X6338000Y-10374000D02*
X6238000Y-10474000D01*
X6492000Y-10120000D02*
X6592000Y-10220000D01*
X6592000Y-10120000D02*
X6492000Y-10220000D01*
X6492000Y-10374000D02*
X6592000Y-10474000D01*
X6592000Y-10374000D02*
X6492000Y-10474000D01*
X6746000Y-10120000D02*
X6846000Y-10220000D01*
X6846000Y-10120000D02*
X6746000Y-10220000D01*
X6746000Y-10374000D02*
X6846000Y-10474000D01*
X6846000Y-10374000D02*
X6746000Y-10474000D01*
X7000000Y-10120000D02*
X7100000Y-10220000D01*
X7100000Y-10120000D02*
X7000000Y-10220000D01*
X7000000Y-10374000D02*
X7100000Y-10474000D01*
X7100000Y-10374000D02*
X7000000Y-10474000D01*
X7254000Y-10120000D02*
X7354000Y-10220000D01*
X7354000Y-10120000D02*
X7254000Y-10220000D01*
X7254000Y-10374000D02*
X7354000Y-10474000D01*
X7354000Y-10374000D02*
X7254000Y-10474000D01*
X7508000Y-10120000D02*
X7608000Y-10220000D01*
X7608000Y-10120000D02*
X7508000Y-10220000D01*
X7508000Y-10374000D02*
X7608000Y-10474000D01*
X7608000Y-10374000D02*
X7508000Y-10474000D01*
X7762000Y-10120000D02*
X7862000Y-10220000D01*
X7862000Y-10120000D02*
X7762000Y-10220000D01*
X7762000Y-10374000D02*
X7862000Y-10474000D01*
X7862000Y-10374000D02*
X7762000Y-10474000D01*
X8016000Y-10120000D02*
X8116000Y-10220000D01*
X8116000Y-10120000D02*
X8016000Y-10220000D01*
X8016000Y-10374000D02*
X8116000Y-10474000D01*
X8116000Y-10374000D02*
X8016000Y-10474000D01*
X8270000Y-10120000D02*
X8370000Y-10220000D01*
X8370000Y-10120000D02*
X8270000Y-10220000D01*
X8270000Y-10374000D02*
X8370000Y-10474000D01*
X8370000Y-10374000D02*
X8270000Y-10474000D01*
X8524000Y-10120000D02*
X8624000Y-10220000D01*
X8624000Y-10120000D02*
X8524000Y-10220000D01*
X8524000Y-10374000D02*
X8624000Y-10474000D01*
X8624000Y-10374000D02*
X8524000Y-10474000D01*
X8778000Y-10120000D02*
X8878000Y-10220000D01*
X8878000Y-10120000D02*
X8778000Y-10220000D01*
X8778000Y-10374000D02*
X8878000Y-10474000D01*
X8878000Y-10374000D02*
X8778000Y-10474000D01*
X9032000Y-10120000D02*
X9132000Y-10220000D01*
X9132000Y-10120000D02*
X9032000Y-10220000D01*
X9032000Y-10374000D02*
X9132000Y-10474000D01*
X9132000Y-10374000D02*
X9032000Y-10474000D01*
X9286000Y-10120000D02*
X9386000Y-10220000D01*
X9386000Y-10120000D02*
X9286000Y-10220000D01*
X9286000Y-10374000D02*
X9386000Y-10474000D01*
X9386000Y-10374000D02*
X9286000Y-10474000D01*
X9540000Y-10120000D02*
X9640000Y-10220000D01*
X9640000Y-10120000D02*
X9540000Y-10220000D01*
X9540000Y-10374000D02*
X9640000Y-10474000D01*
X9640000Y-10374000D02*
X9540000Y-10474000D01*
X9794000Y-10120000D02*
X9894000Y-10220000D01*
X9894000Y-10120000D02*
X9794000Y-10220000D01*
X9794000Y-10374000D02*
X9894000Y-10474000D01*
X9894000Y-10374000D02*
X9794000Y-10474000D01*
X10048000Y-10120000D02*
X10148000Y-10220000D01*
X10148000Y-10120000D02*
X10048000Y-10220000D01*
X10048000Y-10374000D02*
X10148000Y-10474000D01*
X10148000Y-10374000D02*
X10048000Y-10474000D01*
X10302000Y-10120000D02*
X10402000Y-10220000D01*
X10402000Y-10120000D02*
X10302000Y-10220000D01*
X10302000Y-10374000D02*
X10402000Y-10474000D01*
X10402000Y-10374000D02*
X10302000Y-10474000D01*
D13*
X3242300Y-12222460D02*
G75*
G03*
X3132300Y-12222460I-55000J0D01*
G01*
X3132300Y-12222460D02*
G75*
G03*
X3242300Y-12222460I55000J0D01*
G01*
X3242300Y-12672460D02*
G75*
G03*
X3132300Y-12672460I-55000J0D01*
G01*
X3132300Y-12672460D02*
G75*
G03*
X3242300Y-12672460I55000J0D01*
G01*
X3242300Y-13122460D02*
G75*
G03*
X3132300Y-13122460I-55000J0D01*
G01*
X3132300Y-13122460D02*
G75*
G03*
X3242300Y-13122460I55000J0D01*
G01*
X3417300Y-11872460D02*
G75*
G03*
X3307300Y-11872460I-55000J0D01*
G01*
X3307300Y-11872460D02*
G75*
G03*
X3417300Y-11872460I55000J0D01*
G01*
X3417300Y-13472460D02*
G75*
G03*
X3307300Y-13472460I-55000J0D01*
G01*
X3307300Y-13472460D02*
G75*
G03*
X3417300Y-13472460I55000J0D01*
G01*
X3817300Y-13572460D02*
G75*
G03*
X3707300Y-13572460I-55000J0D01*
G01*
X3707300Y-13572460D02*
G75*
G03*
X3817300Y-13572460I55000J0D01*
G01*
X3826190Y-11752460D02*
G75*
G03*
X3716190Y-11752460I-55000J0D01*
G01*
X3716190Y-11752460D02*
G75*
G03*
X3826190Y-11752460I55000J0D01*
G01*
X4217300Y-11872460D02*
G75*
G03*
X4107300Y-11872460I-55000J0D01*
G01*
X4107300Y-11872460D02*
G75*
G03*
X4217300Y-11872460I55000J0D01*
G01*
X4217300Y-13472460D02*
G75*
G03*
X4107300Y-13472460I-55000J0D01*
G01*
X4107300Y-13472460D02*
G75*
G03*
X4217300Y-13472460I55000J0D01*
G01*
X4392300Y-12222460D02*
G75*
G03*
X4282300Y-12222460I-55000J0D01*
G01*
X4282300Y-12222460D02*
G75*
G03*
X4392300Y-12222460I55000J0D01*
G01*
X4392300Y-12672460D02*
G75*
G03*
X4282300Y-12672460I-55000J0D01*
G01*
X4282300Y-12672460D02*
G75*
G03*
X4392300Y-12672460I55000J0D01*
G01*
X4392300Y-13122460D02*
G75*
G03*
X4282300Y-13122460I-55000J0D01*
G01*
X4282300Y-13122460D02*
G75*
G03*
X4392300Y-13122460I55000J0D01*
G01*
X5592300Y-12222460D02*
G75*
G03*
X5482300Y-12222460I-55000J0D01*
G01*
X5482300Y-12222460D02*
G75*
G03*
X5592300Y-12222460I55000J0D01*
G01*
X5592300Y-12672460D02*
G75*
G03*
X5482300Y-12672460I-55000J0D01*
G01*
X5482300Y-12672460D02*
G75*
G03*
X5592300Y-12672460I55000J0D01*
G01*
X5592300Y-13122460D02*
G75*
G03*
X5482300Y-13122460I-55000J0D01*
G01*
X5482300Y-13122460D02*
G75*
G03*
X5592300Y-13122460I55000J0D01*
G01*
X5767300Y-11872460D02*
G75*
G03*
X5657300Y-11872460I-55000J0D01*
G01*
X5657300Y-11872460D02*
G75*
G03*
X5767300Y-11872460I55000J0D01*
G01*
X5767300Y-13472460D02*
G75*
G03*
X5657300Y-13472460I-55000J0D01*
G01*
X5657300Y-13472460D02*
G75*
G03*
X5767300Y-13472460I55000J0D01*
G01*
X6167300Y-13572460D02*
G75*
G03*
X6057300Y-13572460I-55000J0D01*
G01*
X6057300Y-13572460D02*
G75*
G03*
X6167300Y-13572460I55000J0D01*
G01*
X6176190Y-11752460D02*
G75*
G03*
X6066190Y-11752460I-55000J0D01*
G01*
X6066190Y-11752460D02*
G75*
G03*
X6176190Y-11752460I55000J0D01*
G01*
X6567300Y-11872460D02*
G75*
G03*
X6457300Y-11872460I-55000J0D01*
G01*
X6457300Y-11872460D02*
G75*
G03*
X6567300Y-11872460I55000J0D01*
G01*
X6567300Y-13472460D02*
G75*
G03*
X6457300Y-13472460I-55000J0D01*
G01*
X6457300Y-13472460D02*
G75*
G03*
X6567300Y-13472460I55000J0D01*
G01*
X6742300Y-12222460D02*
G75*
G03*
X6632300Y-12222460I-55000J0D01*
G01*
X6632300Y-12222460D02*
G75*
G03*
X6742300Y-12222460I55000J0D01*
G01*
X6742300Y-12672460D02*
G75*
G03*
X6632300Y-12672460I-55000J0D01*
G01*
X6632300Y-12672460D02*
G75*
G03*
X6742300Y-12672460I55000J0D01*
G01*
X6742300Y-13122460D02*
G75*
G03*
X6632300Y-13122460I-55000J0D01*
G01*
X6632300Y-13122460D02*
G75*
G03*
X6742300Y-13122460I55000J0D01*
G01*
X9392300Y-12222460D02*
G75*
G03*
X9282300Y-12222460I-55000J0D01*
G01*
X9282300Y-12222460D02*
G75*
G03*
X9392300Y-12222460I55000J0D01*
G01*
X9392300Y-12672460D02*
G75*
G03*
X9282300Y-12672460I-55000J0D01*
G01*
X9282300Y-12672460D02*
G75*
G03*
X9392300Y-12672460I55000J0D01*
G01*
X9392300Y-13122460D02*
G75*
G03*
X9282300Y-13122460I-55000J0D01*
G01*
X9282300Y-13122460D02*
G75*
G03*
X9392300Y-13122460I55000J0D01*
G01*
X9567300Y-11872460D02*
G75*
G03*
X9457300Y-11872460I-55000J0D01*
G01*
X9457300Y-11872460D02*
G75*
G03*
X9567300Y-11872460I55000J0D01*
G01*
X9567300Y-13472460D02*
G75*
G03*
X9457300Y-13472460I-55000J0D01*
G01*
X9457300Y-13472460D02*
G75*
G03*
X9567300Y-13472460I55000J0D01*
G01*
X9967300Y-13572460D02*
G75*
G03*
X9857300Y-13572460I-55000J0D01*
G01*
X9857300Y-13572460D02*
G75*
G03*
X9967300Y-13572460I55000J0D01*
G01*
X9976190Y-11752460D02*
G75*
G03*
X9866190Y-11752460I-55000J0D01*
G01*
X9866190Y-11752460D02*
G75*
G03*
X9976190Y-11752460I55000J0D01*
G01*
X10367300Y-11872460D02*
G75*
G03*
X10257300Y-11872460I-55000J0D01*
G01*
X10257300Y-11872460D02*
G75*
G03*
X10367300Y-11872460I55000J0D01*
G01*
X10367300Y-13472460D02*
G75*
G03*
X10257300Y-13472460I-55000J0D01*
G01*
X10257300Y-13472460D02*
G75*
G03*
X10367300Y-13472460I55000J0D01*
G01*
X10542300Y-12222460D02*
G75*
G03*
X10432300Y-12222460I-55000J0D01*
G01*
X10432300Y-12222460D02*
G75*
G03*
X10542300Y-12222460I55000J0D01*
G01*
X10542300Y-12672460D02*
G75*
G03*
X10432300Y-12672460I-55000J0D01*
G01*
X10432300Y-12672460D02*
G75*
G03*
X10542300Y-12672460I55000J0D01*
G01*
X10542300Y-13122460D02*
G75*
G03*
X10432300Y-13122460I-55000J0D01*
G01*
X10432300Y-13122460D02*
G75*
G03*
X10542300Y-13122460I55000J0D01*
G01*
X11742300Y-12222460D02*
G75*
G03*
X11632300Y-12222460I-55000J0D01*
G01*
X11632300Y-12222460D02*
G75*
G03*
X11742300Y-12222460I55000J0D01*
G01*
X11742300Y-12672460D02*
G75*
G03*
X11632300Y-12672460I-55000J0D01*
G01*
X11632300Y-12672460D02*
G75*
G03*
X11742300Y-12672460I55000J0D01*
G01*
X11742300Y-13122460D02*
G75*
G03*
X11632300Y-13122460I-55000J0D01*
G01*
X11632300Y-13122460D02*
G75*
G03*
X11742300Y-13122460I55000J0D01*
G01*
X11917300Y-11872460D02*
G75*
G03*
X11807300Y-11872460I-55000J0D01*
G01*
X11807300Y-11872460D02*
G75*
G03*
X11917300Y-11872460I55000J0D01*
G01*
X11917300Y-13472460D02*
G75*
G03*
X11807300Y-13472460I-55000J0D01*
G01*
X11807300Y-13472460D02*
G75*
G03*
X11917300Y-13472460I55000J0D01*
G01*
X12317300Y-13572460D02*
G75*
G03*
X12207300Y-13572460I-55000J0D01*
G01*
X12207300Y-13572460D02*
G75*
G03*
X12317300Y-13572460I55000J0D01*
G01*
X12326190Y-11752460D02*
G75*
G03*
X12216190Y-11752460I-55000J0D01*
G01*
X12216190Y-11752460D02*
G75*
G03*
X12326190Y-11752460I55000J0D01*
G01*
X12717300Y-11872460D02*
G75*
G03*
X12607300Y-11872460I-55000J0D01*
G01*
X12607300Y-11872460D02*
G75*
G03*
X12717300Y-11872460I55000J0D01*
G01*
X12717300Y-13472460D02*
G75*
G03*
X12607300Y-13472460I-55000J0D01*
G01*
X12607300Y-13472460D02*
G75*
G03*
X12717300Y-13472460I55000J0D01*
G01*
X12892300Y-12222460D02*
G75*
G03*
X12782300Y-12222460I-55000J0D01*
G01*
X12782300Y-12222460D02*
G75*
G03*
X12892300Y-12222460I55000J0D01*
G01*
X12892300Y-12672460D02*
G75*
G03*
X12782300Y-12672460I-55000J0D01*
G01*
X12782300Y-12672460D02*
G75*
G03*
X12892300Y-12672460I55000J0D01*
G01*
X12892300Y-13122460D02*
G75*
G03*
X12782300Y-13122460I-55000J0D01*
G01*
X12782300Y-13122460D02*
G75*
G03*
X12892300Y-13122460I55000J0D01*
G01*
D14*
X2575000Y-10085000D02*
X2575000Y-10515000D01*
X2360000Y-10300000D02*
X2790000Y-10300000D01*
X2575000Y-14835000D02*
X2575000Y-15265000D01*
X2360000Y-15050000D02*
X2790000Y-15050000D01*
X13475000Y-10085000D02*
X13475000Y-10515000D01*
X13260000Y-10300000D02*
X13690000Y-10300000D01*
X13475000Y-14835000D02*
X13475000Y-15265000D01*
X13260000Y-15050000D02*
X13690000Y-15050000D01*
D11*
X2283277Y-15913984D02*
X2283277Y-15713984D01*
X2283277Y-15713984D02*
X2330896Y-15713984D01*
X2330896Y-15713984D02*
X2359467Y-15723508D01*
X2359467Y-15723508D02*
X2378515Y-15742555D01*
X2378515Y-15742555D02*
X2388039Y-15761603D01*
X2388039Y-15761603D02*
X2397563Y-15799698D01*
X2397563Y-15799698D02*
X2397563Y-15828269D01*
X2397563Y-15828269D02*
X2388039Y-15866365D01*
X2388039Y-15866365D02*
X2378515Y-15885412D01*
X2378515Y-15885412D02*
X2359467Y-15904460D01*
X2359467Y-15904460D02*
X2330896Y-15913984D01*
X2330896Y-15913984D02*
X2283277Y-15913984D01*
X2483277Y-15913984D02*
X2483277Y-15780650D01*
X2483277Y-15818746D02*
X2492801Y-15799698D01*
X2492801Y-15799698D02*
X2502324Y-15790174D01*
X2502324Y-15790174D02*
X2521372Y-15780650D01*
X2521372Y-15780650D02*
X2540420Y-15780650D01*
X2607086Y-15913984D02*
X2607086Y-15780650D01*
X2607086Y-15713984D02*
X2597563Y-15723508D01*
X2597563Y-15723508D02*
X2607086Y-15733031D01*
X2607086Y-15733031D02*
X2616610Y-15723508D01*
X2616610Y-15723508D02*
X2607086Y-15713984D01*
X2607086Y-15713984D02*
X2607086Y-15733031D01*
X2730896Y-15913984D02*
X2711848Y-15904460D01*
X2711848Y-15904460D02*
X2702324Y-15885412D01*
X2702324Y-15885412D02*
X2702324Y-15713984D01*
X2835658Y-15913984D02*
X2816610Y-15904460D01*
X2816610Y-15904460D02*
X2807086Y-15885412D01*
X2807086Y-15885412D02*
X2807086Y-15713984D01*
X3064229Y-15913984D02*
X3064229Y-15713984D01*
X3064229Y-15713984D02*
X3130896Y-15856841D01*
X3130896Y-15856841D02*
X3197562Y-15713984D01*
X3197562Y-15713984D02*
X3197562Y-15913984D01*
X3378515Y-15913984D02*
X3378515Y-15809222D01*
X3378515Y-15809222D02*
X3368991Y-15790174D01*
X3368991Y-15790174D02*
X3349943Y-15780650D01*
X3349943Y-15780650D02*
X3311848Y-15780650D01*
X3311848Y-15780650D02*
X3292801Y-15790174D01*
X3378515Y-15904460D02*
X3359467Y-15913984D01*
X3359467Y-15913984D02*
X3311848Y-15913984D01*
X3311848Y-15913984D02*
X3292801Y-15904460D01*
X3292801Y-15904460D02*
X3283277Y-15885412D01*
X3283277Y-15885412D02*
X3283277Y-15866365D01*
X3283277Y-15866365D02*
X3292801Y-15847317D01*
X3292801Y-15847317D02*
X3311848Y-15837793D01*
X3311848Y-15837793D02*
X3359467Y-15837793D01*
X3359467Y-15837793D02*
X3378515Y-15828269D01*
X3473753Y-15780650D02*
X3473753Y-15980650D01*
X3473753Y-15790174D02*
X3492801Y-15780650D01*
X3492801Y-15780650D02*
X3530896Y-15780650D01*
X3530896Y-15780650D02*
X3549943Y-15790174D01*
X3549943Y-15790174D02*
X3559467Y-15799698D01*
X3559467Y-15799698D02*
X3568991Y-15818746D01*
X3568991Y-15818746D02*
X3568991Y-15875888D01*
X3568991Y-15875888D02*
X3559467Y-15894936D01*
X3559467Y-15894936D02*
X3549943Y-15904460D01*
X3549943Y-15904460D02*
X3530896Y-15913984D01*
X3530896Y-15913984D02*
X3492801Y-15913984D01*
X3492801Y-15913984D02*
X3473753Y-15904460D01*
X3654705Y-15894936D02*
X3664229Y-15904460D01*
X3664229Y-15904460D02*
X3654705Y-15913984D01*
X3654705Y-15913984D02*
X3645182Y-15904460D01*
X3645182Y-15904460D02*
X3654705Y-15894936D01*
X3654705Y-15894936D02*
X3654705Y-15913984D01*
X3654705Y-15790174D02*
X3664229Y-15799698D01*
X3664229Y-15799698D02*
X3654705Y-15809222D01*
X3654705Y-15809222D02*
X3645182Y-15799698D01*
X3645182Y-15799698D02*
X3654705Y-15790174D01*
X3654705Y-15790174D02*
X3654705Y-15809222D01*
D12*
X1922500Y-16192500D02*
X2022500Y-16292500D01*
X2022500Y-16192500D02*
X1922500Y-16292500D01*
D11*
X2388039Y-16333984D02*
X2273753Y-16333984D01*
X2330896Y-16333984D02*
X2330896Y-16133984D01*
X2330896Y-16133984D02*
X2311848Y-16162555D01*
X2311848Y-16162555D02*
X2292801Y-16181603D01*
X2292801Y-16181603D02*
X2273753Y-16191127D01*
X2473753Y-16314936D02*
X2483277Y-16324460D01*
X2483277Y-16324460D02*
X2473753Y-16333984D01*
X2473753Y-16333984D02*
X2464229Y-16324460D01*
X2464229Y-16324460D02*
X2473753Y-16314936D01*
X2473753Y-16314936D02*
X2473753Y-16333984D01*
X2607086Y-16133984D02*
X2626134Y-16133984D01*
X2626134Y-16133984D02*
X2645182Y-16143508D01*
X2645182Y-16143508D02*
X2654705Y-16153031D01*
X2654705Y-16153031D02*
X2664229Y-16172079D01*
X2664229Y-16172079D02*
X2673753Y-16210174D01*
X2673753Y-16210174D02*
X2673753Y-16257793D01*
X2673753Y-16257793D02*
X2664229Y-16295888D01*
X2664229Y-16295888D02*
X2654705Y-16314936D01*
X2654705Y-16314936D02*
X2645182Y-16324460D01*
X2645182Y-16324460D02*
X2626134Y-16333984D01*
X2626134Y-16333984D02*
X2607086Y-16333984D01*
X2607086Y-16333984D02*
X2588039Y-16324460D01*
X2588039Y-16324460D02*
X2578515Y-16314936D01*
X2578515Y-16314936D02*
X2568991Y-16295888D01*
X2568991Y-16295888D02*
X2559467Y-16257793D01*
X2559467Y-16257793D02*
X2559467Y-16210174D01*
X2559467Y-16210174D02*
X2568991Y-16172079D01*
X2568991Y-16172079D02*
X2578515Y-16153031D01*
X2578515Y-16153031D02*
X2588039Y-16143508D01*
X2588039Y-16143508D02*
X2607086Y-16133984D01*
X2797562Y-16133984D02*
X2816610Y-16133984D01*
X2816610Y-16133984D02*
X2835658Y-16143508D01*
X2835658Y-16143508D02*
X2845182Y-16153031D01*
X2845182Y-16153031D02*
X2854705Y-16172079D01*
X2854705Y-16172079D02*
X2864229Y-16210174D01*
X2864229Y-16210174D02*
X2864229Y-16257793D01*
X2864229Y-16257793D02*
X2854705Y-16295888D01*
X2854705Y-16295888D02*
X2845182Y-16314936D01*
X2845182Y-16314936D02*
X2835658Y-16324460D01*
X2835658Y-16324460D02*
X2816610Y-16333984D01*
X2816610Y-16333984D02*
X2797562Y-16333984D01*
X2797562Y-16333984D02*
X2778515Y-16324460D01*
X2778515Y-16324460D02*
X2768991Y-16314936D01*
X2768991Y-16314936D02*
X2759467Y-16295888D01*
X2759467Y-16295888D02*
X2749944Y-16257793D01*
X2749944Y-16257793D02*
X2749944Y-16210174D01*
X2749944Y-16210174D02*
X2759467Y-16172079D01*
X2759467Y-16172079D02*
X2768991Y-16153031D01*
X2768991Y-16153031D02*
X2778515Y-16143508D01*
X2778515Y-16143508D02*
X2797562Y-16133984D01*
X2988039Y-16133984D02*
X3007086Y-16133984D01*
X3007086Y-16133984D02*
X3026134Y-16143508D01*
X3026134Y-16143508D02*
X3035658Y-16153031D01*
X3035658Y-16153031D02*
X3045182Y-16172079D01*
X3045182Y-16172079D02*
X3054705Y-16210174D01*
X3054705Y-16210174D02*
X3054705Y-16257793D01*
X3054705Y-16257793D02*
X3045182Y-16295888D01*
X3045182Y-16295888D02*
X3035658Y-16314936D01*
X3035658Y-16314936D02*
X3026134Y-16324460D01*
X3026134Y-16324460D02*
X3007086Y-16333984D01*
X3007086Y-16333984D02*
X2988039Y-16333984D01*
X2988039Y-16333984D02*
X2968991Y-16324460D01*
X2968991Y-16324460D02*
X2959467Y-16314936D01*
X2959467Y-16314936D02*
X2949943Y-16295888D01*
X2949943Y-16295888D02*
X2940420Y-16257793D01*
X2940420Y-16257793D02*
X2940420Y-16210174D01*
X2940420Y-16210174D02*
X2949943Y-16172079D01*
X2949943Y-16172079D02*
X2959467Y-16153031D01*
X2959467Y-16153031D02*
X2968991Y-16143508D01*
X2968991Y-16143508D02*
X2988039Y-16133984D01*
X3140420Y-16333984D02*
X3140420Y-16200650D01*
X3140420Y-16219698D02*
X3149943Y-16210174D01*
X3149943Y-16210174D02*
X3168991Y-16200650D01*
X3168991Y-16200650D02*
X3197563Y-16200650D01*
X3197563Y-16200650D02*
X3216610Y-16210174D01*
X3216610Y-16210174D02*
X3226134Y-16229222D01*
X3226134Y-16229222D02*
X3226134Y-16333984D01*
X3226134Y-16229222D02*
X3235658Y-16210174D01*
X3235658Y-16210174D02*
X3254705Y-16200650D01*
X3254705Y-16200650D02*
X3283277Y-16200650D01*
X3283277Y-16200650D02*
X3302324Y-16210174D01*
X3302324Y-16210174D02*
X3311848Y-16229222D01*
X3311848Y-16229222D02*
X3311848Y-16333984D01*
X3407086Y-16333984D02*
X3407086Y-16200650D01*
X3407086Y-16219698D02*
X3416610Y-16210174D01*
X3416610Y-16210174D02*
X3435658Y-16200650D01*
X3435658Y-16200650D02*
X3464229Y-16200650D01*
X3464229Y-16200650D02*
X3483277Y-16210174D01*
X3483277Y-16210174D02*
X3492801Y-16229222D01*
X3492801Y-16229222D02*
X3492801Y-16333984D01*
X3492801Y-16229222D02*
X3502324Y-16210174D01*
X3502324Y-16210174D02*
X3521372Y-16200650D01*
X3521372Y-16200650D02*
X3549943Y-16200650D01*
X3549943Y-16200650D02*
X3568991Y-16210174D01*
X3568991Y-16210174D02*
X3578515Y-16229222D01*
X3578515Y-16229222D02*
X3578515Y-16333984D01*
X3968991Y-16124460D02*
X3797563Y-16381603D01*
X4226134Y-16133984D02*
X4245182Y-16133984D01*
X4245182Y-16133984D02*
X4264229Y-16143508D01*
X4264229Y-16143508D02*
X4273753Y-16153031D01*
X4273753Y-16153031D02*
X4283277Y-16172079D01*
X4283277Y-16172079D02*
X4292801Y-16210174D01*
X4292801Y-16210174D02*
X4292801Y-16257793D01*
X4292801Y-16257793D02*
X4283277Y-16295888D01*
X4283277Y-16295888D02*
X4273753Y-16314936D01*
X4273753Y-16314936D02*
X4264229Y-16324460D01*
X4264229Y-16324460D02*
X4245182Y-16333984D01*
X4245182Y-16333984D02*
X4226134Y-16333984D01*
X4226134Y-16333984D02*
X4207087Y-16324460D01*
X4207087Y-16324460D02*
X4197563Y-16314936D01*
X4197563Y-16314936D02*
X4188039Y-16295888D01*
X4188039Y-16295888D02*
X4178515Y-16257793D01*
X4178515Y-16257793D02*
X4178515Y-16210174D01*
X4178515Y-16210174D02*
X4188039Y-16172079D01*
X4188039Y-16172079D02*
X4197563Y-16153031D01*
X4197563Y-16153031D02*
X4207087Y-16143508D01*
X4207087Y-16143508D02*
X4226134Y-16133984D01*
X4378515Y-16314936D02*
X4388039Y-16324460D01*
X4388039Y-16324460D02*
X4378515Y-16333984D01*
X4378515Y-16333984D02*
X4368991Y-16324460D01*
X4368991Y-16324460D02*
X4378515Y-16314936D01*
X4378515Y-16314936D02*
X4378515Y-16333984D01*
X4511848Y-16133984D02*
X4530896Y-16133984D01*
X4530896Y-16133984D02*
X4549944Y-16143508D01*
X4549944Y-16143508D02*
X4559468Y-16153031D01*
X4559468Y-16153031D02*
X4568991Y-16172079D01*
X4568991Y-16172079D02*
X4578515Y-16210174D01*
X4578515Y-16210174D02*
X4578515Y-16257793D01*
X4578515Y-16257793D02*
X4568991Y-16295888D01*
X4568991Y-16295888D02*
X4559468Y-16314936D01*
X4559468Y-16314936D02*
X4549944Y-16324460D01*
X4549944Y-16324460D02*
X4530896Y-16333984D01*
X4530896Y-16333984D02*
X4511848Y-16333984D01*
X4511848Y-16333984D02*
X4492801Y-16324460D01*
X4492801Y-16324460D02*
X4483277Y-16314936D01*
X4483277Y-16314936D02*
X4473753Y-16295888D01*
X4473753Y-16295888D02*
X4464229Y-16257793D01*
X4464229Y-16257793D02*
X4464229Y-16210174D01*
X4464229Y-16210174D02*
X4473753Y-16172079D01*
X4473753Y-16172079D02*
X4483277Y-16153031D01*
X4483277Y-16153031D02*
X4492801Y-16143508D01*
X4492801Y-16143508D02*
X4511848Y-16133984D01*
X4645182Y-16133984D02*
X4768991Y-16133984D01*
X4768991Y-16133984D02*
X4702325Y-16210174D01*
X4702325Y-16210174D02*
X4730896Y-16210174D01*
X4730896Y-16210174D02*
X4749944Y-16219698D01*
X4749944Y-16219698D02*
X4759468Y-16229222D01*
X4759468Y-16229222D02*
X4768991Y-16248269D01*
X4768991Y-16248269D02*
X4768991Y-16295888D01*
X4768991Y-16295888D02*
X4759468Y-16314936D01*
X4759468Y-16314936D02*
X4749944Y-16324460D01*
X4749944Y-16324460D02*
X4730896Y-16333984D01*
X4730896Y-16333984D02*
X4673753Y-16333984D01*
X4673753Y-16333984D02*
X4654706Y-16324460D01*
X4654706Y-16324460D02*
X4645182Y-16314936D01*
X4864229Y-16333984D02*
X4902325Y-16333984D01*
X4902325Y-16333984D02*
X4921372Y-16324460D01*
X4921372Y-16324460D02*
X4930896Y-16314936D01*
X4930896Y-16314936D02*
X4949944Y-16286365D01*
X4949944Y-16286365D02*
X4959468Y-16248269D01*
X4959468Y-16248269D02*
X4959468Y-16172079D01*
X4959468Y-16172079D02*
X4949944Y-16153031D01*
X4949944Y-16153031D02*
X4940420Y-16143508D01*
X4940420Y-16143508D02*
X4921372Y-16133984D01*
X4921372Y-16133984D02*
X4883277Y-16133984D01*
X4883277Y-16133984D02*
X4864229Y-16143508D01*
X4864229Y-16143508D02*
X4854706Y-16153031D01*
X4854706Y-16153031D02*
X4845182Y-16172079D01*
X4845182Y-16172079D02*
X4845182Y-16219698D01*
X4845182Y-16219698D02*
X4854706Y-16238746D01*
X4854706Y-16238746D02*
X4864229Y-16248269D01*
X4864229Y-16248269D02*
X4883277Y-16257793D01*
X4883277Y-16257793D02*
X4921372Y-16257793D01*
X4921372Y-16257793D02*
X4940420Y-16248269D01*
X4940420Y-16248269D02*
X4949944Y-16238746D01*
X4949944Y-16238746D02*
X4959468Y-16219698D01*
X5130896Y-16200650D02*
X5130896Y-16333984D01*
X5083277Y-16124460D02*
X5035658Y-16267317D01*
X5035658Y-16267317D02*
X5159468Y-16267317D01*
X5226134Y-16133984D02*
X5226134Y-16172079D01*
X5302325Y-16133984D02*
X5302325Y-16172079D01*
X5597563Y-16410174D02*
X5588039Y-16400650D01*
X5588039Y-16400650D02*
X5568991Y-16372079D01*
X5568991Y-16372079D02*
X5559468Y-16353031D01*
X5559468Y-16353031D02*
X5549944Y-16324460D01*
X5549944Y-16324460D02*
X5540420Y-16276841D01*
X5540420Y-16276841D02*
X5540420Y-16238746D01*
X5540420Y-16238746D02*
X5549944Y-16191127D01*
X5549944Y-16191127D02*
X5559468Y-16162555D01*
X5559468Y-16162555D02*
X5568991Y-16143508D01*
X5568991Y-16143508D02*
X5588039Y-16114936D01*
X5588039Y-16114936D02*
X5597563Y-16105412D01*
X5759468Y-16200650D02*
X5759468Y-16333984D01*
X5711848Y-16124460D02*
X5664229Y-16267317D01*
X5664229Y-16267317D02*
X5788039Y-16267317D01*
X5902325Y-16133984D02*
X5921372Y-16133984D01*
X5921372Y-16133984D02*
X5940420Y-16143508D01*
X5940420Y-16143508D02*
X5949944Y-16153031D01*
X5949944Y-16153031D02*
X5959468Y-16172079D01*
X5959468Y-16172079D02*
X5968991Y-16210174D01*
X5968991Y-16210174D02*
X5968991Y-16257793D01*
X5968991Y-16257793D02*
X5959468Y-16295888D01*
X5959468Y-16295888D02*
X5949944Y-16314936D01*
X5949944Y-16314936D02*
X5940420Y-16324460D01*
X5940420Y-16324460D02*
X5921372Y-16333984D01*
X5921372Y-16333984D02*
X5902325Y-16333984D01*
X5902325Y-16333984D02*
X5883277Y-16324460D01*
X5883277Y-16324460D02*
X5873753Y-16314936D01*
X5873753Y-16314936D02*
X5864229Y-16295888D01*
X5864229Y-16295888D02*
X5854706Y-16257793D01*
X5854706Y-16257793D02*
X5854706Y-16210174D01*
X5854706Y-16210174D02*
X5864229Y-16172079D01*
X5864229Y-16172079D02*
X5873753Y-16153031D01*
X5873753Y-16153031D02*
X5883277Y-16143508D01*
X5883277Y-16143508D02*
X5902325Y-16133984D01*
X6207087Y-16333984D02*
X6207087Y-16133984D01*
X6292801Y-16333984D02*
X6292801Y-16229222D01*
X6292801Y-16229222D02*
X6283277Y-16210174D01*
X6283277Y-16210174D02*
X6264230Y-16200650D01*
X6264230Y-16200650D02*
X6235658Y-16200650D01*
X6235658Y-16200650D02*
X6216610Y-16210174D01*
X6216610Y-16210174D02*
X6207087Y-16219698D01*
X6416610Y-16333984D02*
X6397563Y-16324460D01*
X6397563Y-16324460D02*
X6388039Y-16314936D01*
X6388039Y-16314936D02*
X6378515Y-16295888D01*
X6378515Y-16295888D02*
X6378515Y-16238746D01*
X6378515Y-16238746D02*
X6388039Y-16219698D01*
X6388039Y-16219698D02*
X6397563Y-16210174D01*
X6397563Y-16210174D02*
X6416610Y-16200650D01*
X6416610Y-16200650D02*
X6445182Y-16200650D01*
X6445182Y-16200650D02*
X6464230Y-16210174D01*
X6464230Y-16210174D02*
X6473753Y-16219698D01*
X6473753Y-16219698D02*
X6483277Y-16238746D01*
X6483277Y-16238746D02*
X6483277Y-16295888D01*
X6483277Y-16295888D02*
X6473753Y-16314936D01*
X6473753Y-16314936D02*
X6464230Y-16324460D01*
X6464230Y-16324460D02*
X6445182Y-16333984D01*
X6445182Y-16333984D02*
X6416610Y-16333984D01*
X6597563Y-16333984D02*
X6578515Y-16324460D01*
X6578515Y-16324460D02*
X6568991Y-16305412D01*
X6568991Y-16305412D02*
X6568991Y-16133984D01*
X6749944Y-16324460D02*
X6730896Y-16333984D01*
X6730896Y-16333984D02*
X6692801Y-16333984D01*
X6692801Y-16333984D02*
X6673753Y-16324460D01*
X6673753Y-16324460D02*
X6664230Y-16305412D01*
X6664230Y-16305412D02*
X6664230Y-16229222D01*
X6664230Y-16229222D02*
X6673753Y-16210174D01*
X6673753Y-16210174D02*
X6692801Y-16200650D01*
X6692801Y-16200650D02*
X6730896Y-16200650D01*
X6730896Y-16200650D02*
X6749944Y-16210174D01*
X6749944Y-16210174D02*
X6759468Y-16229222D01*
X6759468Y-16229222D02*
X6759468Y-16248269D01*
X6759468Y-16248269D02*
X6664230Y-16267317D01*
X6835658Y-16324460D02*
X6854706Y-16333984D01*
X6854706Y-16333984D02*
X6892801Y-16333984D01*
X6892801Y-16333984D02*
X6911849Y-16324460D01*
X6911849Y-16324460D02*
X6921372Y-16305412D01*
X6921372Y-16305412D02*
X6921372Y-16295888D01*
X6921372Y-16295888D02*
X6911849Y-16276841D01*
X6911849Y-16276841D02*
X6892801Y-16267317D01*
X6892801Y-16267317D02*
X6864230Y-16267317D01*
X6864230Y-16267317D02*
X6845182Y-16257793D01*
X6845182Y-16257793D02*
X6835658Y-16238746D01*
X6835658Y-16238746D02*
X6835658Y-16229222D01*
X6835658Y-16229222D02*
X6845182Y-16210174D01*
X6845182Y-16210174D02*
X6864230Y-16200650D01*
X6864230Y-16200650D02*
X6892801Y-16200650D01*
X6892801Y-16200650D02*
X6911849Y-16210174D01*
X6988039Y-16410174D02*
X6997563Y-16400650D01*
X6997563Y-16400650D02*
X7016611Y-16372079D01*
X7016611Y-16372079D02*
X7026134Y-16353031D01*
X7026134Y-16353031D02*
X7035658Y-16324460D01*
X7035658Y-16324460D02*
X7045182Y-16276841D01*
X7045182Y-16276841D02*
X7045182Y-16238746D01*
X7045182Y-16238746D02*
X7035658Y-16191127D01*
X7035658Y-16191127D02*
X7026134Y-16162555D01*
X7026134Y-16162555D02*
X7016611Y-16143508D01*
X7016611Y-16143508D02*
X6997563Y-16114936D01*
X6997563Y-16114936D02*
X6988039Y-16105412D01*
D13*
X2022500Y-16506500D02*
G75*
G03*
X1912500Y-16506500I-55000J0D01*
G01*
X1912500Y-16506500D02*
G75*
G03*
X2022500Y-16506500I55000J0D01*
G01*
D11*
X2388039Y-16597984D02*
X2273753Y-16597984D01*
X2330896Y-16597984D02*
X2330896Y-16397984D01*
X2330896Y-16397984D02*
X2311848Y-16426555D01*
X2311848Y-16426555D02*
X2292801Y-16445603D01*
X2292801Y-16445603D02*
X2273753Y-16455127D01*
X2473753Y-16578936D02*
X2483277Y-16588460D01*
X2483277Y-16588460D02*
X2473753Y-16597984D01*
X2473753Y-16597984D02*
X2464229Y-16588460D01*
X2464229Y-16588460D02*
X2473753Y-16578936D01*
X2473753Y-16578936D02*
X2473753Y-16597984D01*
X2673753Y-16597984D02*
X2559467Y-16597984D01*
X2616610Y-16597984D02*
X2616610Y-16397984D01*
X2616610Y-16397984D02*
X2597563Y-16426555D01*
X2597563Y-16426555D02*
X2578515Y-16445603D01*
X2578515Y-16445603D02*
X2559467Y-16455127D01*
X2797562Y-16397984D02*
X2816610Y-16397984D01*
X2816610Y-16397984D02*
X2835658Y-16407508D01*
X2835658Y-16407508D02*
X2845182Y-16417031D01*
X2845182Y-16417031D02*
X2854705Y-16436079D01*
X2854705Y-16436079D02*
X2864229Y-16474174D01*
X2864229Y-16474174D02*
X2864229Y-16521793D01*
X2864229Y-16521793D02*
X2854705Y-16559888D01*
X2854705Y-16559888D02*
X2845182Y-16578936D01*
X2845182Y-16578936D02*
X2835658Y-16588460D01*
X2835658Y-16588460D02*
X2816610Y-16597984D01*
X2816610Y-16597984D02*
X2797562Y-16597984D01*
X2797562Y-16597984D02*
X2778515Y-16588460D01*
X2778515Y-16588460D02*
X2768991Y-16578936D01*
X2768991Y-16578936D02*
X2759467Y-16559888D01*
X2759467Y-16559888D02*
X2749944Y-16521793D01*
X2749944Y-16521793D02*
X2749944Y-16474174D01*
X2749944Y-16474174D02*
X2759467Y-16436079D01*
X2759467Y-16436079D02*
X2768991Y-16417031D01*
X2768991Y-16417031D02*
X2778515Y-16407508D01*
X2778515Y-16407508D02*
X2797562Y-16397984D01*
X2988039Y-16397984D02*
X3007086Y-16397984D01*
X3007086Y-16397984D02*
X3026134Y-16407508D01*
X3026134Y-16407508D02*
X3035658Y-16417031D01*
X3035658Y-16417031D02*
X3045182Y-16436079D01*
X3045182Y-16436079D02*
X3054705Y-16474174D01*
X3054705Y-16474174D02*
X3054705Y-16521793D01*
X3054705Y-16521793D02*
X3045182Y-16559888D01*
X3045182Y-16559888D02*
X3035658Y-16578936D01*
X3035658Y-16578936D02*
X3026134Y-16588460D01*
X3026134Y-16588460D02*
X3007086Y-16597984D01*
X3007086Y-16597984D02*
X2988039Y-16597984D01*
X2988039Y-16597984D02*
X2968991Y-16588460D01*
X2968991Y-16588460D02*
X2959467Y-16578936D01*
X2959467Y-16578936D02*
X2949943Y-16559888D01*
X2949943Y-16559888D02*
X2940420Y-16521793D01*
X2940420Y-16521793D02*
X2940420Y-16474174D01*
X2940420Y-16474174D02*
X2949943Y-16436079D01*
X2949943Y-16436079D02*
X2959467Y-16417031D01*
X2959467Y-16417031D02*
X2968991Y-16407508D01*
X2968991Y-16407508D02*
X2988039Y-16397984D01*
X3140420Y-16597984D02*
X3140420Y-16464650D01*
X3140420Y-16483698D02*
X3149943Y-16474174D01*
X3149943Y-16474174D02*
X3168991Y-16464650D01*
X3168991Y-16464650D02*
X3197563Y-16464650D01*
X3197563Y-16464650D02*
X3216610Y-16474174D01*
X3216610Y-16474174D02*
X3226134Y-16493222D01*
X3226134Y-16493222D02*
X3226134Y-16597984D01*
X3226134Y-16493222D02*
X3235658Y-16474174D01*
X3235658Y-16474174D02*
X3254705Y-16464650D01*
X3254705Y-16464650D02*
X3283277Y-16464650D01*
X3283277Y-16464650D02*
X3302324Y-16474174D01*
X3302324Y-16474174D02*
X3311848Y-16493222D01*
X3311848Y-16493222D02*
X3311848Y-16597984D01*
X3407086Y-16597984D02*
X3407086Y-16464650D01*
X3407086Y-16483698D02*
X3416610Y-16474174D01*
X3416610Y-16474174D02*
X3435658Y-16464650D01*
X3435658Y-16464650D02*
X3464229Y-16464650D01*
X3464229Y-16464650D02*
X3483277Y-16474174D01*
X3483277Y-16474174D02*
X3492801Y-16493222D01*
X3492801Y-16493222D02*
X3492801Y-16597984D01*
X3492801Y-16493222D02*
X3502324Y-16474174D01*
X3502324Y-16474174D02*
X3521372Y-16464650D01*
X3521372Y-16464650D02*
X3549943Y-16464650D01*
X3549943Y-16464650D02*
X3568991Y-16474174D01*
X3568991Y-16474174D02*
X3578515Y-16493222D01*
X3578515Y-16493222D02*
X3578515Y-16597984D01*
X3968991Y-16388460D02*
X3797563Y-16645603D01*
X4226134Y-16397984D02*
X4245182Y-16397984D01*
X4245182Y-16397984D02*
X4264229Y-16407508D01*
X4264229Y-16407508D02*
X4273753Y-16417031D01*
X4273753Y-16417031D02*
X4283277Y-16436079D01*
X4283277Y-16436079D02*
X4292801Y-16474174D01*
X4292801Y-16474174D02*
X4292801Y-16521793D01*
X4292801Y-16521793D02*
X4283277Y-16559888D01*
X4283277Y-16559888D02*
X4273753Y-16578936D01*
X4273753Y-16578936D02*
X4264229Y-16588460D01*
X4264229Y-16588460D02*
X4245182Y-16597984D01*
X4245182Y-16597984D02*
X4226134Y-16597984D01*
X4226134Y-16597984D02*
X4207087Y-16588460D01*
X4207087Y-16588460D02*
X4197563Y-16578936D01*
X4197563Y-16578936D02*
X4188039Y-16559888D01*
X4188039Y-16559888D02*
X4178515Y-16521793D01*
X4178515Y-16521793D02*
X4178515Y-16474174D01*
X4178515Y-16474174D02*
X4188039Y-16436079D01*
X4188039Y-16436079D02*
X4197563Y-16417031D01*
X4197563Y-16417031D02*
X4207087Y-16407508D01*
X4207087Y-16407508D02*
X4226134Y-16397984D01*
X4378515Y-16578936D02*
X4388039Y-16588460D01*
X4388039Y-16588460D02*
X4378515Y-16597984D01*
X4378515Y-16597984D02*
X4368991Y-16588460D01*
X4368991Y-16588460D02*
X4378515Y-16578936D01*
X4378515Y-16578936D02*
X4378515Y-16597984D01*
X4511848Y-16397984D02*
X4530896Y-16397984D01*
X4530896Y-16397984D02*
X4549944Y-16407508D01*
X4549944Y-16407508D02*
X4559468Y-16417031D01*
X4559468Y-16417031D02*
X4568991Y-16436079D01*
X4568991Y-16436079D02*
X4578515Y-16474174D01*
X4578515Y-16474174D02*
X4578515Y-16521793D01*
X4578515Y-16521793D02*
X4568991Y-16559888D01*
X4568991Y-16559888D02*
X4559468Y-16578936D01*
X4559468Y-16578936D02*
X4549944Y-16588460D01*
X4549944Y-16588460D02*
X4530896Y-16597984D01*
X4530896Y-16597984D02*
X4511848Y-16597984D01*
X4511848Y-16597984D02*
X4492801Y-16588460D01*
X4492801Y-16588460D02*
X4483277Y-16578936D01*
X4483277Y-16578936D02*
X4473753Y-16559888D01*
X4473753Y-16559888D02*
X4464229Y-16521793D01*
X4464229Y-16521793D02*
X4464229Y-16474174D01*
X4464229Y-16474174D02*
X4473753Y-16436079D01*
X4473753Y-16436079D02*
X4483277Y-16417031D01*
X4483277Y-16417031D02*
X4492801Y-16407508D01*
X4492801Y-16407508D02*
X4511848Y-16397984D01*
X4749944Y-16464650D02*
X4749944Y-16597984D01*
X4702325Y-16388460D02*
X4654706Y-16531317D01*
X4654706Y-16531317D02*
X4778515Y-16531317D01*
X4835658Y-16397984D02*
X4959468Y-16397984D01*
X4959468Y-16397984D02*
X4892801Y-16474174D01*
X4892801Y-16474174D02*
X4921372Y-16474174D01*
X4921372Y-16474174D02*
X4940420Y-16483698D01*
X4940420Y-16483698D02*
X4949944Y-16493222D01*
X4949944Y-16493222D02*
X4959468Y-16512269D01*
X4959468Y-16512269D02*
X4959468Y-16559888D01*
X4959468Y-16559888D02*
X4949944Y-16578936D01*
X4949944Y-16578936D02*
X4940420Y-16588460D01*
X4940420Y-16588460D02*
X4921372Y-16597984D01*
X4921372Y-16597984D02*
X4864229Y-16597984D01*
X4864229Y-16597984D02*
X4845182Y-16588460D01*
X4845182Y-16588460D02*
X4835658Y-16578936D01*
X5026134Y-16397984D02*
X5149944Y-16397984D01*
X5149944Y-16397984D02*
X5083277Y-16474174D01*
X5083277Y-16474174D02*
X5111849Y-16474174D01*
X5111849Y-16474174D02*
X5130896Y-16483698D01*
X5130896Y-16483698D02*
X5140420Y-16493222D01*
X5140420Y-16493222D02*
X5149944Y-16512269D01*
X5149944Y-16512269D02*
X5149944Y-16559888D01*
X5149944Y-16559888D02*
X5140420Y-16578936D01*
X5140420Y-16578936D02*
X5130896Y-16588460D01*
X5130896Y-16588460D02*
X5111849Y-16597984D01*
X5111849Y-16597984D02*
X5054706Y-16597984D01*
X5054706Y-16597984D02*
X5035658Y-16588460D01*
X5035658Y-16588460D02*
X5026134Y-16578936D01*
X5226134Y-16397984D02*
X5226134Y-16436079D01*
X5302325Y-16397984D02*
X5302325Y-16436079D01*
X5597563Y-16674174D02*
X5588039Y-16664650D01*
X5588039Y-16664650D02*
X5568991Y-16636079D01*
X5568991Y-16636079D02*
X5559468Y-16617031D01*
X5559468Y-16617031D02*
X5549944Y-16588460D01*
X5549944Y-16588460D02*
X5540420Y-16540841D01*
X5540420Y-16540841D02*
X5540420Y-16502746D01*
X5540420Y-16502746D02*
X5549944Y-16455127D01*
X5549944Y-16455127D02*
X5559468Y-16426555D01*
X5559468Y-16426555D02*
X5568991Y-16407508D01*
X5568991Y-16407508D02*
X5588039Y-16378936D01*
X5588039Y-16378936D02*
X5597563Y-16369412D01*
X5759468Y-16464650D02*
X5759468Y-16597984D01*
X5711848Y-16388460D02*
X5664229Y-16531317D01*
X5664229Y-16531317D02*
X5788039Y-16531317D01*
X5892801Y-16483698D02*
X5873753Y-16474174D01*
X5873753Y-16474174D02*
X5864229Y-16464650D01*
X5864229Y-16464650D02*
X5854706Y-16445603D01*
X5854706Y-16445603D02*
X5854706Y-16436079D01*
X5854706Y-16436079D02*
X5864229Y-16417031D01*
X5864229Y-16417031D02*
X5873753Y-16407508D01*
X5873753Y-16407508D02*
X5892801Y-16397984D01*
X5892801Y-16397984D02*
X5930896Y-16397984D01*
X5930896Y-16397984D02*
X5949944Y-16407508D01*
X5949944Y-16407508D02*
X5959468Y-16417031D01*
X5959468Y-16417031D02*
X5968991Y-16436079D01*
X5968991Y-16436079D02*
X5968991Y-16445603D01*
X5968991Y-16445603D02*
X5959468Y-16464650D01*
X5959468Y-16464650D02*
X5949944Y-16474174D01*
X5949944Y-16474174D02*
X5930896Y-16483698D01*
X5930896Y-16483698D02*
X5892801Y-16483698D01*
X5892801Y-16483698D02*
X5873753Y-16493222D01*
X5873753Y-16493222D02*
X5864229Y-16502746D01*
X5864229Y-16502746D02*
X5854706Y-16521793D01*
X5854706Y-16521793D02*
X5854706Y-16559888D01*
X5854706Y-16559888D02*
X5864229Y-16578936D01*
X5864229Y-16578936D02*
X5873753Y-16588460D01*
X5873753Y-16588460D02*
X5892801Y-16597984D01*
X5892801Y-16597984D02*
X5930896Y-16597984D01*
X5930896Y-16597984D02*
X5949944Y-16588460D01*
X5949944Y-16588460D02*
X5959468Y-16578936D01*
X5959468Y-16578936D02*
X5968991Y-16559888D01*
X5968991Y-16559888D02*
X5968991Y-16521793D01*
X5968991Y-16521793D02*
X5959468Y-16502746D01*
X5959468Y-16502746D02*
X5949944Y-16493222D01*
X5949944Y-16493222D02*
X5930896Y-16483698D01*
X6207087Y-16597984D02*
X6207087Y-16397984D01*
X6292801Y-16597984D02*
X6292801Y-16493222D01*
X6292801Y-16493222D02*
X6283277Y-16474174D01*
X6283277Y-16474174D02*
X6264230Y-16464650D01*
X6264230Y-16464650D02*
X6235658Y-16464650D01*
X6235658Y-16464650D02*
X6216610Y-16474174D01*
X6216610Y-16474174D02*
X6207087Y-16483698D01*
X6416610Y-16597984D02*
X6397563Y-16588460D01*
X6397563Y-16588460D02*
X6388039Y-16578936D01*
X6388039Y-16578936D02*
X6378515Y-16559888D01*
X6378515Y-16559888D02*
X6378515Y-16502746D01*
X6378515Y-16502746D02*
X6388039Y-16483698D01*
X6388039Y-16483698D02*
X6397563Y-16474174D01*
X6397563Y-16474174D02*
X6416610Y-16464650D01*
X6416610Y-16464650D02*
X6445182Y-16464650D01*
X6445182Y-16464650D02*
X6464230Y-16474174D01*
X6464230Y-16474174D02*
X6473753Y-16483698D01*
X6473753Y-16483698D02*
X6483277Y-16502746D01*
X6483277Y-16502746D02*
X6483277Y-16559888D01*
X6483277Y-16559888D02*
X6473753Y-16578936D01*
X6473753Y-16578936D02*
X6464230Y-16588460D01*
X6464230Y-16588460D02*
X6445182Y-16597984D01*
X6445182Y-16597984D02*
X6416610Y-16597984D01*
X6597563Y-16597984D02*
X6578515Y-16588460D01*
X6578515Y-16588460D02*
X6568991Y-16569412D01*
X6568991Y-16569412D02*
X6568991Y-16397984D01*
X6749944Y-16588460D02*
X6730896Y-16597984D01*
X6730896Y-16597984D02*
X6692801Y-16597984D01*
X6692801Y-16597984D02*
X6673753Y-16588460D01*
X6673753Y-16588460D02*
X6664230Y-16569412D01*
X6664230Y-16569412D02*
X6664230Y-16493222D01*
X6664230Y-16493222D02*
X6673753Y-16474174D01*
X6673753Y-16474174D02*
X6692801Y-16464650D01*
X6692801Y-16464650D02*
X6730896Y-16464650D01*
X6730896Y-16464650D02*
X6749944Y-16474174D01*
X6749944Y-16474174D02*
X6759468Y-16493222D01*
X6759468Y-16493222D02*
X6759468Y-16512269D01*
X6759468Y-16512269D02*
X6664230Y-16531317D01*
X6835658Y-16588460D02*
X6854706Y-16597984D01*
X6854706Y-16597984D02*
X6892801Y-16597984D01*
X6892801Y-16597984D02*
X6911849Y-16588460D01*
X6911849Y-16588460D02*
X6921372Y-16569412D01*
X6921372Y-16569412D02*
X6921372Y-16559888D01*
X6921372Y-16559888D02*
X6911849Y-16540841D01*
X6911849Y-16540841D02*
X6892801Y-16531317D01*
X6892801Y-16531317D02*
X6864230Y-16531317D01*
X6864230Y-16531317D02*
X6845182Y-16521793D01*
X6845182Y-16521793D02*
X6835658Y-16502746D01*
X6835658Y-16502746D02*
X6835658Y-16493222D01*
X6835658Y-16493222D02*
X6845182Y-16474174D01*
X6845182Y-16474174D02*
X6864230Y-16464650D01*
X6864230Y-16464650D02*
X6892801Y-16464650D01*
X6892801Y-16464650D02*
X6911849Y-16474174D01*
X6988039Y-16674174D02*
X6997563Y-16664650D01*
X6997563Y-16664650D02*
X7016611Y-16636079D01*
X7016611Y-16636079D02*
X7026134Y-16617031D01*
X7026134Y-16617031D02*
X7035658Y-16588460D01*
X7035658Y-16588460D02*
X7045182Y-16540841D01*
X7045182Y-16540841D02*
X7045182Y-16502746D01*
X7045182Y-16502746D02*
X7035658Y-16455127D01*
X7035658Y-16455127D02*
X7026134Y-16426555D01*
X7026134Y-16426555D02*
X7016611Y-16407508D01*
X7016611Y-16407508D02*
X6997563Y-16378936D01*
X6997563Y-16378936D02*
X6988039Y-16369412D01*
X1922500Y-16670500D02*
X1922500Y-16870500D01*
X1822500Y-16770500D02*
X2022500Y-16770500D01*
X2368991Y-16728650D02*
X2368991Y-16861984D01*
X2321372Y-16652460D02*
X2273753Y-16795317D01*
X2273753Y-16795317D02*
X2397563Y-16795317D01*
X2473753Y-16842936D02*
X2483277Y-16852460D01*
X2483277Y-16852460D02*
X2473753Y-16861984D01*
X2473753Y-16861984D02*
X2464229Y-16852460D01*
X2464229Y-16852460D02*
X2473753Y-16842936D01*
X2473753Y-16842936D02*
X2473753Y-16861984D01*
X2549944Y-16661984D02*
X2673753Y-16661984D01*
X2673753Y-16661984D02*
X2607086Y-16738174D01*
X2607086Y-16738174D02*
X2635658Y-16738174D01*
X2635658Y-16738174D02*
X2654705Y-16747698D01*
X2654705Y-16747698D02*
X2664229Y-16757222D01*
X2664229Y-16757222D02*
X2673753Y-16776269D01*
X2673753Y-16776269D02*
X2673753Y-16823889D01*
X2673753Y-16823889D02*
X2664229Y-16842936D01*
X2664229Y-16842936D02*
X2654705Y-16852460D01*
X2654705Y-16852460D02*
X2635658Y-16861984D01*
X2635658Y-16861984D02*
X2578515Y-16861984D01*
X2578515Y-16861984D02*
X2559467Y-16852460D01*
X2559467Y-16852460D02*
X2549944Y-16842936D01*
X2797562Y-16661984D02*
X2816610Y-16661984D01*
X2816610Y-16661984D02*
X2835658Y-16671508D01*
X2835658Y-16671508D02*
X2845182Y-16681031D01*
X2845182Y-16681031D02*
X2854705Y-16700079D01*
X2854705Y-16700079D02*
X2864229Y-16738174D01*
X2864229Y-16738174D02*
X2864229Y-16785793D01*
X2864229Y-16785793D02*
X2854705Y-16823889D01*
X2854705Y-16823889D02*
X2845182Y-16842936D01*
X2845182Y-16842936D02*
X2835658Y-16852460D01*
X2835658Y-16852460D02*
X2816610Y-16861984D01*
X2816610Y-16861984D02*
X2797562Y-16861984D01*
X2797562Y-16861984D02*
X2778515Y-16852460D01*
X2778515Y-16852460D02*
X2768991Y-16842936D01*
X2768991Y-16842936D02*
X2759467Y-16823889D01*
X2759467Y-16823889D02*
X2749944Y-16785793D01*
X2749944Y-16785793D02*
X2749944Y-16738174D01*
X2749944Y-16738174D02*
X2759467Y-16700079D01*
X2759467Y-16700079D02*
X2768991Y-16681031D01*
X2768991Y-16681031D02*
X2778515Y-16671508D01*
X2778515Y-16671508D02*
X2797562Y-16661984D01*
X2988039Y-16661984D02*
X3007086Y-16661984D01*
X3007086Y-16661984D02*
X3026134Y-16671508D01*
X3026134Y-16671508D02*
X3035658Y-16681031D01*
X3035658Y-16681031D02*
X3045182Y-16700079D01*
X3045182Y-16700079D02*
X3054705Y-16738174D01*
X3054705Y-16738174D02*
X3054705Y-16785793D01*
X3054705Y-16785793D02*
X3045182Y-16823889D01*
X3045182Y-16823889D02*
X3035658Y-16842936D01*
X3035658Y-16842936D02*
X3026134Y-16852460D01*
X3026134Y-16852460D02*
X3007086Y-16861984D01*
X3007086Y-16861984D02*
X2988039Y-16861984D01*
X2988039Y-16861984D02*
X2968991Y-16852460D01*
X2968991Y-16852460D02*
X2959467Y-16842936D01*
X2959467Y-16842936D02*
X2949943Y-16823889D01*
X2949943Y-16823889D02*
X2940420Y-16785793D01*
X2940420Y-16785793D02*
X2940420Y-16738174D01*
X2940420Y-16738174D02*
X2949943Y-16700079D01*
X2949943Y-16700079D02*
X2959467Y-16681031D01*
X2959467Y-16681031D02*
X2968991Y-16671508D01*
X2968991Y-16671508D02*
X2988039Y-16661984D01*
X3140420Y-16861984D02*
X3140420Y-16728650D01*
X3140420Y-16747698D02*
X3149943Y-16738174D01*
X3149943Y-16738174D02*
X3168991Y-16728650D01*
X3168991Y-16728650D02*
X3197563Y-16728650D01*
X3197563Y-16728650D02*
X3216610Y-16738174D01*
X3216610Y-16738174D02*
X3226134Y-16757222D01*
X3226134Y-16757222D02*
X3226134Y-16861984D01*
X3226134Y-16757222D02*
X3235658Y-16738174D01*
X3235658Y-16738174D02*
X3254705Y-16728650D01*
X3254705Y-16728650D02*
X3283277Y-16728650D01*
X3283277Y-16728650D02*
X3302324Y-16738174D01*
X3302324Y-16738174D02*
X3311848Y-16757222D01*
X3311848Y-16757222D02*
X3311848Y-16861984D01*
X3407086Y-16861984D02*
X3407086Y-16728650D01*
X3407086Y-16747698D02*
X3416610Y-16738174D01*
X3416610Y-16738174D02*
X3435658Y-16728650D01*
X3435658Y-16728650D02*
X3464229Y-16728650D01*
X3464229Y-16728650D02*
X3483277Y-16738174D01*
X3483277Y-16738174D02*
X3492801Y-16757222D01*
X3492801Y-16757222D02*
X3492801Y-16861984D01*
X3492801Y-16757222D02*
X3502324Y-16738174D01*
X3502324Y-16738174D02*
X3521372Y-16728650D01*
X3521372Y-16728650D02*
X3549943Y-16728650D01*
X3549943Y-16728650D02*
X3568991Y-16738174D01*
X3568991Y-16738174D02*
X3578515Y-16757222D01*
X3578515Y-16757222D02*
X3578515Y-16861984D01*
X3968991Y-16652460D02*
X3797563Y-16909603D01*
X4226134Y-16661984D02*
X4245182Y-16661984D01*
X4245182Y-16661984D02*
X4264229Y-16671508D01*
X4264229Y-16671508D02*
X4273753Y-16681031D01*
X4273753Y-16681031D02*
X4283277Y-16700079D01*
X4283277Y-16700079D02*
X4292801Y-16738174D01*
X4292801Y-16738174D02*
X4292801Y-16785793D01*
X4292801Y-16785793D02*
X4283277Y-16823889D01*
X4283277Y-16823889D02*
X4273753Y-16842936D01*
X4273753Y-16842936D02*
X4264229Y-16852460D01*
X4264229Y-16852460D02*
X4245182Y-16861984D01*
X4245182Y-16861984D02*
X4226134Y-16861984D01*
X4226134Y-16861984D02*
X4207087Y-16852460D01*
X4207087Y-16852460D02*
X4197563Y-16842936D01*
X4197563Y-16842936D02*
X4188039Y-16823889D01*
X4188039Y-16823889D02*
X4178515Y-16785793D01*
X4178515Y-16785793D02*
X4178515Y-16738174D01*
X4178515Y-16738174D02*
X4188039Y-16700079D01*
X4188039Y-16700079D02*
X4197563Y-16681031D01*
X4197563Y-16681031D02*
X4207087Y-16671508D01*
X4207087Y-16671508D02*
X4226134Y-16661984D01*
X4378515Y-16842936D02*
X4388039Y-16852460D01*
X4388039Y-16852460D02*
X4378515Y-16861984D01*
X4378515Y-16861984D02*
X4368991Y-16852460D01*
X4368991Y-16852460D02*
X4378515Y-16842936D01*
X4378515Y-16842936D02*
X4378515Y-16861984D01*
X4578515Y-16861984D02*
X4464229Y-16861984D01*
X4521372Y-16861984D02*
X4521372Y-16661984D01*
X4521372Y-16661984D02*
X4502325Y-16690555D01*
X4502325Y-16690555D02*
X4483277Y-16709603D01*
X4483277Y-16709603D02*
X4464229Y-16719127D01*
X4749944Y-16661984D02*
X4711848Y-16661984D01*
X4711848Y-16661984D02*
X4692801Y-16671508D01*
X4692801Y-16671508D02*
X4683277Y-16681031D01*
X4683277Y-16681031D02*
X4664229Y-16709603D01*
X4664229Y-16709603D02*
X4654706Y-16747698D01*
X4654706Y-16747698D02*
X4654706Y-16823889D01*
X4654706Y-16823889D02*
X4664229Y-16842936D01*
X4664229Y-16842936D02*
X4673753Y-16852460D01*
X4673753Y-16852460D02*
X4692801Y-16861984D01*
X4692801Y-16861984D02*
X4730896Y-16861984D01*
X4730896Y-16861984D02*
X4749944Y-16852460D01*
X4749944Y-16852460D02*
X4759468Y-16842936D01*
X4759468Y-16842936D02*
X4768991Y-16823889D01*
X4768991Y-16823889D02*
X4768991Y-16776269D01*
X4768991Y-16776269D02*
X4759468Y-16757222D01*
X4759468Y-16757222D02*
X4749944Y-16747698D01*
X4749944Y-16747698D02*
X4730896Y-16738174D01*
X4730896Y-16738174D02*
X4692801Y-16738174D01*
X4692801Y-16738174D02*
X4673753Y-16747698D01*
X4673753Y-16747698D02*
X4664229Y-16757222D01*
X4664229Y-16757222D02*
X4654706Y-16776269D01*
X4864229Y-16861984D02*
X4902325Y-16861984D01*
X4902325Y-16861984D02*
X4921372Y-16852460D01*
X4921372Y-16852460D02*
X4930896Y-16842936D01*
X4930896Y-16842936D02*
X4949944Y-16814365D01*
X4949944Y-16814365D02*
X4959468Y-16776269D01*
X4959468Y-16776269D02*
X4959468Y-16700079D01*
X4959468Y-16700079D02*
X4949944Y-16681031D01*
X4949944Y-16681031D02*
X4940420Y-16671508D01*
X4940420Y-16671508D02*
X4921372Y-16661984D01*
X4921372Y-16661984D02*
X4883277Y-16661984D01*
X4883277Y-16661984D02*
X4864229Y-16671508D01*
X4864229Y-16671508D02*
X4854706Y-16681031D01*
X4854706Y-16681031D02*
X4845182Y-16700079D01*
X4845182Y-16700079D02*
X4845182Y-16747698D01*
X4845182Y-16747698D02*
X4854706Y-16766746D01*
X4854706Y-16766746D02*
X4864229Y-16776269D01*
X4864229Y-16776269D02*
X4883277Y-16785793D01*
X4883277Y-16785793D02*
X4921372Y-16785793D01*
X4921372Y-16785793D02*
X4940420Y-16776269D01*
X4940420Y-16776269D02*
X4949944Y-16766746D01*
X4949944Y-16766746D02*
X4959468Y-16747698D01*
X5026134Y-16661984D02*
X5149944Y-16661984D01*
X5149944Y-16661984D02*
X5083277Y-16738174D01*
X5083277Y-16738174D02*
X5111849Y-16738174D01*
X5111849Y-16738174D02*
X5130896Y-16747698D01*
X5130896Y-16747698D02*
X5140420Y-16757222D01*
X5140420Y-16757222D02*
X5149944Y-16776269D01*
X5149944Y-16776269D02*
X5149944Y-16823889D01*
X5149944Y-16823889D02*
X5140420Y-16842936D01*
X5140420Y-16842936D02*
X5130896Y-16852460D01*
X5130896Y-16852460D02*
X5111849Y-16861984D01*
X5111849Y-16861984D02*
X5054706Y-16861984D01*
X5054706Y-16861984D02*
X5035658Y-16852460D01*
X5035658Y-16852460D02*
X5026134Y-16842936D01*
X5226134Y-16661984D02*
X5226134Y-16700079D01*
X5302325Y-16661984D02*
X5302325Y-16700079D01*
X5597563Y-16938174D02*
X5588039Y-16928650D01*
X5588039Y-16928650D02*
X5568991Y-16900079D01*
X5568991Y-16900079D02*
X5559468Y-16881031D01*
X5559468Y-16881031D02*
X5549944Y-16852460D01*
X5549944Y-16852460D02*
X5540420Y-16804841D01*
X5540420Y-16804841D02*
X5540420Y-16766746D01*
X5540420Y-16766746D02*
X5549944Y-16719127D01*
X5549944Y-16719127D02*
X5559468Y-16690555D01*
X5559468Y-16690555D02*
X5568991Y-16671508D01*
X5568991Y-16671508D02*
X5588039Y-16642936D01*
X5588039Y-16642936D02*
X5597563Y-16633412D01*
X5759468Y-16728650D02*
X5759468Y-16861984D01*
X5711848Y-16652460D02*
X5664229Y-16795317D01*
X5664229Y-16795317D02*
X5788039Y-16795317D01*
X6016610Y-16861984D02*
X6016610Y-16661984D01*
X6102325Y-16861984D02*
X6102325Y-16757222D01*
X6102325Y-16757222D02*
X6092801Y-16738174D01*
X6092801Y-16738174D02*
X6073753Y-16728650D01*
X6073753Y-16728650D02*
X6045182Y-16728650D01*
X6045182Y-16728650D02*
X6026134Y-16738174D01*
X6026134Y-16738174D02*
X6016610Y-16747698D01*
X6226134Y-16861984D02*
X6207087Y-16852460D01*
X6207087Y-16852460D02*
X6197563Y-16842936D01*
X6197563Y-16842936D02*
X6188039Y-16823889D01*
X6188039Y-16823889D02*
X6188039Y-16766746D01*
X6188039Y-16766746D02*
X6197563Y-16747698D01*
X6197563Y-16747698D02*
X6207087Y-16738174D01*
X6207087Y-16738174D02*
X6226134Y-16728650D01*
X6226134Y-16728650D02*
X6254706Y-16728650D01*
X6254706Y-16728650D02*
X6273753Y-16738174D01*
X6273753Y-16738174D02*
X6283277Y-16747698D01*
X6283277Y-16747698D02*
X6292801Y-16766746D01*
X6292801Y-16766746D02*
X6292801Y-16823889D01*
X6292801Y-16823889D02*
X6283277Y-16842936D01*
X6283277Y-16842936D02*
X6273753Y-16852460D01*
X6273753Y-16852460D02*
X6254706Y-16861984D01*
X6254706Y-16861984D02*
X6226134Y-16861984D01*
X6407087Y-16861984D02*
X6388039Y-16852460D01*
X6388039Y-16852460D02*
X6378515Y-16833412D01*
X6378515Y-16833412D02*
X6378515Y-16661984D01*
X6559468Y-16852460D02*
X6540420Y-16861984D01*
X6540420Y-16861984D02*
X6502325Y-16861984D01*
X6502325Y-16861984D02*
X6483277Y-16852460D01*
X6483277Y-16852460D02*
X6473753Y-16833412D01*
X6473753Y-16833412D02*
X6473753Y-16757222D01*
X6473753Y-16757222D02*
X6483277Y-16738174D01*
X6483277Y-16738174D02*
X6502325Y-16728650D01*
X6502325Y-16728650D02*
X6540420Y-16728650D01*
X6540420Y-16728650D02*
X6559468Y-16738174D01*
X6559468Y-16738174D02*
X6568991Y-16757222D01*
X6568991Y-16757222D02*
X6568991Y-16776269D01*
X6568991Y-16776269D02*
X6473753Y-16795317D01*
X6645182Y-16852460D02*
X6664230Y-16861984D01*
X6664230Y-16861984D02*
X6702325Y-16861984D01*
X6702325Y-16861984D02*
X6721372Y-16852460D01*
X6721372Y-16852460D02*
X6730896Y-16833412D01*
X6730896Y-16833412D02*
X6730896Y-16823889D01*
X6730896Y-16823889D02*
X6721372Y-16804841D01*
X6721372Y-16804841D02*
X6702325Y-16795317D01*
X6702325Y-16795317D02*
X6673753Y-16795317D01*
X6673753Y-16795317D02*
X6654706Y-16785793D01*
X6654706Y-16785793D02*
X6645182Y-16766746D01*
X6645182Y-16766746D02*
X6645182Y-16757222D01*
X6645182Y-16757222D02*
X6654706Y-16738174D01*
X6654706Y-16738174D02*
X6673753Y-16728650D01*
X6673753Y-16728650D02*
X6702325Y-16728650D01*
X6702325Y-16728650D02*
X6721372Y-16738174D01*
X6797563Y-16938174D02*
X6807087Y-16928650D01*
X6807087Y-16928650D02*
X6826134Y-16900079D01*
X6826134Y-16900079D02*
X6835658Y-16881031D01*
X6835658Y-16881031D02*
X6845182Y-16852460D01*
X6845182Y-16852460D02*
X6854706Y-16804841D01*
X6854706Y-16804841D02*
X6854706Y-16766746D01*
X6854706Y-16766746D02*
X6845182Y-16719127D01*
X6845182Y-16719127D02*
X6835658Y-16690555D01*
X6835658Y-16690555D02*
X6826134Y-16671508D01*
X6826134Y-16671508D02*
X6807087Y-16642936D01*
X6807087Y-16642936D02*
X6797563Y-16633412D01*
M02*
