M48
; DRILL file {KiCad 7.0.11} date Monday, January 05, 2026 at 11:39:19 AM
; FORMAT={-:-/ absolute / inch / decimal}
; #@! TF.CreationDate,2026-01-05T11:39:19-05:00
; #@! TF.GenerationSoftware,Kicad,Pcbnew,7.0.11
; #@! TF.FileFunction,Plated,1,2,PTH
FMAT,2
INCH
; #@! TA.AperFunction,Plated,PTH,ComponentDrill
T1C0.0394
; #@! TA.AperFunction,Plated,PTH,ComponentDrill
T2C0.0433
; #@! TA.AperFunction,Plated,PTH,ComponentDrill
T3C0.1693
%
G90
G05
T1
X2.1756Y-4.0039
X2.1756Y-4.1039
X2.2756Y-4.0039
X2.2756Y-4.1039
X2.3756Y-4.0039
X2.3756Y-4.1039
X2.4756Y-4.0039
X2.4756Y-4.1039
X2.5756Y-4.0039
X2.5756Y-4.1039
X2.6756Y-4.0039
X2.6756Y-4.1039
X2.7756Y-4.0039
X2.7756Y-4.1039
X2.8756Y-4.0039
X2.8756Y-4.1039
X2.9756Y-4.0039
X2.9756Y-4.1039
X3.0756Y-4.0039
X3.0756Y-4.1039
X3.1756Y-4.0039
X3.1756Y-4.1039
X3.2756Y-4.0039
X3.2756Y-4.1039
X3.3756Y-4.0039
X3.3756Y-4.1039
X3.4756Y-4.0039
X3.4756Y-4.1039
X3.5756Y-4.0039
X3.5756Y-4.1039
X3.6756Y-4.0039
X3.6756Y-4.1039
X3.7756Y-4.0039
X3.7756Y-4.1039
X3.8756Y-4.0039
X3.8756Y-4.1039
X3.9756Y-4.0039
X3.9756Y-4.1039
X4.0756Y-4.0039
X4.0756Y-4.1039
T2
X1.2548Y-4.812
X1.2548Y-4.9892
X1.2548Y-5.1663
X1.3237Y-4.6742
X1.3237Y-5.3041
X1.4812Y-5.3435
X1.4847Y-4.627
X1.6387Y-4.6742
X1.6387Y-5.3041
X1.7076Y-4.812
X1.7076Y-4.9892
X1.7076Y-5.1663
X2.18Y-4.812
X2.18Y-4.9892
X2.18Y-5.1663
X2.2489Y-4.6742
X2.2489Y-5.3041
X2.4064Y-5.3435
X2.4099Y-4.627
X2.5639Y-4.6742
X2.5639Y-5.3041
X2.6328Y-4.812
X2.6328Y-4.9892
X2.6328Y-5.1663
X3.6761Y-4.812
X3.6761Y-4.9892
X3.6761Y-5.1663
X3.745Y-4.6742
X3.745Y-5.3041
X3.9025Y-5.3435
X3.906Y-4.627
X4.06Y-4.6742
X4.06Y-5.3041
X4.1289Y-4.812
X4.1289Y-4.9892
X4.1289Y-5.1663
X4.6013Y-4.812
X4.6013Y-4.9892
X4.6013Y-5.1663
X4.6702Y-4.6742
X4.6702Y-5.3041
X4.8277Y-5.3435
X4.8312Y-4.627
X4.9852Y-4.6742
X4.9852Y-5.3041
X5.0541Y-4.812
X5.0541Y-4.9892
X5.0541Y-5.1663
T3
X1.0138Y-4.0551
X1.0138Y-5.9252
X5.3051Y-4.0551
X5.3051Y-5.9252
M30
