%TF.GenerationSoftware,KiCad,Pcbnew,7.0.11*%
%TF.CreationDate,2026-01-05T11:39:17-05:00*%
%TF.ProjectId,clock_iv22_board,636c6f63-6b5f-4697-9632-325f626f6172,rev?*%
%TF.SameCoordinates,Original*%
%TF.FileFunction,Copper,L1,Top*%
%TF.FilePolarity,Positive*%
%FSLAX46Y46*%
G04 Gerber Fmt 4.6, Leading zero omitted, Abs format (unit mm)*
G04 Created by KiCad (PCBNEW 7.0.11) date 2026-01-05 11:39:17*
%MOMM*%
%LPD*%
G01*
G04 APERTURE LIST*
%TA.AperFunction,ComponentPad*%
%ADD10C,8.600000*%
%TD*%
%TA.AperFunction,ComponentPad*%
%ADD11C,2.000000*%
%TD*%
%TA.AperFunction,ComponentPad*%
%ADD12R,1.700000X1.700000*%
%TD*%
%TA.AperFunction,ComponentPad*%
%ADD13O,1.700000X1.700000*%
%TD*%
%TA.AperFunction,Conductor*%
%ADD14C,0.200000*%
%TD*%
G04 APERTURE END LIST*
D10*
%TO.P,H4,1,1*%
%TO.N,GND*%
X134750000Y-150500000D03*
%TD*%
%TO.P,H3,1,1*%
%TO.N,GND*%
X25750000Y-150500000D03*
%TD*%
%TO.P,H2,1,1*%
%TO.N,GND*%
X134750000Y-103000000D03*
%TD*%
D11*
%TO.P,V1,1,Pin_1*%
%TO.N,unconnected-(V1-Pin_1-Pad1)*%
X41623000Y-134724600D03*
%TO.P,V1,2,Pin_2*%
%TO.N,OUT_DIG_0_SEG_F*%
X43373000Y-131224600D03*
%TO.P,V1,3,Pin_3*%
%TO.N,OUT_DIG_0_SEG_D*%
X43373000Y-126724600D03*
%TO.P,V1,4,Pin_4*%
%TO.N,OUT_DIG_0_SEG_C*%
X43373000Y-122224600D03*
%TO.P,V1,5,Pin_5*%
%TO.N,FILIN_1*%
X41623000Y-118724600D03*
%TO.P,V1,6,Pin_6*%
%TO.N,+24V*%
X37711900Y-117524600D03*
%TO.P,V1,7,Pin_7*%
%TO.N,OUT_DIG_0_SEG_A*%
X33623000Y-118724600D03*
%TO.P,V1,8,Pin_8*%
%TO.N,OUT_DIG_0_SEG_B*%
X31873000Y-122224600D03*
%TO.P,V1,9,Pin_9*%
%TO.N,unconnected-(V1-Pin_9-Pad9)*%
X31873000Y-126724600D03*
%TO.P,V1,10,Pin_10*%
%TO.N,OUT_DIG_0_SEG_E*%
X31873000Y-131224600D03*
%TO.P,V1,11,Pin_11*%
%TO.N,OUT_DIG_0_SEG_G*%
X33623000Y-134724600D03*
%TO.P,V1,12,Pin_12*%
%TO.N,FILOUT_1*%
X37623000Y-135724600D03*
%TD*%
%TO.P,V3,1,Pin_1*%
%TO.N,unconnected-(V3-Pin_1-Pad1)*%
X103123000Y-134724600D03*
%TO.P,V3,2,Pin_2*%
%TO.N,OUT_DIG_2_SEG_F*%
X104873000Y-131224600D03*
%TO.P,V3,3,Pin_3*%
%TO.N,OUT_DIG_2_SEG_D*%
X104873000Y-126724600D03*
%TO.P,V3,4,Pin_4*%
%TO.N,OUT_DIG_2_SEG_C*%
X104873000Y-122224600D03*
%TO.P,V3,5,Pin_5*%
%TO.N,FILIN_3*%
X103123000Y-118724600D03*
%TO.P,V3,6,Pin_6*%
%TO.N,+24V*%
X99211900Y-117524600D03*
%TO.P,V3,7,Pin_7*%
%TO.N,OUT_DIG_2_SEG_A*%
X95123000Y-118724600D03*
%TO.P,V3,8,Pin_8*%
%TO.N,OUT_DIG_2_SEG_B*%
X93373000Y-122224600D03*
%TO.P,V3,9,Pin_9*%
%TO.N,unconnected-(V3-Pin_9-Pad9)*%
X93373000Y-126724600D03*
%TO.P,V3,10,Pin_10*%
%TO.N,OUT_DIG_2_SEG_E*%
X93373000Y-131224600D03*
%TO.P,V3,11,Pin_11*%
%TO.N,OUT_DIG_2_SEG_G*%
X95123000Y-134724600D03*
%TO.P,V3,12,Pin_12*%
%TO.N,FILOUT_3*%
X99123000Y-135724600D03*
%TD*%
D10*
%TO.P,H1,1,1*%
%TO.N,GND*%
X25750000Y-103000000D03*
%TD*%
D11*
%TO.P,V2,1,Pin_1*%
%TO.N,unconnected-(V2-Pin_1-Pad1)*%
X65123000Y-134724600D03*
%TO.P,V2,2,Pin_2*%
%TO.N,OUT_DIG_1_SEG_F*%
X66873000Y-131224600D03*
%TO.P,V2,3,Pin_3*%
%TO.N,OUT_DIG_1_SEG_D*%
X66873000Y-126724600D03*
%TO.P,V2,4,Pin_4*%
%TO.N,OUT_DIG_1_SEG_C*%
X66873000Y-122224600D03*
%TO.P,V2,5,Pin_5*%
%TO.N,FILIN_2*%
X65123000Y-118724600D03*
%TO.P,V2,6,Pin_6*%
%TO.N,+24V*%
X61211900Y-117524600D03*
%TO.P,V2,7,Pin_7*%
%TO.N,OUT_DIG_1_SEG_A*%
X57123000Y-118724600D03*
%TO.P,V2,8,Pin_8*%
%TO.N,OUT_DIG_1_SEG_B*%
X55373000Y-122224600D03*
%TO.P,V2,9,Pin_9*%
%TO.N,unconnected-(V2-Pin_9-Pad9)*%
X55373000Y-126724600D03*
%TO.P,V2,10,Pin_10*%
%TO.N,OUT_DIG_1_SEG_E*%
X55373000Y-131224600D03*
%TO.P,V2,11,Pin_11*%
%TO.N,OUT_DIG_1_SEG_G*%
X57123000Y-134724600D03*
%TO.P,V2,12,Pin_12*%
%TO.N,FILOUT_2*%
X61123000Y-135724600D03*
%TD*%
%TO.P,V4,1,Pin_1*%
%TO.N,unconnected-(V4-Pin_1-Pad1)*%
X126623000Y-134724600D03*
%TO.P,V4,2,Pin_2*%
%TO.N,OUT_DIG_3_SEG_F*%
X128373000Y-131224600D03*
%TO.P,V4,3,Pin_3*%
%TO.N,OUT_DIG_3_SEG_D*%
X128373000Y-126724600D03*
%TO.P,V4,4,Pin_4*%
%TO.N,OUT_DIG_3_SEG_C*%
X128373000Y-122224600D03*
%TO.P,V4,5,Pin_5*%
%TO.N,FILIN_4*%
X126623000Y-118724600D03*
%TO.P,V4,6,Pin_6*%
%TO.N,+24V*%
X122711900Y-117524600D03*
%TO.P,V4,7,Pin_7*%
%TO.N,OUT_DIG_3_SEG_A*%
X118623000Y-118724600D03*
%TO.P,V4,8,Pin_8*%
%TO.N,OUT_DIG_3_SEG_B*%
X116873000Y-122224600D03*
%TO.P,V4,9,Pin_9*%
%TO.N,unconnected-(V4-Pin_9-Pad9)*%
X116873000Y-126724600D03*
%TO.P,V4,10,Pin_10*%
%TO.N,OUT_DIG_3_SEG_E*%
X116873000Y-131224600D03*
%TO.P,V4,11,Pin_11*%
%TO.N,OUT_DIG_3_SEG_G*%
X118623000Y-134724600D03*
%TO.P,V4,12,Pin_12*%
%TO.N,FILOUT_4*%
X122623000Y-135724600D03*
%TD*%
D12*
%TO.P,J1,1,Pin_1*%
%TO.N,FILIN_1*%
X55260000Y-101700000D03*
D13*
%TO.P,J1,2,Pin_2*%
X55260000Y-104240000D03*
%TO.P,J1,3,Pin_3*%
%TO.N,GND*%
X57800000Y-101700000D03*
%TO.P,J1,4,Pin_4*%
X57800000Y-104240000D03*
%TO.P,J1,5,Pin_5*%
%TO.N,+24V*%
X60340000Y-101700000D03*
%TO.P,J1,6,Pin_6*%
X60340000Y-104240000D03*
%TO.P,J1,7,Pin_7*%
%TO.N,OUT_DIG_0_SEG_A*%
X62880000Y-101700000D03*
%TO.P,J1,8,Pin_8*%
%TO.N,OUT_DIG_0_SEG_B*%
X62880000Y-104240000D03*
%TO.P,J1,9,Pin_9*%
%TO.N,OUT_DIG_0_SEG_C*%
X65420000Y-101700000D03*
%TO.P,J1,10,Pin_10*%
%TO.N,OUT_DIG_0_SEG_D*%
X65420000Y-104240000D03*
%TO.P,J1,11,Pin_11*%
%TO.N,OUT_DIG_0_SEG_E*%
X67960000Y-101700000D03*
%TO.P,J1,12,Pin_12*%
%TO.N,OUT_DIG_0_SEG_F*%
X67960000Y-104240000D03*
%TO.P,J1,13,Pin_13*%
%TO.N,OUT_DIG_0_SEG_G*%
X70500000Y-101700000D03*
%TO.P,J1,14,Pin_14*%
%TO.N,OUT_DIG_1_SEG_A*%
X70500000Y-104240000D03*
%TO.P,J1,15,Pin_15*%
%TO.N,OUT_DIG_1_SEG_B*%
X73040000Y-101700000D03*
%TO.P,J1,16,Pin_16*%
%TO.N,OUT_DIG_1_SEG_C*%
X73040000Y-104240000D03*
%TO.P,J1,17,Pin_17*%
%TO.N,OUT_DIG_1_SEG_D*%
X75580000Y-101700000D03*
%TO.P,J1,18,Pin_18*%
%TO.N,OUT_DIG_1_SEG_E*%
X75580000Y-104240000D03*
%TO.P,J1,19,Pin_19*%
%TO.N,OUT_DIG_1_SEG_F*%
X78120000Y-101700000D03*
%TO.P,J1,20,Pin_20*%
%TO.N,OUT_DIG_1_SEG_G*%
X78120000Y-104240000D03*
%TO.P,J1,21,Pin_21*%
%TO.N,OUT_DIG_2_SEG_A*%
X80660000Y-101700000D03*
%TO.P,J1,22,Pin_22*%
%TO.N,OUT_DIG_2_SEG_B*%
X80660000Y-104240000D03*
%TO.P,J1,23,Pin_23*%
%TO.N,OUT_DIG_2_SEG_C*%
X83200000Y-101700000D03*
%TO.P,J1,24,Pin_24*%
%TO.N,OUT_DIG_2_SEG_D*%
X83200000Y-104240000D03*
%TO.P,J1,25,Pin_25*%
%TO.N,OUT_DIG_2_SEG_E*%
X85740000Y-101700000D03*
%TO.P,J1,26,Pin_26*%
%TO.N,OUT_DIG_2_SEG_F*%
X85740000Y-104240000D03*
%TO.P,J1,27,Pin_27*%
%TO.N,OUT_DIG_2_SEG_G*%
X88280000Y-101700000D03*
%TO.P,J1,28,Pin_28*%
%TO.N,OUT_DIG_3_SEG_A*%
X88280000Y-104240000D03*
%TO.P,J1,29,Pin_29*%
%TO.N,OUT_DIG_3_SEG_B*%
X90820000Y-101700000D03*
%TO.P,J1,30,Pin_30*%
%TO.N,OUT_DIG_3_SEG_C*%
X90820000Y-104240000D03*
%TO.P,J1,31,Pin_31*%
%TO.N,OUT_DIG_3_SEG_D*%
X93360000Y-101700000D03*
%TO.P,J1,32,Pin_32*%
%TO.N,OUT_DIG_3_SEG_E*%
X93360000Y-104240000D03*
%TO.P,J1,33,Pin_33*%
%TO.N,OUT_DIG_3_SEG_F*%
X95900000Y-101700000D03*
%TO.P,J1,34,Pin_34*%
%TO.N,OUT_DIG_3_SEG_G*%
X95900000Y-104240000D03*
%TO.P,J1,35,Pin_35*%
%TO.N,+24V*%
X98440000Y-101700000D03*
%TO.P,J1,36,Pin_36*%
X98440000Y-104240000D03*
%TO.P,J1,37,Pin_37*%
%TO.N,GND*%
X100980000Y-101700000D03*
%TO.P,J1,38,Pin_38*%
X100980000Y-104240000D03*
%TO.P,J1,39,Pin_39*%
%TO.N,FILOUT_4*%
X103520000Y-101700000D03*
%TO.P,J1,40,Pin_40*%
X103520000Y-104240000D03*
%TD*%
D14*
%TO.N,OUT_DIG_0_SEG_A*%
X52605885Y-114900000D02*
X37447600Y-114900000D01*
X55105884Y-112400000D02*
X52605885Y-114900000D01*
X61600000Y-102700000D02*
X61600000Y-107340199D01*
X61490000Y-112110000D02*
X61200000Y-112400000D01*
X62880000Y-101700000D02*
X62600000Y-101700000D01*
X61200000Y-112400000D02*
X55105884Y-112400000D01*
X37447600Y-114900000D02*
X33623000Y-118724600D01*
X62600000Y-101700000D02*
X61600000Y-102700000D01*
X61600000Y-107340199D02*
X61489999Y-107450201D01*
X61489999Y-107450201D02*
X61490000Y-112110000D01*
%TO.N,OUT_DIG_0_SEG_B*%
X62880000Y-104240000D02*
X62880000Y-106625884D01*
X42750000Y-120150000D02*
X40675400Y-122224600D01*
X62880000Y-106625884D02*
X61890000Y-107615884D01*
X40675400Y-122224600D02*
X31873000Y-122224600D01*
X47921574Y-120150000D02*
X42750000Y-120150000D01*
X61890000Y-107615884D02*
X61890000Y-112275686D01*
X61365685Y-112800000D02*
X55271570Y-112800000D01*
X61890000Y-112275686D02*
X61365685Y-112800000D01*
X55271570Y-112800000D02*
X47921574Y-120150000D01*
%TO.N,OUT_DIG_0_SEG_C*%
X46412656Y-122224600D02*
X43373000Y-122224600D01*
X62289999Y-107781572D02*
X62289999Y-112441372D01*
X64150000Y-101950000D02*
X64150000Y-105950000D01*
X64400000Y-101700000D02*
X64150000Y-101950000D01*
X65420000Y-101700000D02*
X64400000Y-101700000D01*
X63771570Y-106300000D02*
X62289999Y-107781572D01*
X61531370Y-113200000D02*
X55437256Y-113200000D01*
X63800000Y-106300000D02*
X63771570Y-106300000D01*
X55437256Y-113200000D02*
X46412656Y-122224600D01*
X62289999Y-112441372D02*
X61531370Y-113200000D01*
X64150000Y-105950000D02*
X63800000Y-106300000D01*
%TO.N,OUT_DIG_0_SEG_D*%
X48200000Y-125400000D02*
X46875400Y-126724600D01*
X46875400Y-126724600D02*
X43373000Y-126724600D01*
X65100000Y-106700000D02*
X63937256Y-106700000D01*
X61697055Y-113600000D02*
X55602945Y-113600000D01*
X62689999Y-107947257D02*
X62689999Y-112607058D01*
X65420000Y-106380000D02*
X65100000Y-106700000D01*
X48200000Y-121002945D02*
X48200000Y-125400000D01*
X65420000Y-104240000D02*
X65420000Y-106380000D01*
X55602945Y-113600000D02*
X48200000Y-121002945D01*
X63937256Y-106700000D02*
X62689999Y-107947257D01*
X62689999Y-112607058D02*
X61697055Y-113600000D01*
%TO.N,OUT_DIG_0_SEG_E*%
X66700000Y-106500000D02*
X66100000Y-107100000D01*
X67960000Y-101700000D02*
X66700000Y-102960000D01*
X61862740Y-114000000D02*
X55768628Y-114000000D01*
X48600000Y-128400000D02*
X48100000Y-128900000D01*
X66100000Y-107100000D02*
X64102942Y-107100000D01*
X39275400Y-131224600D02*
X31873000Y-131224600D01*
X41600000Y-128900000D02*
X39275400Y-131224600D01*
X64102942Y-107100000D02*
X63089997Y-108112946D01*
X48100000Y-128900000D02*
X41600000Y-128900000D01*
X48600000Y-121168630D02*
X48600000Y-128400000D01*
X63089998Y-112772744D02*
X61862740Y-114000000D01*
X66700000Y-102960000D02*
X66700000Y-106500000D01*
X55768628Y-114000000D02*
X48600000Y-121168630D01*
X63089997Y-108112946D02*
X63089998Y-112772744D01*
%TO.N,OUT_DIG_0_SEG_F*%
X63489997Y-108278631D02*
X63489997Y-112938430D01*
X63489997Y-112938430D02*
X62028425Y-114400000D01*
X55934315Y-114400000D02*
X49000000Y-121334315D01*
X49000000Y-121334315D02*
X49000000Y-130700000D01*
X67068628Y-107500000D02*
X64268628Y-107500000D01*
X62028425Y-114400000D02*
X55934315Y-114400000D01*
X64268628Y-107500000D02*
X63489997Y-108278631D01*
X67960000Y-104240000D02*
X67960000Y-106608628D01*
X48475400Y-131224600D02*
X43373000Y-131224600D01*
X49000000Y-130700000D02*
X48475400Y-131224600D01*
X67960000Y-106608628D02*
X67068628Y-107500000D01*
%TO.N,OUT_DIG_0_SEG_G*%
X69000000Y-106500000D02*
X68634314Y-106500000D01*
X49400000Y-135400000D02*
X46100000Y-138700000D01*
X62194110Y-114800000D02*
X56100000Y-114800000D01*
X63889997Y-113104116D02*
X62194110Y-114800000D01*
X69250000Y-106250000D02*
X69000000Y-106500000D01*
X56100000Y-114800000D02*
X49400000Y-121500000D01*
X46100000Y-138700000D02*
X35600000Y-138700000D01*
X70500000Y-101700000D02*
X69500000Y-101700000D01*
X64434314Y-107900000D02*
X63889997Y-108444317D01*
X49400000Y-121500000D02*
X49400000Y-135400000D01*
X68634314Y-106500000D02*
X67234314Y-107900000D01*
X63889997Y-108444317D02*
X63889997Y-113104116D01*
X69250000Y-101950000D02*
X69250000Y-106250000D01*
X67234314Y-107900000D02*
X64434314Y-107900000D01*
X35600000Y-138700000D02*
X33623000Y-136723000D01*
X33623000Y-136723000D02*
X33623000Y-134724600D01*
X69500000Y-101700000D02*
X69250000Y-101950000D01*
%TO.N,OUT_DIG_1_SEG_A*%
X70500000Y-104240000D02*
X70500000Y-106000000D01*
X64600000Y-108300000D02*
X64289997Y-108610003D01*
X67400000Y-108300000D02*
X64600000Y-108300000D01*
X64289996Y-113269802D02*
X62359795Y-115200000D01*
X64289997Y-108610003D02*
X64289996Y-113269802D01*
X68800000Y-106900000D02*
X67400000Y-108300000D01*
X57123000Y-115677000D02*
X57123000Y-118724600D01*
X57600000Y-115200000D02*
X57123000Y-115677000D01*
X62359795Y-115200000D02*
X57600000Y-115200000D01*
X69600000Y-106900000D02*
X68800000Y-106900000D01*
X70500000Y-106000000D02*
X69600000Y-106900000D01*
%TO.N,OUT_DIG_1_SEG_B*%
X64200000Y-122200000D02*
X55397600Y-122200000D01*
X72300000Y-106000000D02*
X72300000Y-119400000D01*
X71775000Y-102925000D02*
X71775000Y-105475000D01*
X55397600Y-122200000D02*
X55373000Y-122224600D01*
X72300000Y-119400000D02*
X71600000Y-120100000D01*
X71775000Y-105475000D02*
X72300000Y-106000000D01*
X73040000Y-101700000D02*
X72040000Y-102700000D01*
X66300000Y-120100000D02*
X64200000Y-122200000D01*
X72040000Y-102700000D02*
X72000000Y-102700000D01*
X71600000Y-120100000D02*
X66300000Y-120100000D01*
X72000000Y-102700000D02*
X71775000Y-102925000D01*
%TO.N,OUT_DIG_1_SEG_C*%
X73040000Y-105700000D02*
X72700000Y-106040000D01*
X73040000Y-104240000D02*
X73040000Y-105700000D01*
X72700000Y-121700000D02*
X72175400Y-122224600D01*
X72700000Y-106040000D02*
X72700000Y-121700000D01*
X72175400Y-122224600D02*
X66873000Y-122224600D01*
%TO.N,OUT_DIG_1_SEG_D*%
X71675400Y-126724600D02*
X66873000Y-126724600D01*
X74325000Y-102955000D02*
X74325000Y-105275002D01*
X74325000Y-105275002D02*
X73100000Y-106500002D01*
X75580000Y-101700000D02*
X74325000Y-102955000D01*
X73100000Y-106500002D02*
X73100000Y-125300000D01*
X73100000Y-125300000D02*
X71675400Y-126724600D01*
%TO.N,OUT_DIG_1_SEG_E*%
X75580000Y-105520000D02*
X75150000Y-105950000D01*
X75580000Y-104240000D02*
X75580000Y-105520000D01*
X62475400Y-131224600D02*
X55373000Y-131224600D01*
X73500000Y-106665687D02*
X73500000Y-128400000D01*
X72900000Y-129000000D02*
X64700000Y-129000000D01*
X74215686Y-105950000D02*
X73500000Y-106665687D01*
X64700000Y-129000000D02*
X62475400Y-131224600D01*
X73500000Y-128400000D02*
X72900000Y-129000000D01*
X75150000Y-105950000D02*
X74215686Y-105950000D01*
%TO.N,OUT_DIG_1_SEG_F*%
X78120000Y-101700000D02*
X76850000Y-102970000D01*
X73900000Y-131000000D02*
X73675400Y-131224600D01*
X73675400Y-131224600D02*
X66873000Y-131224600D01*
X76450000Y-106350000D02*
X74381372Y-106350000D01*
X73900000Y-106831372D02*
X73900000Y-131000000D01*
X74381372Y-106350000D02*
X73900000Y-106831372D01*
X76850000Y-105950000D02*
X76450000Y-106350000D01*
X76850000Y-102970000D02*
X76850000Y-105950000D01*
%TO.N,OUT_DIG_1_SEG_G*%
X57123000Y-137923000D02*
X57123000Y-134724600D01*
X73900000Y-138100000D02*
X57300000Y-138100000D01*
X78120000Y-104240000D02*
X78120000Y-105245685D01*
X74300000Y-137700000D02*
X73900000Y-138100000D01*
X74547058Y-106750000D02*
X74300000Y-106997058D01*
X78120000Y-105245685D02*
X76615685Y-106750000D01*
X57300000Y-138100000D02*
X57123000Y-137923000D01*
X76615685Y-106750000D02*
X74547058Y-106750000D01*
X74300000Y-106997058D02*
X74300000Y-137700000D01*
%TO.N,OUT_DIG_2_SEG_A*%
X81318629Y-106415685D02*
X83102945Y-108200000D01*
X85480001Y-112339802D02*
X87940201Y-114800000D01*
X94600000Y-114800000D02*
X95123000Y-115323000D01*
X87940201Y-114800000D02*
X94600000Y-114800000D01*
X85480001Y-108808428D02*
X85480001Y-112339802D01*
X80660000Y-101700000D02*
X79400000Y-102960000D01*
X79400000Y-102960000D02*
X79400000Y-105800000D01*
X84871573Y-108200000D02*
X85480001Y-108808428D01*
X79400000Y-105800000D02*
X80015685Y-106415685D01*
X83102945Y-108200000D02*
X84871573Y-108200000D01*
X80015685Y-106415685D02*
X81318629Y-106415685D01*
X95123000Y-115323000D02*
X95123000Y-118724600D01*
%TO.N,OUT_DIG_2_SEG_B*%
X96175400Y-122224600D02*
X93373000Y-122224600D01*
X83268630Y-107800000D02*
X85037259Y-107800000D01*
X97250000Y-121150000D02*
X96175400Y-122224600D01*
X85880001Y-112174116D02*
X88105886Y-114400000D01*
X80660000Y-104240000D02*
X80660000Y-105760000D01*
X96800000Y-114400000D02*
X97250000Y-114850000D01*
X80915685Y-106015685D02*
X81484315Y-106015685D01*
X85037259Y-107800000D02*
X85880001Y-108642742D01*
X80660000Y-105760000D02*
X80915685Y-106015685D01*
X97250000Y-114850000D02*
X97250000Y-121150000D01*
X81484315Y-106015685D02*
X83268630Y-107800000D01*
X85880001Y-108642742D02*
X85880001Y-112174116D01*
X88105886Y-114400000D02*
X96800000Y-114400000D01*
%TO.N,OUT_DIG_2_SEG_C*%
X106300000Y-114000000D02*
X107100000Y-114800000D01*
X88271571Y-114000000D02*
X106300000Y-114000000D01*
X86280000Y-108477056D02*
X86280001Y-112008430D01*
X83200000Y-101700000D02*
X83100000Y-101700000D01*
X83434315Y-107400000D02*
X85202944Y-107400000D01*
X83100000Y-101700000D02*
X81925000Y-102875000D01*
X81925000Y-105890685D02*
X83434315Y-107400000D01*
X86280001Y-112008430D02*
X88271571Y-114000000D01*
X107100000Y-121400000D02*
X106275400Y-122224600D01*
X81925000Y-102875000D02*
X81925000Y-105890685D01*
X107100000Y-114800000D02*
X107100000Y-121400000D01*
X106275400Y-122224600D02*
X104873000Y-122224600D01*
X85202944Y-107400000D02*
X86280000Y-108477056D01*
%TO.N,OUT_DIG_2_SEG_D*%
X86680000Y-108311371D02*
X86680000Y-111842744D01*
X107500000Y-114500000D02*
X107500000Y-126300000D01*
X107500000Y-126300000D02*
X107075400Y-126724600D01*
X85368630Y-107000000D02*
X86680000Y-108311371D01*
X88437259Y-113600000D02*
X106600000Y-113600000D01*
X86680000Y-111842744D02*
X88437259Y-113600000D01*
X106600000Y-113600000D02*
X107500000Y-114500000D01*
X83600000Y-107000000D02*
X85368630Y-107000000D01*
X83200000Y-104240000D02*
X83200000Y-106600000D01*
X83200000Y-106600000D02*
X83600000Y-107000000D01*
X107075400Y-126724600D02*
X104873000Y-126724600D01*
%TO.N,OUT_DIG_2_SEG_E*%
X84475000Y-106375000D02*
X84700000Y-106600000D01*
X101375400Y-131224600D02*
X93373000Y-131224600D01*
X103350000Y-129250000D02*
X101375400Y-131224600D01*
X84700000Y-106600000D02*
X85534316Y-106600000D01*
X87080000Y-108145686D02*
X87080000Y-111677058D01*
X107900000Y-114334315D02*
X107900000Y-127900000D01*
X106765686Y-113200000D02*
X107900000Y-114334315D01*
X85534316Y-106600000D02*
X87080000Y-108145686D01*
X107900000Y-127900000D02*
X106550000Y-129250000D01*
X88602944Y-113200000D02*
X106765686Y-113200000D01*
X87080000Y-111677058D02*
X88602944Y-113200000D01*
X106550000Y-129250000D02*
X103350000Y-129250000D01*
X85740000Y-101700000D02*
X84475000Y-102965000D01*
X84475000Y-102965000D02*
X84475000Y-106375000D01*
%TO.N,OUT_DIG_2_SEG_F*%
X87480000Y-107980001D02*
X87480000Y-111511372D01*
X85740000Y-104240000D02*
X85740000Y-106240000D01*
X87480000Y-111511372D02*
X88768628Y-112800000D01*
X106931372Y-112800000D02*
X108300000Y-114168630D01*
X88768628Y-112800000D02*
X106931372Y-112800000D01*
X108300000Y-114168630D02*
X108300000Y-130900000D01*
X85740000Y-106240000D02*
X87480000Y-107980001D01*
X108300000Y-130900000D02*
X107975400Y-131224600D01*
X107975400Y-131224600D02*
X104873000Y-131224600D01*
%TO.N,OUT_DIG_2_SEG_G*%
X108700000Y-114002945D02*
X108700000Y-132400000D01*
X107097058Y-112400000D02*
X108700000Y-114002945D01*
X87880000Y-111345686D02*
X88934314Y-112400000D01*
X88280000Y-101700000D02*
X88100000Y-101700000D01*
X88100000Y-101700000D02*
X87000000Y-102800000D01*
X87000000Y-102800000D02*
X87000000Y-106934316D01*
X87880000Y-107814316D02*
X87880000Y-111345686D01*
X88934314Y-112400000D02*
X107097058Y-112400000D01*
X96847600Y-133000000D02*
X95123000Y-134724600D01*
X108100000Y-133000000D02*
X96847600Y-133000000D01*
X87000000Y-106934316D02*
X87880000Y-107814316D01*
X108700000Y-132400000D02*
X108100000Y-133000000D01*
%TO.N,OUT_DIG_3_SEG_A*%
X88280000Y-111180000D02*
X89100000Y-112000000D01*
X88280000Y-104240000D02*
X88280000Y-111180000D01*
X89100000Y-112000000D02*
X118300000Y-112000000D01*
X118623000Y-112323000D02*
X118623000Y-118724600D01*
X118300000Y-112000000D02*
X118623000Y-112323000D01*
%TO.N,OUT_DIG_3_SEG_B*%
X90420000Y-111020000D02*
X91000000Y-111600000D01*
X90820000Y-101700000D02*
X90700000Y-101700000D01*
X89550000Y-106050000D02*
X90420000Y-106920000D01*
X119500000Y-111600000D02*
X120500000Y-112600000D01*
X120500000Y-112600000D02*
X120500000Y-121500000D01*
X120500000Y-121500000D02*
X119775400Y-122224600D01*
X90700000Y-101700000D02*
X89550000Y-102850000D01*
X90420000Y-106920000D02*
X90420000Y-111020000D01*
X89550000Y-102850000D02*
X89550000Y-106050000D01*
X91000000Y-111600000D02*
X119500000Y-111600000D01*
X119775400Y-122224600D02*
X116873000Y-122224600D01*
%TO.N,OUT_DIG_3_SEG_C*%
X131250000Y-115015686D02*
X131250000Y-121500000D01*
X91165686Y-111200000D02*
X127434314Y-111200000D01*
X127434314Y-111200000D02*
X131250000Y-115015686D01*
X90820000Y-110854314D02*
X91165686Y-111200000D01*
X131250000Y-121500000D02*
X130525400Y-122224600D01*
X130525400Y-122224600D02*
X128373000Y-122224600D01*
X90820000Y-104240000D02*
X90820000Y-110854314D01*
%TO.N,OUT_DIG_3_SEG_D*%
X131650000Y-114850001D02*
X131650000Y-126250000D01*
X95500000Y-110165685D02*
X96134314Y-110800000D01*
X131175400Y-126724600D02*
X128373000Y-126724600D01*
X96134314Y-110800000D02*
X127600000Y-110800000D01*
X95500000Y-106500000D02*
X95500000Y-110165685D01*
X131650000Y-126250000D02*
X131175400Y-126724600D01*
X94625000Y-105625000D02*
X95500000Y-106500000D01*
X94625000Y-102965000D02*
X94625000Y-105625000D01*
X93360000Y-101700000D02*
X94625000Y-102965000D01*
X127600000Y-110800000D02*
X131650000Y-114850001D01*
%TO.N,OUT_DIG_3_SEG_E*%
X92150000Y-100350000D02*
X92150000Y-104100000D01*
X116775000Y-137725000D02*
X116950000Y-137900000D01*
X99500000Y-100100000D02*
X92400000Y-100100000D01*
X116775000Y-131322600D02*
X116775000Y-137725000D01*
X132850000Y-114352945D02*
X128097058Y-109600000D01*
X92400000Y-100100000D02*
X92150000Y-100350000D01*
X92290000Y-104240000D02*
X93360000Y-104240000D01*
X116950000Y-137900000D02*
X132200000Y-137900000D01*
X92150000Y-104100000D02*
X92290000Y-104240000D01*
X132200000Y-137900000D02*
X132850000Y-137250000D01*
X100200000Y-109600000D02*
X99700000Y-109100000D01*
X116873000Y-131224600D02*
X116775000Y-131322600D01*
X99700000Y-100300000D02*
X99500000Y-100100000D01*
X132850000Y-137250000D02*
X132850000Y-114352945D01*
X99700000Y-109100000D02*
X99700000Y-100300000D01*
X128097058Y-109600000D02*
X100200000Y-109600000D01*
%TO.N,OUT_DIG_3_SEG_F*%
X132450000Y-114518631D02*
X132450000Y-130550000D01*
X96300000Y-106400000D02*
X96300000Y-109834314D01*
X97175000Y-105525000D02*
X96300000Y-106400000D01*
X96300000Y-109834314D02*
X96465686Y-110000000D01*
X95900000Y-101700000D02*
X96100000Y-101700000D01*
X127931372Y-110000000D02*
X132450000Y-114518631D01*
X97175000Y-102775000D02*
X97175000Y-105525000D01*
X96100000Y-101700000D02*
X97175000Y-102775000D01*
X131775400Y-131224600D02*
X128373000Y-131224600D01*
X96465686Y-110000000D02*
X127931372Y-110000000D01*
X132450000Y-130550000D02*
X131775400Y-131224600D01*
%TO.N,OUT_DIG_3_SEG_G*%
X132050000Y-114684316D02*
X132050000Y-128150000D01*
X131300000Y-128900000D02*
X125850000Y-128900000D01*
X121025400Y-133724600D02*
X119623000Y-133724600D01*
X119623000Y-133724600D02*
X118623000Y-134724600D01*
X132050000Y-128150000D02*
X131300000Y-128900000D01*
X95900000Y-110000000D02*
X96300000Y-110400000D01*
X127765686Y-110400000D02*
X132050000Y-114684316D01*
X96300000Y-110400000D02*
X127765686Y-110400000D01*
X125850000Y-128900000D02*
X121025400Y-133724600D01*
X95900000Y-104240000D02*
X95900000Y-110000000D01*
%TD*%
%TA.AperFunction,Conductor*%
%TO.N,GND*%
G36*
X20955703Y-151096308D02*
G01*
X20993477Y-151155086D01*
X20997378Y-151173376D01*
X21022378Y-151357938D01*
X21118313Y-151778258D01*
X21251542Y-152188296D01*
X21251545Y-152188304D01*
X21420985Y-152584730D01*
X21420989Y-152584738D01*
X21625294Y-152964399D01*
X21862799Y-153324207D01*
X21862800Y-153324208D01*
X22131608Y-153661282D01*
X22182223Y-153714221D01*
X24063103Y-151833341D01*
X24175031Y-151970918D01*
X24389990Y-152171676D01*
X24414544Y-152189008D01*
X22536877Y-154066675D01*
X22754227Y-154256569D01*
X22754244Y-154256582D01*
X23103024Y-154509986D01*
X23473140Y-154731120D01*
X23473146Y-154731123D01*
X23861569Y-154918178D01*
X23861583Y-154918184D01*
X24265209Y-155069667D01*
X24265234Y-155069675D01*
X24680816Y-155184369D01*
X25061718Y-155253493D01*
X25124165Y-155284831D01*
X25159756Y-155344957D01*
X25157191Y-155414779D01*
X25117285Y-155472131D01*
X25052706Y-155498803D01*
X25039577Y-155499500D01*
X20874500Y-155499500D01*
X20807461Y-155479815D01*
X20761706Y-155427011D01*
X20750500Y-155375500D01*
X20750500Y-151190021D01*
X20770185Y-151122982D01*
X20822989Y-151077227D01*
X20892147Y-151067283D01*
X20955703Y-151096308D01*
G37*
%TD.AperFunction*%
%TA.AperFunction,Conductor*%
G36*
X134106616Y-98020185D02*
G01*
X134152371Y-98072989D01*
X134162315Y-98142147D01*
X134133290Y-98205703D01*
X134074512Y-98243477D01*
X134061718Y-98246507D01*
X133680816Y-98315630D01*
X133265234Y-98430324D01*
X133265209Y-98430332D01*
X132861583Y-98581815D01*
X132861569Y-98581821D01*
X132473146Y-98768876D01*
X132473140Y-98768879D01*
X132103024Y-98990013D01*
X131754235Y-99243423D01*
X131536877Y-99433322D01*
X131536877Y-99433323D01*
X133414545Y-101310991D01*
X133389990Y-101328324D01*
X133175031Y-101529082D01*
X133063104Y-101666657D01*
X131182223Y-99785777D01*
X131131624Y-99838699D01*
X131131612Y-99838712D01*
X130862800Y-100175791D01*
X130862799Y-100175792D01*
X130625294Y-100535600D01*
X130420989Y-100915261D01*
X130420985Y-100915269D01*
X130251545Y-101311695D01*
X130251542Y-101311703D01*
X130118313Y-101721741D01*
X130022378Y-102142061D01*
X129964505Y-102569298D01*
X129964504Y-102569307D01*
X129945162Y-102999996D01*
X129945162Y-103000003D01*
X129964504Y-103430692D01*
X129964505Y-103430701D01*
X130022378Y-103857938D01*
X130118313Y-104278258D01*
X130251542Y-104688296D01*
X130251545Y-104688304D01*
X130420985Y-105084730D01*
X130420989Y-105084738D01*
X130625294Y-105464399D01*
X130862799Y-105824207D01*
X130862800Y-105824208D01*
X131131608Y-106161282D01*
X131182223Y-106214221D01*
X133063103Y-104333341D01*
X133175031Y-104470918D01*
X133389990Y-104671676D01*
X133414544Y-104689008D01*
X131536877Y-106566675D01*
X131754227Y-106756569D01*
X131754244Y-106756582D01*
X132103024Y-107009986D01*
X132473140Y-107231120D01*
X132473146Y-107231123D01*
X132861569Y-107418178D01*
X132861583Y-107418184D01*
X133265209Y-107569667D01*
X133265234Y-107569675D01*
X133680816Y-107684369D01*
X134105023Y-107761351D01*
X134534435Y-107799999D01*
X134534438Y-107800000D01*
X134965562Y-107800000D01*
X134965564Y-107799999D01*
X135394976Y-107761351D01*
X135819183Y-107684369D01*
X136234765Y-107569675D01*
X136234790Y-107569667D01*
X136638416Y-107418184D01*
X136638430Y-107418178D01*
X137026853Y-107231123D01*
X137026859Y-107231120D01*
X137396975Y-107009986D01*
X137745755Y-106756582D01*
X137745772Y-106756569D01*
X137963121Y-106566675D01*
X136085455Y-104689008D01*
X136110010Y-104671676D01*
X136324969Y-104470918D01*
X136436895Y-104333342D01*
X138317775Y-106214222D01*
X138317776Y-106214222D01*
X138368386Y-106161289D01*
X138368386Y-106161288D01*
X138637199Y-105824208D01*
X138637200Y-105824207D01*
X138874705Y-105464399D01*
X139079010Y-105084738D01*
X139079014Y-105084730D01*
X139248454Y-104688304D01*
X139248457Y-104688296D01*
X139381686Y-104278258D01*
X139477621Y-103857938D01*
X139502622Y-103673376D01*
X139531128Y-103609586D01*
X139589595Y-103571333D01*
X139659463Y-103570763D01*
X139718547Y-103608056D01*
X139748090Y-103671373D01*
X139749500Y-103690021D01*
X139749500Y-149809978D01*
X139729815Y-149877017D01*
X139677011Y-149922772D01*
X139607853Y-149932716D01*
X139544297Y-149903691D01*
X139506523Y-149844913D01*
X139502622Y-149826623D01*
X139477621Y-149642061D01*
X139381686Y-149221741D01*
X139248457Y-148811703D01*
X139248454Y-148811695D01*
X139079014Y-148415269D01*
X139079010Y-148415261D01*
X138874705Y-148035600D01*
X138637200Y-147675792D01*
X138637199Y-147675791D01*
X138368391Y-147338717D01*
X138317774Y-147285776D01*
X136436894Y-149166656D01*
X136324969Y-149029082D01*
X136110010Y-148828324D01*
X136085453Y-148810990D01*
X137963121Y-146933323D01*
X137745772Y-146743430D01*
X137745755Y-146743417D01*
X137396975Y-146490013D01*
X137026859Y-146268879D01*
X137026853Y-146268876D01*
X136638430Y-146081821D01*
X136638416Y-146081815D01*
X136234790Y-145930332D01*
X136234765Y-145930324D01*
X135819183Y-145815630D01*
X135394976Y-145738648D01*
X134965564Y-145700000D01*
X134534435Y-145700000D01*
X134105023Y-145738648D01*
X133680816Y-145815630D01*
X133265234Y-145930324D01*
X133265209Y-145930332D01*
X132861583Y-146081815D01*
X132861569Y-146081821D01*
X132473146Y-146268876D01*
X132473140Y-146268879D01*
X132103024Y-146490013D01*
X131754235Y-146743423D01*
X131536877Y-146933322D01*
X131536877Y-146933323D01*
X133414545Y-148810991D01*
X133389990Y-148828324D01*
X133175031Y-149029082D01*
X133063104Y-149166657D01*
X131182223Y-147285777D01*
X131131624Y-147338699D01*
X131131612Y-147338712D01*
X130862800Y-147675791D01*
X130862799Y-147675792D01*
X130625294Y-148035600D01*
X130420989Y-148415261D01*
X130420985Y-148415269D01*
X130251545Y-148811695D01*
X130251542Y-148811703D01*
X130118313Y-149221741D01*
X130022378Y-149642061D01*
X129964505Y-150069298D01*
X129964504Y-150069307D01*
X129945162Y-150499996D01*
X129945162Y-150500003D01*
X129964504Y-150930692D01*
X129964505Y-150930701D01*
X130022378Y-151357938D01*
X130118313Y-151778258D01*
X130251542Y-152188296D01*
X130251545Y-152188304D01*
X130420985Y-152584730D01*
X130420989Y-152584738D01*
X130625294Y-152964399D01*
X130862799Y-153324207D01*
X130862800Y-153324208D01*
X131131608Y-153661282D01*
X131182223Y-153714221D01*
X133063103Y-151833341D01*
X133175031Y-151970918D01*
X133389990Y-152171676D01*
X133414544Y-152189008D01*
X131536877Y-154066675D01*
X131754227Y-154256569D01*
X131754244Y-154256582D01*
X132103024Y-154509986D01*
X132473140Y-154731120D01*
X132473146Y-154731123D01*
X132861569Y-154918178D01*
X132861583Y-154918184D01*
X133265209Y-155069667D01*
X133265234Y-155069675D01*
X133680816Y-155184369D01*
X134061718Y-155253493D01*
X134124165Y-155284831D01*
X134159756Y-155344957D01*
X134157191Y-155414779D01*
X134117285Y-155472131D01*
X134052706Y-155498803D01*
X134039577Y-155499500D01*
X26460423Y-155499500D01*
X26393384Y-155479815D01*
X26347629Y-155427011D01*
X26337685Y-155357853D01*
X26366710Y-155294297D01*
X26425488Y-155256523D01*
X26438282Y-155253493D01*
X26819183Y-155184369D01*
X27234765Y-155069675D01*
X27234790Y-155069667D01*
X27638416Y-154918184D01*
X27638430Y-154918178D01*
X28026853Y-154731123D01*
X28026859Y-154731120D01*
X28396975Y-154509986D01*
X28745755Y-154256582D01*
X28745772Y-154256569D01*
X28963121Y-154066675D01*
X27085455Y-152189008D01*
X27110010Y-152171676D01*
X27324969Y-151970918D01*
X27436895Y-151833342D01*
X29317775Y-153714222D01*
X29317776Y-153714222D01*
X29368386Y-153661289D01*
X29368386Y-153661288D01*
X29637199Y-153324208D01*
X29637200Y-153324207D01*
X29874705Y-152964399D01*
X30079010Y-152584738D01*
X30079014Y-152584730D01*
X30248454Y-152188304D01*
X30248457Y-152188296D01*
X30381686Y-151778258D01*
X30477621Y-151357938D01*
X30535494Y-150930701D01*
X30535495Y-150930692D01*
X30554838Y-150500003D01*
X30554838Y-150499996D01*
X30535495Y-150069307D01*
X30535494Y-150069298D01*
X30477621Y-149642061D01*
X30381686Y-149221741D01*
X30248457Y-148811703D01*
X30248454Y-148811695D01*
X30079014Y-148415269D01*
X30079010Y-148415261D01*
X29874705Y-148035600D01*
X29637200Y-147675792D01*
X29637199Y-147675791D01*
X29368391Y-147338717D01*
X29317774Y-147285776D01*
X27436894Y-149166656D01*
X27324969Y-149029082D01*
X27110010Y-148828324D01*
X27085453Y-148810990D01*
X28963121Y-146933323D01*
X28745772Y-146743430D01*
X28745755Y-146743417D01*
X28396975Y-146490013D01*
X28026859Y-146268879D01*
X28026853Y-146268876D01*
X27638430Y-146081821D01*
X27638416Y-146081815D01*
X27234790Y-145930332D01*
X27234765Y-145930324D01*
X26819183Y-145815630D01*
X26394976Y-145738648D01*
X25965564Y-145700000D01*
X25534435Y-145700000D01*
X25105023Y-145738648D01*
X24680816Y-145815630D01*
X24265234Y-145930324D01*
X24265209Y-145930332D01*
X23861583Y-146081815D01*
X23861569Y-146081821D01*
X23473146Y-146268876D01*
X23473140Y-146268879D01*
X23103024Y-146490013D01*
X22754235Y-146743423D01*
X22536877Y-146933322D01*
X22536877Y-146933323D01*
X24414545Y-148810991D01*
X24389990Y-148828324D01*
X24175031Y-149029082D01*
X24063104Y-149166657D01*
X22182223Y-147285777D01*
X22131624Y-147338699D01*
X22131612Y-147338712D01*
X21862800Y-147675791D01*
X21862799Y-147675792D01*
X21625294Y-148035600D01*
X21420989Y-148415261D01*
X21420985Y-148415269D01*
X21251545Y-148811695D01*
X21251542Y-148811703D01*
X21118313Y-149221741D01*
X21022378Y-149642061D01*
X20997378Y-149826623D01*
X20968872Y-149890413D01*
X20910404Y-149928666D01*
X20840537Y-149929236D01*
X20781453Y-149891943D01*
X20751910Y-149828626D01*
X20750500Y-149809978D01*
X20750500Y-131224605D01*
X30367357Y-131224605D01*
X30387890Y-131472412D01*
X30387892Y-131472424D01*
X30448936Y-131713481D01*
X30548826Y-131941206D01*
X30684833Y-132149382D01*
X30700998Y-132166942D01*
X30853256Y-132332338D01*
X31049491Y-132485074D01*
X31268190Y-132603428D01*
X31503386Y-132684171D01*
X31748665Y-132725100D01*
X31997335Y-132725100D01*
X32242614Y-132684171D01*
X32477810Y-132603428D01*
X32696509Y-132485074D01*
X32892744Y-132332338D01*
X33061164Y-132149385D01*
X33197173Y-131941207D01*
X33215560Y-131899289D01*
X33260517Y-131845804D01*
X33327253Y-131825114D01*
X33329116Y-131825100D01*
X39227913Y-131825100D01*
X39244097Y-131826160D01*
X39275400Y-131830282D01*
X39275401Y-131830282D01*
X39327654Y-131823402D01*
X39432162Y-131809644D01*
X39578241Y-131749136D01*
X39703682Y-131652882D01*
X39722910Y-131627822D01*
X39733589Y-131615644D01*
X41812416Y-129536819D01*
X41873739Y-129503334D01*
X41900097Y-129500500D01*
X43092165Y-129500500D01*
X43159204Y-129520185D01*
X43204959Y-129572989D01*
X43214903Y-129642147D01*
X43185878Y-129705703D01*
X43127100Y-129743477D01*
X43112574Y-129746809D01*
X43003383Y-129765029D01*
X42768197Y-129845769D01*
X42768188Y-129845772D01*
X42549493Y-129964124D01*
X42353257Y-130116861D01*
X42184833Y-130299817D01*
X42048826Y-130507993D01*
X41948936Y-130735718D01*
X41887892Y-130976775D01*
X41887890Y-130976787D01*
X41867357Y-131224594D01*
X41867357Y-131224605D01*
X41887890Y-131472412D01*
X41887892Y-131472424D01*
X41948936Y-131713481D01*
X42048826Y-131941206D01*
X42184833Y-132149382D01*
X42200998Y-132166942D01*
X42353256Y-132332338D01*
X42549491Y-132485074D01*
X42768190Y-132603428D01*
X43003386Y-132684171D01*
X43248665Y-132725100D01*
X43497335Y-132725100D01*
X43742614Y-132684171D01*
X43977810Y-132603428D01*
X44196509Y-132485074D01*
X44392744Y-132332338D01*
X44561164Y-132149385D01*
X44697173Y-131941207D01*
X44715560Y-131899289D01*
X44760517Y-131845804D01*
X44827253Y-131825114D01*
X44829116Y-131825100D01*
X48427913Y-131825100D01*
X48444097Y-131826160D01*
X48475400Y-131830282D01*
X48475401Y-131830282D01*
X48527654Y-131823402D01*
X48632162Y-131809644D01*
X48632165Y-131809642D01*
X48640013Y-131807540D01*
X48640669Y-131809991D01*
X48697512Y-131803878D01*
X48759992Y-131835151D01*
X48795647Y-131895238D01*
X48799500Y-131925909D01*
X48799500Y-135099903D01*
X48779815Y-135166942D01*
X48763181Y-135187584D01*
X45887584Y-138063181D01*
X45826261Y-138096666D01*
X45799903Y-138099500D01*
X35900097Y-138099500D01*
X35833058Y-138079815D01*
X35812416Y-138063181D01*
X34259819Y-136510584D01*
X34226334Y-136449261D01*
X34223500Y-136422903D01*
X34223500Y-136179648D01*
X34243185Y-136112609D01*
X34288481Y-136070593D01*
X34446509Y-135985074D01*
X34642744Y-135832338D01*
X34741919Y-135724605D01*
X36117357Y-135724605D01*
X36137890Y-135972412D01*
X36137892Y-135972424D01*
X36198936Y-136213481D01*
X36298826Y-136441206D01*
X36434833Y-136649382D01*
X36434836Y-136649385D01*
X36603256Y-136832338D01*
X36799491Y-136985074D01*
X37018190Y-137103428D01*
X37253386Y-137184171D01*
X37498665Y-137225100D01*
X37747335Y-137225100D01*
X37992614Y-137184171D01*
X38227810Y-137103428D01*
X38446509Y-136985074D01*
X38642744Y-136832338D01*
X38811164Y-136649385D01*
X38947173Y-136441207D01*
X39047063Y-136213481D01*
X39108108Y-135972421D01*
X39118049Y-135852451D01*
X39128643Y-135724605D01*
X39128643Y-135724594D01*
X39108109Y-135476787D01*
X39108107Y-135476775D01*
X39047063Y-135235718D01*
X38947173Y-135007993D01*
X38811166Y-134799817D01*
X38741928Y-134724605D01*
X40117357Y-134724605D01*
X40137890Y-134972412D01*
X40137892Y-134972424D01*
X40198936Y-135213481D01*
X40298826Y-135441206D01*
X40434833Y-135649382D01*
X40434836Y-135649385D01*
X40603256Y-135832338D01*
X40799491Y-135985074D01*
X41018190Y-136103428D01*
X41253386Y-136184171D01*
X41498665Y-136225100D01*
X41747335Y-136225100D01*
X41992614Y-136184171D01*
X42227810Y-136103428D01*
X42446509Y-135985074D01*
X42642744Y-135832338D01*
X42811164Y-135649385D01*
X42947173Y-135441207D01*
X43047063Y-135213481D01*
X43108108Y-134972421D01*
X43108109Y-134972412D01*
X43128643Y-134724605D01*
X43128643Y-134724594D01*
X43108109Y-134476787D01*
X43108107Y-134476775D01*
X43047063Y-134235718D01*
X42947173Y-134007993D01*
X42811166Y-133799817D01*
X42752120Y-133735676D01*
X42642744Y-133616862D01*
X42446509Y-133464126D01*
X42446507Y-133464125D01*
X42446506Y-133464124D01*
X42227811Y-133345772D01*
X42227802Y-133345769D01*
X41992616Y-133265029D01*
X41747335Y-133224100D01*
X41498665Y-133224100D01*
X41253383Y-133265029D01*
X41018197Y-133345769D01*
X41018188Y-133345772D01*
X40799493Y-133464124D01*
X40603257Y-133616861D01*
X40434833Y-133799817D01*
X40298826Y-134007993D01*
X40198936Y-134235718D01*
X40137892Y-134476775D01*
X40137890Y-134476787D01*
X40117357Y-134724594D01*
X40117357Y-134724605D01*
X38741928Y-134724605D01*
X38642744Y-134616862D01*
X38446509Y-134464126D01*
X38446507Y-134464125D01*
X38446506Y-134464124D01*
X38227811Y-134345772D01*
X38227802Y-134345769D01*
X37992616Y-134265029D01*
X37747335Y-134224100D01*
X37498665Y-134224100D01*
X37253383Y-134265029D01*
X37018197Y-134345769D01*
X37018188Y-134345772D01*
X36799493Y-134464124D01*
X36603257Y-134616861D01*
X36434833Y-134799817D01*
X36298826Y-135007993D01*
X36198936Y-135235718D01*
X36137892Y-135476775D01*
X36137890Y-135476787D01*
X36117357Y-135724594D01*
X36117357Y-135724605D01*
X34741919Y-135724605D01*
X34811164Y-135649385D01*
X34947173Y-135441207D01*
X35047063Y-135213481D01*
X35108108Y-134972421D01*
X35108109Y-134972412D01*
X35128643Y-134724605D01*
X35128643Y-134724594D01*
X35108109Y-134476787D01*
X35108107Y-134476775D01*
X35047063Y-134235718D01*
X34947173Y-134007993D01*
X34811166Y-133799817D01*
X34752120Y-133735676D01*
X34642744Y-133616862D01*
X34446509Y-133464126D01*
X34446507Y-133464125D01*
X34446506Y-133464124D01*
X34227811Y-133345772D01*
X34227802Y-133345769D01*
X33992616Y-133265029D01*
X33747335Y-133224100D01*
X33498665Y-133224100D01*
X33253383Y-133265029D01*
X33018197Y-133345769D01*
X33018188Y-133345772D01*
X32799493Y-133464124D01*
X32603257Y-133616861D01*
X32434833Y-133799817D01*
X32298826Y-134007993D01*
X32198936Y-134235718D01*
X32137892Y-134476775D01*
X32137890Y-134476787D01*
X32117357Y-134724594D01*
X32117357Y-134724605D01*
X32137890Y-134972412D01*
X32137892Y-134972424D01*
X32198936Y-135213481D01*
X32298826Y-135441206D01*
X32434833Y-135649382D01*
X32434836Y-135649385D01*
X32603256Y-135832338D01*
X32799491Y-135985074D01*
X32799494Y-135985076D01*
X32799496Y-135985077D01*
X32865609Y-136020855D01*
X32957517Y-136070593D01*
X33007108Y-136119812D01*
X33022500Y-136179648D01*
X33022500Y-136675512D01*
X33021439Y-136691697D01*
X33017318Y-136722998D01*
X33017318Y-136723000D01*
X33022500Y-136762360D01*
X33022500Y-136762361D01*
X33037955Y-136879760D01*
X33037956Y-136879762D01*
X33081578Y-136985076D01*
X33098464Y-137025841D01*
X33194718Y-137151282D01*
X33194719Y-137151283D01*
X33219769Y-137170504D01*
X33231964Y-137181199D01*
X35141799Y-139091034D01*
X35152493Y-139103228D01*
X35171715Y-139128279D01*
X35171716Y-139128280D01*
X35171718Y-139128282D01*
X35297159Y-139224536D01*
X35443238Y-139285044D01*
X35521619Y-139295363D01*
X35599999Y-139305682D01*
X35600000Y-139305682D01*
X35631302Y-139301560D01*
X35647487Y-139300500D01*
X46052513Y-139300500D01*
X46068697Y-139301560D01*
X46100000Y-139305682D01*
X46100001Y-139305682D01*
X46152254Y-139298802D01*
X46256762Y-139285044D01*
X46402841Y-139224536D01*
X46528282Y-139128282D01*
X46547509Y-139103223D01*
X46558190Y-139091043D01*
X49791043Y-135858190D01*
X49803223Y-135847509D01*
X49828282Y-135828282D01*
X49924536Y-135702841D01*
X49985044Y-135556762D01*
X50000500Y-135439361D01*
X50005682Y-135400000D01*
X50001561Y-135368697D01*
X50000500Y-135352512D01*
X50000500Y-126724605D01*
X53867357Y-126724605D01*
X53887890Y-126972412D01*
X53887892Y-126972424D01*
X53948936Y-127213481D01*
X54048826Y-127441206D01*
X54184833Y-127649382D01*
X54200998Y-127666942D01*
X54353256Y-127832338D01*
X54549491Y-127985074D01*
X54768190Y-128103428D01*
X55003386Y-128184171D01*
X55248665Y-128225100D01*
X55497335Y-128225100D01*
X55742614Y-128184171D01*
X55977810Y-128103428D01*
X56196509Y-127985074D01*
X56392744Y-127832338D01*
X56561164Y-127649385D01*
X56697173Y-127441207D01*
X56797063Y-127213481D01*
X56858108Y-126972421D01*
X56858109Y-126972412D01*
X56878643Y-126724605D01*
X56878643Y-126724600D01*
X58367473Y-126724600D01*
X58387563Y-127056736D01*
X58387563Y-127056741D01*
X58387564Y-127056742D01*
X58447544Y-127384041D01*
X58447545Y-127384045D01*
X58447546Y-127384049D01*
X58546530Y-127701704D01*
X58546534Y-127701716D01*
X58546537Y-127701723D01*
X58683102Y-128005157D01*
X58835862Y-128257853D01*
X58855251Y-128289926D01*
X59060460Y-128551855D01*
X59295744Y-128787139D01*
X59557673Y-128992348D01*
X59557678Y-128992351D01*
X59557682Y-128992354D01*
X59842443Y-129164498D01*
X60145877Y-129301063D01*
X60145890Y-129301067D01*
X60145895Y-129301069D01*
X60233226Y-129328282D01*
X60463559Y-129400056D01*
X60790858Y-129460036D01*
X61039894Y-129475100D01*
X61039907Y-129475100D01*
X61206093Y-129475100D01*
X61206106Y-129475100D01*
X61455142Y-129460036D01*
X61782441Y-129400056D01*
X62100123Y-129301063D01*
X62403557Y-129164498D01*
X62688318Y-128992354D01*
X62950252Y-128787142D01*
X63185542Y-128551852D01*
X63333356Y-128363181D01*
X63390748Y-128289926D01*
X63390748Y-128289924D01*
X63390754Y-128289918D01*
X63562898Y-128005157D01*
X63699463Y-127701723D01*
X63798456Y-127384041D01*
X63858436Y-127056742D01*
X63878527Y-126724600D01*
X63858436Y-126392458D01*
X63798456Y-126065159D01*
X63699463Y-125747477D01*
X63562898Y-125444043D01*
X63390754Y-125159282D01*
X63390751Y-125159278D01*
X63390748Y-125159273D01*
X63185539Y-124897344D01*
X62950255Y-124662060D01*
X62688326Y-124456851D01*
X62688318Y-124456846D01*
X62403557Y-124284702D01*
X62100123Y-124148137D01*
X62100116Y-124148134D01*
X62100104Y-124148130D01*
X61782449Y-124049146D01*
X61782445Y-124049145D01*
X61782441Y-124049144D01*
X61455142Y-123989164D01*
X61455141Y-123989163D01*
X61455136Y-123989163D01*
X61206114Y-123974100D01*
X61206106Y-123974100D01*
X61039894Y-123974100D01*
X61039885Y-123974100D01*
X60790863Y-123989163D01*
X60790858Y-123989164D01*
X60463559Y-124049144D01*
X60463556Y-124049144D01*
X60463550Y-124049146D01*
X60145895Y-124148130D01*
X60145879Y-124148136D01*
X60145877Y-124148137D01*
X59952656Y-124235098D01*
X59842447Y-124284700D01*
X59842445Y-124284701D01*
X59557673Y-124456851D01*
X59295744Y-124662060D01*
X59060460Y-124897344D01*
X58855251Y-125159273D01*
X58683101Y-125444045D01*
X58683100Y-125444047D01*
X58546536Y-125747480D01*
X58546530Y-125747495D01*
X58447546Y-126065150D01*
X58447544Y-126065156D01*
X58447544Y-126065159D01*
X58440350Y-126104415D01*
X58387563Y-126392463D01*
X58367473Y-126724600D01*
X56878643Y-126724600D01*
X56878643Y-126724594D01*
X56858109Y-126476787D01*
X56858107Y-126476775D01*
X56797063Y-126235718D01*
X56697173Y-126007993D01*
X56561166Y-125799817D01*
X56512986Y-125747480D01*
X56392744Y-125616862D01*
X56196509Y-125464126D01*
X56196507Y-125464125D01*
X56196506Y-125464124D01*
X55977811Y-125345772D01*
X55977802Y-125345769D01*
X55742616Y-125265029D01*
X55497335Y-125224100D01*
X55248665Y-125224100D01*
X55003383Y-125265029D01*
X54768197Y-125345769D01*
X54768188Y-125345772D01*
X54549493Y-125464124D01*
X54353257Y-125616861D01*
X54184833Y-125799817D01*
X54048826Y-126007993D01*
X53948936Y-126235718D01*
X53887892Y-126476775D01*
X53887890Y-126476787D01*
X53867357Y-126724594D01*
X53867357Y-126724605D01*
X50000500Y-126724605D01*
X50000500Y-121800097D01*
X50020185Y-121733058D01*
X50036819Y-121712416D01*
X56312416Y-115436819D01*
X56373739Y-115403334D01*
X56400097Y-115400500D01*
X56412325Y-115400500D01*
X56479364Y-115420185D01*
X56525119Y-115472989D01*
X56535264Y-115540685D01*
X56523732Y-115628283D01*
X56517318Y-115677000D01*
X56521097Y-115705703D01*
X56521439Y-115708301D01*
X56522500Y-115724487D01*
X56522500Y-117269551D01*
X56502815Y-117336590D01*
X56457518Y-117378606D01*
X56299493Y-117464124D01*
X56103257Y-117616861D01*
X55934833Y-117799817D01*
X55798826Y-118007993D01*
X55698936Y-118235718D01*
X55637892Y-118476775D01*
X55637890Y-118476787D01*
X55617357Y-118724594D01*
X55617357Y-118724605D01*
X55637890Y-118972412D01*
X55637892Y-118972424D01*
X55698936Y-119213481D01*
X55798826Y-119441206D01*
X55934833Y-119649382D01*
X55934836Y-119649385D01*
X56103256Y-119832338D01*
X56299491Y-119985074D01*
X56518190Y-120103428D01*
X56753386Y-120184171D01*
X56998665Y-120225100D01*
X57247335Y-120225100D01*
X57492614Y-120184171D01*
X57727810Y-120103428D01*
X57946509Y-119985074D01*
X58142744Y-119832338D01*
X58311164Y-119649385D01*
X58447173Y-119441207D01*
X58547063Y-119213481D01*
X58608108Y-118972421D01*
X58628643Y-118724600D01*
X58608108Y-118476779D01*
X58547063Y-118235719D01*
X58546940Y-118235439D01*
X58447173Y-118007993D01*
X58311166Y-117799817D01*
X58210792Y-117690782D01*
X58142744Y-117616862D01*
X57946509Y-117464126D01*
X57946507Y-117464125D01*
X57946506Y-117464124D01*
X57788482Y-117378606D01*
X57738892Y-117329386D01*
X57723500Y-117269551D01*
X57723500Y-115977097D01*
X57743185Y-115910058D01*
X57759819Y-115889416D01*
X57812416Y-115836819D01*
X57873739Y-115803334D01*
X57900097Y-115800500D01*
X60931065Y-115800500D01*
X60998104Y-115820185D01*
X61043859Y-115872989D01*
X61053803Y-115942147D01*
X61024778Y-116005703D01*
X60966000Y-116043477D01*
X60951474Y-116046809D01*
X60842283Y-116065029D01*
X60607097Y-116145769D01*
X60607088Y-116145772D01*
X60388393Y-116264124D01*
X60192157Y-116416861D01*
X60023733Y-116599817D01*
X59887726Y-116807993D01*
X59787836Y-117035718D01*
X59726792Y-117276775D01*
X59726790Y-117276787D01*
X59706257Y-117524594D01*
X59706257Y-117524605D01*
X59726790Y-117772412D01*
X59726792Y-117772424D01*
X59787836Y-118013481D01*
X59887726Y-118241206D01*
X60023733Y-118449382D01*
X60023736Y-118449385D01*
X60192156Y-118632338D01*
X60388391Y-118785074D01*
X60607090Y-118903428D01*
X60842286Y-118984171D01*
X61087565Y-119025100D01*
X61336235Y-119025100D01*
X61581514Y-118984171D01*
X61816710Y-118903428D01*
X62035409Y-118785074D01*
X62231644Y-118632338D01*
X62400064Y-118449385D01*
X62536073Y-118241207D01*
X62635963Y-118013481D01*
X62697008Y-117772421D01*
X62709898Y-117616861D01*
X62717543Y-117524605D01*
X62717543Y-117524594D01*
X62697009Y-117276787D01*
X62697007Y-117276775D01*
X62635963Y-117035718D01*
X62536073Y-116807993D01*
X62400066Y-116599817D01*
X62352883Y-116548563D01*
X62231644Y-116416862D01*
X62035409Y-116264126D01*
X62035407Y-116264125D01*
X62035406Y-116264124D01*
X61816711Y-116145772D01*
X61816702Y-116145769D01*
X61581516Y-116065029D01*
X61472326Y-116046809D01*
X61409440Y-116016359D01*
X61373001Y-115956744D01*
X61374576Y-115886892D01*
X61413665Y-115828980D01*
X61477859Y-115801396D01*
X61492735Y-115800500D01*
X62312308Y-115800500D01*
X62328492Y-115801560D01*
X62359795Y-115805682D01*
X62359796Y-115805682D01*
X62412049Y-115798802D01*
X62516557Y-115785044D01*
X62662636Y-115724536D01*
X62724586Y-115677000D01*
X62788077Y-115628282D01*
X62807305Y-115603222D01*
X62817984Y-115591044D01*
X64681041Y-113727990D01*
X64693220Y-113717309D01*
X64718278Y-113698084D01*
X64742446Y-113666588D01*
X64814532Y-113572644D01*
X64875040Y-113426565D01*
X64895678Y-113269803D01*
X64891557Y-113238500D01*
X64890496Y-113222315D01*
X64890497Y-109024500D01*
X64910182Y-108957461D01*
X64962986Y-108911706D01*
X65014497Y-108900500D01*
X67352513Y-108900500D01*
X67368697Y-108901560D01*
X67400000Y-108905682D01*
X67400001Y-108905682D01*
X67452254Y-108898802D01*
X67556762Y-108885044D01*
X67702841Y-108824536D01*
X67754308Y-108785044D01*
X67828282Y-108728282D01*
X67847510Y-108703222D01*
X67858189Y-108691044D01*
X69012416Y-107536819D01*
X69073739Y-107503334D01*
X69100097Y-107500500D01*
X69552513Y-107500500D01*
X69568697Y-107501560D01*
X69600000Y-107505682D01*
X69600001Y-107505682D01*
X69652254Y-107498802D01*
X69756762Y-107485044D01*
X69902841Y-107424536D01*
X69930628Y-107403214D01*
X70028282Y-107328282D01*
X70047509Y-107303223D01*
X70058190Y-107291043D01*
X70891043Y-106458190D01*
X70903223Y-106447509D01*
X70928282Y-106428282D01*
X71024536Y-106302841D01*
X71085044Y-106156762D01*
X71090826Y-106112844D01*
X71099099Y-106050000D01*
X71105682Y-106000001D01*
X71105682Y-105999998D01*
X71101561Y-105968697D01*
X71100500Y-105952512D01*
X71100500Y-105947696D01*
X71120185Y-105880657D01*
X71172989Y-105834902D01*
X71242147Y-105824958D01*
X71305703Y-105853983D01*
X71322874Y-105872208D01*
X71346718Y-105903282D01*
X71356305Y-105910638D01*
X71371769Y-105922504D01*
X71383964Y-105933199D01*
X71663181Y-106212416D01*
X71696666Y-106273739D01*
X71699500Y-106300097D01*
X71699500Y-119099902D01*
X71679815Y-119166941D01*
X71663181Y-119187583D01*
X71387584Y-119463181D01*
X71326261Y-119496666D01*
X71299903Y-119499500D01*
X66611400Y-119499500D01*
X66544361Y-119479815D01*
X66498606Y-119427011D01*
X66488662Y-119357853D01*
X66497844Y-119325690D01*
X66547063Y-119213481D01*
X66608107Y-118972424D01*
X66608108Y-118972421D01*
X66628643Y-118724600D01*
X66608108Y-118476779D01*
X66547063Y-118235719D01*
X66546940Y-118235439D01*
X66447173Y-118007993D01*
X66311166Y-117799817D01*
X66210792Y-117690782D01*
X66142744Y-117616862D01*
X65946509Y-117464126D01*
X65946507Y-117464125D01*
X65946506Y-117464124D01*
X65727811Y-117345772D01*
X65727802Y-117345769D01*
X65492616Y-117265029D01*
X65247335Y-117224100D01*
X64998665Y-117224100D01*
X64753383Y-117265029D01*
X64518197Y-117345769D01*
X64518188Y-117345772D01*
X64299493Y-117464124D01*
X64103257Y-117616861D01*
X63934833Y-117799817D01*
X63798826Y-118007993D01*
X63698936Y-118235718D01*
X63637892Y-118476775D01*
X63637890Y-118476787D01*
X63617357Y-118724594D01*
X63617357Y-118724605D01*
X63637890Y-118972412D01*
X63637892Y-118972424D01*
X63698936Y-119213481D01*
X63798826Y-119441206D01*
X63934833Y-119649382D01*
X63934836Y-119649385D01*
X64103256Y-119832338D01*
X64299491Y-119985074D01*
X64518190Y-120103428D01*
X64753386Y-120184171D01*
X64998665Y-120225100D01*
X65026301Y-120225100D01*
X65093340Y-120244785D01*
X65139095Y-120297589D01*
X65149039Y-120366747D01*
X65120014Y-120430303D01*
X65113982Y-120436781D01*
X63987584Y-121563181D01*
X63926261Y-121596666D01*
X63899903Y-121599500D01*
X56818325Y-121599500D01*
X56751286Y-121579815D01*
X56705531Y-121527011D01*
X56704769Y-121525309D01*
X56697174Y-121507994D01*
X56561166Y-121299817D01*
X56530902Y-121266942D01*
X56392744Y-121116862D01*
X56196509Y-120964126D01*
X56196507Y-120964125D01*
X56196506Y-120964124D01*
X55977811Y-120845772D01*
X55977802Y-120845769D01*
X55742616Y-120765029D01*
X55497335Y-120724100D01*
X55248665Y-120724100D01*
X55003383Y-120765029D01*
X54768197Y-120845769D01*
X54768188Y-120845772D01*
X54549493Y-120964124D01*
X54353257Y-121116861D01*
X54184833Y-121299817D01*
X54048826Y-121507993D01*
X53948936Y-121735718D01*
X53887892Y-121976775D01*
X53887890Y-121976787D01*
X53867357Y-122224594D01*
X53867357Y-122224605D01*
X53887890Y-122472412D01*
X53887892Y-122472424D01*
X53948936Y-122713481D01*
X54048826Y-122941206D01*
X54184833Y-123149382D01*
X54184836Y-123149385D01*
X54353256Y-123332338D01*
X54549491Y-123485074D01*
X54768190Y-123603428D01*
X55003386Y-123684171D01*
X55248665Y-123725100D01*
X55497335Y-123725100D01*
X55742614Y-123684171D01*
X55977810Y-123603428D01*
X56196509Y-123485074D01*
X56392744Y-123332338D01*
X56561164Y-123149385D01*
X56697173Y-122941207D01*
X56726350Y-122874689D01*
X56771306Y-122821204D01*
X56838042Y-122800514D01*
X56839906Y-122800500D01*
X64152513Y-122800500D01*
X64168697Y-122801560D01*
X64200000Y-122805682D01*
X64200001Y-122805682D01*
X64252254Y-122798802D01*
X64356762Y-122785044D01*
X64502841Y-122724536D01*
X64564726Y-122677050D01*
X64628282Y-122628282D01*
X64647509Y-122603223D01*
X64658190Y-122591043D01*
X65159132Y-122090101D01*
X65220453Y-122056618D01*
X65290145Y-122061602D01*
X65346078Y-122103474D01*
X65370495Y-122168938D01*
X65370388Y-122188021D01*
X65367358Y-122224594D01*
X65367357Y-122224604D01*
X65367357Y-122224605D01*
X65387890Y-122472412D01*
X65387892Y-122472424D01*
X65448936Y-122713481D01*
X65548826Y-122941206D01*
X65684833Y-123149382D01*
X65684836Y-123149385D01*
X65853256Y-123332338D01*
X66049491Y-123485074D01*
X66268190Y-123603428D01*
X66503386Y-123684171D01*
X66748665Y-123725100D01*
X66997335Y-123725100D01*
X67242614Y-123684171D01*
X67477810Y-123603428D01*
X67696509Y-123485074D01*
X67892744Y-123332338D01*
X68061164Y-123149385D01*
X68197173Y-122941207D01*
X68215560Y-122899289D01*
X68260517Y-122845804D01*
X68327253Y-122825114D01*
X68329116Y-122825100D01*
X72127913Y-122825100D01*
X72144097Y-122826160D01*
X72175400Y-122830282D01*
X72175401Y-122830282D01*
X72227654Y-122823402D01*
X72332162Y-122809644D01*
X72332165Y-122809642D01*
X72340013Y-122807540D01*
X72340669Y-122809991D01*
X72397512Y-122803878D01*
X72459992Y-122835151D01*
X72495647Y-122895238D01*
X72499500Y-122925909D01*
X72499500Y-124999903D01*
X72479815Y-125066942D01*
X72463181Y-125087584D01*
X71462984Y-126087781D01*
X71401661Y-126121266D01*
X71375303Y-126124100D01*
X68329116Y-126124100D01*
X68262077Y-126104415D01*
X68216322Y-126051611D01*
X68215560Y-126049911D01*
X68197172Y-126007991D01*
X68061166Y-125799817D01*
X68012986Y-125747480D01*
X67892744Y-125616862D01*
X67696509Y-125464126D01*
X67696507Y-125464125D01*
X67696506Y-125464124D01*
X67477811Y-125345772D01*
X67477802Y-125345769D01*
X67242616Y-125265029D01*
X66997335Y-125224100D01*
X66748665Y-125224100D01*
X66503383Y-125265029D01*
X66268197Y-125345769D01*
X66268188Y-125345772D01*
X66049493Y-125464124D01*
X65853257Y-125616861D01*
X65684833Y-125799817D01*
X65548826Y-126007993D01*
X65448936Y-126235718D01*
X65387892Y-126476775D01*
X65387890Y-126476787D01*
X65367357Y-126724594D01*
X65367357Y-126724605D01*
X65387890Y-126972412D01*
X65387892Y-126972424D01*
X65448936Y-127213481D01*
X65548826Y-127441206D01*
X65684833Y-127649382D01*
X65700998Y-127666942D01*
X65853256Y-127832338D01*
X66049491Y-127985074D01*
X66268190Y-128103428D01*
X66337992Y-128127391D01*
X66427789Y-128158219D01*
X66484804Y-128198604D01*
X66510935Y-128263404D01*
X66497884Y-128332044D01*
X66449795Y-128382732D01*
X66387526Y-128399500D01*
X64747487Y-128399500D01*
X64731302Y-128398439D01*
X64700000Y-128394318D01*
X64660639Y-128399500D01*
X64543239Y-128414955D01*
X64543237Y-128414956D01*
X64397157Y-128475464D01*
X64271718Y-128571716D01*
X64252492Y-128596771D01*
X64241801Y-128608961D01*
X62262984Y-130587781D01*
X62201661Y-130621266D01*
X62175303Y-130624100D01*
X56829116Y-130624100D01*
X56762077Y-130604415D01*
X56716322Y-130551611D01*
X56715560Y-130549911D01*
X56697172Y-130507991D01*
X56561166Y-130299817D01*
X56515216Y-130249902D01*
X56392744Y-130116862D01*
X56196509Y-129964126D01*
X56196507Y-129964125D01*
X56196506Y-129964124D01*
X55977811Y-129845772D01*
X55977802Y-129845769D01*
X55742616Y-129765029D01*
X55497335Y-129724100D01*
X55248665Y-129724100D01*
X55003383Y-129765029D01*
X54768197Y-129845769D01*
X54768188Y-129845772D01*
X54549493Y-129964124D01*
X54353257Y-130116861D01*
X54184833Y-130299817D01*
X54048826Y-130507993D01*
X53948936Y-130735718D01*
X53887892Y-130976775D01*
X53887890Y-130976787D01*
X53867357Y-131224594D01*
X53867357Y-131224605D01*
X53887890Y-131472412D01*
X53887892Y-131472424D01*
X53948936Y-131713481D01*
X54048826Y-131941206D01*
X54184833Y-132149382D01*
X54200998Y-132166942D01*
X54353256Y-132332338D01*
X54549491Y-132485074D01*
X54768190Y-132603428D01*
X55003386Y-132684171D01*
X55248665Y-132725100D01*
X55497335Y-132725100D01*
X55742614Y-132684171D01*
X55977810Y-132603428D01*
X56196509Y-132485074D01*
X56392744Y-132332338D01*
X56561164Y-132149385D01*
X56697173Y-131941207D01*
X56715560Y-131899289D01*
X56760517Y-131845804D01*
X56827253Y-131825114D01*
X56829116Y-131825100D01*
X62427913Y-131825100D01*
X62444097Y-131826160D01*
X62475400Y-131830282D01*
X62475401Y-131830282D01*
X62527654Y-131823402D01*
X62632162Y-131809644D01*
X62778241Y-131749136D01*
X62903682Y-131652882D01*
X62922910Y-131627822D01*
X62933589Y-131615644D01*
X64912417Y-129636819D01*
X64973740Y-129603334D01*
X65000098Y-129600500D01*
X66239551Y-129600500D01*
X66306590Y-129620185D01*
X66352345Y-129672989D01*
X66362289Y-129742147D01*
X66333264Y-129805703D01*
X66279815Y-129841781D01*
X66268194Y-129845770D01*
X66268188Y-129845772D01*
X66049493Y-129964124D01*
X65853257Y-130116861D01*
X65684833Y-130299817D01*
X65548826Y-130507993D01*
X65448936Y-130735718D01*
X65387892Y-130976775D01*
X65387890Y-130976787D01*
X65367357Y-131224594D01*
X65367357Y-131224605D01*
X65387890Y-131472412D01*
X65387892Y-131472424D01*
X65448936Y-131713481D01*
X65548826Y-131941206D01*
X65684833Y-132149382D01*
X65700998Y-132166942D01*
X65853256Y-132332338D01*
X66049491Y-132485074D01*
X66268190Y-132603428D01*
X66503386Y-132684171D01*
X66748665Y-132725100D01*
X66997335Y-132725100D01*
X67242614Y-132684171D01*
X67477810Y-132603428D01*
X67696509Y-132485074D01*
X67892744Y-132332338D01*
X68061164Y-132149385D01*
X68197173Y-131941207D01*
X68215560Y-131899289D01*
X68260517Y-131845804D01*
X68327253Y-131825114D01*
X68329116Y-131825100D01*
X73575500Y-131825100D01*
X73642539Y-131844785D01*
X73688294Y-131897589D01*
X73699500Y-131949100D01*
X73699500Y-137375500D01*
X73679815Y-137442539D01*
X73627011Y-137488294D01*
X73575500Y-137499500D01*
X57847500Y-137499500D01*
X57780461Y-137479815D01*
X57734706Y-137427011D01*
X57723500Y-137375500D01*
X57723500Y-136179648D01*
X57743185Y-136112609D01*
X57788481Y-136070593D01*
X57946509Y-135985074D01*
X58142744Y-135832338D01*
X58241919Y-135724605D01*
X59617357Y-135724605D01*
X59637890Y-135972412D01*
X59637892Y-135972424D01*
X59698936Y-136213481D01*
X59798826Y-136441206D01*
X59934833Y-136649382D01*
X59934836Y-136649385D01*
X60103256Y-136832338D01*
X60299491Y-136985074D01*
X60518190Y-137103428D01*
X60753386Y-137184171D01*
X60998665Y-137225100D01*
X61247335Y-137225100D01*
X61492614Y-137184171D01*
X61727810Y-137103428D01*
X61946509Y-136985074D01*
X62142744Y-136832338D01*
X62311164Y-136649385D01*
X62447173Y-136441207D01*
X62547063Y-136213481D01*
X62608108Y-135972421D01*
X62618049Y-135852451D01*
X62628643Y-135724605D01*
X62628643Y-135724594D01*
X62608109Y-135476787D01*
X62608107Y-135476775D01*
X62547063Y-135235718D01*
X62447173Y-135007993D01*
X62311166Y-134799817D01*
X62241928Y-134724605D01*
X63617357Y-134724605D01*
X63637890Y-134972412D01*
X63637892Y-134972424D01*
X63698936Y-135213481D01*
X63798826Y-135441206D01*
X63934833Y-135649382D01*
X63934836Y-135649385D01*
X64103256Y-135832338D01*
X64299491Y-135985074D01*
X64518190Y-136103428D01*
X64753386Y-136184171D01*
X64998665Y-136225100D01*
X65247335Y-136225100D01*
X65492614Y-136184171D01*
X65727810Y-136103428D01*
X65946509Y-135985074D01*
X66142744Y-135832338D01*
X66311164Y-135649385D01*
X66447173Y-135441207D01*
X66547063Y-135213481D01*
X66608108Y-134972421D01*
X66608109Y-134972412D01*
X66628643Y-134724605D01*
X66628643Y-134724594D01*
X66608109Y-134476787D01*
X66608107Y-134476775D01*
X66547063Y-134235718D01*
X66447173Y-134007993D01*
X66311166Y-133799817D01*
X66252120Y-133735676D01*
X66142744Y-133616862D01*
X65946509Y-133464126D01*
X65946507Y-133464125D01*
X65946506Y-133464124D01*
X65727811Y-133345772D01*
X65727802Y-133345769D01*
X65492616Y-133265029D01*
X65247335Y-133224100D01*
X64998665Y-133224100D01*
X64753383Y-133265029D01*
X64518197Y-133345769D01*
X64518188Y-133345772D01*
X64299493Y-133464124D01*
X64103257Y-133616861D01*
X63934833Y-133799817D01*
X63798826Y-134007993D01*
X63698936Y-134235718D01*
X63637892Y-134476775D01*
X63637890Y-134476787D01*
X63617357Y-134724594D01*
X63617357Y-134724605D01*
X62241928Y-134724605D01*
X62142744Y-134616862D01*
X61946509Y-134464126D01*
X61946507Y-134464125D01*
X61946506Y-134464124D01*
X61727811Y-134345772D01*
X61727802Y-134345769D01*
X61492616Y-134265029D01*
X61247335Y-134224100D01*
X60998665Y-134224100D01*
X60753383Y-134265029D01*
X60518197Y-134345769D01*
X60518188Y-134345772D01*
X60299493Y-134464124D01*
X60103257Y-134616861D01*
X59934833Y-134799817D01*
X59798826Y-135007993D01*
X59698936Y-135235718D01*
X59637892Y-135476775D01*
X59637890Y-135476787D01*
X59617357Y-135724594D01*
X59617357Y-135724605D01*
X58241919Y-135724605D01*
X58311164Y-135649385D01*
X58447173Y-135441207D01*
X58547063Y-135213481D01*
X58608108Y-134972421D01*
X58608109Y-134972412D01*
X58628643Y-134724605D01*
X58628643Y-134724594D01*
X58608109Y-134476787D01*
X58608107Y-134476775D01*
X58547063Y-134235718D01*
X58447173Y-134007993D01*
X58311166Y-133799817D01*
X58252120Y-133735676D01*
X58142744Y-133616862D01*
X57946509Y-133464126D01*
X57946507Y-133464125D01*
X57946506Y-133464124D01*
X57727811Y-133345772D01*
X57727802Y-133345769D01*
X57492616Y-133265029D01*
X57247335Y-133224100D01*
X56998665Y-133224100D01*
X56753383Y-133265029D01*
X56518197Y-133345769D01*
X56518188Y-133345772D01*
X56299493Y-133464124D01*
X56103257Y-133616861D01*
X55934833Y-133799817D01*
X55798826Y-134007993D01*
X55698936Y-134235718D01*
X55637892Y-134476775D01*
X55637890Y-134476787D01*
X55617357Y-134724594D01*
X55617357Y-134724605D01*
X55637890Y-134972412D01*
X55637892Y-134972424D01*
X55698936Y-135213481D01*
X55798826Y-135441206D01*
X55934833Y-135649382D01*
X55934836Y-135649385D01*
X56103256Y-135832338D01*
X56299491Y-135985074D01*
X56299494Y-135985076D01*
X56299496Y-135985077D01*
X56365609Y-136020855D01*
X56457517Y-136070593D01*
X56507108Y-136119812D01*
X56522500Y-136179648D01*
X56522500Y-137875512D01*
X56521439Y-137891697D01*
X56517318Y-137922998D01*
X56517318Y-137923000D01*
X56522500Y-137962360D01*
X56522500Y-137962361D01*
X56537955Y-138079760D01*
X56537956Y-138079762D01*
X56598464Y-138225841D01*
X56694718Y-138351282D01*
X56694719Y-138351283D01*
X56719769Y-138370504D01*
X56731964Y-138381199D01*
X56841799Y-138491034D01*
X56852493Y-138503228D01*
X56871715Y-138528279D01*
X56871716Y-138528280D01*
X56871718Y-138528282D01*
X56997159Y-138624536D01*
X57143238Y-138685044D01*
X57221619Y-138695363D01*
X57299999Y-138705682D01*
X57300000Y-138705682D01*
X57331302Y-138701560D01*
X57347487Y-138700500D01*
X73852513Y-138700500D01*
X73868697Y-138701560D01*
X73900000Y-138705682D01*
X73900001Y-138705682D01*
X73952254Y-138698802D01*
X74056762Y-138685044D01*
X74202841Y-138624536D01*
X74328282Y-138528282D01*
X74347509Y-138503223D01*
X74358190Y-138491043D01*
X74691043Y-138158190D01*
X74703223Y-138147509D01*
X74728282Y-138128282D01*
X74824536Y-138002841D01*
X74885044Y-137856762D01*
X74900500Y-137739361D01*
X74905682Y-137700000D01*
X74902721Y-137677512D01*
X74901561Y-137668697D01*
X74900500Y-137652512D01*
X74900500Y-126724605D01*
X91867357Y-126724605D01*
X91887890Y-126972412D01*
X91887892Y-126972424D01*
X91948936Y-127213481D01*
X92048826Y-127441206D01*
X92184833Y-127649382D01*
X92200998Y-127666942D01*
X92353256Y-127832338D01*
X92549491Y-127985074D01*
X92768190Y-128103428D01*
X93003386Y-128184171D01*
X93248665Y-128225100D01*
X93497335Y-128225100D01*
X93742614Y-128184171D01*
X93977810Y-128103428D01*
X94196509Y-127985074D01*
X94392744Y-127832338D01*
X94561164Y-127649385D01*
X94697173Y-127441207D01*
X94797063Y-127213481D01*
X94858108Y-126972421D01*
X94858109Y-126972412D01*
X94878643Y-126724605D01*
X94878643Y-126724600D01*
X96367473Y-126724600D01*
X96387563Y-127056736D01*
X96387563Y-127056741D01*
X96387564Y-127056742D01*
X96447544Y-127384041D01*
X96447545Y-127384045D01*
X96447546Y-127384049D01*
X96546530Y-127701704D01*
X96546534Y-127701716D01*
X96546537Y-127701723D01*
X96683102Y-128005157D01*
X96835862Y-128257853D01*
X96855251Y-128289926D01*
X97060460Y-128551855D01*
X97295744Y-128787139D01*
X97557673Y-128992348D01*
X97557678Y-128992351D01*
X97557682Y-128992354D01*
X97842443Y-129164498D01*
X98145877Y-129301063D01*
X98145890Y-129301067D01*
X98145895Y-129301069D01*
X98233226Y-129328282D01*
X98463559Y-129400056D01*
X98790858Y-129460036D01*
X99039894Y-129475100D01*
X99039907Y-129475100D01*
X99206093Y-129475100D01*
X99206106Y-129475100D01*
X99455142Y-129460036D01*
X99782441Y-129400056D01*
X100100123Y-129301063D01*
X100403557Y-129164498D01*
X100688318Y-128992354D01*
X100950252Y-128787142D01*
X101185542Y-128551852D01*
X101333356Y-128363181D01*
X101390748Y-128289926D01*
X101390748Y-128289924D01*
X101390754Y-128289918D01*
X101562898Y-128005157D01*
X101699463Y-127701723D01*
X101798456Y-127384041D01*
X101858436Y-127056742D01*
X101878527Y-126724600D01*
X101858436Y-126392458D01*
X101798456Y-126065159D01*
X101699463Y-125747477D01*
X101562898Y-125444043D01*
X101390754Y-125159282D01*
X101390751Y-125159278D01*
X101390748Y-125159273D01*
X101185539Y-124897344D01*
X100950255Y-124662060D01*
X100688326Y-124456851D01*
X100688318Y-124456846D01*
X100403557Y-124284702D01*
X100100123Y-124148137D01*
X100100116Y-124148134D01*
X100100104Y-124148130D01*
X99782449Y-124049146D01*
X99782445Y-124049145D01*
X99782441Y-124049144D01*
X99455142Y-123989164D01*
X99455141Y-123989163D01*
X99455136Y-123989163D01*
X99206114Y-123974100D01*
X99206106Y-123974100D01*
X99039894Y-123974100D01*
X99039885Y-123974100D01*
X98790863Y-123989163D01*
X98790858Y-123989164D01*
X98463559Y-124049144D01*
X98463556Y-124049144D01*
X98463550Y-124049146D01*
X98145895Y-124148130D01*
X98145879Y-124148136D01*
X98145877Y-124148137D01*
X97952656Y-124235098D01*
X97842447Y-124284700D01*
X97842445Y-124284701D01*
X97557673Y-124456851D01*
X97295744Y-124662060D01*
X97060460Y-124897344D01*
X96855251Y-125159273D01*
X96683101Y-125444045D01*
X96683100Y-125444047D01*
X96546536Y-125747480D01*
X96546530Y-125747495D01*
X96447546Y-126065150D01*
X96447544Y-126065156D01*
X96447544Y-126065159D01*
X96440350Y-126104415D01*
X96387563Y-126392463D01*
X96367473Y-126724600D01*
X94878643Y-126724600D01*
X94878643Y-126724594D01*
X94858109Y-126476787D01*
X94858107Y-126476775D01*
X94797063Y-126235718D01*
X94697173Y-126007993D01*
X94561166Y-125799817D01*
X94512986Y-125747480D01*
X94392744Y-125616862D01*
X94196509Y-125464126D01*
X94196507Y-125464125D01*
X94196506Y-125464124D01*
X93977811Y-125345772D01*
X93977802Y-125345769D01*
X93742616Y-125265029D01*
X93497335Y-125224100D01*
X93248665Y-125224100D01*
X93003383Y-125265029D01*
X92768197Y-125345769D01*
X92768188Y-125345772D01*
X92549493Y-125464124D01*
X92353257Y-125616861D01*
X92184833Y-125799817D01*
X92048826Y-126007993D01*
X91948936Y-126235718D01*
X91887892Y-126476775D01*
X91887890Y-126476787D01*
X91867357Y-126724594D01*
X91867357Y-126724605D01*
X74900500Y-126724605D01*
X74900500Y-107474500D01*
X74920185Y-107407461D01*
X74972989Y-107361706D01*
X75024500Y-107350500D01*
X76568198Y-107350500D01*
X76584382Y-107351560D01*
X76615685Y-107355682D01*
X76615686Y-107355682D01*
X76667939Y-107348802D01*
X76772447Y-107335044D01*
X76918526Y-107274536D01*
X76937921Y-107259654D01*
X77043967Y-107178282D01*
X77063194Y-107153223D01*
X77073875Y-107141043D01*
X78511043Y-105703875D01*
X78523223Y-105693194D01*
X78548282Y-105673967D01*
X78577124Y-105636379D01*
X78633551Y-105595176D01*
X78703297Y-105591021D01*
X78764217Y-105625232D01*
X78796971Y-105686949D01*
X78799500Y-105711865D01*
X78799500Y-105752512D01*
X78798438Y-105768697D01*
X78794318Y-105800000D01*
X78811439Y-105930046D01*
X78814956Y-105956762D01*
X78875464Y-106102841D01*
X78971718Y-106228282D01*
X78971719Y-106228283D01*
X78996769Y-106247504D01*
X79008964Y-106258199D01*
X79557484Y-106806719D01*
X79568178Y-106818913D01*
X79587402Y-106843966D01*
X79692402Y-106924535D01*
X79692403Y-106924536D01*
X79712844Y-106940221D01*
X79712848Y-106940223D01*
X79785883Y-106970475D01*
X79858923Y-107000729D01*
X79929237Y-107009986D01*
X80015684Y-107021367D01*
X80015685Y-107021367D01*
X80046987Y-107017245D01*
X80063172Y-107016185D01*
X81018532Y-107016185D01*
X81085571Y-107035870D01*
X81106213Y-107052504D01*
X82644745Y-108591035D01*
X82655433Y-108603221D01*
X82674663Y-108628282D01*
X82777137Y-108706913D01*
X82800104Y-108724536D01*
X82946183Y-108785044D01*
X83024564Y-108795363D01*
X83102944Y-108805682D01*
X83102945Y-108805682D01*
X83134247Y-108801560D01*
X83150432Y-108800500D01*
X84571476Y-108800500D01*
X84638515Y-108820185D01*
X84659157Y-108836819D01*
X84843182Y-109020844D01*
X84876667Y-109082167D01*
X84879501Y-109108525D01*
X84879501Y-112292314D01*
X84878439Y-112308499D01*
X84874319Y-112339802D01*
X84879398Y-112378384D01*
X84879501Y-112379162D01*
X84879501Y-112379163D01*
X84894956Y-112496562D01*
X84894957Y-112496564D01*
X84948253Y-112625233D01*
X84955465Y-112642643D01*
X85051719Y-112768084D01*
X85076779Y-112787313D01*
X85088966Y-112798002D01*
X87482001Y-115191035D01*
X87492689Y-115203221D01*
X87511781Y-115228102D01*
X87511920Y-115228283D01*
X87577082Y-115278283D01*
X87637360Y-115324536D01*
X87637363Y-115324537D01*
X87637364Y-115324538D01*
X87709219Y-115354301D01*
X87783439Y-115385044D01*
X87861820Y-115395363D01*
X87940200Y-115405682D01*
X87940201Y-115405682D01*
X87971503Y-115401560D01*
X87987688Y-115400500D01*
X94299903Y-115400500D01*
X94366942Y-115420185D01*
X94387584Y-115436819D01*
X94486181Y-115535416D01*
X94519666Y-115596739D01*
X94522500Y-115623097D01*
X94522500Y-117269551D01*
X94502815Y-117336590D01*
X94457518Y-117378606D01*
X94299493Y-117464124D01*
X94103257Y-117616861D01*
X93934833Y-117799817D01*
X93798826Y-118007993D01*
X93698936Y-118235718D01*
X93637892Y-118476775D01*
X93637890Y-118476787D01*
X93617357Y-118724594D01*
X93617357Y-118724605D01*
X93637890Y-118972412D01*
X93637892Y-118972424D01*
X93698936Y-119213481D01*
X93798826Y-119441206D01*
X93934833Y-119649382D01*
X93934836Y-119649385D01*
X94103256Y-119832338D01*
X94299491Y-119985074D01*
X94518190Y-120103428D01*
X94753386Y-120184171D01*
X94998665Y-120225100D01*
X95247335Y-120225100D01*
X95492614Y-120184171D01*
X95727810Y-120103428D01*
X95946509Y-119985074D01*
X96142744Y-119832338D01*
X96311164Y-119649385D01*
X96421691Y-119480209D01*
X96474837Y-119434853D01*
X96544069Y-119425429D01*
X96607404Y-119454931D01*
X96644736Y-119513991D01*
X96649500Y-119548031D01*
X96649500Y-120849903D01*
X96629815Y-120916942D01*
X96613181Y-120937584D01*
X95962984Y-121587781D01*
X95901661Y-121621266D01*
X95875303Y-121624100D01*
X94829116Y-121624100D01*
X94762077Y-121604415D01*
X94716322Y-121551611D01*
X94715560Y-121549911D01*
X94697172Y-121507991D01*
X94561166Y-121299817D01*
X94530902Y-121266942D01*
X94392744Y-121116862D01*
X94196509Y-120964126D01*
X94196507Y-120964125D01*
X94196506Y-120964124D01*
X93977811Y-120845772D01*
X93977802Y-120845769D01*
X93742616Y-120765029D01*
X93497335Y-120724100D01*
X93248665Y-120724100D01*
X93003383Y-120765029D01*
X92768197Y-120845769D01*
X92768188Y-120845772D01*
X92549493Y-120964124D01*
X92353257Y-121116861D01*
X92184833Y-121299817D01*
X92048826Y-121507993D01*
X91948936Y-121735718D01*
X91887892Y-121976775D01*
X91887890Y-121976787D01*
X91867357Y-122224594D01*
X91867357Y-122224605D01*
X91887890Y-122472412D01*
X91887892Y-122472424D01*
X91948936Y-122713481D01*
X92048826Y-122941206D01*
X92184833Y-123149382D01*
X92184836Y-123149385D01*
X92353256Y-123332338D01*
X92549491Y-123485074D01*
X92768190Y-123603428D01*
X93003386Y-123684171D01*
X93248665Y-123725100D01*
X93497335Y-123725100D01*
X93742614Y-123684171D01*
X93977810Y-123603428D01*
X94196509Y-123485074D01*
X94392744Y-123332338D01*
X94561164Y-123149385D01*
X94697173Y-122941207D01*
X94715560Y-122899289D01*
X94760517Y-122845804D01*
X94827253Y-122825114D01*
X94829116Y-122825100D01*
X96127913Y-122825100D01*
X96144097Y-122826160D01*
X96175400Y-122830282D01*
X96175401Y-122830282D01*
X96227654Y-122823402D01*
X96332162Y-122809644D01*
X96478241Y-122749136D01*
X96499500Y-122732823D01*
X96510299Y-122724537D01*
X96510300Y-122724536D01*
X96524707Y-122713481D01*
X96603682Y-122652882D01*
X96622909Y-122627823D01*
X96633590Y-122615643D01*
X97641043Y-121608190D01*
X97653223Y-121597509D01*
X97678282Y-121578282D01*
X97774536Y-121452841D01*
X97835044Y-121306762D01*
X97850500Y-121189361D01*
X97855682Y-121150000D01*
X97851561Y-121118697D01*
X97850500Y-121102512D01*
X97850500Y-118578985D01*
X97870185Y-118511946D01*
X97922989Y-118466191D01*
X97992147Y-118456247D01*
X98055703Y-118485272D01*
X98065724Y-118494996D01*
X98192156Y-118632338D01*
X98388391Y-118785074D01*
X98607090Y-118903428D01*
X98842286Y-118984171D01*
X99087565Y-119025100D01*
X99336235Y-119025100D01*
X99581514Y-118984171D01*
X99816710Y-118903428D01*
X100035409Y-118785074D01*
X100113099Y-118724605D01*
X101617357Y-118724605D01*
X101637890Y-118972412D01*
X101637892Y-118972424D01*
X101698936Y-119213481D01*
X101798826Y-119441206D01*
X101934833Y-119649382D01*
X101934836Y-119649385D01*
X102103256Y-119832338D01*
X102299491Y-119985074D01*
X102518190Y-120103428D01*
X102753386Y-120184171D01*
X102998665Y-120225100D01*
X103247335Y-120225100D01*
X103492614Y-120184171D01*
X103727810Y-120103428D01*
X103946509Y-119985074D01*
X104142744Y-119832338D01*
X104311164Y-119649385D01*
X104447173Y-119441207D01*
X104547063Y-119213481D01*
X104608108Y-118972421D01*
X104628643Y-118724600D01*
X104608108Y-118476779D01*
X104547063Y-118235719D01*
X104546940Y-118235439D01*
X104447173Y-118007993D01*
X104311166Y-117799817D01*
X104210792Y-117690782D01*
X104142744Y-117616862D01*
X103946509Y-117464126D01*
X103946507Y-117464125D01*
X103946506Y-117464124D01*
X103727811Y-117345772D01*
X103727802Y-117345769D01*
X103492616Y-117265029D01*
X103247335Y-117224100D01*
X102998665Y-117224100D01*
X102753383Y-117265029D01*
X102518197Y-117345769D01*
X102518188Y-117345772D01*
X102299493Y-117464124D01*
X102103257Y-117616861D01*
X101934833Y-117799817D01*
X101798826Y-118007993D01*
X101698936Y-118235718D01*
X101637892Y-118476775D01*
X101637890Y-118476787D01*
X101617357Y-118724594D01*
X101617357Y-118724605D01*
X100113099Y-118724605D01*
X100231644Y-118632338D01*
X100400064Y-118449385D01*
X100536073Y-118241207D01*
X100635963Y-118013481D01*
X100697008Y-117772421D01*
X100709898Y-117616861D01*
X100717543Y-117524605D01*
X100717543Y-117524594D01*
X100697009Y-117276787D01*
X100697007Y-117276775D01*
X100635963Y-117035718D01*
X100536073Y-116807993D01*
X100400066Y-116599817D01*
X100352883Y-116548563D01*
X100231644Y-116416862D01*
X100035409Y-116264126D01*
X100035407Y-116264125D01*
X100035406Y-116264124D01*
X99816711Y-116145772D01*
X99816702Y-116145769D01*
X99581516Y-116065029D01*
X99336235Y-116024100D01*
X99087565Y-116024100D01*
X98842283Y-116065029D01*
X98607097Y-116145769D01*
X98607088Y-116145772D01*
X98388393Y-116264124D01*
X98192155Y-116416862D01*
X98192152Y-116416865D01*
X98065729Y-116554197D01*
X98005842Y-116590188D01*
X97936004Y-116588087D01*
X97878388Y-116548563D01*
X97851287Y-116484163D01*
X97850500Y-116470214D01*
X97850500Y-114897487D01*
X97851561Y-114881301D01*
X97855682Y-114850000D01*
X97841290Y-114740683D01*
X97852055Y-114671650D01*
X97898435Y-114619395D01*
X97964229Y-114600500D01*
X105999903Y-114600500D01*
X106066942Y-114620185D01*
X106087584Y-114636819D01*
X106463181Y-115012416D01*
X106496666Y-115073739D01*
X106499500Y-115100097D01*
X106499500Y-121099902D01*
X106479815Y-121166941D01*
X106463181Y-121187583D01*
X106283648Y-121367115D01*
X106222325Y-121400600D01*
X106152633Y-121395616D01*
X106096700Y-121353744D01*
X106092158Y-121347255D01*
X106061168Y-121299820D01*
X106061165Y-121299817D01*
X106061164Y-121299815D01*
X105892744Y-121116862D01*
X105696509Y-120964126D01*
X105696507Y-120964125D01*
X105696506Y-120964124D01*
X105477811Y-120845772D01*
X105477802Y-120845769D01*
X105242616Y-120765029D01*
X104997335Y-120724100D01*
X104748665Y-120724100D01*
X104503383Y-120765029D01*
X104268197Y-120845769D01*
X104268188Y-120845772D01*
X104049493Y-120964124D01*
X103853257Y-121116861D01*
X103684833Y-121299817D01*
X103548826Y-121507993D01*
X103448936Y-121735718D01*
X103387892Y-121976775D01*
X103387890Y-121976787D01*
X103367357Y-122224594D01*
X103367357Y-122224605D01*
X103387890Y-122472412D01*
X103387892Y-122472424D01*
X103448936Y-122713481D01*
X103548826Y-122941206D01*
X103684833Y-123149382D01*
X103684836Y-123149385D01*
X103853256Y-123332338D01*
X104049491Y-123485074D01*
X104268190Y-123603428D01*
X104503386Y-123684171D01*
X104748665Y-123725100D01*
X104997335Y-123725100D01*
X105242614Y-123684171D01*
X105477810Y-123603428D01*
X105696509Y-123485074D01*
X105892744Y-123332338D01*
X106061164Y-123149385D01*
X106197173Y-122941207D01*
X106215940Y-122898419D01*
X106260894Y-122844935D01*
X106313308Y-122825291D01*
X106432162Y-122809644D01*
X106578241Y-122749136D01*
X106599500Y-122732823D01*
X106610299Y-122724537D01*
X106610300Y-122724536D01*
X106624707Y-122713481D01*
X106700015Y-122655695D01*
X106765183Y-122630502D01*
X106833628Y-122644540D01*
X106883617Y-122693354D01*
X106899500Y-122754072D01*
X106899500Y-125999903D01*
X106879815Y-126066942D01*
X106863181Y-126087584D01*
X106862984Y-126087781D01*
X106801661Y-126121266D01*
X106775303Y-126124100D01*
X106329116Y-126124100D01*
X106262077Y-126104415D01*
X106216322Y-126051611D01*
X106215560Y-126049911D01*
X106197172Y-126007991D01*
X106061166Y-125799817D01*
X106012986Y-125747480D01*
X105892744Y-125616862D01*
X105696509Y-125464126D01*
X105696507Y-125464125D01*
X105696506Y-125464124D01*
X105477811Y-125345772D01*
X105477802Y-125345769D01*
X105242616Y-125265029D01*
X104997335Y-125224100D01*
X104748665Y-125224100D01*
X104503383Y-125265029D01*
X104268197Y-125345769D01*
X104268188Y-125345772D01*
X104049493Y-125464124D01*
X103853257Y-125616861D01*
X103684833Y-125799817D01*
X103548826Y-126007993D01*
X103448936Y-126235718D01*
X103387892Y-126476775D01*
X103387890Y-126476787D01*
X103367357Y-126724594D01*
X103367357Y-126724605D01*
X103387890Y-126972412D01*
X103387892Y-126972424D01*
X103448936Y-127213481D01*
X103548826Y-127441206D01*
X103684833Y-127649382D01*
X103700998Y-127666942D01*
X103853256Y-127832338D01*
X104049491Y-127985074D01*
X104268190Y-128103428D01*
X104503386Y-128184171D01*
X104748665Y-128225100D01*
X104997335Y-128225100D01*
X105242614Y-128184171D01*
X105477810Y-128103428D01*
X105696509Y-127985074D01*
X105892744Y-127832338D01*
X106061164Y-127649385D01*
X106197173Y-127441207D01*
X106215560Y-127399289D01*
X106260517Y-127345804D01*
X106327253Y-127325114D01*
X106329116Y-127325100D01*
X107027913Y-127325100D01*
X107044097Y-127326160D01*
X107075400Y-127330282D01*
X107159315Y-127319234D01*
X107228349Y-127329999D01*
X107280605Y-127376379D01*
X107299500Y-127442173D01*
X107299500Y-127599903D01*
X107279815Y-127666942D01*
X107263181Y-127687584D01*
X106337584Y-128613181D01*
X106276261Y-128646666D01*
X106249903Y-128649500D01*
X103397487Y-128649500D01*
X103381302Y-128648439D01*
X103350000Y-128644318D01*
X103310639Y-128649500D01*
X103193239Y-128664955D01*
X103193237Y-128664956D01*
X103047160Y-128725463D01*
X102921714Y-128821721D01*
X102902495Y-128846769D01*
X102891800Y-128858964D01*
X101162984Y-130587781D01*
X101101661Y-130621266D01*
X101075303Y-130624100D01*
X94829116Y-130624100D01*
X94762077Y-130604415D01*
X94716322Y-130551611D01*
X94715560Y-130549911D01*
X94697172Y-130507991D01*
X94561166Y-130299817D01*
X94515216Y-130249902D01*
X94392744Y-130116862D01*
X94196509Y-129964126D01*
X94196507Y-129964125D01*
X94196506Y-129964124D01*
X93977811Y-129845772D01*
X93977802Y-129845769D01*
X93742616Y-129765029D01*
X93497335Y-129724100D01*
X93248665Y-129724100D01*
X93003383Y-129765029D01*
X92768197Y-129845769D01*
X92768188Y-129845772D01*
X92549493Y-129964124D01*
X92353257Y-130116861D01*
X92184833Y-130299817D01*
X92048826Y-130507993D01*
X91948936Y-130735718D01*
X91887892Y-130976775D01*
X91887890Y-130976787D01*
X91867357Y-131224594D01*
X91867357Y-131224605D01*
X91887890Y-131472412D01*
X91887892Y-131472424D01*
X91948936Y-131713481D01*
X92048826Y-131941206D01*
X92184833Y-132149382D01*
X92200998Y-132166942D01*
X92353256Y-132332338D01*
X92549491Y-132485074D01*
X92768190Y-132603428D01*
X93003386Y-132684171D01*
X93248665Y-132725100D01*
X93497335Y-132725100D01*
X93742614Y-132684171D01*
X93977810Y-132603428D01*
X94196509Y-132485074D01*
X94392744Y-132332338D01*
X94561164Y-132149385D01*
X94697173Y-131941207D01*
X94715560Y-131899289D01*
X94760517Y-131845804D01*
X94827253Y-131825114D01*
X94829116Y-131825100D01*
X101327913Y-131825100D01*
X101344097Y-131826160D01*
X101375400Y-131830282D01*
X101375401Y-131830282D01*
X101427654Y-131823402D01*
X101532162Y-131809644D01*
X101678241Y-131749136D01*
X101803682Y-131652882D01*
X101822910Y-131627822D01*
X101833589Y-131615644D01*
X103562416Y-129886819D01*
X103623739Y-129853334D01*
X103650097Y-129850500D01*
X103834278Y-129850500D01*
X103901317Y-129870185D01*
X103947072Y-129922989D01*
X103957016Y-129992147D01*
X103927991Y-130055703D01*
X103910441Y-130072353D01*
X103853258Y-130116860D01*
X103684833Y-130299817D01*
X103548826Y-130507993D01*
X103448936Y-130735718D01*
X103387892Y-130976775D01*
X103387890Y-130976787D01*
X103367357Y-131224594D01*
X103367357Y-131224605D01*
X103387890Y-131472412D01*
X103387892Y-131472424D01*
X103448936Y-131713481D01*
X103548826Y-131941206D01*
X103684836Y-132149386D01*
X103723621Y-132191517D01*
X103754544Y-132254171D01*
X103746684Y-132323597D01*
X103702537Y-132377753D01*
X103636120Y-132399444D01*
X103632392Y-132399500D01*
X96895087Y-132399500D01*
X96878902Y-132398439D01*
X96847600Y-132394318D01*
X96808239Y-132399500D01*
X96690839Y-132414955D01*
X96690837Y-132414956D01*
X96544760Y-132475463D01*
X96419314Y-132571721D01*
X96400095Y-132596769D01*
X96389400Y-132608964D01*
X95726548Y-133271815D01*
X95665225Y-133305300D01*
X95598604Y-133301415D01*
X95492616Y-133265029D01*
X95247335Y-133224100D01*
X94998665Y-133224100D01*
X94753383Y-133265029D01*
X94518197Y-133345769D01*
X94518188Y-133345772D01*
X94299493Y-133464124D01*
X94103257Y-133616861D01*
X93934833Y-133799817D01*
X93798826Y-134007993D01*
X93698936Y-134235718D01*
X93637892Y-134476775D01*
X93637890Y-134476787D01*
X93617357Y-134724594D01*
X93617357Y-134724605D01*
X93637890Y-134972412D01*
X93637892Y-134972424D01*
X93698936Y-135213481D01*
X93798826Y-135441206D01*
X93934833Y-135649382D01*
X93934836Y-135649385D01*
X94103256Y-135832338D01*
X94299491Y-135985074D01*
X94518190Y-136103428D01*
X94753386Y-136184171D01*
X94998665Y-136225100D01*
X95247335Y-136225100D01*
X95492614Y-136184171D01*
X95727810Y-136103428D01*
X95946509Y-135985074D01*
X96142744Y-135832338D01*
X96241919Y-135724605D01*
X97617357Y-135724605D01*
X97637890Y-135972412D01*
X97637892Y-135972424D01*
X97698936Y-136213481D01*
X97798826Y-136441206D01*
X97934833Y-136649382D01*
X97934836Y-136649385D01*
X98103256Y-136832338D01*
X98299491Y-136985074D01*
X98518190Y-137103428D01*
X98753386Y-137184171D01*
X98998665Y-137225100D01*
X99247335Y-137225100D01*
X99492614Y-137184171D01*
X99727810Y-137103428D01*
X99946509Y-136985074D01*
X100142744Y-136832338D01*
X100311164Y-136649385D01*
X100447173Y-136441207D01*
X100547063Y-136213481D01*
X100608108Y-135972421D01*
X100618049Y-135852451D01*
X100628643Y-135724605D01*
X100628643Y-135724594D01*
X100608109Y-135476787D01*
X100608107Y-135476775D01*
X100547063Y-135235718D01*
X100447173Y-135007993D01*
X100311166Y-134799817D01*
X100241928Y-134724605D01*
X100142744Y-134616862D01*
X99946509Y-134464126D01*
X99946507Y-134464125D01*
X99946506Y-134464124D01*
X99727811Y-134345772D01*
X99727802Y-134345769D01*
X99492616Y-134265029D01*
X99247335Y-134224100D01*
X98998665Y-134224100D01*
X98753383Y-134265029D01*
X98518197Y-134345769D01*
X98518188Y-134345772D01*
X98299493Y-134464124D01*
X98103257Y-134616861D01*
X97934833Y-134799817D01*
X97798826Y-135007993D01*
X97698936Y-135235718D01*
X97637892Y-135476775D01*
X97637890Y-135476787D01*
X97617357Y-135724594D01*
X97617357Y-135724605D01*
X96241919Y-135724605D01*
X96311164Y-135649385D01*
X96447173Y-135441207D01*
X96547063Y-135213481D01*
X96608108Y-134972421D01*
X96608109Y-134972412D01*
X96628643Y-134724605D01*
X96628643Y-134724594D01*
X96608109Y-134476787D01*
X96608108Y-134476783D01*
X96608108Y-134476779D01*
X96604903Y-134464124D01*
X96546992Y-134235439D01*
X96549616Y-134165618D01*
X96579514Y-134117319D01*
X97060016Y-133636819D01*
X97121339Y-133603334D01*
X97147697Y-133600500D01*
X101836323Y-133600500D01*
X101903362Y-133620185D01*
X101949117Y-133672989D01*
X101959061Y-133742147D01*
X101936638Y-133794866D01*
X101937641Y-133795521D01*
X101798826Y-134007993D01*
X101698936Y-134235718D01*
X101637892Y-134476775D01*
X101637890Y-134476787D01*
X101617357Y-134724594D01*
X101617357Y-134724605D01*
X101637890Y-134972412D01*
X101637892Y-134972424D01*
X101698936Y-135213481D01*
X101798826Y-135441206D01*
X101934833Y-135649382D01*
X101934836Y-135649385D01*
X102103256Y-135832338D01*
X102299491Y-135985074D01*
X102518190Y-136103428D01*
X102753386Y-136184171D01*
X102998665Y-136225100D01*
X103247335Y-136225100D01*
X103492614Y-136184171D01*
X103727810Y-136103428D01*
X103946509Y-135985074D01*
X104142744Y-135832338D01*
X104311164Y-135649385D01*
X104447173Y-135441207D01*
X104547063Y-135213481D01*
X104608108Y-134972421D01*
X104608109Y-134972412D01*
X104628643Y-134724605D01*
X104628643Y-134724594D01*
X104608109Y-134476787D01*
X104608107Y-134476775D01*
X104547063Y-134235718D01*
X104447173Y-134007993D01*
X104308359Y-133795521D01*
X104309502Y-133794773D01*
X104286182Y-133735676D01*
X104299744Y-133667136D01*
X104348209Y-133616808D01*
X104409677Y-133600500D01*
X108052513Y-133600500D01*
X108068697Y-133601560D01*
X108100000Y-133605682D01*
X108100001Y-133605682D01*
X108152254Y-133598802D01*
X108256762Y-133585044D01*
X108402841Y-133524536D01*
X108481569Y-133464126D01*
X108528282Y-133428282D01*
X108547509Y-133403223D01*
X108558190Y-133391043D01*
X109091043Y-132858190D01*
X109103223Y-132847509D01*
X109128282Y-132828282D01*
X109224536Y-132702841D01*
X109285044Y-132556762D01*
X109300500Y-132439361D01*
X109305682Y-132400000D01*
X109305476Y-132398439D01*
X109301561Y-132368697D01*
X109300500Y-132352512D01*
X109300500Y-126724605D01*
X115367357Y-126724605D01*
X115387890Y-126972412D01*
X115387892Y-126972424D01*
X115448936Y-127213481D01*
X115548826Y-127441206D01*
X115684833Y-127649382D01*
X115700998Y-127666942D01*
X115853256Y-127832338D01*
X116049491Y-127985074D01*
X116268190Y-128103428D01*
X116503386Y-128184171D01*
X116748665Y-128225100D01*
X116997335Y-128225100D01*
X117242614Y-128184171D01*
X117477810Y-128103428D01*
X117696509Y-127985074D01*
X117892744Y-127832338D01*
X118061164Y-127649385D01*
X118197173Y-127441207D01*
X118297063Y-127213481D01*
X118358108Y-126972421D01*
X118358109Y-126972412D01*
X118378643Y-126724605D01*
X118378643Y-126724600D01*
X119867473Y-126724600D01*
X119887563Y-127056736D01*
X119887563Y-127056741D01*
X119887564Y-127056742D01*
X119947544Y-127384041D01*
X119947545Y-127384045D01*
X119947546Y-127384049D01*
X120046530Y-127701704D01*
X120046534Y-127701716D01*
X120046537Y-127701723D01*
X120183102Y-128005157D01*
X120335862Y-128257853D01*
X120355251Y-128289926D01*
X120560460Y-128551855D01*
X120795744Y-128787139D01*
X121057673Y-128992348D01*
X121057678Y-128992351D01*
X121057682Y-128992354D01*
X121342443Y-129164498D01*
X121645877Y-129301063D01*
X121645890Y-129301067D01*
X121645895Y-129301069D01*
X121733226Y-129328282D01*
X121963559Y-129400056D01*
X122290858Y-129460036D01*
X122539894Y-129475100D01*
X122539907Y-129475100D01*
X122706093Y-129475100D01*
X122706106Y-129475100D01*
X122955142Y-129460036D01*
X123282441Y-129400056D01*
X123600123Y-129301063D01*
X123903557Y-129164498D01*
X124188318Y-128992354D01*
X124450252Y-128787142D01*
X124685542Y-128551852D01*
X124833356Y-128363181D01*
X124890748Y-128289926D01*
X124890748Y-128289924D01*
X124890754Y-128289918D01*
X125062898Y-128005157D01*
X125199463Y-127701723D01*
X125298456Y-127384041D01*
X125358436Y-127056742D01*
X125378527Y-126724600D01*
X125358436Y-126392458D01*
X125298456Y-126065159D01*
X125199463Y-125747477D01*
X125062898Y-125444043D01*
X124890754Y-125159282D01*
X124890751Y-125159278D01*
X124890748Y-125159273D01*
X124685539Y-124897344D01*
X124450255Y-124662060D01*
X124188326Y-124456851D01*
X124188318Y-124456846D01*
X123903557Y-124284702D01*
X123600123Y-124148137D01*
X123600116Y-124148134D01*
X123600104Y-124148130D01*
X123282449Y-124049146D01*
X123282445Y-124049145D01*
X123282441Y-124049144D01*
X122955142Y-123989164D01*
X122955141Y-123989163D01*
X122955136Y-123989163D01*
X122706114Y-123974100D01*
X122706106Y-123974100D01*
X122539894Y-123974100D01*
X122539885Y-123974100D01*
X122290863Y-123989163D01*
X122290858Y-123989164D01*
X121963559Y-124049144D01*
X121963556Y-124049144D01*
X121963550Y-124049146D01*
X121645895Y-124148130D01*
X121645879Y-124148136D01*
X121645877Y-124148137D01*
X121452656Y-124235098D01*
X121342447Y-124284700D01*
X121342445Y-124284701D01*
X121057673Y-124456851D01*
X120795744Y-124662060D01*
X120560460Y-124897344D01*
X120355251Y-125159273D01*
X120183101Y-125444045D01*
X120183100Y-125444047D01*
X120046536Y-125747480D01*
X120046530Y-125747495D01*
X119947546Y-126065150D01*
X119947544Y-126065156D01*
X119947544Y-126065159D01*
X119940350Y-126104415D01*
X119887563Y-126392463D01*
X119867473Y-126724600D01*
X118378643Y-126724600D01*
X118378643Y-126724594D01*
X118358109Y-126476787D01*
X118358107Y-126476775D01*
X118297063Y-126235718D01*
X118197173Y-126007993D01*
X118061166Y-125799817D01*
X118012986Y-125747480D01*
X117892744Y-125616862D01*
X117696509Y-125464126D01*
X117696507Y-125464125D01*
X117696506Y-125464124D01*
X117477811Y-125345772D01*
X117477802Y-125345769D01*
X117242616Y-125265029D01*
X116997335Y-125224100D01*
X116748665Y-125224100D01*
X116503383Y-125265029D01*
X116268197Y-125345769D01*
X116268188Y-125345772D01*
X116049493Y-125464124D01*
X115853257Y-125616861D01*
X115684833Y-125799817D01*
X115548826Y-126007993D01*
X115448936Y-126235718D01*
X115387892Y-126476775D01*
X115387890Y-126476787D01*
X115367357Y-126724594D01*
X115367357Y-126724605D01*
X109300500Y-126724605D01*
X109300500Y-114050431D01*
X109301561Y-114034244D01*
X109305682Y-114002944D01*
X109305682Y-114002943D01*
X109285044Y-113846184D01*
X109285042Y-113846179D01*
X109224538Y-113700108D01*
X109224535Y-113700102D01*
X109198818Y-113666588D01*
X109198817Y-113666587D01*
X109128283Y-113574664D01*
X109128282Y-113574663D01*
X109103221Y-113555433D01*
X109091035Y-113544745D01*
X108358473Y-112812181D01*
X108324988Y-112750858D01*
X108329972Y-112681166D01*
X108371844Y-112625233D01*
X108437308Y-112600816D01*
X108446154Y-112600500D01*
X117898500Y-112600500D01*
X117965539Y-112620185D01*
X118011294Y-112672989D01*
X118022500Y-112724500D01*
X118022500Y-117269551D01*
X118002815Y-117336590D01*
X117957518Y-117378606D01*
X117799493Y-117464124D01*
X117603257Y-117616861D01*
X117434833Y-117799817D01*
X117298826Y-118007993D01*
X117198936Y-118235718D01*
X117137892Y-118476775D01*
X117137890Y-118476787D01*
X117117357Y-118724594D01*
X117117357Y-118724605D01*
X117137890Y-118972412D01*
X117137892Y-118972424D01*
X117198936Y-119213481D01*
X117298826Y-119441206D01*
X117434833Y-119649382D01*
X117434836Y-119649385D01*
X117603256Y-119832338D01*
X117799491Y-119985074D01*
X118018190Y-120103428D01*
X118253386Y-120184171D01*
X118498665Y-120225100D01*
X118747335Y-120225100D01*
X118992614Y-120184171D01*
X119227810Y-120103428D01*
X119446509Y-119985074D01*
X119642744Y-119832338D01*
X119684271Y-119787227D01*
X119744157Y-119751238D01*
X119813995Y-119753338D01*
X119871611Y-119792862D01*
X119898713Y-119857261D01*
X119899500Y-119871211D01*
X119899500Y-121199903D01*
X119879815Y-121266942D01*
X119863181Y-121287584D01*
X119562984Y-121587781D01*
X119501661Y-121621266D01*
X119475303Y-121624100D01*
X118329116Y-121624100D01*
X118262077Y-121604415D01*
X118216322Y-121551611D01*
X118215560Y-121549911D01*
X118197172Y-121507991D01*
X118061166Y-121299817D01*
X118030902Y-121266942D01*
X117892744Y-121116862D01*
X117696509Y-120964126D01*
X117696507Y-120964125D01*
X117696506Y-120964124D01*
X117477811Y-120845772D01*
X117477802Y-120845769D01*
X117242616Y-120765029D01*
X116997335Y-120724100D01*
X116748665Y-120724100D01*
X116503383Y-120765029D01*
X116268197Y-120845769D01*
X116268188Y-120845772D01*
X116049493Y-120964124D01*
X115853257Y-121116861D01*
X115684833Y-121299817D01*
X115548826Y-121507993D01*
X115448936Y-121735718D01*
X115387892Y-121976775D01*
X115387890Y-121976787D01*
X115367357Y-122224594D01*
X115367357Y-122224605D01*
X115387890Y-122472412D01*
X115387892Y-122472424D01*
X115448936Y-122713481D01*
X115548826Y-122941206D01*
X115684833Y-123149382D01*
X115684836Y-123149385D01*
X115853256Y-123332338D01*
X116049491Y-123485074D01*
X116268190Y-123603428D01*
X116503386Y-123684171D01*
X116748665Y-123725100D01*
X116997335Y-123725100D01*
X117242614Y-123684171D01*
X117477810Y-123603428D01*
X117696509Y-123485074D01*
X117892744Y-123332338D01*
X118061164Y-123149385D01*
X118197173Y-122941207D01*
X118215560Y-122899289D01*
X118260517Y-122845804D01*
X118327253Y-122825114D01*
X118329116Y-122825100D01*
X119727913Y-122825100D01*
X119744097Y-122826160D01*
X119775400Y-122830282D01*
X119775401Y-122830282D01*
X119827654Y-122823402D01*
X119932162Y-122809644D01*
X120078241Y-122749136D01*
X120099500Y-122732823D01*
X120110299Y-122724537D01*
X120110300Y-122724536D01*
X120124707Y-122713481D01*
X120203682Y-122652882D01*
X120222909Y-122627823D01*
X120233590Y-122615643D01*
X120891043Y-121958190D01*
X120903223Y-121947509D01*
X120928282Y-121928282D01*
X121024536Y-121802841D01*
X121085044Y-121656762D01*
X121100500Y-121539361D01*
X121105682Y-121500000D01*
X121104047Y-121487584D01*
X121101561Y-121468697D01*
X121100500Y-121452512D01*
X121100500Y-118177779D01*
X121120185Y-118110740D01*
X121172989Y-118064985D01*
X121242147Y-118055041D01*
X121305703Y-118084066D01*
X121338056Y-118127969D01*
X121387726Y-118241206D01*
X121523733Y-118449382D01*
X121523736Y-118449385D01*
X121692156Y-118632338D01*
X121888391Y-118785074D01*
X122107090Y-118903428D01*
X122342286Y-118984171D01*
X122587565Y-119025100D01*
X122836235Y-119025100D01*
X123081514Y-118984171D01*
X123316710Y-118903428D01*
X123535409Y-118785074D01*
X123613099Y-118724605D01*
X125117357Y-118724605D01*
X125137890Y-118972412D01*
X125137892Y-118972424D01*
X125198936Y-119213481D01*
X125298826Y-119441206D01*
X125434833Y-119649382D01*
X125434836Y-119649385D01*
X125603256Y-119832338D01*
X125799491Y-119985074D01*
X126018190Y-120103428D01*
X126253386Y-120184171D01*
X126498665Y-120225100D01*
X126747335Y-120225100D01*
X126992614Y-120184171D01*
X127227810Y-120103428D01*
X127446509Y-119985074D01*
X127642744Y-119832338D01*
X127811164Y-119649385D01*
X127947173Y-119441207D01*
X128047063Y-119213481D01*
X128108108Y-118972421D01*
X128128643Y-118724600D01*
X128108108Y-118476779D01*
X128047063Y-118235719D01*
X128046940Y-118235439D01*
X127947173Y-118007993D01*
X127811166Y-117799817D01*
X127710792Y-117690782D01*
X127642744Y-117616862D01*
X127446509Y-117464126D01*
X127446507Y-117464125D01*
X127446506Y-117464124D01*
X127227811Y-117345772D01*
X127227802Y-117345769D01*
X126992616Y-117265029D01*
X126747335Y-117224100D01*
X126498665Y-117224100D01*
X126253383Y-117265029D01*
X126018197Y-117345769D01*
X126018188Y-117345772D01*
X125799493Y-117464124D01*
X125603257Y-117616861D01*
X125434833Y-117799817D01*
X125298826Y-118007993D01*
X125198936Y-118235718D01*
X125137892Y-118476775D01*
X125137890Y-118476787D01*
X125117357Y-118724594D01*
X125117357Y-118724605D01*
X123613099Y-118724605D01*
X123731644Y-118632338D01*
X123900064Y-118449385D01*
X124036073Y-118241207D01*
X124135963Y-118013481D01*
X124197008Y-117772421D01*
X124209898Y-117616861D01*
X124217543Y-117524605D01*
X124217543Y-117524594D01*
X124197009Y-117276787D01*
X124197007Y-117276775D01*
X124135963Y-117035718D01*
X124036073Y-116807993D01*
X123900066Y-116599817D01*
X123852883Y-116548563D01*
X123731644Y-116416862D01*
X123535409Y-116264126D01*
X123535407Y-116264125D01*
X123535406Y-116264124D01*
X123316711Y-116145772D01*
X123316702Y-116145769D01*
X123081516Y-116065029D01*
X122836235Y-116024100D01*
X122587565Y-116024100D01*
X122342283Y-116065029D01*
X122107097Y-116145769D01*
X122107088Y-116145772D01*
X121888393Y-116264124D01*
X121692157Y-116416861D01*
X121523733Y-116599817D01*
X121387727Y-116807991D01*
X121338056Y-116921231D01*
X121293100Y-116974716D01*
X121226364Y-116995406D01*
X121159036Y-116976731D01*
X121112493Y-116924621D01*
X121100500Y-116871420D01*
X121100500Y-112647494D01*
X121101561Y-112631308D01*
X121105683Y-112600000D01*
X121105683Y-112599999D01*
X121102965Y-112579360D01*
X121085044Y-112443238D01*
X121024536Y-112297159D01*
X121004483Y-112271026D01*
X120928282Y-112171718D01*
X120928281Y-112171717D01*
X120903228Y-112152493D01*
X120891034Y-112141799D01*
X120761416Y-112012181D01*
X120727931Y-111950858D01*
X120732915Y-111881166D01*
X120774787Y-111825233D01*
X120840251Y-111800816D01*
X120849097Y-111800500D01*
X127134217Y-111800500D01*
X127201256Y-111820185D01*
X127221898Y-111836819D01*
X130613181Y-115228102D01*
X130646666Y-115289425D01*
X130649500Y-115315783D01*
X130649500Y-121199903D01*
X130629815Y-121266942D01*
X130613181Y-121287584D01*
X130312984Y-121587781D01*
X130251661Y-121621266D01*
X130225303Y-121624100D01*
X129829116Y-121624100D01*
X129762077Y-121604415D01*
X129716322Y-121551611D01*
X129715560Y-121549911D01*
X129697172Y-121507991D01*
X129561166Y-121299817D01*
X129530902Y-121266942D01*
X129392744Y-121116862D01*
X129196509Y-120964126D01*
X129196507Y-120964125D01*
X129196506Y-120964124D01*
X128977811Y-120845772D01*
X128977802Y-120845769D01*
X128742616Y-120765029D01*
X128497335Y-120724100D01*
X128248665Y-120724100D01*
X128003383Y-120765029D01*
X127768197Y-120845769D01*
X127768188Y-120845772D01*
X127549493Y-120964124D01*
X127353257Y-121116861D01*
X127184833Y-121299817D01*
X127048826Y-121507993D01*
X126948936Y-121735718D01*
X126887892Y-121976775D01*
X126887890Y-121976787D01*
X126867357Y-122224594D01*
X126867357Y-122224605D01*
X126887890Y-122472412D01*
X126887892Y-122472424D01*
X126948936Y-122713481D01*
X127048826Y-122941206D01*
X127184833Y-123149382D01*
X127184836Y-123149385D01*
X127353256Y-123332338D01*
X127549491Y-123485074D01*
X127768190Y-123603428D01*
X128003386Y-123684171D01*
X128248665Y-123725100D01*
X128497335Y-123725100D01*
X128742614Y-123684171D01*
X128977810Y-123603428D01*
X129196509Y-123485074D01*
X129392744Y-123332338D01*
X129561164Y-123149385D01*
X129697173Y-122941207D01*
X129715560Y-122899289D01*
X129760517Y-122845804D01*
X129827253Y-122825114D01*
X129829116Y-122825100D01*
X130477913Y-122825100D01*
X130494097Y-122826160D01*
X130525400Y-122830282D01*
X130525401Y-122830282D01*
X130577654Y-122823402D01*
X130682162Y-122809644D01*
X130828241Y-122749136D01*
X130850013Y-122732428D01*
X130915180Y-122707234D01*
X130983625Y-122721271D01*
X131033616Y-122770084D01*
X131049500Y-122830804D01*
X131049500Y-125949903D01*
X131029815Y-126016942D01*
X131013181Y-126037584D01*
X130962984Y-126087781D01*
X130901661Y-126121266D01*
X130875303Y-126124100D01*
X129829116Y-126124100D01*
X129762077Y-126104415D01*
X129716322Y-126051611D01*
X129715560Y-126049911D01*
X129697172Y-126007991D01*
X129561166Y-125799817D01*
X129512986Y-125747480D01*
X129392744Y-125616862D01*
X129196509Y-125464126D01*
X129196507Y-125464125D01*
X129196506Y-125464124D01*
X128977811Y-125345772D01*
X128977802Y-125345769D01*
X128742616Y-125265029D01*
X128497335Y-125224100D01*
X128248665Y-125224100D01*
X128003383Y-125265029D01*
X127768197Y-125345769D01*
X127768188Y-125345772D01*
X127549493Y-125464124D01*
X127353257Y-125616861D01*
X127184833Y-125799817D01*
X127048826Y-126007993D01*
X126948936Y-126235718D01*
X126887892Y-126476775D01*
X126887890Y-126476787D01*
X126867357Y-126724594D01*
X126867357Y-126724605D01*
X126887890Y-126972412D01*
X126887892Y-126972424D01*
X126948936Y-127213481D01*
X127048826Y-127441206D01*
X127184833Y-127649382D01*
X127200998Y-127666942D01*
X127353256Y-127832338D01*
X127549491Y-127985074D01*
X127549494Y-127985076D01*
X127549496Y-127985077D01*
X127699851Y-128066445D01*
X127749442Y-128115665D01*
X127764550Y-128183881D01*
X127740380Y-128249437D01*
X127684604Y-128291518D01*
X127640834Y-128299500D01*
X125897487Y-128299500D01*
X125881302Y-128298439D01*
X125850000Y-128294318D01*
X125810639Y-128299500D01*
X125693239Y-128314955D01*
X125693237Y-128314956D01*
X125547160Y-128375463D01*
X125421714Y-128471721D01*
X125402495Y-128496769D01*
X125391800Y-128508964D01*
X120812984Y-133087781D01*
X120751661Y-133121266D01*
X120725303Y-133124100D01*
X119670494Y-133124100D01*
X119654308Y-133123039D01*
X119623001Y-133118917D01*
X119622999Y-133118917D01*
X119466238Y-133139555D01*
X119320157Y-133200064D01*
X119213219Y-133282121D01*
X119148050Y-133307315D01*
X119097470Y-133301026D01*
X118992616Y-133265029D01*
X118747335Y-133224100D01*
X118498665Y-133224100D01*
X118253383Y-133265029D01*
X118018197Y-133345769D01*
X118018188Y-133345772D01*
X117799493Y-133464124D01*
X117603256Y-133616861D01*
X117590728Y-133630471D01*
X117530841Y-133666460D01*
X117461003Y-133664359D01*
X117403387Y-133624833D01*
X117376287Y-133560434D01*
X117375500Y-133546486D01*
X117375500Y-132727085D01*
X117395185Y-132660046D01*
X117447989Y-132614291D01*
X117459224Y-132609808D01*
X117477810Y-132603428D01*
X117696509Y-132485074D01*
X117892744Y-132332338D01*
X118061164Y-132149385D01*
X118197173Y-131941207D01*
X118297063Y-131713481D01*
X118358108Y-131472421D01*
X118378643Y-131224600D01*
X118358108Y-130976779D01*
X118297063Y-130735719D01*
X118248102Y-130624100D01*
X118197173Y-130507993D01*
X118061166Y-130299817D01*
X118015216Y-130249902D01*
X117892744Y-130116862D01*
X117696509Y-129964126D01*
X117696507Y-129964125D01*
X117696506Y-129964124D01*
X117477811Y-129845772D01*
X117477802Y-129845769D01*
X117242616Y-129765029D01*
X116997335Y-129724100D01*
X116748665Y-129724100D01*
X116503383Y-129765029D01*
X116268197Y-129845769D01*
X116268188Y-129845772D01*
X116049493Y-129964124D01*
X115853257Y-130116861D01*
X115684833Y-130299817D01*
X115548826Y-130507993D01*
X115448936Y-130735718D01*
X115387892Y-130976775D01*
X115387890Y-130976787D01*
X115367357Y-131224594D01*
X115367357Y-131224605D01*
X115387890Y-131472412D01*
X115387892Y-131472424D01*
X115448936Y-131713481D01*
X115548826Y-131941206D01*
X115684833Y-132149382D01*
X115700998Y-132166942D01*
X115853256Y-132332338D01*
X115975764Y-132427690D01*
X116049488Y-132485072D01*
X116049492Y-132485075D01*
X116109517Y-132517558D01*
X116159108Y-132566777D01*
X116174500Y-132626613D01*
X116174500Y-137677512D01*
X116173439Y-137693697D01*
X116172287Y-137702451D01*
X116169318Y-137725000D01*
X116186523Y-137855682D01*
X116189956Y-137881762D01*
X116250464Y-138027841D01*
X116346718Y-138153282D01*
X116346719Y-138153283D01*
X116371769Y-138172504D01*
X116383964Y-138183199D01*
X116491799Y-138291034D01*
X116502493Y-138303228D01*
X116521715Y-138328279D01*
X116521716Y-138328280D01*
X116521718Y-138328282D01*
X116647159Y-138424536D01*
X116793238Y-138485044D01*
X116871619Y-138495363D01*
X116949999Y-138505682D01*
X116950000Y-138505682D01*
X116981302Y-138501560D01*
X116997487Y-138500500D01*
X132152513Y-138500500D01*
X132168697Y-138501560D01*
X132200000Y-138505682D01*
X132200001Y-138505682D01*
X132267595Y-138496783D01*
X132356762Y-138485044D01*
X132502841Y-138424536D01*
X132628282Y-138328282D01*
X132647509Y-138303223D01*
X132658190Y-138291043D01*
X133241043Y-137708190D01*
X133253223Y-137697509D01*
X133278282Y-137678282D01*
X133374536Y-137552841D01*
X133435044Y-137406762D01*
X133450500Y-137289361D01*
X133455682Y-137250000D01*
X133451561Y-137218697D01*
X133450500Y-137202512D01*
X133450500Y-114400432D01*
X133451561Y-114384246D01*
X133455682Y-114352944D01*
X133455682Y-114352943D01*
X133435044Y-114196184D01*
X133435042Y-114196179D01*
X133374538Y-114050108D01*
X133374535Y-114050103D01*
X133345199Y-114011871D01*
X133345196Y-114011868D01*
X133338348Y-114002944D01*
X133278282Y-113924663D01*
X133253221Y-113905433D01*
X133241035Y-113894745D01*
X128555257Y-109208964D01*
X128544561Y-109196767D01*
X128525344Y-109171722D01*
X128525341Y-109171720D01*
X128525340Y-109171718D01*
X128399899Y-109075464D01*
X128253820Y-109014956D01*
X128253818Y-109014955D01*
X128097059Y-108994318D01*
X128097058Y-108994318D01*
X128065755Y-108998439D01*
X128049571Y-108999500D01*
X100500097Y-108999500D01*
X100433058Y-108979815D01*
X100412416Y-108963181D01*
X100336819Y-108887584D01*
X100303334Y-108826261D01*
X100300500Y-108799903D01*
X100300500Y-104240000D01*
X102164341Y-104240000D01*
X102184936Y-104475403D01*
X102184938Y-104475413D01*
X102246094Y-104703655D01*
X102246096Y-104703659D01*
X102246097Y-104703663D01*
X102310276Y-104841294D01*
X102345965Y-104917830D01*
X102345967Y-104917834D01*
X102454281Y-105072521D01*
X102481505Y-105111401D01*
X102648599Y-105278495D01*
X102745384Y-105346265D01*
X102842165Y-105414032D01*
X102842167Y-105414033D01*
X102842170Y-105414035D01*
X103056337Y-105513903D01*
X103056343Y-105513904D01*
X103056344Y-105513905D01*
X103090112Y-105522953D01*
X103284592Y-105575063D01*
X103466989Y-105591021D01*
X103519999Y-105595659D01*
X103520000Y-105595659D01*
X103520001Y-105595659D01*
X103573011Y-105591021D01*
X103755408Y-105575063D01*
X103983663Y-105513903D01*
X104197830Y-105414035D01*
X104391401Y-105278495D01*
X104558495Y-105111401D01*
X104694035Y-104917830D01*
X104793903Y-104703663D01*
X104855063Y-104475408D01*
X104875659Y-104240000D01*
X104855063Y-104004592D01*
X104793903Y-103776337D01*
X104694035Y-103562171D01*
X104601980Y-103430701D01*
X104558494Y-103368597D01*
X104391402Y-103201506D01*
X104391396Y-103201501D01*
X104205842Y-103071575D01*
X104162217Y-103016998D01*
X104155023Y-102947500D01*
X104186546Y-102885145D01*
X104205842Y-102868425D01*
X104249500Y-102837855D01*
X104391401Y-102738495D01*
X104558495Y-102571401D01*
X104694035Y-102377830D01*
X104793903Y-102163663D01*
X104855063Y-101935408D01*
X104875659Y-101700000D01*
X104855063Y-101464592D01*
X104793903Y-101236337D01*
X104694035Y-101022171D01*
X104688425Y-101014158D01*
X104558494Y-100828597D01*
X104391402Y-100661506D01*
X104391395Y-100661501D01*
X104197834Y-100525967D01*
X104197830Y-100525965D01*
X104197828Y-100525964D01*
X103983663Y-100426097D01*
X103983659Y-100426096D01*
X103983655Y-100426094D01*
X103755413Y-100364938D01*
X103755403Y-100364936D01*
X103520001Y-100344341D01*
X103519999Y-100344341D01*
X103284596Y-100364936D01*
X103284586Y-100364938D01*
X103056344Y-100426094D01*
X103056335Y-100426098D01*
X102842171Y-100525964D01*
X102842169Y-100525965D01*
X102648597Y-100661505D01*
X102481505Y-100828597D01*
X102345965Y-101022169D01*
X102345964Y-101022171D01*
X102246098Y-101236335D01*
X102246094Y-101236344D01*
X102184938Y-101464586D01*
X102184936Y-101464596D01*
X102164341Y-101699999D01*
X102164341Y-101700000D01*
X102184936Y-101935403D01*
X102184938Y-101935413D01*
X102246094Y-102163655D01*
X102246096Y-102163659D01*
X102246097Y-102163663D01*
X102314325Y-102309978D01*
X102345965Y-102377830D01*
X102345967Y-102377834D01*
X102454281Y-102532521D01*
X102480032Y-102569298D01*
X102481501Y-102571395D01*
X102481506Y-102571402D01*
X102648597Y-102738493D01*
X102648603Y-102738498D01*
X102834158Y-102868425D01*
X102877783Y-102923002D01*
X102884977Y-102992500D01*
X102853454Y-103054855D01*
X102834158Y-103071575D01*
X102648597Y-103201505D01*
X102481505Y-103368597D01*
X102345965Y-103562169D01*
X102345964Y-103562171D01*
X102246098Y-103776335D01*
X102246094Y-103776344D01*
X102184938Y-104004586D01*
X102184936Y-104004596D01*
X102164341Y-104239999D01*
X102164341Y-104240000D01*
X100300500Y-104240000D01*
X100300500Y-100347487D01*
X100301561Y-100331301D01*
X100305682Y-100299999D01*
X100305682Y-100299998D01*
X100285044Y-100143239D01*
X100285044Y-100143238D01*
X100224536Y-99997159D01*
X100128282Y-99871718D01*
X100128280Y-99871716D01*
X100128279Y-99871715D01*
X100103228Y-99852493D01*
X100091034Y-99841799D01*
X99958199Y-99708964D01*
X99947504Y-99696769D01*
X99928283Y-99671719D01*
X99928279Y-99671716D01*
X99802841Y-99575464D01*
X99656762Y-99514956D01*
X99656760Y-99514955D01*
X99539361Y-99499500D01*
X99500000Y-99494318D01*
X99468697Y-99498439D01*
X99452513Y-99499500D01*
X92447487Y-99499500D01*
X92431302Y-99498439D01*
X92400000Y-99494318D01*
X92360639Y-99499500D01*
X92243239Y-99514955D01*
X92243237Y-99514956D01*
X92097157Y-99575464D01*
X91971718Y-99671716D01*
X91952489Y-99696775D01*
X91941798Y-99708965D01*
X91758965Y-99891798D01*
X91746774Y-99902490D01*
X91721718Y-99921717D01*
X91697549Y-99953213D01*
X91697550Y-99953214D01*
X91625464Y-100047158D01*
X91625461Y-100047163D01*
X91564957Y-100193234D01*
X91564955Y-100193239D01*
X91544318Y-100349998D01*
X91544318Y-100353001D01*
X91543601Y-100355440D01*
X91543257Y-100358058D01*
X91542848Y-100358004D01*
X91524633Y-100420040D01*
X91471829Y-100465795D01*
X91402671Y-100475739D01*
X91367914Y-100465383D01*
X91283669Y-100426099D01*
X91283655Y-100426094D01*
X91055413Y-100364938D01*
X91055403Y-100364936D01*
X90820001Y-100344341D01*
X90819999Y-100344341D01*
X90584596Y-100364936D01*
X90584586Y-100364938D01*
X90356344Y-100426094D01*
X90356335Y-100426098D01*
X90142171Y-100525964D01*
X90142169Y-100525965D01*
X89948597Y-100661505D01*
X89781505Y-100828597D01*
X89651575Y-101014158D01*
X89596998Y-101057783D01*
X89527500Y-101064977D01*
X89465145Y-101033454D01*
X89448425Y-101014158D01*
X89318494Y-100828597D01*
X89151402Y-100661506D01*
X89151395Y-100661501D01*
X88957834Y-100525967D01*
X88957830Y-100525965D01*
X88957828Y-100525964D01*
X88743663Y-100426097D01*
X88743659Y-100426096D01*
X88743655Y-100426094D01*
X88515413Y-100364938D01*
X88515403Y-100364936D01*
X88280001Y-100344341D01*
X88279999Y-100344341D01*
X88044596Y-100364936D01*
X88044586Y-100364938D01*
X87816344Y-100426094D01*
X87816335Y-100426098D01*
X87602171Y-100525964D01*
X87602169Y-100525965D01*
X87408597Y-100661505D01*
X87241505Y-100828597D01*
X87111575Y-101014158D01*
X87056998Y-101057783D01*
X86987500Y-101064977D01*
X86925145Y-101033454D01*
X86908425Y-101014158D01*
X86778494Y-100828597D01*
X86611402Y-100661506D01*
X86611395Y-100661501D01*
X86417834Y-100525967D01*
X86417830Y-100525965D01*
X86417828Y-100525964D01*
X86203663Y-100426097D01*
X86203659Y-100426096D01*
X86203655Y-100426094D01*
X85975413Y-100364938D01*
X85975403Y-100364936D01*
X85740001Y-100344341D01*
X85739999Y-100344341D01*
X85504596Y-100364936D01*
X85504586Y-100364938D01*
X85276344Y-100426094D01*
X85276335Y-100426098D01*
X85062171Y-100525964D01*
X85062169Y-100525965D01*
X84868597Y-100661505D01*
X84701505Y-100828597D01*
X84571575Y-101014158D01*
X84516998Y-101057783D01*
X84447500Y-101064977D01*
X84385145Y-101033454D01*
X84368425Y-101014158D01*
X84238494Y-100828597D01*
X84071402Y-100661506D01*
X84071395Y-100661501D01*
X83877834Y-100525967D01*
X83877830Y-100525965D01*
X83877828Y-100525964D01*
X83663663Y-100426097D01*
X83663659Y-100426096D01*
X83663655Y-100426094D01*
X83435413Y-100364938D01*
X83435403Y-100364936D01*
X83200001Y-100344341D01*
X83199999Y-100344341D01*
X82964596Y-100364936D01*
X82964586Y-100364938D01*
X82736344Y-100426094D01*
X82736335Y-100426098D01*
X82522171Y-100525964D01*
X82522169Y-100525965D01*
X82328597Y-100661505D01*
X82161505Y-100828597D01*
X82031575Y-101014158D01*
X81976998Y-101057783D01*
X81907500Y-101064977D01*
X81845145Y-101033454D01*
X81828425Y-101014158D01*
X81698494Y-100828597D01*
X81531402Y-100661506D01*
X81531395Y-100661501D01*
X81337834Y-100525967D01*
X81337830Y-100525965D01*
X81337828Y-100525964D01*
X81123663Y-100426097D01*
X81123659Y-100426096D01*
X81123655Y-100426094D01*
X80895413Y-100364938D01*
X80895403Y-100364936D01*
X80660001Y-100344341D01*
X80659999Y-100344341D01*
X80424596Y-100364936D01*
X80424586Y-100364938D01*
X80196344Y-100426094D01*
X80196335Y-100426098D01*
X79982171Y-100525964D01*
X79982169Y-100525965D01*
X79788597Y-100661505D01*
X79621505Y-100828597D01*
X79491575Y-101014158D01*
X79436998Y-101057783D01*
X79367500Y-101064977D01*
X79305145Y-101033454D01*
X79288425Y-101014158D01*
X79158494Y-100828597D01*
X78991402Y-100661506D01*
X78991395Y-100661501D01*
X78797834Y-100525967D01*
X78797830Y-100525965D01*
X78797828Y-100525964D01*
X78583663Y-100426097D01*
X78583659Y-100426096D01*
X78583655Y-100426094D01*
X78355413Y-100364938D01*
X78355403Y-100364936D01*
X78120001Y-100344341D01*
X78119999Y-100344341D01*
X77884596Y-100364936D01*
X77884586Y-100364938D01*
X77656344Y-100426094D01*
X77656335Y-100426098D01*
X77442171Y-100525964D01*
X77442169Y-100525965D01*
X77248597Y-100661505D01*
X77081505Y-100828597D01*
X76951575Y-101014158D01*
X76896998Y-101057783D01*
X76827500Y-101064977D01*
X76765145Y-101033454D01*
X76748425Y-101014158D01*
X76618494Y-100828597D01*
X76451402Y-100661506D01*
X76451395Y-100661501D01*
X76257834Y-100525967D01*
X76257830Y-100525965D01*
X76257828Y-100525964D01*
X76043663Y-100426097D01*
X76043659Y-100426096D01*
X76043655Y-100426094D01*
X75815413Y-100364938D01*
X75815403Y-100364936D01*
X75580001Y-100344341D01*
X75579999Y-100344341D01*
X75344596Y-100364936D01*
X75344586Y-100364938D01*
X75116344Y-100426094D01*
X75116335Y-100426098D01*
X74902171Y-100525964D01*
X74902169Y-100525965D01*
X74708597Y-100661505D01*
X74541505Y-100828597D01*
X74411575Y-101014158D01*
X74356998Y-101057783D01*
X74287500Y-101064977D01*
X74225145Y-101033454D01*
X74208425Y-101014158D01*
X74078494Y-100828597D01*
X73911402Y-100661506D01*
X73911395Y-100661501D01*
X73717834Y-100525967D01*
X73717830Y-100525965D01*
X73717828Y-100525964D01*
X73503663Y-100426097D01*
X73503659Y-100426096D01*
X73503655Y-100426094D01*
X73275413Y-100364938D01*
X73275403Y-100364936D01*
X73040001Y-100344341D01*
X73039999Y-100344341D01*
X72804596Y-100364936D01*
X72804586Y-100364938D01*
X72576344Y-100426094D01*
X72576335Y-100426098D01*
X72362171Y-100525964D01*
X72362169Y-100525965D01*
X72168597Y-100661505D01*
X72001505Y-100828597D01*
X71871575Y-101014158D01*
X71816998Y-101057783D01*
X71747500Y-101064977D01*
X71685145Y-101033454D01*
X71668425Y-101014158D01*
X71538494Y-100828597D01*
X71371402Y-100661506D01*
X71371395Y-100661501D01*
X71177834Y-100525967D01*
X71177830Y-100525965D01*
X71177828Y-100525964D01*
X70963663Y-100426097D01*
X70963659Y-100426096D01*
X70963655Y-100426094D01*
X70735413Y-100364938D01*
X70735403Y-100364936D01*
X70500001Y-100344341D01*
X70499999Y-100344341D01*
X70264596Y-100364936D01*
X70264586Y-100364938D01*
X70036344Y-100426094D01*
X70036335Y-100426098D01*
X69822171Y-100525964D01*
X69822169Y-100525965D01*
X69628597Y-100661505D01*
X69461505Y-100828597D01*
X69331575Y-101014158D01*
X69276998Y-101057783D01*
X69207500Y-101064977D01*
X69145145Y-101033454D01*
X69128425Y-101014158D01*
X68998494Y-100828597D01*
X68831402Y-100661506D01*
X68831395Y-100661501D01*
X68637834Y-100525967D01*
X68637830Y-100525965D01*
X68637828Y-100525964D01*
X68423663Y-100426097D01*
X68423659Y-100426096D01*
X68423655Y-100426094D01*
X68195413Y-100364938D01*
X68195403Y-100364936D01*
X67960001Y-100344341D01*
X67959999Y-100344341D01*
X67724596Y-100364936D01*
X67724586Y-100364938D01*
X67496344Y-100426094D01*
X67496335Y-100426098D01*
X67282171Y-100525964D01*
X67282169Y-100525965D01*
X67088597Y-100661505D01*
X66921505Y-100828597D01*
X66791575Y-101014158D01*
X66736998Y-101057783D01*
X66667500Y-101064977D01*
X66605145Y-101033454D01*
X66588425Y-101014158D01*
X66458494Y-100828597D01*
X66291402Y-100661506D01*
X66291395Y-100661501D01*
X66097834Y-100525967D01*
X66097830Y-100525965D01*
X66097828Y-100525964D01*
X65883663Y-100426097D01*
X65883659Y-100426096D01*
X65883655Y-100426094D01*
X65655413Y-100364938D01*
X65655403Y-100364936D01*
X65420001Y-100344341D01*
X65419999Y-100344341D01*
X65184596Y-100364936D01*
X65184586Y-100364938D01*
X64956344Y-100426094D01*
X64956335Y-100426098D01*
X64742171Y-100525964D01*
X64742169Y-100525965D01*
X64548597Y-100661505D01*
X64381508Y-100828594D01*
X64251574Y-101014160D01*
X64196997Y-101057784D01*
X64127498Y-101064977D01*
X64065144Y-101033455D01*
X64048429Y-101014164D01*
X63918495Y-100828599D01*
X63918493Y-100828596D01*
X63751402Y-100661506D01*
X63751395Y-100661501D01*
X63557834Y-100525967D01*
X63557830Y-100525965D01*
X63557828Y-100525964D01*
X63343663Y-100426097D01*
X63343659Y-100426096D01*
X63343655Y-100426094D01*
X63115413Y-100364938D01*
X63115403Y-100364936D01*
X62880001Y-100344341D01*
X62879999Y-100344341D01*
X62644596Y-100364936D01*
X62644586Y-100364938D01*
X62416344Y-100426094D01*
X62416335Y-100426098D01*
X62202171Y-100525964D01*
X62202169Y-100525965D01*
X62008597Y-100661505D01*
X61841505Y-100828597D01*
X61711575Y-101014158D01*
X61656998Y-101057783D01*
X61587500Y-101064977D01*
X61525145Y-101033454D01*
X61508425Y-101014158D01*
X61378494Y-100828597D01*
X61211402Y-100661506D01*
X61211395Y-100661501D01*
X61017834Y-100525967D01*
X61017830Y-100525965D01*
X61017828Y-100525964D01*
X60803663Y-100426097D01*
X60803659Y-100426096D01*
X60803655Y-100426094D01*
X60575413Y-100364938D01*
X60575403Y-100364936D01*
X60340001Y-100344341D01*
X60339999Y-100344341D01*
X60104596Y-100364936D01*
X60104586Y-100364938D01*
X59876344Y-100426094D01*
X59876335Y-100426098D01*
X59662171Y-100525964D01*
X59662169Y-100525965D01*
X59468597Y-100661505D01*
X59301505Y-100828597D01*
X59165965Y-101022169D01*
X59165964Y-101022171D01*
X59066098Y-101236335D01*
X59066094Y-101236344D01*
X59004938Y-101464586D01*
X59004936Y-101464596D01*
X58984341Y-101699999D01*
X58984341Y-101700000D01*
X59004936Y-101935403D01*
X59004938Y-101935413D01*
X59066094Y-102163655D01*
X59066096Y-102163659D01*
X59066097Y-102163663D01*
X59134325Y-102309978D01*
X59165965Y-102377830D01*
X59165967Y-102377834D01*
X59274281Y-102532521D01*
X59300032Y-102569298D01*
X59301501Y-102571395D01*
X59301506Y-102571402D01*
X59468597Y-102738493D01*
X59468603Y-102738498D01*
X59654158Y-102868425D01*
X59697783Y-102923002D01*
X59704977Y-102992500D01*
X59673454Y-103054855D01*
X59654158Y-103071575D01*
X59468597Y-103201505D01*
X59301505Y-103368597D01*
X59165965Y-103562169D01*
X59165964Y-103562171D01*
X59066098Y-103776335D01*
X59066094Y-103776344D01*
X59004938Y-104004586D01*
X59004936Y-104004596D01*
X58984341Y-104239999D01*
X58984341Y-104240000D01*
X59004936Y-104475403D01*
X59004938Y-104475413D01*
X59066094Y-104703655D01*
X59066096Y-104703659D01*
X59066097Y-104703663D01*
X59130276Y-104841294D01*
X59165965Y-104917830D01*
X59165967Y-104917834D01*
X59274281Y-105072521D01*
X59301505Y-105111401D01*
X59468599Y-105278495D01*
X59565384Y-105346265D01*
X59662165Y-105414032D01*
X59662167Y-105414033D01*
X59662170Y-105414035D01*
X59876337Y-105513903D01*
X59876343Y-105513904D01*
X59876344Y-105513905D01*
X59910112Y-105522953D01*
X60104592Y-105575063D01*
X60286989Y-105591021D01*
X60339999Y-105595659D01*
X60340000Y-105595659D01*
X60340001Y-105595659D01*
X60393011Y-105591021D01*
X60575408Y-105575063D01*
X60803663Y-105513903D01*
X60823094Y-105504841D01*
X60892171Y-105494349D01*
X60955955Y-105522867D01*
X60994196Y-105581343D01*
X60999500Y-105617223D01*
X60999500Y-107060909D01*
X60979815Y-107127948D01*
X60973871Y-107136402D01*
X60970403Y-107140921D01*
X60966095Y-107145832D01*
X60956609Y-107168735D01*
X60946280Y-107193672D01*
X60935335Y-107220097D01*
X60908435Y-107285039D01*
X60908433Y-107285043D01*
X60904955Y-107293436D01*
X60904953Y-107293444D01*
X60884317Y-107450202D01*
X60884317Y-107450203D01*
X60888438Y-107481503D01*
X60889499Y-107497690D01*
X60889500Y-111675500D01*
X60869815Y-111742539D01*
X60817011Y-111788294D01*
X60765500Y-111799500D01*
X55153371Y-111799500D01*
X55137186Y-111798439D01*
X55105884Y-111794318D01*
X55105883Y-111794318D01*
X54954767Y-111814212D01*
X54954766Y-111814213D01*
X54951003Y-111814708D01*
X54949121Y-111814956D01*
X54803044Y-111875463D01*
X54677598Y-111971721D01*
X54658379Y-111996769D01*
X54647684Y-112008964D01*
X52393469Y-114263181D01*
X52332146Y-114296666D01*
X52305788Y-114299500D01*
X37495087Y-114299500D01*
X37478902Y-114298439D01*
X37447600Y-114294318D01*
X37447599Y-114294318D01*
X37301259Y-114313583D01*
X37301259Y-114313584D01*
X37290838Y-114314956D01*
X37144760Y-114375463D01*
X37019314Y-114471721D01*
X37000095Y-114496769D01*
X36989400Y-114508964D01*
X34226548Y-117271815D01*
X34165225Y-117305300D01*
X34098604Y-117301415D01*
X33992616Y-117265029D01*
X33747335Y-117224100D01*
X33498665Y-117224100D01*
X33253383Y-117265029D01*
X33018197Y-117345769D01*
X33018188Y-117345772D01*
X32799493Y-117464124D01*
X32603257Y-117616861D01*
X32434833Y-117799817D01*
X32298826Y-118007993D01*
X32198936Y-118235718D01*
X32137892Y-118476775D01*
X32137890Y-118476787D01*
X32117357Y-118724594D01*
X32117357Y-118724605D01*
X32137890Y-118972412D01*
X32137892Y-118972424D01*
X32198936Y-119213481D01*
X32298826Y-119441206D01*
X32434833Y-119649382D01*
X32434836Y-119649385D01*
X32603256Y-119832338D01*
X32799491Y-119985074D01*
X33018190Y-120103428D01*
X33253386Y-120184171D01*
X33498665Y-120225100D01*
X33747335Y-120225100D01*
X33992614Y-120184171D01*
X34227810Y-120103428D01*
X34446509Y-119985074D01*
X34642744Y-119832338D01*
X34811164Y-119649385D01*
X34947173Y-119441207D01*
X35047063Y-119213481D01*
X35108108Y-118972421D01*
X35128643Y-118724600D01*
X35108108Y-118476779D01*
X35047063Y-118235719D01*
X35047062Y-118235718D01*
X35046992Y-118235439D01*
X35049616Y-118165618D01*
X35079514Y-118117319D01*
X36015315Y-117181518D01*
X36076636Y-117148035D01*
X36146328Y-117153019D01*
X36202261Y-117194891D01*
X36226678Y-117260355D01*
X36226571Y-117279440D01*
X36221075Y-117345769D01*
X36206258Y-117524594D01*
X36206257Y-117524604D01*
X36206257Y-117524605D01*
X36226790Y-117772412D01*
X36226792Y-117772424D01*
X36287836Y-118013481D01*
X36387726Y-118241206D01*
X36523733Y-118449382D01*
X36523736Y-118449385D01*
X36692156Y-118632338D01*
X36888391Y-118785074D01*
X37107090Y-118903428D01*
X37342286Y-118984171D01*
X37587565Y-119025100D01*
X37836235Y-119025100D01*
X38081514Y-118984171D01*
X38316710Y-118903428D01*
X38535409Y-118785074D01*
X38731644Y-118632338D01*
X38900064Y-118449385D01*
X39036073Y-118241207D01*
X39135963Y-118013481D01*
X39197008Y-117772421D01*
X39209898Y-117616861D01*
X39217543Y-117524605D01*
X39217543Y-117524594D01*
X39197009Y-117276787D01*
X39197007Y-117276775D01*
X39135963Y-117035718D01*
X39036073Y-116807993D01*
X38900066Y-116599817D01*
X38852883Y-116548563D01*
X38731644Y-116416862D01*
X38535409Y-116264126D01*
X38535407Y-116264125D01*
X38535406Y-116264124D01*
X38316711Y-116145772D01*
X38316702Y-116145769D01*
X38081516Y-116065029D01*
X37836235Y-116024100D01*
X37587565Y-116024100D01*
X37587564Y-116024100D01*
X37471435Y-116043477D01*
X37402070Y-116035094D01*
X37348249Y-115990541D01*
X37327058Y-115923962D01*
X37345227Y-115856496D01*
X37363336Y-115833497D01*
X37660018Y-115536816D01*
X37721339Y-115503334D01*
X37747697Y-115500500D01*
X51422475Y-115500500D01*
X51489514Y-115520185D01*
X51535269Y-115572989D01*
X51545213Y-115642147D01*
X51516188Y-115705703D01*
X51510156Y-115712181D01*
X47709158Y-119513181D01*
X47647835Y-119546666D01*
X47621477Y-119549500D01*
X43089468Y-119549500D01*
X43022429Y-119529815D01*
X42976674Y-119477011D01*
X42966730Y-119407853D01*
X42975912Y-119375690D01*
X43047063Y-119213481D01*
X43108107Y-118972424D01*
X43108108Y-118972421D01*
X43128643Y-118724600D01*
X43108108Y-118476779D01*
X43047063Y-118235719D01*
X43046940Y-118235439D01*
X42947173Y-118007993D01*
X42811166Y-117799817D01*
X42710792Y-117690782D01*
X42642744Y-117616862D01*
X42446509Y-117464126D01*
X42446507Y-117464125D01*
X42446506Y-117464124D01*
X42227811Y-117345772D01*
X42227802Y-117345769D01*
X41992616Y-117265029D01*
X41747335Y-117224100D01*
X41498665Y-117224100D01*
X41253383Y-117265029D01*
X41018197Y-117345769D01*
X41018188Y-117345772D01*
X40799493Y-117464124D01*
X40603257Y-117616861D01*
X40434833Y-117799817D01*
X40298826Y-118007993D01*
X40198936Y-118235718D01*
X40137892Y-118476775D01*
X40137890Y-118476787D01*
X40117357Y-118724594D01*
X40117357Y-118724605D01*
X40137890Y-118972412D01*
X40137892Y-118972424D01*
X40198936Y-119213481D01*
X40298826Y-119441206D01*
X40434833Y-119649382D01*
X40434836Y-119649385D01*
X40603256Y-119832338D01*
X40799491Y-119985074D01*
X41018190Y-120103428D01*
X41253386Y-120184171D01*
X41498665Y-120225100D01*
X41526301Y-120225100D01*
X41593340Y-120244785D01*
X41639095Y-120297589D01*
X41649039Y-120366747D01*
X41620014Y-120430303D01*
X41613982Y-120436781D01*
X40462984Y-121587781D01*
X40401661Y-121621266D01*
X40375303Y-121624100D01*
X33329116Y-121624100D01*
X33262077Y-121604415D01*
X33216322Y-121551611D01*
X33215560Y-121549911D01*
X33197172Y-121507991D01*
X33061166Y-121299817D01*
X33030902Y-121266942D01*
X32892744Y-121116862D01*
X32696509Y-120964126D01*
X32696507Y-120964125D01*
X32696506Y-120964124D01*
X32477811Y-120845772D01*
X32477802Y-120845769D01*
X32242616Y-120765029D01*
X31997335Y-120724100D01*
X31748665Y-120724100D01*
X31503383Y-120765029D01*
X31268197Y-120845769D01*
X31268188Y-120845772D01*
X31049493Y-120964124D01*
X30853257Y-121116861D01*
X30684833Y-121299817D01*
X30548826Y-121507993D01*
X30448936Y-121735718D01*
X30387892Y-121976775D01*
X30387890Y-121976787D01*
X30367357Y-122224594D01*
X30367357Y-122224605D01*
X30387890Y-122472412D01*
X30387892Y-122472424D01*
X30448936Y-122713481D01*
X30548826Y-122941206D01*
X30684833Y-123149382D01*
X30684836Y-123149385D01*
X30853256Y-123332338D01*
X31049491Y-123485074D01*
X31268190Y-123603428D01*
X31503386Y-123684171D01*
X31748665Y-123725100D01*
X31997335Y-123725100D01*
X32242614Y-123684171D01*
X32477810Y-123603428D01*
X32696509Y-123485074D01*
X32892744Y-123332338D01*
X33061164Y-123149385D01*
X33197173Y-122941207D01*
X33215560Y-122899289D01*
X33260517Y-122845804D01*
X33327253Y-122825114D01*
X33329116Y-122825100D01*
X40627913Y-122825100D01*
X40644097Y-122826160D01*
X40675400Y-122830282D01*
X40675401Y-122830282D01*
X40727654Y-122823402D01*
X40832162Y-122809644D01*
X40978241Y-122749136D01*
X40999500Y-122732823D01*
X41010299Y-122724537D01*
X41010300Y-122724536D01*
X41024707Y-122713481D01*
X41103682Y-122652882D01*
X41122909Y-122627823D01*
X41133590Y-122615643D01*
X41659132Y-122090101D01*
X41720453Y-122056618D01*
X41790145Y-122061602D01*
X41846078Y-122103474D01*
X41870495Y-122168938D01*
X41870388Y-122188021D01*
X41867358Y-122224594D01*
X41867357Y-122224604D01*
X41867357Y-122224605D01*
X41887890Y-122472412D01*
X41887892Y-122472424D01*
X41948936Y-122713481D01*
X42048826Y-122941206D01*
X42184833Y-123149382D01*
X42184836Y-123149385D01*
X42353256Y-123332338D01*
X42549491Y-123485074D01*
X42768190Y-123603428D01*
X43003386Y-123684171D01*
X43248665Y-123725100D01*
X43497335Y-123725100D01*
X43742614Y-123684171D01*
X43977810Y-123603428D01*
X44196509Y-123485074D01*
X44392744Y-123332338D01*
X44561164Y-123149385D01*
X44697173Y-122941207D01*
X44715560Y-122899289D01*
X44760517Y-122845804D01*
X44827253Y-122825114D01*
X44829116Y-122825100D01*
X46365169Y-122825100D01*
X46381353Y-122826160D01*
X46412656Y-122830282D01*
X46412657Y-122830282D01*
X46464910Y-122823402D01*
X46569418Y-122809644D01*
X46715497Y-122749136D01*
X46736756Y-122732823D01*
X46747555Y-122724537D01*
X46747556Y-122724536D01*
X46761963Y-122713481D01*
X46840938Y-122652882D01*
X46860166Y-122627822D01*
X46870845Y-122615644D01*
X47387820Y-122098670D01*
X47449142Y-122065186D01*
X47518834Y-122070170D01*
X47574767Y-122112042D01*
X47599184Y-122177506D01*
X47599500Y-122186352D01*
X47599500Y-125099903D01*
X47579815Y-125166942D01*
X47563181Y-125187584D01*
X46662984Y-126087781D01*
X46601661Y-126121266D01*
X46575303Y-126124100D01*
X44829116Y-126124100D01*
X44762077Y-126104415D01*
X44716322Y-126051611D01*
X44715560Y-126049911D01*
X44697172Y-126007991D01*
X44561166Y-125799817D01*
X44512986Y-125747480D01*
X44392744Y-125616862D01*
X44196509Y-125464126D01*
X44196507Y-125464125D01*
X44196506Y-125464124D01*
X43977811Y-125345772D01*
X43977802Y-125345769D01*
X43742616Y-125265029D01*
X43497335Y-125224100D01*
X43248665Y-125224100D01*
X43003383Y-125265029D01*
X42768197Y-125345769D01*
X42768188Y-125345772D01*
X42549493Y-125464124D01*
X42353257Y-125616861D01*
X42184833Y-125799817D01*
X42048826Y-126007993D01*
X41948936Y-126235718D01*
X41887892Y-126476775D01*
X41887890Y-126476787D01*
X41867357Y-126724594D01*
X41867357Y-126724605D01*
X41887890Y-126972412D01*
X41887892Y-126972424D01*
X41948936Y-127213481D01*
X42048826Y-127441206D01*
X42184833Y-127649382D01*
X42200998Y-127666942D01*
X42353256Y-127832338D01*
X42549491Y-127985074D01*
X42549494Y-127985076D01*
X42549496Y-127985077D01*
X42699851Y-128066445D01*
X42749442Y-128115665D01*
X42764550Y-128183881D01*
X42740380Y-128249437D01*
X42684604Y-128291518D01*
X42640834Y-128299500D01*
X41647487Y-128299500D01*
X41631302Y-128298439D01*
X41600000Y-128294318D01*
X41560639Y-128299500D01*
X41443239Y-128314955D01*
X41443237Y-128314956D01*
X41297160Y-128375463D01*
X41171714Y-128471721D01*
X41152495Y-128496769D01*
X41141800Y-128508964D01*
X39062984Y-130587781D01*
X39001661Y-130621266D01*
X38975303Y-130624100D01*
X33329116Y-130624100D01*
X33262077Y-130604415D01*
X33216322Y-130551611D01*
X33215560Y-130549911D01*
X33197172Y-130507991D01*
X33061166Y-130299817D01*
X33015216Y-130249902D01*
X32892744Y-130116862D01*
X32696509Y-129964126D01*
X32696507Y-129964125D01*
X32696506Y-129964124D01*
X32477811Y-129845772D01*
X32477802Y-129845769D01*
X32242616Y-129765029D01*
X31997335Y-129724100D01*
X31748665Y-129724100D01*
X31503383Y-129765029D01*
X31268197Y-129845769D01*
X31268188Y-129845772D01*
X31049493Y-129964124D01*
X30853257Y-130116861D01*
X30684833Y-130299817D01*
X30548826Y-130507993D01*
X30448936Y-130735718D01*
X30387892Y-130976775D01*
X30387890Y-130976787D01*
X30367357Y-131224594D01*
X30367357Y-131224605D01*
X20750500Y-131224605D01*
X20750500Y-126724605D01*
X30367357Y-126724605D01*
X30387890Y-126972412D01*
X30387892Y-126972424D01*
X30448936Y-127213481D01*
X30548826Y-127441206D01*
X30684833Y-127649382D01*
X30700998Y-127666942D01*
X30853256Y-127832338D01*
X31049491Y-127985074D01*
X31268190Y-128103428D01*
X31503386Y-128184171D01*
X31748665Y-128225100D01*
X31997335Y-128225100D01*
X32242614Y-128184171D01*
X32477810Y-128103428D01*
X32696509Y-127985074D01*
X32892744Y-127832338D01*
X33061164Y-127649385D01*
X33197173Y-127441207D01*
X33297063Y-127213481D01*
X33358108Y-126972421D01*
X33358109Y-126972412D01*
X33378643Y-126724605D01*
X33378643Y-126724600D01*
X34867473Y-126724600D01*
X34887563Y-127056736D01*
X34887563Y-127056741D01*
X34887564Y-127056742D01*
X34947544Y-127384041D01*
X34947545Y-127384045D01*
X34947546Y-127384049D01*
X35046530Y-127701704D01*
X35046534Y-127701716D01*
X35046537Y-127701723D01*
X35183102Y-128005157D01*
X35335862Y-128257853D01*
X35355251Y-128289926D01*
X35560460Y-128551855D01*
X35795744Y-128787139D01*
X36057673Y-128992348D01*
X36057678Y-128992351D01*
X36057682Y-128992354D01*
X36342443Y-129164498D01*
X36645877Y-129301063D01*
X36645890Y-129301067D01*
X36645895Y-129301069D01*
X36733226Y-129328282D01*
X36963559Y-129400056D01*
X37290858Y-129460036D01*
X37539894Y-129475100D01*
X37539907Y-129475100D01*
X37706093Y-129475100D01*
X37706106Y-129475100D01*
X37955142Y-129460036D01*
X38282441Y-129400056D01*
X38600123Y-129301063D01*
X38903557Y-129164498D01*
X39188318Y-128992354D01*
X39450252Y-128787142D01*
X39685542Y-128551852D01*
X39833356Y-128363181D01*
X39890748Y-128289926D01*
X39890748Y-128289924D01*
X39890754Y-128289918D01*
X40062898Y-128005157D01*
X40199463Y-127701723D01*
X40298456Y-127384041D01*
X40358436Y-127056742D01*
X40378527Y-126724600D01*
X40358436Y-126392458D01*
X40298456Y-126065159D01*
X40199463Y-125747477D01*
X40062898Y-125444043D01*
X39890754Y-125159282D01*
X39890751Y-125159278D01*
X39890748Y-125159273D01*
X39685539Y-124897344D01*
X39450255Y-124662060D01*
X39188326Y-124456851D01*
X39188318Y-124456846D01*
X38903557Y-124284702D01*
X38600123Y-124148137D01*
X38600116Y-124148134D01*
X38600104Y-124148130D01*
X38282449Y-124049146D01*
X38282445Y-124049145D01*
X38282441Y-124049144D01*
X37955142Y-123989164D01*
X37955141Y-123989163D01*
X37955136Y-123989163D01*
X37706114Y-123974100D01*
X37706106Y-123974100D01*
X37539894Y-123974100D01*
X37539885Y-123974100D01*
X37290863Y-123989163D01*
X37290858Y-123989164D01*
X36963559Y-124049144D01*
X36963556Y-124049144D01*
X36963550Y-124049146D01*
X36645895Y-124148130D01*
X36645879Y-124148136D01*
X36645877Y-124148137D01*
X36452656Y-124235098D01*
X36342447Y-124284700D01*
X36342445Y-124284701D01*
X36057673Y-124456851D01*
X35795744Y-124662060D01*
X35560460Y-124897344D01*
X35355251Y-125159273D01*
X35183101Y-125444045D01*
X35183100Y-125444047D01*
X35046536Y-125747480D01*
X35046530Y-125747495D01*
X34947546Y-126065150D01*
X34947544Y-126065156D01*
X34947544Y-126065159D01*
X34940350Y-126104415D01*
X34887563Y-126392463D01*
X34867473Y-126724600D01*
X33378643Y-126724600D01*
X33378643Y-126724594D01*
X33358109Y-126476787D01*
X33358107Y-126476775D01*
X33297063Y-126235718D01*
X33197173Y-126007993D01*
X33061166Y-125799817D01*
X33012986Y-125747480D01*
X32892744Y-125616862D01*
X32696509Y-125464126D01*
X32696507Y-125464125D01*
X32696506Y-125464124D01*
X32477811Y-125345772D01*
X32477802Y-125345769D01*
X32242616Y-125265029D01*
X31997335Y-125224100D01*
X31748665Y-125224100D01*
X31503383Y-125265029D01*
X31268197Y-125345769D01*
X31268188Y-125345772D01*
X31049493Y-125464124D01*
X30853257Y-125616861D01*
X30684833Y-125799817D01*
X30548826Y-126007993D01*
X30448936Y-126235718D01*
X30387892Y-126476775D01*
X30387890Y-126476787D01*
X30367357Y-126724594D01*
X30367357Y-126724605D01*
X20750500Y-126724605D01*
X20750500Y-103690021D01*
X20770185Y-103622982D01*
X20822989Y-103577227D01*
X20892147Y-103567283D01*
X20955703Y-103596308D01*
X20993477Y-103655086D01*
X20997378Y-103673376D01*
X21022378Y-103857938D01*
X21118313Y-104278258D01*
X21251542Y-104688296D01*
X21251545Y-104688304D01*
X21420985Y-105084730D01*
X21420989Y-105084738D01*
X21625294Y-105464399D01*
X21862799Y-105824207D01*
X21862800Y-105824208D01*
X22131608Y-106161282D01*
X22182223Y-106214221D01*
X24063103Y-104333341D01*
X24175031Y-104470918D01*
X24389990Y-104671676D01*
X24414544Y-104689008D01*
X22536877Y-106566675D01*
X22754227Y-106756569D01*
X22754244Y-106756582D01*
X23103024Y-107009986D01*
X23473140Y-107231120D01*
X23473146Y-107231123D01*
X23861569Y-107418178D01*
X23861583Y-107418184D01*
X24265209Y-107569667D01*
X24265234Y-107569675D01*
X24680816Y-107684369D01*
X25105023Y-107761351D01*
X25534435Y-107799999D01*
X25534438Y-107800000D01*
X25965562Y-107800000D01*
X25965564Y-107799999D01*
X26394976Y-107761351D01*
X26819183Y-107684369D01*
X27234765Y-107569675D01*
X27234790Y-107569667D01*
X27638416Y-107418184D01*
X27638430Y-107418178D01*
X28026853Y-107231123D01*
X28026859Y-107231120D01*
X28396975Y-107009986D01*
X28745755Y-106756582D01*
X28745772Y-106756569D01*
X28963121Y-106566675D01*
X27085455Y-104689008D01*
X27110010Y-104671676D01*
X27324969Y-104470918D01*
X27436895Y-104333342D01*
X29317775Y-106214222D01*
X29317776Y-106214222D01*
X29368386Y-106161289D01*
X29368386Y-106161288D01*
X29637199Y-105824208D01*
X29637200Y-105824207D01*
X29874705Y-105464399D01*
X30079010Y-105084738D01*
X30079014Y-105084730D01*
X30248454Y-104688304D01*
X30248457Y-104688296D01*
X30381686Y-104278258D01*
X30390418Y-104240000D01*
X53904341Y-104240000D01*
X53924936Y-104475403D01*
X53924938Y-104475413D01*
X53986094Y-104703655D01*
X53986096Y-104703659D01*
X53986097Y-104703663D01*
X54050276Y-104841294D01*
X54085965Y-104917830D01*
X54085967Y-104917834D01*
X54194281Y-105072521D01*
X54221505Y-105111401D01*
X54388599Y-105278495D01*
X54485384Y-105346265D01*
X54582165Y-105414032D01*
X54582167Y-105414033D01*
X54582170Y-105414035D01*
X54796337Y-105513903D01*
X54796343Y-105513904D01*
X54796344Y-105513905D01*
X54830112Y-105522953D01*
X55024592Y-105575063D01*
X55206989Y-105591021D01*
X55259999Y-105595659D01*
X55260000Y-105595659D01*
X55260001Y-105595659D01*
X55313011Y-105591021D01*
X55495408Y-105575063D01*
X55723663Y-105513903D01*
X55937830Y-105414035D01*
X56131401Y-105278495D01*
X56298495Y-105111401D01*
X56434035Y-104917830D01*
X56533903Y-104703663D01*
X56595063Y-104475408D01*
X56615659Y-104240000D01*
X56595063Y-104004592D01*
X56533903Y-103776337D01*
X56434035Y-103562171D01*
X56298495Y-103368599D01*
X56176567Y-103246671D01*
X56143084Y-103185351D01*
X56148068Y-103115659D01*
X56189939Y-103059725D01*
X56220915Y-103042810D01*
X56352331Y-102993796D01*
X56467546Y-102907546D01*
X56553796Y-102792331D01*
X56604091Y-102657483D01*
X56610500Y-102597873D01*
X56610499Y-100802128D01*
X56604091Y-100742517D01*
X56553796Y-100607669D01*
X56553795Y-100607668D01*
X56553793Y-100607664D01*
X56467547Y-100492455D01*
X56467544Y-100492452D01*
X56352335Y-100406206D01*
X56352328Y-100406202D01*
X56217482Y-100355908D01*
X56217483Y-100355908D01*
X56157883Y-100349501D01*
X56157881Y-100349500D01*
X56157873Y-100349500D01*
X56157864Y-100349500D01*
X54362129Y-100349500D01*
X54362123Y-100349501D01*
X54302516Y-100355908D01*
X54167671Y-100406202D01*
X54167664Y-100406206D01*
X54052455Y-100492452D01*
X54052452Y-100492455D01*
X53966206Y-100607664D01*
X53966202Y-100607671D01*
X53915908Y-100742517D01*
X53909501Y-100802116D01*
X53909501Y-100802123D01*
X53909500Y-100802135D01*
X53909500Y-102597870D01*
X53909501Y-102597876D01*
X53915908Y-102657483D01*
X53966202Y-102792328D01*
X53966206Y-102792335D01*
X54052452Y-102907544D01*
X54052455Y-102907547D01*
X54167664Y-102993793D01*
X54167671Y-102993797D01*
X54299081Y-103042810D01*
X54355015Y-103084681D01*
X54379432Y-103150145D01*
X54364580Y-103218418D01*
X54343430Y-103246673D01*
X54221503Y-103368600D01*
X54085965Y-103562169D01*
X54085964Y-103562171D01*
X53986098Y-103776335D01*
X53986094Y-103776344D01*
X53924938Y-104004586D01*
X53924936Y-104004596D01*
X53904341Y-104239999D01*
X53904341Y-104240000D01*
X30390418Y-104240000D01*
X30477621Y-103857938D01*
X30535494Y-103430701D01*
X30535495Y-103430692D01*
X30554838Y-103000003D01*
X30554838Y-102999996D01*
X30535495Y-102569307D01*
X30535494Y-102569298D01*
X30477621Y-102142061D01*
X30381686Y-101721741D01*
X30248457Y-101311703D01*
X30248454Y-101311695D01*
X30079014Y-100915269D01*
X30079010Y-100915261D01*
X29874705Y-100535600D01*
X29637200Y-100175792D01*
X29637199Y-100175791D01*
X29368391Y-99838717D01*
X29317774Y-99785776D01*
X27436894Y-101666656D01*
X27324969Y-101529082D01*
X27110010Y-101328324D01*
X27085453Y-101310990D01*
X28963121Y-99433323D01*
X28745772Y-99243430D01*
X28745755Y-99243417D01*
X28396975Y-98990013D01*
X28026859Y-98768879D01*
X28026853Y-98768876D01*
X27638430Y-98581821D01*
X27638416Y-98581815D01*
X27234790Y-98430332D01*
X27234765Y-98430324D01*
X26819183Y-98315630D01*
X26438282Y-98246507D01*
X26375835Y-98215169D01*
X26340244Y-98155043D01*
X26342809Y-98085221D01*
X26382715Y-98027869D01*
X26447294Y-98001197D01*
X26460423Y-98000500D01*
X134039577Y-98000500D01*
X134106616Y-98020185D01*
G37*
%TD.AperFunction*%
%TA.AperFunction,Conductor*%
G36*
X139718547Y-151108056D02*
G01*
X139748090Y-151171373D01*
X139749500Y-151190021D01*
X139749500Y-155375500D01*
X139729815Y-155442539D01*
X139677011Y-155488294D01*
X139625500Y-155499500D01*
X135460423Y-155499500D01*
X135393384Y-155479815D01*
X135347629Y-155427011D01*
X135337685Y-155357853D01*
X135366710Y-155294297D01*
X135425488Y-155256523D01*
X135438282Y-155253493D01*
X135819183Y-155184369D01*
X136234765Y-155069675D01*
X136234790Y-155069667D01*
X136638416Y-154918184D01*
X136638430Y-154918178D01*
X137026853Y-154731123D01*
X137026859Y-154731120D01*
X137396975Y-154509986D01*
X137745755Y-154256582D01*
X137745772Y-154256569D01*
X137963121Y-154066675D01*
X136085455Y-152189008D01*
X136110010Y-152171676D01*
X136324969Y-151970918D01*
X136436895Y-151833342D01*
X138317775Y-153714222D01*
X138317776Y-153714222D01*
X138368386Y-153661289D01*
X138368386Y-153661288D01*
X138637199Y-153324208D01*
X138637200Y-153324207D01*
X138874705Y-152964399D01*
X139079010Y-152584738D01*
X139079014Y-152584730D01*
X139248454Y-152188304D01*
X139248457Y-152188296D01*
X139381686Y-151778258D01*
X139477621Y-151357938D01*
X139502622Y-151173376D01*
X139531128Y-151109586D01*
X139589595Y-151071333D01*
X139659463Y-151070763D01*
X139718547Y-151108056D01*
G37*
%TD.AperFunction*%
%TA.AperFunction,Conductor*%
G36*
X139692539Y-98020185D02*
G01*
X139738294Y-98072989D01*
X139749500Y-98124500D01*
X139749500Y-102309978D01*
X139729815Y-102377017D01*
X139677011Y-102422772D01*
X139607853Y-102432716D01*
X139544297Y-102403691D01*
X139506523Y-102344913D01*
X139502622Y-102326623D01*
X139477621Y-102142061D01*
X139381686Y-101721741D01*
X139248457Y-101311703D01*
X139248454Y-101311695D01*
X139079014Y-100915269D01*
X139079010Y-100915261D01*
X138874705Y-100535600D01*
X138637200Y-100175792D01*
X138637199Y-100175791D01*
X138368391Y-99838717D01*
X138317774Y-99785776D01*
X136436894Y-101666656D01*
X136324969Y-101529082D01*
X136110010Y-101328324D01*
X136085453Y-101310990D01*
X137963121Y-99433323D01*
X137745772Y-99243430D01*
X137745755Y-99243417D01*
X137396975Y-98990013D01*
X137026859Y-98768879D01*
X137026853Y-98768876D01*
X136638430Y-98581821D01*
X136638416Y-98581815D01*
X136234790Y-98430332D01*
X136234765Y-98430324D01*
X135819183Y-98315630D01*
X135438282Y-98246507D01*
X135375835Y-98215169D01*
X135340244Y-98155043D01*
X135342809Y-98085221D01*
X135382715Y-98027869D01*
X135447294Y-98001197D01*
X135460423Y-98000500D01*
X139625500Y-98000500D01*
X139692539Y-98020185D01*
G37*
%TD.AperFunction*%
%TA.AperFunction,Conductor*%
G36*
X25106616Y-98020185D02*
G01*
X25152371Y-98072989D01*
X25162315Y-98142147D01*
X25133290Y-98205703D01*
X25074512Y-98243477D01*
X25061718Y-98246507D01*
X24680816Y-98315630D01*
X24265234Y-98430324D01*
X24265209Y-98430332D01*
X23861583Y-98581815D01*
X23861569Y-98581821D01*
X23473146Y-98768876D01*
X23473140Y-98768879D01*
X23103024Y-98990013D01*
X22754235Y-99243423D01*
X22536877Y-99433322D01*
X22536877Y-99433323D01*
X24414545Y-101310991D01*
X24389990Y-101328324D01*
X24175031Y-101529082D01*
X24063104Y-101666657D01*
X22182223Y-99785777D01*
X22131624Y-99838699D01*
X22131612Y-99838712D01*
X21862800Y-100175791D01*
X21862799Y-100175792D01*
X21625294Y-100535600D01*
X21420989Y-100915261D01*
X21420985Y-100915269D01*
X21251545Y-101311695D01*
X21251542Y-101311703D01*
X21118313Y-101721741D01*
X21022378Y-102142061D01*
X20997378Y-102326623D01*
X20968872Y-102390413D01*
X20910404Y-102428666D01*
X20840537Y-102429236D01*
X20781453Y-102391943D01*
X20751910Y-102328626D01*
X20750500Y-102309978D01*
X20750500Y-98124500D01*
X20770185Y-98057461D01*
X20822989Y-98011706D01*
X20874500Y-98000500D01*
X25039577Y-98000500D01*
X25106616Y-98020185D01*
G37*
%TD.AperFunction*%
%TD*%
M02*
