%TF.GenerationSoftware,KiCad,Pcbnew,7.0.11*%
%TF.CreationDate,2026-01-05T11:39:17-05:00*%
%TF.ProjectId,clock_iv22_board,636c6f63-6b5f-4697-9632-325f626f6172,rev?*%
%TF.SameCoordinates,Original*%
%TF.FileFunction,Soldermask,Bot*%
%TF.FilePolarity,Negative*%
%FSLAX46Y46*%
G04 Gerber Fmt 4.6, Leading zero omitted, Abs format (unit mm)*
G04 Created by KiCad (PCBNEW 7.0.11) date 2026-01-05 11:39:17*
%MOMM*%
%LPD*%
G01*
G04 APERTURE LIST*
G04 Aperture macros list*
%AMRoundRect*
0 Rectangle with rounded corners*
0 $1 Rounding radius*
0 $2 $3 $4 $5 $6 $7 $8 $9 X,Y pos of 4 corners*
0 Add a 4 corners polygon primitive as box body*
4,1,4,$2,$3,$4,$5,$6,$7,$8,$9,$2,$3,0*
0 Add four circle primitives for the rounded corners*
1,1,$1+$1,$2,$3*
1,1,$1+$1,$4,$5*
1,1,$1+$1,$6,$7*
1,1,$1+$1,$8,$9*
0 Add four rect primitives between the rounded corners*
20,1,$1+$1,$2,$3,$4,$5,0*
20,1,$1+$1,$4,$5,$6,$7,0*
20,1,$1+$1,$6,$7,$8,$9,0*
20,1,$1+$1,$8,$9,$2,$3,0*%
G04 Aperture macros list end*
%ADD10C,8.600000*%
%ADD11C,5.000000*%
%ADD12C,2.000000*%
%ADD13R,1.700000X1.700000*%
%ADD14O,1.700000X1.700000*%
%ADD15RoundRect,0.250000X0.362500X1.425000X-0.362500X1.425000X-0.362500X-1.425000X0.362500X-1.425000X0*%
%ADD16RoundRect,0.250000X1.425000X-0.362500X1.425000X0.362500X-1.425000X0.362500X-1.425000X-0.362500X0*%
%ADD17RoundRect,0.250000X-1.425000X0.362500X-1.425000X-0.362500X1.425000X-0.362500X1.425000X0.362500X0*%
G04 APERTURE END LIST*
D10*
%TO.C,H4*%
X134750000Y-150500000D03*
%TD*%
%TO.C,H3*%
X25750000Y-150500000D03*
%TD*%
%TO.C,H2*%
X134750000Y-103000000D03*
%TD*%
D11*
%TO.C,V1*%
X37623000Y-126724600D03*
D12*
X41623000Y-134724600D03*
X43373000Y-131224600D03*
X43373000Y-126724600D03*
X43373000Y-122224600D03*
X41623000Y-118724600D03*
X37711900Y-117524600D03*
X33623000Y-118724600D03*
X31873000Y-122224600D03*
X31873000Y-126724600D03*
X31873000Y-131224600D03*
X33623000Y-134724600D03*
X37623000Y-135724600D03*
%TD*%
D11*
%TO.C,V3*%
X99123000Y-126724600D03*
D12*
X103123000Y-134724600D03*
X104873000Y-131224600D03*
X104873000Y-126724600D03*
X104873000Y-122224600D03*
X103123000Y-118724600D03*
X99211900Y-117524600D03*
X95123000Y-118724600D03*
X93373000Y-122224600D03*
X93373000Y-126724600D03*
X93373000Y-131224600D03*
X95123000Y-134724600D03*
X99123000Y-135724600D03*
%TD*%
D10*
%TO.C,H1*%
X25750000Y-103000000D03*
%TD*%
D11*
%TO.C,V2*%
X61123000Y-126724600D03*
D12*
X65123000Y-134724600D03*
X66873000Y-131224600D03*
X66873000Y-126724600D03*
X66873000Y-122224600D03*
X65123000Y-118724600D03*
X61211900Y-117524600D03*
X57123000Y-118724600D03*
X55373000Y-122224600D03*
X55373000Y-126724600D03*
X55373000Y-131224600D03*
X57123000Y-134724600D03*
X61123000Y-135724600D03*
%TD*%
D11*
%TO.C,V4*%
X122623000Y-126724600D03*
D12*
X126623000Y-134724600D03*
X128373000Y-131224600D03*
X128373000Y-126724600D03*
X128373000Y-122224600D03*
X126623000Y-118724600D03*
X122711900Y-117524600D03*
X118623000Y-118724600D03*
X116873000Y-122224600D03*
X116873000Y-126724600D03*
X116873000Y-131224600D03*
X118623000Y-134724600D03*
X122623000Y-135724600D03*
%TD*%
D13*
%TO.C,J1*%
X55260000Y-101700000D03*
D14*
X55260000Y-104240000D03*
X57800000Y-101700000D03*
X57800000Y-104240000D03*
X60340000Y-101700000D03*
X60340000Y-104240000D03*
X62880000Y-101700000D03*
X62880000Y-104240000D03*
X65420000Y-101700000D03*
X65420000Y-104240000D03*
X67960000Y-101700000D03*
X67960000Y-104240000D03*
X70500000Y-101700000D03*
X70500000Y-104240000D03*
X73040000Y-101700000D03*
X73040000Y-104240000D03*
X75580000Y-101700000D03*
X75580000Y-104240000D03*
X78120000Y-101700000D03*
X78120000Y-104240000D03*
X80660000Y-101700000D03*
X80660000Y-104240000D03*
X83200000Y-101700000D03*
X83200000Y-104240000D03*
X85740000Y-101700000D03*
X85740000Y-104240000D03*
X88280000Y-101700000D03*
X88280000Y-104240000D03*
X90820000Y-101700000D03*
X90820000Y-104240000D03*
X93360000Y-101700000D03*
X93360000Y-104240000D03*
X95900000Y-101700000D03*
X95900000Y-104240000D03*
X98440000Y-101700000D03*
X98440000Y-104240000D03*
X100980000Y-101700000D03*
X100980000Y-104240000D03*
X103520000Y-101700000D03*
X103520000Y-104240000D03*
%TD*%
D15*
%TO.C,R7*%
X52387500Y-141675000D03*
X46462500Y-141675000D03*
%TD*%
D16*
%TO.C,R3*%
X99125000Y-151475000D03*
X99125000Y-145550000D03*
%TD*%
%TO.C,R2*%
X61400000Y-151525000D03*
X61400000Y-145600000D03*
%TD*%
D17*
%TO.C,R4*%
X52550000Y-145700000D03*
X52550000Y-151625000D03*
%TD*%
%TO.C,R5*%
X93725000Y-145525000D03*
X93725000Y-151450000D03*
%TD*%
%TO.C,R6*%
X111200000Y-145462500D03*
X111200000Y-151387500D03*
%TD*%
D16*
%TO.C,R1*%
X37450000Y-151812500D03*
X37450000Y-145887500D03*
%TD*%
D15*
%TO.C,R9*%
X113500000Y-139725000D03*
X107575000Y-139725000D03*
%TD*%
%TO.C,R8*%
X83800000Y-141925000D03*
X77875000Y-141925000D03*
%TD*%
M02*
