%TF.GenerationSoftware,KiCad,Pcbnew,7.0.11*%
%TF.CreationDate,2026-01-05T11:39:17-05:00*%
%TF.ProjectId,clock_iv22_board,636c6f63-6b5f-4697-9632-325f626f6172,rev?*%
%TF.SameCoordinates,Original*%
%TF.FileFunction,Copper,L2,Bot*%
%TF.FilePolarity,Positive*%
%FSLAX46Y46*%
G04 Gerber Fmt 4.6, Leading zero omitted, Abs format (unit mm)*
G04 Created by KiCad (PCBNEW 7.0.11) date 2026-01-05 11:39:17*
%MOMM*%
%LPD*%
G01*
G04 APERTURE LIST*
G04 Aperture macros list*
%AMRoundRect*
0 Rectangle with rounded corners*
0 $1 Rounding radius*
0 $2 $3 $4 $5 $6 $7 $8 $9 X,Y pos of 4 corners*
0 Add a 4 corners polygon primitive as box body*
4,1,4,$2,$3,$4,$5,$6,$7,$8,$9,$2,$3,0*
0 Add four circle primitives for the rounded corners*
1,1,$1+$1,$2,$3*
1,1,$1+$1,$4,$5*
1,1,$1+$1,$6,$7*
1,1,$1+$1,$8,$9*
0 Add four rect primitives between the rounded corners*
20,1,$1+$1,$2,$3,$4,$5,0*
20,1,$1+$1,$4,$5,$6,$7,0*
20,1,$1+$1,$6,$7,$8,$9,0*
20,1,$1+$1,$8,$9,$2,$3,0*%
G04 Aperture macros list end*
%TA.AperFunction,ComponentPad*%
%ADD10C,8.600000*%
%TD*%
%TA.AperFunction,ComponentPad*%
%ADD11C,2.000000*%
%TD*%
%TA.AperFunction,ComponentPad*%
%ADD12R,1.700000X1.700000*%
%TD*%
%TA.AperFunction,ComponentPad*%
%ADD13O,1.700000X1.700000*%
%TD*%
%TA.AperFunction,SMDPad,CuDef*%
%ADD14RoundRect,0.250000X0.362500X1.425000X-0.362500X1.425000X-0.362500X-1.425000X0.362500X-1.425000X0*%
%TD*%
%TA.AperFunction,SMDPad,CuDef*%
%ADD15RoundRect,0.250000X1.425000X-0.362500X1.425000X0.362500X-1.425000X0.362500X-1.425000X-0.362500X0*%
%TD*%
%TA.AperFunction,SMDPad,CuDef*%
%ADD16RoundRect,0.250000X-1.425000X0.362500X-1.425000X-0.362500X1.425000X-0.362500X1.425000X0.362500X0*%
%TD*%
%TA.AperFunction,Conductor*%
%ADD17C,1.000000*%
%TD*%
G04 APERTURE END LIST*
D10*
%TO.P,H4,1,1*%
%TO.N,GND*%
X134750000Y-150500000D03*
%TD*%
%TO.P,H3,1,1*%
%TO.N,GND*%
X25750000Y-150500000D03*
%TD*%
%TO.P,H2,1,1*%
%TO.N,GND*%
X134750000Y-103000000D03*
%TD*%
D11*
%TO.P,V1,1,Pin_1*%
%TO.N,unconnected-(V1-Pin_1-Pad1)*%
X41623000Y-134724600D03*
%TO.P,V1,2,Pin_2*%
%TO.N,OUT_DIG_0_SEG_F*%
X43373000Y-131224600D03*
%TO.P,V1,3,Pin_3*%
%TO.N,OUT_DIG_0_SEG_D*%
X43373000Y-126724600D03*
%TO.P,V1,4,Pin_4*%
%TO.N,OUT_DIG_0_SEG_C*%
X43373000Y-122224600D03*
%TO.P,V1,5,Pin_5*%
%TO.N,FILIN_1*%
X41623000Y-118724600D03*
%TO.P,V1,6,Pin_6*%
%TO.N,+24V*%
X37711900Y-117524600D03*
%TO.P,V1,7,Pin_7*%
%TO.N,OUT_DIG_0_SEG_A*%
X33623000Y-118724600D03*
%TO.P,V1,8,Pin_8*%
%TO.N,OUT_DIG_0_SEG_B*%
X31873000Y-122224600D03*
%TO.P,V1,9,Pin_9*%
%TO.N,unconnected-(V1-Pin_9-Pad9)*%
X31873000Y-126724600D03*
%TO.P,V1,10,Pin_10*%
%TO.N,OUT_DIG_0_SEG_E*%
X31873000Y-131224600D03*
%TO.P,V1,11,Pin_11*%
%TO.N,OUT_DIG_0_SEG_G*%
X33623000Y-134724600D03*
%TO.P,V1,12,Pin_12*%
%TO.N,FILOUT_1*%
X37623000Y-135724600D03*
%TD*%
%TO.P,V3,1,Pin_1*%
%TO.N,unconnected-(V3-Pin_1-Pad1)*%
X103123000Y-134724600D03*
%TO.P,V3,2,Pin_2*%
%TO.N,OUT_DIG_2_SEG_F*%
X104873000Y-131224600D03*
%TO.P,V3,3,Pin_3*%
%TO.N,OUT_DIG_2_SEG_D*%
X104873000Y-126724600D03*
%TO.P,V3,4,Pin_4*%
%TO.N,OUT_DIG_2_SEG_C*%
X104873000Y-122224600D03*
%TO.P,V3,5,Pin_5*%
%TO.N,FILIN_3*%
X103123000Y-118724600D03*
%TO.P,V3,6,Pin_6*%
%TO.N,+24V*%
X99211900Y-117524600D03*
%TO.P,V3,7,Pin_7*%
%TO.N,OUT_DIG_2_SEG_A*%
X95123000Y-118724600D03*
%TO.P,V3,8,Pin_8*%
%TO.N,OUT_DIG_2_SEG_B*%
X93373000Y-122224600D03*
%TO.P,V3,9,Pin_9*%
%TO.N,unconnected-(V3-Pin_9-Pad9)*%
X93373000Y-126724600D03*
%TO.P,V3,10,Pin_10*%
%TO.N,OUT_DIG_2_SEG_E*%
X93373000Y-131224600D03*
%TO.P,V3,11,Pin_11*%
%TO.N,OUT_DIG_2_SEG_G*%
X95123000Y-134724600D03*
%TO.P,V3,12,Pin_12*%
%TO.N,FILOUT_3*%
X99123000Y-135724600D03*
%TD*%
D10*
%TO.P,H1,1,1*%
%TO.N,GND*%
X25750000Y-103000000D03*
%TD*%
D11*
%TO.P,V2,1,Pin_1*%
%TO.N,unconnected-(V2-Pin_1-Pad1)*%
X65123000Y-134724600D03*
%TO.P,V2,2,Pin_2*%
%TO.N,OUT_DIG_1_SEG_F*%
X66873000Y-131224600D03*
%TO.P,V2,3,Pin_3*%
%TO.N,OUT_DIG_1_SEG_D*%
X66873000Y-126724600D03*
%TO.P,V2,4,Pin_4*%
%TO.N,OUT_DIG_1_SEG_C*%
X66873000Y-122224600D03*
%TO.P,V2,5,Pin_5*%
%TO.N,FILIN_2*%
X65123000Y-118724600D03*
%TO.P,V2,6,Pin_6*%
%TO.N,+24V*%
X61211900Y-117524600D03*
%TO.P,V2,7,Pin_7*%
%TO.N,OUT_DIG_1_SEG_A*%
X57123000Y-118724600D03*
%TO.P,V2,8,Pin_8*%
%TO.N,OUT_DIG_1_SEG_B*%
X55373000Y-122224600D03*
%TO.P,V2,9,Pin_9*%
%TO.N,unconnected-(V2-Pin_9-Pad9)*%
X55373000Y-126724600D03*
%TO.P,V2,10,Pin_10*%
%TO.N,OUT_DIG_1_SEG_E*%
X55373000Y-131224600D03*
%TO.P,V2,11,Pin_11*%
%TO.N,OUT_DIG_1_SEG_G*%
X57123000Y-134724600D03*
%TO.P,V2,12,Pin_12*%
%TO.N,FILOUT_2*%
X61123000Y-135724600D03*
%TD*%
%TO.P,V4,1,Pin_1*%
%TO.N,unconnected-(V4-Pin_1-Pad1)*%
X126623000Y-134724600D03*
%TO.P,V4,2,Pin_2*%
%TO.N,OUT_DIG_3_SEG_F*%
X128373000Y-131224600D03*
%TO.P,V4,3,Pin_3*%
%TO.N,OUT_DIG_3_SEG_D*%
X128373000Y-126724600D03*
%TO.P,V4,4,Pin_4*%
%TO.N,OUT_DIG_3_SEG_C*%
X128373000Y-122224600D03*
%TO.P,V4,5,Pin_5*%
%TO.N,FILIN_4*%
X126623000Y-118724600D03*
%TO.P,V4,6,Pin_6*%
%TO.N,+24V*%
X122711900Y-117524600D03*
%TO.P,V4,7,Pin_7*%
%TO.N,OUT_DIG_3_SEG_A*%
X118623000Y-118724600D03*
%TO.P,V4,8,Pin_8*%
%TO.N,OUT_DIG_3_SEG_B*%
X116873000Y-122224600D03*
%TO.P,V4,9,Pin_9*%
%TO.N,unconnected-(V4-Pin_9-Pad9)*%
X116873000Y-126724600D03*
%TO.P,V4,10,Pin_10*%
%TO.N,OUT_DIG_3_SEG_E*%
X116873000Y-131224600D03*
%TO.P,V4,11,Pin_11*%
%TO.N,OUT_DIG_3_SEG_G*%
X118623000Y-134724600D03*
%TO.P,V4,12,Pin_12*%
%TO.N,FILOUT_4*%
X122623000Y-135724600D03*
%TD*%
D12*
%TO.P,J1,1,Pin_1*%
%TO.N,FILIN_1*%
X55260000Y-101700000D03*
D13*
%TO.P,J1,2,Pin_2*%
X55260000Y-104240000D03*
%TO.P,J1,3,Pin_3*%
%TO.N,GND*%
X57800000Y-101700000D03*
%TO.P,J1,4,Pin_4*%
X57800000Y-104240000D03*
%TO.P,J1,5,Pin_5*%
%TO.N,+24V*%
X60340000Y-101700000D03*
%TO.P,J1,6,Pin_6*%
X60340000Y-104240000D03*
%TO.P,J1,7,Pin_7*%
%TO.N,OUT_DIG_0_SEG_A*%
X62880000Y-101700000D03*
%TO.P,J1,8,Pin_8*%
%TO.N,OUT_DIG_0_SEG_B*%
X62880000Y-104240000D03*
%TO.P,J1,9,Pin_9*%
%TO.N,OUT_DIG_0_SEG_C*%
X65420000Y-101700000D03*
%TO.P,J1,10,Pin_10*%
%TO.N,OUT_DIG_0_SEG_D*%
X65420000Y-104240000D03*
%TO.P,J1,11,Pin_11*%
%TO.N,OUT_DIG_0_SEG_E*%
X67960000Y-101700000D03*
%TO.P,J1,12,Pin_12*%
%TO.N,OUT_DIG_0_SEG_F*%
X67960000Y-104240000D03*
%TO.P,J1,13,Pin_13*%
%TO.N,OUT_DIG_0_SEG_G*%
X70500000Y-101700000D03*
%TO.P,J1,14,Pin_14*%
%TO.N,OUT_DIG_1_SEG_A*%
X70500000Y-104240000D03*
%TO.P,J1,15,Pin_15*%
%TO.N,OUT_DIG_1_SEG_B*%
X73040000Y-101700000D03*
%TO.P,J1,16,Pin_16*%
%TO.N,OUT_DIG_1_SEG_C*%
X73040000Y-104240000D03*
%TO.P,J1,17,Pin_17*%
%TO.N,OUT_DIG_1_SEG_D*%
X75580000Y-101700000D03*
%TO.P,J1,18,Pin_18*%
%TO.N,OUT_DIG_1_SEG_E*%
X75580000Y-104240000D03*
%TO.P,J1,19,Pin_19*%
%TO.N,OUT_DIG_1_SEG_F*%
X78120000Y-101700000D03*
%TO.P,J1,20,Pin_20*%
%TO.N,OUT_DIG_1_SEG_G*%
X78120000Y-104240000D03*
%TO.P,J1,21,Pin_21*%
%TO.N,OUT_DIG_2_SEG_A*%
X80660000Y-101700000D03*
%TO.P,J1,22,Pin_22*%
%TO.N,OUT_DIG_2_SEG_B*%
X80660000Y-104240000D03*
%TO.P,J1,23,Pin_23*%
%TO.N,OUT_DIG_2_SEG_C*%
X83200000Y-101700000D03*
%TO.P,J1,24,Pin_24*%
%TO.N,OUT_DIG_2_SEG_D*%
X83200000Y-104240000D03*
%TO.P,J1,25,Pin_25*%
%TO.N,OUT_DIG_2_SEG_E*%
X85740000Y-101700000D03*
%TO.P,J1,26,Pin_26*%
%TO.N,OUT_DIG_2_SEG_F*%
X85740000Y-104240000D03*
%TO.P,J1,27,Pin_27*%
%TO.N,OUT_DIG_2_SEG_G*%
X88280000Y-101700000D03*
%TO.P,J1,28,Pin_28*%
%TO.N,OUT_DIG_3_SEG_A*%
X88280000Y-104240000D03*
%TO.P,J1,29,Pin_29*%
%TO.N,OUT_DIG_3_SEG_B*%
X90820000Y-101700000D03*
%TO.P,J1,30,Pin_30*%
%TO.N,OUT_DIG_3_SEG_C*%
X90820000Y-104240000D03*
%TO.P,J1,31,Pin_31*%
%TO.N,OUT_DIG_3_SEG_D*%
X93360000Y-101700000D03*
%TO.P,J1,32,Pin_32*%
%TO.N,OUT_DIG_3_SEG_E*%
X93360000Y-104240000D03*
%TO.P,J1,33,Pin_33*%
%TO.N,OUT_DIG_3_SEG_F*%
X95900000Y-101700000D03*
%TO.P,J1,34,Pin_34*%
%TO.N,OUT_DIG_3_SEG_G*%
X95900000Y-104240000D03*
%TO.P,J1,35,Pin_35*%
%TO.N,+24V*%
X98440000Y-101700000D03*
%TO.P,J1,36,Pin_36*%
X98440000Y-104240000D03*
%TO.P,J1,37,Pin_37*%
%TO.N,GND*%
X100980000Y-101700000D03*
%TO.P,J1,38,Pin_38*%
X100980000Y-104240000D03*
%TO.P,J1,39,Pin_39*%
%TO.N,FILOUT_4*%
X103520000Y-101700000D03*
%TO.P,J1,40,Pin_40*%
X103520000Y-104240000D03*
%TD*%
D14*
%TO.P,R7,1*%
%TO.N,FILIN_2*%
X52387500Y-141675000D03*
%TO.P,R7,2*%
%TO.N,FILOUT_1*%
X46462500Y-141675000D03*
%TD*%
D15*
%TO.P,R3,1*%
%TO.N,FILOUT_4*%
X99125000Y-151475000D03*
%TO.P,R3,2*%
%TO.N,FILOUT_3*%
X99125000Y-145550000D03*
%TD*%
%TO.P,R2,1*%
%TO.N,FILOUT_4*%
X61400000Y-151525000D03*
%TO.P,R2,2*%
%TO.N,FILOUT_2*%
X61400000Y-145600000D03*
%TD*%
D16*
%TO.P,R4,1*%
%TO.N,FILIN_2*%
X52550000Y-145700000D03*
%TO.P,R4,2*%
%TO.N,FILIN_1*%
X52550000Y-151625000D03*
%TD*%
%TO.P,R5,1*%
%TO.N,FILIN_3*%
X93725000Y-145525000D03*
%TO.P,R5,2*%
%TO.N,FILIN_1*%
X93725000Y-151450000D03*
%TD*%
%TO.P,R6,1*%
%TO.N,FILIN_4*%
X111200000Y-145462500D03*
%TO.P,R6,2*%
%TO.N,FILIN_1*%
X111200000Y-151387500D03*
%TD*%
D15*
%TO.P,R1,1*%
%TO.N,FILOUT_4*%
X37450000Y-151812500D03*
%TO.P,R1,2*%
%TO.N,FILOUT_1*%
X37450000Y-145887500D03*
%TD*%
D14*
%TO.P,R9,1*%
%TO.N,FILIN_4*%
X113500000Y-139725000D03*
%TO.P,R9,2*%
%TO.N,FILOUT_3*%
X107575000Y-139725000D03*
%TD*%
%TO.P,R8,1*%
%TO.N,FILIN_3*%
X83800000Y-141925000D03*
%TO.P,R8,2*%
%TO.N,FILOUT_2*%
X77875000Y-141925000D03*
%TD*%
D17*
%TO.N,FILIN_1*%
X23375000Y-136100000D02*
X36000000Y-148725000D01*
X52550000Y-148925000D02*
X52350000Y-148725000D01*
X34050000Y-102750000D02*
X34050000Y-110975000D01*
X36000000Y-148725000D02*
X52350000Y-148725000D01*
X55260000Y-101700000D02*
X35100000Y-101700000D01*
X93725000Y-149600000D02*
X93725000Y-151450000D01*
X92850000Y-148725000D02*
X110575000Y-148725000D01*
X23375000Y-124125000D02*
X23625000Y-124375000D01*
X111200000Y-149350000D02*
X111200000Y-151387500D01*
X52350000Y-148725000D02*
X92850000Y-148725000D01*
X92850000Y-148725000D02*
X93725000Y-149600000D01*
X24875000Y-111900000D02*
X23375000Y-113400000D01*
X23375000Y-113400000D02*
X23375000Y-124125000D01*
X39197600Y-121150000D02*
X41623000Y-118724600D01*
X37150000Y-121150000D02*
X39197600Y-121150000D01*
X35100000Y-101700000D02*
X34050000Y-102750000D01*
X23375000Y-124125000D02*
X23375000Y-136100000D01*
X55260000Y-104240000D02*
X55260000Y-101700000D01*
X110575000Y-148725000D02*
X111200000Y-149350000D01*
X33125000Y-111900000D02*
X24875000Y-111900000D01*
X33925000Y-124375000D02*
X37150000Y-121150000D01*
X34050000Y-110975000D02*
X33125000Y-111900000D01*
X52550000Y-151625000D02*
X52550000Y-148925000D01*
X23625000Y-124375000D02*
X33925000Y-124375000D01*
%TO.N,+24V*%
X60800000Y-100000000D02*
X60340000Y-100460000D01*
X60340000Y-104290000D02*
X60340000Y-108600000D01*
X60340000Y-116652700D02*
X61211900Y-117524600D01*
X38000000Y-117236500D02*
X37711900Y-117524600D01*
X60340000Y-101750000D02*
X60340000Y-104290000D01*
X98440000Y-100240000D02*
X98200000Y-100000000D01*
X98440000Y-101750000D02*
X98440000Y-100240000D01*
X60340000Y-100460000D02*
X60340000Y-101750000D01*
X38500000Y-108600000D02*
X38000000Y-109100000D01*
X98440000Y-106940000D02*
X99200000Y-107700000D01*
X60340000Y-108600000D02*
X60340000Y-116652700D01*
X98440000Y-104290000D02*
X98440000Y-106940000D01*
X99211900Y-107711900D02*
X99211900Y-117524600D01*
X122711900Y-109111900D02*
X122711900Y-117524600D01*
X121300000Y-107700000D02*
X122711900Y-109111900D01*
X60340000Y-108600000D02*
X38500000Y-108600000D01*
X38000000Y-109100000D02*
X38000000Y-117236500D01*
X98200000Y-100000000D02*
X60800000Y-100000000D01*
X98440000Y-101750000D02*
X98440000Y-104290000D01*
X99200000Y-107700000D02*
X121300000Y-107700000D01*
X99200000Y-107700000D02*
X99211900Y-107711900D01*
%TO.N,FILOUT_4*%
X135050000Y-139275000D02*
X135050000Y-114450000D01*
X135050000Y-114450000D02*
X124840000Y-104240000D01*
X98725000Y-153775000D02*
X99125000Y-153375000D01*
X98625000Y-153675000D02*
X98725000Y-153775000D01*
X132775000Y-141550000D02*
X135050000Y-139275000D01*
X61400000Y-151525000D02*
X61400000Y-153500000D01*
X120875000Y-153775000D02*
X122650000Y-152000000D01*
X122650000Y-141550000D02*
X122650000Y-135751600D01*
X99125000Y-153375000D02*
X99125000Y-151475000D01*
X37700000Y-153675000D02*
X61225000Y-153675000D01*
X61225000Y-153675000D02*
X98625000Y-153675000D01*
X124840000Y-104240000D02*
X103520000Y-104240000D01*
X122650000Y-141550000D02*
X132775000Y-141550000D01*
X37450000Y-151812500D02*
X37450000Y-153425000D01*
X37450000Y-153425000D02*
X37700000Y-153675000D01*
X122650000Y-135751600D02*
X122623000Y-135724600D01*
X98725000Y-153775000D02*
X120875000Y-153775000D01*
X122650000Y-152000000D02*
X122650000Y-141550000D01*
X61400000Y-153500000D02*
X61225000Y-153675000D01*
X103520000Y-101700000D02*
X103520000Y-104240000D01*
%TO.N,FILIN_3*%
X93725000Y-143200000D02*
X93725000Y-145525000D01*
X95250000Y-124500000D02*
X98525000Y-121225000D01*
X83800000Y-125775000D02*
X85075000Y-124500000D01*
X101650000Y-121225000D02*
X103123000Y-119752000D01*
X83800000Y-141925000D02*
X92450000Y-141925000D01*
X83800000Y-141925000D02*
X83800000Y-125775000D01*
X92450000Y-141925000D02*
X93725000Y-143200000D01*
X98525000Y-121225000D02*
X101650000Y-121225000D01*
X85075000Y-124500000D02*
X95250000Y-124500000D01*
X103123000Y-119752000D02*
X103123000Y-118724600D01*
%TO.N,FILOUT_1*%
X37450000Y-135897600D02*
X37450000Y-141675000D01*
X46462500Y-141675000D02*
X37450000Y-141675000D01*
X37623000Y-135724600D02*
X37450000Y-135897600D01*
X37450000Y-141675000D02*
X37450000Y-145887500D01*
%TO.N,FILIN_2*%
X54050000Y-124375000D02*
X52387500Y-126037500D01*
X62447600Y-121400000D02*
X60200000Y-121400000D01*
X52387500Y-145537500D02*
X52550000Y-145700000D01*
X60200000Y-121400000D02*
X57225000Y-124375000D01*
X52387500Y-126037500D02*
X52387500Y-141675000D01*
X57225000Y-124375000D02*
X54050000Y-124375000D01*
X65123000Y-118724600D02*
X62447600Y-121400000D01*
X52387500Y-141675000D02*
X52387500Y-145537500D01*
%TO.N,FILOUT_2*%
X61123000Y-142325000D02*
X61523000Y-141925000D01*
X61123000Y-142325000D02*
X61123000Y-145923000D01*
X61523000Y-141925000D02*
X77875000Y-141925000D01*
X61123000Y-135724600D02*
X61123000Y-142325000D01*
X61123000Y-145923000D02*
X61350000Y-146150000D01*
%TO.N,FILIN_4*%
X113500000Y-139725000D02*
X112000000Y-139725000D01*
X124325000Y-122275000D02*
X126623000Y-119977000D01*
X111500000Y-139225000D02*
X111200000Y-139525000D01*
X120625000Y-122275000D02*
X124325000Y-122275000D01*
X126623000Y-119977000D02*
X126623000Y-118724600D01*
X118400000Y-124500000D02*
X120625000Y-122275000D01*
X111500000Y-124900000D02*
X111900000Y-124500000D01*
X111200000Y-139525000D02*
X111200000Y-145462500D01*
X111900000Y-124500000D02*
X118400000Y-124500000D01*
X111500000Y-139225000D02*
X111500000Y-124900000D01*
X112000000Y-139725000D02*
X111500000Y-139225000D01*
%TO.N,FILOUT_3*%
X100450000Y-139725000D02*
X107575000Y-139725000D01*
X99123000Y-135724600D02*
X99123000Y-138398000D01*
X99123000Y-138398000D02*
X99125000Y-138400000D01*
X99123000Y-138398000D02*
X100450000Y-139725000D01*
X99125000Y-138400000D02*
X99125000Y-145550000D01*
%TD*%
%TA.AperFunction,Conductor*%
%TO.N,GND*%
G36*
X20955703Y-151096308D02*
G01*
X20993477Y-151155086D01*
X20997378Y-151173376D01*
X21022378Y-151357938D01*
X21118313Y-151778258D01*
X21251542Y-152188296D01*
X21251545Y-152188304D01*
X21420985Y-152584730D01*
X21420989Y-152584738D01*
X21625294Y-152964399D01*
X21862799Y-153324207D01*
X21862800Y-153324208D01*
X22131608Y-153661282D01*
X22182223Y-153714221D01*
X24063103Y-151833341D01*
X24175031Y-151970918D01*
X24389990Y-152171676D01*
X24414544Y-152189008D01*
X22536877Y-154066675D01*
X22754227Y-154256569D01*
X22754244Y-154256582D01*
X23103024Y-154509986D01*
X23473140Y-154731120D01*
X23473146Y-154731123D01*
X23861569Y-154918178D01*
X23861583Y-154918184D01*
X24265209Y-155069667D01*
X24265234Y-155069675D01*
X24680816Y-155184369D01*
X25061718Y-155253493D01*
X25124165Y-155284831D01*
X25159756Y-155344957D01*
X25157191Y-155414779D01*
X25117285Y-155472131D01*
X25052706Y-155498803D01*
X25039577Y-155499500D01*
X20874500Y-155499500D01*
X20807461Y-155479815D01*
X20761706Y-155427011D01*
X20750500Y-155375500D01*
X20750500Y-151190021D01*
X20770185Y-151122982D01*
X20822989Y-151077227D01*
X20892147Y-151067283D01*
X20955703Y-151096308D01*
G37*
%TD.AperFunction*%
%TA.AperFunction,Conductor*%
G36*
X134106616Y-98020185D02*
G01*
X134152371Y-98072989D01*
X134162315Y-98142147D01*
X134133290Y-98205703D01*
X134074512Y-98243477D01*
X134061718Y-98246507D01*
X133680816Y-98315630D01*
X133265234Y-98430324D01*
X133265209Y-98430332D01*
X132861583Y-98581815D01*
X132861569Y-98581821D01*
X132473146Y-98768876D01*
X132473140Y-98768879D01*
X132103024Y-98990013D01*
X131754235Y-99243423D01*
X131536877Y-99433322D01*
X131536877Y-99433323D01*
X133414545Y-101310991D01*
X133389990Y-101328324D01*
X133175031Y-101529082D01*
X133063104Y-101666657D01*
X131182223Y-99785777D01*
X131131624Y-99838699D01*
X131131612Y-99838712D01*
X130862800Y-100175791D01*
X130862799Y-100175792D01*
X130625294Y-100535600D01*
X130420989Y-100915261D01*
X130420985Y-100915269D01*
X130251545Y-101311695D01*
X130251542Y-101311703D01*
X130118313Y-101721741D01*
X130022378Y-102142061D01*
X129964505Y-102569298D01*
X129964504Y-102569307D01*
X129945162Y-102999996D01*
X129945162Y-103000003D01*
X129964504Y-103430692D01*
X129964505Y-103430701D01*
X130022378Y-103857938D01*
X130118313Y-104278258D01*
X130251542Y-104688296D01*
X130251545Y-104688304D01*
X130420985Y-105084730D01*
X130420989Y-105084738D01*
X130625294Y-105464399D01*
X130862799Y-105824207D01*
X130862800Y-105824208D01*
X131131608Y-106161282D01*
X131182223Y-106214221D01*
X133063103Y-104333341D01*
X133175031Y-104470918D01*
X133389990Y-104671676D01*
X133414544Y-104689008D01*
X131536877Y-106566675D01*
X131754227Y-106756569D01*
X131754244Y-106756582D01*
X132103024Y-107009986D01*
X132473140Y-107231120D01*
X132473146Y-107231123D01*
X132861569Y-107418178D01*
X132861583Y-107418184D01*
X133265209Y-107569667D01*
X133265234Y-107569675D01*
X133680816Y-107684369D01*
X134105023Y-107761351D01*
X134534435Y-107799999D01*
X134534438Y-107800000D01*
X134965562Y-107800000D01*
X134965564Y-107799999D01*
X135394976Y-107761351D01*
X135819183Y-107684369D01*
X136234765Y-107569675D01*
X136234790Y-107569667D01*
X136638416Y-107418184D01*
X136638430Y-107418178D01*
X137026853Y-107231123D01*
X137026859Y-107231120D01*
X137396975Y-107009986D01*
X137745755Y-106756582D01*
X137745772Y-106756569D01*
X137963121Y-106566675D01*
X136085455Y-104689008D01*
X136110010Y-104671676D01*
X136324969Y-104470918D01*
X136436895Y-104333342D01*
X138317775Y-106214222D01*
X138317776Y-106214222D01*
X138368386Y-106161289D01*
X138368386Y-106161288D01*
X138637199Y-105824208D01*
X138637200Y-105824207D01*
X138874705Y-105464399D01*
X139079010Y-105084738D01*
X139079014Y-105084730D01*
X139248454Y-104688304D01*
X139248457Y-104688296D01*
X139381686Y-104278258D01*
X139477621Y-103857938D01*
X139502622Y-103673376D01*
X139531128Y-103609586D01*
X139589595Y-103571333D01*
X139659463Y-103570763D01*
X139718547Y-103608056D01*
X139748090Y-103671373D01*
X139749500Y-103690021D01*
X139749500Y-149809978D01*
X139729815Y-149877017D01*
X139677011Y-149922772D01*
X139607853Y-149932716D01*
X139544297Y-149903691D01*
X139506523Y-149844913D01*
X139502622Y-149826623D01*
X139477621Y-149642061D01*
X139381686Y-149221741D01*
X139248457Y-148811703D01*
X139248454Y-148811695D01*
X139079014Y-148415269D01*
X139079010Y-148415261D01*
X138874705Y-148035600D01*
X138637200Y-147675792D01*
X138637199Y-147675791D01*
X138368391Y-147338717D01*
X138317774Y-147285776D01*
X136436894Y-149166656D01*
X136324969Y-149029082D01*
X136110010Y-148828324D01*
X136085453Y-148810990D01*
X137963121Y-146933323D01*
X137745772Y-146743430D01*
X137745755Y-146743417D01*
X137396975Y-146490013D01*
X137026859Y-146268879D01*
X137026853Y-146268876D01*
X136638430Y-146081821D01*
X136638416Y-146081815D01*
X136234790Y-145930332D01*
X136234765Y-145930324D01*
X135819183Y-145815630D01*
X135394976Y-145738648D01*
X134965564Y-145700000D01*
X134534435Y-145700000D01*
X134105023Y-145738648D01*
X133680816Y-145815630D01*
X133265234Y-145930324D01*
X133265209Y-145930332D01*
X132861583Y-146081815D01*
X132861569Y-146081821D01*
X132473146Y-146268876D01*
X132473140Y-146268879D01*
X132103024Y-146490013D01*
X131754235Y-146743423D01*
X131536877Y-146933322D01*
X131536877Y-146933323D01*
X133414545Y-148810991D01*
X133389990Y-148828324D01*
X133175031Y-149029082D01*
X133063104Y-149166657D01*
X131182223Y-147285777D01*
X131131624Y-147338699D01*
X131131612Y-147338712D01*
X130862800Y-147675791D01*
X130862799Y-147675792D01*
X130625294Y-148035600D01*
X130420989Y-148415261D01*
X130420985Y-148415269D01*
X130251545Y-148811695D01*
X130251542Y-148811703D01*
X130118313Y-149221741D01*
X130022378Y-149642061D01*
X129964505Y-150069298D01*
X129964504Y-150069307D01*
X129945162Y-150499996D01*
X129945162Y-150500003D01*
X129964504Y-150930692D01*
X129964505Y-150930701D01*
X130022378Y-151357938D01*
X130118313Y-151778258D01*
X130251542Y-152188296D01*
X130251545Y-152188304D01*
X130420985Y-152584730D01*
X130420989Y-152584738D01*
X130625294Y-152964399D01*
X130862799Y-153324207D01*
X130862800Y-153324208D01*
X131131608Y-153661282D01*
X131182223Y-153714221D01*
X133063103Y-151833341D01*
X133175031Y-151970918D01*
X133389990Y-152171676D01*
X133414544Y-152189008D01*
X131536877Y-154066675D01*
X131754227Y-154256569D01*
X131754244Y-154256582D01*
X132103024Y-154509986D01*
X132473140Y-154731120D01*
X132473146Y-154731123D01*
X132861569Y-154918178D01*
X132861583Y-154918184D01*
X133265209Y-155069667D01*
X133265234Y-155069675D01*
X133680816Y-155184369D01*
X134061718Y-155253493D01*
X134124165Y-155284831D01*
X134159756Y-155344957D01*
X134157191Y-155414779D01*
X134117285Y-155472131D01*
X134052706Y-155498803D01*
X134039577Y-155499500D01*
X26460423Y-155499500D01*
X26393384Y-155479815D01*
X26347629Y-155427011D01*
X26337685Y-155357853D01*
X26366710Y-155294297D01*
X26425488Y-155256523D01*
X26438282Y-155253493D01*
X26819183Y-155184369D01*
X27234765Y-155069675D01*
X27234790Y-155069667D01*
X27638416Y-154918184D01*
X27638430Y-154918178D01*
X28026853Y-154731123D01*
X28026859Y-154731120D01*
X28396975Y-154509986D01*
X28745755Y-154256582D01*
X28745772Y-154256569D01*
X28963121Y-154066675D01*
X27085455Y-152189008D01*
X27110010Y-152171676D01*
X27324969Y-151970918D01*
X27436895Y-151833342D01*
X29317775Y-153714222D01*
X29317776Y-153714222D01*
X29368386Y-153661289D01*
X29368386Y-153661288D01*
X29637199Y-153324208D01*
X29637200Y-153324207D01*
X29874705Y-152964399D01*
X30079010Y-152584738D01*
X30079014Y-152584730D01*
X30248454Y-152188304D01*
X30248457Y-152188296D01*
X30381686Y-151778258D01*
X30477621Y-151357938D01*
X30535494Y-150930701D01*
X30535495Y-150930692D01*
X30554838Y-150500003D01*
X30554838Y-150499996D01*
X30535495Y-150069307D01*
X30535494Y-150069298D01*
X30477621Y-149642061D01*
X30381686Y-149221741D01*
X30248457Y-148811703D01*
X30248454Y-148811695D01*
X30079014Y-148415269D01*
X30079010Y-148415261D01*
X29874705Y-148035600D01*
X29637200Y-147675792D01*
X29637199Y-147675791D01*
X29368391Y-147338717D01*
X29317774Y-147285776D01*
X27436894Y-149166656D01*
X27324969Y-149029082D01*
X27110010Y-148828324D01*
X27085453Y-148810990D01*
X28963121Y-146933323D01*
X28745772Y-146743430D01*
X28745755Y-146743417D01*
X28396975Y-146490013D01*
X28026859Y-146268879D01*
X28026853Y-146268876D01*
X27638430Y-146081821D01*
X27638416Y-146081815D01*
X27234790Y-145930332D01*
X27234765Y-145930324D01*
X26819183Y-145815630D01*
X26394976Y-145738648D01*
X25965564Y-145700000D01*
X25534435Y-145700000D01*
X25105023Y-145738648D01*
X24680816Y-145815630D01*
X24265234Y-145930324D01*
X24265209Y-145930332D01*
X23861583Y-146081815D01*
X23861569Y-146081821D01*
X23473146Y-146268876D01*
X23473140Y-146268879D01*
X23103024Y-146490013D01*
X22754235Y-146743423D01*
X22536877Y-146933322D01*
X22536877Y-146933323D01*
X24414545Y-148810991D01*
X24389990Y-148828324D01*
X24175031Y-149029082D01*
X24063104Y-149166657D01*
X22182223Y-147285777D01*
X22131624Y-147338699D01*
X22131612Y-147338712D01*
X21862800Y-147675791D01*
X21862799Y-147675792D01*
X21625294Y-148035600D01*
X21420989Y-148415261D01*
X21420985Y-148415269D01*
X21251545Y-148811695D01*
X21251542Y-148811703D01*
X21118313Y-149221741D01*
X21022378Y-149642061D01*
X20997378Y-149826623D01*
X20968872Y-149890413D01*
X20910404Y-149928666D01*
X20840537Y-149929236D01*
X20781453Y-149891943D01*
X20751910Y-149828626D01*
X20750500Y-149809978D01*
X20750500Y-113425474D01*
X22369662Y-113425474D01*
X22373506Y-113455649D01*
X22374500Y-113471317D01*
X22374500Y-124110721D01*
X22374460Y-124113863D01*
X22372242Y-124201360D01*
X22372242Y-124201361D01*
X22372555Y-124203105D01*
X22374500Y-124224979D01*
X22374500Y-136085721D01*
X22374460Y-136088861D01*
X22372243Y-136176362D01*
X22372243Y-136176371D01*
X22382648Y-136234420D01*
X22383956Y-136243748D01*
X22389925Y-136302430D01*
X22389927Y-136302444D01*
X22399033Y-136331468D01*
X22402772Y-136346701D01*
X22408142Y-136376653D01*
X22408142Y-136376655D01*
X22430020Y-136431424D01*
X22433177Y-136440292D01*
X22450841Y-136496588D01*
X22450842Y-136496589D01*
X22450844Y-136496595D01*
X22465603Y-136523185D01*
X22472336Y-136537361D01*
X22483622Y-136565614D01*
X22483627Y-136565624D01*
X22516080Y-136614866D01*
X22520962Y-136622923D01*
X22549588Y-136674498D01*
X22549589Y-136674500D01*
X22549591Y-136674502D01*
X22569410Y-136697588D01*
X22578855Y-136710115D01*
X22595599Y-136735521D01*
X22637299Y-136777220D01*
X22643704Y-136784131D01*
X22682130Y-136828892D01*
X22706193Y-136847518D01*
X22717972Y-136857893D01*
X35282431Y-149422351D01*
X35284624Y-149424600D01*
X35344940Y-149488052D01*
X35344948Y-149488058D01*
X35393362Y-149521755D01*
X35400871Y-149527416D01*
X35446593Y-149564698D01*
X35473565Y-149578786D01*
X35486982Y-149586916D01*
X35511951Y-149604295D01*
X35566163Y-149627559D01*
X35574652Y-149631590D01*
X35626951Y-149658909D01*
X35648998Y-149665216D01*
X35656184Y-149667273D01*
X35670976Y-149672539D01*
X35698939Y-149684539D01*
X35698942Y-149684540D01*
X35756727Y-149696414D01*
X35765869Y-149698657D01*
X35822582Y-149714886D01*
X35852918Y-149717196D01*
X35868457Y-149719376D01*
X35898255Y-149725500D01*
X35898259Y-149725500D01*
X35957244Y-149725500D01*
X35966659Y-149725857D01*
X36025476Y-149730337D01*
X36055651Y-149726493D01*
X36071318Y-149725500D01*
X51425500Y-149725500D01*
X51492539Y-149745185D01*
X51538294Y-149797989D01*
X51549500Y-149849500D01*
X51549500Y-150388000D01*
X51529815Y-150455039D01*
X51477011Y-150500794D01*
X51425500Y-150512000D01*
X51074998Y-150512000D01*
X51074980Y-150512001D01*
X50972203Y-150522500D01*
X50972200Y-150522501D01*
X50805668Y-150577685D01*
X50805663Y-150577687D01*
X50656342Y-150669789D01*
X50532289Y-150793842D01*
X50440187Y-150943163D01*
X50440186Y-150943166D01*
X50385001Y-151109703D01*
X50385001Y-151109704D01*
X50385000Y-151109704D01*
X50374500Y-151212483D01*
X50374500Y-152037501D01*
X50374501Y-152037519D01*
X50385000Y-152140296D01*
X50385001Y-152140299D01*
X50440185Y-152306831D01*
X50440187Y-152306836D01*
X50461441Y-152341294D01*
X50519124Y-152434814D01*
X50532289Y-152456157D01*
X50538951Y-152462819D01*
X50572436Y-152524142D01*
X50567452Y-152593834D01*
X50525580Y-152649767D01*
X50460116Y-152674184D01*
X50451270Y-152674500D01*
X39670442Y-152674500D01*
X39603403Y-152654815D01*
X39557648Y-152602011D01*
X39547704Y-152532853D01*
X39558059Y-152498097D01*
X39559809Y-152494340D01*
X39559814Y-152494334D01*
X39614999Y-152327797D01*
X39625500Y-152225009D01*
X39625499Y-151399992D01*
X39614999Y-151297203D01*
X39559814Y-151130666D01*
X39467712Y-150981344D01*
X39343656Y-150857288D01*
X39199169Y-150768168D01*
X39194336Y-150765187D01*
X39194331Y-150765185D01*
X39192862Y-150764698D01*
X39027797Y-150710001D01*
X39027795Y-150710000D01*
X38925010Y-150699500D01*
X35974998Y-150699500D01*
X35974981Y-150699501D01*
X35872203Y-150710000D01*
X35872200Y-150710001D01*
X35705668Y-150765185D01*
X35705663Y-150765187D01*
X35556342Y-150857289D01*
X35432289Y-150981342D01*
X35340187Y-151130663D01*
X35340186Y-151130666D01*
X35285001Y-151297203D01*
X35285001Y-151297204D01*
X35285000Y-151297204D01*
X35274500Y-151399983D01*
X35274500Y-152225001D01*
X35274501Y-152225019D01*
X35285000Y-152327796D01*
X35285001Y-152327799D01*
X35340185Y-152494331D01*
X35340187Y-152494336D01*
X35375069Y-152550888D01*
X35432288Y-152643656D01*
X35556344Y-152767712D01*
X35705666Y-152859814D01*
X35872203Y-152914999D01*
X35974991Y-152925500D01*
X36325500Y-152925499D01*
X36392539Y-152945183D01*
X36438294Y-152997987D01*
X36449500Y-153049499D01*
X36449500Y-153410721D01*
X36449460Y-153413861D01*
X36447243Y-153501362D01*
X36447243Y-153501371D01*
X36457648Y-153559420D01*
X36458956Y-153568748D01*
X36464925Y-153627430D01*
X36464927Y-153627444D01*
X36474033Y-153656468D01*
X36477772Y-153671701D01*
X36483142Y-153701653D01*
X36483142Y-153701655D01*
X36505020Y-153756424D01*
X36508177Y-153765292D01*
X36525841Y-153821588D01*
X36525842Y-153821589D01*
X36525844Y-153821595D01*
X36540603Y-153848185D01*
X36547336Y-153862361D01*
X36558622Y-153890614D01*
X36558627Y-153890624D01*
X36591080Y-153939866D01*
X36595962Y-153947923D01*
X36624588Y-153999498D01*
X36624589Y-153999500D01*
X36624591Y-153999502D01*
X36644410Y-154022588D01*
X36653855Y-154035115D01*
X36670599Y-154060521D01*
X36712299Y-154102220D01*
X36718704Y-154109131D01*
X36757131Y-154153892D01*
X36757134Y-154153895D01*
X36781187Y-154172513D01*
X36792968Y-154182889D01*
X36982450Y-154372371D01*
X36984643Y-154374620D01*
X37044940Y-154438052D01*
X37044947Y-154438058D01*
X37093352Y-154471748D01*
X37100869Y-154477415D01*
X37146593Y-154514698D01*
X37173565Y-154528786D01*
X37186980Y-154536915D01*
X37211951Y-154554295D01*
X37261292Y-154575469D01*
X37266163Y-154577559D01*
X37274652Y-154581590D01*
X37326951Y-154608909D01*
X37348998Y-154615216D01*
X37356184Y-154617273D01*
X37370976Y-154622539D01*
X37398939Y-154634539D01*
X37398942Y-154634540D01*
X37456727Y-154646414D01*
X37465869Y-154648657D01*
X37522582Y-154664886D01*
X37552918Y-154667196D01*
X37568457Y-154669376D01*
X37598255Y-154675500D01*
X37598259Y-154675500D01*
X37657244Y-154675500D01*
X37666659Y-154675857D01*
X37725476Y-154680337D01*
X37755651Y-154676493D01*
X37771318Y-154675500D01*
X61123259Y-154675500D01*
X61210721Y-154675500D01*
X61213863Y-154675540D01*
X61301360Y-154677757D01*
X61301361Y-154677757D01*
X61301361Y-154677756D01*
X61301363Y-154677757D01*
X61302410Y-154677569D01*
X61303105Y-154677445D01*
X61324979Y-154675500D01*
X98257558Y-154675500D01*
X98314970Y-154689591D01*
X98351951Y-154708909D01*
X98351950Y-154708909D01*
X98367431Y-154713338D01*
X98385098Y-154719881D01*
X98399728Y-154726603D01*
X98399729Y-154726604D01*
X98399730Y-154726604D01*
X98399732Y-154726605D01*
X98401440Y-154727001D01*
X98422321Y-154733844D01*
X98423942Y-154734540D01*
X98481727Y-154746414D01*
X98490869Y-154748657D01*
X98547582Y-154764886D01*
X98550886Y-154765137D01*
X98563628Y-154766108D01*
X98582247Y-154768959D01*
X98597946Y-154772603D01*
X98599712Y-154772647D01*
X98621546Y-154775148D01*
X98623258Y-154775500D01*
X98623259Y-154775500D01*
X98682244Y-154775500D01*
X98691660Y-154775858D01*
X98750476Y-154780337D01*
X98766444Y-154778302D01*
X98785256Y-154777348D01*
X98800778Y-154777742D01*
X98801362Y-154777757D01*
X98801362Y-154777756D01*
X98801363Y-154777757D01*
X98803104Y-154777445D01*
X98824982Y-154775500D01*
X120860721Y-154775500D01*
X120863863Y-154775540D01*
X120951358Y-154777757D01*
X120951358Y-154777756D01*
X120951363Y-154777757D01*
X121009425Y-154767349D01*
X121018754Y-154766041D01*
X121077438Y-154760074D01*
X121106471Y-154750964D01*
X121121700Y-154747226D01*
X121151653Y-154741858D01*
X121151657Y-154741856D01*
X121151659Y-154741856D01*
X121206423Y-154719980D01*
X121215292Y-154716821D01*
X121271588Y-154699159D01*
X121298200Y-154684387D01*
X121312362Y-154677662D01*
X121340617Y-154666377D01*
X121389879Y-154633909D01*
X121397910Y-154629043D01*
X121449502Y-154600409D01*
X121449509Y-154600402D01*
X121449512Y-154600401D01*
X121472583Y-154580594D01*
X121485125Y-154571137D01*
X121510519Y-154554402D01*
X121552226Y-154512694D01*
X121559138Y-154506288D01*
X121603895Y-154467866D01*
X121622524Y-154443798D01*
X121632884Y-154432035D01*
X123347390Y-152717528D01*
X123349559Y-152715413D01*
X123413053Y-152655059D01*
X123446752Y-152606641D01*
X123452428Y-152599113D01*
X123489698Y-152553407D01*
X123503782Y-152526444D01*
X123511919Y-152513013D01*
X123529295Y-152488049D01*
X123552563Y-152433825D01*
X123556582Y-152425361D01*
X123583909Y-152373049D01*
X123592278Y-152343797D01*
X123597538Y-152329023D01*
X123609540Y-152301058D01*
X123621415Y-152243268D01*
X123623649Y-152234162D01*
X123639887Y-152177418D01*
X123642197Y-152147077D01*
X123644376Y-152131535D01*
X123650500Y-152101741D01*
X123650500Y-152042758D01*
X123650858Y-152033342D01*
X123655337Y-151974527D01*
X123654877Y-151970918D01*
X123651493Y-151944339D01*
X123650500Y-151928675D01*
X123650500Y-142674500D01*
X123670185Y-142607461D01*
X123722989Y-142561706D01*
X123774500Y-142550500D01*
X132760721Y-142550500D01*
X132763863Y-142550540D01*
X132851358Y-142552757D01*
X132851358Y-142552756D01*
X132851363Y-142552757D01*
X132909425Y-142542349D01*
X132918754Y-142541041D01*
X132977438Y-142535074D01*
X133006471Y-142525964D01*
X133021700Y-142522226D01*
X133051653Y-142516858D01*
X133051657Y-142516856D01*
X133051659Y-142516856D01*
X133106423Y-142494980D01*
X133115292Y-142491821D01*
X133171588Y-142474159D01*
X133198200Y-142459387D01*
X133212362Y-142452662D01*
X133240617Y-142441377D01*
X133289879Y-142408909D01*
X133297910Y-142404043D01*
X133349502Y-142375409D01*
X133349509Y-142375402D01*
X133349512Y-142375401D01*
X133372583Y-142355594D01*
X133385125Y-142346137D01*
X133410519Y-142329402D01*
X133452226Y-142287694D01*
X133459138Y-142281288D01*
X133503895Y-142242866D01*
X133522524Y-142218798D01*
X133532884Y-142207035D01*
X135747390Y-139992528D01*
X135749559Y-139990413D01*
X135813053Y-139930059D01*
X135846752Y-139881641D01*
X135852428Y-139874113D01*
X135889698Y-139828407D01*
X135903782Y-139801444D01*
X135911919Y-139788013D01*
X135929292Y-139763053D01*
X135929295Y-139763049D01*
X135952563Y-139708825D01*
X135956582Y-139700361D01*
X135983909Y-139648049D01*
X135992278Y-139618797D01*
X135997538Y-139604023D01*
X136009540Y-139576058D01*
X136021415Y-139518268D01*
X136023649Y-139509162D01*
X136039887Y-139452418D01*
X136042197Y-139422077D01*
X136044376Y-139406535D01*
X136050500Y-139376741D01*
X136050500Y-139317758D01*
X136050858Y-139308342D01*
X136055337Y-139249527D01*
X136051493Y-139219339D01*
X136050500Y-139203675D01*
X136050500Y-114464237D01*
X136050540Y-114461095D01*
X136052756Y-114373642D01*
X136052755Y-114373641D01*
X136052756Y-114373636D01*
X136042345Y-114315554D01*
X136041042Y-114306260D01*
X136035074Y-114247562D01*
X136033396Y-114242214D01*
X136025967Y-114218536D01*
X136022224Y-114203287D01*
X136016858Y-114173348D01*
X135994976Y-114118567D01*
X135991822Y-114109709D01*
X135974159Y-114053412D01*
X135974158Y-114053411D01*
X135974157Y-114053406D01*
X135959396Y-114026814D01*
X135952659Y-114012629D01*
X135941378Y-113984385D01*
X135941375Y-113984380D01*
X135908918Y-113935131D01*
X135904036Y-113927074D01*
X135875409Y-113875498D01*
X135855588Y-113852410D01*
X135846144Y-113839885D01*
X135829402Y-113814481D01*
X135787692Y-113772771D01*
X135781300Y-113765875D01*
X135742866Y-113721105D01*
X135718804Y-113702479D01*
X135707026Y-113692105D01*
X125557567Y-103542647D01*
X125555374Y-103540398D01*
X125495061Y-103476949D01*
X125495060Y-103476948D01*
X125495059Y-103476947D01*
X125446640Y-103443246D01*
X125439120Y-103437575D01*
X125393413Y-103400305D01*
X125393406Y-103400301D01*
X125366441Y-103386216D01*
X125353026Y-103378089D01*
X125328049Y-103360705D01*
X125328046Y-103360703D01*
X125328045Y-103360703D01*
X125328041Y-103360701D01*
X125273845Y-103337443D01*
X125265336Y-103333402D01*
X125213057Y-103306094D01*
X125213046Y-103306090D01*
X125183806Y-103297723D01*
X125169021Y-103292459D01*
X125141058Y-103280459D01*
X125083273Y-103268583D01*
X125074127Y-103266338D01*
X125017423Y-103250113D01*
X124993699Y-103248306D01*
X124987072Y-103247801D01*
X124971533Y-103245622D01*
X124941742Y-103239500D01*
X124941741Y-103239500D01*
X124882759Y-103239500D01*
X124873344Y-103239142D01*
X124870643Y-103238936D01*
X124814524Y-103234662D01*
X124784349Y-103238506D01*
X124768682Y-103239500D01*
X104644500Y-103239500D01*
X104577461Y-103219815D01*
X104531706Y-103167011D01*
X104520500Y-103115500D01*
X104520500Y-102660758D01*
X104540185Y-102593719D01*
X104556819Y-102573077D01*
X104557319Y-102572577D01*
X104558495Y-102571401D01*
X104694035Y-102377830D01*
X104793903Y-102163663D01*
X104855063Y-101935408D01*
X104875659Y-101700000D01*
X104855063Y-101464592D01*
X104793903Y-101236337D01*
X104694035Y-101022171D01*
X104656597Y-100968703D01*
X104558494Y-100828597D01*
X104391402Y-100661506D01*
X104391395Y-100661501D01*
X104197834Y-100525967D01*
X104197830Y-100525965D01*
X104175707Y-100515649D01*
X103983663Y-100426097D01*
X103983659Y-100426096D01*
X103983655Y-100426094D01*
X103755413Y-100364938D01*
X103755403Y-100364936D01*
X103520001Y-100344341D01*
X103519999Y-100344341D01*
X103284596Y-100364936D01*
X103284586Y-100364938D01*
X103056344Y-100426094D01*
X103056335Y-100426098D01*
X102842171Y-100525964D01*
X102842169Y-100525965D01*
X102648597Y-100661505D01*
X102481505Y-100828597D01*
X102345965Y-101022169D01*
X102345964Y-101022171D01*
X102246098Y-101236335D01*
X102246094Y-101236344D01*
X102184938Y-101464586D01*
X102184936Y-101464596D01*
X102164341Y-101699999D01*
X102164341Y-101700000D01*
X102184936Y-101935403D01*
X102184938Y-101935413D01*
X102246094Y-102163655D01*
X102246096Y-102163659D01*
X102246097Y-102163663D01*
X102314325Y-102309978D01*
X102345965Y-102377830D01*
X102345967Y-102377834D01*
X102439447Y-102511336D01*
X102481501Y-102571396D01*
X102481506Y-102571402D01*
X102483181Y-102573077D01*
X102483682Y-102573995D01*
X102484982Y-102575544D01*
X102484670Y-102575805D01*
X102516666Y-102634400D01*
X102519500Y-102660758D01*
X102519500Y-103279241D01*
X102499815Y-103346280D01*
X102483181Y-103366922D01*
X102481505Y-103368597D01*
X102345965Y-103562169D01*
X102345964Y-103562171D01*
X102246098Y-103776335D01*
X102246094Y-103776344D01*
X102184938Y-104004586D01*
X102184936Y-104004596D01*
X102164341Y-104239999D01*
X102164341Y-104240000D01*
X102184936Y-104475403D01*
X102184938Y-104475413D01*
X102246094Y-104703655D01*
X102246096Y-104703659D01*
X102246097Y-104703663D01*
X102250000Y-104712032D01*
X102345965Y-104917830D01*
X102345967Y-104917834D01*
X102454281Y-105072521D01*
X102481505Y-105111401D01*
X102648599Y-105278495D01*
X102745384Y-105346265D01*
X102842165Y-105414032D01*
X102842167Y-105414033D01*
X102842170Y-105414035D01*
X103056337Y-105513903D01*
X103284592Y-105575063D01*
X103472918Y-105591539D01*
X103519999Y-105595659D01*
X103520000Y-105595659D01*
X103520001Y-105595659D01*
X103559234Y-105592226D01*
X103755408Y-105575063D01*
X103983663Y-105513903D01*
X104197830Y-105414035D01*
X104391401Y-105278495D01*
X104393077Y-105276819D01*
X104393995Y-105276317D01*
X104395544Y-105275018D01*
X104395805Y-105275329D01*
X104454400Y-105243334D01*
X104480758Y-105240500D01*
X124374217Y-105240500D01*
X124441256Y-105260185D01*
X124461898Y-105276819D01*
X134013181Y-114828102D01*
X134046666Y-114889425D01*
X134049500Y-114915783D01*
X134049500Y-138809218D01*
X134029815Y-138876257D01*
X134013181Y-138896899D01*
X132396899Y-140513181D01*
X132335576Y-140546666D01*
X132309218Y-140549500D01*
X123774500Y-140549500D01*
X123707461Y-140529815D01*
X123661706Y-140477011D01*
X123650500Y-140425500D01*
X123650500Y-136872297D01*
X123670185Y-136805258D01*
X123683270Y-136788314D01*
X123687121Y-136784131D01*
X123811164Y-136649385D01*
X123947173Y-136441207D01*
X124047063Y-136213481D01*
X124108108Y-135972421D01*
X124128643Y-135724600D01*
X124128419Y-135721898D01*
X124108109Y-135476787D01*
X124108107Y-135476775D01*
X124047063Y-135235718D01*
X123947173Y-135007993D01*
X123811166Y-134799817D01*
X123741928Y-134724605D01*
X125117357Y-134724605D01*
X125137890Y-134972412D01*
X125137892Y-134972424D01*
X125198936Y-135213481D01*
X125298826Y-135441206D01*
X125434833Y-135649382D01*
X125434836Y-135649385D01*
X125603256Y-135832338D01*
X125799491Y-135985074D01*
X125799493Y-135985075D01*
X125991272Y-136088861D01*
X126018190Y-136103428D01*
X126253386Y-136184171D01*
X126498665Y-136225100D01*
X126747335Y-136225100D01*
X126992614Y-136184171D01*
X127227810Y-136103428D01*
X127446509Y-135985074D01*
X127642744Y-135832338D01*
X127811164Y-135649385D01*
X127947173Y-135441207D01*
X128047063Y-135213481D01*
X128108108Y-134972421D01*
X128108109Y-134972412D01*
X128128643Y-134724605D01*
X128128643Y-134724594D01*
X128108109Y-134476787D01*
X128108107Y-134476775D01*
X128047063Y-134235718D01*
X127947173Y-134007993D01*
X127811166Y-133799817D01*
X127789557Y-133776344D01*
X127642744Y-133616862D01*
X127446509Y-133464126D01*
X127446507Y-133464125D01*
X127446506Y-133464124D01*
X127227811Y-133345772D01*
X127227802Y-133345769D01*
X126992616Y-133265029D01*
X126747335Y-133224100D01*
X126498665Y-133224100D01*
X126253383Y-133265029D01*
X126018197Y-133345769D01*
X126018188Y-133345772D01*
X125799493Y-133464124D01*
X125603257Y-133616861D01*
X125434833Y-133799817D01*
X125298826Y-134007993D01*
X125198936Y-134235718D01*
X125137892Y-134476775D01*
X125137890Y-134476787D01*
X125117357Y-134724594D01*
X125117357Y-134724605D01*
X123741928Y-134724605D01*
X123642744Y-134616862D01*
X123446509Y-134464126D01*
X123446507Y-134464125D01*
X123446506Y-134464124D01*
X123227811Y-134345772D01*
X123227802Y-134345769D01*
X122992616Y-134265029D01*
X122747335Y-134224100D01*
X122498665Y-134224100D01*
X122253383Y-134265029D01*
X122018197Y-134345769D01*
X122018188Y-134345772D01*
X121799493Y-134464124D01*
X121603257Y-134616861D01*
X121434833Y-134799817D01*
X121298826Y-135007993D01*
X121198936Y-135235718D01*
X121137892Y-135476775D01*
X121137890Y-135476787D01*
X121117357Y-135724594D01*
X121117357Y-135724605D01*
X121137890Y-135972412D01*
X121137892Y-135972424D01*
X121198936Y-136213481D01*
X121298826Y-136441206D01*
X121434833Y-136649382D01*
X121434836Y-136649385D01*
X121603256Y-136832338D01*
X121603264Y-136832344D01*
X121607027Y-136835808D01*
X121605917Y-136837013D01*
X121642473Y-136887800D01*
X121649500Y-136928950D01*
X121649500Y-141521499D01*
X121649341Y-141527779D01*
X121645631Y-141600935D01*
X121645631Y-141600936D01*
X121648070Y-141616857D01*
X121649500Y-141635633D01*
X121649500Y-151534217D01*
X121629815Y-151601256D01*
X121613181Y-151621898D01*
X120496899Y-152738181D01*
X120435576Y-152771666D01*
X120409218Y-152774500D01*
X100876711Y-152774500D01*
X100809672Y-152754815D01*
X100763917Y-152702011D01*
X100753973Y-152632853D01*
X100782998Y-152569297D01*
X100837704Y-152532794D01*
X100869334Y-152522314D01*
X101018656Y-152430212D01*
X101142712Y-152306156D01*
X101234814Y-152156834D01*
X101289999Y-151990297D01*
X101300500Y-151887509D01*
X101300499Y-151062492D01*
X101289999Y-150959703D01*
X101234814Y-150793166D01*
X101142712Y-150643844D01*
X101018656Y-150519788D01*
X100913681Y-150455039D01*
X100869336Y-150427687D01*
X100869331Y-150427685D01*
X100853684Y-150422500D01*
X100702797Y-150372501D01*
X100702795Y-150372500D01*
X100600010Y-150362000D01*
X97649998Y-150362000D01*
X97649981Y-150362001D01*
X97547203Y-150372500D01*
X97547200Y-150372501D01*
X97380668Y-150427685D01*
X97380663Y-150427687D01*
X97231342Y-150519789D01*
X97107289Y-150643842D01*
X97015187Y-150793163D01*
X97015185Y-150793168D01*
X96998617Y-150843168D01*
X96960001Y-150959703D01*
X96960001Y-150959704D01*
X96960000Y-150959704D01*
X96949500Y-151062483D01*
X96949500Y-151887501D01*
X96949501Y-151887519D01*
X96960000Y-151990296D01*
X96960001Y-151990299D01*
X97015185Y-152156831D01*
X97015187Y-152156836D01*
X97027880Y-152177414D01*
X97068505Y-152243279D01*
X97107289Y-152306157D01*
X97231344Y-152430212D01*
X97255256Y-152444961D01*
X97301981Y-152496909D01*
X97313204Y-152565871D01*
X97285360Y-152629954D01*
X97227292Y-152668810D01*
X97190160Y-152674500D01*
X95619308Y-152674500D01*
X95552269Y-152654815D01*
X95506514Y-152602011D01*
X95496570Y-152532853D01*
X95525595Y-152469297D01*
X95554212Y-152444961D01*
X95578124Y-152430212D01*
X95618656Y-152405212D01*
X95742712Y-152281156D01*
X95834814Y-152131834D01*
X95889999Y-151965297D01*
X95900500Y-151862509D01*
X95900499Y-151037492D01*
X95897660Y-151009704D01*
X95889999Y-150934703D01*
X95889998Y-150934700D01*
X95869289Y-150872204D01*
X95834814Y-150768166D01*
X95742712Y-150618844D01*
X95618656Y-150494788D01*
X95509864Y-150427685D01*
X95469336Y-150402687D01*
X95469331Y-150402685D01*
X95467862Y-150402198D01*
X95302797Y-150347501D01*
X95302795Y-150347500D01*
X95200016Y-150337000D01*
X95200009Y-150337000D01*
X94849500Y-150337000D01*
X94782461Y-150317315D01*
X94736706Y-150264511D01*
X94725500Y-150213000D01*
X94725500Y-149849500D01*
X94745185Y-149782461D01*
X94797989Y-149736706D01*
X94849500Y-149725500D01*
X110075500Y-149725500D01*
X110142539Y-149745185D01*
X110188294Y-149797989D01*
X110199500Y-149849500D01*
X110199500Y-150150500D01*
X110179815Y-150217539D01*
X110127011Y-150263294D01*
X110075500Y-150274500D01*
X109724998Y-150274500D01*
X109724980Y-150274501D01*
X109622203Y-150285000D01*
X109622200Y-150285001D01*
X109455668Y-150340185D01*
X109455663Y-150340187D01*
X109306342Y-150432289D01*
X109182289Y-150556342D01*
X109090187Y-150705663D01*
X109090185Y-150705668D01*
X109069475Y-150768168D01*
X109035001Y-150872203D01*
X109035001Y-150872204D01*
X109035000Y-150872204D01*
X109024500Y-150974983D01*
X109024500Y-151800001D01*
X109024501Y-151800019D01*
X109035000Y-151902796D01*
X109035001Y-151902799D01*
X109090185Y-152069331D01*
X109090186Y-152069334D01*
X109182288Y-152218656D01*
X109306344Y-152342712D01*
X109455666Y-152434814D01*
X109622203Y-152489999D01*
X109724991Y-152500500D01*
X112675008Y-152500499D01*
X112777797Y-152489999D01*
X112944334Y-152434814D01*
X113093656Y-152342712D01*
X113217712Y-152218656D01*
X113309814Y-152069334D01*
X113364999Y-151902797D01*
X113375500Y-151800009D01*
X113375499Y-150974992D01*
X113373937Y-150959704D01*
X113364999Y-150872203D01*
X113364998Y-150872200D01*
X113339033Y-150793844D01*
X113309814Y-150705666D01*
X113217712Y-150556344D01*
X113093656Y-150432288D01*
X112944334Y-150340186D01*
X112777797Y-150285001D01*
X112777795Y-150285000D01*
X112675016Y-150274500D01*
X112675009Y-150274500D01*
X112324500Y-150274500D01*
X112257461Y-150254815D01*
X112211706Y-150202011D01*
X112200500Y-150150500D01*
X112200500Y-149364237D01*
X112200540Y-149361095D01*
X112202756Y-149273642D01*
X112202755Y-149273641D01*
X112202756Y-149273636D01*
X112192345Y-149215554D01*
X112191042Y-149206260D01*
X112185074Y-149147562D01*
X112183396Y-149142214D01*
X112175967Y-149118536D01*
X112172224Y-149103287D01*
X112166858Y-149073348D01*
X112144976Y-149018567D01*
X112141822Y-149009709D01*
X112124159Y-148953412D01*
X112124158Y-148953411D01*
X112124157Y-148953406D01*
X112109396Y-148926814D01*
X112102659Y-148912629D01*
X112091378Y-148884385D01*
X112091375Y-148884380D01*
X112058918Y-148835131D01*
X112054036Y-148827074D01*
X112045500Y-148811695D01*
X112025409Y-148775498D01*
X112005588Y-148752410D01*
X111996144Y-148739885D01*
X111979402Y-148714481D01*
X111937699Y-148672778D01*
X111931294Y-148665868D01*
X111892867Y-148621106D01*
X111868804Y-148602479D01*
X111857027Y-148592106D01*
X111292566Y-148027646D01*
X111290373Y-148025397D01*
X111230061Y-147961949D01*
X111230060Y-147961948D01*
X111230059Y-147961947D01*
X111181640Y-147928246D01*
X111174120Y-147922575D01*
X111128413Y-147885305D01*
X111128406Y-147885301D01*
X111101441Y-147871216D01*
X111088026Y-147863089D01*
X111063049Y-147845705D01*
X111063046Y-147845703D01*
X111063045Y-147845703D01*
X111063041Y-147845701D01*
X111008845Y-147822443D01*
X111000336Y-147818402D01*
X110948057Y-147791094D01*
X110948046Y-147791090D01*
X110918806Y-147782723D01*
X110904021Y-147777459D01*
X110876058Y-147765459D01*
X110818273Y-147753583D01*
X110809127Y-147751338D01*
X110752423Y-147735113D01*
X110728699Y-147733306D01*
X110722072Y-147732801D01*
X110706533Y-147730622D01*
X110676742Y-147724500D01*
X110676741Y-147724500D01*
X110617759Y-147724500D01*
X110608344Y-147724142D01*
X110605643Y-147723936D01*
X110549524Y-147719662D01*
X110519349Y-147723506D01*
X110503682Y-147724500D01*
X92892759Y-147724500D01*
X92883344Y-147724142D01*
X92880643Y-147723936D01*
X92824524Y-147719662D01*
X92794349Y-147723506D01*
X92778682Y-147724500D01*
X52392759Y-147724500D01*
X52383344Y-147724142D01*
X52380643Y-147723936D01*
X52324524Y-147719662D01*
X52294349Y-147723506D01*
X52278682Y-147724500D01*
X36465783Y-147724500D01*
X36398744Y-147704815D01*
X36378102Y-147688181D01*
X35902101Y-147212180D01*
X35868616Y-147150857D01*
X35873600Y-147081165D01*
X35915472Y-147025232D01*
X35980936Y-147000815D01*
X35989754Y-147000499D01*
X38925008Y-147000499D01*
X39027797Y-146989999D01*
X39194334Y-146934814D01*
X39343656Y-146842712D01*
X39467712Y-146718656D01*
X39559814Y-146569334D01*
X39614999Y-146402797D01*
X39625500Y-146300009D01*
X39625500Y-146112501D01*
X50374500Y-146112501D01*
X50374501Y-146112519D01*
X50385000Y-146215296D01*
X50385001Y-146215299D01*
X50410967Y-146293657D01*
X50440186Y-146381834D01*
X50532288Y-146531156D01*
X50656344Y-146655212D01*
X50805666Y-146747314D01*
X50972203Y-146802499D01*
X51074991Y-146813000D01*
X54025008Y-146812999D01*
X54127797Y-146802499D01*
X54294334Y-146747314D01*
X54443656Y-146655212D01*
X54567712Y-146531156D01*
X54659814Y-146381834D01*
X54714999Y-146215297D01*
X54725500Y-146112509D01*
X54725500Y-146012501D01*
X59224500Y-146012501D01*
X59224501Y-146012519D01*
X59235000Y-146115296D01*
X59235001Y-146115299D01*
X59290185Y-146281831D01*
X59290187Y-146281836D01*
X59297478Y-146293656D01*
X59382288Y-146431156D01*
X59506344Y-146555212D01*
X59655666Y-146647314D01*
X59822203Y-146702499D01*
X59924991Y-146713000D01*
X60446716Y-146712999D01*
X60513755Y-146732683D01*
X60534397Y-146749318D01*
X60678419Y-146893340D01*
X60796592Y-146989697D01*
X60976951Y-147083909D01*
X61172582Y-147139886D01*
X61361117Y-147154243D01*
X61375475Y-147155337D01*
X61375476Y-147155337D01*
X61375477Y-147155337D01*
X61577320Y-147129631D01*
X61577320Y-147129630D01*
X61577327Y-147129630D01*
X61769872Y-147063816D01*
X61945227Y-146960590D01*
X62096213Y-146824179D01*
X62140691Y-146763606D01*
X62196236Y-146721222D01*
X62240639Y-146712999D01*
X62875002Y-146712999D01*
X62875008Y-146712999D01*
X62977797Y-146702499D01*
X63144334Y-146647314D01*
X63293656Y-146555212D01*
X63417712Y-146431156D01*
X63509814Y-146281834D01*
X63564999Y-146115297D01*
X63575500Y-146012509D01*
X63575499Y-145187492D01*
X63570391Y-145137492D01*
X63564999Y-145084703D01*
X63564998Y-145084700D01*
X63553497Y-145049992D01*
X63509814Y-144918166D01*
X63417712Y-144768844D01*
X63293656Y-144644788D01*
X63144334Y-144552686D01*
X62977797Y-144497501D01*
X62977795Y-144497500D01*
X62875016Y-144487000D01*
X62875009Y-144487000D01*
X62247500Y-144487000D01*
X62180461Y-144467315D01*
X62134706Y-144414511D01*
X62123500Y-144363000D01*
X62123500Y-143049500D01*
X62143185Y-142982461D01*
X62195989Y-142936706D01*
X62247500Y-142925500D01*
X76638001Y-142925500D01*
X76705040Y-142945185D01*
X76750795Y-142997989D01*
X76762001Y-143049500D01*
X76762001Y-143400018D01*
X76772500Y-143502796D01*
X76772501Y-143502799D01*
X76827685Y-143669331D01*
X76827687Y-143669336D01*
X76862569Y-143725888D01*
X76919788Y-143818656D01*
X77043844Y-143942712D01*
X77193166Y-144034814D01*
X77359703Y-144089999D01*
X77462491Y-144100500D01*
X78287508Y-144100499D01*
X78287516Y-144100498D01*
X78287519Y-144100498D01*
X78343802Y-144094748D01*
X78390297Y-144089999D01*
X78556834Y-144034814D01*
X78706156Y-143942712D01*
X78830212Y-143818656D01*
X78922314Y-143669334D01*
X78977499Y-143502797D01*
X78988000Y-143400009D01*
X78988000Y-143400001D01*
X82687000Y-143400001D01*
X82687001Y-143400018D01*
X82697500Y-143502796D01*
X82697501Y-143502799D01*
X82752685Y-143669331D01*
X82752687Y-143669336D01*
X82787569Y-143725888D01*
X82844788Y-143818656D01*
X82968844Y-143942712D01*
X83118166Y-144034814D01*
X83284703Y-144089999D01*
X83387491Y-144100500D01*
X84212508Y-144100499D01*
X84212516Y-144100498D01*
X84212519Y-144100498D01*
X84268802Y-144094748D01*
X84315297Y-144089999D01*
X84481834Y-144034814D01*
X84631156Y-143942712D01*
X84755212Y-143818656D01*
X84847314Y-143669334D01*
X84902499Y-143502797D01*
X84913000Y-143400009D01*
X84913000Y-143049500D01*
X84932685Y-142982461D01*
X84985489Y-142936706D01*
X85037000Y-142925500D01*
X91984217Y-142925500D01*
X92051256Y-142945185D01*
X92071898Y-142961819D01*
X92688181Y-143578102D01*
X92721666Y-143639425D01*
X92724500Y-143665783D01*
X92724500Y-144288000D01*
X92704815Y-144355039D01*
X92652011Y-144400794D01*
X92600500Y-144412000D01*
X92249998Y-144412000D01*
X92249980Y-144412001D01*
X92147203Y-144422500D01*
X92147200Y-144422501D01*
X91980668Y-144477685D01*
X91980663Y-144477687D01*
X91831342Y-144569789D01*
X91707289Y-144693842D01*
X91615187Y-144843163D01*
X91615186Y-144843166D01*
X91560001Y-145009703D01*
X91560001Y-145009704D01*
X91560000Y-145009704D01*
X91549500Y-145112483D01*
X91549500Y-145937501D01*
X91549501Y-145937519D01*
X91560000Y-146040296D01*
X91560001Y-146040299D01*
X91594476Y-146144336D01*
X91615186Y-146206834D01*
X91707288Y-146356156D01*
X91831344Y-146480212D01*
X91980666Y-146572314D01*
X92147203Y-146627499D01*
X92249991Y-146638000D01*
X95200008Y-146637999D01*
X95302797Y-146627499D01*
X95469334Y-146572314D01*
X95618656Y-146480212D01*
X95742712Y-146356156D01*
X95834814Y-146206834D01*
X95889999Y-146040297D01*
X95897947Y-145962501D01*
X96949500Y-145962501D01*
X96949501Y-145962519D01*
X96960000Y-146065296D01*
X96960001Y-146065299D01*
X97015185Y-146231831D01*
X97015187Y-146231836D01*
X97038035Y-146268879D01*
X97107288Y-146381156D01*
X97231344Y-146505212D01*
X97380666Y-146597314D01*
X97547203Y-146652499D01*
X97649991Y-146663000D01*
X100600008Y-146662999D01*
X100702797Y-146652499D01*
X100869334Y-146597314D01*
X101018656Y-146505212D01*
X101142712Y-146381156D01*
X101234814Y-146231834D01*
X101289999Y-146065297D01*
X101300500Y-145962509D01*
X101300500Y-145875001D01*
X109024500Y-145875001D01*
X109024501Y-145875019D01*
X109035000Y-145977796D01*
X109035001Y-145977799D01*
X109080563Y-146115295D01*
X109090186Y-146144334D01*
X109182288Y-146293656D01*
X109306344Y-146417712D01*
X109455666Y-146509814D01*
X109622203Y-146564999D01*
X109724991Y-146575500D01*
X112675008Y-146575499D01*
X112777797Y-146564999D01*
X112944334Y-146509814D01*
X113093656Y-146417712D01*
X113217712Y-146293656D01*
X113309814Y-146144334D01*
X113364999Y-145977797D01*
X113375500Y-145875009D01*
X113375499Y-145049992D01*
X113373937Y-145034704D01*
X113364999Y-144947203D01*
X113364998Y-144947200D01*
X113339033Y-144868844D01*
X113309814Y-144780666D01*
X113217712Y-144631344D01*
X113093656Y-144507288D01*
X112968415Y-144430039D01*
X112944336Y-144415187D01*
X112944331Y-144415185D01*
X112934719Y-144412000D01*
X112777797Y-144360001D01*
X112777795Y-144360000D01*
X112675016Y-144349500D01*
X112675009Y-144349500D01*
X112324500Y-144349500D01*
X112257461Y-144329815D01*
X112211706Y-144277011D01*
X112200500Y-144225500D01*
X112200500Y-141476710D01*
X112220185Y-141409671D01*
X112272989Y-141363916D01*
X112342147Y-141353972D01*
X112405703Y-141382997D01*
X112442205Y-141437704D01*
X112452563Y-141468963D01*
X112452685Y-141469331D01*
X112452687Y-141469336D01*
X112484861Y-141521499D01*
X112544788Y-141618656D01*
X112668844Y-141742712D01*
X112818166Y-141834814D01*
X112984703Y-141889999D01*
X113087491Y-141900500D01*
X113912508Y-141900499D01*
X113912516Y-141900498D01*
X113912519Y-141900498D01*
X113968802Y-141894748D01*
X114015297Y-141889999D01*
X114181834Y-141834814D01*
X114331156Y-141742712D01*
X114455212Y-141618656D01*
X114547314Y-141469334D01*
X114602499Y-141302797D01*
X114613000Y-141200009D01*
X114612999Y-138249992D01*
X114602499Y-138147203D01*
X114547314Y-137980666D01*
X114455212Y-137831344D01*
X114331156Y-137707288D01*
X114181834Y-137615186D01*
X114015297Y-137560001D01*
X114015295Y-137560000D01*
X113912510Y-137549500D01*
X113087498Y-137549500D01*
X113087480Y-137549501D01*
X112984703Y-137560000D01*
X112984700Y-137560001D01*
X112818168Y-137615185D01*
X112818159Y-137615189D01*
X112689596Y-137694488D01*
X112622204Y-137712928D01*
X112555541Y-137692005D01*
X112510771Y-137638363D01*
X112500500Y-137588949D01*
X112500500Y-134724605D01*
X117117357Y-134724605D01*
X117137890Y-134972412D01*
X117137892Y-134972424D01*
X117198936Y-135213481D01*
X117298826Y-135441206D01*
X117434833Y-135649382D01*
X117434836Y-135649385D01*
X117603256Y-135832338D01*
X117799491Y-135985074D01*
X117799493Y-135985075D01*
X117991272Y-136088861D01*
X118018190Y-136103428D01*
X118253386Y-136184171D01*
X118498665Y-136225100D01*
X118747335Y-136225100D01*
X118992614Y-136184171D01*
X119227810Y-136103428D01*
X119446509Y-135985074D01*
X119642744Y-135832338D01*
X119811164Y-135649385D01*
X119947173Y-135441207D01*
X120047063Y-135213481D01*
X120108108Y-134972421D01*
X120108109Y-134972412D01*
X120128643Y-134724605D01*
X120128643Y-134724594D01*
X120108109Y-134476787D01*
X120108107Y-134476775D01*
X120047063Y-134235718D01*
X119947173Y-134007993D01*
X119811166Y-133799817D01*
X119789557Y-133776344D01*
X119642744Y-133616862D01*
X119446509Y-133464126D01*
X119446507Y-133464125D01*
X119446506Y-133464124D01*
X119227811Y-133345772D01*
X119227802Y-133345769D01*
X118992616Y-133265029D01*
X118747335Y-133224100D01*
X118498665Y-133224100D01*
X118253383Y-133265029D01*
X118018197Y-133345769D01*
X118018188Y-133345772D01*
X117799493Y-133464124D01*
X117603257Y-133616861D01*
X117434833Y-133799817D01*
X117298826Y-134007993D01*
X117198936Y-134235718D01*
X117137892Y-134476775D01*
X117137890Y-134476787D01*
X117117357Y-134724594D01*
X117117357Y-134724605D01*
X112500500Y-134724605D01*
X112500500Y-131224605D01*
X115367357Y-131224605D01*
X115387890Y-131472412D01*
X115387892Y-131472424D01*
X115448936Y-131713481D01*
X115548826Y-131941206D01*
X115684833Y-132149382D01*
X115684836Y-132149385D01*
X115853256Y-132332338D01*
X116049491Y-132485074D01*
X116268190Y-132603428D01*
X116503386Y-132684171D01*
X116748665Y-132725100D01*
X116997335Y-132725100D01*
X117242614Y-132684171D01*
X117477810Y-132603428D01*
X117696509Y-132485074D01*
X117892744Y-132332338D01*
X118061164Y-132149385D01*
X118197173Y-131941207D01*
X118297063Y-131713481D01*
X118358108Y-131472421D01*
X118378643Y-131224605D01*
X126867357Y-131224605D01*
X126887890Y-131472412D01*
X126887892Y-131472424D01*
X126948936Y-131713481D01*
X127048826Y-131941206D01*
X127184833Y-132149382D01*
X127184836Y-132149385D01*
X127353256Y-132332338D01*
X127549491Y-132485074D01*
X127768190Y-132603428D01*
X128003386Y-132684171D01*
X128248665Y-132725100D01*
X128497335Y-132725100D01*
X128742614Y-132684171D01*
X128977810Y-132603428D01*
X129196509Y-132485074D01*
X129392744Y-132332338D01*
X129561164Y-132149385D01*
X129697173Y-131941207D01*
X129797063Y-131713481D01*
X129858108Y-131472421D01*
X129878643Y-131224600D01*
X129858108Y-130976779D01*
X129797063Y-130735719D01*
X129697173Y-130507993D01*
X129561166Y-130299817D01*
X129539557Y-130276344D01*
X129392744Y-130116862D01*
X129196509Y-129964126D01*
X129196507Y-129964125D01*
X129196506Y-129964124D01*
X128977811Y-129845772D01*
X128977802Y-129845769D01*
X128742616Y-129765029D01*
X128497335Y-129724100D01*
X128248665Y-129724100D01*
X128003383Y-129765029D01*
X127768197Y-129845769D01*
X127768188Y-129845772D01*
X127549493Y-129964124D01*
X127353257Y-130116861D01*
X127184833Y-130299817D01*
X127048826Y-130507993D01*
X126948936Y-130735718D01*
X126887892Y-130976775D01*
X126887890Y-130976787D01*
X126867357Y-131224594D01*
X126867357Y-131224605D01*
X118378643Y-131224605D01*
X118378643Y-131224600D01*
X118358108Y-130976779D01*
X118297063Y-130735719D01*
X118197173Y-130507993D01*
X118061166Y-130299817D01*
X118039557Y-130276344D01*
X117892744Y-130116862D01*
X117696509Y-129964126D01*
X117696507Y-129964125D01*
X117696506Y-129964124D01*
X117477811Y-129845772D01*
X117477802Y-129845769D01*
X117242616Y-129765029D01*
X116997335Y-129724100D01*
X116748665Y-129724100D01*
X116503383Y-129765029D01*
X116268197Y-129845769D01*
X116268188Y-129845772D01*
X116049493Y-129964124D01*
X115853257Y-130116861D01*
X115684833Y-130299817D01*
X115548826Y-130507993D01*
X115448936Y-130735718D01*
X115387892Y-130976775D01*
X115387890Y-130976787D01*
X115367357Y-131224594D01*
X115367357Y-131224605D01*
X112500500Y-131224605D01*
X112500500Y-125624500D01*
X112520185Y-125557461D01*
X112572989Y-125511706D01*
X112624500Y-125500500D01*
X115677683Y-125500500D01*
X115744722Y-125520185D01*
X115790477Y-125572989D01*
X115800421Y-125642147D01*
X115771396Y-125705703D01*
X115768913Y-125708483D01*
X115684833Y-125799817D01*
X115548826Y-126007993D01*
X115448936Y-126235718D01*
X115387892Y-126476775D01*
X115387890Y-126476787D01*
X115367357Y-126724594D01*
X115367357Y-126724605D01*
X115387890Y-126972412D01*
X115387892Y-126972424D01*
X115448936Y-127213481D01*
X115548826Y-127441206D01*
X115684833Y-127649382D01*
X115684836Y-127649385D01*
X115853256Y-127832338D01*
X116049491Y-127985074D01*
X116268190Y-128103428D01*
X116503386Y-128184171D01*
X116748665Y-128225100D01*
X116997335Y-128225100D01*
X117242614Y-128184171D01*
X117477810Y-128103428D01*
X117696509Y-127985074D01*
X117892744Y-127832338D01*
X118061164Y-127649385D01*
X118197173Y-127441207D01*
X118297063Y-127213481D01*
X118358108Y-126972421D01*
X118378643Y-126724600D01*
X119867473Y-126724600D01*
X119887563Y-127056736D01*
X119887563Y-127056741D01*
X119887564Y-127056742D01*
X119947544Y-127384041D01*
X119947545Y-127384045D01*
X119947546Y-127384049D01*
X120046530Y-127701704D01*
X120046534Y-127701716D01*
X120046537Y-127701723D01*
X120183102Y-128005157D01*
X120291320Y-128184171D01*
X120355251Y-128289926D01*
X120560460Y-128551855D01*
X120795744Y-128787139D01*
X121057673Y-128992348D01*
X121057678Y-128992351D01*
X121057682Y-128992354D01*
X121342443Y-129164498D01*
X121645877Y-129301063D01*
X121645890Y-129301067D01*
X121645895Y-129301069D01*
X121857665Y-129367058D01*
X121963559Y-129400056D01*
X122290858Y-129460036D01*
X122539894Y-129475100D01*
X122539907Y-129475100D01*
X122706093Y-129475100D01*
X122706106Y-129475100D01*
X122955142Y-129460036D01*
X123282441Y-129400056D01*
X123600123Y-129301063D01*
X123903557Y-129164498D01*
X124188318Y-128992354D01*
X124450252Y-128787142D01*
X124685542Y-128551852D01*
X124890754Y-128289918D01*
X125062898Y-128005157D01*
X125199463Y-127701723D01*
X125298456Y-127384041D01*
X125358436Y-127056742D01*
X125378527Y-126724605D01*
X126867357Y-126724605D01*
X126887890Y-126972412D01*
X126887892Y-126972424D01*
X126948936Y-127213481D01*
X127048826Y-127441206D01*
X127184833Y-127649382D01*
X127184836Y-127649385D01*
X127353256Y-127832338D01*
X127549491Y-127985074D01*
X127768190Y-128103428D01*
X128003386Y-128184171D01*
X128248665Y-128225100D01*
X128497335Y-128225100D01*
X128742614Y-128184171D01*
X128977810Y-128103428D01*
X129196509Y-127985074D01*
X129392744Y-127832338D01*
X129561164Y-127649385D01*
X129697173Y-127441207D01*
X129797063Y-127213481D01*
X129858108Y-126972421D01*
X129878643Y-126724600D01*
X129858108Y-126476779D01*
X129836755Y-126392458D01*
X129797063Y-126235718D01*
X129697173Y-126007993D01*
X129561166Y-125799817D01*
X129512986Y-125747480D01*
X129392744Y-125616862D01*
X129196509Y-125464126D01*
X129196507Y-125464125D01*
X129196506Y-125464124D01*
X128977811Y-125345772D01*
X128977802Y-125345769D01*
X128742616Y-125265029D01*
X128497335Y-125224100D01*
X128248665Y-125224100D01*
X128003383Y-125265029D01*
X127768197Y-125345769D01*
X127768188Y-125345772D01*
X127549493Y-125464124D01*
X127353257Y-125616861D01*
X127184833Y-125799817D01*
X127048826Y-126007993D01*
X126948936Y-126235718D01*
X126887892Y-126476775D01*
X126887890Y-126476787D01*
X126867357Y-126724594D01*
X126867357Y-126724605D01*
X125378527Y-126724605D01*
X125378527Y-126724600D01*
X125358436Y-126392458D01*
X125298456Y-126065159D01*
X125246449Y-125898262D01*
X125199469Y-125747495D01*
X125199467Y-125747490D01*
X125199463Y-125747477D01*
X125062898Y-125444043D01*
X124890754Y-125159282D01*
X124890751Y-125159278D01*
X124890748Y-125159273D01*
X124685539Y-124897344D01*
X124450255Y-124662060D01*
X124188326Y-124456851D01*
X124114059Y-124411955D01*
X123903557Y-124284702D01*
X123600123Y-124148137D01*
X123600116Y-124148134D01*
X123600104Y-124148130D01*
X123282449Y-124049146D01*
X123282445Y-124049145D01*
X123282441Y-124049144D01*
X122955142Y-123989164D01*
X122955141Y-123989163D01*
X122955136Y-123989163D01*
X122706114Y-123974100D01*
X122706106Y-123974100D01*
X122539894Y-123974100D01*
X122539885Y-123974100D01*
X122290863Y-123989163D01*
X122290858Y-123989164D01*
X121963559Y-124049144D01*
X121963556Y-124049144D01*
X121963550Y-124049146D01*
X121645895Y-124148130D01*
X121645879Y-124148136D01*
X121645877Y-124148137D01*
X121342443Y-124284702D01*
X121321726Y-124297226D01*
X121057673Y-124456851D01*
X120795744Y-124662060D01*
X120560460Y-124897344D01*
X120355251Y-125159273D01*
X120245294Y-125341165D01*
X120188735Y-125434726D01*
X120183101Y-125444045D01*
X120183100Y-125444047D01*
X120169645Y-125473943D01*
X120051504Y-125736442D01*
X120046536Y-125747480D01*
X120046530Y-125747495D01*
X119947546Y-126065150D01*
X119947544Y-126065156D01*
X119947544Y-126065159D01*
X119931428Y-126153102D01*
X119887563Y-126392463D01*
X119867473Y-126724600D01*
X118378643Y-126724600D01*
X118358108Y-126476779D01*
X118336755Y-126392458D01*
X118297063Y-126235718D01*
X118197173Y-126007993D01*
X118061166Y-125799817D01*
X117977087Y-125708483D01*
X117946165Y-125645828D01*
X117954025Y-125576402D01*
X117998172Y-125522247D01*
X118064590Y-125500556D01*
X118068317Y-125500500D01*
X118385721Y-125500500D01*
X118388863Y-125500540D01*
X118476358Y-125502757D01*
X118476358Y-125502756D01*
X118476363Y-125502757D01*
X118534425Y-125492349D01*
X118543754Y-125491041D01*
X118602438Y-125485074D01*
X118631471Y-125475964D01*
X118646700Y-125472226D01*
X118676653Y-125466858D01*
X118676657Y-125466856D01*
X118676659Y-125466856D01*
X118731423Y-125444980D01*
X118740292Y-125441821D01*
X118796588Y-125424159D01*
X118823200Y-125409387D01*
X118837362Y-125402662D01*
X118865617Y-125391377D01*
X118914879Y-125358909D01*
X118922910Y-125354043D01*
X118974502Y-125325409D01*
X118974509Y-125325402D01*
X118974512Y-125325401D01*
X118997583Y-125305594D01*
X119010125Y-125296137D01*
X119024064Y-125286951D01*
X119035519Y-125279402D01*
X119077226Y-125237694D01*
X119084138Y-125231288D01*
X119092511Y-125224100D01*
X119128895Y-125192866D01*
X119147524Y-125168798D01*
X119157884Y-125157035D01*
X121003101Y-123311819D01*
X121064424Y-123278334D01*
X121090782Y-123275500D01*
X124310721Y-123275500D01*
X124313863Y-123275540D01*
X124401358Y-123277757D01*
X124401358Y-123277756D01*
X124401363Y-123277757D01*
X124459425Y-123267349D01*
X124468754Y-123266041D01*
X124527438Y-123260074D01*
X124556471Y-123250964D01*
X124571700Y-123247226D01*
X124601653Y-123241858D01*
X124601657Y-123241856D01*
X124601659Y-123241856D01*
X124656423Y-123219980D01*
X124665292Y-123216821D01*
X124721588Y-123199159D01*
X124748200Y-123184387D01*
X124762362Y-123177662D01*
X124790617Y-123166377D01*
X124839879Y-123133909D01*
X124847910Y-123129043D01*
X124899502Y-123100409D01*
X124899509Y-123100402D01*
X124899512Y-123100401D01*
X124922583Y-123080594D01*
X124935125Y-123071137D01*
X124960519Y-123054402D01*
X125002237Y-123012682D01*
X125009122Y-123006301D01*
X125053895Y-122967866D01*
X125072520Y-122943802D01*
X125082880Y-122932039D01*
X125790314Y-122224605D01*
X126867357Y-122224605D01*
X126887890Y-122472412D01*
X126887892Y-122472424D01*
X126948936Y-122713481D01*
X127048826Y-122941206D01*
X127184833Y-123149382D01*
X127184836Y-123149385D01*
X127353256Y-123332338D01*
X127549491Y-123485074D01*
X127592743Y-123508481D01*
X127751546Y-123594421D01*
X127768190Y-123603428D01*
X128003386Y-123684171D01*
X128248665Y-123725100D01*
X128497335Y-123725100D01*
X128742614Y-123684171D01*
X128977810Y-123603428D01*
X129196509Y-123485074D01*
X129392744Y-123332338D01*
X129561164Y-123149385D01*
X129697173Y-122941207D01*
X129797063Y-122713481D01*
X129858108Y-122472421D01*
X129863881Y-122402757D01*
X129878643Y-122224605D01*
X129878643Y-122224594D01*
X129858109Y-121976787D01*
X129858107Y-121976775D01*
X129797063Y-121735718D01*
X129697173Y-121507993D01*
X129561166Y-121299817D01*
X129504426Y-121238181D01*
X129392744Y-121116862D01*
X129196509Y-120964126D01*
X129196507Y-120964125D01*
X129196506Y-120964124D01*
X128977811Y-120845772D01*
X128977802Y-120845769D01*
X128742616Y-120765029D01*
X128497335Y-120724100D01*
X128248665Y-120724100D01*
X128003383Y-120765029D01*
X127768197Y-120845769D01*
X127768188Y-120845772D01*
X127549493Y-120964124D01*
X127353257Y-121116861D01*
X127184833Y-121299817D01*
X127048826Y-121507993D01*
X126948936Y-121735718D01*
X126887892Y-121976775D01*
X126887890Y-121976787D01*
X126867357Y-122224594D01*
X126867357Y-122224605D01*
X125790314Y-122224605D01*
X127320409Y-120694510D01*
X127322578Y-120692395D01*
X127386053Y-120632059D01*
X127419756Y-120583635D01*
X127425405Y-120576142D01*
X127462698Y-120530407D01*
X127476788Y-120503430D01*
X127484909Y-120490026D01*
X127502295Y-120465049D01*
X127525563Y-120410825D01*
X127529582Y-120402361D01*
X127556909Y-120350049D01*
X127565278Y-120320797D01*
X127570538Y-120306023D01*
X127582540Y-120278058D01*
X127594415Y-120220268D01*
X127596649Y-120211162D01*
X127612887Y-120154418D01*
X127615197Y-120124077D01*
X127617376Y-120108535D01*
X127623500Y-120078741D01*
X127623500Y-120019758D01*
X127623858Y-120010342D01*
X127628337Y-119951526D01*
X127624493Y-119921338D01*
X127623500Y-119905674D01*
X127623500Y-119901627D01*
X127643185Y-119834588D01*
X127656265Y-119817649D01*
X127811164Y-119649385D01*
X127947173Y-119441207D01*
X128047063Y-119213481D01*
X128108108Y-118972421D01*
X128113825Y-118903427D01*
X128128643Y-118724605D01*
X128128643Y-118724594D01*
X128108109Y-118476787D01*
X128108107Y-118476775D01*
X128047063Y-118235718D01*
X127947173Y-118007993D01*
X127811166Y-117799817D01*
X127785938Y-117772412D01*
X127642744Y-117616862D01*
X127446509Y-117464126D01*
X127446507Y-117464125D01*
X127446506Y-117464124D01*
X127227811Y-117345772D01*
X127227802Y-117345769D01*
X126992616Y-117265029D01*
X126747335Y-117224100D01*
X126498665Y-117224100D01*
X126253383Y-117265029D01*
X126018197Y-117345769D01*
X126018188Y-117345772D01*
X125799493Y-117464124D01*
X125603257Y-117616861D01*
X125434833Y-117799817D01*
X125298826Y-118007993D01*
X125198936Y-118235718D01*
X125137892Y-118476775D01*
X125137890Y-118476787D01*
X125117357Y-118724594D01*
X125117357Y-118724605D01*
X125137890Y-118972412D01*
X125137892Y-118972424D01*
X125198936Y-119213481D01*
X125298826Y-119441206D01*
X125419615Y-119626089D01*
X125439803Y-119692979D01*
X125420622Y-119760164D01*
X125403487Y-119781591D01*
X123946899Y-121238181D01*
X123885576Y-121271666D01*
X123859218Y-121274500D01*
X120639238Y-121274500D01*
X120636098Y-121274460D01*
X120548637Y-121272244D01*
X120548625Y-121272245D01*
X120490589Y-121282646D01*
X120481265Y-121283954D01*
X120422563Y-121289925D01*
X120422554Y-121289927D01*
X120393528Y-121299034D01*
X120378288Y-121302775D01*
X120348349Y-121308141D01*
X120293567Y-121330022D01*
X120284698Y-121333179D01*
X120228414Y-121350840D01*
X120228410Y-121350842D01*
X120201811Y-121365605D01*
X120187638Y-121372336D01*
X120159382Y-121383623D01*
X120159378Y-121383625D01*
X120110122Y-121416086D01*
X120102069Y-121420965D01*
X120050501Y-121449588D01*
X120027413Y-121469408D01*
X120014887Y-121478852D01*
X119989485Y-121495594D01*
X119989478Y-121495600D01*
X119947774Y-121537303D01*
X119940869Y-121543703D01*
X119896104Y-121582134D01*
X119877479Y-121606195D01*
X119867107Y-121617970D01*
X118389214Y-123095864D01*
X118327891Y-123129349D01*
X118258199Y-123124365D01*
X118202266Y-123082493D01*
X118177849Y-123017029D01*
X118192701Y-122948756D01*
X118196742Y-122942004D01*
X118197171Y-122941211D01*
X118198759Y-122937592D01*
X118297063Y-122713481D01*
X118358108Y-122472421D01*
X118363881Y-122402757D01*
X118378643Y-122224605D01*
X118378643Y-122224594D01*
X118358109Y-121976787D01*
X118358107Y-121976775D01*
X118297063Y-121735718D01*
X118197173Y-121507993D01*
X118061166Y-121299817D01*
X118004426Y-121238181D01*
X117892744Y-121116862D01*
X117696509Y-120964126D01*
X117696507Y-120964125D01*
X117696506Y-120964124D01*
X117477811Y-120845772D01*
X117477802Y-120845769D01*
X117242616Y-120765029D01*
X116997335Y-120724100D01*
X116748665Y-120724100D01*
X116503383Y-120765029D01*
X116268197Y-120845769D01*
X116268188Y-120845772D01*
X116049493Y-120964124D01*
X115853257Y-121116861D01*
X115684833Y-121299817D01*
X115548826Y-121507993D01*
X115448936Y-121735718D01*
X115387892Y-121976775D01*
X115387890Y-121976787D01*
X115367357Y-122224594D01*
X115367357Y-122224605D01*
X115387890Y-122472412D01*
X115387892Y-122472424D01*
X115448936Y-122713481D01*
X115548826Y-122941206D01*
X115684833Y-123149382D01*
X115684836Y-123149385D01*
X115793430Y-123267350D01*
X115815678Y-123291517D01*
X115846600Y-123354172D01*
X115838740Y-123423598D01*
X115794593Y-123477753D01*
X115728175Y-123499444D01*
X115724448Y-123499500D01*
X111914237Y-123499500D01*
X111911097Y-123499460D01*
X111874912Y-123498543D01*
X111823636Y-123497244D01*
X111823635Y-123497244D01*
X111823626Y-123497244D01*
X111765582Y-123507648D01*
X111756253Y-123508957D01*
X111697564Y-123514925D01*
X111668527Y-123524035D01*
X111653288Y-123527775D01*
X111623349Y-123533141D01*
X111568567Y-123555022D01*
X111559698Y-123558179D01*
X111503414Y-123575840D01*
X111503410Y-123575842D01*
X111476811Y-123590605D01*
X111462638Y-123597336D01*
X111434382Y-123608623D01*
X111434378Y-123608625D01*
X111385122Y-123641086D01*
X111377069Y-123645965D01*
X111325501Y-123674588D01*
X111302413Y-123694408D01*
X111289887Y-123703852D01*
X111264485Y-123720594D01*
X111264478Y-123720600D01*
X111222775Y-123762302D01*
X111215869Y-123768703D01*
X111171108Y-123807130D01*
X111171100Y-123807139D01*
X111152478Y-123831196D01*
X111142105Y-123842973D01*
X110802644Y-124182434D01*
X110800397Y-124184626D01*
X110736946Y-124244942D01*
X110703245Y-124293361D01*
X110697574Y-124300882D01*
X110660302Y-124346592D01*
X110660298Y-124346598D01*
X110646209Y-124373568D01*
X110638082Y-124386983D01*
X110620702Y-124411955D01*
X110597438Y-124466165D01*
X110593398Y-124474672D01*
X110566090Y-124526951D01*
X110566090Y-124526952D01*
X110557720Y-124556201D01*
X110552459Y-124570979D01*
X110540459Y-124598943D01*
X110528588Y-124656711D01*
X110526342Y-124665860D01*
X110510113Y-124722577D01*
X110507802Y-124752926D01*
X110505622Y-124768466D01*
X110499500Y-124798258D01*
X110499500Y-124857240D01*
X110499142Y-124866656D01*
X110494662Y-124925474D01*
X110498506Y-124955649D01*
X110499500Y-124971317D01*
X110499500Y-138757266D01*
X110479815Y-138824305D01*
X110460935Y-138847137D01*
X110436950Y-138869937D01*
X110436946Y-138869941D01*
X110403245Y-138918361D01*
X110397574Y-138925882D01*
X110360302Y-138971592D01*
X110360298Y-138971598D01*
X110346209Y-138998568D01*
X110338082Y-139011983D01*
X110320702Y-139036955D01*
X110297438Y-139091165D01*
X110293398Y-139099672D01*
X110266090Y-139151951D01*
X110266090Y-139151952D01*
X110257720Y-139181201D01*
X110252459Y-139195979D01*
X110240459Y-139223943D01*
X110228588Y-139281711D01*
X110226342Y-139290860D01*
X110210113Y-139347577D01*
X110207802Y-139377926D01*
X110205622Y-139393466D01*
X110199500Y-139423258D01*
X110199500Y-139482240D01*
X110199142Y-139491656D01*
X110194662Y-139550474D01*
X110198506Y-139580649D01*
X110199500Y-139596317D01*
X110199500Y-144225500D01*
X110179815Y-144292539D01*
X110127011Y-144338294D01*
X110075500Y-144349500D01*
X109724998Y-144349500D01*
X109724980Y-144349501D01*
X109622203Y-144360000D01*
X109622200Y-144360001D01*
X109455668Y-144415185D01*
X109455663Y-144415187D01*
X109306342Y-144507289D01*
X109182289Y-144631342D01*
X109090187Y-144780663D01*
X109090185Y-144780668D01*
X109069475Y-144843168D01*
X109035001Y-144947203D01*
X109035001Y-144947204D01*
X109035000Y-144947204D01*
X109024500Y-145049983D01*
X109024500Y-145875001D01*
X101300500Y-145875001D01*
X101300499Y-145137492D01*
X101289999Y-145034703D01*
X101234814Y-144868166D01*
X101142712Y-144718844D01*
X101018656Y-144594788D01*
X100913681Y-144530039D01*
X100869336Y-144502687D01*
X100869331Y-144502685D01*
X100853684Y-144497500D01*
X100702797Y-144447501D01*
X100702795Y-144447500D01*
X100600016Y-144437000D01*
X100600009Y-144437000D01*
X100249500Y-144437000D01*
X100182461Y-144417315D01*
X100136706Y-144364511D01*
X100125500Y-144313000D01*
X100125500Y-140836724D01*
X100145185Y-140769685D01*
X100197989Y-140723930D01*
X100267147Y-140713986D01*
X100271383Y-140714670D01*
X100272564Y-140714880D01*
X100272582Y-140714886D01*
X100302918Y-140717196D01*
X100318457Y-140719376D01*
X100348255Y-140725500D01*
X100348259Y-140725500D01*
X100407244Y-140725500D01*
X100416659Y-140725857D01*
X100475476Y-140730337D01*
X100505651Y-140726493D01*
X100521318Y-140725500D01*
X106338001Y-140725500D01*
X106405040Y-140745185D01*
X106450795Y-140797989D01*
X106462001Y-140849500D01*
X106462001Y-141200018D01*
X106472500Y-141302796D01*
X106472501Y-141302799D01*
X106527685Y-141469331D01*
X106527687Y-141469336D01*
X106559861Y-141521499D01*
X106619788Y-141618656D01*
X106743844Y-141742712D01*
X106893166Y-141834814D01*
X107059703Y-141889999D01*
X107162491Y-141900500D01*
X107987508Y-141900499D01*
X107987516Y-141900498D01*
X107987519Y-141900498D01*
X108043802Y-141894748D01*
X108090297Y-141889999D01*
X108256834Y-141834814D01*
X108406156Y-141742712D01*
X108530212Y-141618656D01*
X108622314Y-141469334D01*
X108677499Y-141302797D01*
X108688000Y-141200009D01*
X108687999Y-138249992D01*
X108677499Y-138147203D01*
X108622314Y-137980666D01*
X108530212Y-137831344D01*
X108406156Y-137707288D01*
X108256834Y-137615186D01*
X108090297Y-137560001D01*
X108090295Y-137560000D01*
X107987510Y-137549500D01*
X107162498Y-137549500D01*
X107162480Y-137549501D01*
X107059703Y-137560000D01*
X107059700Y-137560001D01*
X106893168Y-137615185D01*
X106893163Y-137615187D01*
X106743842Y-137707289D01*
X106619789Y-137831342D01*
X106527687Y-137980663D01*
X106527685Y-137980668D01*
X106514686Y-138019898D01*
X106472501Y-138147203D01*
X106472501Y-138147204D01*
X106472500Y-138147204D01*
X106462000Y-138249983D01*
X106462000Y-138600500D01*
X106442315Y-138667539D01*
X106389511Y-138713294D01*
X106338000Y-138724500D01*
X100915783Y-138724500D01*
X100848744Y-138704815D01*
X100828102Y-138688181D01*
X100159819Y-138019898D01*
X100126334Y-137958575D01*
X100123500Y-137932217D01*
X100123500Y-136901627D01*
X100143185Y-136834588D01*
X100156265Y-136817649D01*
X100311164Y-136649385D01*
X100447173Y-136441207D01*
X100547063Y-136213481D01*
X100608108Y-135972421D01*
X100628643Y-135724600D01*
X100628419Y-135721898D01*
X100608109Y-135476787D01*
X100608107Y-135476775D01*
X100547063Y-135235718D01*
X100447173Y-135007993D01*
X100311166Y-134799817D01*
X100241928Y-134724605D01*
X101617357Y-134724605D01*
X101637890Y-134972412D01*
X101637892Y-134972424D01*
X101698936Y-135213481D01*
X101798826Y-135441206D01*
X101934833Y-135649382D01*
X101934836Y-135649385D01*
X102103256Y-135832338D01*
X102299491Y-135985074D01*
X102299493Y-135985075D01*
X102491272Y-136088861D01*
X102518190Y-136103428D01*
X102753386Y-136184171D01*
X102998665Y-136225100D01*
X103247335Y-136225100D01*
X103492614Y-136184171D01*
X103727810Y-136103428D01*
X103946509Y-135985074D01*
X104142744Y-135832338D01*
X104311164Y-135649385D01*
X104447173Y-135441207D01*
X104547063Y-135213481D01*
X104608108Y-134972421D01*
X104608109Y-134972412D01*
X104628643Y-134724605D01*
X104628643Y-134724594D01*
X104608109Y-134476787D01*
X104608107Y-134476775D01*
X104547063Y-134235718D01*
X104447173Y-134007993D01*
X104311166Y-133799817D01*
X104289557Y-133776344D01*
X104142744Y-133616862D01*
X103946509Y-133464126D01*
X103946507Y-133464125D01*
X103946506Y-133464124D01*
X103727811Y-133345772D01*
X103727802Y-133345769D01*
X103492616Y-133265029D01*
X103247335Y-133224100D01*
X102998665Y-133224100D01*
X102753383Y-133265029D01*
X102518197Y-133345769D01*
X102518188Y-133345772D01*
X102299493Y-133464124D01*
X102103257Y-133616861D01*
X101934833Y-133799817D01*
X101798826Y-134007993D01*
X101698936Y-134235718D01*
X101637892Y-134476775D01*
X101637890Y-134476787D01*
X101617357Y-134724594D01*
X101617357Y-134724605D01*
X100241928Y-134724605D01*
X100142744Y-134616862D01*
X99946509Y-134464126D01*
X99946507Y-134464125D01*
X99946506Y-134464124D01*
X99727811Y-134345772D01*
X99727802Y-134345769D01*
X99492616Y-134265029D01*
X99247335Y-134224100D01*
X98998665Y-134224100D01*
X98753383Y-134265029D01*
X98518197Y-134345769D01*
X98518188Y-134345772D01*
X98299493Y-134464124D01*
X98103257Y-134616861D01*
X97934833Y-134799817D01*
X97798826Y-135007993D01*
X97698936Y-135235718D01*
X97637892Y-135476775D01*
X97637890Y-135476787D01*
X97617357Y-135724594D01*
X97617357Y-135724605D01*
X97637890Y-135972412D01*
X97637892Y-135972424D01*
X97698936Y-136213481D01*
X97798826Y-136441206D01*
X97934833Y-136649382D01*
X97934836Y-136649385D01*
X98089730Y-136817645D01*
X98120652Y-136880298D01*
X98122500Y-136901627D01*
X98122500Y-138383721D01*
X98122460Y-138386863D01*
X98120242Y-138474358D01*
X98122555Y-138487261D01*
X98124500Y-138509137D01*
X98124500Y-144313000D01*
X98104815Y-144380039D01*
X98052011Y-144425794D01*
X98000500Y-144437000D01*
X97649998Y-144437000D01*
X97649980Y-144437001D01*
X97547203Y-144447500D01*
X97547200Y-144447501D01*
X97380668Y-144502685D01*
X97380663Y-144502687D01*
X97231342Y-144594789D01*
X97107289Y-144718842D01*
X97015187Y-144868163D01*
X97015185Y-144868168D01*
X96998617Y-144918168D01*
X96960001Y-145034703D01*
X96960001Y-145034704D01*
X96960000Y-145034704D01*
X96949500Y-145137483D01*
X96949500Y-145962501D01*
X95897947Y-145962501D01*
X95900500Y-145937509D01*
X95900499Y-145112492D01*
X95897660Y-145084704D01*
X95889999Y-145009703D01*
X95889998Y-145009700D01*
X95869289Y-144947204D01*
X95834814Y-144843166D01*
X95742712Y-144693844D01*
X95618656Y-144569788D01*
X95509864Y-144502685D01*
X95469336Y-144477687D01*
X95469331Y-144477685D01*
X95438036Y-144467315D01*
X95302797Y-144422501D01*
X95302795Y-144422500D01*
X95200016Y-144412000D01*
X95200009Y-144412000D01*
X94849500Y-144412000D01*
X94782461Y-144392315D01*
X94736706Y-144339511D01*
X94725500Y-144288000D01*
X94725500Y-143214237D01*
X94725540Y-143211097D01*
X94725579Y-143209520D01*
X94727756Y-143123637D01*
X94717349Y-143065572D01*
X94716042Y-143056253D01*
X94710074Y-142997562D01*
X94700965Y-142968532D01*
X94697224Y-142953287D01*
X94691858Y-142923349D01*
X94691858Y-142923347D01*
X94669974Y-142868562D01*
X94666822Y-142859709D01*
X94649159Y-142803412D01*
X94649158Y-142803411D01*
X94649157Y-142803406D01*
X94634396Y-142776814D01*
X94627659Y-142762629D01*
X94616378Y-142734385D01*
X94616375Y-142734380D01*
X94583918Y-142685131D01*
X94579036Y-142677074D01*
X94577607Y-142674500D01*
X94550409Y-142625498D01*
X94530588Y-142602410D01*
X94521144Y-142589885D01*
X94504402Y-142564481D01*
X94462692Y-142522771D01*
X94456300Y-142515875D01*
X94417866Y-142471105D01*
X94393804Y-142452479D01*
X94382026Y-142442105D01*
X93167566Y-141227646D01*
X93165373Y-141225397D01*
X93105061Y-141161949D01*
X93105060Y-141161948D01*
X93105059Y-141161947D01*
X93056640Y-141128246D01*
X93049120Y-141122575D01*
X93003413Y-141085305D01*
X93003406Y-141085301D01*
X92976441Y-141071216D01*
X92963026Y-141063089D01*
X92938049Y-141045705D01*
X92938046Y-141045703D01*
X92938045Y-141045703D01*
X92938041Y-141045701D01*
X92883845Y-141022443D01*
X92875336Y-141018402D01*
X92823057Y-140991094D01*
X92823046Y-140991090D01*
X92793806Y-140982723D01*
X92779021Y-140977459D01*
X92751058Y-140965459D01*
X92693273Y-140953583D01*
X92684127Y-140951338D01*
X92627423Y-140935113D01*
X92603699Y-140933306D01*
X92597072Y-140932801D01*
X92581533Y-140930622D01*
X92551742Y-140924500D01*
X92551741Y-140924500D01*
X92492759Y-140924500D01*
X92483344Y-140924142D01*
X92480643Y-140923936D01*
X92424524Y-140919662D01*
X92394349Y-140923506D01*
X92378682Y-140924500D01*
X85036999Y-140924500D01*
X84969960Y-140904815D01*
X84924205Y-140852011D01*
X84912999Y-140800500D01*
X84912999Y-140449998D01*
X84912998Y-140449981D01*
X84902499Y-140347203D01*
X84902498Y-140347200D01*
X84847314Y-140180666D01*
X84818959Y-140134695D01*
X84800500Y-140069601D01*
X84800500Y-134724605D01*
X93617357Y-134724605D01*
X93637890Y-134972412D01*
X93637892Y-134972424D01*
X93698936Y-135213481D01*
X93798826Y-135441206D01*
X93934833Y-135649382D01*
X93934836Y-135649385D01*
X94103256Y-135832338D01*
X94299491Y-135985074D01*
X94299493Y-135985075D01*
X94491272Y-136088861D01*
X94518190Y-136103428D01*
X94753386Y-136184171D01*
X94998665Y-136225100D01*
X95247335Y-136225100D01*
X95492614Y-136184171D01*
X95727810Y-136103428D01*
X95946509Y-135985074D01*
X96142744Y-135832338D01*
X96311164Y-135649385D01*
X96447173Y-135441207D01*
X96547063Y-135213481D01*
X96608108Y-134972421D01*
X96608109Y-134972412D01*
X96628643Y-134724605D01*
X96628643Y-134724594D01*
X96608109Y-134476787D01*
X96608107Y-134476775D01*
X96547063Y-134235718D01*
X96447173Y-134007993D01*
X96311166Y-133799817D01*
X96289557Y-133776344D01*
X96142744Y-133616862D01*
X95946509Y-133464126D01*
X95946507Y-133464125D01*
X95946506Y-133464124D01*
X95727811Y-133345772D01*
X95727802Y-133345769D01*
X95492616Y-133265029D01*
X95247335Y-133224100D01*
X94998665Y-133224100D01*
X94753383Y-133265029D01*
X94518197Y-133345769D01*
X94518188Y-133345772D01*
X94299493Y-133464124D01*
X94103257Y-133616861D01*
X93934833Y-133799817D01*
X93798826Y-134007993D01*
X93698936Y-134235718D01*
X93637892Y-134476775D01*
X93637890Y-134476787D01*
X93617357Y-134724594D01*
X93617357Y-134724605D01*
X84800500Y-134724605D01*
X84800500Y-131224605D01*
X91867357Y-131224605D01*
X91887890Y-131472412D01*
X91887892Y-131472424D01*
X91948936Y-131713481D01*
X92048826Y-131941206D01*
X92184833Y-132149382D01*
X92184836Y-132149385D01*
X92353256Y-132332338D01*
X92549491Y-132485074D01*
X92768190Y-132603428D01*
X93003386Y-132684171D01*
X93248665Y-132725100D01*
X93497335Y-132725100D01*
X93742614Y-132684171D01*
X93977810Y-132603428D01*
X94196509Y-132485074D01*
X94392744Y-132332338D01*
X94561164Y-132149385D01*
X94697173Y-131941207D01*
X94797063Y-131713481D01*
X94858108Y-131472421D01*
X94878643Y-131224605D01*
X103367357Y-131224605D01*
X103387890Y-131472412D01*
X103387892Y-131472424D01*
X103448936Y-131713481D01*
X103548826Y-131941206D01*
X103684833Y-132149382D01*
X103684836Y-132149385D01*
X103853256Y-132332338D01*
X104049491Y-132485074D01*
X104268190Y-132603428D01*
X104503386Y-132684171D01*
X104748665Y-132725100D01*
X104997335Y-132725100D01*
X105242614Y-132684171D01*
X105477810Y-132603428D01*
X105696509Y-132485074D01*
X105892744Y-132332338D01*
X106061164Y-132149385D01*
X106197173Y-131941207D01*
X106297063Y-131713481D01*
X106358108Y-131472421D01*
X106378643Y-131224600D01*
X106358108Y-130976779D01*
X106297063Y-130735719D01*
X106197173Y-130507993D01*
X106061166Y-130299817D01*
X106039557Y-130276344D01*
X105892744Y-130116862D01*
X105696509Y-129964126D01*
X105696507Y-129964125D01*
X105696506Y-129964124D01*
X105477811Y-129845772D01*
X105477802Y-129845769D01*
X105242616Y-129765029D01*
X104997335Y-129724100D01*
X104748665Y-129724100D01*
X104503383Y-129765029D01*
X104268197Y-129845769D01*
X104268188Y-129845772D01*
X104049493Y-129964124D01*
X103853257Y-130116861D01*
X103684833Y-130299817D01*
X103548826Y-130507993D01*
X103448936Y-130735718D01*
X103387892Y-130976775D01*
X103387890Y-130976787D01*
X103367357Y-131224594D01*
X103367357Y-131224605D01*
X94878643Y-131224605D01*
X94878643Y-131224600D01*
X94858108Y-130976779D01*
X94797063Y-130735719D01*
X94697173Y-130507993D01*
X94561166Y-130299817D01*
X94539557Y-130276344D01*
X94392744Y-130116862D01*
X94196509Y-129964126D01*
X94196507Y-129964125D01*
X94196506Y-129964124D01*
X93977811Y-129845772D01*
X93977802Y-129845769D01*
X93742616Y-129765029D01*
X93497335Y-129724100D01*
X93248665Y-129724100D01*
X93003383Y-129765029D01*
X92768197Y-129845769D01*
X92768188Y-129845772D01*
X92549493Y-129964124D01*
X92353257Y-130116861D01*
X92184833Y-130299817D01*
X92048826Y-130507993D01*
X91948936Y-130735718D01*
X91887892Y-130976775D01*
X91887890Y-130976787D01*
X91867357Y-131224594D01*
X91867357Y-131224605D01*
X84800500Y-131224605D01*
X84800500Y-126240783D01*
X84820185Y-126173744D01*
X84836819Y-126153102D01*
X85453102Y-125536819D01*
X85514425Y-125503334D01*
X85540783Y-125500500D01*
X92177683Y-125500500D01*
X92244722Y-125520185D01*
X92290477Y-125572989D01*
X92300421Y-125642147D01*
X92271396Y-125705703D01*
X92268913Y-125708483D01*
X92184833Y-125799817D01*
X92048826Y-126007993D01*
X91948936Y-126235718D01*
X91887892Y-126476775D01*
X91887890Y-126476787D01*
X91867357Y-126724594D01*
X91867357Y-126724605D01*
X91887890Y-126972412D01*
X91887892Y-126972424D01*
X91948936Y-127213481D01*
X92048826Y-127441206D01*
X92184833Y-127649382D01*
X92184836Y-127649385D01*
X92353256Y-127832338D01*
X92549491Y-127985074D01*
X92768190Y-128103428D01*
X93003386Y-128184171D01*
X93248665Y-128225100D01*
X93497335Y-128225100D01*
X93742614Y-128184171D01*
X93977810Y-128103428D01*
X94196509Y-127985074D01*
X94392744Y-127832338D01*
X94561164Y-127649385D01*
X94697173Y-127441207D01*
X94797063Y-127213481D01*
X94858108Y-126972421D01*
X94878643Y-126724600D01*
X96367473Y-126724600D01*
X96387563Y-127056736D01*
X96387563Y-127056741D01*
X96387564Y-127056742D01*
X96447544Y-127384041D01*
X96447545Y-127384045D01*
X96447546Y-127384049D01*
X96546530Y-127701704D01*
X96546534Y-127701716D01*
X96546537Y-127701723D01*
X96683102Y-128005157D01*
X96791320Y-128184171D01*
X96855251Y-128289926D01*
X97060460Y-128551855D01*
X97295744Y-128787139D01*
X97557673Y-128992348D01*
X97557678Y-128992351D01*
X97557682Y-128992354D01*
X97842443Y-129164498D01*
X98145877Y-129301063D01*
X98145890Y-129301067D01*
X98145895Y-129301069D01*
X98357665Y-129367058D01*
X98463559Y-129400056D01*
X98790858Y-129460036D01*
X99039894Y-129475100D01*
X99039907Y-129475100D01*
X99206093Y-129475100D01*
X99206106Y-129475100D01*
X99455142Y-129460036D01*
X99782441Y-129400056D01*
X100100123Y-129301063D01*
X100403557Y-129164498D01*
X100688318Y-128992354D01*
X100950252Y-128787142D01*
X101185542Y-128551852D01*
X101390754Y-128289918D01*
X101562898Y-128005157D01*
X101699463Y-127701723D01*
X101798456Y-127384041D01*
X101858436Y-127056742D01*
X101878527Y-126724605D01*
X103367357Y-126724605D01*
X103387890Y-126972412D01*
X103387892Y-126972424D01*
X103448936Y-127213481D01*
X103548826Y-127441206D01*
X103684833Y-127649382D01*
X103684836Y-127649385D01*
X103853256Y-127832338D01*
X104049491Y-127985074D01*
X104268190Y-128103428D01*
X104503386Y-128184171D01*
X104748665Y-128225100D01*
X104997335Y-128225100D01*
X105242614Y-128184171D01*
X105477810Y-128103428D01*
X105696509Y-127985074D01*
X105892744Y-127832338D01*
X106061164Y-127649385D01*
X106197173Y-127441207D01*
X106297063Y-127213481D01*
X106358108Y-126972421D01*
X106378643Y-126724600D01*
X106358108Y-126476779D01*
X106336755Y-126392458D01*
X106297063Y-126235718D01*
X106197173Y-126007993D01*
X106061166Y-125799817D01*
X106012986Y-125747480D01*
X105892744Y-125616862D01*
X105696509Y-125464126D01*
X105696507Y-125464125D01*
X105696506Y-125464124D01*
X105477811Y-125345772D01*
X105477802Y-125345769D01*
X105242616Y-125265029D01*
X104997335Y-125224100D01*
X104748665Y-125224100D01*
X104503383Y-125265029D01*
X104268197Y-125345769D01*
X104268188Y-125345772D01*
X104049493Y-125464124D01*
X103853257Y-125616861D01*
X103684833Y-125799817D01*
X103548826Y-126007993D01*
X103448936Y-126235718D01*
X103387892Y-126476775D01*
X103387890Y-126476787D01*
X103367357Y-126724594D01*
X103367357Y-126724605D01*
X101878527Y-126724605D01*
X101878527Y-126724600D01*
X101858436Y-126392458D01*
X101798456Y-126065159D01*
X101746449Y-125898262D01*
X101699469Y-125747495D01*
X101699467Y-125747490D01*
X101699463Y-125747477D01*
X101562898Y-125444043D01*
X101390754Y-125159282D01*
X101390751Y-125159278D01*
X101390748Y-125159273D01*
X101185539Y-124897344D01*
X100950255Y-124662060D01*
X100688326Y-124456851D01*
X100614059Y-124411955D01*
X100403557Y-124284702D01*
X100100123Y-124148137D01*
X100100116Y-124148134D01*
X100100104Y-124148130D01*
X99782449Y-124049146D01*
X99782445Y-124049145D01*
X99782441Y-124049144D01*
X99455142Y-123989164D01*
X99455141Y-123989163D01*
X99455136Y-123989163D01*
X99206114Y-123974100D01*
X99206106Y-123974100D01*
X99039894Y-123974100D01*
X99039885Y-123974100D01*
X98790863Y-123989163D01*
X98790858Y-123989164D01*
X98463559Y-124049144D01*
X98463556Y-124049144D01*
X98463550Y-124049146D01*
X98145895Y-124148130D01*
X98145879Y-124148136D01*
X98145877Y-124148137D01*
X97842443Y-124284702D01*
X97821726Y-124297226D01*
X97557673Y-124456851D01*
X97295744Y-124662060D01*
X97060460Y-124897344D01*
X96855251Y-125159273D01*
X96745294Y-125341165D01*
X96688735Y-125434726D01*
X96683101Y-125444045D01*
X96683100Y-125444047D01*
X96669645Y-125473943D01*
X96551504Y-125736442D01*
X96546536Y-125747480D01*
X96546530Y-125747495D01*
X96447546Y-126065150D01*
X96447544Y-126065156D01*
X96447544Y-126065159D01*
X96431428Y-126153102D01*
X96387563Y-126392463D01*
X96367473Y-126724600D01*
X94878643Y-126724600D01*
X94858108Y-126476779D01*
X94836755Y-126392458D01*
X94797063Y-126235718D01*
X94697173Y-126007993D01*
X94561166Y-125799817D01*
X94477087Y-125708483D01*
X94446165Y-125645828D01*
X94454025Y-125576402D01*
X94498172Y-125522247D01*
X94564590Y-125500556D01*
X94568317Y-125500500D01*
X95235721Y-125500500D01*
X95238863Y-125500540D01*
X95326358Y-125502757D01*
X95326358Y-125502756D01*
X95326363Y-125502757D01*
X95384425Y-125492349D01*
X95393754Y-125491041D01*
X95452438Y-125485074D01*
X95481471Y-125475964D01*
X95496700Y-125472226D01*
X95526653Y-125466858D01*
X95526657Y-125466856D01*
X95526659Y-125466856D01*
X95581423Y-125444980D01*
X95590292Y-125441821D01*
X95646588Y-125424159D01*
X95673200Y-125409387D01*
X95687362Y-125402662D01*
X95715617Y-125391377D01*
X95764879Y-125358909D01*
X95772910Y-125354043D01*
X95824502Y-125325409D01*
X95824509Y-125325402D01*
X95824512Y-125325401D01*
X95847583Y-125305594D01*
X95860125Y-125296137D01*
X95885519Y-125279402D01*
X95927237Y-125237682D01*
X95934122Y-125231301D01*
X95978895Y-125192866D01*
X95997520Y-125168802D01*
X96007880Y-125157039D01*
X98903102Y-122261819D01*
X98964425Y-122228334D01*
X98990783Y-122225500D01*
X101635721Y-122225500D01*
X101638863Y-122225540D01*
X101726358Y-122227757D01*
X101726358Y-122227756D01*
X101726363Y-122227757D01*
X101743947Y-122224605D01*
X103367357Y-122224605D01*
X103387890Y-122472412D01*
X103387892Y-122472424D01*
X103448936Y-122713481D01*
X103548826Y-122941206D01*
X103684833Y-123149382D01*
X103684836Y-123149385D01*
X103853256Y-123332338D01*
X104049491Y-123485074D01*
X104092743Y-123508481D01*
X104251546Y-123594421D01*
X104268190Y-123603428D01*
X104503386Y-123684171D01*
X104748665Y-123725100D01*
X104997335Y-123725100D01*
X105242614Y-123684171D01*
X105477810Y-123603428D01*
X105696509Y-123485074D01*
X105892744Y-123332338D01*
X106061164Y-123149385D01*
X106197173Y-122941207D01*
X106297063Y-122713481D01*
X106358108Y-122472421D01*
X106363881Y-122402757D01*
X106378643Y-122224605D01*
X106378643Y-122224594D01*
X106358109Y-121976787D01*
X106358107Y-121976775D01*
X106297063Y-121735718D01*
X106197173Y-121507993D01*
X106061166Y-121299817D01*
X106004426Y-121238181D01*
X105892744Y-121116862D01*
X105696509Y-120964126D01*
X105696507Y-120964125D01*
X105696506Y-120964124D01*
X105477811Y-120845772D01*
X105477802Y-120845769D01*
X105242616Y-120765029D01*
X104997335Y-120724100D01*
X104748665Y-120724100D01*
X104503383Y-120765029D01*
X104268197Y-120845769D01*
X104268188Y-120845772D01*
X104049493Y-120964124D01*
X103853257Y-121116861D01*
X103684833Y-121299817D01*
X103548826Y-121507993D01*
X103448936Y-121735718D01*
X103387892Y-121976775D01*
X103387890Y-121976787D01*
X103367357Y-122224594D01*
X103367357Y-122224605D01*
X101743947Y-122224605D01*
X101784425Y-122217349D01*
X101793754Y-122216041D01*
X101852438Y-122210074D01*
X101881471Y-122200964D01*
X101896700Y-122197226D01*
X101926653Y-122191858D01*
X101926657Y-122191856D01*
X101926659Y-122191856D01*
X101981423Y-122169980D01*
X101990292Y-122166821D01*
X102046588Y-122149159D01*
X102073200Y-122134387D01*
X102087362Y-122127662D01*
X102115617Y-122116377D01*
X102164879Y-122083909D01*
X102172910Y-122079043D01*
X102224502Y-122050409D01*
X102224509Y-122050402D01*
X102224512Y-122050401D01*
X102247583Y-122030594D01*
X102260125Y-122021137D01*
X102285519Y-122004402D01*
X102327237Y-121962682D01*
X102334122Y-121956301D01*
X102378895Y-121917866D01*
X102397520Y-121893802D01*
X102407880Y-121882039D01*
X103820409Y-120469510D01*
X103822578Y-120467395D01*
X103886053Y-120407059D01*
X103919756Y-120358635D01*
X103925405Y-120351142D01*
X103962698Y-120305407D01*
X103976788Y-120278430D01*
X103984909Y-120265026D01*
X104002295Y-120240049D01*
X104025563Y-120185825D01*
X104029582Y-120177361D01*
X104056909Y-120125049D01*
X104065278Y-120095797D01*
X104070538Y-120081023D01*
X104082540Y-120053058D01*
X104094415Y-119995268D01*
X104096649Y-119986162D01*
X104112887Y-119929418D01*
X104114986Y-119901852D01*
X104139702Y-119836500D01*
X104147385Y-119827296D01*
X104311164Y-119649385D01*
X104447173Y-119441207D01*
X104547063Y-119213481D01*
X104608108Y-118972421D01*
X104613825Y-118903427D01*
X104628643Y-118724605D01*
X117117357Y-118724605D01*
X117137890Y-118972412D01*
X117137892Y-118972424D01*
X117198936Y-119213481D01*
X117298826Y-119441206D01*
X117434833Y-119649382D01*
X117434836Y-119649385D01*
X117603256Y-119832338D01*
X117799491Y-119985074D01*
X117799493Y-119985075D01*
X117990130Y-120088243D01*
X118018190Y-120103428D01*
X118223861Y-120174035D01*
X118250391Y-120183143D01*
X118253386Y-120184171D01*
X118498665Y-120225100D01*
X118747335Y-120225100D01*
X118992614Y-120184171D01*
X119227810Y-120103428D01*
X119446509Y-119985074D01*
X119642744Y-119832338D01*
X119811164Y-119649385D01*
X119947173Y-119441207D01*
X120047063Y-119213481D01*
X120108108Y-118972421D01*
X120113825Y-118903427D01*
X120128643Y-118724605D01*
X120128643Y-118724594D01*
X120108109Y-118476787D01*
X120108107Y-118476775D01*
X120047063Y-118235718D01*
X119947173Y-118007993D01*
X119811166Y-117799817D01*
X119785938Y-117772412D01*
X119642744Y-117616862D01*
X119446509Y-117464126D01*
X119446507Y-117464125D01*
X119446506Y-117464124D01*
X119227811Y-117345772D01*
X119227802Y-117345769D01*
X118992616Y-117265029D01*
X118747335Y-117224100D01*
X118498665Y-117224100D01*
X118253383Y-117265029D01*
X118018197Y-117345769D01*
X118018188Y-117345772D01*
X117799493Y-117464124D01*
X117603257Y-117616861D01*
X117434833Y-117799817D01*
X117298826Y-118007993D01*
X117198936Y-118235718D01*
X117137892Y-118476775D01*
X117137890Y-118476787D01*
X117117357Y-118724594D01*
X117117357Y-118724605D01*
X104628643Y-118724605D01*
X104628643Y-118724594D01*
X104608109Y-118476787D01*
X104608107Y-118476775D01*
X104547063Y-118235718D01*
X104447173Y-118007993D01*
X104311166Y-117799817D01*
X104285938Y-117772412D01*
X104142744Y-117616862D01*
X103946509Y-117464126D01*
X103946507Y-117464125D01*
X103946506Y-117464124D01*
X103727811Y-117345772D01*
X103727802Y-117345769D01*
X103492616Y-117265029D01*
X103247335Y-117224100D01*
X102998665Y-117224100D01*
X102753383Y-117265029D01*
X102518197Y-117345769D01*
X102518188Y-117345772D01*
X102299493Y-117464124D01*
X102103257Y-117616861D01*
X101934833Y-117799817D01*
X101798826Y-118007993D01*
X101698936Y-118235718D01*
X101637892Y-118476775D01*
X101637890Y-118476787D01*
X101617357Y-118724594D01*
X101617357Y-118724605D01*
X101637890Y-118972412D01*
X101637892Y-118972424D01*
X101698936Y-119213481D01*
X101798828Y-119441210D01*
X101830704Y-119490001D01*
X101850892Y-119556890D01*
X101831711Y-119624076D01*
X101814576Y-119645502D01*
X101271899Y-120188181D01*
X101210576Y-120221666D01*
X101184218Y-120224500D01*
X98539237Y-120224500D01*
X98536097Y-120224460D01*
X98499912Y-120223543D01*
X98448636Y-120222244D01*
X98448635Y-120222244D01*
X98448626Y-120222244D01*
X98390582Y-120232648D01*
X98381253Y-120233957D01*
X98322564Y-120239925D01*
X98293527Y-120249035D01*
X98278288Y-120252775D01*
X98248349Y-120258141D01*
X98193567Y-120280022D01*
X98184698Y-120283179D01*
X98128414Y-120300840D01*
X98128410Y-120300842D01*
X98101811Y-120315605D01*
X98087638Y-120322336D01*
X98059382Y-120333623D01*
X98059378Y-120333625D01*
X98010122Y-120366086D01*
X98002069Y-120370965D01*
X97950501Y-120399588D01*
X97927413Y-120419408D01*
X97914887Y-120428852D01*
X97889485Y-120445594D01*
X97889478Y-120445600D01*
X97847774Y-120487303D01*
X97840869Y-120493703D01*
X97796102Y-120532136D01*
X97777480Y-120556193D01*
X97767108Y-120567969D01*
X94871899Y-123463181D01*
X94810576Y-123496666D01*
X94784218Y-123499500D01*
X94521552Y-123499500D01*
X94454513Y-123479815D01*
X94408758Y-123427011D01*
X94398814Y-123357853D01*
X94427839Y-123294297D01*
X94430322Y-123291517D01*
X94445067Y-123275500D01*
X94561164Y-123149385D01*
X94697173Y-122941207D01*
X94797063Y-122713481D01*
X94858108Y-122472421D01*
X94863881Y-122402757D01*
X94878643Y-122224605D01*
X94878643Y-122224594D01*
X94858109Y-121976787D01*
X94858107Y-121976775D01*
X94797063Y-121735718D01*
X94697173Y-121507993D01*
X94561166Y-121299817D01*
X94504426Y-121238181D01*
X94392744Y-121116862D01*
X94196509Y-120964126D01*
X94196507Y-120964125D01*
X94196506Y-120964124D01*
X93977811Y-120845772D01*
X93977802Y-120845769D01*
X93742616Y-120765029D01*
X93497335Y-120724100D01*
X93248665Y-120724100D01*
X93003383Y-120765029D01*
X92768197Y-120845769D01*
X92768188Y-120845772D01*
X92549493Y-120964124D01*
X92353257Y-121116861D01*
X92184833Y-121299817D01*
X92048826Y-121507993D01*
X91948936Y-121735718D01*
X91887892Y-121976775D01*
X91887890Y-121976787D01*
X91867357Y-122224594D01*
X91867357Y-122224605D01*
X91887890Y-122472412D01*
X91887892Y-122472424D01*
X91948936Y-122713481D01*
X92048826Y-122941206D01*
X92184833Y-123149382D01*
X92184836Y-123149385D01*
X92293430Y-123267350D01*
X92315678Y-123291517D01*
X92346600Y-123354172D01*
X92338740Y-123423598D01*
X92294593Y-123477753D01*
X92228175Y-123499444D01*
X92224448Y-123499500D01*
X85089238Y-123499500D01*
X85086098Y-123499460D01*
X84998637Y-123497244D01*
X84998625Y-123497245D01*
X84940589Y-123507646D01*
X84931265Y-123508954D01*
X84872563Y-123514925D01*
X84872554Y-123514927D01*
X84843528Y-123524034D01*
X84828288Y-123527775D01*
X84798349Y-123533141D01*
X84743567Y-123555022D01*
X84734698Y-123558179D01*
X84678414Y-123575840D01*
X84678410Y-123575842D01*
X84651811Y-123590605D01*
X84637638Y-123597336D01*
X84609382Y-123608623D01*
X84609378Y-123608625D01*
X84560122Y-123641086D01*
X84552069Y-123645965D01*
X84500501Y-123674588D01*
X84477413Y-123694408D01*
X84464887Y-123703852D01*
X84439485Y-123720594D01*
X84439478Y-123720600D01*
X84397774Y-123762303D01*
X84390869Y-123768703D01*
X84346101Y-123807137D01*
X84327481Y-123831192D01*
X84317108Y-123842970D01*
X83102645Y-125057433D01*
X83100398Y-125059625D01*
X83036946Y-125119942D01*
X83003245Y-125168361D01*
X82997574Y-125175882D01*
X82960302Y-125221592D01*
X82960298Y-125221598D01*
X82946209Y-125248568D01*
X82938082Y-125261983D01*
X82920702Y-125286955D01*
X82897438Y-125341165D01*
X82893398Y-125349672D01*
X82866090Y-125401951D01*
X82866090Y-125401952D01*
X82857720Y-125431201D01*
X82852459Y-125445979D01*
X82840459Y-125473943D01*
X82834990Y-125500556D01*
X82830957Y-125520185D01*
X82828588Y-125531711D01*
X82826342Y-125540860D01*
X82810113Y-125597577D01*
X82807802Y-125627926D01*
X82805622Y-125643466D01*
X82799500Y-125673258D01*
X82799500Y-125732240D01*
X82799142Y-125741656D01*
X82794662Y-125800474D01*
X82798506Y-125830649D01*
X82799500Y-125846317D01*
X82799500Y-140069601D01*
X82781040Y-140134695D01*
X82752686Y-140180666D01*
X82697501Y-140347203D01*
X82697501Y-140347204D01*
X82697500Y-140347204D01*
X82687000Y-140449983D01*
X82687000Y-143400001D01*
X78988000Y-143400001D01*
X78987999Y-140449992D01*
X78977499Y-140347203D01*
X78922314Y-140180666D01*
X78830212Y-140031344D01*
X78706156Y-139907288D01*
X78556834Y-139815186D01*
X78390297Y-139760001D01*
X78390295Y-139760000D01*
X78287510Y-139749500D01*
X77462498Y-139749500D01*
X77462480Y-139749501D01*
X77359703Y-139760000D01*
X77359700Y-139760001D01*
X77193168Y-139815185D01*
X77193163Y-139815187D01*
X77043842Y-139907289D01*
X76919789Y-140031342D01*
X76827687Y-140180663D01*
X76827685Y-140180668D01*
X76821285Y-140199983D01*
X76772501Y-140347203D01*
X76772501Y-140347204D01*
X76772500Y-140347204D01*
X76762000Y-140449983D01*
X76762000Y-140800500D01*
X76742315Y-140867539D01*
X76689511Y-140913294D01*
X76638000Y-140924500D01*
X62247500Y-140924500D01*
X62180461Y-140904815D01*
X62134706Y-140852011D01*
X62123500Y-140800500D01*
X62123500Y-136901627D01*
X62143185Y-136834588D01*
X62156265Y-136817649D01*
X62311164Y-136649385D01*
X62447173Y-136441207D01*
X62547063Y-136213481D01*
X62608108Y-135972421D01*
X62628643Y-135724600D01*
X62628419Y-135721898D01*
X62608109Y-135476787D01*
X62608107Y-135476775D01*
X62547063Y-135235718D01*
X62447173Y-135007993D01*
X62311166Y-134799817D01*
X62241928Y-134724605D01*
X63617357Y-134724605D01*
X63637890Y-134972412D01*
X63637892Y-134972424D01*
X63698936Y-135213481D01*
X63798826Y-135441206D01*
X63934833Y-135649382D01*
X63934836Y-135649385D01*
X64103256Y-135832338D01*
X64299491Y-135985074D01*
X64299493Y-135985075D01*
X64491272Y-136088861D01*
X64518190Y-136103428D01*
X64753386Y-136184171D01*
X64998665Y-136225100D01*
X65247335Y-136225100D01*
X65492614Y-136184171D01*
X65727810Y-136103428D01*
X65946509Y-135985074D01*
X66142744Y-135832338D01*
X66311164Y-135649385D01*
X66447173Y-135441207D01*
X66547063Y-135213481D01*
X66608108Y-134972421D01*
X66608109Y-134972412D01*
X66628643Y-134724605D01*
X66628643Y-134724594D01*
X66608109Y-134476787D01*
X66608107Y-134476775D01*
X66547063Y-134235718D01*
X66447173Y-134007993D01*
X66311166Y-133799817D01*
X66289557Y-133776344D01*
X66142744Y-133616862D01*
X65946509Y-133464126D01*
X65946507Y-133464125D01*
X65946506Y-133464124D01*
X65727811Y-133345772D01*
X65727802Y-133345769D01*
X65492616Y-133265029D01*
X65247335Y-133224100D01*
X64998665Y-133224100D01*
X64753383Y-133265029D01*
X64518197Y-133345769D01*
X64518188Y-133345772D01*
X64299493Y-133464124D01*
X64103257Y-133616861D01*
X63934833Y-133799817D01*
X63798826Y-134007993D01*
X63698936Y-134235718D01*
X63637892Y-134476775D01*
X63637890Y-134476787D01*
X63617357Y-134724594D01*
X63617357Y-134724605D01*
X62241928Y-134724605D01*
X62142744Y-134616862D01*
X61946509Y-134464126D01*
X61946507Y-134464125D01*
X61946506Y-134464124D01*
X61727811Y-134345772D01*
X61727802Y-134345769D01*
X61492616Y-134265029D01*
X61247335Y-134224100D01*
X60998665Y-134224100D01*
X60753383Y-134265029D01*
X60518197Y-134345769D01*
X60518188Y-134345772D01*
X60299493Y-134464124D01*
X60103257Y-134616861D01*
X59934833Y-134799817D01*
X59798826Y-135007993D01*
X59698936Y-135235718D01*
X59637892Y-135476775D01*
X59637890Y-135476787D01*
X59617357Y-135724594D01*
X59617357Y-135724605D01*
X59637890Y-135972412D01*
X59637892Y-135972424D01*
X59698936Y-136213481D01*
X59798826Y-136441206D01*
X59934833Y-136649382D01*
X59934836Y-136649385D01*
X60089730Y-136817645D01*
X60120652Y-136880298D01*
X60122500Y-136901627D01*
X60122500Y-142282240D01*
X60122142Y-142291656D01*
X60117662Y-142350474D01*
X60121506Y-142380649D01*
X60122500Y-142396317D01*
X60122500Y-144363000D01*
X60102815Y-144430039D01*
X60050011Y-144475794D01*
X59998502Y-144487000D01*
X59924999Y-144487000D01*
X59924980Y-144487001D01*
X59822203Y-144497500D01*
X59822200Y-144497501D01*
X59655668Y-144552685D01*
X59655663Y-144552687D01*
X59506342Y-144644789D01*
X59382289Y-144768842D01*
X59290187Y-144918163D01*
X59290186Y-144918166D01*
X59235001Y-145084703D01*
X59235001Y-145084704D01*
X59235000Y-145084704D01*
X59224500Y-145187483D01*
X59224500Y-146012501D01*
X54725500Y-146012501D01*
X54725499Y-145287492D01*
X54714999Y-145184703D01*
X54659814Y-145018166D01*
X54567712Y-144868844D01*
X54443656Y-144744788D01*
X54294334Y-144652686D01*
X54127797Y-144597501D01*
X54127795Y-144597500D01*
X54025016Y-144587000D01*
X54025009Y-144587000D01*
X53512000Y-144587000D01*
X53444961Y-144567315D01*
X53399206Y-144514511D01*
X53388000Y-144463000D01*
X53388000Y-143530398D01*
X53406461Y-143465301D01*
X53434814Y-143419334D01*
X53489999Y-143252797D01*
X53500500Y-143150009D01*
X53500499Y-140199992D01*
X53489999Y-140097203D01*
X53434814Y-139930666D01*
X53406459Y-139884695D01*
X53388000Y-139819601D01*
X53388000Y-134724605D01*
X55617357Y-134724605D01*
X55637890Y-134972412D01*
X55637892Y-134972424D01*
X55698936Y-135213481D01*
X55798826Y-135441206D01*
X55934833Y-135649382D01*
X55934836Y-135649385D01*
X56103256Y-135832338D01*
X56299491Y-135985074D01*
X56299493Y-135985075D01*
X56491272Y-136088861D01*
X56518190Y-136103428D01*
X56753386Y-136184171D01*
X56998665Y-136225100D01*
X57247335Y-136225100D01*
X57492614Y-136184171D01*
X57727810Y-136103428D01*
X57946509Y-135985074D01*
X58142744Y-135832338D01*
X58311164Y-135649385D01*
X58447173Y-135441207D01*
X58547063Y-135213481D01*
X58608108Y-134972421D01*
X58608109Y-134972412D01*
X58628643Y-134724605D01*
X58628643Y-134724594D01*
X58608109Y-134476787D01*
X58608107Y-134476775D01*
X58547063Y-134235718D01*
X58447173Y-134007993D01*
X58311166Y-133799817D01*
X58289557Y-133776344D01*
X58142744Y-133616862D01*
X57946509Y-133464126D01*
X57946507Y-133464125D01*
X57946506Y-133464124D01*
X57727811Y-133345772D01*
X57727802Y-133345769D01*
X57492616Y-133265029D01*
X57247335Y-133224100D01*
X56998665Y-133224100D01*
X56753383Y-133265029D01*
X56518197Y-133345769D01*
X56518188Y-133345772D01*
X56299493Y-133464124D01*
X56103257Y-133616861D01*
X55934833Y-133799817D01*
X55798826Y-134007993D01*
X55698936Y-134235718D01*
X55637892Y-134476775D01*
X55637890Y-134476787D01*
X55617357Y-134724594D01*
X55617357Y-134724605D01*
X53388000Y-134724605D01*
X53388000Y-131224605D01*
X53867357Y-131224605D01*
X53887890Y-131472412D01*
X53887892Y-131472424D01*
X53948936Y-131713481D01*
X54048826Y-131941206D01*
X54184833Y-132149382D01*
X54184836Y-132149385D01*
X54353256Y-132332338D01*
X54549491Y-132485074D01*
X54768190Y-132603428D01*
X55003386Y-132684171D01*
X55248665Y-132725100D01*
X55497335Y-132725100D01*
X55742614Y-132684171D01*
X55977810Y-132603428D01*
X56196509Y-132485074D01*
X56392744Y-132332338D01*
X56561164Y-132149385D01*
X56697173Y-131941207D01*
X56797063Y-131713481D01*
X56858108Y-131472421D01*
X56878643Y-131224605D01*
X65367357Y-131224605D01*
X65387890Y-131472412D01*
X65387892Y-131472424D01*
X65448936Y-131713481D01*
X65548826Y-131941206D01*
X65684833Y-132149382D01*
X65684836Y-132149385D01*
X65853256Y-132332338D01*
X66049491Y-132485074D01*
X66268190Y-132603428D01*
X66503386Y-132684171D01*
X66748665Y-132725100D01*
X66997335Y-132725100D01*
X67242614Y-132684171D01*
X67477810Y-132603428D01*
X67696509Y-132485074D01*
X67892744Y-132332338D01*
X68061164Y-132149385D01*
X68197173Y-131941207D01*
X68297063Y-131713481D01*
X68358108Y-131472421D01*
X68378643Y-131224600D01*
X68358108Y-130976779D01*
X68297063Y-130735719D01*
X68197173Y-130507993D01*
X68061166Y-130299817D01*
X68039557Y-130276344D01*
X67892744Y-130116862D01*
X67696509Y-129964126D01*
X67696507Y-129964125D01*
X67696506Y-129964124D01*
X67477811Y-129845772D01*
X67477802Y-129845769D01*
X67242616Y-129765029D01*
X66997335Y-129724100D01*
X66748665Y-129724100D01*
X66503383Y-129765029D01*
X66268197Y-129845769D01*
X66268188Y-129845772D01*
X66049493Y-129964124D01*
X65853257Y-130116861D01*
X65684833Y-130299817D01*
X65548826Y-130507993D01*
X65448936Y-130735718D01*
X65387892Y-130976775D01*
X65387890Y-130976787D01*
X65367357Y-131224594D01*
X65367357Y-131224605D01*
X56878643Y-131224605D01*
X56878643Y-131224600D01*
X56858108Y-130976779D01*
X56797063Y-130735719D01*
X56697173Y-130507993D01*
X56561166Y-130299817D01*
X56539557Y-130276344D01*
X56392744Y-130116862D01*
X56196509Y-129964126D01*
X56196507Y-129964125D01*
X56196506Y-129964124D01*
X55977811Y-129845772D01*
X55977802Y-129845769D01*
X55742616Y-129765029D01*
X55497335Y-129724100D01*
X55248665Y-129724100D01*
X55003383Y-129765029D01*
X54768197Y-129845769D01*
X54768188Y-129845772D01*
X54549493Y-129964124D01*
X54353257Y-130116861D01*
X54184833Y-130299817D01*
X54048826Y-130507993D01*
X53948936Y-130735718D01*
X53887892Y-130976775D01*
X53887890Y-130976787D01*
X53867357Y-131224594D01*
X53867357Y-131224605D01*
X53388000Y-131224605D01*
X53388000Y-126503282D01*
X53407685Y-126436243D01*
X53424319Y-126415601D01*
X53447462Y-126392458D01*
X53752396Y-126087523D01*
X53813717Y-126054040D01*
X53883408Y-126059024D01*
X53939342Y-126100895D01*
X53963759Y-126166360D01*
X53953633Y-126225012D01*
X53948936Y-126235719D01*
X53887892Y-126476775D01*
X53887890Y-126476787D01*
X53867357Y-126724594D01*
X53867357Y-126724605D01*
X53887890Y-126972412D01*
X53887892Y-126972424D01*
X53948936Y-127213481D01*
X54048826Y-127441206D01*
X54184833Y-127649382D01*
X54184836Y-127649385D01*
X54353256Y-127832338D01*
X54549491Y-127985074D01*
X54768190Y-128103428D01*
X55003386Y-128184171D01*
X55248665Y-128225100D01*
X55497335Y-128225100D01*
X55742614Y-128184171D01*
X55977810Y-128103428D01*
X56196509Y-127985074D01*
X56392744Y-127832338D01*
X56561164Y-127649385D01*
X56697173Y-127441207D01*
X56797063Y-127213481D01*
X56858108Y-126972421D01*
X56878643Y-126724600D01*
X58367473Y-126724600D01*
X58387563Y-127056736D01*
X58387563Y-127056741D01*
X58387564Y-127056742D01*
X58447544Y-127384041D01*
X58447545Y-127384045D01*
X58447546Y-127384049D01*
X58546530Y-127701704D01*
X58546534Y-127701716D01*
X58546537Y-127701723D01*
X58683102Y-128005157D01*
X58791320Y-128184171D01*
X58855251Y-128289926D01*
X59060460Y-128551855D01*
X59295744Y-128787139D01*
X59557673Y-128992348D01*
X59557678Y-128992351D01*
X59557682Y-128992354D01*
X59842443Y-129164498D01*
X60145877Y-129301063D01*
X60145890Y-129301067D01*
X60145895Y-129301069D01*
X60357665Y-129367058D01*
X60463559Y-129400056D01*
X60790858Y-129460036D01*
X61039894Y-129475100D01*
X61039907Y-129475100D01*
X61206093Y-129475100D01*
X61206106Y-129475100D01*
X61455142Y-129460036D01*
X61782441Y-129400056D01*
X62100123Y-129301063D01*
X62403557Y-129164498D01*
X62688318Y-128992354D01*
X62950252Y-128787142D01*
X63185542Y-128551852D01*
X63390754Y-128289918D01*
X63562898Y-128005157D01*
X63699463Y-127701723D01*
X63798456Y-127384041D01*
X63858436Y-127056742D01*
X63878527Y-126724605D01*
X65367357Y-126724605D01*
X65387890Y-126972412D01*
X65387892Y-126972424D01*
X65448936Y-127213481D01*
X65548826Y-127441206D01*
X65684833Y-127649382D01*
X65684836Y-127649385D01*
X65853256Y-127832338D01*
X66049491Y-127985074D01*
X66268190Y-128103428D01*
X66503386Y-128184171D01*
X66748665Y-128225100D01*
X66997335Y-128225100D01*
X67242614Y-128184171D01*
X67477810Y-128103428D01*
X67696509Y-127985074D01*
X67892744Y-127832338D01*
X68061164Y-127649385D01*
X68197173Y-127441207D01*
X68297063Y-127213481D01*
X68358108Y-126972421D01*
X68378643Y-126724600D01*
X68358108Y-126476779D01*
X68336755Y-126392458D01*
X68297063Y-126235718D01*
X68197173Y-126007993D01*
X68061166Y-125799817D01*
X68012986Y-125747480D01*
X67892744Y-125616862D01*
X67696509Y-125464126D01*
X67696507Y-125464125D01*
X67696506Y-125464124D01*
X67477811Y-125345772D01*
X67477802Y-125345769D01*
X67242616Y-125265029D01*
X66997335Y-125224100D01*
X66748665Y-125224100D01*
X66503383Y-125265029D01*
X66268197Y-125345769D01*
X66268188Y-125345772D01*
X66049493Y-125464124D01*
X65853257Y-125616861D01*
X65684833Y-125799817D01*
X65548826Y-126007993D01*
X65448936Y-126235718D01*
X65387892Y-126476775D01*
X65387890Y-126476787D01*
X65367357Y-126724594D01*
X65367357Y-126724605D01*
X63878527Y-126724605D01*
X63878527Y-126724600D01*
X63858436Y-126392458D01*
X63798456Y-126065159D01*
X63746449Y-125898262D01*
X63699469Y-125747495D01*
X63699467Y-125747490D01*
X63699463Y-125747477D01*
X63562898Y-125444043D01*
X63390754Y-125159282D01*
X63390751Y-125159278D01*
X63390748Y-125159273D01*
X63185539Y-124897344D01*
X62950255Y-124662060D01*
X62688326Y-124456851D01*
X62614059Y-124411955D01*
X62403557Y-124284702D01*
X62100123Y-124148137D01*
X62100116Y-124148134D01*
X62100104Y-124148130D01*
X61782449Y-124049146D01*
X61782445Y-124049145D01*
X61782441Y-124049144D01*
X61455142Y-123989164D01*
X61455141Y-123989163D01*
X61455136Y-123989163D01*
X61206114Y-123974100D01*
X61206106Y-123974100D01*
X61039894Y-123974100D01*
X61039885Y-123974100D01*
X60790863Y-123989163D01*
X60790858Y-123989164D01*
X60463559Y-124049144D01*
X60463556Y-124049144D01*
X60463550Y-124049146D01*
X60145895Y-124148130D01*
X60145879Y-124148136D01*
X60145877Y-124148137D01*
X59842443Y-124284702D01*
X59821726Y-124297226D01*
X59557673Y-124456851D01*
X59295744Y-124662060D01*
X59060460Y-124897344D01*
X58855251Y-125159273D01*
X58745294Y-125341165D01*
X58688735Y-125434726D01*
X58683101Y-125444045D01*
X58683100Y-125444047D01*
X58669645Y-125473943D01*
X58551504Y-125736442D01*
X58546536Y-125747480D01*
X58546530Y-125747495D01*
X58447546Y-126065150D01*
X58447544Y-126065156D01*
X58447544Y-126065159D01*
X58431428Y-126153102D01*
X58387563Y-126392463D01*
X58367473Y-126724600D01*
X56878643Y-126724600D01*
X56858108Y-126476779D01*
X56836755Y-126392458D01*
X56797063Y-126235718D01*
X56697173Y-126007993D01*
X56561166Y-125799817D01*
X56512986Y-125747480D01*
X56392744Y-125616862D01*
X56367679Y-125597353D01*
X56326866Y-125540642D01*
X56323193Y-125470869D01*
X56357824Y-125410186D01*
X56419766Y-125377860D01*
X56443842Y-125375500D01*
X57210721Y-125375500D01*
X57213863Y-125375540D01*
X57301358Y-125377757D01*
X57301358Y-125377756D01*
X57301363Y-125377757D01*
X57359425Y-125367349D01*
X57368754Y-125366041D01*
X57427438Y-125360074D01*
X57456471Y-125350964D01*
X57471700Y-125347226D01*
X57501653Y-125341858D01*
X57501657Y-125341856D01*
X57501659Y-125341856D01*
X57556423Y-125319980D01*
X57565292Y-125316821D01*
X57621588Y-125299159D01*
X57648200Y-125284387D01*
X57662362Y-125277662D01*
X57690617Y-125266377D01*
X57739879Y-125233909D01*
X57747910Y-125229043D01*
X57799502Y-125200409D01*
X57799509Y-125200402D01*
X57799512Y-125200401D01*
X57822583Y-125180594D01*
X57835125Y-125171137D01*
X57838656Y-125168810D01*
X57860519Y-125154402D01*
X57902237Y-125112682D01*
X57909122Y-125106301D01*
X57953895Y-125067866D01*
X57972520Y-125043802D01*
X57982880Y-125032039D01*
X60578102Y-122436819D01*
X60639425Y-122403334D01*
X60665783Y-122400500D01*
X62433321Y-122400500D01*
X62436463Y-122400540D01*
X62523958Y-122402757D01*
X62523958Y-122402756D01*
X62523963Y-122402757D01*
X62582025Y-122392349D01*
X62591354Y-122391041D01*
X62650038Y-122385074D01*
X62679071Y-122375964D01*
X62694300Y-122372226D01*
X62724253Y-122366858D01*
X62724257Y-122366856D01*
X62724259Y-122366856D01*
X62779023Y-122344980D01*
X62787892Y-122341821D01*
X62844188Y-122324159D01*
X62870800Y-122309387D01*
X62884962Y-122302662D01*
X62913217Y-122291377D01*
X62962479Y-122258909D01*
X62970510Y-122254043D01*
X63022102Y-122225409D01*
X63022109Y-122225402D01*
X63022112Y-122225401D01*
X63023039Y-122224605D01*
X65367357Y-122224605D01*
X65387890Y-122472412D01*
X65387892Y-122472424D01*
X65448936Y-122713481D01*
X65548826Y-122941206D01*
X65684833Y-123149382D01*
X65684836Y-123149385D01*
X65853256Y-123332338D01*
X66049491Y-123485074D01*
X66092743Y-123508481D01*
X66251546Y-123594421D01*
X66268190Y-123603428D01*
X66503386Y-123684171D01*
X66748665Y-123725100D01*
X66997335Y-123725100D01*
X67242614Y-123684171D01*
X67477810Y-123603428D01*
X67696509Y-123485074D01*
X67892744Y-123332338D01*
X68061164Y-123149385D01*
X68197173Y-122941207D01*
X68297063Y-122713481D01*
X68358108Y-122472421D01*
X68363881Y-122402757D01*
X68378643Y-122224605D01*
X68378643Y-122224594D01*
X68358109Y-121976787D01*
X68358107Y-121976775D01*
X68297063Y-121735718D01*
X68197173Y-121507993D01*
X68061166Y-121299817D01*
X68004426Y-121238181D01*
X67892744Y-121116862D01*
X67696509Y-120964126D01*
X67696507Y-120964125D01*
X67696506Y-120964124D01*
X67477811Y-120845772D01*
X67477802Y-120845769D01*
X67242616Y-120765029D01*
X66997335Y-120724100D01*
X66748665Y-120724100D01*
X66503383Y-120765029D01*
X66268197Y-120845769D01*
X66268188Y-120845772D01*
X66049493Y-120964124D01*
X65853257Y-121116861D01*
X65684833Y-121299817D01*
X65548826Y-121507993D01*
X65448936Y-121735718D01*
X65387892Y-121976775D01*
X65387890Y-121976787D01*
X65367357Y-122224594D01*
X65367357Y-122224605D01*
X63023039Y-122224605D01*
X63045183Y-122205594D01*
X63057725Y-122196137D01*
X63064218Y-122191858D01*
X63083119Y-122179402D01*
X63124826Y-122137694D01*
X63131738Y-122131288D01*
X63137936Y-122125967D01*
X63176495Y-122092866D01*
X63195124Y-122068798D01*
X63205484Y-122057035D01*
X65001101Y-120261419D01*
X65062424Y-120227934D01*
X65088782Y-120225100D01*
X65247335Y-120225100D01*
X65492614Y-120184171D01*
X65727810Y-120103428D01*
X65946509Y-119985074D01*
X66142744Y-119832338D01*
X66311164Y-119649385D01*
X66447173Y-119441207D01*
X66547063Y-119213481D01*
X66608108Y-118972421D01*
X66613825Y-118903427D01*
X66628643Y-118724605D01*
X93617357Y-118724605D01*
X93637890Y-118972412D01*
X93637892Y-118972424D01*
X93698936Y-119213481D01*
X93798826Y-119441206D01*
X93934833Y-119649382D01*
X93934836Y-119649385D01*
X94103256Y-119832338D01*
X94299491Y-119985074D01*
X94299493Y-119985075D01*
X94490130Y-120088243D01*
X94518190Y-120103428D01*
X94723861Y-120174035D01*
X94750391Y-120183143D01*
X94753386Y-120184171D01*
X94998665Y-120225100D01*
X95247335Y-120225100D01*
X95492614Y-120184171D01*
X95727810Y-120103428D01*
X95946509Y-119985074D01*
X96142744Y-119832338D01*
X96311164Y-119649385D01*
X96447173Y-119441207D01*
X96547063Y-119213481D01*
X96608108Y-118972421D01*
X96613825Y-118903427D01*
X96628643Y-118724605D01*
X96628643Y-118724594D01*
X96608109Y-118476787D01*
X96608107Y-118476775D01*
X96547063Y-118235718D01*
X96447173Y-118007993D01*
X96311166Y-117799817D01*
X96285938Y-117772412D01*
X96142744Y-117616862D01*
X95946509Y-117464126D01*
X95946507Y-117464125D01*
X95946506Y-117464124D01*
X95727811Y-117345772D01*
X95727802Y-117345769D01*
X95492616Y-117265029D01*
X95247335Y-117224100D01*
X94998665Y-117224100D01*
X94753383Y-117265029D01*
X94518197Y-117345769D01*
X94518188Y-117345772D01*
X94299493Y-117464124D01*
X94103257Y-117616861D01*
X93934833Y-117799817D01*
X93798826Y-118007993D01*
X93698936Y-118235718D01*
X93637892Y-118476775D01*
X93637890Y-118476787D01*
X93617357Y-118724594D01*
X93617357Y-118724605D01*
X66628643Y-118724605D01*
X66628643Y-118724594D01*
X66608109Y-118476787D01*
X66608107Y-118476775D01*
X66547063Y-118235718D01*
X66447173Y-118007993D01*
X66311166Y-117799817D01*
X66285938Y-117772412D01*
X66142744Y-117616862D01*
X65946509Y-117464126D01*
X65946507Y-117464125D01*
X65946506Y-117464124D01*
X65727811Y-117345772D01*
X65727802Y-117345769D01*
X65492616Y-117265029D01*
X65247335Y-117224100D01*
X64998665Y-117224100D01*
X64753383Y-117265029D01*
X64518197Y-117345769D01*
X64518188Y-117345772D01*
X64299493Y-117464124D01*
X64103257Y-117616861D01*
X63934833Y-117799817D01*
X63798826Y-118007993D01*
X63698936Y-118235718D01*
X63637892Y-118476775D01*
X63637890Y-118476787D01*
X63617357Y-118724594D01*
X63617357Y-118724600D01*
X63619553Y-118751102D01*
X63605470Y-118819538D01*
X63583657Y-118849021D01*
X62069499Y-120363181D01*
X62008176Y-120396666D01*
X61981818Y-120399500D01*
X60214237Y-120399500D01*
X60211097Y-120399460D01*
X60174912Y-120398543D01*
X60123636Y-120397244D01*
X60123635Y-120397244D01*
X60123626Y-120397244D01*
X60065582Y-120407648D01*
X60056253Y-120408957D01*
X59997564Y-120414925D01*
X59968527Y-120424035D01*
X59953288Y-120427775D01*
X59923349Y-120433141D01*
X59868567Y-120455022D01*
X59859698Y-120458179D01*
X59803414Y-120475840D01*
X59803410Y-120475842D01*
X59776811Y-120490605D01*
X59762638Y-120497336D01*
X59734382Y-120508623D01*
X59734378Y-120508625D01*
X59685122Y-120541086D01*
X59677069Y-120545965D01*
X59625501Y-120574588D01*
X59602413Y-120594408D01*
X59589887Y-120603852D01*
X59564485Y-120620594D01*
X59564478Y-120620600D01*
X59522774Y-120662303D01*
X59515869Y-120668703D01*
X59471102Y-120707136D01*
X59452480Y-120731193D01*
X59442108Y-120742969D01*
X56846899Y-123338181D01*
X56785576Y-123371666D01*
X56759218Y-123374500D01*
X56636623Y-123374500D01*
X56569584Y-123354815D01*
X56523829Y-123302011D01*
X56513885Y-123232853D01*
X56542910Y-123169297D01*
X56545392Y-123166518D01*
X56545953Y-123165907D01*
X56561164Y-123149385D01*
X56697173Y-122941207D01*
X56797063Y-122713481D01*
X56858108Y-122472421D01*
X56863881Y-122402757D01*
X56878643Y-122224605D01*
X56878643Y-122224594D01*
X56858109Y-121976787D01*
X56858107Y-121976775D01*
X56797063Y-121735718D01*
X56697173Y-121507993D01*
X56561166Y-121299817D01*
X56504426Y-121238181D01*
X56392744Y-121116862D01*
X56196509Y-120964126D01*
X56196507Y-120964125D01*
X56196506Y-120964124D01*
X55977811Y-120845772D01*
X55977802Y-120845769D01*
X55742616Y-120765029D01*
X55497335Y-120724100D01*
X55248665Y-120724100D01*
X55003383Y-120765029D01*
X54768197Y-120845769D01*
X54768188Y-120845772D01*
X54549493Y-120964124D01*
X54353257Y-121116861D01*
X54184833Y-121299817D01*
X54048826Y-121507993D01*
X53948936Y-121735718D01*
X53887892Y-121976775D01*
X53887890Y-121976787D01*
X53867357Y-122224594D01*
X53867357Y-122224605D01*
X53887890Y-122472412D01*
X53887892Y-122472424D01*
X53948936Y-122713481D01*
X54048826Y-122941206D01*
X54184833Y-123149382D01*
X54200608Y-123166518D01*
X54231529Y-123229173D01*
X54223668Y-123298599D01*
X54179521Y-123352754D01*
X54113103Y-123374444D01*
X54109377Y-123374500D01*
X54064262Y-123374500D01*
X54061121Y-123374460D01*
X54059900Y-123374429D01*
X53973639Y-123372242D01*
X53973635Y-123372242D01*
X53915578Y-123382648D01*
X53906252Y-123383956D01*
X53847564Y-123389925D01*
X53847562Y-123389926D01*
X53818526Y-123399035D01*
X53803290Y-123402774D01*
X53773350Y-123408141D01*
X53773349Y-123408141D01*
X53718567Y-123430022D01*
X53709698Y-123433179D01*
X53653414Y-123450840D01*
X53653410Y-123450842D01*
X53626811Y-123465605D01*
X53612638Y-123472336D01*
X53584382Y-123483623D01*
X53584378Y-123483625D01*
X53535122Y-123516086D01*
X53527069Y-123520965D01*
X53475501Y-123549588D01*
X53452413Y-123569408D01*
X53439887Y-123578852D01*
X53414485Y-123595594D01*
X53414478Y-123595600D01*
X53372774Y-123637303D01*
X53365869Y-123643703D01*
X53321102Y-123682136D01*
X53302480Y-123706193D01*
X53292108Y-123717969D01*
X51690145Y-125319933D01*
X51687897Y-125322125D01*
X51629375Y-125377757D01*
X51624446Y-125382442D01*
X51590745Y-125430861D01*
X51585074Y-125438382D01*
X51547802Y-125484092D01*
X51547798Y-125484098D01*
X51533709Y-125511068D01*
X51525582Y-125524483D01*
X51508202Y-125549455D01*
X51484938Y-125603665D01*
X51480898Y-125612172D01*
X51453590Y-125664451D01*
X51453590Y-125664452D01*
X51445220Y-125693701D01*
X51439959Y-125708479D01*
X51427959Y-125736443D01*
X51416088Y-125794211D01*
X51413842Y-125803360D01*
X51397613Y-125860077D01*
X51395302Y-125890426D01*
X51393122Y-125905966D01*
X51387000Y-125935758D01*
X51387000Y-125994740D01*
X51386642Y-126004156D01*
X51382162Y-126062974D01*
X51384977Y-126085076D01*
X51385289Y-126087525D01*
X51386006Y-126093149D01*
X51387000Y-126108817D01*
X51387000Y-139819601D01*
X51368540Y-139884695D01*
X51340186Y-139930666D01*
X51285001Y-140097203D01*
X51285001Y-140097204D01*
X51285000Y-140097204D01*
X51274500Y-140199983D01*
X51274500Y-143150001D01*
X51274501Y-143150018D01*
X51285000Y-143252796D01*
X51285001Y-143252799D01*
X51340185Y-143419331D01*
X51340187Y-143419336D01*
X51368539Y-143465301D01*
X51387000Y-143530398D01*
X51387000Y-144463000D01*
X51367315Y-144530039D01*
X51314511Y-144575794D01*
X51263001Y-144587000D01*
X51074999Y-144587000D01*
X51074980Y-144587001D01*
X50972203Y-144597500D01*
X50972200Y-144597501D01*
X50805668Y-144652685D01*
X50805663Y-144652687D01*
X50656342Y-144744789D01*
X50532289Y-144868842D01*
X50440187Y-145018163D01*
X50440186Y-145018166D01*
X50385001Y-145184703D01*
X50385001Y-145184704D01*
X50385000Y-145184704D01*
X50374500Y-145287483D01*
X50374500Y-146112501D01*
X39625500Y-146112501D01*
X39625499Y-145474992D01*
X39614999Y-145372203D01*
X39559814Y-145205666D01*
X39467712Y-145056344D01*
X39343656Y-144932288D01*
X39199169Y-144843168D01*
X39194336Y-144840187D01*
X39194331Y-144840185D01*
X39192862Y-144839698D01*
X39027797Y-144785001D01*
X39027795Y-144785000D01*
X38925016Y-144774500D01*
X38925009Y-144774500D01*
X38574500Y-144774500D01*
X38507461Y-144754815D01*
X38461706Y-144702011D01*
X38450500Y-144650500D01*
X38450500Y-142799500D01*
X38470185Y-142732461D01*
X38522989Y-142686706D01*
X38574500Y-142675500D01*
X45225501Y-142675500D01*
X45292540Y-142695185D01*
X45338295Y-142747989D01*
X45349501Y-142799500D01*
X45349501Y-143150018D01*
X45360000Y-143252796D01*
X45360001Y-143252799D01*
X45415185Y-143419331D01*
X45415187Y-143419336D01*
X45450069Y-143475888D01*
X45507288Y-143568656D01*
X45631344Y-143692712D01*
X45780666Y-143784814D01*
X45947203Y-143839999D01*
X46049991Y-143850500D01*
X46875008Y-143850499D01*
X46875016Y-143850498D01*
X46875019Y-143850498D01*
X46931302Y-143844748D01*
X46977797Y-143839999D01*
X47144334Y-143784814D01*
X47293656Y-143692712D01*
X47417712Y-143568656D01*
X47509814Y-143419334D01*
X47564999Y-143252797D01*
X47575500Y-143150009D01*
X47575499Y-140199992D01*
X47564999Y-140097203D01*
X47509814Y-139930666D01*
X47417712Y-139781344D01*
X47293656Y-139657288D01*
X47169404Y-139580649D01*
X47144336Y-139565187D01*
X47144331Y-139565185D01*
X47099936Y-139550474D01*
X46977797Y-139510001D01*
X46977795Y-139510000D01*
X46875010Y-139499500D01*
X46049998Y-139499500D01*
X46049980Y-139499501D01*
X45947203Y-139510000D01*
X45947200Y-139510001D01*
X45780668Y-139565185D01*
X45780663Y-139565187D01*
X45631342Y-139657289D01*
X45507289Y-139781342D01*
X45415187Y-139930663D01*
X45415186Y-139930666D01*
X45360001Y-140097203D01*
X45360001Y-140097204D01*
X45360000Y-140097204D01*
X45349500Y-140199983D01*
X45349500Y-140550500D01*
X45329815Y-140617539D01*
X45277011Y-140663294D01*
X45225500Y-140674500D01*
X38574500Y-140674500D01*
X38507461Y-140654815D01*
X38461706Y-140602011D01*
X38450500Y-140550500D01*
X38450500Y-137042587D01*
X38470185Y-136975548D01*
X38498338Y-136944733D01*
X38518616Y-136928950D01*
X38642744Y-136832338D01*
X38811164Y-136649385D01*
X38947173Y-136441207D01*
X39047063Y-136213481D01*
X39108108Y-135972421D01*
X39128643Y-135724600D01*
X39128419Y-135721898D01*
X39108109Y-135476787D01*
X39108107Y-135476775D01*
X39047063Y-135235718D01*
X38947173Y-135007993D01*
X38811166Y-134799817D01*
X38741928Y-134724605D01*
X40117357Y-134724605D01*
X40137890Y-134972412D01*
X40137892Y-134972424D01*
X40198936Y-135213481D01*
X40298826Y-135441206D01*
X40434833Y-135649382D01*
X40434836Y-135649385D01*
X40603256Y-135832338D01*
X40799491Y-135985074D01*
X40799493Y-135985075D01*
X40991272Y-136088861D01*
X41018190Y-136103428D01*
X41253386Y-136184171D01*
X41498665Y-136225100D01*
X41747335Y-136225100D01*
X41992614Y-136184171D01*
X42227810Y-136103428D01*
X42446509Y-135985074D01*
X42642744Y-135832338D01*
X42811164Y-135649385D01*
X42947173Y-135441207D01*
X43047063Y-135213481D01*
X43108108Y-134972421D01*
X43108109Y-134972412D01*
X43128643Y-134724605D01*
X43128643Y-134724594D01*
X43108109Y-134476787D01*
X43108107Y-134476775D01*
X43047063Y-134235718D01*
X42947173Y-134007993D01*
X42811166Y-133799817D01*
X42789557Y-133776344D01*
X42642744Y-133616862D01*
X42446509Y-133464126D01*
X42446507Y-133464125D01*
X42446506Y-133464124D01*
X42227811Y-133345772D01*
X42227802Y-133345769D01*
X41992616Y-133265029D01*
X41747335Y-133224100D01*
X41498665Y-133224100D01*
X41253383Y-133265029D01*
X41018197Y-133345769D01*
X41018188Y-133345772D01*
X40799493Y-133464124D01*
X40603257Y-133616861D01*
X40434833Y-133799817D01*
X40298826Y-134007993D01*
X40198936Y-134235718D01*
X40137892Y-134476775D01*
X40137890Y-134476787D01*
X40117357Y-134724594D01*
X40117357Y-134724605D01*
X38741928Y-134724605D01*
X38642744Y-134616862D01*
X38446509Y-134464126D01*
X38446507Y-134464125D01*
X38446506Y-134464124D01*
X38227811Y-134345772D01*
X38227802Y-134345769D01*
X37992616Y-134265029D01*
X37747335Y-134224100D01*
X37498665Y-134224100D01*
X37253383Y-134265029D01*
X37018197Y-134345769D01*
X37018188Y-134345772D01*
X36799493Y-134464124D01*
X36603257Y-134616861D01*
X36434833Y-134799817D01*
X36298826Y-135007993D01*
X36198936Y-135235718D01*
X36137892Y-135476775D01*
X36137890Y-135476787D01*
X36117357Y-135724594D01*
X36117357Y-135724605D01*
X36137890Y-135972412D01*
X36137892Y-135972424D01*
X36198936Y-136213481D01*
X36298825Y-136441203D01*
X36298827Y-136441207D01*
X36429310Y-136640927D01*
X36449496Y-136707813D01*
X36449500Y-136708745D01*
X36449500Y-141646499D01*
X36449341Y-141652779D01*
X36445631Y-141725935D01*
X36445631Y-141725936D01*
X36448070Y-141741857D01*
X36449500Y-141760633D01*
X36449500Y-144650500D01*
X36429815Y-144717539D01*
X36377011Y-144763294D01*
X36325500Y-144774500D01*
X35974998Y-144774500D01*
X35974980Y-144774501D01*
X35872203Y-144785000D01*
X35872200Y-144785001D01*
X35705668Y-144840185D01*
X35705663Y-144840187D01*
X35556342Y-144932289D01*
X35432289Y-145056342D01*
X35340187Y-145205663D01*
X35340186Y-145205666D01*
X35285001Y-145372203D01*
X35285001Y-145372204D01*
X35285000Y-145372204D01*
X35274500Y-145474983D01*
X35274500Y-146285217D01*
X35254815Y-146352256D01*
X35202011Y-146398011D01*
X35132853Y-146407955D01*
X35069297Y-146378930D01*
X35062819Y-146372898D01*
X24411819Y-135721898D01*
X24378334Y-135660575D01*
X24375500Y-135634217D01*
X24375500Y-134724605D01*
X32117357Y-134724605D01*
X32137890Y-134972412D01*
X32137892Y-134972424D01*
X32198936Y-135213481D01*
X32298826Y-135441206D01*
X32434833Y-135649382D01*
X32434836Y-135649385D01*
X32603256Y-135832338D01*
X32799491Y-135985074D01*
X32799493Y-135985075D01*
X32991272Y-136088861D01*
X33018190Y-136103428D01*
X33253386Y-136184171D01*
X33498665Y-136225100D01*
X33747335Y-136225100D01*
X33992614Y-136184171D01*
X34227810Y-136103428D01*
X34446509Y-135985074D01*
X34642744Y-135832338D01*
X34811164Y-135649385D01*
X34947173Y-135441207D01*
X35047063Y-135213481D01*
X35108108Y-134972421D01*
X35108109Y-134972412D01*
X35128643Y-134724605D01*
X35128643Y-134724594D01*
X35108109Y-134476787D01*
X35108107Y-134476775D01*
X35047063Y-134235718D01*
X34947173Y-134007993D01*
X34811166Y-133799817D01*
X34789557Y-133776344D01*
X34642744Y-133616862D01*
X34446509Y-133464126D01*
X34446507Y-133464125D01*
X34446506Y-133464124D01*
X34227811Y-133345772D01*
X34227802Y-133345769D01*
X33992616Y-133265029D01*
X33747335Y-133224100D01*
X33498665Y-133224100D01*
X33253383Y-133265029D01*
X33018197Y-133345769D01*
X33018188Y-133345772D01*
X32799493Y-133464124D01*
X32603257Y-133616861D01*
X32434833Y-133799817D01*
X32298826Y-134007993D01*
X32198936Y-134235718D01*
X32137892Y-134476775D01*
X32137890Y-134476787D01*
X32117357Y-134724594D01*
X32117357Y-134724605D01*
X24375500Y-134724605D01*
X24375500Y-131224605D01*
X30367357Y-131224605D01*
X30387890Y-131472412D01*
X30387892Y-131472424D01*
X30448936Y-131713481D01*
X30548826Y-131941206D01*
X30684833Y-132149382D01*
X30684836Y-132149385D01*
X30853256Y-132332338D01*
X31049491Y-132485074D01*
X31268190Y-132603428D01*
X31503386Y-132684171D01*
X31748665Y-132725100D01*
X31997335Y-132725100D01*
X32242614Y-132684171D01*
X32477810Y-132603428D01*
X32696509Y-132485074D01*
X32892744Y-132332338D01*
X33061164Y-132149385D01*
X33197173Y-131941207D01*
X33297063Y-131713481D01*
X33358108Y-131472421D01*
X33378643Y-131224605D01*
X41867357Y-131224605D01*
X41887890Y-131472412D01*
X41887892Y-131472424D01*
X41948936Y-131713481D01*
X42048826Y-131941206D01*
X42184833Y-132149382D01*
X42184836Y-132149385D01*
X42353256Y-132332338D01*
X42549491Y-132485074D01*
X42768190Y-132603428D01*
X43003386Y-132684171D01*
X43248665Y-132725100D01*
X43497335Y-132725100D01*
X43742614Y-132684171D01*
X43977810Y-132603428D01*
X44196509Y-132485074D01*
X44392744Y-132332338D01*
X44561164Y-132149385D01*
X44697173Y-131941207D01*
X44797063Y-131713481D01*
X44858108Y-131472421D01*
X44878643Y-131224600D01*
X44858108Y-130976779D01*
X44797063Y-130735719D01*
X44697173Y-130507993D01*
X44561166Y-130299817D01*
X44539557Y-130276344D01*
X44392744Y-130116862D01*
X44196509Y-129964126D01*
X44196507Y-129964125D01*
X44196506Y-129964124D01*
X43977811Y-129845772D01*
X43977802Y-129845769D01*
X43742616Y-129765029D01*
X43497335Y-129724100D01*
X43248665Y-129724100D01*
X43003383Y-129765029D01*
X42768197Y-129845769D01*
X42768188Y-129845772D01*
X42549493Y-129964124D01*
X42353257Y-130116861D01*
X42184833Y-130299817D01*
X42048826Y-130507993D01*
X41948936Y-130735718D01*
X41887892Y-130976775D01*
X41887890Y-130976787D01*
X41867357Y-131224594D01*
X41867357Y-131224605D01*
X33378643Y-131224605D01*
X33378643Y-131224600D01*
X33358108Y-130976779D01*
X33297063Y-130735719D01*
X33197173Y-130507993D01*
X33061166Y-130299817D01*
X33039557Y-130276344D01*
X32892744Y-130116862D01*
X32696509Y-129964126D01*
X32696507Y-129964125D01*
X32696506Y-129964124D01*
X32477811Y-129845772D01*
X32477802Y-129845769D01*
X32242616Y-129765029D01*
X31997335Y-129724100D01*
X31748665Y-129724100D01*
X31503383Y-129765029D01*
X31268197Y-129845769D01*
X31268188Y-129845772D01*
X31049493Y-129964124D01*
X30853257Y-130116861D01*
X30684833Y-130299817D01*
X30548826Y-130507993D01*
X30448936Y-130735718D01*
X30387892Y-130976775D01*
X30387890Y-130976787D01*
X30367357Y-131224594D01*
X30367357Y-131224605D01*
X24375500Y-131224605D01*
X24375500Y-125499500D01*
X24395185Y-125432461D01*
X24447989Y-125386706D01*
X24499500Y-125375500D01*
X30802158Y-125375500D01*
X30869197Y-125395185D01*
X30914952Y-125447989D01*
X30924896Y-125517147D01*
X30895871Y-125580703D01*
X30878321Y-125597353D01*
X30853258Y-125616860D01*
X30684833Y-125799817D01*
X30548826Y-126007993D01*
X30448936Y-126235718D01*
X30387892Y-126476775D01*
X30387890Y-126476787D01*
X30367357Y-126724594D01*
X30367357Y-126724605D01*
X30387890Y-126972412D01*
X30387892Y-126972424D01*
X30448936Y-127213481D01*
X30548826Y-127441206D01*
X30684833Y-127649382D01*
X30684836Y-127649385D01*
X30853256Y-127832338D01*
X31049491Y-127985074D01*
X31268190Y-128103428D01*
X31503386Y-128184171D01*
X31748665Y-128225100D01*
X31997335Y-128225100D01*
X32242614Y-128184171D01*
X32477810Y-128103428D01*
X32696509Y-127985074D01*
X32892744Y-127832338D01*
X33061164Y-127649385D01*
X33197173Y-127441207D01*
X33297063Y-127213481D01*
X33358108Y-126972421D01*
X33378643Y-126724600D01*
X34867473Y-126724600D01*
X34887563Y-127056736D01*
X34887563Y-127056741D01*
X34887564Y-127056742D01*
X34947544Y-127384041D01*
X34947545Y-127384045D01*
X34947546Y-127384049D01*
X35046530Y-127701704D01*
X35046534Y-127701716D01*
X35046537Y-127701723D01*
X35183102Y-128005157D01*
X35291320Y-128184171D01*
X35355251Y-128289926D01*
X35560460Y-128551855D01*
X35795744Y-128787139D01*
X36057673Y-128992348D01*
X36057678Y-128992351D01*
X36057682Y-128992354D01*
X36342443Y-129164498D01*
X36645877Y-129301063D01*
X36645890Y-129301067D01*
X36645895Y-129301069D01*
X36857665Y-129367058D01*
X36963559Y-129400056D01*
X37290858Y-129460036D01*
X37539894Y-129475100D01*
X37539907Y-129475100D01*
X37706093Y-129475100D01*
X37706106Y-129475100D01*
X37955142Y-129460036D01*
X38282441Y-129400056D01*
X38600123Y-129301063D01*
X38903557Y-129164498D01*
X39188318Y-128992354D01*
X39450252Y-128787142D01*
X39685542Y-128551852D01*
X39890754Y-128289918D01*
X40062898Y-128005157D01*
X40199463Y-127701723D01*
X40298456Y-127384041D01*
X40358436Y-127056742D01*
X40378527Y-126724605D01*
X41867357Y-126724605D01*
X41887890Y-126972412D01*
X41887892Y-126972424D01*
X41948936Y-127213481D01*
X42048826Y-127441206D01*
X42184833Y-127649382D01*
X42184836Y-127649385D01*
X42353256Y-127832338D01*
X42549491Y-127985074D01*
X42768190Y-128103428D01*
X43003386Y-128184171D01*
X43248665Y-128225100D01*
X43497335Y-128225100D01*
X43742614Y-128184171D01*
X43977810Y-128103428D01*
X44196509Y-127985074D01*
X44392744Y-127832338D01*
X44561164Y-127649385D01*
X44697173Y-127441207D01*
X44797063Y-127213481D01*
X44858108Y-126972421D01*
X44878643Y-126724600D01*
X44858108Y-126476779D01*
X44836755Y-126392458D01*
X44797063Y-126235718D01*
X44697173Y-126007993D01*
X44561166Y-125799817D01*
X44512986Y-125747480D01*
X44392744Y-125616862D01*
X44196509Y-125464126D01*
X44196507Y-125464125D01*
X44196506Y-125464124D01*
X43977811Y-125345772D01*
X43977802Y-125345769D01*
X43742616Y-125265029D01*
X43497335Y-125224100D01*
X43248665Y-125224100D01*
X43003383Y-125265029D01*
X42768197Y-125345769D01*
X42768188Y-125345772D01*
X42549493Y-125464124D01*
X42353257Y-125616861D01*
X42184833Y-125799817D01*
X42048826Y-126007993D01*
X41948936Y-126235718D01*
X41887892Y-126476775D01*
X41887890Y-126476787D01*
X41867357Y-126724594D01*
X41867357Y-126724605D01*
X40378527Y-126724605D01*
X40378527Y-126724600D01*
X40358436Y-126392458D01*
X40298456Y-126065159D01*
X40246449Y-125898262D01*
X40199469Y-125747495D01*
X40199467Y-125747490D01*
X40199463Y-125747477D01*
X40062898Y-125444043D01*
X39890754Y-125159282D01*
X39890751Y-125159278D01*
X39890748Y-125159273D01*
X39685539Y-124897344D01*
X39450255Y-124662060D01*
X39188326Y-124456851D01*
X39114059Y-124411955D01*
X38903557Y-124284702D01*
X38600123Y-124148137D01*
X38600116Y-124148134D01*
X38600104Y-124148130D01*
X38282449Y-124049146D01*
X38282445Y-124049145D01*
X38282441Y-124049144D01*
X37955142Y-123989164D01*
X37955141Y-123989163D01*
X37955136Y-123989163D01*
X37706114Y-123974100D01*
X37706106Y-123974100D01*
X37539894Y-123974100D01*
X37539885Y-123974100D01*
X37290863Y-123989163D01*
X37290858Y-123989164D01*
X36963559Y-124049144D01*
X36963556Y-124049144D01*
X36963550Y-124049146D01*
X36645895Y-124148130D01*
X36645879Y-124148136D01*
X36645877Y-124148137D01*
X36342443Y-124284702D01*
X36321726Y-124297226D01*
X36057673Y-124456851D01*
X35795744Y-124662060D01*
X35560460Y-124897344D01*
X35355251Y-125159273D01*
X35245294Y-125341165D01*
X35188735Y-125434726D01*
X35183101Y-125444045D01*
X35183100Y-125444047D01*
X35169645Y-125473943D01*
X35051504Y-125736442D01*
X35046536Y-125747480D01*
X35046530Y-125747495D01*
X34947546Y-126065150D01*
X34947544Y-126065156D01*
X34947544Y-126065159D01*
X34931428Y-126153102D01*
X34887563Y-126392463D01*
X34867473Y-126724600D01*
X33378643Y-126724600D01*
X33358108Y-126476779D01*
X33336755Y-126392458D01*
X33297063Y-126235718D01*
X33197173Y-126007993D01*
X33061166Y-125799817D01*
X33012986Y-125747480D01*
X32892744Y-125616862D01*
X32867679Y-125597353D01*
X32826866Y-125540642D01*
X32823193Y-125470869D01*
X32857824Y-125410186D01*
X32919766Y-125377860D01*
X32943842Y-125375500D01*
X33910721Y-125375500D01*
X33913863Y-125375540D01*
X34001358Y-125377757D01*
X34001358Y-125377756D01*
X34001363Y-125377757D01*
X34059425Y-125367349D01*
X34068754Y-125366041D01*
X34127438Y-125360074D01*
X34156471Y-125350964D01*
X34171700Y-125347226D01*
X34201653Y-125341858D01*
X34201657Y-125341856D01*
X34201659Y-125341856D01*
X34256423Y-125319980D01*
X34265292Y-125316821D01*
X34321588Y-125299159D01*
X34348200Y-125284387D01*
X34362362Y-125277662D01*
X34390617Y-125266377D01*
X34439879Y-125233909D01*
X34447910Y-125229043D01*
X34499502Y-125200409D01*
X34499509Y-125200402D01*
X34499512Y-125200401D01*
X34522583Y-125180594D01*
X34535125Y-125171137D01*
X34538656Y-125168810D01*
X34560519Y-125154402D01*
X34602237Y-125112682D01*
X34609122Y-125106301D01*
X34653895Y-125067866D01*
X34672520Y-125043802D01*
X34682880Y-125032039D01*
X37490316Y-122224605D01*
X41867357Y-122224605D01*
X41887890Y-122472412D01*
X41887892Y-122472424D01*
X41948936Y-122713481D01*
X42048826Y-122941206D01*
X42184833Y-123149382D01*
X42184836Y-123149385D01*
X42353256Y-123332338D01*
X42549491Y-123485074D01*
X42592743Y-123508481D01*
X42751546Y-123594421D01*
X42768190Y-123603428D01*
X43003386Y-123684171D01*
X43248665Y-123725100D01*
X43497335Y-123725100D01*
X43742614Y-123684171D01*
X43977810Y-123603428D01*
X44196509Y-123485074D01*
X44392744Y-123332338D01*
X44561164Y-123149385D01*
X44697173Y-122941207D01*
X44797063Y-122713481D01*
X44858108Y-122472421D01*
X44863881Y-122402757D01*
X44878643Y-122224605D01*
X44878643Y-122224594D01*
X44858109Y-121976787D01*
X44858107Y-121976775D01*
X44797063Y-121735718D01*
X44697173Y-121507993D01*
X44561166Y-121299817D01*
X44504426Y-121238181D01*
X44392744Y-121116862D01*
X44196509Y-120964126D01*
X44196507Y-120964125D01*
X44196506Y-120964124D01*
X43977811Y-120845772D01*
X43977802Y-120845769D01*
X43742616Y-120765029D01*
X43497335Y-120724100D01*
X43248665Y-120724100D01*
X43003383Y-120765029D01*
X42768197Y-120845769D01*
X42768188Y-120845772D01*
X42549493Y-120964124D01*
X42353257Y-121116861D01*
X42184833Y-121299817D01*
X42048826Y-121507993D01*
X41948936Y-121735718D01*
X41887892Y-121976775D01*
X41887890Y-121976787D01*
X41867357Y-122224594D01*
X41867357Y-122224605D01*
X37490316Y-122224605D01*
X37528102Y-122186819D01*
X37589425Y-122153334D01*
X37615783Y-122150500D01*
X39183321Y-122150500D01*
X39186463Y-122150540D01*
X39273958Y-122152757D01*
X39273958Y-122152756D01*
X39273963Y-122152757D01*
X39332025Y-122142349D01*
X39341354Y-122141041D01*
X39400038Y-122135074D01*
X39429071Y-122125964D01*
X39444300Y-122122226D01*
X39474253Y-122116858D01*
X39474257Y-122116856D01*
X39474259Y-122116856D01*
X39529023Y-122094980D01*
X39537892Y-122091821D01*
X39594188Y-122074159D01*
X39620800Y-122059387D01*
X39634962Y-122052662D01*
X39663217Y-122041377D01*
X39712479Y-122008909D01*
X39720510Y-122004043D01*
X39772102Y-121975409D01*
X39772109Y-121975402D01*
X39772112Y-121975401D01*
X39795183Y-121955594D01*
X39807725Y-121946137D01*
X39833119Y-121929402D01*
X39874837Y-121887682D01*
X39881722Y-121881301D01*
X39926495Y-121842866D01*
X39945120Y-121818802D01*
X39955480Y-121807039D01*
X41501102Y-120261419D01*
X41562425Y-120227934D01*
X41588783Y-120225100D01*
X41747335Y-120225100D01*
X41992614Y-120184171D01*
X42227810Y-120103428D01*
X42446509Y-119985074D01*
X42642744Y-119832338D01*
X42811164Y-119649385D01*
X42947173Y-119441207D01*
X43047063Y-119213481D01*
X43108108Y-118972421D01*
X43113825Y-118903427D01*
X43128643Y-118724605D01*
X55617357Y-118724605D01*
X55637890Y-118972412D01*
X55637892Y-118972424D01*
X55698936Y-119213481D01*
X55798826Y-119441206D01*
X55934833Y-119649382D01*
X55934836Y-119649385D01*
X56103256Y-119832338D01*
X56299491Y-119985074D01*
X56299493Y-119985075D01*
X56490130Y-120088243D01*
X56518190Y-120103428D01*
X56723861Y-120174035D01*
X56750391Y-120183143D01*
X56753386Y-120184171D01*
X56998665Y-120225100D01*
X57247335Y-120225100D01*
X57492614Y-120184171D01*
X57727810Y-120103428D01*
X57946509Y-119985074D01*
X58142744Y-119832338D01*
X58311164Y-119649385D01*
X58447173Y-119441207D01*
X58547063Y-119213481D01*
X58608108Y-118972421D01*
X58613825Y-118903427D01*
X58628643Y-118724605D01*
X58628643Y-118724594D01*
X58608109Y-118476787D01*
X58608107Y-118476775D01*
X58547063Y-118235718D01*
X58447173Y-118007993D01*
X58311166Y-117799817D01*
X58285938Y-117772412D01*
X58142744Y-117616862D01*
X57946509Y-117464126D01*
X57946507Y-117464125D01*
X57946506Y-117464124D01*
X57727811Y-117345772D01*
X57727802Y-117345769D01*
X57492616Y-117265029D01*
X57247335Y-117224100D01*
X56998665Y-117224100D01*
X56753383Y-117265029D01*
X56518197Y-117345769D01*
X56518188Y-117345772D01*
X56299493Y-117464124D01*
X56103257Y-117616861D01*
X55934833Y-117799817D01*
X55798826Y-118007993D01*
X55698936Y-118235718D01*
X55637892Y-118476775D01*
X55637890Y-118476787D01*
X55617357Y-118724594D01*
X55617357Y-118724605D01*
X43128643Y-118724605D01*
X43128643Y-118724594D01*
X43108109Y-118476787D01*
X43108107Y-118476775D01*
X43047063Y-118235718D01*
X42947173Y-118007993D01*
X42811166Y-117799817D01*
X42785938Y-117772412D01*
X42642744Y-117616862D01*
X42446509Y-117464126D01*
X42446507Y-117464125D01*
X42446506Y-117464124D01*
X42227811Y-117345772D01*
X42227802Y-117345769D01*
X41992616Y-117265029D01*
X41747335Y-117224100D01*
X41498665Y-117224100D01*
X41253383Y-117265029D01*
X41018197Y-117345769D01*
X41018188Y-117345772D01*
X40799493Y-117464124D01*
X40603257Y-117616861D01*
X40434833Y-117799817D01*
X40298826Y-118007993D01*
X40198936Y-118235718D01*
X40137892Y-118476775D01*
X40137890Y-118476787D01*
X40117357Y-118724594D01*
X40117357Y-118724600D01*
X40119553Y-118751102D01*
X40105470Y-118819538D01*
X40083657Y-118849021D01*
X38819499Y-120113181D01*
X38758176Y-120146666D01*
X38731818Y-120149500D01*
X37164278Y-120149500D01*
X37161138Y-120149460D01*
X37073637Y-120147243D01*
X37073628Y-120147243D01*
X37015578Y-120157648D01*
X37006252Y-120158956D01*
X36947564Y-120164925D01*
X36947562Y-120164926D01*
X36918526Y-120174035D01*
X36903290Y-120177774D01*
X36873350Y-120183141D01*
X36873341Y-120183143D01*
X36818568Y-120205021D01*
X36809699Y-120208179D01*
X36753415Y-120225840D01*
X36753402Y-120225845D01*
X36726817Y-120240601D01*
X36712644Y-120247332D01*
X36684391Y-120258618D01*
X36684377Y-120258625D01*
X36635121Y-120291087D01*
X36627066Y-120295967D01*
X36575502Y-120324588D01*
X36575499Y-120324590D01*
X36552405Y-120344414D01*
X36539883Y-120353855D01*
X36514482Y-120370598D01*
X36514475Y-120370603D01*
X36472781Y-120412297D01*
X36465874Y-120418698D01*
X36421106Y-120457132D01*
X36421105Y-120457133D01*
X36402480Y-120481194D01*
X36392107Y-120492971D01*
X33546899Y-123338181D01*
X33485576Y-123371666D01*
X33459218Y-123374500D01*
X33136623Y-123374500D01*
X33069584Y-123354815D01*
X33023829Y-123302011D01*
X33013885Y-123232853D01*
X33042910Y-123169297D01*
X33045392Y-123166518D01*
X33045953Y-123165907D01*
X33061164Y-123149385D01*
X33197173Y-122941207D01*
X33297063Y-122713481D01*
X33358108Y-122472421D01*
X33363881Y-122402757D01*
X33378643Y-122224605D01*
X33378643Y-122224594D01*
X33358109Y-121976787D01*
X33358107Y-121976775D01*
X33297063Y-121735718D01*
X33197173Y-121507993D01*
X33061166Y-121299817D01*
X33004426Y-121238181D01*
X32892744Y-121116862D01*
X32696509Y-120964126D01*
X32696507Y-120964125D01*
X32696506Y-120964124D01*
X32477811Y-120845772D01*
X32477802Y-120845769D01*
X32242616Y-120765029D01*
X31997335Y-120724100D01*
X31748665Y-120724100D01*
X31503383Y-120765029D01*
X31268197Y-120845769D01*
X31268188Y-120845772D01*
X31049493Y-120964124D01*
X30853257Y-121116861D01*
X30684833Y-121299817D01*
X30548826Y-121507993D01*
X30448936Y-121735718D01*
X30387892Y-121976775D01*
X30387890Y-121976787D01*
X30367357Y-122224594D01*
X30367357Y-122224605D01*
X30387890Y-122472412D01*
X30387892Y-122472424D01*
X30448936Y-122713481D01*
X30548826Y-122941206D01*
X30684833Y-123149382D01*
X30700608Y-123166518D01*
X30731529Y-123229173D01*
X30723668Y-123298599D01*
X30679521Y-123352754D01*
X30613103Y-123374444D01*
X30609377Y-123374500D01*
X24499500Y-123374500D01*
X24432461Y-123354815D01*
X24386706Y-123302011D01*
X24375500Y-123250500D01*
X24375500Y-118724605D01*
X32117357Y-118724605D01*
X32137890Y-118972412D01*
X32137892Y-118972424D01*
X32198936Y-119213481D01*
X32298826Y-119441206D01*
X32434833Y-119649382D01*
X32434836Y-119649385D01*
X32603256Y-119832338D01*
X32799491Y-119985074D01*
X32799493Y-119985075D01*
X32990130Y-120088243D01*
X33018190Y-120103428D01*
X33223861Y-120174035D01*
X33250391Y-120183143D01*
X33253386Y-120184171D01*
X33498665Y-120225100D01*
X33747335Y-120225100D01*
X33992614Y-120184171D01*
X34227810Y-120103428D01*
X34446509Y-119985074D01*
X34642744Y-119832338D01*
X34811164Y-119649385D01*
X34947173Y-119441207D01*
X35047063Y-119213481D01*
X35108108Y-118972421D01*
X35113825Y-118903427D01*
X35128643Y-118724605D01*
X35128643Y-118724594D01*
X35108109Y-118476787D01*
X35108107Y-118476775D01*
X35047063Y-118235718D01*
X34947173Y-118007993D01*
X34811166Y-117799817D01*
X34785938Y-117772412D01*
X34642744Y-117616862D01*
X34524212Y-117524605D01*
X36206257Y-117524605D01*
X36226790Y-117772412D01*
X36226792Y-117772424D01*
X36287836Y-118013481D01*
X36387726Y-118241206D01*
X36523733Y-118449382D01*
X36523736Y-118449385D01*
X36692156Y-118632338D01*
X36888391Y-118785074D01*
X37107090Y-118903428D01*
X37342286Y-118984171D01*
X37587565Y-119025100D01*
X37836235Y-119025100D01*
X38081514Y-118984171D01*
X38316710Y-118903428D01*
X38535409Y-118785074D01*
X38731644Y-118632338D01*
X38900064Y-118449385D01*
X39036073Y-118241207D01*
X39135963Y-118013481D01*
X39197008Y-117772421D01*
X39217543Y-117524600D01*
X39215530Y-117500309D01*
X39197009Y-117276787D01*
X39197007Y-117276775D01*
X39135963Y-117035718D01*
X39036071Y-116807989D01*
X39020691Y-116784447D01*
X39000503Y-116717557D01*
X39000500Y-116716627D01*
X39000500Y-109724500D01*
X39020185Y-109657461D01*
X39072989Y-109611706D01*
X39124500Y-109600500D01*
X59215500Y-109600500D01*
X59282539Y-109620185D01*
X59328294Y-109672989D01*
X59339500Y-109724500D01*
X59339500Y-116638421D01*
X59339460Y-116641561D01*
X59337243Y-116729062D01*
X59337243Y-116729071D01*
X59347648Y-116787120D01*
X59348956Y-116796448D01*
X59354925Y-116855130D01*
X59354927Y-116855144D01*
X59364033Y-116884168D01*
X59367772Y-116899401D01*
X59373142Y-116929353D01*
X59373142Y-116929355D01*
X59395020Y-116984124D01*
X59398177Y-116992992D01*
X59415841Y-117049288D01*
X59415842Y-117049289D01*
X59415844Y-117049295D01*
X59430603Y-117075885D01*
X59437336Y-117090061D01*
X59448622Y-117118314D01*
X59448627Y-117118324D01*
X59481080Y-117167566D01*
X59485962Y-117175623D01*
X59514588Y-117227198D01*
X59514589Y-117227200D01*
X59514591Y-117227202D01*
X59534410Y-117250288D01*
X59543855Y-117262815D01*
X59560599Y-117288221D01*
X59602299Y-117329921D01*
X59608703Y-117336830D01*
X59647134Y-117381595D01*
X59660593Y-117392013D01*
X59701558Y-117448614D01*
X59708269Y-117500307D01*
X59706258Y-117524594D01*
X59706257Y-117524605D01*
X59726790Y-117772412D01*
X59726792Y-117772424D01*
X59787836Y-118013481D01*
X59887726Y-118241206D01*
X60023733Y-118449382D01*
X60023736Y-118449385D01*
X60192156Y-118632338D01*
X60388391Y-118785074D01*
X60607090Y-118903428D01*
X60842286Y-118984171D01*
X61087565Y-119025100D01*
X61336235Y-119025100D01*
X61581514Y-118984171D01*
X61816710Y-118903428D01*
X62035409Y-118785074D01*
X62231644Y-118632338D01*
X62400064Y-118449385D01*
X62536073Y-118241207D01*
X62635963Y-118013481D01*
X62697008Y-117772421D01*
X62717543Y-117524600D01*
X62715530Y-117500309D01*
X62697009Y-117276787D01*
X62697007Y-117276775D01*
X62635963Y-117035718D01*
X62536073Y-116807993D01*
X62400066Y-116599817D01*
X62378457Y-116576344D01*
X62231644Y-116416862D01*
X62035409Y-116264126D01*
X62035407Y-116264125D01*
X62035406Y-116264124D01*
X61816711Y-116145772D01*
X61816702Y-116145769D01*
X61581517Y-116065029D01*
X61444090Y-116042097D01*
X61381205Y-116011646D01*
X61344766Y-115952032D01*
X61340500Y-115919788D01*
X61340500Y-108628499D01*
X61340659Y-108622219D01*
X61344369Y-108549064D01*
X61341930Y-108533142D01*
X61340500Y-108514366D01*
X61340500Y-105200758D01*
X61360185Y-105133719D01*
X61376819Y-105113077D01*
X61378495Y-105111401D01*
X61508425Y-104925842D01*
X61563002Y-104882217D01*
X61632500Y-104875023D01*
X61694855Y-104906546D01*
X61711575Y-104925842D01*
X61841500Y-105111395D01*
X61841505Y-105111401D01*
X62008599Y-105278495D01*
X62105384Y-105346265D01*
X62202165Y-105414032D01*
X62202167Y-105414033D01*
X62202170Y-105414035D01*
X62416337Y-105513903D01*
X62644592Y-105575063D01*
X62832918Y-105591539D01*
X62879999Y-105595659D01*
X62880000Y-105595659D01*
X62880001Y-105595659D01*
X62919234Y-105592226D01*
X63115408Y-105575063D01*
X63343663Y-105513903D01*
X63557830Y-105414035D01*
X63751401Y-105278495D01*
X63918495Y-105111401D01*
X64048425Y-104925842D01*
X64103002Y-104882217D01*
X64172500Y-104875023D01*
X64234855Y-104906546D01*
X64251575Y-104925842D01*
X64381500Y-105111395D01*
X64381505Y-105111401D01*
X64548599Y-105278495D01*
X64645384Y-105346265D01*
X64742165Y-105414032D01*
X64742167Y-105414033D01*
X64742170Y-105414035D01*
X64956337Y-105513903D01*
X65184592Y-105575063D01*
X65372918Y-105591539D01*
X65419999Y-105595659D01*
X65420000Y-105595659D01*
X65420001Y-105595659D01*
X65459234Y-105592226D01*
X65655408Y-105575063D01*
X65883663Y-105513903D01*
X66097830Y-105414035D01*
X66291401Y-105278495D01*
X66458495Y-105111401D01*
X66588425Y-104925842D01*
X66643002Y-104882217D01*
X66712500Y-104875023D01*
X66774855Y-104906546D01*
X66791575Y-104925842D01*
X66921500Y-105111395D01*
X66921505Y-105111401D01*
X67088599Y-105278495D01*
X67185384Y-105346265D01*
X67282165Y-105414032D01*
X67282167Y-105414033D01*
X67282170Y-105414035D01*
X67496337Y-105513903D01*
X67724592Y-105575063D01*
X67912918Y-105591539D01*
X67959999Y-105595659D01*
X67960000Y-105595659D01*
X67960001Y-105595659D01*
X67999234Y-105592226D01*
X68195408Y-105575063D01*
X68423663Y-105513903D01*
X68637830Y-105414035D01*
X68831401Y-105278495D01*
X68998495Y-105111401D01*
X69128425Y-104925842D01*
X69183002Y-104882217D01*
X69252500Y-104875023D01*
X69314855Y-104906546D01*
X69331575Y-104925842D01*
X69461500Y-105111395D01*
X69461505Y-105111401D01*
X69628599Y-105278495D01*
X69725384Y-105346265D01*
X69822165Y-105414032D01*
X69822167Y-105414033D01*
X69822170Y-105414035D01*
X70036337Y-105513903D01*
X70264592Y-105575063D01*
X70452918Y-105591539D01*
X70499999Y-105595659D01*
X70500000Y-105595659D01*
X70500001Y-105595659D01*
X70539234Y-105592226D01*
X70735408Y-105575063D01*
X70963663Y-105513903D01*
X71177830Y-105414035D01*
X71371401Y-105278495D01*
X71538495Y-105111401D01*
X71668425Y-104925842D01*
X71723002Y-104882217D01*
X71792500Y-104875023D01*
X71854855Y-104906546D01*
X71871575Y-104925842D01*
X72001500Y-105111395D01*
X72001505Y-105111401D01*
X72168599Y-105278495D01*
X72265384Y-105346265D01*
X72362165Y-105414032D01*
X72362167Y-105414033D01*
X72362170Y-105414035D01*
X72576337Y-105513903D01*
X72804592Y-105575063D01*
X72992918Y-105591539D01*
X73039999Y-105595659D01*
X73040000Y-105595659D01*
X73040001Y-105595659D01*
X73079234Y-105592226D01*
X73275408Y-105575063D01*
X73503663Y-105513903D01*
X73717830Y-105414035D01*
X73911401Y-105278495D01*
X74078495Y-105111401D01*
X74208425Y-104925842D01*
X74263002Y-104882217D01*
X74332500Y-104875023D01*
X74394855Y-104906546D01*
X74411575Y-104925842D01*
X74541500Y-105111395D01*
X74541505Y-105111401D01*
X74708599Y-105278495D01*
X74805384Y-105346265D01*
X74902165Y-105414032D01*
X74902167Y-105414033D01*
X74902170Y-105414035D01*
X75116337Y-105513903D01*
X75344592Y-105575063D01*
X75532918Y-105591539D01*
X75579999Y-105595659D01*
X75580000Y-105595659D01*
X75580001Y-105595659D01*
X75619234Y-105592226D01*
X75815408Y-105575063D01*
X76043663Y-105513903D01*
X76257830Y-105414035D01*
X76451401Y-105278495D01*
X76618495Y-105111401D01*
X76748425Y-104925842D01*
X76803002Y-104882217D01*
X76872500Y-104875023D01*
X76934855Y-104906546D01*
X76951575Y-104925842D01*
X77081500Y-105111395D01*
X77081505Y-105111401D01*
X77248599Y-105278495D01*
X77345384Y-105346265D01*
X77442165Y-105414032D01*
X77442167Y-105414033D01*
X77442170Y-105414035D01*
X77656337Y-105513903D01*
X77884592Y-105575063D01*
X78072918Y-105591539D01*
X78119999Y-105595659D01*
X78120000Y-105595659D01*
X78120001Y-105595659D01*
X78159234Y-105592226D01*
X78355408Y-105575063D01*
X78583663Y-105513903D01*
X78797830Y-105414035D01*
X78991401Y-105278495D01*
X79158495Y-105111401D01*
X79288425Y-104925842D01*
X79343002Y-104882217D01*
X79412500Y-104875023D01*
X79474855Y-104906546D01*
X79491575Y-104925842D01*
X79621500Y-105111395D01*
X79621505Y-105111401D01*
X79788599Y-105278495D01*
X79885384Y-105346265D01*
X79982165Y-105414032D01*
X79982167Y-105414033D01*
X79982170Y-105414035D01*
X80196337Y-105513903D01*
X80424592Y-105575063D01*
X80612918Y-105591539D01*
X80659999Y-105595659D01*
X80660000Y-105595659D01*
X80660001Y-105595659D01*
X80699234Y-105592226D01*
X80895408Y-105575063D01*
X81123663Y-105513903D01*
X81337830Y-105414035D01*
X81531401Y-105278495D01*
X81698495Y-105111401D01*
X81828425Y-104925842D01*
X81883002Y-104882217D01*
X81952500Y-104875023D01*
X82014855Y-104906546D01*
X82031575Y-104925842D01*
X82161500Y-105111395D01*
X82161505Y-105111401D01*
X82328599Y-105278495D01*
X82425384Y-105346265D01*
X82522165Y-105414032D01*
X82522167Y-105414033D01*
X82522170Y-105414035D01*
X82736337Y-105513903D01*
X82964592Y-105575063D01*
X83152918Y-105591539D01*
X83199999Y-105595659D01*
X83200000Y-105595659D01*
X83200001Y-105595659D01*
X83239234Y-105592226D01*
X83435408Y-105575063D01*
X83663663Y-105513903D01*
X83877830Y-105414035D01*
X84071401Y-105278495D01*
X84238495Y-105111401D01*
X84368425Y-104925842D01*
X84423002Y-104882217D01*
X84492500Y-104875023D01*
X84554855Y-104906546D01*
X84571575Y-104925842D01*
X84701500Y-105111395D01*
X84701505Y-105111401D01*
X84868599Y-105278495D01*
X84965384Y-105346265D01*
X85062165Y-105414032D01*
X85062167Y-105414033D01*
X85062170Y-105414035D01*
X85276337Y-105513903D01*
X85504592Y-105575063D01*
X85692918Y-105591539D01*
X85739999Y-105595659D01*
X85740000Y-105595659D01*
X85740001Y-105595659D01*
X85779234Y-105592226D01*
X85975408Y-105575063D01*
X86203663Y-105513903D01*
X86417830Y-105414035D01*
X86611401Y-105278495D01*
X86778495Y-105111401D01*
X86908425Y-104925842D01*
X86963002Y-104882217D01*
X87032500Y-104875023D01*
X87094855Y-104906546D01*
X87111575Y-104925842D01*
X87241500Y-105111395D01*
X87241505Y-105111401D01*
X87408599Y-105278495D01*
X87505384Y-105346265D01*
X87602165Y-105414032D01*
X87602167Y-105414033D01*
X87602170Y-105414035D01*
X87816337Y-105513903D01*
X88044592Y-105575063D01*
X88232918Y-105591539D01*
X88279999Y-105595659D01*
X88280000Y-105595659D01*
X88280001Y-105595659D01*
X88319234Y-105592226D01*
X88515408Y-105575063D01*
X88743663Y-105513903D01*
X88957830Y-105414035D01*
X89151401Y-105278495D01*
X89318495Y-105111401D01*
X89448425Y-104925842D01*
X89503002Y-104882217D01*
X89572500Y-104875023D01*
X89634855Y-104906546D01*
X89651575Y-104925842D01*
X89781500Y-105111395D01*
X89781505Y-105111401D01*
X89948599Y-105278495D01*
X90045384Y-105346265D01*
X90142165Y-105414032D01*
X90142167Y-105414033D01*
X90142170Y-105414035D01*
X90356337Y-105513903D01*
X90584592Y-105575063D01*
X90772918Y-105591539D01*
X90819999Y-105595659D01*
X90820000Y-105595659D01*
X90820001Y-105595659D01*
X90859234Y-105592226D01*
X91055408Y-105575063D01*
X91283663Y-105513903D01*
X91497830Y-105414035D01*
X91691401Y-105278495D01*
X91858495Y-105111401D01*
X91988425Y-104925842D01*
X92043002Y-104882217D01*
X92112500Y-104875023D01*
X92174855Y-104906546D01*
X92191575Y-104925842D01*
X92321500Y-105111395D01*
X92321505Y-105111401D01*
X92488599Y-105278495D01*
X92585384Y-105346265D01*
X92682165Y-105414032D01*
X92682167Y-105414033D01*
X92682170Y-105414035D01*
X92896337Y-105513903D01*
X93124592Y-105575063D01*
X93312918Y-105591539D01*
X93359999Y-105595659D01*
X93360000Y-105595659D01*
X93360001Y-105595659D01*
X93399234Y-105592226D01*
X93595408Y-105575063D01*
X93823663Y-105513903D01*
X94037830Y-105414035D01*
X94231401Y-105278495D01*
X94398495Y-105111401D01*
X94528425Y-104925842D01*
X94583002Y-104882217D01*
X94652500Y-104875023D01*
X94714855Y-104906546D01*
X94731575Y-104925842D01*
X94861500Y-105111395D01*
X94861505Y-105111401D01*
X95028599Y-105278495D01*
X95125384Y-105346265D01*
X95222165Y-105414032D01*
X95222167Y-105414033D01*
X95222170Y-105414035D01*
X95436337Y-105513903D01*
X95664592Y-105575063D01*
X95852918Y-105591539D01*
X95899999Y-105595659D01*
X95900000Y-105595659D01*
X95900001Y-105595659D01*
X95939234Y-105592226D01*
X96135408Y-105575063D01*
X96363663Y-105513903D01*
X96577830Y-105414035D01*
X96771401Y-105278495D01*
X96938495Y-105111401D01*
X97068425Y-104925842D01*
X97123002Y-104882217D01*
X97192500Y-104875023D01*
X97254855Y-104906546D01*
X97271575Y-104925842D01*
X97401501Y-105111396D01*
X97401506Y-105111402D01*
X97403181Y-105113077D01*
X97403682Y-105113995D01*
X97404982Y-105115544D01*
X97404670Y-105115805D01*
X97436666Y-105174400D01*
X97439500Y-105200758D01*
X97439500Y-106925721D01*
X97439460Y-106928861D01*
X97437243Y-107016362D01*
X97437243Y-107016371D01*
X97447648Y-107074420D01*
X97448956Y-107083748D01*
X97454925Y-107142430D01*
X97454927Y-107142444D01*
X97464033Y-107171468D01*
X97467772Y-107186701D01*
X97473142Y-107216653D01*
X97473142Y-107216655D01*
X97495020Y-107271424D01*
X97498177Y-107280292D01*
X97515841Y-107336588D01*
X97515842Y-107336589D01*
X97515844Y-107336595D01*
X97530603Y-107363185D01*
X97537336Y-107377361D01*
X97548622Y-107405614D01*
X97548627Y-107405624D01*
X97581080Y-107454866D01*
X97585962Y-107462923D01*
X97614588Y-107514498D01*
X97614589Y-107514500D01*
X97614591Y-107514502D01*
X97634410Y-107537588D01*
X97643855Y-107550115D01*
X97660599Y-107575521D01*
X97702299Y-107617220D01*
X97708704Y-107624131D01*
X97747131Y-107668892D01*
X97747134Y-107668895D01*
X97756108Y-107675841D01*
X97771187Y-107687513D01*
X97782968Y-107697889D01*
X98175081Y-108090002D01*
X98208566Y-108151325D01*
X98211400Y-108177683D01*
X98211400Y-116347571D01*
X98191715Y-116414610D01*
X98178630Y-116431553D01*
X98023736Y-116599814D01*
X97887726Y-116807993D01*
X97787836Y-117035718D01*
X97726792Y-117276775D01*
X97726790Y-117276787D01*
X97706257Y-117524594D01*
X97706257Y-117524605D01*
X97726790Y-117772412D01*
X97726792Y-117772424D01*
X97787836Y-118013481D01*
X97887726Y-118241206D01*
X98023733Y-118449382D01*
X98023736Y-118449385D01*
X98192156Y-118632338D01*
X98388391Y-118785074D01*
X98607090Y-118903428D01*
X98842286Y-118984171D01*
X99087565Y-119025100D01*
X99336235Y-119025100D01*
X99581514Y-118984171D01*
X99816710Y-118903428D01*
X100035409Y-118785074D01*
X100231644Y-118632338D01*
X100400064Y-118449385D01*
X100536073Y-118241207D01*
X100635963Y-118013481D01*
X100697008Y-117772421D01*
X100717543Y-117524600D01*
X100715530Y-117500309D01*
X100697009Y-117276787D01*
X100697007Y-117276775D01*
X100635963Y-117035718D01*
X100536073Y-116807993D01*
X100427338Y-116641561D01*
X100400064Y-116599815D01*
X100394117Y-116593354D01*
X100245170Y-116431553D01*
X100214248Y-116368899D01*
X100212400Y-116347571D01*
X100212400Y-108824500D01*
X100232085Y-108757461D01*
X100284889Y-108711706D01*
X100336400Y-108700500D01*
X120834217Y-108700500D01*
X120901256Y-108720185D01*
X120921898Y-108736819D01*
X121675081Y-109490001D01*
X121708566Y-109551324D01*
X121711400Y-109577682D01*
X121711400Y-116347571D01*
X121691715Y-116414610D01*
X121678630Y-116431553D01*
X121523736Y-116599814D01*
X121387726Y-116807993D01*
X121287836Y-117035718D01*
X121226792Y-117276775D01*
X121226790Y-117276787D01*
X121206257Y-117524594D01*
X121206257Y-117524605D01*
X121226790Y-117772412D01*
X121226792Y-117772424D01*
X121287836Y-118013481D01*
X121387726Y-118241206D01*
X121523733Y-118449382D01*
X121523736Y-118449385D01*
X121692156Y-118632338D01*
X121888391Y-118785074D01*
X122107090Y-118903428D01*
X122342286Y-118984171D01*
X122587565Y-119025100D01*
X122836235Y-119025100D01*
X123081514Y-118984171D01*
X123316710Y-118903428D01*
X123535409Y-118785074D01*
X123731644Y-118632338D01*
X123900064Y-118449385D01*
X124036073Y-118241207D01*
X124135963Y-118013481D01*
X124197008Y-117772421D01*
X124217543Y-117524600D01*
X124215530Y-117500309D01*
X124197009Y-117276787D01*
X124197007Y-117276775D01*
X124135963Y-117035718D01*
X124036073Y-116807993D01*
X123927338Y-116641561D01*
X123900064Y-116599815D01*
X123894117Y-116593354D01*
X123745170Y-116431553D01*
X123714248Y-116368899D01*
X123712400Y-116347571D01*
X123712400Y-109126161D01*
X123712440Y-109123019D01*
X123714657Y-109035541D01*
X123714656Y-109035540D01*
X123714657Y-109035537D01*
X123704249Y-108977473D01*
X123702941Y-108968142D01*
X123696974Y-108909462D01*
X123687863Y-108880424D01*
X123684126Y-108865201D01*
X123678758Y-108835247D01*
X123656874Y-108780462D01*
X123653722Y-108771609D01*
X123636059Y-108715312D01*
X123636058Y-108715311D01*
X123636057Y-108715306D01*
X123621296Y-108688714D01*
X123614559Y-108674529D01*
X123611218Y-108666165D01*
X123603277Y-108646283D01*
X123602139Y-108644557D01*
X123570818Y-108597031D01*
X123565936Y-108588974D01*
X123557385Y-108573568D01*
X123537309Y-108537398D01*
X123517488Y-108514310D01*
X123508044Y-108501785D01*
X123491302Y-108476381D01*
X123449592Y-108434671D01*
X123443200Y-108427775D01*
X123404766Y-108383005D01*
X123380704Y-108364379D01*
X123368926Y-108354005D01*
X122017566Y-107002646D01*
X122015373Y-107000397D01*
X121955061Y-106936949D01*
X121955060Y-106936948D01*
X121955059Y-106936947D01*
X121906640Y-106903246D01*
X121899120Y-106897575D01*
X121853413Y-106860305D01*
X121853406Y-106860301D01*
X121826441Y-106846216D01*
X121813026Y-106838089D01*
X121788049Y-106820705D01*
X121788046Y-106820703D01*
X121788045Y-106820703D01*
X121788041Y-106820701D01*
X121733845Y-106797443D01*
X121725336Y-106793402D01*
X121673057Y-106766094D01*
X121673046Y-106766090D01*
X121643806Y-106757723D01*
X121629021Y-106752459D01*
X121601058Y-106740459D01*
X121543273Y-106728583D01*
X121534127Y-106726338D01*
X121477423Y-106710113D01*
X121453699Y-106708306D01*
X121447072Y-106707801D01*
X121431533Y-106705622D01*
X121401742Y-106699500D01*
X121401741Y-106699500D01*
X121342759Y-106699500D01*
X121333344Y-106699142D01*
X121330643Y-106698936D01*
X121274524Y-106694662D01*
X121244349Y-106698506D01*
X121228682Y-106699500D01*
X99665783Y-106699500D01*
X99598744Y-106679815D01*
X99578102Y-106663181D01*
X99476819Y-106561898D01*
X99443334Y-106500575D01*
X99440500Y-106474217D01*
X99440500Y-105200758D01*
X99460185Y-105133719D01*
X99476819Y-105113077D01*
X99478495Y-105111401D01*
X99614035Y-104917830D01*
X99713903Y-104703663D01*
X99775063Y-104475408D01*
X99795659Y-104240000D01*
X99775063Y-104004592D01*
X99713903Y-103776337D01*
X99614035Y-103562171D01*
X99608425Y-103554158D01*
X99478494Y-103368597D01*
X99476819Y-103366922D01*
X99476315Y-103366000D01*
X99475014Y-103364449D01*
X99475325Y-103364187D01*
X99443334Y-103305599D01*
X99440500Y-103279241D01*
X99440500Y-102660758D01*
X99460185Y-102593719D01*
X99476819Y-102573077D01*
X99477319Y-102572577D01*
X99478495Y-102571401D01*
X99614035Y-102377830D01*
X99713903Y-102163663D01*
X99775063Y-101935408D01*
X99795659Y-101700000D01*
X99775063Y-101464592D01*
X99713903Y-101236337D01*
X99614035Y-101022171D01*
X99576597Y-100968703D01*
X99478494Y-100828597D01*
X99476819Y-100826922D01*
X99476315Y-100826000D01*
X99475014Y-100824449D01*
X99475325Y-100824187D01*
X99443334Y-100765599D01*
X99440500Y-100739241D01*
X99440500Y-100254237D01*
X99440540Y-100251097D01*
X99441411Y-100216711D01*
X99442756Y-100163637D01*
X99432349Y-100105572D01*
X99431042Y-100096253D01*
X99425074Y-100037566D01*
X99425074Y-100037562D01*
X99415965Y-100008532D01*
X99412224Y-99993287D01*
X99406858Y-99963349D01*
X99406858Y-99963347D01*
X99384974Y-99908562D01*
X99381822Y-99899709D01*
X99364159Y-99843412D01*
X99364158Y-99843411D01*
X99364157Y-99843406D01*
X99349396Y-99816814D01*
X99342659Y-99802629D01*
X99331378Y-99774385D01*
X99331375Y-99774380D01*
X99298918Y-99725131D01*
X99294036Y-99717074D01*
X99265409Y-99665498D01*
X99245588Y-99642410D01*
X99236144Y-99629885D01*
X99219402Y-99604481D01*
X99177699Y-99562778D01*
X99171294Y-99555868D01*
X99132866Y-99511105D01*
X99108800Y-99492476D01*
X99097029Y-99482108D01*
X98917565Y-99302645D01*
X98915410Y-99300436D01*
X98855059Y-99236947D01*
X98806635Y-99203243D01*
X98799118Y-99197575D01*
X98753408Y-99160302D01*
X98753406Y-99160301D01*
X98726441Y-99146216D01*
X98713026Y-99138089D01*
X98688049Y-99120705D01*
X98688046Y-99120703D01*
X98688045Y-99120703D01*
X98688041Y-99120701D01*
X98633845Y-99097443D01*
X98625336Y-99093402D01*
X98573057Y-99066094D01*
X98573046Y-99066090D01*
X98543806Y-99057723D01*
X98529021Y-99052459D01*
X98501058Y-99040459D01*
X98443273Y-99028583D01*
X98434127Y-99026338D01*
X98377423Y-99010113D01*
X98353699Y-99008306D01*
X98347072Y-99007801D01*
X98331533Y-99005622D01*
X98301742Y-98999500D01*
X98301741Y-98999500D01*
X98242759Y-98999500D01*
X98233344Y-98999142D01*
X98230643Y-98998936D01*
X98174524Y-98994662D01*
X98144349Y-98998506D01*
X98128682Y-98999500D01*
X60814238Y-98999500D01*
X60811098Y-98999460D01*
X60723637Y-98997244D01*
X60723625Y-98997245D01*
X60665589Y-99007646D01*
X60656265Y-99008954D01*
X60597563Y-99014925D01*
X60597554Y-99014927D01*
X60568528Y-99024034D01*
X60553288Y-99027775D01*
X60523349Y-99033141D01*
X60468567Y-99055022D01*
X60459698Y-99058179D01*
X60403414Y-99075840D01*
X60403410Y-99075842D01*
X60376811Y-99090605D01*
X60362638Y-99097336D01*
X60334382Y-99108623D01*
X60334378Y-99108625D01*
X60285122Y-99141086D01*
X60277069Y-99145965D01*
X60225501Y-99174588D01*
X60202413Y-99194408D01*
X60189887Y-99203852D01*
X60164485Y-99220594D01*
X60164478Y-99220600D01*
X60122775Y-99262302D01*
X60115870Y-99268702D01*
X60071104Y-99307134D01*
X60052479Y-99331195D01*
X60042107Y-99342970D01*
X59642644Y-99742434D01*
X59640397Y-99744626D01*
X59576946Y-99804942D01*
X59543245Y-99853361D01*
X59537574Y-99860882D01*
X59500302Y-99906592D01*
X59500298Y-99906598D01*
X59486209Y-99933568D01*
X59478082Y-99946983D01*
X59460702Y-99971955D01*
X59437438Y-100026165D01*
X59433398Y-100034672D01*
X59406090Y-100086951D01*
X59406090Y-100086952D01*
X59397720Y-100116201D01*
X59392459Y-100130979D01*
X59380459Y-100158943D01*
X59368588Y-100216711D01*
X59366342Y-100225860D01*
X59350113Y-100282577D01*
X59347802Y-100312926D01*
X59345622Y-100328466D01*
X59339500Y-100358258D01*
X59339500Y-100417240D01*
X59339142Y-100426656D01*
X59334662Y-100485474D01*
X59338506Y-100515649D01*
X59339500Y-100531317D01*
X59339500Y-100739241D01*
X59319815Y-100806280D01*
X59303181Y-100826922D01*
X59301505Y-100828597D01*
X59165965Y-101022169D01*
X59165964Y-101022171D01*
X59066098Y-101236335D01*
X59066094Y-101236344D01*
X59004938Y-101464586D01*
X59004936Y-101464596D01*
X58984341Y-101699999D01*
X58984341Y-101700000D01*
X59004936Y-101935403D01*
X59004938Y-101935413D01*
X59066094Y-102163655D01*
X59066096Y-102163659D01*
X59066097Y-102163663D01*
X59134325Y-102309978D01*
X59165965Y-102377830D01*
X59165967Y-102377834D01*
X59259447Y-102511336D01*
X59301501Y-102571396D01*
X59301506Y-102571402D01*
X59303181Y-102573077D01*
X59303682Y-102573995D01*
X59304982Y-102575544D01*
X59304670Y-102575805D01*
X59336666Y-102634400D01*
X59339500Y-102660758D01*
X59339500Y-103279241D01*
X59319815Y-103346280D01*
X59303181Y-103366922D01*
X59301505Y-103368597D01*
X59165965Y-103562169D01*
X59165964Y-103562171D01*
X59066098Y-103776335D01*
X59066094Y-103776344D01*
X59004938Y-104004586D01*
X59004936Y-104004596D01*
X58984341Y-104239999D01*
X58984341Y-104240000D01*
X59004936Y-104475403D01*
X59004938Y-104475413D01*
X59066094Y-104703655D01*
X59066096Y-104703659D01*
X59066097Y-104703663D01*
X59070000Y-104712032D01*
X59165965Y-104917830D01*
X59165967Y-104917834D01*
X59274281Y-105072521D01*
X59301501Y-105111396D01*
X59301506Y-105111402D01*
X59303181Y-105113077D01*
X59303682Y-105113995D01*
X59304982Y-105115544D01*
X59304670Y-105115805D01*
X59336666Y-105174400D01*
X59339500Y-105200758D01*
X59339500Y-107475500D01*
X59319815Y-107542539D01*
X59267011Y-107588294D01*
X59215500Y-107599500D01*
X38514278Y-107599500D01*
X38511138Y-107599460D01*
X38423637Y-107597243D01*
X38423628Y-107597243D01*
X38365578Y-107607648D01*
X38356252Y-107608956D01*
X38297564Y-107614925D01*
X38297562Y-107614926D01*
X38268526Y-107624035D01*
X38253290Y-107627774D01*
X38223350Y-107633141D01*
X38223341Y-107633143D01*
X38168568Y-107655021D01*
X38159699Y-107658179D01*
X38103415Y-107675840D01*
X38103402Y-107675845D01*
X38076817Y-107690601D01*
X38062644Y-107697332D01*
X38034391Y-107708618D01*
X38034377Y-107708625D01*
X37985121Y-107741087D01*
X37977066Y-107745967D01*
X37925502Y-107774588D01*
X37925499Y-107774590D01*
X37902405Y-107794414D01*
X37889883Y-107803855D01*
X37864482Y-107820598D01*
X37864475Y-107820603D01*
X37822781Y-107862297D01*
X37815874Y-107868698D01*
X37771106Y-107907132D01*
X37771105Y-107907133D01*
X37752480Y-107931194D01*
X37742107Y-107942971D01*
X37302646Y-108382432D01*
X37300399Y-108384624D01*
X37236946Y-108444942D01*
X37203245Y-108493361D01*
X37197574Y-108500882D01*
X37160302Y-108546592D01*
X37160298Y-108546598D01*
X37146209Y-108573568D01*
X37138082Y-108586983D01*
X37120702Y-108611955D01*
X37097438Y-108666165D01*
X37093398Y-108674672D01*
X37066090Y-108726951D01*
X37066090Y-108726952D01*
X37057720Y-108756201D01*
X37052459Y-108770979D01*
X37040459Y-108798943D01*
X37028588Y-108856711D01*
X37026342Y-108865860D01*
X37010113Y-108922577D01*
X37007802Y-108952926D01*
X37005622Y-108968466D01*
X36999500Y-108998258D01*
X36999500Y-109057240D01*
X36999142Y-109066656D01*
X36994662Y-109125474D01*
X36998506Y-109155649D01*
X36999500Y-109171317D01*
X36999500Y-116130109D01*
X36979815Y-116197148D01*
X36934520Y-116239161D01*
X36888391Y-116264126D01*
X36888390Y-116264127D01*
X36692157Y-116416861D01*
X36523733Y-116599817D01*
X36387726Y-116807993D01*
X36287836Y-117035718D01*
X36226792Y-117276775D01*
X36226790Y-117276787D01*
X36206257Y-117524594D01*
X36206257Y-117524605D01*
X34524212Y-117524605D01*
X34446509Y-117464126D01*
X34446507Y-117464125D01*
X34446506Y-117464124D01*
X34227811Y-117345772D01*
X34227802Y-117345769D01*
X33992616Y-117265029D01*
X33747335Y-117224100D01*
X33498665Y-117224100D01*
X33253383Y-117265029D01*
X33018197Y-117345769D01*
X33018188Y-117345772D01*
X32799493Y-117464124D01*
X32603257Y-117616861D01*
X32434833Y-117799817D01*
X32298826Y-118007993D01*
X32198936Y-118235718D01*
X32137892Y-118476775D01*
X32137890Y-118476787D01*
X32117357Y-118724594D01*
X32117357Y-118724605D01*
X24375500Y-118724605D01*
X24375500Y-113865783D01*
X24395185Y-113798744D01*
X24411819Y-113778102D01*
X25253102Y-112936819D01*
X25314425Y-112903334D01*
X25340783Y-112900500D01*
X33110721Y-112900500D01*
X33113863Y-112900540D01*
X33201358Y-112902757D01*
X33201358Y-112902756D01*
X33201363Y-112902757D01*
X33259425Y-112892349D01*
X33268754Y-112891041D01*
X33327438Y-112885074D01*
X33356471Y-112875964D01*
X33371700Y-112872226D01*
X33401653Y-112866858D01*
X33401657Y-112866856D01*
X33401659Y-112866856D01*
X33456423Y-112844980D01*
X33465292Y-112841821D01*
X33521588Y-112824159D01*
X33548200Y-112809387D01*
X33562362Y-112802662D01*
X33590617Y-112791377D01*
X33639879Y-112758909D01*
X33647910Y-112754043D01*
X33699502Y-112725409D01*
X33699509Y-112725402D01*
X33699512Y-112725401D01*
X33722583Y-112705594D01*
X33735125Y-112696137D01*
X33760519Y-112679402D01*
X33802237Y-112637682D01*
X33809122Y-112631301D01*
X33853895Y-112592866D01*
X33872520Y-112568802D01*
X33882880Y-112557039D01*
X34747409Y-111692510D01*
X34749578Y-111690395D01*
X34813053Y-111630059D01*
X34846756Y-111581635D01*
X34852405Y-111574142D01*
X34889698Y-111528407D01*
X34903788Y-111501430D01*
X34911909Y-111488026D01*
X34929295Y-111463049D01*
X34952563Y-111408825D01*
X34956582Y-111400361D01*
X34983909Y-111348049D01*
X34992278Y-111318797D01*
X34997538Y-111304023D01*
X35009540Y-111276058D01*
X35021415Y-111218268D01*
X35023649Y-111209162D01*
X35039887Y-111152418D01*
X35042197Y-111122077D01*
X35044376Y-111106535D01*
X35050500Y-111076741D01*
X35050500Y-111017758D01*
X35050858Y-111008342D01*
X35055337Y-110949526D01*
X35051493Y-110919338D01*
X35050500Y-110903674D01*
X35050500Y-103215782D01*
X35070185Y-103148743D01*
X35086819Y-103128101D01*
X35478101Y-102736819D01*
X35539424Y-102703334D01*
X35565782Y-102700500D01*
X53845859Y-102700500D01*
X53912898Y-102720185D01*
X53958653Y-102772989D01*
X53962030Y-102781140D01*
X53966204Y-102792331D01*
X53966205Y-102792332D01*
X53966206Y-102792335D01*
X54052452Y-102907544D01*
X54052455Y-102907547D01*
X54167665Y-102993794D01*
X54167667Y-102993794D01*
X54167669Y-102993796D01*
X54178830Y-102997958D01*
X54234764Y-103039826D01*
X54259184Y-103105289D01*
X54259500Y-103114141D01*
X54259500Y-103279241D01*
X54239815Y-103346280D01*
X54223181Y-103366922D01*
X54221505Y-103368597D01*
X54085965Y-103562169D01*
X54085964Y-103562171D01*
X53986098Y-103776335D01*
X53986094Y-103776344D01*
X53924938Y-104004586D01*
X53924936Y-104004596D01*
X53904341Y-104239999D01*
X53904341Y-104240000D01*
X53924936Y-104475403D01*
X53924938Y-104475413D01*
X53986094Y-104703655D01*
X53986096Y-104703659D01*
X53986097Y-104703663D01*
X53990000Y-104712032D01*
X54085965Y-104917830D01*
X54085967Y-104917834D01*
X54194281Y-105072521D01*
X54221505Y-105111401D01*
X54388599Y-105278495D01*
X54485384Y-105346265D01*
X54582165Y-105414032D01*
X54582167Y-105414033D01*
X54582170Y-105414035D01*
X54796337Y-105513903D01*
X55024592Y-105575063D01*
X55212918Y-105591539D01*
X55259999Y-105595659D01*
X55260000Y-105595659D01*
X55260001Y-105595659D01*
X55299234Y-105592226D01*
X55495408Y-105575063D01*
X55723663Y-105513903D01*
X55937830Y-105414035D01*
X56131401Y-105278495D01*
X56298495Y-105111401D01*
X56434035Y-104917830D01*
X56533903Y-104703663D01*
X56595063Y-104475408D01*
X56615659Y-104240000D01*
X56595063Y-104004592D01*
X56533903Y-103776337D01*
X56434035Y-103562171D01*
X56428425Y-103554158D01*
X56298494Y-103368597D01*
X56296819Y-103366922D01*
X56296315Y-103366000D01*
X56295014Y-103364449D01*
X56295325Y-103364187D01*
X56263334Y-103305599D01*
X56260500Y-103279241D01*
X56260500Y-103114141D01*
X56280185Y-103047102D01*
X56332989Y-103001347D01*
X56341149Y-102997966D01*
X56352331Y-102993796D01*
X56354063Y-102992500D01*
X56446899Y-102923002D01*
X56467546Y-102907546D01*
X56553796Y-102792331D01*
X56604091Y-102657483D01*
X56610500Y-102597873D01*
X56610499Y-100802128D01*
X56604091Y-100742517D01*
X56602869Y-100739241D01*
X56553797Y-100607671D01*
X56553793Y-100607664D01*
X56467547Y-100492455D01*
X56467544Y-100492452D01*
X56352335Y-100406206D01*
X56352328Y-100406202D01*
X56217482Y-100355908D01*
X56217483Y-100355908D01*
X56157883Y-100349501D01*
X56157881Y-100349500D01*
X56157873Y-100349500D01*
X56157864Y-100349500D01*
X54362129Y-100349500D01*
X54362123Y-100349501D01*
X54302516Y-100355908D01*
X54167671Y-100406202D01*
X54167664Y-100406206D01*
X54052455Y-100492452D01*
X54052452Y-100492455D01*
X53966206Y-100607664D01*
X53966204Y-100607668D01*
X53966204Y-100607669D01*
X53962039Y-100618834D01*
X53920171Y-100674766D01*
X53854707Y-100699184D01*
X53845859Y-100699500D01*
X35114238Y-100699500D01*
X35111098Y-100699460D01*
X35023637Y-100697244D01*
X35023625Y-100697245D01*
X34965589Y-100707646D01*
X34956265Y-100708954D01*
X34897563Y-100714925D01*
X34897554Y-100714927D01*
X34868528Y-100724034D01*
X34853288Y-100727775D01*
X34823349Y-100733141D01*
X34768567Y-100755022D01*
X34759698Y-100758179D01*
X34703414Y-100775840D01*
X34703410Y-100775842D01*
X34676811Y-100790605D01*
X34662638Y-100797336D01*
X34634382Y-100808623D01*
X34634378Y-100808625D01*
X34585122Y-100841086D01*
X34577069Y-100845965D01*
X34525501Y-100874588D01*
X34502413Y-100894408D01*
X34489887Y-100903852D01*
X34464485Y-100920594D01*
X34464478Y-100920600D01*
X34422774Y-100962303D01*
X34415869Y-100968703D01*
X34371104Y-101007134D01*
X34352479Y-101031195D01*
X34342107Y-101042970D01*
X33352645Y-102032433D01*
X33350398Y-102034625D01*
X33286946Y-102094942D01*
X33253245Y-102143361D01*
X33247574Y-102150882D01*
X33210302Y-102196592D01*
X33210298Y-102196598D01*
X33196209Y-102223568D01*
X33188082Y-102236983D01*
X33170702Y-102261955D01*
X33147438Y-102316165D01*
X33143398Y-102324672D01*
X33116090Y-102376951D01*
X33116090Y-102376952D01*
X33107720Y-102406201D01*
X33102459Y-102420979D01*
X33090459Y-102448943D01*
X33078588Y-102506711D01*
X33076342Y-102515860D01*
X33060113Y-102572577D01*
X33057802Y-102602926D01*
X33055622Y-102618466D01*
X33049500Y-102648258D01*
X33049500Y-102707240D01*
X33049142Y-102716656D01*
X33044662Y-102775474D01*
X33048506Y-102805649D01*
X33049500Y-102821317D01*
X33049500Y-110509218D01*
X33029815Y-110576257D01*
X33013181Y-110596899D01*
X32746899Y-110863181D01*
X32685576Y-110896666D01*
X32659218Y-110899500D01*
X24889237Y-110899500D01*
X24886097Y-110899460D01*
X24849912Y-110898543D01*
X24798636Y-110897244D01*
X24798635Y-110897244D01*
X24798626Y-110897244D01*
X24740582Y-110907648D01*
X24731253Y-110908957D01*
X24672564Y-110914925D01*
X24643527Y-110924035D01*
X24628288Y-110927775D01*
X24598349Y-110933141D01*
X24543567Y-110955022D01*
X24534698Y-110958179D01*
X24478414Y-110975840D01*
X24478410Y-110975842D01*
X24451811Y-110990605D01*
X24437638Y-110997336D01*
X24409382Y-111008623D01*
X24409378Y-111008625D01*
X24360122Y-111041086D01*
X24352069Y-111045965D01*
X24300501Y-111074588D01*
X24277413Y-111094408D01*
X24264887Y-111103852D01*
X24239485Y-111120594D01*
X24239478Y-111120600D01*
X24197774Y-111162303D01*
X24190869Y-111168703D01*
X24146102Y-111207136D01*
X24127480Y-111231193D01*
X24117108Y-111242969D01*
X22677645Y-112682433D01*
X22675398Y-112684625D01*
X22611946Y-112744942D01*
X22578245Y-112793361D01*
X22572574Y-112800882D01*
X22535302Y-112846592D01*
X22535298Y-112846598D01*
X22521209Y-112873568D01*
X22513082Y-112886983D01*
X22495702Y-112911955D01*
X22472438Y-112966165D01*
X22468398Y-112974672D01*
X22441090Y-113026951D01*
X22441090Y-113026952D01*
X22432720Y-113056201D01*
X22427459Y-113070979D01*
X22415459Y-113098943D01*
X22403588Y-113156711D01*
X22401342Y-113165860D01*
X22385113Y-113222577D01*
X22382802Y-113252926D01*
X22380622Y-113268466D01*
X22374500Y-113298258D01*
X22374500Y-113357240D01*
X22374142Y-113366656D01*
X22369662Y-113425474D01*
X20750500Y-113425474D01*
X20750500Y-103690021D01*
X20770185Y-103622982D01*
X20822989Y-103577227D01*
X20892147Y-103567283D01*
X20955703Y-103596308D01*
X20993477Y-103655086D01*
X20997378Y-103673376D01*
X21022378Y-103857938D01*
X21118313Y-104278258D01*
X21251542Y-104688296D01*
X21251545Y-104688304D01*
X21420985Y-105084730D01*
X21420989Y-105084738D01*
X21625294Y-105464399D01*
X21862799Y-105824207D01*
X21862800Y-105824208D01*
X22131608Y-106161282D01*
X22182223Y-106214221D01*
X24063103Y-104333341D01*
X24175031Y-104470918D01*
X24389990Y-104671676D01*
X24414544Y-104689008D01*
X22536877Y-106566675D01*
X22754227Y-106756569D01*
X22754244Y-106756582D01*
X23103024Y-107009986D01*
X23473140Y-107231120D01*
X23473146Y-107231123D01*
X23861569Y-107418178D01*
X23861583Y-107418184D01*
X24265209Y-107569667D01*
X24265234Y-107569675D01*
X24680816Y-107684369D01*
X25105023Y-107761351D01*
X25534435Y-107799999D01*
X25534438Y-107800000D01*
X25965562Y-107800000D01*
X25965564Y-107799999D01*
X26394976Y-107761351D01*
X26819183Y-107684369D01*
X27234765Y-107569675D01*
X27234790Y-107569667D01*
X27638416Y-107418184D01*
X27638430Y-107418178D01*
X28026853Y-107231123D01*
X28026859Y-107231120D01*
X28396975Y-107009986D01*
X28745755Y-106756582D01*
X28745772Y-106756569D01*
X28963121Y-106566675D01*
X27085455Y-104689008D01*
X27110010Y-104671676D01*
X27324969Y-104470918D01*
X27436895Y-104333342D01*
X29317775Y-106214222D01*
X29317776Y-106214222D01*
X29368386Y-106161289D01*
X29368386Y-106161288D01*
X29637199Y-105824208D01*
X29637200Y-105824207D01*
X29874705Y-105464399D01*
X30079010Y-105084738D01*
X30079014Y-105084730D01*
X30248454Y-104688304D01*
X30248457Y-104688296D01*
X30381686Y-104278258D01*
X30477621Y-103857938D01*
X30535494Y-103430701D01*
X30535495Y-103430692D01*
X30554838Y-103000003D01*
X30554838Y-102999996D01*
X30535495Y-102569307D01*
X30535494Y-102569298D01*
X30477621Y-102142061D01*
X30381686Y-101721741D01*
X30248457Y-101311703D01*
X30248454Y-101311695D01*
X30079014Y-100915269D01*
X30079010Y-100915261D01*
X29874705Y-100535600D01*
X29637200Y-100175792D01*
X29637199Y-100175791D01*
X29368391Y-99838717D01*
X29317774Y-99785776D01*
X27436894Y-101666656D01*
X27324969Y-101529082D01*
X27110010Y-101328324D01*
X27085453Y-101310990D01*
X28963121Y-99433323D01*
X28745772Y-99243430D01*
X28745755Y-99243417D01*
X28396975Y-98990013D01*
X28026859Y-98768879D01*
X28026853Y-98768876D01*
X27638430Y-98581821D01*
X27638416Y-98581815D01*
X27234790Y-98430332D01*
X27234765Y-98430324D01*
X26819183Y-98315630D01*
X26438282Y-98246507D01*
X26375835Y-98215169D01*
X26340244Y-98155043D01*
X26342809Y-98085221D01*
X26382715Y-98027869D01*
X26447294Y-98001197D01*
X26460423Y-98000500D01*
X134039577Y-98000500D01*
X134106616Y-98020185D01*
G37*
%TD.AperFunction*%
%TA.AperFunction,Conductor*%
G36*
X139718547Y-151108056D02*
G01*
X139748090Y-151171373D01*
X139749500Y-151190021D01*
X139749500Y-155375500D01*
X139729815Y-155442539D01*
X139677011Y-155488294D01*
X139625500Y-155499500D01*
X135460423Y-155499500D01*
X135393384Y-155479815D01*
X135347629Y-155427011D01*
X135337685Y-155357853D01*
X135366710Y-155294297D01*
X135425488Y-155256523D01*
X135438282Y-155253493D01*
X135819183Y-155184369D01*
X136234765Y-155069675D01*
X136234790Y-155069667D01*
X136638416Y-154918184D01*
X136638430Y-154918178D01*
X137026853Y-154731123D01*
X137026859Y-154731120D01*
X137396975Y-154509986D01*
X137745755Y-154256582D01*
X137745772Y-154256569D01*
X137963121Y-154066675D01*
X136085455Y-152189008D01*
X136110010Y-152171676D01*
X136324969Y-151970918D01*
X136436895Y-151833342D01*
X138317775Y-153714222D01*
X138317776Y-153714222D01*
X138368386Y-153661289D01*
X138368386Y-153661288D01*
X138637199Y-153324208D01*
X138637200Y-153324207D01*
X138874705Y-152964399D01*
X139079010Y-152584738D01*
X139079014Y-152584730D01*
X139248454Y-152188304D01*
X139248457Y-152188296D01*
X139381686Y-151778258D01*
X139477621Y-151357938D01*
X139502622Y-151173376D01*
X139531128Y-151109586D01*
X139589595Y-151071333D01*
X139659463Y-151070763D01*
X139718547Y-151108056D01*
G37*
%TD.AperFunction*%
%TA.AperFunction,Conductor*%
G36*
X139692539Y-98020185D02*
G01*
X139738294Y-98072989D01*
X139749500Y-98124500D01*
X139749500Y-102309978D01*
X139729815Y-102377017D01*
X139677011Y-102422772D01*
X139607853Y-102432716D01*
X139544297Y-102403691D01*
X139506523Y-102344913D01*
X139502622Y-102326623D01*
X139477621Y-102142061D01*
X139381686Y-101721741D01*
X139248457Y-101311703D01*
X139248454Y-101311695D01*
X139079014Y-100915269D01*
X139079010Y-100915261D01*
X138874705Y-100535600D01*
X138637200Y-100175792D01*
X138637199Y-100175791D01*
X138368391Y-99838717D01*
X138317774Y-99785776D01*
X136436894Y-101666656D01*
X136324969Y-101529082D01*
X136110010Y-101328324D01*
X136085453Y-101310990D01*
X137963121Y-99433323D01*
X137745772Y-99243430D01*
X137745755Y-99243417D01*
X137396975Y-98990013D01*
X137026859Y-98768879D01*
X137026853Y-98768876D01*
X136638430Y-98581821D01*
X136638416Y-98581815D01*
X136234790Y-98430332D01*
X136234765Y-98430324D01*
X135819183Y-98315630D01*
X135438282Y-98246507D01*
X135375835Y-98215169D01*
X135340244Y-98155043D01*
X135342809Y-98085221D01*
X135382715Y-98027869D01*
X135447294Y-98001197D01*
X135460423Y-98000500D01*
X139625500Y-98000500D01*
X139692539Y-98020185D01*
G37*
%TD.AperFunction*%
%TA.AperFunction,Conductor*%
G36*
X25106616Y-98020185D02*
G01*
X25152371Y-98072989D01*
X25162315Y-98142147D01*
X25133290Y-98205703D01*
X25074512Y-98243477D01*
X25061718Y-98246507D01*
X24680816Y-98315630D01*
X24265234Y-98430324D01*
X24265209Y-98430332D01*
X23861583Y-98581815D01*
X23861569Y-98581821D01*
X23473146Y-98768876D01*
X23473140Y-98768879D01*
X23103024Y-98990013D01*
X22754235Y-99243423D01*
X22536877Y-99433322D01*
X22536877Y-99433323D01*
X24414545Y-101310991D01*
X24389990Y-101328324D01*
X24175031Y-101529082D01*
X24063104Y-101666657D01*
X22182223Y-99785777D01*
X22131624Y-99838699D01*
X22131612Y-99838712D01*
X21862800Y-100175791D01*
X21862799Y-100175792D01*
X21625294Y-100535600D01*
X21420989Y-100915261D01*
X21420985Y-100915269D01*
X21251545Y-101311695D01*
X21251542Y-101311703D01*
X21118313Y-101721741D01*
X21022378Y-102142061D01*
X20997378Y-102326623D01*
X20968872Y-102390413D01*
X20910404Y-102428666D01*
X20840537Y-102429236D01*
X20781453Y-102391943D01*
X20751910Y-102328626D01*
X20750500Y-102309978D01*
X20750500Y-98124500D01*
X20770185Y-98057461D01*
X20822989Y-98011706D01*
X20874500Y-98000500D01*
X25039577Y-98000500D01*
X25106616Y-98020185D01*
G37*
%TD.AperFunction*%
%TD*%
M02*
