%TF.GenerationSoftware,KiCad,Pcbnew,7.0.8*%
%TF.CreationDate,2024-09-21T08:52:27-04:00*%
%TF.ProjectId,clock,636c6f63-6b2e-46b6-9963-61645f706362,rev?*%
%TF.SameCoordinates,Original*%
%TF.FileFunction,Copper,L2,Bot*%
%TF.FilePolarity,Positive*%
%FSLAX46Y46*%
G04 Gerber Fmt 4.6, Leading zero omitted, Abs format (unit mm)*
G04 Created by KiCad (PCBNEW 7.0.8) date 2024-09-21 08:52:27*
%MOMM*%
%LPD*%
G01*
G04 APERTURE LIST*
G04 Aperture macros list*
%AMRoundRect*
0 Rectangle with rounded corners*
0 $1 Rounding radius*
0 $2 $3 $4 $5 $6 $7 $8 $9 X,Y pos of 4 corners*
0 Add a 4 corners polygon primitive as box body*
4,1,4,$2,$3,$4,$5,$6,$7,$8,$9,$2,$3,0*
0 Add four circle primitives for the rounded corners*
1,1,$1+$1,$2,$3*
1,1,$1+$1,$4,$5*
1,1,$1+$1,$6,$7*
1,1,$1+$1,$8,$9*
0 Add four rect primitives between the rounded corners*
20,1,$1+$1,$2,$3,$4,$5,0*
20,1,$1+$1,$4,$5,$6,$7,0*
20,1,$1+$1,$6,$7,$8,$9,0*
20,1,$1+$1,$8,$9,$2,$3,0*%
G04 Aperture macros list end*
%TA.AperFunction,ComponentPad*%
%ADD10R,1.800000X1.800000*%
%TD*%
%TA.AperFunction,ComponentPad*%
%ADD11C,1.800000*%
%TD*%
%TA.AperFunction,ComponentPad*%
%ADD12RoundRect,0.250000X0.350000X0.625000X-0.350000X0.625000X-0.350000X-0.625000X0.350000X-0.625000X0*%
%TD*%
%TA.AperFunction,ComponentPad*%
%ADD13O,1.200000X1.750000*%
%TD*%
%TA.AperFunction,ComponentPad*%
%ADD14O,1.700000X1.100000*%
%TD*%
%TA.AperFunction,ViaPad*%
%ADD15C,0.800000*%
%TD*%
%TA.AperFunction,Conductor*%
%ADD16C,0.250000*%
%TD*%
%TA.AperFunction,Conductor*%
%ADD17C,0.500000*%
%TD*%
G04 APERTURE END LIST*
D10*
%TO.P,D105,1,K*%
%TO.N,DIG_1*%
X105151000Y-23870600D03*
D11*
%TO.P,D105,2,A*%
%TO.N,SEG_F*%
X107691000Y-23870600D03*
%TD*%
D10*
%TO.P,D73,1,K*%
%TO.N,DIG_1*%
X143251000Y-46730600D03*
D11*
%TO.P,D73,2,A*%
%TO.N,SEG_B*%
X145791000Y-46730600D03*
%TD*%
D10*
%TO.P,D2,1,K*%
%TO.N,DIG_2*%
X173731000Y-17520600D03*
D11*
%TO.P,D2,2,A*%
%TO.N,SEG_A*%
X173731000Y-14980600D03*
%TD*%
D10*
%TO.P,D92,1,K*%
%TO.N,DIG_3*%
X213101000Y-67050600D03*
D11*
%TO.P,D92,2,A*%
%TO.N,SEG_E*%
X215641000Y-67050600D03*
%TD*%
D10*
%TO.P,D44,1,K*%
%TO.N,DIG_2*%
X164841000Y-31490600D03*
D11*
%TO.P,D44,2,A*%
%TO.N,SEG_F*%
X167381000Y-31490600D03*
%TD*%
D10*
%TO.P,D37,1,K*%
%TO.N,DIG_2*%
X164841000Y-59430600D03*
D11*
%TO.P,D37,2,A*%
%TO.N,SEG_E*%
X167381000Y-59430600D03*
%TD*%
D10*
%TO.P,D6,1,K*%
%TO.N,DIG_2*%
X202941000Y-23870600D03*
D11*
%TO.P,D6,2,A*%
%TO.N,SEG_B*%
X205481000Y-23870600D03*
%TD*%
D10*
%TO.P,D49,1,K*%
%TO.N,DIG_0*%
X56891000Y-23870600D03*
D11*
%TO.P,D49,2,A*%
%TO.N,SEG_F*%
X59431000Y-23870600D03*
%TD*%
D10*
%TO.P,D23,1,K*%
%TO.N,DIG_0*%
X94991000Y-67050600D03*
D11*
%TO.P,D23,2,A*%
%TO.N,SEG_C*%
X97531000Y-67050600D03*
%TD*%
D10*
%TO.P,D28,1,K*%
%TO.N,DIG_2*%
X181351000Y-91180600D03*
D11*
%TO.P,D28,2,A*%
%TO.N,SEG_D*%
X181351000Y-88640600D03*
%TD*%
D10*
%TO.P,D54,1,K*%
%TO.N,DIG_0*%
X65781000Y-54350600D03*
D11*
%TO.P,D54,2,A*%
%TO.N,SEG_G*%
X65781000Y-51810600D03*
%TD*%
D10*
%TO.P,D82,1,K*%
%TO.N,DIG_3*%
X244851000Y-91180600D03*
D11*
%TO.P,D82,2,A*%
%TO.N,SEG_D*%
X244851000Y-88640600D03*
%TD*%
D10*
%TO.P,D53,1,K*%
%TO.N,DIG_2*%
X196591000Y-54350600D03*
D11*
%TO.P,D53,2,A*%
%TO.N,SEG_G*%
X196591000Y-51810600D03*
%TD*%
D10*
%TO.P,D11,1,K*%
%TO.N,DIG_0*%
X73401000Y-17520600D03*
D11*
%TO.P,D11,2,A*%
%TO.N,SEG_A*%
X73401000Y-14980600D03*
%TD*%
D10*
%TO.P,D22,1,K*%
%TO.N,DIG_0*%
X94991000Y-59430600D03*
D11*
%TO.P,D22,2,A*%
%TO.N,SEG_C*%
X97531000Y-59430600D03*
%TD*%
D10*
%TO.P,D64,1,K*%
%TO.N,DIG_1*%
X129281000Y-17520600D03*
D11*
%TO.P,D64,2,A*%
%TO.N,SEG_A*%
X129281000Y-14980600D03*
%TD*%
D10*
%TO.P,D60,1,K*%
%TO.N,DIG_3*%
X237231000Y-17520600D03*
D11*
%TO.P,D60,2,A*%
%TO.N,SEG_A*%
X237231000Y-14980600D03*
%TD*%
D10*
%TO.P,D104,1,K*%
%TO.N,DIG_1*%
X105151000Y-31490600D03*
D11*
%TO.P,D104,2,A*%
%TO.N,SEG_F*%
X107691000Y-31490600D03*
%TD*%
D10*
%TO.P,D52,1,K*%
%TO.N,DIG_2*%
X188971000Y-54350600D03*
D11*
%TO.P,D52,2,A*%
%TO.N,SEG_G*%
X188971000Y-51810600D03*
%TD*%
D10*
%TO.P,D62,1,K*%
%TO.N,DIG_1*%
X114041000Y-17520600D03*
D11*
%TO.P,D62,2,A*%
%TO.N,SEG_A*%
X114041000Y-14980600D03*
%TD*%
D10*
%TO.P,D46,1,K*%
%TO.N,DIG_0*%
X56891000Y-46730600D03*
D11*
%TO.P,D46,2,A*%
%TO.N,SEG_F*%
X59431000Y-46730600D03*
%TD*%
D10*
%TO.P,D30,1,K*%
%TO.N,DIG_0*%
X88641000Y-91180600D03*
D11*
%TO.P,D30,2,A*%
%TO.N,SEG_D*%
X88641000Y-88640600D03*
%TD*%
D10*
%TO.P,D91,1,K*%
%TO.N,DIG_3*%
X213101000Y-74670600D03*
D11*
%TO.P,D91,2,A*%
%TO.N,SEG_E*%
X215641000Y-74670600D03*
%TD*%
D10*
%TO.P,D97,1,K*%
%TO.N,DIG_1*%
X105151000Y-59430600D03*
D11*
%TO.P,D97,2,A*%
%TO.N,SEG_E*%
X107691000Y-59430600D03*
%TD*%
D10*
%TO.P,D41,1,K*%
%TO.N,DIG_0*%
X56891000Y-59430600D03*
D11*
%TO.P,D41,2,A*%
%TO.N,SEG_E*%
X59431000Y-59430600D03*
%TD*%
D10*
%TO.P,D84,1,K*%
%TO.N,DIG_3*%
X229611000Y-91180600D03*
D11*
%TO.P,D84,2,A*%
%TO.N,SEG_D*%
X229611000Y-88640600D03*
%TD*%
D10*
%TO.P,D20,1,K*%
%TO.N,DIG_2*%
X202941000Y-74670600D03*
D11*
%TO.P,D20,2,A*%
%TO.N,SEG_C*%
X205481000Y-74670600D03*
%TD*%
D10*
%TO.P,D75,1,K*%
%TO.N,DIG_3*%
X251201000Y-67050600D03*
D11*
%TO.P,D75,2,A*%
%TO.N,SEG_C*%
X253741000Y-67050600D03*
%TD*%
D10*
%TO.P,D27,1,K*%
%TO.N,DIG_2*%
X188971000Y-91180600D03*
D11*
%TO.P,D27,2,A*%
%TO.N,SEG_D*%
X188971000Y-88640600D03*
%TD*%
D10*
%TO.P,D68,1,K*%
%TO.N,DIG_3*%
X251201000Y-39110600D03*
D11*
%TO.P,D68,2,A*%
%TO.N,SEG_B*%
X253741000Y-39110600D03*
%TD*%
D10*
%TO.P,D71,1,K*%
%TO.N,DIG_1*%
X143251000Y-31490600D03*
D11*
%TO.P,D71,2,A*%
%TO.N,SEG_B*%
X145791000Y-31490600D03*
%TD*%
D10*
%TO.P,D40,1,K*%
%TO.N,DIG_0*%
X56891000Y-67050600D03*
D11*
%TO.P,D40,2,A*%
%TO.N,SEG_E*%
X59431000Y-67050600D03*
%TD*%
D10*
%TO.P,D57,1,K*%
%TO.N,DIG_0*%
X88641000Y-54350600D03*
D11*
%TO.P,D57,2,A*%
%TO.N,SEG_G*%
X88641000Y-51810600D03*
%TD*%
D10*
%TO.P,D69,1,K*%
%TO.N,DIG_3*%
X251201000Y-46730600D03*
D11*
%TO.P,D69,2,A*%
%TO.N,SEG_B*%
X253741000Y-46730600D03*
%TD*%
D10*
%TO.P,D65,1,K*%
%TO.N,DIG_1*%
X136901000Y-17520600D03*
D11*
%TO.P,D65,2,A*%
%TO.N,SEG_A*%
X136901000Y-14980600D03*
%TD*%
D10*
%TO.P,D110,1,K*%
%TO.N,DIG_1*%
X114041000Y-54350600D03*
D11*
%TO.P,D110,2,A*%
%TO.N,SEG_G*%
X114041000Y-51810600D03*
%TD*%
D10*
%TO.P,D70,1,K*%
%TO.N,DIG_1*%
X143251000Y-23870600D03*
D11*
%TO.P,D70,2,A*%
%TO.N,SEG_B*%
X145791000Y-23870600D03*
%TD*%
D10*
%TO.P,D74,1,K*%
%TO.N,DIG_3*%
X251201000Y-59430600D03*
D11*
%TO.P,D74,2,A*%
%TO.N,SEG_C*%
X253741000Y-59430600D03*
%TD*%
D10*
%TO.P,D90,1,K*%
%TO.N,DIG_3*%
X213101000Y-82290600D03*
D11*
%TO.P,D90,2,A*%
%TO.N,SEG_E*%
X215641000Y-82290600D03*
%TD*%
D10*
%TO.P,D10,1,K*%
%TO.N,DIG_0*%
X65781000Y-17520600D03*
D11*
%TO.P,D10,2,A*%
%TO.N,SEG_A*%
X65781000Y-14980600D03*
%TD*%
D10*
%TO.P,D5,1,K*%
%TO.N,DIG_2*%
X196591000Y-17520600D03*
D11*
%TO.P,D5,2,A*%
%TO.N,SEG_A*%
X196591000Y-14980600D03*
%TD*%
D10*
%TO.P,D89,1,K*%
%TO.N,DIG_1*%
X114041000Y-91180600D03*
D11*
%TO.P,D89,2,A*%
%TO.N,SEG_D*%
X114041000Y-88640600D03*
%TD*%
D10*
%TO.P,D29,1,K*%
%TO.N,DIG_2*%
X173731000Y-91180600D03*
D11*
%TO.P,D29,2,A*%
%TO.N,SEG_D*%
X173731000Y-88640600D03*
%TD*%
D10*
%TO.P,D58,1,K*%
%TO.N,DIG_3*%
X221991000Y-17520600D03*
D11*
%TO.P,D58,2,A*%
%TO.N,SEG_A*%
X221991000Y-14980600D03*
%TD*%
D10*
%TO.P,D66,1,K*%
%TO.N,DIG_3*%
X251201000Y-23870600D03*
D11*
%TO.P,D66,2,A*%
%TO.N,SEG_B*%
X253741000Y-23870600D03*
%TD*%
D10*
%TO.P,D25,1,K*%
%TO.N,DIG_0*%
X94991000Y-82290600D03*
D11*
%TO.P,D25,2,A*%
%TO.N,SEG_C*%
X97531000Y-82290600D03*
%TD*%
D10*
%TO.P,D21,1,K*%
%TO.N,DIG_2*%
X202941000Y-82290600D03*
D11*
%TO.P,D21,2,A*%
%TO.N,SEG_C*%
X205481000Y-82290600D03*
%TD*%
D12*
%TO.P,J1,1,Pin_1*%
%TO.N,+5V*%
X43573200Y-36872000D03*
D13*
%TO.P,J1,2,Pin_2*%
%TO.N,GND*%
X41573200Y-36872000D03*
%TO.P,J1,3,Pin_3*%
%TO.N,RXD*%
X39573200Y-36872000D03*
%TO.P,J1,4,Pin_4*%
%TO.N,TXD*%
X37573200Y-36872000D03*
%TO.P,J1,5,Pin_5*%
%TO.N,FLASH{slash}ROM*%
X35573200Y-36872000D03*
%TD*%
D10*
%TO.P,D38,1,K*%
%TO.N,DIG_0*%
X56891000Y-82290600D03*
D11*
%TO.P,D38,2,A*%
%TO.N,SEG_E*%
X59431000Y-82290600D03*
%TD*%
D10*
%TO.P,D55,1,K*%
%TO.N,DIG_0*%
X73401000Y-54350600D03*
D11*
%TO.P,D55,2,A*%
%TO.N,SEG_G*%
X73401000Y-51810600D03*
%TD*%
D10*
%TO.P,D81,1,K*%
%TO.N,DIG_1*%
X143251000Y-82290600D03*
D11*
%TO.P,D81,2,A*%
%TO.N,SEG_C*%
X145791000Y-82290600D03*
%TD*%
D10*
%TO.P,D48,1,K*%
%TO.N,DIG_0*%
X56891000Y-31490600D03*
D11*
%TO.P,D48,2,A*%
%TO.N,SEG_F*%
X59431000Y-31490600D03*
%TD*%
D10*
%TO.P,D35,1,K*%
%TO.N,DIG_2*%
X164841000Y-74670600D03*
D11*
%TO.P,D35,2,A*%
%TO.N,SEG_E*%
X167381000Y-74670600D03*
%TD*%
D10*
%TO.P,D103,1,K*%
%TO.N,DIG_1*%
X105151000Y-39110600D03*
D11*
%TO.P,D103,2,A*%
%TO.N,SEG_F*%
X107691000Y-39110600D03*
%TD*%
D10*
%TO.P,D36,1,K*%
%TO.N,DIG_2*%
X164841000Y-67050600D03*
D11*
%TO.P,D36,2,A*%
%TO.N,SEG_E*%
X167381000Y-67050600D03*
%TD*%
D10*
%TO.P,D113,1,K*%
%TO.N,DIG_1*%
X136901000Y-54350600D03*
D11*
%TO.P,D113,2,A*%
%TO.N,SEG_G*%
X136901000Y-51810600D03*
%TD*%
D10*
%TO.P,D72,1,K*%
%TO.N,DIG_1*%
X143251000Y-39110600D03*
D11*
%TO.P,D72,2,A*%
%TO.N,SEG_B*%
X145791000Y-39110600D03*
%TD*%
D10*
%TO.P,D50,1,K*%
%TO.N,DIG_2*%
X173731000Y-54350600D03*
D11*
%TO.P,D50,2,A*%
%TO.N,SEG_G*%
X173731000Y-51810600D03*
%TD*%
D10*
%TO.P,D18,1,K*%
%TO.N,DIG_2*%
X202941000Y-59430600D03*
D11*
%TO.P,D18,2,A*%
%TO.N,SEG_C*%
X205481000Y-59430600D03*
%TD*%
D10*
%TO.P,D107,1,K*%
%TO.N,DIG_3*%
X229611000Y-54350600D03*
D11*
%TO.P,D107,2,A*%
%TO.N,SEG_G*%
X229611000Y-51810600D03*
%TD*%
D10*
%TO.P,D33,1,K*%
%TO.N,DIG_0*%
X65781000Y-91180600D03*
D11*
%TO.P,D33,2,A*%
%TO.N,SEG_D*%
X65781000Y-88640600D03*
%TD*%
D10*
%TO.P,D101,1,K*%
%TO.N,DIG_3*%
X213101000Y-23870600D03*
D11*
%TO.P,D101,2,A*%
%TO.N,SEG_F*%
X215641000Y-23870600D03*
%TD*%
D10*
%TO.P,D56,1,K*%
%TO.N,DIG_0*%
X81021000Y-54350600D03*
D11*
%TO.P,D56,2,A*%
%TO.N,SEG_G*%
X81021000Y-51810600D03*
%TD*%
D10*
%TO.P,D45,1,K*%
%TO.N,DIG_2*%
X164841000Y-23870600D03*
D11*
%TO.P,D45,2,A*%
%TO.N,SEG_F*%
X167381000Y-23870600D03*
%TD*%
D10*
%TO.P,D16,1,K*%
%TO.N,DIG_0*%
X94991000Y-39110600D03*
D11*
%TO.P,D16,2,A*%
%TO.N,SEG_B*%
X97531000Y-39110600D03*
%TD*%
D10*
%TO.P,D100,1,K*%
%TO.N,DIG_3*%
X213101000Y-31490600D03*
D11*
%TO.P,D100,2,A*%
%TO.N,SEG_F*%
X215641000Y-31490600D03*
%TD*%
D10*
%TO.P,D109,1,K*%
%TO.N,DIG_3*%
X244851000Y-54350600D03*
D11*
%TO.P,D109,2,A*%
%TO.N,SEG_G*%
X244851000Y-51810600D03*
%TD*%
D10*
%TO.P,D67,1,K*%
%TO.N,DIG_3*%
X251201000Y-31490600D03*
D11*
%TO.P,D67,2,A*%
%TO.N,SEG_B*%
X253741000Y-31490600D03*
%TD*%
D10*
%TO.P,D59,1,K*%
%TO.N,DIG_3*%
X229611000Y-17520600D03*
D11*
%TO.P,D59,2,A*%
%TO.N,SEG_A*%
X229611000Y-14980600D03*
%TD*%
D10*
%TO.P,D111,1,K*%
%TO.N,DIG_1*%
X121661000Y-54350600D03*
D11*
%TO.P,D111,2,A*%
%TO.N,SEG_G*%
X121661000Y-51810600D03*
%TD*%
D10*
%TO.P,D24,1,K*%
%TO.N,DIG_0*%
X94991000Y-74670600D03*
D11*
%TO.P,D24,2,A*%
%TO.N,SEG_C*%
X97531000Y-74670600D03*
%TD*%
D10*
%TO.P,D34,1,K*%
%TO.N,DIG_2*%
X164841000Y-82290600D03*
D11*
%TO.P,D34,2,A*%
%TO.N,SEG_E*%
X167381000Y-82290600D03*
%TD*%
D10*
%TO.P,D93,1,K*%
%TO.N,DIG_3*%
X213101000Y-59430600D03*
D11*
%TO.P,D93,2,A*%
%TO.N,SEG_E*%
X215641000Y-59430600D03*
%TD*%
D10*
%TO.P,D8,1,K*%
%TO.N,DIG_2*%
X202941000Y-39110600D03*
D11*
%TO.P,D8,2,A*%
%TO.N,SEG_B*%
X205481000Y-39110600D03*
%TD*%
D14*
%TO.P,J2,S1,SHIELD*%
%TO.N,GND*%
X33647600Y-22011600D03*
X29847600Y-22011600D03*
X33647600Y-30651600D03*
X29847600Y-30651600D03*
%TD*%
D10*
%TO.P,D83,1,K*%
%TO.N,DIG_3*%
X237231000Y-91180600D03*
D11*
%TO.P,D83,2,A*%
%TO.N,SEG_D*%
X237231000Y-88640600D03*
%TD*%
D10*
%TO.P,D80,1,K*%
%TO.N,DIG_1*%
X143251000Y-74670600D03*
D11*
%TO.P,D80,2,A*%
%TO.N,SEG_C*%
X145791000Y-74670600D03*
%TD*%
D10*
%TO.P,D31,1,K*%
%TO.N,DIG_0*%
X81021000Y-91180600D03*
D11*
%TO.P,D31,2,A*%
%TO.N,SEG_D*%
X81021000Y-88640600D03*
%TD*%
D10*
%TO.P,D96,1,K*%
%TO.N,DIG_1*%
X105151000Y-67050600D03*
D11*
%TO.P,D96,2,A*%
%TO.N,SEG_E*%
X107691000Y-67050600D03*
%TD*%
D10*
%TO.P,D17,1,K*%
%TO.N,DIG_0*%
X94991000Y-46730600D03*
D11*
%TO.P,D17,2,A*%
%TO.N,SEG_B*%
X97531000Y-46730600D03*
%TD*%
D10*
%TO.P,D14,1,K*%
%TO.N,DIG_0*%
X94991000Y-23870600D03*
D11*
%TO.P,D14,2,A*%
%TO.N,SEG_B*%
X97531000Y-23870600D03*
%TD*%
D10*
%TO.P,D61,1,K*%
%TO.N,DIG_3*%
X244851000Y-17520600D03*
D11*
%TO.P,D61,2,A*%
%TO.N,SEG_A*%
X244851000Y-14980600D03*
%TD*%
D10*
%TO.P,D3,1,K*%
%TO.N,DIG_2*%
X181351000Y-17520600D03*
D11*
%TO.P,D3,2,A*%
%TO.N,SEG_A*%
X181351000Y-14980600D03*
%TD*%
D10*
%TO.P,D12,1,K*%
%TO.N,DIG_0*%
X81021000Y-17520600D03*
D11*
%TO.P,D12,2,A*%
%TO.N,SEG_A*%
X81021000Y-14980600D03*
%TD*%
D10*
%TO.P,D102,1,K*%
%TO.N,DIG_1*%
X105151000Y-46730600D03*
D11*
%TO.P,D102,2,A*%
%TO.N,SEG_F*%
X107691000Y-46730600D03*
%TD*%
D10*
%TO.P,D51,1,K*%
%TO.N,DIG_2*%
X181351000Y-54350600D03*
D11*
%TO.P,D51,2,A*%
%TO.N,SEG_G*%
X181351000Y-51810600D03*
%TD*%
D10*
%TO.P,D87,1,K*%
%TO.N,DIG_1*%
X129281000Y-91180600D03*
D11*
%TO.P,D87,2,A*%
%TO.N,SEG_D*%
X129281000Y-88640600D03*
%TD*%
D10*
%TO.P,D4,1,K*%
%TO.N,DIG_2*%
X188971000Y-17520600D03*
D11*
%TO.P,D4,2,A*%
%TO.N,SEG_A*%
X188971000Y-14980600D03*
%TD*%
D10*
%TO.P,D77,1,K*%
%TO.N,DIG_3*%
X251201000Y-82290600D03*
D11*
%TO.P,D77,2,A*%
%TO.N,SEG_C*%
X253741000Y-82290600D03*
%TD*%
D10*
%TO.P,D15,1,K*%
%TO.N,DIG_0*%
X94991000Y-31490600D03*
D11*
%TO.P,D15,2,A*%
%TO.N,SEG_B*%
X97531000Y-31490600D03*
%TD*%
D10*
%TO.P,D79,1,K*%
%TO.N,DIG_1*%
X143251000Y-67050600D03*
D11*
%TO.P,D79,2,A*%
%TO.N,SEG_C*%
X145791000Y-67050600D03*
%TD*%
D10*
%TO.P,D43,1,K*%
%TO.N,DIG_2*%
X164841000Y-39110600D03*
D11*
%TO.P,D43,2,A*%
%TO.N,SEG_F*%
X167381000Y-39110600D03*
%TD*%
D10*
%TO.P,D98,1,K*%
%TO.N,DIG_3*%
X213101000Y-46730600D03*
D11*
%TO.P,D98,2,A*%
%TO.N,SEG_F*%
X215641000Y-46730600D03*
%TD*%
D10*
%TO.P,D99,1,K*%
%TO.N,DIG_3*%
X213101000Y-39110600D03*
D11*
%TO.P,D99,2,A*%
%TO.N,SEG_F*%
X215641000Y-39110600D03*
%TD*%
D10*
%TO.P,D95,1,K*%
%TO.N,DIG_1*%
X105151000Y-74670600D03*
D11*
%TO.P,D95,2,A*%
%TO.N,SEG_E*%
X107691000Y-74670600D03*
%TD*%
D10*
%TO.P,D39,1,K*%
%TO.N,DIG_0*%
X56891000Y-74670600D03*
D11*
%TO.P,D39,2,A*%
%TO.N,SEG_E*%
X59431000Y-74670600D03*
%TD*%
D10*
%TO.P,D86,1,K*%
%TO.N,DIG_1*%
X136901000Y-91180600D03*
D11*
%TO.P,D86,2,A*%
%TO.N,SEG_D*%
X136901000Y-88640600D03*
%TD*%
D10*
%TO.P,D78,1,K*%
%TO.N,DIG_1*%
X143251000Y-59430600D03*
D11*
%TO.P,D78,2,A*%
%TO.N,SEG_C*%
X145791000Y-59430600D03*
%TD*%
D10*
%TO.P,D9,1,K*%
%TO.N,DIG_2*%
X202941000Y-46730600D03*
D11*
%TO.P,D9,2,A*%
%TO.N,SEG_B*%
X205481000Y-46730600D03*
%TD*%
D10*
%TO.P,D94,1,K*%
%TO.N,DIG_1*%
X105151000Y-82290600D03*
D11*
%TO.P,D94,2,A*%
%TO.N,SEG_E*%
X107691000Y-82290600D03*
%TD*%
D10*
%TO.P,D42,1,K*%
%TO.N,DIG_2*%
X164841000Y-46730600D03*
D11*
%TO.P,D42,2,A*%
%TO.N,SEG_F*%
X167381000Y-46730600D03*
%TD*%
D10*
%TO.P,D13,1,K*%
%TO.N,DIG_0*%
X88641000Y-17520600D03*
D11*
%TO.P,D13,2,A*%
%TO.N,SEG_A*%
X88641000Y-14980600D03*
%TD*%
D10*
%TO.P,D26,1,K*%
%TO.N,DIG_2*%
X196591000Y-91180600D03*
D11*
%TO.P,D26,2,A*%
%TO.N,SEG_D*%
X196591000Y-88640600D03*
%TD*%
D10*
%TO.P,D106,1,K*%
%TO.N,DIG_3*%
X221991000Y-54350600D03*
D11*
%TO.P,D106,2,A*%
%TO.N,SEG_G*%
X221991000Y-51810600D03*
%TD*%
D10*
%TO.P,D32,1,K*%
%TO.N,DIG_0*%
X73401000Y-91180600D03*
D11*
%TO.P,D32,2,A*%
%TO.N,SEG_D*%
X73401000Y-88640600D03*
%TD*%
D10*
%TO.P,D19,1,K*%
%TO.N,DIG_2*%
X202941000Y-67050600D03*
D11*
%TO.P,D19,2,A*%
%TO.N,SEG_C*%
X205481000Y-67050600D03*
%TD*%
D10*
%TO.P,D108,1,K*%
%TO.N,DIG_3*%
X237231000Y-54350600D03*
D11*
%TO.P,D108,2,A*%
%TO.N,SEG_G*%
X237231000Y-51810600D03*
%TD*%
D10*
%TO.P,D76,1,K*%
%TO.N,DIG_3*%
X251201000Y-74670600D03*
D11*
%TO.P,D76,2,A*%
%TO.N,SEG_C*%
X253741000Y-74670600D03*
%TD*%
D10*
%TO.P,D88,1,K*%
%TO.N,DIG_1*%
X121661000Y-91180600D03*
D11*
%TO.P,D88,2,A*%
%TO.N,SEG_D*%
X121661000Y-88640600D03*
%TD*%
D10*
%TO.P,D85,1,K*%
%TO.N,DIG_3*%
X221991000Y-91180600D03*
D11*
%TO.P,D85,2,A*%
%TO.N,SEG_D*%
X221991000Y-88640600D03*
%TD*%
D10*
%TO.P,D47,1,K*%
%TO.N,DIG_0*%
X56891000Y-39110600D03*
D11*
%TO.P,D47,2,A*%
%TO.N,SEG_F*%
X59431000Y-39110600D03*
%TD*%
D10*
%TO.P,D112,1,K*%
%TO.N,DIG_1*%
X129281000Y-54350600D03*
D11*
%TO.P,D112,2,A*%
%TO.N,SEG_G*%
X129281000Y-51810600D03*
%TD*%
D10*
%TO.P,D7,1,K*%
%TO.N,DIG_2*%
X202941000Y-31490600D03*
D11*
%TO.P,D7,2,A*%
%TO.N,SEG_B*%
X205481000Y-31490600D03*
%TD*%
D10*
%TO.P,D63,1,K*%
%TO.N,DIG_1*%
X121661000Y-17520600D03*
D11*
%TO.P,D63,2,A*%
%TO.N,SEG_A*%
X121661000Y-14980600D03*
%TD*%
D15*
%TO.N,DIG_2*%
X46137670Y-60485812D03*
X55778400Y-48691800D03*
X57708800Y-89306400D03*
X54660800Y-55422800D03*
X50053000Y-58216800D03*
X35864800Y-45059600D03*
X54965600Y-61518800D03*
%TO.N,SEG_A*%
X48698456Y-39775900D03*
X51562000Y-33375600D03*
%TO.N,SEG_B*%
X49820737Y-39950900D03*
X53489452Y-33422563D03*
%TO.N,DIG_0*%
X49488705Y-60835860D03*
X54545900Y-50672543D03*
X47599600Y-61962700D03*
X53813133Y-54220564D03*
X53844500Y-63931800D03*
X37922200Y-39420800D03*
%TO.N,SEG_C*%
X46823370Y-38263484D03*
%TO.N,SEG_D*%
X45987300Y-38811200D03*
%TO.N,SEG_E*%
X47091600Y-34493200D03*
%TO.N,SEG_F*%
X54787800Y-38684200D03*
%TO.N,SEG_G*%
X53975000Y-52070000D03*
%TO.N,DIG_3*%
X60299600Y-93878400D03*
X41569452Y-62780500D03*
X42621200Y-71221600D03*
X38760400Y-42443400D03*
X43027600Y-60706000D03*
%TO.N,DIG_1*%
X54624719Y-53625779D03*
X36318764Y-39455874D03*
X58928000Y-89509600D03*
X55003100Y-49674593D03*
X52476400Y-66852800D03*
%TO.N,GND*%
X48603500Y-57200800D03*
X39878000Y-68427600D03*
X41960800Y-56642000D03*
X29845000Y-24180800D03*
X41097200Y-59944000D03*
X49580800Y-68326000D03*
X42316400Y-21259800D03*
X37744400Y-25806400D03*
X49225200Y-72694800D03*
X45364400Y-49187700D03*
X36466600Y-49834800D03*
X40309800Y-55016400D03*
X41148000Y-55829200D03*
X49326800Y-23977600D03*
X48603500Y-53848000D03*
X37915600Y-54457600D03*
X41148000Y-56642000D03*
X39725600Y-33985200D03*
X43586400Y-55803800D03*
X47244000Y-76911200D03*
X41706800Y-41300400D03*
X41960800Y-55829200D03*
X48469725Y-23978672D03*
X43535600Y-39789700D03*
X40995600Y-71221600D03*
X29641800Y-28625800D03*
X51104800Y-61569600D03*
X47599600Y-22352000D03*
X40792400Y-76352400D03*
X48635883Y-66219865D03*
X46482000Y-56845200D03*
X46278800Y-32918400D03*
X41148000Y-58267600D03*
X42773600Y-57454800D03*
X41960800Y-58267600D03*
X44424475Y-39809236D03*
X36779200Y-24892000D03*
X41148000Y-57454800D03*
X42773600Y-55829200D03*
X39279084Y-62825546D03*
X37707700Y-26873200D03*
X50190400Y-23977600D03*
X36466100Y-58623200D03*
X50749200Y-67214500D03*
X35306000Y-22047200D03*
X53594000Y-30226000D03*
X40690800Y-22555200D03*
X51384200Y-91389200D03*
X43586400Y-58242200D03*
X43586400Y-56616600D03*
X34540501Y-71073500D03*
X46583600Y-50698400D03*
X37541200Y-27990800D03*
X37915600Y-52019200D03*
X44958000Y-21488400D03*
X41046400Y-50495200D03*
X36466600Y-56642000D03*
X35204400Y-31357700D03*
X48463200Y-23164800D03*
X41706800Y-40081200D03*
X50190400Y-22352000D03*
X47599600Y-23977600D03*
X41148000Y-55016400D03*
X36441802Y-63191614D03*
X48603500Y-55727600D03*
X41960800Y-55016400D03*
X34523537Y-61509728D03*
X44043600Y-21742400D03*
X52374800Y-28905200D03*
X47599600Y-23164800D03*
X37744400Y-38354000D03*
X35052000Y-29108400D03*
X43230800Y-50647600D03*
X44043600Y-23520400D03*
X37846000Y-34747200D03*
X50190400Y-23164800D03*
X35204400Y-23520400D03*
X48639762Y-59986360D03*
X51612800Y-21285200D03*
X52527200Y-62890400D03*
X43586400Y-54991000D03*
X49326800Y-22352000D03*
X34594800Y-63347600D03*
X37915600Y-49872956D03*
X37915600Y-56642000D03*
X41960800Y-57454800D03*
X42316400Y-24130000D03*
X50534900Y-53340000D03*
X43586400Y-57429400D03*
X44043600Y-22656800D03*
X40309800Y-56642000D03*
X46583600Y-53644800D03*
X40309800Y-58267600D03*
X45821600Y-59537600D03*
X38125400Y-71602600D03*
X39928800Y-70307200D03*
X34188400Y-36830000D03*
X38887400Y-85775800D03*
X44043600Y-59893200D03*
X42773600Y-56642000D03*
X48463200Y-22352000D03*
X36466600Y-52019200D03*
X36347400Y-85928200D03*
X36466600Y-54457600D03*
X39420800Y-49834800D03*
X37915600Y-58572400D03*
X53773551Y-43388300D03*
X32258000Y-29108400D03*
X40944800Y-67106800D03*
X47167257Y-39957621D03*
X50495200Y-51206400D03*
X42773600Y-55016400D03*
X44704000Y-61468000D03*
X40309800Y-57454800D03*
X49671691Y-42610900D03*
X38658800Y-59639200D03*
X49479200Y-87274400D03*
X41910000Y-86004400D03*
X32308800Y-23520400D03*
X34163500Y-34493200D03*
X47244000Y-21209000D03*
X42773600Y-58267600D03*
X46482000Y-58318400D03*
X49326800Y-23164800D03*
X48768000Y-49187700D03*
X34493200Y-39116000D03*
X40335200Y-32969200D03*
X40309800Y-55829200D03*
X47345600Y-89662000D03*
X50698400Y-85699600D03*
%TO.N,+5V*%
X49936400Y-27736800D03*
X49936400Y-26924000D03*
X49123600Y-26924000D03*
X47498000Y-26924000D03*
X49123600Y-27736800D03*
X44145200Y-29108400D03*
X47498000Y-27736800D03*
X41656000Y-28194000D03*
X41757600Y-30988000D03*
X47853600Y-30175200D03*
X47498000Y-28549600D03*
X48310800Y-28549600D03*
X48310800Y-27736800D03*
X45770800Y-28854400D03*
X49123600Y-28549600D03*
X44094400Y-27127200D03*
X48310800Y-26924000D03*
X50546000Y-31597600D03*
X49936400Y-28549600D03*
X46380400Y-31546800D03*
%TO.N,+3V3*%
X51475000Y-24942800D03*
X52070000Y-23418800D03*
X52679600Y-25755600D03*
X44094400Y-24790400D03*
X44043600Y-25908000D03*
X51475000Y-25755600D03*
X51475000Y-26568400D03*
X52070000Y-27279600D03*
X39725600Y-26009600D03*
X47701200Y-25400000D03*
X48514000Y-25400000D03*
X52679600Y-24130000D03*
X50139600Y-25400000D03*
X52679600Y-26568400D03*
X40741600Y-26288100D03*
X52679600Y-24942800D03*
X49326800Y-25400000D03*
X35915600Y-32207200D03*
X51475000Y-24130000D03*
%TO.N,FLASH{slash}ROM*%
X40716200Y-48691800D03*
%TO.N,TXD*%
X38557200Y-48463200D03*
%TO.N,RESET*%
X36872833Y-65809767D03*
X37744400Y-20040600D03*
%TO.N,/MATRIX_RETURN*%
X37388800Y-69291200D03*
X38726324Y-45579679D03*
X37221960Y-62424900D03*
X37236400Y-48768000D03*
%TO.N,SEG_G_SWITCH*%
X53549397Y-42401252D03*
X50495200Y-55219600D03*
%TO.N,MATRIX_PWM*%
X40487600Y-63093600D03*
X38709600Y-67513200D03*
%TO.N,RXD*%
X39674800Y-48666400D03*
%TD*%
D16*
%TO.N,DIG_2*%
X54152800Y-55930800D02*
X54660800Y-55422800D01*
X44034295Y-61823600D02*
X43129200Y-61823600D01*
X196591000Y-17520600D02*
X202941000Y-23870600D01*
X54965600Y-61518800D02*
X54965600Y-61366400D01*
X93956380Y-60655600D02*
X96025620Y-60655600D01*
X50038000Y-56235600D02*
X50329000Y-55944600D01*
X36111600Y-60800400D02*
X34856000Y-59544800D01*
X173731000Y-22258600D02*
X173731000Y-17520600D01*
X171904000Y-93007600D02*
X61021091Y-93007600D01*
X96216000Y-58927200D02*
X99567600Y-55575600D01*
X102260400Y-42570400D02*
X160680800Y-42570400D01*
X46137670Y-60485812D02*
X46137670Y-61059635D01*
X166313000Y-25866600D02*
X170123000Y-25866600D01*
X61021091Y-93007600D02*
X57708800Y-89695309D01*
X38430909Y-61156000D02*
X38075309Y-60800400D01*
X99567600Y-55575600D02*
X172506000Y-55575600D01*
X160680800Y-42570400D02*
X164841000Y-46730600D01*
X176675000Y-90434600D02*
X175929000Y-91180600D01*
X66371580Y-57200800D02*
X90501580Y-57200800D01*
X50809305Y-55930800D02*
X54152800Y-55930800D01*
X55778400Y-48691800D02*
X55060000Y-47973400D01*
X94589600Y-43027600D02*
X101803200Y-43027600D01*
X42736600Y-61431000D02*
X42727295Y-61431000D01*
X170123000Y-25866600D02*
X173731000Y-22258600D01*
X101803200Y-43027600D02*
X102260400Y-42570400D01*
X42727295Y-61431000D02*
X42452295Y-61156000D01*
X50329000Y-55944600D02*
X50795505Y-55944600D01*
X164841000Y-24394600D02*
X166313000Y-25866600D01*
X176675000Y-85354600D02*
X167905000Y-85354600D01*
X172506000Y-55575600D02*
X173731000Y-54350600D01*
X54965600Y-61366400D02*
X54914800Y-61417200D01*
X50038000Y-58201800D02*
X50038000Y-56235600D01*
X43129200Y-61823600D02*
X42736600Y-61431000D01*
X64542780Y-55372000D02*
X54711600Y-55372000D01*
X94562200Y-43000200D02*
X94589600Y-43027600D01*
X175929000Y-91180600D02*
X173731000Y-91180600D01*
X56009000Y-43000200D02*
X94562200Y-43000200D01*
X50795505Y-55944600D02*
X50809305Y-55930800D01*
X96025620Y-60655600D02*
X96216000Y-60465220D01*
X202941000Y-85354600D02*
X176675000Y-85354600D01*
X42452295Y-61156000D02*
X38430909Y-61156000D01*
X34856000Y-45204800D02*
X35001200Y-45059600D01*
X46137670Y-61059635D02*
X45004305Y-62193000D01*
X90501580Y-57200800D02*
X93956380Y-60655600D01*
X44403695Y-62193000D02*
X44034295Y-61823600D01*
X164841000Y-23870600D02*
X164841000Y-24394600D01*
X167905000Y-85354600D02*
X164841000Y-82290600D01*
X35001200Y-45059600D02*
X35864800Y-45059600D01*
X173731000Y-91180600D02*
X171904000Y-93007600D01*
X176675000Y-85354600D02*
X176675000Y-90434600D01*
X55060000Y-43949200D02*
X56009000Y-43000200D01*
X50053000Y-58216800D02*
X50038000Y-58201800D01*
X55060000Y-47973400D02*
X55060000Y-43949200D01*
X38075309Y-60800400D02*
X36111600Y-60800400D01*
X96216000Y-60465220D02*
X96216000Y-58927200D01*
X57708800Y-89695309D02*
X57708800Y-89306400D01*
X45004305Y-62193000D02*
X44403695Y-62193000D01*
X202941000Y-85354600D02*
X202941000Y-82290600D01*
X64542780Y-55372000D02*
X66371580Y-57200800D01*
X54711600Y-55372000D02*
X54660800Y-55422800D01*
X34856000Y-59544800D02*
X34856000Y-45204800D01*
%TO.N,SEG_A*%
X50140393Y-39115207D02*
X49022793Y-39115207D01*
X50248400Y-39007200D02*
X50140393Y-39115207D01*
X51562000Y-33375600D02*
X51917440Y-33375600D01*
X48698456Y-39439544D02*
X48698456Y-39775900D01*
X52436083Y-32856957D02*
X53036693Y-32856957D01*
X50248400Y-35170404D02*
X50248400Y-39007200D01*
X172947000Y-15764600D02*
X172590984Y-15764600D01*
X49022793Y-39115207D02*
X48698456Y-39439544D01*
X53644800Y-31750000D02*
X54877800Y-30517000D01*
X51562000Y-33375600D02*
X50495200Y-34442400D01*
X54877800Y-21421008D02*
X61318208Y-14980600D01*
X53036693Y-32856957D02*
X53644800Y-32248850D01*
X172590984Y-15764600D02*
X167400584Y-20955000D01*
X61318208Y-14980600D02*
X65781000Y-14980600D01*
X51917440Y-33375600D02*
X52436083Y-32856957D01*
X50495200Y-34442400D02*
X50495200Y-34923604D01*
X167400584Y-20955000D02*
X147559796Y-20955000D01*
X54877800Y-30517000D02*
X54877800Y-21421008D01*
X147559796Y-20955000D02*
X142369396Y-15764600D01*
X196591000Y-14980600D02*
X221991000Y-14980600D01*
X50495200Y-34923604D02*
X50248400Y-35170404D01*
X53644800Y-32248850D02*
X53644800Y-31750000D01*
X114041000Y-14980600D02*
X88641000Y-14980600D01*
X142369396Y-15764600D02*
X137685000Y-15764600D01*
X173731000Y-14980600D02*
X172947000Y-15764600D01*
X137685000Y-15764600D02*
X136901000Y-14980600D01*
%TO.N,SEG_B*%
X54094800Y-31936396D02*
X55327800Y-30703396D01*
X97531000Y-19822600D02*
X97531000Y-23870600D01*
X172777380Y-16214600D02*
X201111000Y-16214600D01*
X97479000Y-19770600D02*
X97531000Y-19822600D01*
X95088200Y-16205200D02*
X95097600Y-16214600D01*
X246166000Y-16295600D02*
X253741000Y-23870600D01*
X94685000Y-16214600D02*
X94766000Y-16295600D01*
X94835800Y-16365400D02*
X97479000Y-19008600D01*
X167401980Y-21590000D02*
X172777380Y-16214600D01*
X221512000Y-16295600D02*
X246166000Y-16295600D01*
X52578000Y-34747200D02*
X52120800Y-35204400D01*
X55327800Y-21607404D02*
X60639604Y-16295600D01*
X201111000Y-16214600D02*
X205481000Y-20584600D01*
X54094800Y-32435246D02*
X54094800Y-31936396D01*
X95056200Y-16256000D02*
X95097600Y-16214600D01*
X94685000Y-16214600D02*
X94694400Y-16205200D01*
X142183000Y-16214600D02*
X147558400Y-21590000D01*
X95097600Y-16214600D02*
X142183000Y-16214600D01*
X52120800Y-35204400D02*
X50850800Y-35204400D01*
X52578000Y-34334015D02*
X52578000Y-34747200D01*
X60639604Y-16295600D02*
X94766000Y-16295600D01*
X50326789Y-39565207D02*
X50206430Y-39565207D01*
X53489452Y-33040594D02*
X54094800Y-32435246D01*
X97479000Y-19008600D02*
X97479000Y-19770600D01*
X145791000Y-19822600D02*
X145791000Y-23870600D01*
X94694400Y-16205200D02*
X95088200Y-16205200D01*
X50206430Y-39565207D02*
X49820737Y-39950900D01*
X142183000Y-16214600D02*
X145791000Y-19822600D01*
X201895000Y-15430600D02*
X220647000Y-15430600D01*
X50698400Y-39193596D02*
X50326789Y-39565207D01*
X50850800Y-35204400D02*
X50698400Y-35356800D01*
X205481000Y-20584600D02*
X205481000Y-23870600D01*
X50698400Y-35356800D02*
X50698400Y-39193596D01*
X53489452Y-33422563D02*
X53489452Y-33040594D01*
X147558400Y-21590000D02*
X167401980Y-21590000D01*
X201111000Y-16214600D02*
X201895000Y-15430600D01*
X94766000Y-16295600D02*
X94835800Y-16365400D01*
X53489452Y-33422563D02*
X52578000Y-34334015D01*
X55327800Y-30703396D02*
X55327800Y-21607404D01*
X94685000Y-16214600D02*
X94835800Y-16365400D01*
X220647000Y-15430600D02*
X221512000Y-16295600D01*
%TO.N,DIG_0*%
X65781000Y-91180600D02*
X65526600Y-91180600D01*
X52451000Y-63931800D02*
X53844500Y-63931800D01*
X60051000Y-17520600D02*
X65781000Y-17520600D01*
X56891000Y-20680600D02*
X56891000Y-23870600D01*
X42933499Y-62273600D02*
X42265899Y-61606000D01*
X43847899Y-62273600D02*
X42933499Y-62273600D01*
X93832000Y-54350600D02*
X94991000Y-55509600D01*
X55753457Y-50672543D02*
X56891000Y-49535000D01*
X56891000Y-82545000D02*
X56891000Y-82290600D01*
X56891000Y-67050600D02*
X59538000Y-69697600D01*
X94991000Y-19314600D02*
X93197000Y-17520600D01*
X88641000Y-54350600D02*
X93832000Y-54350600D01*
X42265899Y-61606000D02*
X38244513Y-61606000D01*
X45190701Y-62643000D02*
X44217299Y-62643000D01*
X54545900Y-50672543D02*
X55753457Y-50672543D01*
X94991000Y-68954204D02*
X94991000Y-67050600D01*
X38244513Y-61606000D02*
X37888913Y-61250400D01*
X54194199Y-54220564D02*
X54324235Y-54350600D01*
X49488705Y-60978810D02*
X50804495Y-62294600D01*
X94991000Y-55509600D02*
X94991000Y-59430600D01*
X59538000Y-69697600D02*
X94247604Y-69697600D01*
X47599600Y-61962700D02*
X45871001Y-61962700D01*
X60051000Y-17520600D02*
X56891000Y-20680600D01*
X53844500Y-63931800D02*
X54479500Y-63296800D01*
X93197000Y-17520600D02*
X88641000Y-17520600D01*
X53813133Y-54220564D02*
X54194199Y-54220564D01*
X34406000Y-59731196D02*
X34406000Y-42810000D01*
X54479500Y-63296800D02*
X56891000Y-63296800D01*
X44217299Y-62643000D02*
X43847899Y-62273600D01*
X50813800Y-62294600D02*
X52451000Y-63931800D01*
X94247604Y-69697600D02*
X94991000Y-68954204D01*
X54324235Y-54350600D02*
X65781000Y-54350600D01*
X37888913Y-61250400D02*
X35925204Y-61250400D01*
X56891000Y-49535000D02*
X56891000Y-46730600D01*
X34406000Y-42810000D02*
X37795200Y-39420800D01*
X65526600Y-91180600D02*
X56891000Y-82545000D01*
X56891000Y-59430600D02*
X56891000Y-63296800D01*
X50804495Y-62294600D02*
X50813800Y-62294600D01*
X35925204Y-61250400D02*
X34406000Y-59731196D01*
X45871001Y-61962700D02*
X45190701Y-62643000D01*
X94991000Y-23870600D02*
X94991000Y-19314600D01*
X37795200Y-39420800D02*
X37922200Y-39420800D01*
X49488705Y-60835860D02*
X49488705Y-60978810D01*
%TO.N,SEG_C*%
X49328500Y-56900495D02*
X49328500Y-59234500D01*
X97129600Y-65176400D02*
X97531000Y-65577800D01*
X216737412Y-57616600D02*
X216148412Y-58205600D01*
X50698400Y-42645204D02*
X50451600Y-42892004D01*
X57698000Y-57708800D02*
X58206000Y-58216800D01*
X50451600Y-42892004D02*
X50451600Y-44839596D01*
X49326800Y-56898795D02*
X49328500Y-56900495D01*
X48588051Y-40690800D02*
X50088800Y-40690800D01*
X54321180Y-59740800D02*
X56353180Y-57708800D01*
X49328500Y-53547695D02*
X49328500Y-54148305D01*
X47892257Y-39657316D02*
X47892257Y-39995006D01*
X97531000Y-65577800D02*
X97531000Y-67050600D01*
X253741000Y-59430600D02*
X251927000Y-57616600D01*
X49328500Y-55427295D02*
X49328500Y-56027905D01*
X50673373Y-59740800D02*
X54321180Y-59740800D01*
X50165760Y-59411360D02*
X50220413Y-59466013D01*
X99715000Y-57246600D02*
X97531000Y-59430600D01*
X47559884Y-38263484D02*
X47853600Y-38557200D01*
X49328500Y-59234500D02*
X49505360Y-59411360D01*
X203297000Y-57246600D02*
X205481000Y-59430600D01*
X56353180Y-57708800D02*
X57698000Y-57708800D01*
X147975000Y-57246600D02*
X203297000Y-57246600D01*
X49326800Y-56029605D02*
X49326800Y-56898795D01*
X145791000Y-59430600D02*
X143607000Y-57246600D01*
X49328500Y-56027905D02*
X49326800Y-56029605D01*
X47892257Y-39995006D02*
X48588051Y-40690800D01*
X63296800Y-65176400D02*
X97129600Y-65176400D01*
X49326800Y-55425595D02*
X49328500Y-55427295D01*
X58206000Y-58216800D02*
X58206000Y-60085600D01*
X50398585Y-59466013D02*
X50673373Y-59740800D01*
X143607000Y-57246600D02*
X99715000Y-57246600D01*
X49326800Y-54150005D02*
X49326800Y-55425595D01*
X49328500Y-54148305D02*
X49326800Y-54150005D01*
X50698400Y-41300400D02*
X50698400Y-42645204D01*
X49029000Y-50174095D02*
X49029000Y-53248195D01*
X58206000Y-60085600D02*
X63296800Y-65176400D01*
X50220413Y-59466013D02*
X50398585Y-59466013D01*
X47853600Y-39618659D02*
X47892257Y-39657316D01*
X49885600Y-45405596D02*
X49885600Y-49317495D01*
X50088800Y-40690800D02*
X50698400Y-41300400D01*
X206706000Y-58205600D02*
X205481000Y-59430600D01*
X47853600Y-38557200D02*
X47853600Y-39618659D01*
X251927000Y-57616600D02*
X216737412Y-57616600D01*
X46823370Y-38263484D02*
X47559884Y-38263484D01*
X145791000Y-59430600D02*
X147975000Y-57246600D01*
X50451600Y-44839596D02*
X49885600Y-45405596D01*
X49505360Y-59411360D02*
X50165760Y-59411360D01*
X49029000Y-53248195D02*
X49328500Y-53547695D01*
X49885600Y-49317495D02*
X49029000Y-50174095D01*
X216148412Y-58205600D02*
X206706000Y-58205600D01*
%TO.N,SEG_D*%
X50372140Y-62744600D02*
X50627404Y-62744600D01*
X42875200Y-39065200D02*
X42694888Y-39245512D01*
X114041000Y-88640600D02*
X88641000Y-88640600D01*
X65781000Y-77871400D02*
X65781000Y-88640600D01*
X56185200Y-68275600D02*
X65781000Y-77871400D01*
X196591000Y-88640600D02*
X221991000Y-88640600D01*
X55856380Y-68275600D02*
X56185200Y-68275600D01*
X173731000Y-88640600D02*
X136901000Y-88640600D01*
X42694888Y-39245512D02*
X42694888Y-40561288D01*
X55666000Y-68085220D02*
X55856380Y-68275600D01*
X45987300Y-38811200D02*
X45733300Y-39065200D01*
X47879000Y-60251460D02*
X50372140Y-62744600D01*
X55666000Y-67783196D02*
X55666000Y-68085220D01*
X45733300Y-39065200D02*
X42875200Y-39065200D01*
X42694888Y-40561288D02*
X47879000Y-45745400D01*
X47879000Y-45745400D02*
X47879000Y-60251460D01*
X50627404Y-62744600D02*
X55666000Y-67783196D01*
%TO.N,SEG_E*%
X105861000Y-62696600D02*
X90113000Y-62696600D01*
X146298412Y-60655600D02*
X147016000Y-59938012D01*
X61417200Y-57696600D02*
X61165000Y-57696600D01*
X47429000Y-60738600D02*
X50444400Y-63754000D01*
X200683000Y-57696600D02*
X201716000Y-58729600D01*
X147016000Y-59938012D02*
X147016000Y-58850600D01*
X47429000Y-50223000D02*
X47429000Y-60738600D01*
X41733900Y-49912700D02*
X47118700Y-49912700D01*
X61405000Y-57708800D02*
X61417200Y-57696600D01*
X50444400Y-65684400D02*
X50800000Y-66040000D01*
X47091600Y-34493200D02*
X45516800Y-36068000D01*
X41754395Y-38615200D02*
X40923200Y-39446395D01*
X147016000Y-58850600D02*
X148170000Y-57696600D01*
X45516800Y-38256395D02*
X45262300Y-38510895D01*
X201716000Y-58729600D02*
X201716000Y-60655600D01*
X109425000Y-57696600D02*
X140993000Y-57696600D01*
X50444400Y-63754000D02*
X50444400Y-65684400D01*
X41441200Y-49620000D02*
X41733900Y-49912700D01*
X148170000Y-57696600D02*
X165647000Y-57696600D01*
X169115000Y-57696600D02*
X200683000Y-57696600D01*
X107691000Y-60866600D02*
X105861000Y-62696600D01*
X50800000Y-66040000D02*
X52984384Y-66040000D01*
X45516800Y-36068000D02*
X45516800Y-38256395D01*
X107691000Y-59430600D02*
X109425000Y-57696600D01*
X40923200Y-39446395D02*
X40923200Y-43901806D01*
X107691000Y-59430600D02*
X107691000Y-60866600D01*
X165647000Y-57696600D02*
X167381000Y-59430600D01*
X142026000Y-58729600D02*
X142026000Y-60655600D01*
X167381000Y-59430600D02*
X169115000Y-57696600D01*
X90113000Y-62696600D02*
X85113000Y-57696600D01*
X59431000Y-72486616D02*
X59431000Y-74670600D01*
X45262300Y-38615200D02*
X41754395Y-38615200D01*
X202487000Y-61426600D02*
X213645000Y-61426600D01*
X201716000Y-60655600D02*
X202487000Y-61426600D01*
X45262300Y-38510895D02*
X45262300Y-38615200D01*
X47118700Y-49912700D02*
X47429000Y-50223000D01*
X140993000Y-57696600D02*
X142026000Y-58729600D01*
X85113000Y-57696600D02*
X61417200Y-57696600D01*
X61165000Y-57696600D02*
X59431000Y-59430600D01*
X52984384Y-66040000D02*
X59431000Y-72486616D01*
X213645000Y-61426600D02*
X215641000Y-59430600D01*
X40923200Y-43901806D02*
X41441200Y-44419806D01*
X41441200Y-44419806D02*
X41441200Y-49620000D01*
X142026000Y-60655600D02*
X146298412Y-60655600D01*
%TO.N,SEG_F*%
X55778400Y-37693600D02*
X58014000Y-37693600D01*
X58014000Y-37693600D02*
X59431000Y-39110600D01*
X54787800Y-38684200D02*
X55778400Y-37693600D01*
X162935000Y-23326600D02*
X163616000Y-22645600D01*
X59431000Y-46730600D02*
X59431000Y-48464600D01*
X107691000Y-20584600D02*
X108759000Y-19516600D01*
X59431000Y-48464600D02*
X59582000Y-48615600D01*
X140913000Y-19516600D02*
X142026000Y-20629600D01*
X142199416Y-25866600D02*
X151709396Y-25866600D01*
X107691000Y-48602600D02*
X107691000Y-48276600D01*
X142026000Y-20629600D02*
X142026000Y-25693184D01*
X167583000Y-48726600D02*
X167381000Y-48726600D01*
X213645000Y-48726600D02*
X107893000Y-48726600D01*
X215641000Y-46730600D02*
X215843000Y-46932600D01*
X107691000Y-23870600D02*
X107691000Y-20584600D01*
X107691000Y-48276600D02*
X107691000Y-46730600D01*
X214095000Y-48276600D02*
X213645000Y-48726600D01*
X154249396Y-23326600D02*
X162935000Y-23326600D01*
X108759000Y-19516600D02*
X140913000Y-19516600D01*
X215843000Y-48276600D02*
X214095000Y-48276600D01*
X107893000Y-48726600D02*
X107691000Y-48524600D01*
X107678000Y-48615600D02*
X107691000Y-48602600D01*
X163616000Y-22645600D02*
X166156000Y-22645600D01*
X142026000Y-25693184D02*
X142199416Y-25866600D01*
X167381000Y-48726600D02*
X167381000Y-46730600D01*
X151709396Y-25866600D02*
X154249396Y-23326600D01*
X59582000Y-48615600D02*
X107678000Y-48615600D01*
X215843000Y-46932600D02*
X215843000Y-48276600D01*
X166156000Y-22645600D02*
X167381000Y-23870600D01*
X107691000Y-48524600D02*
X107691000Y-48276600D01*
%TO.N,SEG_G*%
X221991000Y-51810600D02*
X196591000Y-51810600D01*
X114041000Y-51810600D02*
X113284400Y-51054000D01*
X138635000Y-50076600D02*
X136901000Y-51810600D01*
X173731000Y-51810600D02*
X171997000Y-50076600D01*
X53975000Y-52070000D02*
X54000400Y-52095400D01*
X55422800Y-52095400D02*
X55753000Y-51765200D01*
X55753000Y-51765200D02*
X65735600Y-51765200D01*
X65735600Y-51765200D02*
X65781000Y-51810600D01*
X113284400Y-51054000D02*
X89397600Y-51054000D01*
X171997000Y-50076600D02*
X138635000Y-50076600D01*
X89397600Y-51054000D02*
X88641000Y-51810600D01*
X54000400Y-52095400D02*
X55422800Y-52095400D01*
%TO.N,DIG_3*%
X37033200Y-42621200D02*
X37211000Y-42443400D01*
X37033200Y-45974000D02*
X37033200Y-42621200D01*
X42468800Y-67056000D02*
X42468800Y-71069200D01*
X253197000Y-61426600D02*
X255219200Y-61426600D01*
X215097000Y-84286600D02*
X250999000Y-84286600D01*
X251201000Y-82290600D02*
X251201000Y-84084600D01*
X219699600Y-93472000D02*
X221991000Y-91180600D01*
X255219200Y-61426600D02*
X255219200Y-58369200D01*
X35661600Y-46024800D02*
X36982400Y-46024800D01*
X213101000Y-23870600D02*
X213101000Y-20988600D01*
X43027600Y-60706000D02*
X38617305Y-60706000D01*
X35306000Y-46380400D02*
X35661600Y-46024800D01*
X37211000Y-42443400D02*
X38760400Y-42443400D01*
X213101000Y-20988600D02*
X216569000Y-17520600D01*
X244851000Y-17520600D02*
X251201000Y-23870600D01*
X250999000Y-84286600D02*
X246329200Y-84286600D01*
X38617305Y-60706000D02*
X38261705Y-60350400D01*
X41554400Y-63500000D02*
X41554400Y-66141600D01*
X35306000Y-59358404D02*
X35306000Y-46380400D01*
X60299600Y-93878400D02*
X60706000Y-93472000D01*
X36297996Y-60350400D02*
X35306000Y-59358404D01*
X251201000Y-52738600D02*
X251201000Y-46730600D01*
X255219200Y-58369200D02*
X251201000Y-54351000D01*
X251201000Y-54351000D02*
X251201000Y-52738600D01*
X41569452Y-63484948D02*
X41554400Y-63500000D01*
X41569452Y-62780500D02*
X41569452Y-63484948D01*
X216569000Y-17520600D02*
X221991000Y-17520600D01*
X246329200Y-84286600D02*
X246329200Y-89702400D01*
X38261705Y-60350400D02*
X36297996Y-60350400D01*
X244851000Y-54350600D02*
X251201000Y-54350600D01*
X36982400Y-46024800D02*
X37033200Y-45974000D01*
X250999000Y-84286600D02*
X251201000Y-84084600D01*
X251201000Y-54350600D02*
X251201000Y-52738600D01*
X41554400Y-66141600D02*
X42468800Y-67056000D01*
X42468800Y-71069200D02*
X42621200Y-71221600D01*
X213101000Y-82290600D02*
X215097000Y-84286600D01*
X246329200Y-89702400D02*
X244851000Y-91180600D01*
X60706000Y-93472000D02*
X219699600Y-93472000D01*
X251201000Y-59430600D02*
X253197000Y-61426600D01*
%TO.N,DIG_1*%
X140705600Y-69596000D02*
X143251000Y-67050600D01*
X55003100Y-49674593D02*
X55053400Y-49624293D01*
X55053400Y-48603196D02*
X54610000Y-48159796D01*
X105151000Y-67050600D02*
X107696400Y-69596000D01*
X118053000Y-86826600D02*
X118053000Y-90636600D01*
X45377097Y-63093000D02*
X44030903Y-63093000D01*
X58928000Y-89509600D02*
X58928000Y-90278113D01*
X112816000Y-92405600D02*
X114041000Y-91180600D01*
X117509000Y-91180600D02*
X114041000Y-91180600D01*
X54610000Y-48159796D02*
X54610000Y-43762804D01*
X108572604Y-19066600D02*
X105151000Y-22488204D01*
X49174400Y-65735200D02*
X49174400Y-63374396D01*
X54875200Y-53125600D02*
X112816000Y-53125600D01*
X55053400Y-49624293D02*
X55053400Y-48603196D01*
X112153000Y-19066600D02*
X108572604Y-19066600D01*
X38058117Y-62056000D02*
X37702517Y-61700400D01*
X50643105Y-66483400D02*
X49922600Y-66483400D01*
X88391600Y-92405600D02*
X112816000Y-92405600D01*
X37702517Y-61700400D02*
X35738808Y-61700400D01*
X52476400Y-66852800D02*
X52113600Y-66490000D01*
X143251000Y-20584600D02*
X140187000Y-17520600D01*
X105151000Y-22488204D02*
X105151000Y-23870600D01*
X61207487Y-92557600D02*
X88239600Y-92557600D01*
X43661503Y-62723600D02*
X42747103Y-62723600D01*
X48487204Y-62687200D02*
X45782897Y-62687200D01*
X112816000Y-53125600D02*
X114041000Y-54350600D01*
X54624719Y-53376081D02*
X54875200Y-53125600D01*
X42079503Y-62056000D02*
X38058117Y-62056000D01*
X88239600Y-92557600D02*
X88391600Y-92405600D01*
X143251000Y-23870600D02*
X143251000Y-20584600D01*
X103789800Y-39110600D02*
X105151000Y-39110600D01*
X54610000Y-43762804D02*
X55878604Y-42494200D01*
X42747103Y-62723600D02*
X42079503Y-62056000D01*
X49174400Y-63374396D02*
X48487204Y-62687200D01*
X58928000Y-90278113D02*
X61207487Y-92557600D01*
X35738808Y-61700400D02*
X33956000Y-59917592D01*
X113699000Y-17520600D02*
X112153000Y-19066600D01*
X118053000Y-90636600D02*
X117509000Y-91180600D01*
X52113600Y-66490000D02*
X50649705Y-66490000D01*
X109687000Y-86826600D02*
X118053000Y-86826600D01*
X49922600Y-66483400D02*
X49174400Y-65735200D01*
X33956000Y-41818638D02*
X36318764Y-39455874D01*
X44030903Y-63093000D02*
X43661503Y-62723600D01*
X33956000Y-59917592D02*
X33956000Y-41818638D01*
X114041000Y-17520600D02*
X113699000Y-17520600D01*
X140187000Y-17520600D02*
X136901000Y-17520600D01*
X100406200Y-42494200D02*
X103789800Y-39110600D01*
X105151000Y-82290600D02*
X109687000Y-86826600D01*
X55878604Y-42494200D02*
X100406200Y-42494200D01*
X45782897Y-62687200D02*
X45377097Y-63093000D01*
X107696400Y-69596000D02*
X140705600Y-69596000D01*
X50649705Y-66490000D02*
X50643105Y-66483400D01*
X54624719Y-53625779D02*
X54624719Y-53376081D01*
D17*
%TO.N,GND*%
X48639762Y-59986360D02*
X48514000Y-59860598D01*
X46380400Y-32867600D02*
X46431200Y-32867600D01*
X48603500Y-57200800D02*
X48615600Y-57188700D01*
X48615600Y-57188700D02*
X48615600Y-55739700D01*
X53509518Y-30226000D02*
X50867918Y-32867600D01*
X51104800Y-61569600D02*
X52425600Y-62890400D01*
X51104800Y-60985400D02*
X50160413Y-60041013D01*
X48768000Y-49187700D02*
X48454000Y-49501700D01*
X48514000Y-59860598D02*
X48514000Y-57290300D01*
X48454000Y-55578100D02*
X48603500Y-55727600D01*
X51104800Y-61569600D02*
X51104800Y-60985400D01*
X50867918Y-32867600D02*
X46482000Y-32867600D01*
X46482000Y-32867600D02*
X46278800Y-32918400D01*
X49982240Y-60041013D02*
X49927587Y-59986360D01*
X49927587Y-59986360D02*
X48639762Y-59986360D01*
X52425600Y-62890400D02*
X52527200Y-62890400D01*
X46278800Y-32918400D02*
X46380400Y-32867600D01*
X48615600Y-55739700D02*
X48603500Y-55727600D01*
X50160413Y-60041013D02*
X49982240Y-60041013D01*
X48454000Y-49501700D02*
X48454000Y-55578100D01*
X53594000Y-30226000D02*
X53509518Y-30226000D01*
X48514000Y-57290300D02*
X48603500Y-57200800D01*
%TO.N,+3V3*%
X38557700Y-27225282D02*
X38557700Y-26618700D01*
X38557700Y-26618700D02*
X39166800Y-26009600D01*
X38455600Y-27327382D02*
X38557700Y-27225282D01*
X37541200Y-32207200D02*
X38455600Y-31292800D01*
X38455600Y-31292800D02*
X38455600Y-27327382D01*
X39166800Y-26009600D02*
X39725600Y-26009600D01*
X35915600Y-32207200D02*
X37541200Y-32207200D01*
D16*
%TO.N,FLASH{slash}ROM*%
X37545695Y-35472200D02*
X37531895Y-35458400D01*
X35560000Y-36244800D02*
X35573200Y-36258000D01*
X38160105Y-35458400D02*
X38146305Y-35472200D01*
X35560000Y-35712400D02*
X35560000Y-36244800D01*
X40284400Y-46433992D02*
X40473200Y-46245192D01*
X38146305Y-35472200D02*
X37545695Y-35472200D01*
X40233600Y-35458400D02*
X38160105Y-35458400D01*
X37531895Y-35458400D02*
X35814000Y-35458400D01*
X40284400Y-48260000D02*
X40284400Y-46433992D01*
X40473200Y-46245192D02*
X40473200Y-39259999D01*
X35814000Y-35458400D02*
X35560000Y-35712400D01*
X40473200Y-39259999D02*
X40538400Y-39194799D01*
X40716200Y-48691800D02*
X40284400Y-48260000D01*
X40538400Y-35763200D02*
X40233600Y-35458400D01*
X40538400Y-39194799D02*
X40538400Y-35763200D01*
X35573200Y-36258000D02*
X35573200Y-36872000D01*
%TO.N,TXD*%
X37471600Y-36770400D02*
X39573200Y-38872000D01*
X39573200Y-45872400D02*
X38557200Y-46888400D01*
X38557200Y-46888400D02*
X38557200Y-48463200D01*
X39573200Y-38872000D02*
X39573200Y-45872400D01*
%TO.N,RESET*%
X28143200Y-21132800D02*
X28041600Y-21234400D01*
X36753800Y-20040600D02*
X35661600Y-21132800D01*
X37744400Y-20040600D02*
X36753800Y-20040600D01*
X33223200Y-31952822D02*
X33223200Y-65351800D01*
X33681167Y-65809767D02*
X36872833Y-65809767D01*
X28041600Y-31470600D02*
X28321000Y-31750000D01*
X33223200Y-65351800D02*
X33681167Y-65809767D01*
X33020378Y-31750000D02*
X33223200Y-31952822D01*
X28041600Y-21234400D02*
X28041600Y-31470600D01*
X28321000Y-31750000D02*
X33020378Y-31750000D01*
X35661600Y-21132800D02*
X28143200Y-21132800D01*
%TO.N,/MATRIX_RETURN*%
X37719000Y-46587003D02*
X38726324Y-45579679D01*
X37236400Y-48742600D02*
X37719000Y-48260000D01*
X37786900Y-62424900D02*
X39014400Y-63652400D01*
X39014400Y-65582800D02*
X38811200Y-65786000D01*
X37998400Y-65786000D02*
X37388800Y-66395600D01*
X37221960Y-62424900D02*
X37786900Y-62424900D01*
X37236400Y-48768000D02*
X37236400Y-48742600D01*
X38811200Y-65786000D02*
X37998400Y-65786000D01*
X37719000Y-48260000D02*
X37719000Y-46587003D01*
X37388800Y-66395600D02*
X37388800Y-69291200D01*
X39014400Y-63652400D02*
X39014400Y-65582800D01*
%TO.N,SEG_G_SWITCH*%
X51765200Y-45161200D02*
X51765200Y-48107600D01*
X49778500Y-53361299D02*
X49778500Y-54334701D01*
X51663600Y-45059600D02*
X51765200Y-45161200D01*
X49479000Y-53061799D02*
X49778500Y-53361299D01*
X53549397Y-42401252D02*
X51578748Y-42401252D01*
X49778500Y-54334701D02*
X49776800Y-54336401D01*
X49776800Y-54336401D02*
X49776800Y-54501200D01*
X51578748Y-42401252D02*
X50901600Y-43078400D01*
X51765200Y-48107600D02*
X49479000Y-50393800D01*
X50901600Y-43078400D02*
X50901600Y-44856400D01*
X49776800Y-54501200D02*
X50495200Y-55219600D01*
X51104800Y-45059600D02*
X51663600Y-45059600D01*
X49479000Y-50393800D02*
X49479000Y-53061799D01*
X50901600Y-44856400D02*
X51104800Y-45059600D01*
%TO.N,MATRIX_PWM*%
X40487600Y-63093600D02*
X40284400Y-63296800D01*
X38811200Y-67513200D02*
X38709600Y-67513200D01*
X40284400Y-66040000D02*
X38811200Y-67513200D01*
X40284400Y-63296800D02*
X40284400Y-66040000D01*
%TO.N,RXD*%
X39674800Y-48666400D02*
X39420800Y-48412400D01*
X39420800Y-48412400D02*
X39420800Y-46661196D01*
X39573200Y-38235604D02*
X39573200Y-36872000D01*
X40023200Y-38685604D02*
X39573200Y-38235604D01*
X40023200Y-46058796D02*
X40023200Y-38685604D01*
X39420800Y-46661196D02*
X40023200Y-46058796D01*
%TD*%
%TA.AperFunction,Conductor*%
%TO.N,GND*%
G36*
X42438717Y-63281147D02*
G01*
X42450760Y-63285632D01*
X42465419Y-63291975D01*
X42470636Y-63294531D01*
X42512043Y-63317295D01*
X42531819Y-63322372D01*
X42550227Y-63328675D01*
X42568953Y-63336779D01*
X42568955Y-63336780D01*
X42568956Y-63336780D01*
X42568958Y-63336781D01*
X42609887Y-63343263D01*
X42615606Y-63344169D01*
X42621315Y-63345351D01*
X42667073Y-63357100D01*
X42687487Y-63357100D01*
X42706886Y-63358627D01*
X42727046Y-63361820D01*
X42774069Y-63357375D01*
X42779907Y-63357100D01*
X43347737Y-63357100D01*
X43414776Y-63376785D01*
X43435418Y-63393419D01*
X43523813Y-63481814D01*
X43533719Y-63494178D01*
X43533929Y-63494005D01*
X43538904Y-63500019D01*
X43589997Y-63547999D01*
X43606975Y-63564976D01*
X43611133Y-63569134D01*
X43616705Y-63573456D01*
X43621145Y-63577249D01*
X43655581Y-63609586D01*
X43673470Y-63619420D01*
X43689736Y-63630104D01*
X43705862Y-63642613D01*
X43749201Y-63661367D01*
X43754448Y-63663937D01*
X43795843Y-63686695D01*
X43815621Y-63691773D01*
X43834024Y-63698074D01*
X43852755Y-63706180D01*
X43852756Y-63706180D01*
X43852758Y-63706181D01*
X43880153Y-63710519D01*
X43899400Y-63713568D01*
X43905116Y-63714751D01*
X43950873Y-63726500D01*
X43971293Y-63726500D01*
X43990692Y-63728027D01*
X44010844Y-63731218D01*
X44010845Y-63731219D01*
X44010845Y-63731218D01*
X44010846Y-63731219D01*
X44057862Y-63726775D01*
X44063699Y-63726500D01*
X45293463Y-63726500D01*
X45309210Y-63728238D01*
X45309236Y-63727968D01*
X45317002Y-63728701D01*
X45317006Y-63728702D01*
X45387055Y-63726500D01*
X45416953Y-63726500D01*
X45416954Y-63726500D01*
X45418319Y-63726327D01*
X45423959Y-63725614D01*
X45429782Y-63725156D01*
X45455805Y-63724338D01*
X45476987Y-63723673D01*
X45486778Y-63720827D01*
X45496578Y-63717980D01*
X45515635Y-63714032D01*
X45535894Y-63711474D01*
X45579818Y-63694082D01*
X45585318Y-63692199D01*
X45630690Y-63679018D01*
X45648262Y-63668625D01*
X45665729Y-63660068D01*
X45684714Y-63652552D01*
X45722923Y-63624790D01*
X45727801Y-63621585D01*
X45768459Y-63597542D01*
X45782899Y-63583100D01*
X45797689Y-63570470D01*
X45814204Y-63558472D01*
X45844314Y-63522073D01*
X45848240Y-63517760D01*
X46008985Y-63357018D01*
X46070308Y-63323534D01*
X46096665Y-63320700D01*
X48173438Y-63320700D01*
X48240477Y-63340385D01*
X48261119Y-63357019D01*
X48504581Y-63600481D01*
X48538066Y-63661804D01*
X48540900Y-63688162D01*
X48540900Y-65651566D01*
X48539161Y-65667313D01*
X48539432Y-65667339D01*
X48538698Y-65675105D01*
X48540900Y-65745157D01*
X48540900Y-65775059D01*
X48541784Y-65782056D01*
X48542242Y-65787879D01*
X48543726Y-65835089D01*
X48543727Y-65835091D01*
X48549422Y-65854695D01*
X48553367Y-65873742D01*
X48555926Y-65893997D01*
X48555927Y-65894000D01*
X48555928Y-65894003D01*
X48573314Y-65937916D01*
X48575206Y-65943444D01*
X48588381Y-65988792D01*
X48598772Y-66006362D01*
X48607332Y-66023835D01*
X48614847Y-66042817D01*
X48642609Y-66081027D01*
X48645816Y-66085910D01*
X48669858Y-66126562D01*
X48669862Y-66126566D01*
X48684289Y-66140993D01*
X48696926Y-66155788D01*
X48708928Y-66172307D01*
X48745331Y-66202422D01*
X48749631Y-66206335D01*
X49090388Y-66547092D01*
X49415510Y-66872214D01*
X49425416Y-66884578D01*
X49425626Y-66884405D01*
X49430601Y-66890419D01*
X49481695Y-66938400D01*
X49502824Y-66959529D01*
X49502828Y-66959532D01*
X49502831Y-66959535D01*
X49508405Y-66963858D01*
X49512847Y-66967652D01*
X49547279Y-66999986D01*
X49547283Y-66999989D01*
X49565163Y-67009818D01*
X49581427Y-67020501D01*
X49597560Y-67033014D01*
X49640901Y-67051769D01*
X49646150Y-67054341D01*
X49666227Y-67065378D01*
X49687540Y-67077095D01*
X49707318Y-67082173D01*
X49725719Y-67088473D01*
X49744455Y-67096581D01*
X49788962Y-67103629D01*
X49791103Y-67103969D01*
X49796812Y-67105151D01*
X49842570Y-67116900D01*
X49862984Y-67116900D01*
X49882383Y-67118427D01*
X49902543Y-67121620D01*
X49949566Y-67117175D01*
X49955404Y-67116900D01*
X50528306Y-67116900D01*
X50559137Y-67120794D01*
X50569675Y-67123500D01*
X50590089Y-67123500D01*
X50609488Y-67125027D01*
X50629648Y-67128220D01*
X50676671Y-67123775D01*
X50682509Y-67123500D01*
X51519011Y-67123500D01*
X51586050Y-67143185D01*
X51631805Y-67195989D01*
X51636941Y-67209180D01*
X51641869Y-67224346D01*
X51641873Y-67224356D01*
X51737360Y-67389744D01*
X51865147Y-67531666D01*
X52019648Y-67643918D01*
X52194112Y-67721594D01*
X52380913Y-67761300D01*
X52571887Y-67761300D01*
X52758688Y-67721594D01*
X52933152Y-67643918D01*
X53087653Y-67531666D01*
X53215440Y-67389744D01*
X53216184Y-67388454D01*
X53216811Y-67387856D01*
X53219262Y-67384484D01*
X53219878Y-67384932D01*
X53266751Y-67340239D01*
X53335357Y-67327015D01*
X53400223Y-67352983D01*
X53411253Y-67362773D01*
X54878481Y-68830001D01*
X54911966Y-68891324D01*
X54914800Y-68917682D01*
X54914800Y-94821647D01*
X54895115Y-94888686D01*
X54842311Y-94934441D01*
X54791248Y-94945646D01*
X39900850Y-94999500D01*
X26946400Y-94999500D01*
X26879361Y-94979815D01*
X26833606Y-94927011D01*
X26822400Y-94875500D01*
X26822400Y-89000003D01*
X27994415Y-89000003D01*
X28002433Y-89137658D01*
X28002538Y-89141264D01*
X28002538Y-89174583D01*
X28006406Y-89207683D01*
X28006720Y-89211274D01*
X28014738Y-89348928D01*
X28014739Y-89348938D01*
X28038679Y-89484708D01*
X28039202Y-89488276D01*
X28043070Y-89521371D01*
X28043074Y-89521394D01*
X28050756Y-89553812D01*
X28051485Y-89557341D01*
X28075427Y-89693120D01*
X28075430Y-89693132D01*
X28075431Y-89693136D01*
X28086053Y-89728617D01*
X28114978Y-89825234D01*
X28115912Y-89828718D01*
X28123595Y-89861137D01*
X28123596Y-89861140D01*
X28134988Y-89892439D01*
X28136122Y-89895862D01*
X28175672Y-90027968D01*
X28230293Y-90154594D01*
X28231624Y-90157945D01*
X28243016Y-90189243D01*
X28243020Y-90189251D01*
X28257960Y-90219000D01*
X28259484Y-90222268D01*
X28314106Y-90348894D01*
X28314108Y-90348897D01*
X28314111Y-90348904D01*
X28352987Y-90416241D01*
X28383056Y-90468322D01*
X28384767Y-90471496D01*
X28399724Y-90501275D01*
X28418027Y-90529104D01*
X28419921Y-90532174D01*
X28488870Y-90651597D01*
X28520683Y-90694329D01*
X28571236Y-90762233D01*
X28573270Y-90765139D01*
X28581169Y-90777149D01*
X28591585Y-90792987D01*
X28591588Y-90792990D01*
X28613004Y-90818514D01*
X28615241Y-90821343D01*
X28697584Y-90931949D01*
X28697589Y-90931955D01*
X28792219Y-91032256D01*
X28794617Y-91034950D01*
X28816025Y-91060464D01*
X28816028Y-91060467D01*
X28816030Y-91060469D01*
X28840275Y-91083343D01*
X28842808Y-91085877D01*
X28937442Y-91186183D01*
X28937448Y-91186188D01*
X28937450Y-91186190D01*
X29043070Y-91274816D01*
X29045765Y-91277214D01*
X29053628Y-91284632D01*
X29070003Y-91300081D01*
X29089660Y-91314715D01*
X29096725Y-91319975D01*
X29099555Y-91322212D01*
X29205195Y-91410854D01*
X29320404Y-91486628D01*
X29323359Y-91488697D01*
X29350076Y-91508587D01*
X29378922Y-91525241D01*
X29378927Y-91525244D01*
X29381984Y-91527129D01*
X29497207Y-91602913D01*
X29620460Y-91664813D01*
X29623600Y-91666506D01*
X29652462Y-91683170D01*
X29683078Y-91696376D01*
X29686300Y-91697879D01*
X29809549Y-91759777D01*
X29939132Y-91806941D01*
X29942463Y-91808264D01*
X29960945Y-91816237D01*
X29973067Y-91821466D01*
X29973079Y-91821470D01*
X29985658Y-91825235D01*
X30005005Y-91831027D01*
X30008382Y-91832146D01*
X30137989Y-91879319D01*
X30272218Y-91911131D01*
X30275606Y-91912039D01*
X30307566Y-91921608D01*
X30307573Y-91921609D01*
X30307576Y-91921610D01*
X30311933Y-91922378D01*
X30340417Y-91927400D01*
X30343876Y-91928114D01*
X30451702Y-91953670D01*
X30478081Y-91959922D01*
X30478085Y-91959922D01*
X30478086Y-91959923D01*
X30615067Y-91975933D01*
X30618578Y-91976448D01*
X30651420Y-91982239D01*
X30651421Y-91982239D01*
X30651426Y-91982240D01*
X30684692Y-91984177D01*
X30688262Y-91984489D01*
X30825241Y-92000500D01*
X30825248Y-92000500D01*
X30963139Y-92000500D01*
X30966740Y-92000604D01*
X30984193Y-92001621D01*
X30999998Y-92002542D01*
X31000000Y-92002542D01*
X31000002Y-92002542D01*
X31015806Y-92001621D01*
X31033259Y-92000604D01*
X31036861Y-92000500D01*
X31174752Y-92000500D01*
X31174759Y-92000500D01*
X31311760Y-91984486D01*
X31315284Y-91984178D01*
X31348574Y-91982240D01*
X31348578Y-91982239D01*
X31348582Y-91982239D01*
X31359110Y-91980382D01*
X31381412Y-91976449D01*
X31384937Y-91975933D01*
X31521914Y-91959923D01*
X31521924Y-91959920D01*
X31521928Y-91959920D01*
X31576274Y-91947039D01*
X31656111Y-91928117D01*
X31659631Y-91927392D01*
X31659643Y-91927390D01*
X31692434Y-91921608D01*
X31724406Y-91912036D01*
X31727777Y-91911132D01*
X31862011Y-91879319D01*
X31991628Y-91832142D01*
X31994962Y-91831037D01*
X32026930Y-91821467D01*
X32057565Y-91808252D01*
X32060831Y-91806954D01*
X32190451Y-91759777D01*
X32313731Y-91697863D01*
X32316900Y-91696385D01*
X32347538Y-91683170D01*
X32376404Y-91666503D01*
X32379533Y-91664816D01*
X32502793Y-91602913D01*
X32618064Y-91527097D01*
X32621023Y-91525272D01*
X32649924Y-91508587D01*
X32676685Y-91488663D01*
X32679555Y-91486653D01*
X32794811Y-91410849D01*
X32900487Y-91322176D01*
X32903216Y-91320018D01*
X32929997Y-91300081D01*
X32954286Y-91277164D01*
X32956874Y-91274862D01*
X33062558Y-91186183D01*
X33157208Y-91085859D01*
X33159706Y-91083360D01*
X33183970Y-91060469D01*
X33205400Y-91034929D01*
X33207754Y-91032284D01*
X33302412Y-90931953D01*
X33384774Y-90821320D01*
X33386970Y-90818543D01*
X33408409Y-90792994D01*
X33426743Y-90765118D01*
X33428764Y-90762231D01*
X33511130Y-90651596D01*
X33580088Y-90532155D01*
X33581960Y-90529122D01*
X33600278Y-90501271D01*
X33615253Y-90471452D01*
X33616929Y-90468345D01*
X33685889Y-90348904D01*
X33740511Y-90222276D01*
X33742028Y-90219020D01*
X33756982Y-90189246D01*
X33756983Y-90189242D01*
X33756984Y-90189242D01*
X33760607Y-90179284D01*
X33768388Y-90157906D01*
X33769689Y-90154633D01*
X33824326Y-90027971D01*
X33863878Y-89895856D01*
X33865000Y-89892469D01*
X33876404Y-89861139D01*
X33884104Y-89828649D01*
X33885004Y-89825289D01*
X33924569Y-89693136D01*
X33924572Y-89693120D01*
X33924573Y-89693117D01*
X33932285Y-89649370D01*
X33948521Y-89557294D01*
X33949229Y-89553862D01*
X33956927Y-89521386D01*
X33960801Y-89488236D01*
X33961313Y-89484745D01*
X33985262Y-89348927D01*
X33993283Y-89211204D01*
X33993588Y-89207725D01*
X33997462Y-89174582D01*
X33998141Y-89127794D01*
X34005585Y-89000000D01*
X33998141Y-88872208D01*
X33997462Y-88825418D01*
X33993588Y-88792281D01*
X33993281Y-88788761D01*
X33985262Y-88651073D01*
X33961315Y-88515264D01*
X33960795Y-88511711D01*
X33956927Y-88478614D01*
X33949240Y-88446180D01*
X33948516Y-88442675D01*
X33924817Y-88308268D01*
X33924573Y-88306882D01*
X33924567Y-88306858D01*
X33885009Y-88174725D01*
X33884095Y-88171311D01*
X33876404Y-88138861D01*
X33876401Y-88138854D01*
X33865012Y-88107563D01*
X33865004Y-88107540D01*
X33863878Y-88104142D01*
X33824326Y-87972029D01*
X33769701Y-87845394D01*
X33768369Y-87842040D01*
X33756984Y-87810759D01*
X33756983Y-87810757D01*
X33756982Y-87810754D01*
X33742031Y-87780983D01*
X33740519Y-87777744D01*
X33685889Y-87651096D01*
X33616939Y-87531671D01*
X33615233Y-87528508D01*
X33600281Y-87498735D01*
X33600278Y-87498729D01*
X33581959Y-87470876D01*
X33580072Y-87467816D01*
X33511129Y-87348402D01*
X33428789Y-87237801D01*
X33426720Y-87234846D01*
X33421809Y-87227380D01*
X33408409Y-87207006D01*
X33386989Y-87181479D01*
X33384757Y-87178655D01*
X33302413Y-87068048D01*
X33302410Y-87068044D01*
X33207779Y-86967742D01*
X33205381Y-86965047D01*
X33183969Y-86939529D01*
X33183968Y-86939528D01*
X33159732Y-86916663D01*
X33157191Y-86914122D01*
X33062558Y-86813817D01*
X32997326Y-86759081D01*
X32956937Y-86725190D01*
X32954243Y-86722793D01*
X32940990Y-86710290D01*
X32929997Y-86699919D01*
X32903267Y-86680019D01*
X32900445Y-86677788D01*
X32794804Y-86589145D01*
X32679604Y-86513378D01*
X32676650Y-86511309D01*
X32649924Y-86491413D01*
X32621067Y-86474752D01*
X32617998Y-86472859D01*
X32502793Y-86397087D01*
X32379568Y-86335201D01*
X32376393Y-86333489D01*
X32347544Y-86316833D01*
X32347540Y-86316831D01*
X32347538Y-86316830D01*
X32316951Y-86303636D01*
X32313683Y-86302112D01*
X32257740Y-86274017D01*
X32190451Y-86240223D01*
X32157613Y-86228271D01*
X32060877Y-86193061D01*
X32057525Y-86191730D01*
X32026932Y-86178534D01*
X32026921Y-86178529D01*
X31995005Y-86168975D01*
X31991597Y-86167846D01*
X31862011Y-86120681D01*
X31862010Y-86120680D01*
X31862008Y-86120680D01*
X31727836Y-86088881D01*
X31724353Y-86087947D01*
X31692446Y-86078395D01*
X31692437Y-86078393D01*
X31692434Y-86078392D01*
X31692428Y-86078391D01*
X31692424Y-86078390D01*
X31659618Y-86072604D01*
X31656089Y-86071875D01*
X31521911Y-86040076D01*
X31521905Y-86040075D01*
X31384959Y-86024068D01*
X31381392Y-86023546D01*
X31348575Y-86017760D01*
X31315315Y-86015822D01*
X31311724Y-86015508D01*
X31216396Y-86004366D01*
X31174759Y-85999500D01*
X31036861Y-85999500D01*
X31033259Y-85999395D01*
X31015806Y-85998378D01*
X31000002Y-85997458D01*
X30999998Y-85997458D01*
X30984193Y-85998378D01*
X30966740Y-85999395D01*
X30963139Y-85999500D01*
X30825241Y-85999500D01*
X30796218Y-86002892D01*
X30688274Y-86015508D01*
X30684683Y-86015822D01*
X30651420Y-86017760D01*
X30618591Y-86023548D01*
X30615025Y-86024070D01*
X30478094Y-86040075D01*
X30478088Y-86040076D01*
X30343915Y-86071874D01*
X30340386Y-86072603D01*
X30307574Y-86078390D01*
X30307566Y-86078392D01*
X30275647Y-86087946D01*
X30272166Y-86088879D01*
X30138002Y-86120676D01*
X30137987Y-86120681D01*
X30008421Y-86167839D01*
X30004999Y-86168972D01*
X29973083Y-86178528D01*
X29973059Y-86178536D01*
X29942484Y-86191725D01*
X29939134Y-86193056D01*
X29809556Y-86240219D01*
X29809551Y-86240221D01*
X29686328Y-86302106D01*
X29683061Y-86303629D01*
X29652469Y-86316826D01*
X29652461Y-86316830D01*
X29623597Y-86333493D01*
X29620425Y-86335203D01*
X29497207Y-86397086D01*
X29497204Y-86397088D01*
X29381989Y-86472866D01*
X29378921Y-86474758D01*
X29350085Y-86491407D01*
X29350080Y-86491410D01*
X29350076Y-86491413D01*
X29343063Y-86496633D01*
X29323351Y-86511307D01*
X29320400Y-86513374D01*
X29205195Y-86589147D01*
X29205173Y-86589163D01*
X29099558Y-86677783D01*
X29096732Y-86680019D01*
X29070004Y-86699918D01*
X29045762Y-86722788D01*
X29043070Y-86725184D01*
X28937444Y-86813814D01*
X28842798Y-86914131D01*
X28840249Y-86916681D01*
X28816031Y-86939528D01*
X28794626Y-86965037D01*
X28792230Y-86967729D01*
X28697586Y-87068048D01*
X28615236Y-87178662D01*
X28613001Y-87181488D01*
X28591595Y-87207001D01*
X28591588Y-87207010D01*
X28573284Y-87234838D01*
X28571217Y-87237790D01*
X28488873Y-87348399D01*
X28488863Y-87348414D01*
X28419914Y-87467835D01*
X28418022Y-87470903D01*
X28399723Y-87498726D01*
X28399718Y-87498735D01*
X28384769Y-87528498D01*
X28383059Y-87531670D01*
X28314115Y-87651088D01*
X28314107Y-87651104D01*
X28259492Y-87777716D01*
X28257968Y-87780983D01*
X28243019Y-87810750D01*
X28243017Y-87810754D01*
X28231628Y-87842044D01*
X28230297Y-87845395D01*
X28175673Y-87972029D01*
X28136120Y-88104142D01*
X28134987Y-88107563D01*
X28123598Y-88138854D01*
X28115913Y-88171275D01*
X28114980Y-88174757D01*
X28075431Y-88306862D01*
X28075427Y-88306879D01*
X28051485Y-88442661D01*
X28050756Y-88446191D01*
X28043073Y-88478613D01*
X28043070Y-88478628D01*
X28039202Y-88511724D01*
X28038679Y-88515292D01*
X28014739Y-88651061D01*
X28014738Y-88651071D01*
X28006720Y-88788724D01*
X28006406Y-88792315D01*
X28002538Y-88825414D01*
X28002538Y-88858734D01*
X28002433Y-88862340D01*
X27994415Y-88999996D01*
X27994415Y-89000003D01*
X26822400Y-89000003D01*
X26822400Y-80054800D01*
X26842085Y-79987761D01*
X26894889Y-79942006D01*
X26946400Y-79930800D01*
X33024400Y-79930800D01*
X33024400Y-66348605D01*
X33044085Y-66281566D01*
X33096889Y-66235811D01*
X33166047Y-66225867D01*
X33229603Y-66254892D01*
X33233265Y-66258195D01*
X33240262Y-66264766D01*
X33261397Y-66285901D01*
X33266969Y-66290223D01*
X33271409Y-66294016D01*
X33305845Y-66326353D01*
X33323734Y-66336187D01*
X33340000Y-66346871D01*
X33356126Y-66359380D01*
X33399465Y-66378134D01*
X33404712Y-66380704D01*
X33446107Y-66403462D01*
X33465885Y-66408540D01*
X33484286Y-66414840D01*
X33503022Y-66422948D01*
X33544588Y-66429531D01*
X33549670Y-66430336D01*
X33555379Y-66431518D01*
X33601137Y-66443267D01*
X33621551Y-66443267D01*
X33640950Y-66444794D01*
X33661110Y-66447987D01*
X33708133Y-66443542D01*
X33713971Y-66443267D01*
X36165524Y-66443267D01*
X36232563Y-66462952D01*
X36257673Y-66484294D01*
X36261580Y-66488633D01*
X36416081Y-66600885D01*
X36590545Y-66678561D01*
X36657083Y-66692703D01*
X36718562Y-66725895D01*
X36752339Y-66787057D01*
X36755300Y-66813993D01*
X36755300Y-68589441D01*
X36735615Y-68656480D01*
X36723450Y-68672413D01*
X36649763Y-68754250D01*
X36649758Y-68754257D01*
X36554273Y-68919643D01*
X36554270Y-68919650D01*
X36495259Y-69101268D01*
X36495258Y-69101272D01*
X36475296Y-69291200D01*
X36495258Y-69481128D01*
X36495259Y-69481131D01*
X36554270Y-69662749D01*
X36554273Y-69662756D01*
X36649760Y-69828144D01*
X36777547Y-69970066D01*
X36932048Y-70082318D01*
X37106512Y-70159994D01*
X37293313Y-70199700D01*
X37484287Y-70199700D01*
X37671088Y-70159994D01*
X37845552Y-70082318D01*
X38000053Y-69970066D01*
X38127840Y-69828144D01*
X38223327Y-69662756D01*
X38282342Y-69481128D01*
X38302304Y-69291200D01*
X38282342Y-69101272D01*
X38223327Y-68919644D01*
X38175583Y-68836950D01*
X38127841Y-68754257D01*
X38127836Y-68754250D01*
X38054150Y-68672413D01*
X38023920Y-68609421D01*
X38022300Y-68589441D01*
X38022300Y-68380178D01*
X38041985Y-68313139D01*
X38094789Y-68267384D01*
X38163947Y-68257440D01*
X38219184Y-68279860D01*
X38252848Y-68304318D01*
X38427312Y-68381994D01*
X38614113Y-68421700D01*
X38805087Y-68421700D01*
X38991888Y-68381994D01*
X39166352Y-68304318D01*
X39320853Y-68192066D01*
X39448640Y-68050144D01*
X39544127Y-67884756D01*
X39603142Y-67703128D01*
X39608648Y-67650735D01*
X39635231Y-67586121D01*
X39644279Y-67576023D01*
X40673215Y-66547087D01*
X40685580Y-66537183D01*
X40685406Y-66536973D01*
X40691412Y-66532003D01*
X40691418Y-66532000D01*
X40739399Y-66480904D01*
X40760534Y-66459770D01*
X40764855Y-66454198D01*
X40768640Y-66449765D01*
X40794676Y-66422039D01*
X40854916Y-66386645D01*
X40924730Y-66389437D01*
X40981952Y-66429531D01*
X40993724Y-66447174D01*
X40994847Y-66449216D01*
X41022609Y-66487427D01*
X41025816Y-66492310D01*
X41049858Y-66532962D01*
X41049862Y-66532966D01*
X41064289Y-66547393D01*
X41076926Y-66562188D01*
X41088928Y-66578707D01*
X41125331Y-66608822D01*
X41129631Y-66612735D01*
X41473007Y-66956111D01*
X41798981Y-67282085D01*
X41832466Y-67343408D01*
X41835300Y-67369766D01*
X41835300Y-70732593D01*
X41818687Y-70794593D01*
X41786673Y-70850042D01*
X41727659Y-71031668D01*
X41727658Y-71031672D01*
X41707696Y-71221600D01*
X41727658Y-71411528D01*
X41727659Y-71411531D01*
X41786670Y-71593149D01*
X41786673Y-71593156D01*
X41882160Y-71758544D01*
X42009947Y-71900466D01*
X42164448Y-72012718D01*
X42338912Y-72090394D01*
X42525713Y-72130100D01*
X42716687Y-72130100D01*
X42903488Y-72090394D01*
X43077952Y-72012718D01*
X43232453Y-71900466D01*
X43360240Y-71758544D01*
X43455727Y-71593156D01*
X43514742Y-71411528D01*
X43534704Y-71221600D01*
X43514742Y-71031672D01*
X43455727Y-70850044D01*
X43360240Y-70684656D01*
X43232453Y-70542734D01*
X43232449Y-70542731D01*
X43153414Y-70485307D01*
X43110748Y-70429977D01*
X43102300Y-70384990D01*
X43102300Y-67139631D01*
X43104039Y-67123879D01*
X43103768Y-67123854D01*
X43104500Y-67116098D01*
X43104502Y-67116091D01*
X43102300Y-67046028D01*
X43102300Y-67016144D01*
X43101414Y-67009141D01*
X43100957Y-67003322D01*
X43100852Y-66999986D01*
X43099474Y-66956111D01*
X43093776Y-66936499D01*
X43089833Y-66917466D01*
X43087274Y-66897203D01*
X43069885Y-66853286D01*
X43067996Y-66847766D01*
X43054818Y-66802407D01*
X43044426Y-66784835D01*
X43035866Y-66767362D01*
X43028352Y-66748383D01*
X43000594Y-66710179D01*
X42997387Y-66705296D01*
X42987673Y-66688871D01*
X42973342Y-66664638D01*
X42958908Y-66650204D01*
X42946271Y-66635409D01*
X42934272Y-66618893D01*
X42934270Y-66618890D01*
X42897873Y-66588781D01*
X42893551Y-66584847D01*
X42224219Y-65915514D01*
X42190734Y-65854191D01*
X42187900Y-65827833D01*
X42187900Y-63639595D01*
X42189405Y-63620336D01*
X42189444Y-63620084D01*
X42190019Y-63616454D01*
X42191192Y-63610773D01*
X42202952Y-63564978D01*
X42202952Y-63544563D01*
X42204479Y-63525162D01*
X42204737Y-63523537D01*
X42207672Y-63505005D01*
X42206328Y-63490790D01*
X42219613Y-63422197D01*
X42237623Y-63396151D01*
X42308492Y-63317444D01*
X42308492Y-63317442D01*
X42309374Y-63316464D01*
X42368860Y-63279816D01*
X42438717Y-63281147D01*
G37*
%TD.AperFunction*%
%TA.AperFunction,Conductor*%
G36*
X34061903Y-60919845D02*
G01*
X34068381Y-60925877D01*
X35231718Y-62089214D01*
X35241624Y-62101578D01*
X35241834Y-62101405D01*
X35246809Y-62107419D01*
X35297902Y-62155399D01*
X35319033Y-62176529D01*
X35319038Y-62176534D01*
X35324610Y-62180856D01*
X35329050Y-62184649D01*
X35363486Y-62216986D01*
X35381375Y-62226820D01*
X35397641Y-62237504D01*
X35413767Y-62250013D01*
X35457106Y-62268767D01*
X35462353Y-62271337D01*
X35503748Y-62294095D01*
X35523526Y-62299173D01*
X35541927Y-62305473D01*
X35560663Y-62313581D01*
X35605170Y-62320629D01*
X35607311Y-62320969D01*
X35613020Y-62322151D01*
X35658778Y-62333900D01*
X35679192Y-62333900D01*
X35698591Y-62335427D01*
X35718751Y-62338620D01*
X35765774Y-62334175D01*
X35771612Y-62333900D01*
X36187241Y-62333900D01*
X36254280Y-62353585D01*
X36300035Y-62406389D01*
X36310562Y-62444938D01*
X36328418Y-62614828D01*
X36328419Y-62614831D01*
X36387430Y-62796449D01*
X36387433Y-62796456D01*
X36482920Y-62961844D01*
X36550118Y-63036475D01*
X36608297Y-63101090D01*
X36610707Y-63103766D01*
X36765208Y-63216018D01*
X36939672Y-63293694D01*
X37126473Y-63333400D01*
X37317447Y-63333400D01*
X37504248Y-63293694D01*
X37603211Y-63249632D01*
X37672460Y-63240348D01*
X37735737Y-63269976D01*
X37741327Y-63275231D01*
X38344581Y-63878485D01*
X38378066Y-63939808D01*
X38380900Y-63966166D01*
X38380900Y-65028500D01*
X38361215Y-65095539D01*
X38308411Y-65141294D01*
X38256900Y-65152500D01*
X38082032Y-65152500D01*
X38066280Y-65150760D01*
X38066255Y-65151032D01*
X38058493Y-65150298D01*
X38058492Y-65150298D01*
X37988429Y-65152500D01*
X37958544Y-65152500D01*
X37958541Y-65152500D01*
X37958529Y-65152501D01*
X37951537Y-65153384D01*
X37945720Y-65153841D01*
X37898511Y-65155325D01*
X37898509Y-65155326D01*
X37878896Y-65161023D01*
X37859859Y-65164965D01*
X37839608Y-65167524D01*
X37839602Y-65167526D01*
X37795699Y-65184907D01*
X37790175Y-65186798D01*
X37744806Y-65199981D01*
X37744801Y-65199983D01*
X37727227Y-65210376D01*
X37709762Y-65218932D01*
X37683533Y-65229318D01*
X37682426Y-65226523D01*
X37627870Y-65238512D01*
X37562354Y-65214233D01*
X37544306Y-65197782D01*
X37484087Y-65130902D01*
X37435415Y-65095539D01*
X37329585Y-65018649D01*
X37155121Y-64940973D01*
X37155119Y-64940972D01*
X36968320Y-64901267D01*
X36777346Y-64901267D01*
X36590547Y-64940972D01*
X36416079Y-65018650D01*
X36261578Y-65130902D01*
X36257673Y-65135240D01*
X36198187Y-65171888D01*
X36165524Y-65176267D01*
X33994934Y-65176267D01*
X33927895Y-65156582D01*
X33907250Y-65139945D01*
X33893016Y-65125710D01*
X33859533Y-65064386D01*
X33856700Y-65038032D01*
X33856700Y-61013558D01*
X33876385Y-60946519D01*
X33929189Y-60900764D01*
X33998347Y-60890820D01*
X34061903Y-60919845D01*
G37*
%TD.AperFunction*%
%TA.AperFunction,Conductor*%
G36*
X54848350Y-60231734D02*
G01*
X54898596Y-60280283D01*
X54914800Y-60341570D01*
X54914800Y-60500388D01*
X54895115Y-60567427D01*
X54842311Y-60613182D01*
X54816582Y-60621678D01*
X54683313Y-60650005D01*
X54508846Y-60727683D01*
X54354345Y-60839935D01*
X54226559Y-60981857D01*
X54131073Y-61147243D01*
X54131070Y-61147250D01*
X54079160Y-61307014D01*
X54072058Y-61328872D01*
X54052096Y-61518800D01*
X54072058Y-61708728D01*
X54072059Y-61708731D01*
X54131070Y-61890349D01*
X54131073Y-61890356D01*
X54226560Y-62055744D01*
X54354347Y-62197666D01*
X54508848Y-62309918D01*
X54683312Y-62387594D01*
X54816582Y-62415921D01*
X54878063Y-62449113D01*
X54911839Y-62510276D01*
X54914800Y-62537211D01*
X54914800Y-62539300D01*
X54895115Y-62606339D01*
X54842311Y-62652094D01*
X54790800Y-62663300D01*
X54563132Y-62663300D01*
X54547380Y-62661560D01*
X54547355Y-62661832D01*
X54539593Y-62661098D01*
X54539592Y-62661098D01*
X54469529Y-62663300D01*
X54439644Y-62663300D01*
X54439641Y-62663300D01*
X54439629Y-62663301D01*
X54432637Y-62664184D01*
X54426820Y-62664641D01*
X54379611Y-62666125D01*
X54379609Y-62666126D01*
X54359996Y-62671823D01*
X54340959Y-62675765D01*
X54320708Y-62678324D01*
X54320702Y-62678326D01*
X54276799Y-62695707D01*
X54271275Y-62697598D01*
X54225906Y-62710781D01*
X54225901Y-62710783D01*
X54208327Y-62721176D01*
X54190862Y-62729732D01*
X54171887Y-62737245D01*
X54171885Y-62737246D01*
X54133676Y-62765006D01*
X54128794Y-62768212D01*
X54088135Y-62792258D01*
X54073700Y-62806694D01*
X54058912Y-62819325D01*
X54042394Y-62831326D01*
X54042392Y-62831328D01*
X54012286Y-62867719D01*
X54008354Y-62872039D01*
X53893415Y-62986980D01*
X53832092Y-63020466D01*
X53805733Y-63023300D01*
X53749013Y-63023300D01*
X53562214Y-63063005D01*
X53562212Y-63063006D01*
X53453980Y-63111194D01*
X53387746Y-63140683D01*
X53233245Y-63252935D01*
X53229340Y-63257273D01*
X53169854Y-63293921D01*
X53137191Y-63298300D01*
X52764767Y-63298300D01*
X52697728Y-63278615D01*
X52677086Y-63261981D01*
X51320888Y-61905783D01*
X51310987Y-61893423D01*
X51310777Y-61893598D01*
X51305802Y-61887586D01*
X51305800Y-61887582D01*
X51279458Y-61862845D01*
X51254722Y-61839616D01*
X51233568Y-61818463D01*
X51231592Y-61816931D01*
X51227983Y-61814131D01*
X51223550Y-61810344D01*
X51189119Y-61778011D01*
X51182815Y-61773432D01*
X51183233Y-61772855D01*
X51164852Y-61759053D01*
X50428761Y-61022961D01*
X50395276Y-60961638D01*
X50393121Y-60922321D01*
X50402209Y-60835860D01*
X50382247Y-60645932D01*
X50338090Y-60510034D01*
X50336096Y-60440194D01*
X50372176Y-60380361D01*
X50434877Y-60349533D01*
X50490624Y-60352643D01*
X50495225Y-60353980D01*
X50495227Y-60353980D01*
X50495229Y-60353981D01*
X50536138Y-60360460D01*
X50541868Y-60361368D01*
X50547591Y-60362553D01*
X50588108Y-60372956D01*
X50593343Y-60374300D01*
X50613758Y-60374300D01*
X50633157Y-60375827D01*
X50653317Y-60379020D01*
X50700340Y-60374575D01*
X50706178Y-60374300D01*
X54237546Y-60374300D01*
X54253293Y-60376038D01*
X54253319Y-60375768D01*
X54261085Y-60376501D01*
X54261089Y-60376502D01*
X54331138Y-60374300D01*
X54361036Y-60374300D01*
X54361037Y-60374300D01*
X54362402Y-60374127D01*
X54368042Y-60373414D01*
X54373865Y-60372956D01*
X54399888Y-60372138D01*
X54421070Y-60371473D01*
X54430861Y-60368627D01*
X54440661Y-60365780D01*
X54459718Y-60361832D01*
X54479977Y-60359274D01*
X54523901Y-60341882D01*
X54529401Y-60339999D01*
X54574773Y-60326818D01*
X54592345Y-60316425D01*
X54609812Y-60307868D01*
X54628797Y-60300352D01*
X54667006Y-60272590D01*
X54671884Y-60269385D01*
X54712542Y-60245342D01*
X54712548Y-60245335D01*
X54714796Y-60243593D01*
X54716893Y-60242769D01*
X54719260Y-60241370D01*
X54719485Y-60241751D01*
X54779832Y-60218056D01*
X54848350Y-60231734D01*
G37*
%TD.AperFunction*%
%TA.AperFunction,Conductor*%
G36*
X39560014Y-62709185D02*
G01*
X39605769Y-62761989D01*
X39615713Y-62831147D01*
X39610906Y-62851817D01*
X39594059Y-62903666D01*
X39580100Y-63036475D01*
X39553515Y-63101090D01*
X39496218Y-63141074D01*
X39426398Y-63143734D01*
X39369098Y-63111194D01*
X39159085Y-62901181D01*
X39125600Y-62839858D01*
X39130584Y-62770166D01*
X39172456Y-62714233D01*
X39237920Y-62689816D01*
X39246766Y-62689500D01*
X39492975Y-62689500D01*
X39560014Y-62709185D01*
G37*
%TD.AperFunction*%
%TA.AperFunction,Conductor*%
G36*
X36914513Y-46660038D02*
G01*
X36914539Y-46659768D01*
X36922304Y-46660501D01*
X36922304Y-46660500D01*
X36922309Y-46660502D01*
X36957604Y-46659392D01*
X37025228Y-46676960D01*
X37072620Y-46728300D01*
X37085500Y-46783331D01*
X37085500Y-47770865D01*
X37065815Y-47837904D01*
X37013011Y-47883659D01*
X36987282Y-47892155D01*
X36954113Y-47899205D01*
X36779644Y-47976884D01*
X36625145Y-48089135D01*
X36497359Y-48231057D01*
X36401873Y-48396443D01*
X36401870Y-48396450D01*
X36342859Y-48578068D01*
X36342858Y-48578072D01*
X36322896Y-48768000D01*
X36342858Y-48957928D01*
X36342859Y-48957931D01*
X36401870Y-49139549D01*
X36401873Y-49139556D01*
X36497360Y-49304944D01*
X36625147Y-49446866D01*
X36779648Y-49559118D01*
X36954112Y-49636794D01*
X37140913Y-49676500D01*
X37331887Y-49676500D01*
X37518688Y-49636794D01*
X37693152Y-49559118D01*
X37847653Y-49446866D01*
X37939136Y-49345264D01*
X37979789Y-49300115D01*
X37980920Y-49301133D01*
X38030068Y-49263218D01*
X38099680Y-49257223D01*
X38125513Y-49265478D01*
X38274912Y-49331994D01*
X38461713Y-49371700D01*
X38652687Y-49371700D01*
X38839488Y-49331994D01*
X38908595Y-49301224D01*
X38977844Y-49291939D01*
X39041121Y-49321567D01*
X39051179Y-49331530D01*
X39063547Y-49345266D01*
X39218048Y-49457518D01*
X39392512Y-49535194D01*
X39579313Y-49574900D01*
X39770287Y-49574900D01*
X39957083Y-49535195D01*
X39957082Y-49535195D01*
X39957088Y-49535194D01*
X40123777Y-49460979D01*
X40193024Y-49451696D01*
X40247092Y-49473941D01*
X40259448Y-49482918D01*
X40433912Y-49560594D01*
X40620713Y-49600300D01*
X40686604Y-49600300D01*
X40753643Y-49619985D01*
X40799398Y-49672789D01*
X40808643Y-49712286D01*
X40809306Y-49712182D01*
X40810527Y-49719891D01*
X40816222Y-49739495D01*
X40820167Y-49758542D01*
X40822726Y-49778797D01*
X40822727Y-49778800D01*
X40822728Y-49778803D01*
X40840114Y-49822716D01*
X40842006Y-49828244D01*
X40855181Y-49873592D01*
X40865572Y-49891162D01*
X40874132Y-49908635D01*
X40881647Y-49927617D01*
X40909409Y-49965827D01*
X40912616Y-49970710D01*
X40936658Y-50011362D01*
X40936662Y-50011366D01*
X40951089Y-50025793D01*
X40963726Y-50040588D01*
X40975728Y-50057107D01*
X41012131Y-50087222D01*
X41016431Y-50091135D01*
X41190821Y-50265525D01*
X41226810Y-50301514D01*
X41236716Y-50313878D01*
X41236926Y-50313705D01*
X41241901Y-50319719D01*
X41292994Y-50367699D01*
X41314125Y-50388829D01*
X41314130Y-50388834D01*
X41319702Y-50393156D01*
X41324142Y-50396949D01*
X41358578Y-50429286D01*
X41376467Y-50439120D01*
X41392733Y-50449804D01*
X41408859Y-50462313D01*
X41452198Y-50481067D01*
X41457445Y-50483637D01*
X41498840Y-50506395D01*
X41518618Y-50511473D01*
X41537019Y-50517773D01*
X41555755Y-50525881D01*
X41600262Y-50532929D01*
X41602403Y-50533269D01*
X41608112Y-50534451D01*
X41653870Y-50546200D01*
X41674284Y-50546200D01*
X41693683Y-50547727D01*
X41713843Y-50550920D01*
X41760866Y-50546475D01*
X41766704Y-50546200D01*
X46671500Y-50546200D01*
X46738539Y-50565885D01*
X46784294Y-50618689D01*
X46795500Y-50670200D01*
X46795500Y-59597421D01*
X46775815Y-59664460D01*
X46723011Y-59710215D01*
X46653853Y-59720159D01*
X46598620Y-59697743D01*
X46594427Y-59694697D01*
X46594426Y-59694696D01*
X46594422Y-59694694D01*
X46419958Y-59617018D01*
X46419956Y-59617017D01*
X46233157Y-59577312D01*
X46042183Y-59577312D01*
X45855384Y-59617017D01*
X45769873Y-59655089D01*
X45712617Y-59680581D01*
X45680916Y-59694695D01*
X45526415Y-59806947D01*
X45398629Y-59948869D01*
X45303143Y-60114255D01*
X45303140Y-60114262D01*
X45251696Y-60272591D01*
X45244128Y-60295884D01*
X45224166Y-60485812D01*
X45244128Y-60675740D01*
X45244129Y-60675743D01*
X45303140Y-60857361D01*
X45303145Y-60857372D01*
X45307141Y-60864294D01*
X45323609Y-60932195D01*
X45300753Y-60998220D01*
X45287431Y-61013968D01*
X44791681Y-61509719D01*
X44730358Y-61543204D01*
X44660667Y-61538220D01*
X44616319Y-61509719D01*
X44541383Y-61434783D01*
X44531482Y-61422423D01*
X44531272Y-61422598D01*
X44526297Y-61416586D01*
X44526295Y-61416582D01*
X44499953Y-61391845D01*
X44475217Y-61368616D01*
X44454063Y-61347463D01*
X44452087Y-61345931D01*
X44448478Y-61343131D01*
X44444045Y-61339344D01*
X44433242Y-61329200D01*
X44409616Y-61307014D01*
X44409614Y-61307012D01*
X44391726Y-61297178D01*
X44375465Y-61286497D01*
X44359334Y-61273984D01*
X44315988Y-61255227D01*
X44310740Y-61252656D01*
X44283546Y-61237706D01*
X44269355Y-61229905D01*
X44265955Y-61229032D01*
X44249582Y-61224828D01*
X44231176Y-61218526D01*
X44212439Y-61210418D01*
X44212441Y-61210418D01*
X44165791Y-61203030D01*
X44160076Y-61201846D01*
X44139907Y-61196668D01*
X44114327Y-61190100D01*
X44114325Y-61190100D01*
X44093911Y-61190100D01*
X44074512Y-61188573D01*
X44054353Y-61185380D01*
X44054352Y-61185380D01*
X44007329Y-61189825D01*
X44001491Y-61190100D01*
X43996231Y-61190100D01*
X43929192Y-61170415D01*
X43883437Y-61117611D01*
X43873493Y-61048453D01*
X43878300Y-61027782D01*
X43899791Y-60961638D01*
X43921142Y-60895928D01*
X43941104Y-60706000D01*
X43921142Y-60516072D01*
X43862127Y-60334444D01*
X43766640Y-60169056D01*
X43638853Y-60027134D01*
X43484352Y-59914882D01*
X43309888Y-59837206D01*
X43309886Y-59837205D01*
X43123087Y-59797500D01*
X42932113Y-59797500D01*
X42745314Y-59837205D01*
X42680316Y-59866144D01*
X42579004Y-59911251D01*
X42570846Y-59914883D01*
X42416345Y-60027135D01*
X42412440Y-60031473D01*
X42352954Y-60068121D01*
X42320291Y-60072500D01*
X38931072Y-60072500D01*
X38864033Y-60052815D01*
X38843391Y-60036181D01*
X38768793Y-59961583D01*
X38758892Y-59949223D01*
X38758682Y-59949398D01*
X38753707Y-59943386D01*
X38753705Y-59943382D01*
X38727363Y-59918645D01*
X38702627Y-59895416D01*
X38681473Y-59874263D01*
X38679497Y-59872731D01*
X38675888Y-59869931D01*
X38671455Y-59866144D01*
X38655338Y-59851010D01*
X38637026Y-59833814D01*
X38637024Y-59833812D01*
X38619136Y-59823978D01*
X38602875Y-59813297D01*
X38586744Y-59800784D01*
X38543398Y-59782027D01*
X38538150Y-59779456D01*
X38510956Y-59764506D01*
X38496765Y-59756705D01*
X38493365Y-59755832D01*
X38476992Y-59751628D01*
X38458586Y-59745326D01*
X38439849Y-59737218D01*
X38439851Y-59737218D01*
X38393201Y-59729830D01*
X38387486Y-59728646D01*
X38367317Y-59723468D01*
X38341737Y-59716900D01*
X38341735Y-59716900D01*
X38321321Y-59716900D01*
X38301922Y-59715373D01*
X38281763Y-59712180D01*
X38281762Y-59712180D01*
X38234739Y-59716625D01*
X38228901Y-59716900D01*
X36611763Y-59716900D01*
X36544724Y-59697215D01*
X36524082Y-59680581D01*
X35975819Y-59132318D01*
X35942334Y-59070995D01*
X35939500Y-59044637D01*
X35939500Y-46782300D01*
X35959185Y-46715261D01*
X36011989Y-46669506D01*
X36063500Y-46658300D01*
X36898766Y-46658300D01*
X36914513Y-46660038D01*
G37*
%TD.AperFunction*%
%TA.AperFunction,Conductor*%
G36*
X48717703Y-59458769D02*
G01*
X48743233Y-59489363D01*
X48752873Y-59505664D01*
X48761432Y-59523135D01*
X48768947Y-59542117D01*
X48796709Y-59580327D01*
X48799916Y-59585210D01*
X48823958Y-59625862D01*
X48823962Y-59625866D01*
X48838389Y-59640293D01*
X48851027Y-59655089D01*
X48863027Y-59671606D01*
X48863028Y-59671607D01*
X48899412Y-59701706D01*
X48903735Y-59705640D01*
X48998276Y-59800181D01*
X49008182Y-59812545D01*
X49008392Y-59812372D01*
X49013358Y-59818375D01*
X49013360Y-59818378D01*
X49013362Y-59818380D01*
X49013363Y-59818381D01*
X49048109Y-59851010D01*
X49083503Y-59911251D01*
X49080711Y-59981065D01*
X49040617Y-60038286D01*
X49036111Y-60041720D01*
X48877449Y-60156996D01*
X48877444Y-60157000D01*
X48871535Y-60163563D01*
X48812045Y-60200207D01*
X48742188Y-60198872D01*
X48691710Y-60168265D01*
X48548819Y-60025374D01*
X48515334Y-59964051D01*
X48512500Y-59937693D01*
X48512500Y-59552482D01*
X48532185Y-59485443D01*
X48584989Y-59439688D01*
X48654147Y-59429744D01*
X48717703Y-59458769D01*
G37*
%TD.AperFunction*%
%TA.AperFunction,Conductor*%
G36*
X52909127Y-43054437D02*
G01*
X52934237Y-43075779D01*
X52938144Y-43080118D01*
X53092645Y-43192370D01*
X53267109Y-43270046D01*
X53453910Y-43309752D01*
X53644884Y-43309752D01*
X53831685Y-43270046D01*
X53927122Y-43227554D01*
X53996370Y-43218270D01*
X54059647Y-43247898D01*
X54096860Y-43307033D01*
X54096195Y-43376899D01*
X54086213Y-43400580D01*
X54083577Y-43405374D01*
X54072903Y-43421624D01*
X54060386Y-43437761D01*
X54060385Y-43437763D01*
X54041625Y-43481114D01*
X54039055Y-43486360D01*
X54016303Y-43527745D01*
X54016303Y-43527746D01*
X54011225Y-43547524D01*
X54004925Y-43565926D01*
X53996818Y-43584661D01*
X53989431Y-43631299D01*
X53988246Y-43637020D01*
X53976500Y-43682769D01*
X53976500Y-43703188D01*
X53974973Y-43722587D01*
X53971780Y-43742745D01*
X53971780Y-43742746D01*
X53976225Y-43789770D01*
X53976500Y-43795608D01*
X53976500Y-48076162D01*
X53974761Y-48091909D01*
X53975032Y-48091935D01*
X53974298Y-48099701D01*
X53976500Y-48169753D01*
X53976500Y-48199655D01*
X53977384Y-48206652D01*
X53977842Y-48212475D01*
X53979326Y-48259685D01*
X53979327Y-48259687D01*
X53985022Y-48279291D01*
X53988967Y-48298338D01*
X53991526Y-48318593D01*
X53991527Y-48318596D01*
X53991528Y-48318599D01*
X54008914Y-48362512D01*
X54010806Y-48368040D01*
X54023981Y-48413388D01*
X54034372Y-48430958D01*
X54042932Y-48448431D01*
X54050447Y-48467413D01*
X54078209Y-48505623D01*
X54081416Y-48510506D01*
X54105458Y-48551158D01*
X54105462Y-48551162D01*
X54119889Y-48565589D01*
X54132526Y-48580384D01*
X54144528Y-48596903D01*
X54180931Y-48627018D01*
X54185231Y-48630931D01*
X54322300Y-48768000D01*
X54383581Y-48829281D01*
X54417066Y-48890604D01*
X54419900Y-48916962D01*
X54419900Y-48916971D01*
X54400215Y-48984010D01*
X54388050Y-48999943D01*
X54264059Y-49137650D01*
X54168573Y-49303036D01*
X54168570Y-49303043D01*
X54109559Y-49484661D01*
X54109558Y-49484665D01*
X54093569Y-49636794D01*
X54089596Y-49674593D01*
X54102277Y-49795250D01*
X54089707Y-49863980D01*
X54051842Y-49908529D01*
X53934645Y-49993678D01*
X53806859Y-50135600D01*
X53711373Y-50300986D01*
X53711370Y-50300993D01*
X53652861Y-50481067D01*
X53652358Y-50482615D01*
X53632396Y-50672543D01*
X53652358Y-50862471D01*
X53652359Y-50862474D01*
X53711370Y-51044092D01*
X53714014Y-51050029D01*
X53712660Y-51050631D01*
X53727328Y-51111116D01*
X53704470Y-51177141D01*
X53653905Y-51218483D01*
X53518248Y-51278881D01*
X53363745Y-51391135D01*
X53235959Y-51533057D01*
X53140473Y-51698443D01*
X53140470Y-51698450D01*
X53081459Y-51880068D01*
X53081458Y-51880072D01*
X53061496Y-52070000D01*
X53081458Y-52259928D01*
X53081459Y-52259931D01*
X53140470Y-52441549D01*
X53140473Y-52441556D01*
X53235960Y-52606944D01*
X53363747Y-52748866D01*
X53518248Y-52861118D01*
X53692712Y-52938794D01*
X53738850Y-52948601D01*
X53774802Y-52956243D01*
X53836284Y-52989435D01*
X53870060Y-53050598D01*
X53865408Y-53120313D01*
X53856408Y-53139533D01*
X53789878Y-53254766D01*
X53739311Y-53302982D01*
X53708272Y-53314056D01*
X53530847Y-53351769D01*
X53356379Y-53429447D01*
X53201878Y-53541699D01*
X53074092Y-53683621D01*
X52978606Y-53849007D01*
X52978603Y-53849014D01*
X52919592Y-54030632D01*
X52919591Y-54030636D01*
X52899629Y-54220564D01*
X52919591Y-54410492D01*
X52919592Y-54410495D01*
X52978603Y-54592113D01*
X52978606Y-54592120D01*
X53074093Y-54757508D01*
X53201880Y-54899430D01*
X53356381Y-55011682D01*
X53464953Y-55060021D01*
X53518189Y-55105271D01*
X53538510Y-55172120D01*
X53519465Y-55239344D01*
X53467099Y-55285599D01*
X53414516Y-55297300D01*
X51528521Y-55297300D01*
X51461482Y-55277615D01*
X51415727Y-55224811D01*
X51405200Y-55186262D01*
X51388742Y-55029672D01*
X51329727Y-54848044D01*
X51234240Y-54682656D01*
X51119181Y-54554870D01*
X51106454Y-54540735D01*
X50951953Y-54428483D01*
X50951952Y-54428482D01*
X50777488Y-54350806D01*
X50777486Y-54350805D01*
X50590687Y-54311100D01*
X50536000Y-54311100D01*
X50468961Y-54291415D01*
X50423206Y-54238611D01*
X50412000Y-54187100D01*
X50412000Y-53444930D01*
X50413739Y-53429178D01*
X50413468Y-53429153D01*
X50414200Y-53421397D01*
X50414202Y-53421390D01*
X50412000Y-53351327D01*
X50412000Y-53321443D01*
X50411114Y-53314440D01*
X50410657Y-53308621D01*
X50410480Y-53302982D01*
X50409174Y-53261410D01*
X50403476Y-53241798D01*
X50399533Y-53222765D01*
X50396974Y-53202502D01*
X50379585Y-53158585D01*
X50377696Y-53153065D01*
X50364518Y-53107706D01*
X50354126Y-53090134D01*
X50345566Y-53072661D01*
X50338052Y-53053682D01*
X50310294Y-53015478D01*
X50307087Y-53010595D01*
X50294573Y-52989435D01*
X50283042Y-52969937D01*
X50283040Y-52969935D01*
X50283035Y-52969929D01*
X50268607Y-52955501D01*
X50255969Y-52940704D01*
X50243972Y-52924192D01*
X50243972Y-52924191D01*
X50207585Y-52894090D01*
X50203262Y-52890156D01*
X50148818Y-52835711D01*
X50115334Y-52774388D01*
X50112500Y-52748031D01*
X50112500Y-50707566D01*
X50132185Y-50640527D01*
X50148819Y-50619885D01*
X51148719Y-49619985D01*
X52154017Y-48614686D01*
X52166378Y-48604785D01*
X52166204Y-48604575D01*
X52172213Y-48599602D01*
X52172218Y-48599600D01*
X52220183Y-48548521D01*
X52241335Y-48527370D01*
X52245661Y-48521792D01*
X52249450Y-48517355D01*
X52281786Y-48482921D01*
X52291619Y-48465032D01*
X52302302Y-48448769D01*
X52314814Y-48432641D01*
X52333571Y-48389291D01*
X52336141Y-48384047D01*
X52358893Y-48342664D01*
X52358893Y-48342663D01*
X52358895Y-48342660D01*
X52363974Y-48322873D01*
X52370270Y-48304485D01*
X52378381Y-48285745D01*
X52385769Y-48239097D01*
X52386951Y-48233386D01*
X52398700Y-48187630D01*
X52398700Y-48167215D01*
X52400227Y-48147814D01*
X52403420Y-48127657D01*
X52398975Y-48080633D01*
X52398700Y-48074795D01*
X52398700Y-45244831D01*
X52400438Y-45229081D01*
X52400168Y-45229056D01*
X52400901Y-45221294D01*
X52400902Y-45221291D01*
X52398700Y-45151241D01*
X52398700Y-45121344D01*
X52397814Y-45114336D01*
X52397356Y-45108514D01*
X52395873Y-45061310D01*
X52395872Y-45061308D01*
X52390179Y-45041714D01*
X52386232Y-45022657D01*
X52383674Y-45002403D01*
X52377114Y-44985835D01*
X52366286Y-44958486D01*
X52364393Y-44952957D01*
X52361335Y-44942433D01*
X52351218Y-44907607D01*
X52340822Y-44890029D01*
X52332266Y-44872562D01*
X52324752Y-44853583D01*
X52296994Y-44815379D01*
X52293787Y-44810496D01*
X52280814Y-44788561D01*
X52269742Y-44769838D01*
X52269740Y-44769836D01*
X52269735Y-44769830D01*
X52255307Y-44755402D01*
X52242669Y-44740605D01*
X52230672Y-44724093D01*
X52230673Y-44724093D01*
X52194287Y-44693993D01*
X52189962Y-44690058D01*
X52170683Y-44670778D01*
X52160780Y-44658417D01*
X52160571Y-44658590D01*
X52155603Y-44652584D01*
X52104520Y-44604615D01*
X52083368Y-44583463D01*
X52081392Y-44581931D01*
X52077783Y-44579131D01*
X52073350Y-44575344D01*
X52038921Y-44543014D01*
X52038919Y-44543012D01*
X52021031Y-44533178D01*
X52004770Y-44522497D01*
X51988639Y-44509984D01*
X51945293Y-44491227D01*
X51940045Y-44488656D01*
X51912851Y-44473706D01*
X51898660Y-44465905D01*
X51895260Y-44465032D01*
X51878887Y-44460828D01*
X51860481Y-44454526D01*
X51841744Y-44446418D01*
X51841746Y-44446418D01*
X51795096Y-44439030D01*
X51789381Y-44437846D01*
X51769212Y-44432668D01*
X51743632Y-44426100D01*
X51743630Y-44426100D01*
X51723216Y-44426100D01*
X51703817Y-44424573D01*
X51683658Y-44421380D01*
X51683655Y-44421379D01*
X51670767Y-44422598D01*
X51602173Y-44409308D01*
X51551653Y-44361044D01*
X51535100Y-44299148D01*
X51535100Y-43392166D01*
X51554785Y-43325127D01*
X51571419Y-43304485D01*
X51804834Y-43071071D01*
X51866157Y-43037586D01*
X51892515Y-43034752D01*
X52842088Y-43034752D01*
X52909127Y-43054437D01*
G37*
%TD.AperFunction*%
%TA.AperFunction,Conductor*%
G36*
X47139986Y-39145105D02*
G01*
X47195719Y-39187241D01*
X47219825Y-39252821D01*
X47220100Y-39261079D01*
X47220100Y-39535025D01*
X47218361Y-39550772D01*
X47218632Y-39550798D01*
X47217898Y-39558564D01*
X47220100Y-39628616D01*
X47220100Y-39658518D01*
X47220984Y-39665515D01*
X47221442Y-39671338D01*
X47222926Y-39718548D01*
X47222927Y-39718550D01*
X47228622Y-39738154D01*
X47232567Y-39757201D01*
X47235126Y-39777453D01*
X47235127Y-39777460D01*
X47250050Y-39815151D01*
X47258757Y-39860797D01*
X47258757Y-39911372D01*
X47257018Y-39927119D01*
X47257289Y-39927145D01*
X47256555Y-39934911D01*
X47258757Y-40004963D01*
X47258757Y-40034865D01*
X47259641Y-40041862D01*
X47260099Y-40047685D01*
X47261583Y-40094895D01*
X47261584Y-40094897D01*
X47267279Y-40114501D01*
X47271224Y-40133548D01*
X47273783Y-40153803D01*
X47273784Y-40153806D01*
X47273785Y-40153809D01*
X47291171Y-40197722D01*
X47293063Y-40203250D01*
X47306238Y-40248598D01*
X47316629Y-40266168D01*
X47325189Y-40283641D01*
X47332704Y-40302623D01*
X47360466Y-40340833D01*
X47363673Y-40345716D01*
X47387715Y-40386368D01*
X47387719Y-40386372D01*
X47402146Y-40400799D01*
X47414783Y-40415594D01*
X47426785Y-40432113D01*
X47463188Y-40462228D01*
X47467488Y-40466141D01*
X47798327Y-40796980D01*
X48080961Y-41079614D01*
X48090867Y-41091978D01*
X48091077Y-41091805D01*
X48096052Y-41097819D01*
X48147145Y-41145799D01*
X48163193Y-41161846D01*
X48168281Y-41166934D01*
X48173853Y-41171256D01*
X48178293Y-41175049D01*
X48212729Y-41207386D01*
X48230618Y-41217220D01*
X48246882Y-41227903D01*
X48263010Y-41240413D01*
X48279900Y-41247722D01*
X48306349Y-41259167D01*
X48311596Y-41261737D01*
X48352991Y-41284495D01*
X48372769Y-41289573D01*
X48391170Y-41295873D01*
X48409906Y-41303981D01*
X48454413Y-41311029D01*
X48456554Y-41311369D01*
X48462263Y-41312551D01*
X48508021Y-41324300D01*
X48528435Y-41324300D01*
X48547834Y-41325827D01*
X48567994Y-41329020D01*
X48615017Y-41324575D01*
X48620855Y-41324300D01*
X49775034Y-41324300D01*
X49842073Y-41343985D01*
X49862715Y-41360619D01*
X50028581Y-41526485D01*
X50062066Y-41587808D01*
X50064900Y-41614166D01*
X50064900Y-42329272D01*
X50045215Y-42396311D01*
X50031292Y-42414156D01*
X49996615Y-42451083D01*
X49986041Y-42461656D01*
X49975471Y-42472227D01*
X49975457Y-42472243D01*
X49971131Y-42477818D01*
X49967347Y-42482248D01*
X49935019Y-42516675D01*
X49935012Y-42516685D01*
X49925179Y-42534571D01*
X49914503Y-42550824D01*
X49901986Y-42566961D01*
X49901985Y-42566963D01*
X49883225Y-42610314D01*
X49880655Y-42615560D01*
X49857903Y-42656945D01*
X49857903Y-42656946D01*
X49852825Y-42676724D01*
X49846525Y-42695126D01*
X49838418Y-42713861D01*
X49831031Y-42760499D01*
X49829846Y-42766220D01*
X49818100Y-42811969D01*
X49818100Y-42832388D01*
X49816573Y-42851787D01*
X49813380Y-42871945D01*
X49813380Y-42871946D01*
X49817825Y-42918970D01*
X49818100Y-42924808D01*
X49818100Y-44525828D01*
X49798415Y-44592867D01*
X49781781Y-44613509D01*
X49496780Y-44898509D01*
X49484421Y-44908412D01*
X49484594Y-44908621D01*
X49478585Y-44913592D01*
X49430615Y-44964675D01*
X49409472Y-44985818D01*
X49409457Y-44985835D01*
X49405131Y-44991410D01*
X49401347Y-44995840D01*
X49369019Y-45030267D01*
X49369012Y-45030277D01*
X49359179Y-45048163D01*
X49348503Y-45064416D01*
X49335986Y-45080553D01*
X49335985Y-45080555D01*
X49317225Y-45123906D01*
X49314655Y-45129152D01*
X49291903Y-45170537D01*
X49291903Y-45170538D01*
X49286825Y-45190316D01*
X49280525Y-45208718D01*
X49272418Y-45227453D01*
X49265031Y-45274091D01*
X49263846Y-45279812D01*
X49252100Y-45325561D01*
X49252100Y-45345980D01*
X49250573Y-45365379D01*
X49247380Y-45385537D01*
X49247380Y-45385538D01*
X49251825Y-45432562D01*
X49252100Y-45438400D01*
X49252100Y-49003727D01*
X49232415Y-49070766D01*
X49215781Y-49091408D01*
X48724181Y-49583008D01*
X48662858Y-49616493D01*
X48593166Y-49611509D01*
X48537233Y-49569637D01*
X48512816Y-49504173D01*
X48512500Y-49495327D01*
X48512500Y-45829026D01*
X48514238Y-45813281D01*
X48513967Y-45813256D01*
X48514701Y-45805493D01*
X48512500Y-45735459D01*
X48512500Y-45705550D01*
X48512500Y-45705544D01*
X48511615Y-45698540D01*
X48511156Y-45692711D01*
X48509673Y-45645509D01*
X48505323Y-45630538D01*
X48503977Y-45625908D01*
X48500032Y-45606857D01*
X48497474Y-45586603D01*
X48480088Y-45542691D01*
X48478196Y-45537164D01*
X48472775Y-45518507D01*
X48465018Y-45491806D01*
X48454625Y-45474233D01*
X48446063Y-45456755D01*
X48438796Y-45438400D01*
X48438552Y-45437783D01*
X48438550Y-45437780D01*
X48438549Y-45437778D01*
X48410794Y-45399577D01*
X48407586Y-45394693D01*
X48390249Y-45365379D01*
X48383542Y-45354037D01*
X48369108Y-45339603D01*
X48356469Y-45324806D01*
X48344471Y-45308292D01*
X48308084Y-45278190D01*
X48303762Y-45274257D01*
X43364707Y-40335202D01*
X43331222Y-40273879D01*
X43328388Y-40247521D01*
X43328388Y-39822700D01*
X43348073Y-39755661D01*
X43400877Y-39709906D01*
X43452388Y-39698700D01*
X45649666Y-39698700D01*
X45665413Y-39700438D01*
X45665439Y-39700168D01*
X45673205Y-39700901D01*
X45673209Y-39700902D01*
X45743258Y-39698700D01*
X45773156Y-39698700D01*
X45777056Y-39698700D01*
X45777056Y-39699212D01*
X45805091Y-39701266D01*
X45891813Y-39719700D01*
X45891814Y-39719700D01*
X46082787Y-39719700D01*
X46269588Y-39679994D01*
X46444052Y-39602318D01*
X46598553Y-39490066D01*
X46726340Y-39348144D01*
X46792250Y-39233983D01*
X46842816Y-39185769D01*
X46899637Y-39171984D01*
X46918856Y-39171984D01*
X46918857Y-39171984D01*
X47070320Y-39139789D01*
X47139986Y-39145105D01*
G37*
%TD.AperFunction*%
%TA.AperFunction,Conductor*%
G36*
X41980722Y-39387291D02*
G01*
X42036655Y-39429163D01*
X42061072Y-39494627D01*
X42061388Y-39503473D01*
X42061388Y-40477654D01*
X42059649Y-40493401D01*
X42059920Y-40493427D01*
X42059186Y-40501193D01*
X42061388Y-40571245D01*
X42061388Y-40601147D01*
X42062272Y-40608144D01*
X42062730Y-40613967D01*
X42064214Y-40661177D01*
X42064215Y-40661179D01*
X42069910Y-40680783D01*
X42073855Y-40699830D01*
X42076414Y-40720085D01*
X42076415Y-40720088D01*
X42076416Y-40720091D01*
X42093802Y-40764004D01*
X42095694Y-40769532D01*
X42108869Y-40814880D01*
X42119260Y-40832450D01*
X42127820Y-40849923D01*
X42135335Y-40868905D01*
X42163097Y-40907115D01*
X42166304Y-40911998D01*
X42190346Y-40952650D01*
X42190350Y-40952654D01*
X42204777Y-40967081D01*
X42217414Y-40981876D01*
X42229416Y-40998395D01*
X42265819Y-41028510D01*
X42270119Y-41032423D01*
X44765440Y-43527744D01*
X47209181Y-45971485D01*
X47242666Y-46032808D01*
X47245500Y-46059166D01*
X47245500Y-49151558D01*
X47225815Y-49218597D01*
X47173011Y-49264352D01*
X47133170Y-49275008D01*
X47107207Y-49277462D01*
X47091733Y-49278925D01*
X47085896Y-49279200D01*
X42198700Y-49279200D01*
X42131661Y-49259515D01*
X42085906Y-49206711D01*
X42074700Y-49155200D01*
X42074700Y-44503438D01*
X42076439Y-44487686D01*
X42076168Y-44487661D01*
X42076900Y-44479905D01*
X42076902Y-44479898D01*
X42074700Y-44409834D01*
X42074700Y-44379950D01*
X42073814Y-44372947D01*
X42073357Y-44367128D01*
X42071874Y-44319919D01*
X42071874Y-44319917D01*
X42066174Y-44300298D01*
X42062231Y-44281252D01*
X42059674Y-44261010D01*
X42059674Y-44261009D01*
X42042281Y-44217080D01*
X42040404Y-44211598D01*
X42027219Y-44166213D01*
X42016820Y-44148630D01*
X42008266Y-44131169D01*
X42000752Y-44112189D01*
X41972993Y-44073982D01*
X41969786Y-44069100D01*
X41945744Y-44028447D01*
X41945743Y-44028446D01*
X41945742Y-44028444D01*
X41931308Y-44014010D01*
X41918671Y-43999215D01*
X41906672Y-43982699D01*
X41906670Y-43982696D01*
X41870273Y-43952587D01*
X41865951Y-43948653D01*
X41593019Y-43675720D01*
X41559534Y-43614397D01*
X41556700Y-43588039D01*
X41556700Y-39760161D01*
X41576385Y-39693122D01*
X41593019Y-39672480D01*
X41849707Y-39415792D01*
X41911030Y-39382307D01*
X41980722Y-39387291D01*
G37*
%TD.AperFunction*%
%TA.AperFunction,Conductor*%
G36*
X54857839Y-12020185D02*
G01*
X54903594Y-12072989D01*
X54914800Y-12124500D01*
X54914800Y-20436740D01*
X54895115Y-20503779D01*
X54878481Y-20524421D01*
X54488979Y-20913922D01*
X54476620Y-20923826D01*
X54476793Y-20924035D01*
X54470783Y-20929007D01*
X54422816Y-20980086D01*
X54401672Y-21001230D01*
X54401657Y-21001247D01*
X54397331Y-21006822D01*
X54393547Y-21011252D01*
X54361219Y-21045679D01*
X54361212Y-21045689D01*
X54351379Y-21063575D01*
X54340703Y-21079828D01*
X54328186Y-21095965D01*
X54328185Y-21095967D01*
X54309425Y-21139318D01*
X54306855Y-21144564D01*
X54284103Y-21185949D01*
X54284103Y-21185950D01*
X54279025Y-21205728D01*
X54272725Y-21224131D01*
X54266722Y-21238004D01*
X54222033Y-21291713D01*
X54155401Y-21312735D01*
X54135031Y-21311463D01*
X54121573Y-21309501D01*
X52393349Y-21306071D01*
X52393348Y-21306071D01*
X52393341Y-21306071D01*
X52358916Y-21308317D01*
X52358910Y-21308317D01*
X52358906Y-21308318D01*
X52308918Y-21314972D01*
X52308917Y-21314972D01*
X52286420Y-21319519D01*
X52241426Y-21328613D01*
X52241422Y-21328615D01*
X52107339Y-21386785D01*
X52107336Y-21386786D01*
X52107333Y-21386788D01*
X52047846Y-21423435D01*
X52047839Y-21423438D01*
X52047833Y-21423443D01*
X51935577Y-21517034D01*
X51887281Y-21570673D01*
X51868016Y-21588019D01*
X51821929Y-21621503D01*
X51799479Y-21634465D01*
X51747438Y-21657635D01*
X51722785Y-21665645D01*
X51667061Y-21677490D01*
X51641281Y-21680200D01*
X51584318Y-21680200D01*
X51558538Y-21677490D01*
X51527775Y-21670951D01*
X51502812Y-21665645D01*
X51478179Y-21657643D01*
X51476008Y-21656677D01*
X51418378Y-21637344D01*
X51383461Y-21625630D01*
X51383440Y-21625624D01*
X51337748Y-21614999D01*
X51337739Y-21614997D01*
X51240987Y-21602025D01*
X51240985Y-21602025D01*
X51182842Y-21608136D01*
X51095626Y-21617303D01*
X51030371Y-21633793D01*
X51029312Y-21634014D01*
X51027882Y-21634422D01*
X50962363Y-21661380D01*
X50916623Y-21680200D01*
X50892717Y-21690036D01*
X50778700Y-21781471D01*
X50778691Y-21781480D01*
X50730968Y-21832495D01*
X50647329Y-21952347D01*
X50647328Y-21952348D01*
X50600845Y-22090901D01*
X50600842Y-22090914D01*
X50588274Y-22159631D01*
X50588273Y-22159638D01*
X50588272Y-22159647D01*
X50585834Y-22223635D01*
X50582707Y-22305698D01*
X50586212Y-22339044D01*
X50586212Y-22364965D01*
X50580258Y-22421616D01*
X50574868Y-22446973D01*
X50535420Y-22568382D01*
X50531359Y-22582217D01*
X50527431Y-22596333D01*
X50510769Y-22741542D01*
X50511230Y-22757655D01*
X50512765Y-22811380D01*
X50512765Y-22811382D01*
X50519279Y-22849021D01*
X50537687Y-22955391D01*
X50537688Y-22955396D01*
X50574868Y-23069824D01*
X50580258Y-23095182D01*
X50586212Y-23151839D01*
X50586212Y-23177759D01*
X50580258Y-23234415D01*
X50574868Y-23259773D01*
X50535420Y-23381182D01*
X50531359Y-23395017D01*
X50527431Y-23409133D01*
X50510769Y-23554342D01*
X50512765Y-23624180D01*
X50537687Y-23768191D01*
X50537688Y-23768196D01*
X50574868Y-23882624D01*
X50580258Y-23907984D01*
X50581182Y-23916778D01*
X50581182Y-23942698D01*
X50565385Y-24092988D01*
X50559993Y-24118349D01*
X50557262Y-24126753D01*
X50546720Y-24150431D01*
X50518236Y-24199766D01*
X50503001Y-24220735D01*
X50464883Y-24263071D01*
X50445616Y-24280419D01*
X50399529Y-24313903D01*
X50377079Y-24326865D01*
X50325038Y-24350035D01*
X50300385Y-24358045D01*
X50244661Y-24369890D01*
X50218881Y-24372600D01*
X50161917Y-24372600D01*
X50136136Y-24369890D01*
X50080415Y-24358046D01*
X50055760Y-24350035D01*
X50002244Y-24326208D01*
X50002245Y-24326208D01*
X49970117Y-24314400D01*
X49970111Y-24314398D01*
X49970105Y-24314396D01*
X49922057Y-24300290D01*
X49855339Y-24285445D01*
X49855337Y-24285444D01*
X49709196Y-24284050D01*
X49709188Y-24284051D01*
X49639939Y-24293334D01*
X49639932Y-24293335D01*
X49639919Y-24293336D01*
X49499304Y-24333175D01*
X49461434Y-24350036D01*
X49436785Y-24358045D01*
X49431738Y-24359118D01*
X49381060Y-24369890D01*
X49355281Y-24372600D01*
X49298317Y-24372600D01*
X49272536Y-24369890D01*
X49216815Y-24358046D01*
X49192161Y-24350036D01*
X49158762Y-24335166D01*
X49143123Y-24328203D01*
X49110992Y-24316392D01*
X49062947Y-24302285D01*
X48996188Y-24287430D01*
X48996186Y-24287429D01*
X48996182Y-24287429D01*
X48850041Y-24286039D01*
X48784897Y-24294774D01*
X48784625Y-24294792D01*
X48780785Y-24295325D01*
X48640167Y-24335166D01*
X48624159Y-24342294D01*
X48604362Y-24351108D01*
X48579709Y-24359118D01*
X48523988Y-24370962D01*
X48498207Y-24373672D01*
X48441244Y-24373672D01*
X48415463Y-24370962D01*
X48359744Y-24359118D01*
X48359735Y-24359116D01*
X48335084Y-24351106D01*
X48315291Y-24342294D01*
X48277114Y-24325297D01*
X48277109Y-24325295D01*
X48244992Y-24313489D01*
X48244993Y-24313490D01*
X48244988Y-24313488D01*
X48244984Y-24313487D01*
X48196939Y-24299380D01*
X48130180Y-24284525D01*
X48130178Y-24284524D01*
X48130174Y-24284524D01*
X47984033Y-24283134D01*
X47918889Y-24291869D01*
X47918617Y-24291887D01*
X47914777Y-24292420D01*
X47774156Y-24332262D01*
X47734240Y-24350035D01*
X47709584Y-24358046D01*
X47653863Y-24369890D01*
X47628082Y-24372600D01*
X47571119Y-24372600D01*
X47545338Y-24369890D01*
X47515239Y-24363492D01*
X47489610Y-24358044D01*
X47464960Y-24350034D01*
X47412920Y-24326865D01*
X47390469Y-24313903D01*
X47389899Y-24313489D01*
X47344376Y-24280415D01*
X47325116Y-24263073D01*
X47286995Y-24220735D01*
X47271764Y-24199771D01*
X47236359Y-24138448D01*
X47221313Y-24118349D01*
X47163296Y-24040848D01*
X47163285Y-24040836D01*
X47122938Y-23998522D01*
X47122936Y-23998520D01*
X47028932Y-23920904D01*
X47028929Y-23920902D01*
X46895985Y-23860187D01*
X46828948Y-23840502D01*
X46828942Y-23840500D01*
X46742137Y-23828020D01*
X46684269Y-23819700D01*
X44478010Y-23819700D01*
X44463081Y-23821269D01*
X44371261Y-23830918D01*
X44320826Y-23841637D01*
X44215626Y-23875817D01*
X44215307Y-23874837D01*
X44177271Y-23881900D01*
X43998909Y-23881900D01*
X43960812Y-23889998D01*
X43891145Y-23884682D01*
X43884613Y-23881995D01*
X43868483Y-23874814D01*
X43868482Y-23874813D01*
X43868476Y-23874811D01*
X43766377Y-23841637D01*
X43715939Y-23830918D01*
X43624120Y-23821269D01*
X43609190Y-23819700D01*
X43497553Y-23819700D01*
X43497552Y-23819700D01*
X43483239Y-23820099D01*
X43472760Y-23820684D01*
X43462280Y-23821269D01*
X43433708Y-23823666D01*
X43311184Y-23855527D01*
X43292252Y-23860451D01*
X43227831Y-23887476D01*
X43102465Y-23962626D01*
X42738464Y-24258673D01*
X42738462Y-24258675D01*
X42723280Y-24272756D01*
X42713992Y-24281370D01*
X42683747Y-24313317D01*
X42678433Y-24318307D01*
X42678193Y-24318506D01*
X42678183Y-24318516D01*
X42665705Y-24332374D01*
X42656314Y-24342294D01*
X42654164Y-24345191D01*
X42590881Y-24415473D01*
X42571618Y-24432818D01*
X42525530Y-24466303D01*
X42503079Y-24479265D01*
X42451038Y-24502435D01*
X42426385Y-24510445D01*
X42370661Y-24522290D01*
X42344881Y-24525000D01*
X42287919Y-24525000D01*
X42262138Y-24522290D01*
X42232039Y-24515892D01*
X42206410Y-24510444D01*
X42181760Y-24502434D01*
X42125509Y-24477390D01*
X42022677Y-24444061D01*
X42022665Y-24444057D01*
X41971889Y-24433342D01*
X41892342Y-24425156D01*
X41864377Y-24422278D01*
X41864374Y-24422278D01*
X41864365Y-24422277D01*
X39549259Y-24428946D01*
X39549250Y-24428947D01*
X39441905Y-24440609D01*
X39441903Y-24440609D01*
X39441897Y-24440610D01*
X39391230Y-24451597D01*
X39391221Y-24451600D01*
X39288695Y-24485448D01*
X39165403Y-24563954D01*
X39112411Y-24609486D01*
X39016238Y-24719540D01*
X38954967Y-24852228D01*
X38954966Y-24852230D01*
X38954965Y-24852234D01*
X38935000Y-24919189D01*
X38934999Y-24919192D01*
X38934999Y-24919195D01*
X38913593Y-25063767D01*
X38913593Y-25063769D01*
X38912994Y-25206863D01*
X38893029Y-25273820D01*
X38849145Y-25311991D01*
X38850199Y-25313700D01*
X38845331Y-25316702D01*
X38841721Y-25318449D01*
X38841407Y-25318723D01*
X38837524Y-25320534D01*
X38837504Y-25320491D01*
X38830501Y-25323880D01*
X38830523Y-25323923D01*
X38824067Y-25327165D01*
X38759195Y-25369832D01*
X38693150Y-25410568D01*
X38687486Y-25415048D01*
X38687456Y-25415010D01*
X38681427Y-25419922D01*
X38681457Y-25419957D01*
X38675932Y-25424593D01*
X38622636Y-25481082D01*
X38066822Y-26036895D01*
X38053195Y-26048673D01*
X38033641Y-26063231D01*
X37999677Y-26103706D01*
X37996030Y-26107687D01*
X37990118Y-26113600D01*
X37969563Y-26139596D01*
X37919667Y-26199060D01*
X37915701Y-26205091D01*
X37915663Y-26205066D01*
X37911482Y-26211628D01*
X37911521Y-26211652D01*
X37907732Y-26217794D01*
X37874920Y-26288159D01*
X37840091Y-26357510D01*
X37837623Y-26364293D01*
X37837578Y-26364276D01*
X37835022Y-26371632D01*
X37835066Y-26371647D01*
X37832796Y-26378495D01*
X37824944Y-26416522D01*
X37817092Y-26454550D01*
X37804725Y-26506729D01*
X37799198Y-26530051D01*
X37798361Y-26537219D01*
X37798313Y-26537213D01*
X37797523Y-26544944D01*
X37797570Y-26544949D01*
X37796940Y-26552138D01*
X37799200Y-26629779D01*
X37799200Y-26912780D01*
X37787581Y-26965186D01*
X37772820Y-26996841D01*
X37737991Y-27066192D01*
X37735523Y-27072975D01*
X37735478Y-27072958D01*
X37732922Y-27080314D01*
X37732966Y-27080329D01*
X37730696Y-27087177D01*
X37722882Y-27125022D01*
X37714992Y-27163232D01*
X37708160Y-27192061D01*
X37697098Y-27238733D01*
X37696261Y-27245901D01*
X37696213Y-27245895D01*
X37695423Y-27253626D01*
X37695470Y-27253631D01*
X37694840Y-27260820D01*
X37697100Y-27338461D01*
X37697100Y-30927257D01*
X37677415Y-30994296D01*
X37660781Y-31014938D01*
X37263338Y-31412381D01*
X37202015Y-31445866D01*
X37175657Y-31448700D01*
X36457537Y-31448700D01*
X36390498Y-31429015D01*
X36384651Y-31425018D01*
X36372350Y-31416080D01*
X36227302Y-31351502D01*
X36197888Y-31338406D01*
X36197886Y-31338405D01*
X36011087Y-31298700D01*
X35820113Y-31298700D01*
X35633314Y-31338405D01*
X35561681Y-31370298D01*
X35458853Y-31416080D01*
X35458846Y-31416083D01*
X35304345Y-31528335D01*
X35176559Y-31670257D01*
X35081073Y-31835643D01*
X35081070Y-31835650D01*
X35022059Y-32017268D01*
X35022058Y-32017272D01*
X35002096Y-32207200D01*
X35022058Y-32397128D01*
X35022059Y-32397131D01*
X35081070Y-32578749D01*
X35081073Y-32578756D01*
X35176560Y-32744144D01*
X35276391Y-32855018D01*
X35295418Y-32876150D01*
X35304347Y-32886066D01*
X35458848Y-32998318D01*
X35633312Y-33075994D01*
X35820113Y-33115700D01*
X36011087Y-33115700D01*
X36197888Y-33075994D01*
X36372352Y-32998318D01*
X36384651Y-32989381D01*
X36450458Y-32965902D01*
X36457537Y-32965700D01*
X37476906Y-32965700D01*
X37494876Y-32967009D01*
X37497374Y-32967374D01*
X37518989Y-32970541D01*
X37571626Y-32965935D01*
X37577028Y-32965700D01*
X37585375Y-32965700D01*
X37585380Y-32965700D01*
X37609035Y-32962934D01*
X37618296Y-32961852D01*
X37695619Y-32955088D01*
X37695622Y-32955087D01*
X37695626Y-32955087D01*
X37695629Y-32955085D01*
X37702693Y-32953627D01*
X37702702Y-32953674D01*
X37710297Y-32951990D01*
X37710287Y-32951944D01*
X37717307Y-32950279D01*
X37717313Y-32950279D01*
X37790265Y-32923726D01*
X37863938Y-32899314D01*
X37863946Y-32899308D01*
X37870484Y-32896261D01*
X37870505Y-32896306D01*
X37877502Y-32892919D01*
X37877480Y-32892875D01*
X37883929Y-32889636D01*
X37883928Y-32889636D01*
X37883932Y-32889635D01*
X37948805Y-32846966D01*
X38014851Y-32806230D01*
X38014855Y-32806225D01*
X38020519Y-32801748D01*
X38020550Y-32801787D01*
X38026574Y-32796880D01*
X38026542Y-32796842D01*
X38032064Y-32792207D01*
X38032074Y-32792201D01*
X38077415Y-32744142D01*
X38085363Y-32735718D01*
X38727060Y-32094020D01*
X38946480Y-31874599D01*
X38960106Y-31862823D01*
X38979658Y-31848269D01*
X38981020Y-31846646D01*
X39013615Y-31807800D01*
X39017275Y-31803805D01*
X39023181Y-31797900D01*
X39043735Y-31771904D01*
X39093632Y-31712440D01*
X39093633Y-31712437D01*
X39097604Y-31706401D01*
X39097645Y-31706428D01*
X39101819Y-31699876D01*
X39101776Y-31699850D01*
X39105562Y-31693711D01*
X39105567Y-31693705D01*
X39138375Y-31623347D01*
X39173209Y-31553988D01*
X39173210Y-31553982D01*
X39175677Y-31547205D01*
X39175724Y-31547222D01*
X39178275Y-31539883D01*
X39178229Y-31539868D01*
X39180500Y-31533010D01*
X39180503Y-31533006D01*
X39196207Y-31456949D01*
X39214100Y-31381456D01*
X39214100Y-31381453D01*
X39214939Y-31374283D01*
X39214986Y-31374288D01*
X39215777Y-31366557D01*
X39215730Y-31366553D01*
X39216359Y-31359362D01*
X39215882Y-31342982D01*
X39214100Y-31281720D01*
X39214100Y-27639881D01*
X39225718Y-27587476D01*
X39240473Y-27555834D01*
X39275309Y-27486470D01*
X39275310Y-27486462D01*
X39277779Y-27479682D01*
X39277826Y-27479699D01*
X39280378Y-27472357D01*
X39280331Y-27472342D01*
X39282600Y-27465493D01*
X39282600Y-27465491D01*
X39282602Y-27465488D01*
X39298299Y-27389463D01*
X39316200Y-27313938D01*
X39316200Y-27313936D01*
X39316201Y-27313932D01*
X39317039Y-27306765D01*
X39317086Y-27306770D01*
X39317876Y-27299039D01*
X39317829Y-27299035D01*
X39318458Y-27291844D01*
X39317555Y-27260824D01*
X39316200Y-27214236D01*
X39316200Y-27192061D01*
X39335885Y-27125022D01*
X39388689Y-27079267D01*
X39457845Y-27069323D01*
X39545320Y-27081900D01*
X40264515Y-27081900D01*
X40314950Y-27092620D01*
X40459312Y-27156894D01*
X40646113Y-27196600D01*
X40815300Y-27196600D01*
X40882339Y-27216285D01*
X40928094Y-27269089D01*
X40939300Y-27320600D01*
X40939300Y-27586018D01*
X40920109Y-27651371D01*
X40920209Y-27651429D01*
X40919973Y-27651837D01*
X40919615Y-27653057D01*
X40917390Y-27656310D01*
X40821473Y-27822443D01*
X40821470Y-27822450D01*
X40762459Y-28004068D01*
X40762458Y-28004072D01*
X40742496Y-28194000D01*
X40762458Y-28383928D01*
X40762459Y-28383931D01*
X40821470Y-28565549D01*
X40821473Y-28565556D01*
X40920209Y-28736572D01*
X40918611Y-28737494D01*
X40939097Y-28794891D01*
X40939300Y-28801982D01*
X40939300Y-30555113D01*
X40924589Y-30610013D01*
X40925714Y-30610514D01*
X40923070Y-30616450D01*
X40867448Y-30787638D01*
X40864058Y-30798072D01*
X40844096Y-30988000D01*
X40864058Y-31177928D01*
X40864059Y-31177931D01*
X40923073Y-31359558D01*
X40925715Y-31365491D01*
X40924588Y-31365992D01*
X40939300Y-31420887D01*
X40939300Y-31829200D01*
X40939993Y-31835643D01*
X40951035Y-31938351D01*
X40951037Y-31938363D01*
X40962243Y-31989873D01*
X40996906Y-32094020D01*
X40996909Y-32094026D01*
X41075928Y-32216981D01*
X41075934Y-32216988D01*
X41121679Y-32269781D01*
X41121682Y-32269784D01*
X41121684Y-32269786D01*
X41153558Y-32297405D01*
X41232135Y-32365494D01*
X41232137Y-32365495D01*
X41232139Y-32365497D01*
X41365087Y-32426214D01*
X41407859Y-32438773D01*
X41432121Y-32445898D01*
X41432126Y-32445899D01*
X41432130Y-32445900D01*
X41576800Y-32466700D01*
X50252120Y-32466700D01*
X50277901Y-32469410D01*
X50450513Y-32506100D01*
X50641487Y-32506100D01*
X50828288Y-32466394D01*
X50885579Y-32440886D01*
X50954825Y-32431601D01*
X51018102Y-32461229D01*
X51055316Y-32520364D01*
X51054652Y-32590230D01*
X51016320Y-32648647D01*
X51008899Y-32654483D01*
X50950746Y-32696734D01*
X50822959Y-32838657D01*
X50727473Y-33004043D01*
X50727470Y-33004050D01*
X50691193Y-33115700D01*
X50668458Y-33185672D01*
X50663522Y-33232635D01*
X50651019Y-33351595D01*
X50624434Y-33416209D01*
X50615379Y-33426314D01*
X50106382Y-33935312D01*
X50094020Y-33945216D01*
X50094194Y-33945426D01*
X50088185Y-33950397D01*
X50040215Y-34001479D01*
X50019072Y-34022622D01*
X50019057Y-34022639D01*
X50014731Y-34028214D01*
X50010947Y-34032644D01*
X49978619Y-34067071D01*
X49978612Y-34067081D01*
X49968779Y-34084967D01*
X49958103Y-34101220D01*
X49945586Y-34117357D01*
X49945585Y-34117359D01*
X49926825Y-34160710D01*
X49924255Y-34165956D01*
X49901503Y-34207341D01*
X49901503Y-34207342D01*
X49896425Y-34227120D01*
X49890125Y-34245522D01*
X49882018Y-34264257D01*
X49874631Y-34310895D01*
X49873446Y-34316616D01*
X49861700Y-34362365D01*
X49861700Y-34382784D01*
X49860173Y-34402183D01*
X49856980Y-34422341D01*
X49856980Y-34422342D01*
X49861425Y-34469366D01*
X49861700Y-34475204D01*
X49861700Y-34607672D01*
X49842015Y-34674711D01*
X49828092Y-34692556D01*
X49793415Y-34729483D01*
X49782841Y-34740056D01*
X49772271Y-34750627D01*
X49772257Y-34750643D01*
X49767931Y-34756218D01*
X49764147Y-34760648D01*
X49731819Y-34795075D01*
X49731812Y-34795085D01*
X49721979Y-34812971D01*
X49711303Y-34829224D01*
X49698786Y-34845361D01*
X49698785Y-34845363D01*
X49680025Y-34888714D01*
X49677455Y-34893960D01*
X49654703Y-34935345D01*
X49654703Y-34935346D01*
X49649625Y-34955124D01*
X49643325Y-34973526D01*
X49635218Y-34992261D01*
X49627831Y-35038899D01*
X49626646Y-35044620D01*
X49614900Y-35090369D01*
X49614900Y-35110788D01*
X49613373Y-35130187D01*
X49610180Y-35150345D01*
X49610180Y-35150346D01*
X49614625Y-35197370D01*
X49614900Y-35203208D01*
X49614900Y-38357707D01*
X49595215Y-38424746D01*
X49542411Y-38470501D01*
X49490900Y-38481707D01*
X49106425Y-38481707D01*
X49090673Y-38479967D01*
X49090648Y-38480239D01*
X49082886Y-38479505D01*
X49082885Y-38479505D01*
X49012822Y-38481707D01*
X48982937Y-38481707D01*
X48982934Y-38481707D01*
X48982922Y-38481708D01*
X48975930Y-38482591D01*
X48970113Y-38483048D01*
X48922907Y-38484532D01*
X48922900Y-38484533D01*
X48903293Y-38490229D01*
X48884254Y-38494172D01*
X48864004Y-38496731D01*
X48863994Y-38496733D01*
X48820084Y-38514118D01*
X48814558Y-38516010D01*
X48769205Y-38529186D01*
X48769200Y-38529188D01*
X48751626Y-38539581D01*
X48734165Y-38548135D01*
X48715179Y-38555653D01*
X48715178Y-38555653D01*
X48681913Y-38579821D01*
X48616106Y-38603298D01*
X48548053Y-38587470D01*
X48499359Y-38537363D01*
X48485092Y-38483392D01*
X48484273Y-38457310D01*
X48478577Y-38437708D01*
X48474632Y-38418657D01*
X48472074Y-38398403D01*
X48455961Y-38357707D01*
X48454686Y-38354486D01*
X48452793Y-38348957D01*
X48442243Y-38312643D01*
X48439618Y-38303607D01*
X48429222Y-38286029D01*
X48420666Y-38268562D01*
X48413152Y-38249583D01*
X48385394Y-38211379D01*
X48382187Y-38206496D01*
X48365472Y-38178233D01*
X48358142Y-38165838D01*
X48358140Y-38165836D01*
X48358135Y-38165830D01*
X48343707Y-38151402D01*
X48331069Y-38136605D01*
X48319072Y-38120093D01*
X48319072Y-38120092D01*
X48282679Y-38089986D01*
X48278367Y-38086063D01*
X48066971Y-37874666D01*
X48057064Y-37862300D01*
X48056855Y-37862474D01*
X48051887Y-37856468D01*
X48000805Y-37808500D01*
X47979652Y-37787347D01*
X47977676Y-37785815D01*
X47974067Y-37783015D01*
X47969634Y-37779228D01*
X47935205Y-37746898D01*
X47935203Y-37746896D01*
X47917315Y-37737062D01*
X47901054Y-37726381D01*
X47884923Y-37713868D01*
X47841577Y-37695111D01*
X47836329Y-37692540D01*
X47808010Y-37676972D01*
X47794944Y-37669789D01*
X47791544Y-37668916D01*
X47775171Y-37664712D01*
X47756765Y-37658410D01*
X47738028Y-37650302D01*
X47738030Y-37650302D01*
X47691380Y-37642914D01*
X47685665Y-37641730D01*
X47665496Y-37636552D01*
X47639916Y-37629984D01*
X47639914Y-37629984D01*
X47619500Y-37629984D01*
X47600101Y-37628457D01*
X47579942Y-37625264D01*
X47579938Y-37625263D01*
X47541834Y-37628865D01*
X47473239Y-37615575D01*
X47438019Y-37588390D01*
X47434623Y-37584618D01*
X47280122Y-37472366D01*
X47105658Y-37394690D01*
X47105656Y-37394689D01*
X46918857Y-37354984D01*
X46727883Y-37354984D01*
X46541084Y-37394689D01*
X46366614Y-37472368D01*
X46347184Y-37486485D01*
X46281378Y-37509964D01*
X46213324Y-37494138D01*
X46164630Y-37444032D01*
X46150300Y-37386166D01*
X46150300Y-36381766D01*
X46169985Y-36314727D01*
X46186619Y-36294085D01*
X47042685Y-35438019D01*
X47104008Y-35404534D01*
X47130366Y-35401700D01*
X47187087Y-35401700D01*
X47373888Y-35361994D01*
X47548352Y-35284318D01*
X47702853Y-35172066D01*
X47830640Y-35030144D01*
X47926127Y-34864756D01*
X47985142Y-34683128D01*
X48005104Y-34493200D01*
X47985142Y-34303272D01*
X47926127Y-34121644D01*
X47830640Y-33956256D01*
X47702853Y-33814334D01*
X47548352Y-33702082D01*
X47373888Y-33624406D01*
X47373886Y-33624405D01*
X47187087Y-33584700D01*
X46996113Y-33584700D01*
X46809314Y-33624405D01*
X46634846Y-33702083D01*
X46480345Y-33814335D01*
X46352559Y-33956257D01*
X46257073Y-34121643D01*
X46257070Y-34121650D01*
X46201929Y-34291357D01*
X46198058Y-34303272D01*
X46185543Y-34422343D01*
X46180619Y-34469195D01*
X46154034Y-34533809D01*
X46144979Y-34543914D01*
X45127979Y-35560914D01*
X45115620Y-35570818D01*
X45115793Y-35571027D01*
X45109783Y-35575999D01*
X45061815Y-35627079D01*
X45040672Y-35648222D01*
X45040657Y-35648239D01*
X45036331Y-35653814D01*
X45032547Y-35658244D01*
X45000219Y-35692671D01*
X45000212Y-35692681D01*
X44990379Y-35710567D01*
X44979703Y-35726820D01*
X44967186Y-35742957D01*
X44967185Y-35742959D01*
X44948425Y-35786310D01*
X44945855Y-35791556D01*
X44923103Y-35832941D01*
X44923103Y-35832942D01*
X44918025Y-35852720D01*
X44911725Y-35871122D01*
X44903618Y-35889857D01*
X44896231Y-35936495D01*
X44895046Y-35942216D01*
X44881360Y-35995525D01*
X44879154Y-35994958D01*
X44855799Y-36048476D01*
X44797668Y-36087239D01*
X44727808Y-36088421D01*
X44668400Y-36051646D01*
X44643020Y-36007873D01*
X44638928Y-35995525D01*
X44615315Y-35924262D01*
X44522230Y-35773348D01*
X44396852Y-35647970D01*
X44272108Y-35571027D01*
X44245940Y-35554886D01*
X44245935Y-35554884D01*
X44077627Y-35499113D01*
X43973746Y-35488500D01*
X43172662Y-35488500D01*
X43172646Y-35488501D01*
X43068772Y-35499113D01*
X42900464Y-35554884D01*
X42900459Y-35554886D01*
X42749546Y-35647971D01*
X42624169Y-35773348D01*
X42585837Y-35835494D01*
X42533888Y-35882218D01*
X42464926Y-35893439D01*
X42400844Y-35865595D01*
X42382829Y-35847049D01*
X42372927Y-35834458D01*
X42214169Y-35696894D01*
X42214158Y-35696885D01*
X42032239Y-35591855D01*
X42032232Y-35591852D01*
X41833716Y-35523144D01*
X41823200Y-35521632D01*
X41823200Y-36591382D01*
X41754148Y-36537637D01*
X41635776Y-36497000D01*
X41542127Y-36497000D01*
X41449754Y-36512414D01*
X41339686Y-36571981D01*
X41323200Y-36589889D01*
X41323200Y-35525741D01*
X41247854Y-35544020D01*
X41178064Y-35540695D01*
X41121150Y-35500167D01*
X41103326Y-35469158D01*
X41097952Y-35455583D01*
X41070189Y-35417371D01*
X41066987Y-35412497D01*
X41042942Y-35371837D01*
X41028506Y-35357401D01*
X41015869Y-35342606D01*
X41011855Y-35337081D01*
X41003872Y-35326093D01*
X40967484Y-35295990D01*
X40963162Y-35292057D01*
X40740688Y-35069583D01*
X40730787Y-35057223D01*
X40730577Y-35057398D01*
X40725602Y-35051386D01*
X40725600Y-35051382D01*
X40696068Y-35023650D01*
X40674522Y-35003416D01*
X40653368Y-34982263D01*
X40651392Y-34980731D01*
X40647783Y-34977931D01*
X40643350Y-34974144D01*
X40637124Y-34968298D01*
X40608921Y-34941814D01*
X40608919Y-34941812D01*
X40591031Y-34931978D01*
X40574770Y-34921297D01*
X40558639Y-34908784D01*
X40515293Y-34890027D01*
X40510045Y-34887456D01*
X40482624Y-34872382D01*
X40468660Y-34864705D01*
X40465260Y-34863832D01*
X40448887Y-34859628D01*
X40430481Y-34853326D01*
X40411744Y-34845218D01*
X40411746Y-34845218D01*
X40365096Y-34837830D01*
X40359381Y-34836646D01*
X40339212Y-34831468D01*
X40313632Y-34824900D01*
X40313630Y-34824900D01*
X40293216Y-34824900D01*
X40273817Y-34823373D01*
X40253658Y-34820180D01*
X40253657Y-34820180D01*
X40206634Y-34824625D01*
X40200796Y-34824900D01*
X38243739Y-34824900D01*
X38227991Y-34823161D01*
X38227966Y-34823432D01*
X38220199Y-34822698D01*
X38220196Y-34822698D01*
X38150147Y-34824900D01*
X38120242Y-34824900D01*
X38113248Y-34825784D01*
X38107425Y-34826242D01*
X38060217Y-34827726D01*
X38040606Y-34833423D01*
X38021608Y-34837360D01*
X38018809Y-34837714D01*
X38014892Y-34838209D01*
X38007118Y-34838700D01*
X37681337Y-34838700D01*
X37650500Y-34834804D01*
X37635840Y-34831040D01*
X37611927Y-34824900D01*
X37611925Y-34824900D01*
X37591511Y-34824900D01*
X37572112Y-34823373D01*
X37551953Y-34820180D01*
X37551952Y-34820180D01*
X37504929Y-34824625D01*
X37499091Y-34824900D01*
X35897634Y-34824900D01*
X35881886Y-34823161D01*
X35881861Y-34823432D01*
X35874094Y-34822698D01*
X35874091Y-34822698D01*
X35804042Y-34824900D01*
X35774137Y-34824900D01*
X35767143Y-34825784D01*
X35761320Y-34826242D01*
X35714111Y-34827726D01*
X35714108Y-34827727D01*
X35694505Y-34833422D01*
X35675459Y-34837366D01*
X35655203Y-34839926D01*
X35655201Y-34839926D01*
X35655199Y-34839927D01*
X35611282Y-34857314D01*
X35605756Y-34859206D01*
X35560406Y-34872382D01*
X35542833Y-34882774D01*
X35525370Y-34891329D01*
X35506385Y-34898846D01*
X35506383Y-34898847D01*
X35468179Y-34926604D01*
X35463296Y-34929812D01*
X35422637Y-34953858D01*
X35408196Y-34968298D01*
X35393408Y-34980927D01*
X35376897Y-34992923D01*
X35376892Y-34992928D01*
X35346790Y-35029314D01*
X35342858Y-35033636D01*
X35171179Y-35205314D01*
X35158820Y-35215218D01*
X35158993Y-35215427D01*
X35152983Y-35220399D01*
X35105016Y-35271478D01*
X35083872Y-35292622D01*
X35083857Y-35292639D01*
X35079531Y-35298214D01*
X35075747Y-35302644D01*
X35043419Y-35337071D01*
X35043412Y-35337081D01*
X35033579Y-35354967D01*
X35022903Y-35371220D01*
X35010386Y-35387357D01*
X35010385Y-35387359D01*
X34991625Y-35430710D01*
X34989055Y-35435956D01*
X34966303Y-35477341D01*
X34966303Y-35477342D01*
X34961225Y-35497120D01*
X34954925Y-35515522D01*
X34946818Y-35534257D01*
X34939431Y-35580895D01*
X34938246Y-35586616D01*
X34926500Y-35632365D01*
X34926500Y-35632755D01*
X34926414Y-35633044D01*
X34925523Y-35640107D01*
X34924383Y-35639963D01*
X34906815Y-35699794D01*
X34874429Y-35733761D01*
X34843987Y-35755439D01*
X34697893Y-35908657D01*
X34583446Y-36086741D01*
X34504763Y-36283280D01*
X34495681Y-36330404D01*
X34464700Y-36491151D01*
X34464700Y-37199803D01*
X34479781Y-37357739D01*
X34490631Y-37394690D01*
X34537498Y-37554308D01*
X34539423Y-37560862D01*
X34636429Y-37749026D01*
X34749716Y-37893082D01*
X34767294Y-37915434D01*
X34927277Y-38054061D01*
X34927288Y-38054069D01*
X35025305Y-38110658D01*
X35110618Y-38159913D01*
X35310673Y-38229153D01*
X35520216Y-38259281D01*
X35731674Y-38249208D01*
X35937404Y-38199298D01*
X36129971Y-38111356D01*
X36260171Y-38018641D01*
X36302410Y-37988563D01*
X36302411Y-37988561D01*
X36302415Y-37988559D01*
X36448503Y-37835346D01*
X36469398Y-37802831D01*
X36522200Y-37757078D01*
X36591358Y-37747134D01*
X36654914Y-37776158D01*
X36671181Y-37793217D01*
X36749716Y-37893082D01*
X36767294Y-37915434D01*
X36927277Y-38054061D01*
X36927288Y-38054069D01*
X37025305Y-38110658D01*
X37110618Y-38159913D01*
X37310673Y-38229153D01*
X37520216Y-38259281D01*
X37731674Y-38249208D01*
X37923804Y-38202597D01*
X37993592Y-38205922D01*
X38040717Y-38235421D01*
X38105915Y-38300619D01*
X38139400Y-38361942D01*
X38134416Y-38431634D01*
X38092544Y-38487567D01*
X38027080Y-38511984D01*
X38018234Y-38512300D01*
X37826713Y-38512300D01*
X37639914Y-38552005D01*
X37465446Y-38629683D01*
X37310945Y-38741935D01*
X37196840Y-38868661D01*
X37137354Y-38905309D01*
X37067497Y-38903978D01*
X37012541Y-38868660D01*
X36930018Y-38777009D01*
X36899719Y-38754995D01*
X36775516Y-38664756D01*
X36601052Y-38587080D01*
X36601050Y-38587079D01*
X36414251Y-38547374D01*
X36223277Y-38547374D01*
X36036478Y-38587079D01*
X35862010Y-38664757D01*
X35707509Y-38777009D01*
X35579723Y-38918931D01*
X35484237Y-39084317D01*
X35484234Y-39084324D01*
X35429360Y-39253211D01*
X35425222Y-39265946D01*
X35414103Y-39371740D01*
X35407783Y-39431869D01*
X35381198Y-39496483D01*
X35372143Y-39506588D01*
X34068381Y-40810351D01*
X34007058Y-40843836D01*
X33937366Y-40838852D01*
X33881433Y-40796980D01*
X33857016Y-40731516D01*
X33856700Y-40722670D01*
X33856700Y-32036454D01*
X33858439Y-32020702D01*
X33858168Y-32020677D01*
X33858900Y-32012921D01*
X33858902Y-32012914D01*
X33856700Y-31942850D01*
X33856700Y-31912966D01*
X33855814Y-31905963D01*
X33855357Y-31900144D01*
X33853874Y-31852933D01*
X33853872Y-31852927D01*
X33852654Y-31845230D01*
X33856019Y-31844696D01*
X33856199Y-31790272D01*
X33894167Y-31731619D01*
X33957818Y-31702805D01*
X33975060Y-31701600D01*
X33999185Y-31701600D01*
X34153434Y-31686408D01*
X34351366Y-31626366D01*
X34533766Y-31528871D01*
X34533773Y-31528867D01*
X34693655Y-31397655D01*
X34824867Y-31237773D01*
X34824871Y-31237766D01*
X34922366Y-31055366D01*
X34969010Y-30901600D01*
X34113711Y-30901600D01*
X34153210Y-30877143D01*
X34220801Y-30787638D01*
X34251495Y-30679760D01*
X34241146Y-30568079D01*
X34191152Y-30467678D01*
X34118669Y-30401600D01*
X34969010Y-30401600D01*
X34922366Y-30247833D01*
X34824871Y-30065433D01*
X34824867Y-30065426D01*
X34693655Y-29905544D01*
X34533773Y-29774332D01*
X34533766Y-29774328D01*
X34351366Y-29676833D01*
X34153434Y-29616791D01*
X33999185Y-29601600D01*
X33897600Y-29601600D01*
X33897600Y-30351600D01*
X33397600Y-30351600D01*
X33397600Y-29601600D01*
X33296015Y-29601600D01*
X33141765Y-29616791D01*
X32943833Y-29676833D01*
X32761433Y-29774328D01*
X32761426Y-29774332D01*
X32601544Y-29905544D01*
X32470332Y-30065426D01*
X32470328Y-30065433D01*
X32372833Y-30247833D01*
X32326190Y-30401600D01*
X33181489Y-30401600D01*
X33141990Y-30426057D01*
X33074399Y-30515562D01*
X33043705Y-30623440D01*
X33054054Y-30735121D01*
X33104048Y-30835522D01*
X33176531Y-30901600D01*
X32326190Y-30901600D01*
X32342845Y-30956505D01*
X32343468Y-31026371D01*
X32306220Y-31085484D01*
X32242926Y-31115075D01*
X32224184Y-31116500D01*
X31271016Y-31116500D01*
X31203977Y-31096815D01*
X31158222Y-31044011D01*
X31148278Y-30974853D01*
X31152355Y-30956505D01*
X31169010Y-30901600D01*
X30313711Y-30901600D01*
X30353210Y-30877143D01*
X30420801Y-30787638D01*
X30451495Y-30679760D01*
X30441146Y-30568079D01*
X30391152Y-30467678D01*
X30318669Y-30401600D01*
X31169010Y-30401600D01*
X31122366Y-30247833D01*
X31024871Y-30065433D01*
X31024867Y-30065426D01*
X30893655Y-29905544D01*
X30733773Y-29774332D01*
X30733766Y-29774328D01*
X30551366Y-29676833D01*
X30353434Y-29616791D01*
X30199185Y-29601600D01*
X30097600Y-29601600D01*
X30097600Y-30351600D01*
X29597600Y-30351600D01*
X29597600Y-29601600D01*
X29496015Y-29601600D01*
X29341765Y-29616791D01*
X29143833Y-29676833D01*
X28961433Y-29774328D01*
X28961426Y-29774332D01*
X28877765Y-29842992D01*
X28813455Y-29870305D01*
X28744587Y-29858514D01*
X28693027Y-29811362D01*
X28675100Y-29747139D01*
X28675100Y-22916060D01*
X28694785Y-22849021D01*
X28747589Y-22803266D01*
X28816747Y-22793322D01*
X28877765Y-22820207D01*
X28961426Y-22888867D01*
X28961433Y-22888871D01*
X29143833Y-22986366D01*
X29341765Y-23046408D01*
X29496015Y-23061600D01*
X29597600Y-23061600D01*
X29597600Y-22311600D01*
X30097600Y-22311600D01*
X30097600Y-23061600D01*
X30199185Y-23061600D01*
X30353434Y-23046408D01*
X30551366Y-22986366D01*
X30733766Y-22888871D01*
X30733773Y-22888867D01*
X30893655Y-22757655D01*
X31024867Y-22597773D01*
X31024871Y-22597766D01*
X31122366Y-22415366D01*
X31169010Y-22261600D01*
X30313711Y-22261600D01*
X30353210Y-22237143D01*
X30420801Y-22147638D01*
X30451495Y-22039760D01*
X30441146Y-21928079D01*
X30391152Y-21827678D01*
X30323825Y-21766300D01*
X33173898Y-21766300D01*
X33141990Y-21786057D01*
X33074399Y-21875562D01*
X33043705Y-21983440D01*
X33054054Y-22095121D01*
X33104048Y-22195522D01*
X33176531Y-22261600D01*
X32326190Y-22261600D01*
X32372833Y-22415366D01*
X32470328Y-22597766D01*
X32470332Y-22597773D01*
X32601544Y-22757655D01*
X32761426Y-22888867D01*
X32761433Y-22888871D01*
X32943833Y-22986366D01*
X33141765Y-23046408D01*
X33296015Y-23061600D01*
X33397600Y-23061600D01*
X33397600Y-22311600D01*
X33897600Y-22311600D01*
X33897600Y-23061600D01*
X33999185Y-23061600D01*
X34153434Y-23046408D01*
X34351366Y-22986366D01*
X34533766Y-22888871D01*
X34533773Y-22888867D01*
X34693655Y-22757655D01*
X34824867Y-22597773D01*
X34824871Y-22597766D01*
X34922366Y-22415366D01*
X34969010Y-22261600D01*
X34113711Y-22261600D01*
X34153210Y-22237143D01*
X34220801Y-22147638D01*
X34251495Y-22039760D01*
X34241146Y-21928079D01*
X34191152Y-21827678D01*
X34123825Y-21766300D01*
X35577966Y-21766300D01*
X35593713Y-21768038D01*
X35593739Y-21767768D01*
X35601505Y-21768501D01*
X35601509Y-21768502D01*
X35671558Y-21766300D01*
X35701456Y-21766300D01*
X35701457Y-21766300D01*
X35702822Y-21766127D01*
X35708462Y-21765414D01*
X35714285Y-21764956D01*
X35740308Y-21764138D01*
X35761490Y-21763473D01*
X35771281Y-21760627D01*
X35781081Y-21757780D01*
X35800138Y-21753832D01*
X35820397Y-21751274D01*
X35864321Y-21733882D01*
X35869821Y-21731999D01*
X35915193Y-21718818D01*
X35932765Y-21708425D01*
X35950232Y-21699868D01*
X35969217Y-21692352D01*
X36007426Y-21664590D01*
X36012304Y-21661385D01*
X36052962Y-21637342D01*
X36067402Y-21622900D01*
X36082192Y-21610270D01*
X36098707Y-21598272D01*
X36128822Y-21561867D01*
X36132726Y-21557576D01*
X36964534Y-20725769D01*
X37025856Y-20692286D01*
X37095548Y-20697270D01*
X37127268Y-20716501D01*
X37127890Y-20715646D01*
X37133145Y-20719464D01*
X37133147Y-20719466D01*
X37287648Y-20831718D01*
X37462112Y-20909394D01*
X37648913Y-20949100D01*
X37839887Y-20949100D01*
X38026688Y-20909394D01*
X38201152Y-20831718D01*
X38355653Y-20719466D01*
X38483440Y-20577544D01*
X38578927Y-20412156D01*
X38637942Y-20230528D01*
X38657904Y-20040600D01*
X38637942Y-19850672D01*
X38578927Y-19669044D01*
X38483440Y-19503656D01*
X38355653Y-19361734D01*
X38201152Y-19249482D01*
X38026688Y-19171806D01*
X38026686Y-19171805D01*
X37839887Y-19132100D01*
X37648913Y-19132100D01*
X37462114Y-19171805D01*
X37287646Y-19249483D01*
X37133145Y-19361735D01*
X37129240Y-19366073D01*
X37069754Y-19402721D01*
X37037091Y-19407100D01*
X36837434Y-19407100D01*
X36821686Y-19405361D01*
X36821661Y-19405632D01*
X36813894Y-19404898D01*
X36813891Y-19404898D01*
X36743842Y-19407100D01*
X36713937Y-19407100D01*
X36706943Y-19407984D01*
X36701120Y-19408442D01*
X36653912Y-19409926D01*
X36653909Y-19409927D01*
X36634306Y-19415622D01*
X36615258Y-19419566D01*
X36595003Y-19422126D01*
X36579147Y-19428403D01*
X36551085Y-19439513D01*
X36545559Y-19441405D01*
X36500207Y-19454581D01*
X36482633Y-19464974D01*
X36465172Y-19473528D01*
X36446186Y-19481046D01*
X36446184Y-19481047D01*
X36407972Y-19508808D01*
X36403090Y-19512015D01*
X36362437Y-19536057D01*
X36348001Y-19550494D01*
X36333215Y-19563123D01*
X36316693Y-19575128D01*
X36316691Y-19575129D01*
X36316691Y-19575130D01*
X36316688Y-19575132D01*
X36286580Y-19611525D01*
X36282649Y-19615846D01*
X35435514Y-20462981D01*
X35374191Y-20496466D01*
X35347833Y-20499300D01*
X28226834Y-20499300D01*
X28211086Y-20497561D01*
X28211061Y-20497832D01*
X28203294Y-20497098D01*
X28203291Y-20497098D01*
X28133242Y-20499300D01*
X28103337Y-20499300D01*
X28096343Y-20500184D01*
X28090520Y-20500642D01*
X28043311Y-20502126D01*
X28043308Y-20502127D01*
X28023705Y-20507822D01*
X28004659Y-20511766D01*
X27984403Y-20514326D01*
X27984401Y-20514326D01*
X27984399Y-20514327D01*
X27940482Y-20531714D01*
X27934956Y-20533606D01*
X27889606Y-20546782D01*
X27872031Y-20557175D01*
X27854573Y-20565728D01*
X27835583Y-20573248D01*
X27797372Y-20601008D01*
X27792490Y-20604215D01*
X27751837Y-20628257D01*
X27737401Y-20642694D01*
X27722615Y-20655323D01*
X27706093Y-20667328D01*
X27706091Y-20667330D01*
X27706090Y-20667331D01*
X27706088Y-20667332D01*
X27675993Y-20703712D01*
X27672059Y-20708035D01*
X27652776Y-20727317D01*
X27640421Y-20737216D01*
X27640594Y-20737425D01*
X27634585Y-20742396D01*
X27586614Y-20793480D01*
X27565472Y-20814622D01*
X27565457Y-20814639D01*
X27561131Y-20820214D01*
X27557347Y-20824644D01*
X27525019Y-20859071D01*
X27525012Y-20859081D01*
X27515179Y-20876967D01*
X27504503Y-20893220D01*
X27491986Y-20909357D01*
X27491985Y-20909359D01*
X27473225Y-20952710D01*
X27470655Y-20957956D01*
X27447903Y-20999341D01*
X27447903Y-20999342D01*
X27442825Y-21019120D01*
X27436525Y-21037522D01*
X27428418Y-21056257D01*
X27421031Y-21102895D01*
X27419846Y-21108616D01*
X27408100Y-21154365D01*
X27408100Y-21174784D01*
X27406572Y-21194183D01*
X27403380Y-21214343D01*
X27404305Y-21224131D01*
X27407825Y-21261366D01*
X27408100Y-21267204D01*
X27408100Y-31386966D01*
X27406361Y-31402713D01*
X27406632Y-31402739D01*
X27405898Y-31410505D01*
X27405898Y-31410508D01*
X27405898Y-31410509D01*
X27407099Y-31448700D01*
X27408100Y-31480557D01*
X27408100Y-31510459D01*
X27408984Y-31517456D01*
X27409442Y-31523279D01*
X27410926Y-31570489D01*
X27410927Y-31570491D01*
X27416622Y-31590095D01*
X27420567Y-31609142D01*
X27423126Y-31629397D01*
X27423127Y-31629400D01*
X27423128Y-31629403D01*
X27440514Y-31673316D01*
X27442406Y-31678844D01*
X27455581Y-31724192D01*
X27465972Y-31741762D01*
X27474532Y-31759235D01*
X27475291Y-31761152D01*
X27481668Y-31830730D01*
X27449416Y-31892711D01*
X27388774Y-31927415D01*
X27359999Y-31930800D01*
X26946400Y-31930800D01*
X26879361Y-31911115D01*
X26833606Y-31858311D01*
X26822400Y-31806800D01*
X26822400Y-17000003D01*
X27994415Y-17000003D01*
X28002433Y-17137658D01*
X28002538Y-17141264D01*
X28002538Y-17174583D01*
X28006406Y-17207683D01*
X28006720Y-17211274D01*
X28014738Y-17348928D01*
X28014739Y-17348938D01*
X28038679Y-17484708D01*
X28039202Y-17488276D01*
X28043070Y-17521371D01*
X28043074Y-17521394D01*
X28050756Y-17553812D01*
X28051485Y-17557341D01*
X28075427Y-17693120D01*
X28075430Y-17693132D01*
X28075431Y-17693136D01*
X28086053Y-17728617D01*
X28114978Y-17825234D01*
X28115912Y-17828718D01*
X28123595Y-17861137D01*
X28123596Y-17861140D01*
X28134988Y-17892439D01*
X28136122Y-17895862D01*
X28175672Y-18027968D01*
X28230293Y-18154594D01*
X28231624Y-18157945D01*
X28243016Y-18189243D01*
X28243020Y-18189251D01*
X28257960Y-18219000D01*
X28259484Y-18222268D01*
X28314106Y-18348894D01*
X28314108Y-18348897D01*
X28314111Y-18348904D01*
X28352987Y-18416241D01*
X28383056Y-18468322D01*
X28384767Y-18471496D01*
X28399724Y-18501275D01*
X28418027Y-18529104D01*
X28419921Y-18532174D01*
X28488870Y-18651597D01*
X28520683Y-18694329D01*
X28571236Y-18762233D01*
X28573270Y-18765139D01*
X28581169Y-18777149D01*
X28591585Y-18792987D01*
X28591588Y-18792990D01*
X28613004Y-18818514D01*
X28615241Y-18821343D01*
X28697584Y-18931949D01*
X28697589Y-18931955D01*
X28792219Y-19032256D01*
X28794617Y-19034950D01*
X28816025Y-19060464D01*
X28816028Y-19060467D01*
X28816030Y-19060469D01*
X28840275Y-19083343D01*
X28842808Y-19085877D01*
X28937442Y-19186183D01*
X28937448Y-19186188D01*
X28937450Y-19186190D01*
X29043070Y-19274816D01*
X29045765Y-19277214D01*
X29053628Y-19284632D01*
X29070003Y-19300081D01*
X29089660Y-19314715D01*
X29096725Y-19319975D01*
X29099555Y-19322212D01*
X29205195Y-19410854D01*
X29320404Y-19486628D01*
X29323359Y-19488697D01*
X29350076Y-19508587D01*
X29378922Y-19525241D01*
X29378927Y-19525244D01*
X29381984Y-19527129D01*
X29497207Y-19602913D01*
X29620460Y-19664813D01*
X29623600Y-19666506D01*
X29652462Y-19683170D01*
X29683078Y-19696376D01*
X29686300Y-19697879D01*
X29809549Y-19759777D01*
X29939132Y-19806941D01*
X29942463Y-19808264D01*
X29960945Y-19816237D01*
X29973067Y-19821466D01*
X29973079Y-19821470D01*
X29985658Y-19825235D01*
X30005005Y-19831027D01*
X30008382Y-19832146D01*
X30137989Y-19879319D01*
X30272218Y-19911131D01*
X30275606Y-19912039D01*
X30307566Y-19921608D01*
X30307573Y-19921609D01*
X30307576Y-19921610D01*
X30311933Y-19922378D01*
X30340417Y-19927400D01*
X30343876Y-19928114D01*
X30451702Y-19953670D01*
X30478081Y-19959922D01*
X30478085Y-19959922D01*
X30478086Y-19959923D01*
X30615067Y-19975933D01*
X30618578Y-19976448D01*
X30651420Y-19982239D01*
X30651421Y-19982239D01*
X30651426Y-19982240D01*
X30684692Y-19984177D01*
X30688262Y-19984489D01*
X30825241Y-20000500D01*
X30825248Y-20000500D01*
X30963139Y-20000500D01*
X30966740Y-20000604D01*
X30984193Y-20001621D01*
X30999998Y-20002542D01*
X31000000Y-20002542D01*
X31000002Y-20002542D01*
X31015806Y-20001621D01*
X31033259Y-20000604D01*
X31036861Y-20000500D01*
X31174752Y-20000500D01*
X31174759Y-20000500D01*
X31311760Y-19984486D01*
X31315284Y-19984178D01*
X31348574Y-19982240D01*
X31348578Y-19982239D01*
X31348582Y-19982239D01*
X31359110Y-19980382D01*
X31381412Y-19976449D01*
X31384937Y-19975933D01*
X31521914Y-19959923D01*
X31521924Y-19959920D01*
X31521928Y-19959920D01*
X31576274Y-19947039D01*
X31656111Y-19928117D01*
X31659631Y-19927392D01*
X31659643Y-19927390D01*
X31692434Y-19921608D01*
X31724406Y-19912036D01*
X31727777Y-19911132D01*
X31862011Y-19879319D01*
X31991628Y-19832142D01*
X31994962Y-19831037D01*
X32026930Y-19821467D01*
X32057565Y-19808252D01*
X32060831Y-19806954D01*
X32190451Y-19759777D01*
X32313731Y-19697863D01*
X32316900Y-19696385D01*
X32347538Y-19683170D01*
X32376404Y-19666503D01*
X32379533Y-19664816D01*
X32502793Y-19602913D01*
X32618064Y-19527097D01*
X32621023Y-19525272D01*
X32649924Y-19508587D01*
X32676685Y-19488663D01*
X32679555Y-19486653D01*
X32794811Y-19410849D01*
X32900487Y-19322176D01*
X32903216Y-19320018D01*
X32929997Y-19300081D01*
X32954286Y-19277164D01*
X32956874Y-19274862D01*
X33062558Y-19186183D01*
X33157208Y-19085859D01*
X33159706Y-19083360D01*
X33183970Y-19060469D01*
X33205400Y-19034929D01*
X33207754Y-19032284D01*
X33302412Y-18931953D01*
X33384774Y-18821320D01*
X33386970Y-18818543D01*
X33408409Y-18792994D01*
X33426743Y-18765118D01*
X33428764Y-18762231D01*
X33511130Y-18651596D01*
X33580088Y-18532155D01*
X33581960Y-18529122D01*
X33600278Y-18501271D01*
X33615253Y-18471452D01*
X33616929Y-18468345D01*
X33685889Y-18348904D01*
X33740511Y-18222276D01*
X33742028Y-18219020D01*
X33756982Y-18189246D01*
X33756983Y-18189242D01*
X33756984Y-18189242D01*
X33760607Y-18179284D01*
X33768388Y-18157906D01*
X33769689Y-18154633D01*
X33824326Y-18027971D01*
X33863878Y-17895856D01*
X33865000Y-17892469D01*
X33876404Y-17861139D01*
X33884104Y-17828649D01*
X33885004Y-17825289D01*
X33924569Y-17693136D01*
X33924572Y-17693120D01*
X33924573Y-17693117D01*
X33932285Y-17649370D01*
X33948521Y-17557294D01*
X33949229Y-17553862D01*
X33956927Y-17521386D01*
X33960801Y-17488236D01*
X33961313Y-17484745D01*
X33985262Y-17348927D01*
X33993283Y-17211204D01*
X33993588Y-17207725D01*
X33997462Y-17174582D01*
X33998141Y-17127794D01*
X34005585Y-17000000D01*
X33998141Y-16872208D01*
X33997462Y-16825418D01*
X33993588Y-16792281D01*
X33993281Y-16788761D01*
X33985262Y-16651073D01*
X33961315Y-16515264D01*
X33960795Y-16511711D01*
X33956927Y-16478614D01*
X33949240Y-16446180D01*
X33948516Y-16442675D01*
X33936039Y-16371917D01*
X33924573Y-16306882D01*
X33924567Y-16306858D01*
X33885009Y-16174725D01*
X33884095Y-16171311D01*
X33876404Y-16138861D01*
X33876401Y-16138854D01*
X33865012Y-16107563D01*
X33865004Y-16107540D01*
X33863878Y-16104142D01*
X33824326Y-15972029D01*
X33769701Y-15845394D01*
X33768369Y-15842040D01*
X33756984Y-15810759D01*
X33756983Y-15810757D01*
X33756982Y-15810754D01*
X33742031Y-15780983D01*
X33740519Y-15777744D01*
X33685889Y-15651096D01*
X33616939Y-15531671D01*
X33615233Y-15528508D01*
X33600281Y-15498735D01*
X33600278Y-15498729D01*
X33581959Y-15470876D01*
X33580072Y-15467816D01*
X33541132Y-15400370D01*
X33511130Y-15348404D01*
X33511126Y-15348399D01*
X33428789Y-15237801D01*
X33426720Y-15234846D01*
X33421809Y-15227380D01*
X33408409Y-15207006D01*
X33386989Y-15181479D01*
X33384757Y-15178655D01*
X33302413Y-15068048D01*
X33302410Y-15068044D01*
X33207779Y-14967742D01*
X33205381Y-14965047D01*
X33183969Y-14939529D01*
X33183968Y-14939528D01*
X33159732Y-14916663D01*
X33157191Y-14914122D01*
X33062558Y-14813817D01*
X32997326Y-14759081D01*
X32956937Y-14725190D01*
X32954243Y-14722793D01*
X32940990Y-14710290D01*
X32929997Y-14699919D01*
X32903267Y-14680019D01*
X32900445Y-14677788D01*
X32794804Y-14589145D01*
X32679604Y-14513378D01*
X32676650Y-14511309D01*
X32649924Y-14491413D01*
X32621067Y-14474752D01*
X32617998Y-14472859D01*
X32502793Y-14397087D01*
X32379568Y-14335201D01*
X32376393Y-14333489D01*
X32347544Y-14316833D01*
X32347540Y-14316831D01*
X32347538Y-14316830D01*
X32316951Y-14303636D01*
X32313683Y-14302112D01*
X32257740Y-14274017D01*
X32190451Y-14240223D01*
X32157613Y-14228271D01*
X32060877Y-14193061D01*
X32057525Y-14191730D01*
X32026932Y-14178534D01*
X32026921Y-14178529D01*
X31995005Y-14168975D01*
X31991597Y-14167846D01*
X31862011Y-14120681D01*
X31862010Y-14120680D01*
X31862008Y-14120680D01*
X31727836Y-14088881D01*
X31724353Y-14087947D01*
X31692446Y-14078395D01*
X31692437Y-14078393D01*
X31692434Y-14078392D01*
X31692428Y-14078391D01*
X31692424Y-14078390D01*
X31659618Y-14072604D01*
X31656089Y-14071875D01*
X31521911Y-14040076D01*
X31521905Y-14040075D01*
X31384959Y-14024068D01*
X31381392Y-14023546D01*
X31348575Y-14017760D01*
X31315315Y-14015822D01*
X31311724Y-14015508D01*
X31216396Y-14004366D01*
X31174759Y-13999500D01*
X31036861Y-13999500D01*
X31033259Y-13999395D01*
X31015806Y-13998378D01*
X31000002Y-13997458D01*
X30999998Y-13997458D01*
X30984193Y-13998378D01*
X30966740Y-13999395D01*
X30963139Y-13999500D01*
X30825241Y-13999500D01*
X30796218Y-14002892D01*
X30688274Y-14015508D01*
X30684683Y-14015822D01*
X30651420Y-14017760D01*
X30618591Y-14023548D01*
X30615025Y-14024070D01*
X30478094Y-14040075D01*
X30478088Y-14040076D01*
X30343915Y-14071874D01*
X30340386Y-14072603D01*
X30307574Y-14078390D01*
X30307566Y-14078392D01*
X30275647Y-14087946D01*
X30272166Y-14088879D01*
X30138002Y-14120676D01*
X30137987Y-14120681D01*
X30008421Y-14167839D01*
X30004999Y-14168972D01*
X29973083Y-14178528D01*
X29973059Y-14178536D01*
X29942484Y-14191725D01*
X29939134Y-14193056D01*
X29809556Y-14240219D01*
X29809551Y-14240221D01*
X29686328Y-14302106D01*
X29683061Y-14303629D01*
X29652469Y-14316826D01*
X29652461Y-14316830D01*
X29623597Y-14333493D01*
X29620425Y-14335203D01*
X29497207Y-14397086D01*
X29497204Y-14397088D01*
X29381989Y-14472866D01*
X29378921Y-14474758D01*
X29350085Y-14491407D01*
X29350080Y-14491410D01*
X29350076Y-14491413D01*
X29343063Y-14496633D01*
X29323351Y-14511307D01*
X29320400Y-14513374D01*
X29205195Y-14589147D01*
X29205173Y-14589163D01*
X29099558Y-14677783D01*
X29096732Y-14680019D01*
X29070004Y-14699918D01*
X29045762Y-14722788D01*
X29043070Y-14725184D01*
X28937444Y-14813814D01*
X28842798Y-14914131D01*
X28840249Y-14916681D01*
X28816031Y-14939528D01*
X28794626Y-14965037D01*
X28792230Y-14967729D01*
X28697586Y-15068048D01*
X28615236Y-15178662D01*
X28613001Y-15181488D01*
X28591595Y-15207001D01*
X28591588Y-15207010D01*
X28573284Y-15234838D01*
X28571217Y-15237790D01*
X28488873Y-15348399D01*
X28488863Y-15348414D01*
X28419914Y-15467835D01*
X28418022Y-15470903D01*
X28399723Y-15498726D01*
X28399718Y-15498735D01*
X28384769Y-15528498D01*
X28383059Y-15531670D01*
X28314115Y-15651088D01*
X28314107Y-15651104D01*
X28259492Y-15777716D01*
X28257968Y-15780983D01*
X28243019Y-15810750D01*
X28243017Y-15810754D01*
X28231628Y-15842044D01*
X28230297Y-15845395D01*
X28175673Y-15972029D01*
X28136120Y-16104142D01*
X28134987Y-16107563D01*
X28123598Y-16138854D01*
X28115913Y-16171275D01*
X28114980Y-16174757D01*
X28075431Y-16306862D01*
X28075427Y-16306879D01*
X28051485Y-16442661D01*
X28050756Y-16446191D01*
X28043073Y-16478613D01*
X28043070Y-16478628D01*
X28039202Y-16511724D01*
X28038679Y-16515292D01*
X28014739Y-16651061D01*
X28014738Y-16651071D01*
X28006720Y-16788724D01*
X28006406Y-16792315D01*
X28002538Y-16825414D01*
X28002538Y-16858734D01*
X28002433Y-16862340D01*
X27994415Y-16999996D01*
X27994415Y-17000003D01*
X26822400Y-17000003D01*
X26822400Y-12124500D01*
X26842085Y-12057461D01*
X26894889Y-12011706D01*
X26946400Y-12000500D01*
X54790800Y-12000500D01*
X54857839Y-12020185D01*
G37*
%TD.AperFunction*%
%TA.AperFunction,Conductor*%
G36*
X52429061Y-28512909D02*
G01*
X52484781Y-28524752D01*
X52509435Y-28532763D01*
X52561479Y-28555934D01*
X52583931Y-28568897D01*
X52630021Y-28602384D01*
X52649284Y-28619728D01*
X52687396Y-28662055D01*
X52702633Y-28683026D01*
X52708708Y-28693549D01*
X52781780Y-28791159D01*
X52781784Y-28791163D01*
X52822131Y-28833477D01*
X52822133Y-28833479D01*
X52916137Y-28911095D01*
X52916140Y-28911097D01*
X53049088Y-28971814D01*
X53091860Y-28984373D01*
X53116122Y-28991498D01*
X53116127Y-28991499D01*
X53116131Y-28991500D01*
X53260801Y-29012300D01*
X53260804Y-29012300D01*
X54120300Y-29012300D01*
X54187339Y-29031985D01*
X54233094Y-29084789D01*
X54244300Y-29136300D01*
X54244300Y-30203232D01*
X54224615Y-30270271D01*
X54207981Y-30290913D01*
X53255979Y-31242914D01*
X53243620Y-31252818D01*
X53243793Y-31253027D01*
X53237783Y-31257999D01*
X53189816Y-31309078D01*
X53168672Y-31330222D01*
X53168657Y-31330239D01*
X53164331Y-31335814D01*
X53160547Y-31340244D01*
X53128219Y-31374671D01*
X53128212Y-31374681D01*
X53118379Y-31392567D01*
X53107703Y-31408820D01*
X53095186Y-31424957D01*
X53095185Y-31424959D01*
X53076425Y-31468310D01*
X53073855Y-31473556D01*
X53051103Y-31514941D01*
X53051103Y-31514942D01*
X53046025Y-31534720D01*
X53039725Y-31553122D01*
X53031618Y-31571857D01*
X53024231Y-31618495D01*
X53023046Y-31624216D01*
X53011300Y-31669965D01*
X53011300Y-31690384D01*
X53009773Y-31709783D01*
X53007491Y-31724193D01*
X53006580Y-31729943D01*
X53007697Y-31741762D01*
X53011025Y-31776966D01*
X53011300Y-31782804D01*
X53011300Y-31935083D01*
X52991615Y-32002122D01*
X52974981Y-32022764D01*
X52810607Y-32187138D01*
X52749284Y-32220623D01*
X52722926Y-32223457D01*
X52519714Y-32223457D01*
X52503962Y-32221717D01*
X52503937Y-32221989D01*
X52496175Y-32221255D01*
X52496174Y-32221255D01*
X52426111Y-32223457D01*
X52396227Y-32223457D01*
X52396224Y-32223457D01*
X52396212Y-32223458D01*
X52389220Y-32224341D01*
X52383403Y-32224798D01*
X52336197Y-32226282D01*
X52336190Y-32226283D01*
X52316583Y-32231979D01*
X52297544Y-32235922D01*
X52277294Y-32238481D01*
X52277284Y-32238483D01*
X52233374Y-32255868D01*
X52227848Y-32257760D01*
X52182495Y-32270936D01*
X52182490Y-32270938D01*
X52164916Y-32281331D01*
X52147455Y-32289885D01*
X52128469Y-32297403D01*
X52128467Y-32297404D01*
X52090255Y-32325165D01*
X52085373Y-32328372D01*
X52044720Y-32352414D01*
X52030284Y-32366851D01*
X52015498Y-32379480D01*
X52010701Y-32382966D01*
X51998974Y-32391486D01*
X51968868Y-32427876D01*
X51964936Y-32432198D01*
X51929862Y-32467271D01*
X51868538Y-32500755D01*
X51816401Y-32500878D01*
X51657487Y-32467100D01*
X51466513Y-32467100D01*
X51279714Y-32506805D01*
X51222422Y-32532313D01*
X51153172Y-32541597D01*
X51089895Y-32511968D01*
X51052682Y-32452833D01*
X51053348Y-32382966D01*
X51091681Y-32324551D01*
X51099102Y-32318715D01*
X51157253Y-32276466D01*
X51285040Y-32134544D01*
X51335164Y-32047725D01*
X51340052Y-32040491D01*
X51346715Y-32031995D01*
X51381843Y-31981167D01*
X51438995Y-31846646D01*
X51449836Y-31805721D01*
X51456886Y-31779109D01*
X51456887Y-31779100D01*
X51458981Y-31761152D01*
X51473824Y-31633930D01*
X51406154Y-29096321D01*
X51424045Y-29028784D01*
X51475610Y-28981638D01*
X51524207Y-28969160D01*
X51595366Y-28965772D01*
X51595370Y-28965771D01*
X51595372Y-28965771D01*
X51626095Y-28959849D01*
X51663973Y-28952550D01*
X51663977Y-28952549D01*
X51663981Y-28952548D01*
X51802093Y-28904747D01*
X51802092Y-28904747D01*
X51802096Y-28904746D01*
X51921153Y-28819967D01*
X51969783Y-28773598D01*
X51970580Y-28772901D01*
X51971720Y-28771751D01*
X51971725Y-28771748D01*
X52027630Y-28700655D01*
X52030252Y-28697540D01*
X52100315Y-28619726D01*
X52119576Y-28602384D01*
X52165667Y-28568897D01*
X52165673Y-28568892D01*
X52188108Y-28555939D01*
X52240164Y-28532761D01*
X52264811Y-28524753D01*
X52320538Y-28512908D01*
X52346318Y-28510200D01*
X52403281Y-28510200D01*
X52429061Y-28512909D01*
G37*
%TD.AperFunction*%
%TD*%
%TA.AperFunction,Conductor*%
%TO.N,+5V*%
G36*
X43433680Y-26588085D02*
G01*
X43439513Y-26592072D01*
X43586848Y-26699118D01*
X43761312Y-26776794D01*
X43948113Y-26816500D01*
X44139087Y-26816500D01*
X44325888Y-26776794D01*
X44500352Y-26699118D01*
X44647674Y-26592081D01*
X44713480Y-26568602D01*
X44720559Y-26568400D01*
X50189838Y-26568400D01*
X50256877Y-26588085D01*
X50277519Y-26604719D01*
X50666790Y-26993990D01*
X50686496Y-27019671D01*
X50720876Y-27079218D01*
X50735960Y-27105344D01*
X50768149Y-27141093D01*
X50798379Y-27204085D01*
X50800000Y-27224066D01*
X50800000Y-27432000D01*
X50814451Y-27446451D01*
X50847936Y-27507774D01*
X50850726Y-27530827D01*
X50960506Y-31647618D01*
X50942615Y-31715158D01*
X50924232Y-31738604D01*
X50835094Y-31827742D01*
X50745954Y-31916882D01*
X50684634Y-31950366D01*
X50658275Y-31953200D01*
X41576800Y-31953200D01*
X41509761Y-31933515D01*
X41464006Y-31880711D01*
X41452800Y-31829200D01*
X41452800Y-26903562D01*
X41472485Y-26836523D01*
X41477090Y-26830494D01*
X41476822Y-26830299D01*
X41480636Y-26825048D01*
X41480640Y-26825044D01*
X41576127Y-26659656D01*
X41577937Y-26654086D01*
X41617372Y-26596409D01*
X41681730Y-26569209D01*
X41695869Y-26568400D01*
X43366641Y-26568400D01*
X43433680Y-26588085D01*
G37*
%TD.AperFunction*%
%TD*%
%TA.AperFunction,Conductor*%
%TO.N,+3V3*%
G36*
X54120550Y-21823000D02*
G01*
X54187546Y-21842817D01*
X54233196Y-21895712D01*
X54244300Y-21946999D01*
X54244300Y-28374800D01*
X54224615Y-28441839D01*
X54171811Y-28487594D01*
X54120300Y-28498800D01*
X53260801Y-28498800D01*
X53193762Y-28479115D01*
X53153414Y-28436800D01*
X53151905Y-28434187D01*
X53113840Y-28368256D01*
X52986053Y-28226334D01*
X52831552Y-28114082D01*
X52657088Y-28036406D01*
X52657086Y-28036405D01*
X52470287Y-27996700D01*
X52279313Y-27996700D01*
X52092514Y-28036405D01*
X51918046Y-28114083D01*
X51763545Y-28226335D01*
X51635758Y-28368257D01*
X51635756Y-28368260D01*
X51617366Y-28400113D01*
X51566799Y-28448328D01*
X51498192Y-28461550D01*
X51433327Y-28435582D01*
X51392799Y-28378667D01*
X51386024Y-28341420D01*
X51363723Y-27505102D01*
X51361953Y-27481085D01*
X51357716Y-27446078D01*
X51349701Y-27398621D01*
X51321317Y-27322522D01*
X51313500Y-27279190D01*
X51313500Y-27213673D01*
X51312659Y-27192903D01*
X51310197Y-27162563D01*
X51305169Y-27121342D01*
X51305167Y-27121335D01*
X51261333Y-26981925D01*
X51261330Y-26981920D01*
X51261329Y-26981914D01*
X51231099Y-26918922D01*
X51231098Y-26918920D01*
X51161104Y-26814439D01*
X51158920Y-26810932D01*
X51122790Y-26748355D01*
X51104112Y-26720403D01*
X51063945Y-26668057D01*
X51063942Y-26668053D01*
X51041775Y-26642777D01*
X50947713Y-26548715D01*
X50630895Y-26231895D01*
X50630895Y-26231896D01*
X50630893Y-26231894D01*
X50610429Y-26213513D01*
X50610422Y-26213507D01*
X50610421Y-26213506D01*
X50579081Y-26188251D01*
X50579082Y-26188251D01*
X50534500Y-26156103D01*
X50401554Y-26095387D01*
X50334517Y-26075702D01*
X50334512Y-26075700D01*
X50248482Y-26063331D01*
X50225078Y-26056580D01*
X50224872Y-26057215D01*
X50218687Y-26055205D01*
X50031887Y-26015500D01*
X49840913Y-26015500D01*
X49668301Y-26052190D01*
X49642520Y-26054900D01*
X49417480Y-26054900D01*
X49391699Y-26052190D01*
X49219087Y-26015500D01*
X49028113Y-26015500D01*
X48855501Y-26052190D01*
X48829720Y-26054900D01*
X48604680Y-26054900D01*
X48578899Y-26052190D01*
X48406287Y-26015500D01*
X48215313Y-26015500D01*
X48042701Y-26052190D01*
X48016920Y-26054900D01*
X47791880Y-26054900D01*
X47766099Y-26052190D01*
X47593487Y-26015500D01*
X47402513Y-26015500D01*
X47229901Y-26052190D01*
X47204120Y-26054900D01*
X44713234Y-26054900D01*
X44702547Y-26055205D01*
X44698833Y-26055311D01*
X44684165Y-26055939D01*
X44684164Y-26055939D01*
X44540930Y-26084961D01*
X44540920Y-26084964D01*
X44475126Y-26108439D01*
X44475117Y-26108441D01*
X44475107Y-26108446D01*
X44345848Y-26176650D01*
X44310433Y-26202380D01*
X44244626Y-26225858D01*
X44211771Y-26223351D01*
X44189888Y-26218700D01*
X44189887Y-26218700D01*
X43998913Y-26218700D01*
X43898425Y-26240058D01*
X43828759Y-26234742D01*
X43799761Y-26219086D01*
X43735372Y-26172305D01*
X43723446Y-26164153D01*
X43711307Y-26156106D01*
X43711305Y-26156105D01*
X43711302Y-26156103D01*
X43606951Y-26108446D01*
X43578357Y-26095387D01*
X43511320Y-26075702D01*
X43511314Y-26075700D01*
X43424509Y-26063220D01*
X43366641Y-26054900D01*
X41688531Y-26054900D01*
X41688530Y-26054900D01*
X41681196Y-26055109D01*
X41673862Y-26055319D01*
X41652397Y-26056548D01*
X41623178Y-26059058D01*
X41481827Y-26096216D01*
X41481824Y-26096218D01*
X41417468Y-26123417D01*
X41417466Y-26123417D01*
X41363269Y-26156103D01*
X41309967Y-26188249D01*
X41292301Y-26198903D01*
X41193479Y-26306584D01*
X41193477Y-26306587D01*
X41152682Y-26366254D01*
X41152496Y-26366405D01*
X41071669Y-26506401D01*
X41021101Y-26554616D01*
X40964282Y-26568400D01*
X39545320Y-26568400D01*
X39478281Y-26548715D01*
X39432526Y-26495911D01*
X39421321Y-26443881D01*
X39427089Y-25065923D01*
X39447054Y-24998968D01*
X39500049Y-24953435D01*
X39550729Y-24942445D01*
X41865856Y-24935776D01*
X41916645Y-24946494D01*
X42034112Y-24998794D01*
X42220913Y-25038500D01*
X42411887Y-25038500D01*
X42598688Y-24998794D01*
X42773152Y-24921118D01*
X42927653Y-24808866D01*
X43055440Y-24666944D01*
X43055439Y-24666944D01*
X43059789Y-24662114D01*
X43060255Y-24662533D01*
X43075414Y-24646521D01*
X43426472Y-24361000D01*
X43490902Y-24333971D01*
X43504713Y-24333200D01*
X43609190Y-24333200D01*
X43659623Y-24343919D01*
X43761312Y-24389194D01*
X43948113Y-24428900D01*
X44139087Y-24428900D01*
X44325888Y-24389194D01*
X44427576Y-24343919D01*
X44478010Y-24333200D01*
X46684269Y-24333200D01*
X46751308Y-24352885D01*
X46791656Y-24395200D01*
X46860559Y-24514542D01*
X46860558Y-24514542D01*
X46860560Y-24514544D01*
X46988347Y-24656466D01*
X47142848Y-24768718D01*
X47317312Y-24846394D01*
X47504113Y-24886100D01*
X47695087Y-24886100D01*
X47881888Y-24846394D01*
X47983022Y-24801365D01*
X48052270Y-24792080D01*
X48083892Y-24801365D01*
X48100740Y-24808866D01*
X48187437Y-24847466D01*
X48374238Y-24887172D01*
X48565212Y-24887172D01*
X48752013Y-24847466D01*
X48849030Y-24804270D01*
X48918278Y-24794985D01*
X48949900Y-24804270D01*
X48960223Y-24808866D01*
X49044512Y-24846394D01*
X49231313Y-24886100D01*
X49422287Y-24886100D01*
X49609088Y-24846394D01*
X49708165Y-24802281D01*
X49777414Y-24792998D01*
X49809032Y-24802280D01*
X49908112Y-24846394D01*
X50094913Y-24886100D01*
X50285887Y-24886100D01*
X50472688Y-24846394D01*
X50647152Y-24768718D01*
X50801653Y-24656466D01*
X50929440Y-24514544D01*
X51024927Y-24349156D01*
X51083942Y-24167528D01*
X51103904Y-23977600D01*
X51083942Y-23787672D01*
X51026056Y-23609518D01*
X51024061Y-23539677D01*
X51026056Y-23532882D01*
X51036270Y-23501443D01*
X51083942Y-23354728D01*
X51103904Y-23164800D01*
X51083942Y-22974872D01*
X51026056Y-22796718D01*
X51024061Y-22726877D01*
X51026056Y-22720082D01*
X51036270Y-22688643D01*
X51083942Y-22541928D01*
X51103904Y-22352000D01*
X51093395Y-22252020D01*
X51105964Y-22183296D01*
X51153696Y-22132271D01*
X51221436Y-22115153D01*
X51267149Y-22125783D01*
X51330512Y-22153994D01*
X51517313Y-22193700D01*
X51708287Y-22193700D01*
X51895088Y-22153994D01*
X52069552Y-22076318D01*
X52224053Y-21964066D01*
X52317188Y-21860627D01*
X52376671Y-21823983D01*
X52409570Y-21819604D01*
X54120550Y-21823000D01*
G37*
%TD.AperFunction*%
%TD*%
M02*
