M48
; DRILL file {KiCad 7.0.8} date 2024 September 21, Saturday 08:52:29
; FORMAT={-:-/ absolute / inch / decimal}
; #@! TF.CreationDate,2024-09-21T08:52:29-04:00
; #@! TF.GenerationSoftware,Kicad,Pcbnew,7.0.8
; #@! TF.FileFunction,Plated,1,2,PTH
FMAT,2
INCH
; #@! TA.AperFunction,Plated,PTH,ViaDrill
T1C0.0157
; #@! TA.AperFunction,Plated,PTH,ComponentDrill
T2C0.0236
; #@! TA.AperFunction,Plated,PTH,ComponentDrill
T3C0.0295
; #@! TA.AperFunction,Plated,PTH,ComponentDrill
T4C0.0354
%
G90
G05
T1
X1.167Y-1.127
X1.175Y-0.952
X1.27Y-1.146
X1.272Y-0.926
X1.345Y-1.358
X1.346Y-1.45
X1.358Y-1.54
X1.3592Y-2.4216
X1.3599Y-2.7982
X1.362Y-2.494
X1.38Y-1.146
X1.386Y-0.926
X1.386Y-1.2346
X1.39Y-0.868
X1.412Y-1.774
X1.414Y-1.268
X1.4299Y-1.5534
X1.431Y-3.383
X1.4347Y-2.4879
X1.4357Y-2.308
X1.4357Y-1.962
X1.4357Y-2.048
X1.4357Y-2.144
X1.4357Y-2.23
X1.448Y-0.98
X1.4517Y-2.5909
X1.4654Y-2.4577
X1.466Y-1.92
X1.472Y-2.728
X1.478Y-1.102
X1.4846Y-1.058
X1.486Y-0.789
X1.486Y-1.016
X1.486Y-1.51
X1.49Y-1.368
X1.4927Y-1.9635
X1.4927Y-2.048
X1.4927Y-2.144
X1.4927Y-2.23
X1.4927Y-2.306
X1.493Y-1.552
X1.501Y-2.819
X1.518Y-1.908
X1.522Y-2.348
X1.524Y-2.658
X1.5247Y-1.7945
X1.526Y-1.671
X1.531Y-3.377
X1.5464Y-2.4734
X1.552Y-1.962
X1.562Y-1.916
X1.564Y-1.024
X1.564Y-1.338
X1.57Y-2.694
X1.572Y-2.768
X1.587Y-2.166
X1.587Y-2.198
X1.587Y-2.23
X1.587Y-2.262
X1.587Y-2.294
X1.588Y-1.298
X1.594Y-2.484
X1.602Y-0.888
X1.603Y-1.917
X1.604Y-1.035
X1.606Y-3.006
X1.612Y-2.642
X1.614Y-2.804
X1.616Y-1.988
X1.618Y-2.36
X1.62Y-2.166
X1.62Y-2.198
X1.62Y-2.23
X1.62Y-2.262
X1.62Y-2.294
X1.6366Y-2.4717
X1.64Y-1.11
X1.642Y-1.578
X1.642Y-1.626
X1.644Y-1.22
X1.65Y-3.386
X1.652Y-2.166
X1.652Y-2.198
X1.652Y-2.23
X1.652Y-2.262
X1.652Y-2.294
X1.666Y-0.837
X1.666Y-0.95
X1.678Y-2.804
X1.684Y-2.166
X1.684Y-2.198
X1.684Y-2.23
X1.684Y-2.262
X1.684Y-2.294
X1.694Y-2.39
X1.702Y-1.994
X1.714Y-1.5665
X1.716Y-2.165
X1.716Y-2.197
X1.716Y-2.229
X1.716Y-2.261
X1.716Y-2.293
X1.734Y-0.856
X1.734Y-0.892
X1.734Y-0.926
X1.734Y-1.02
X1.734Y-2.358
X1.736Y-0.976
X1.736Y-1.068
X1.738Y-1.146
X1.749Y-1.5673
X1.76Y-2.42
X1.77Y-0.846
X1.786Y-1.9365
X1.802Y-1.136
X1.804Y-2.344
X1.8105Y-1.528
X1.8164Y-2.3813
X1.822Y-1.296
X1.826Y-1.242
X1.83Y-2.238
X1.83Y-2.296
X1.834Y-1.996
X1.834Y-2.112
X1.8434Y-1.5064
X1.854Y-1.358
X1.857Y-1.5731
X1.86Y-0.835
X1.86Y-3.028
X1.864Y-3.53
X1.87Y-1.06
X1.87Y-1.092
X1.87Y-1.124
X1.874Y-0.88
X1.874Y-0.912
X1.874Y-0.944
X1.874Y-2.4395
X1.878Y-1.0
X1.884Y-1.188
X1.902Y-1.06
X1.902Y-1.092
X1.902Y-1.124
X1.908Y-0.88
X1.908Y-0.912
X1.9083Y-0.944
X1.91Y-1.0
X1.9135Y-2.12
X1.9135Y-2.194
X1.9135Y-2.252
X1.9148Y-2.6071
X1.915Y-2.3617
X1.9173Y-1.566
X1.92Y-1.9365
X1.934Y-1.06
X1.934Y-1.092
X1.934Y-1.124
X1.938Y-2.862
X1.942Y-0.88
X1.942Y-0.912
X1.942Y-0.944
X1.942Y-1.0
X1.948Y-3.436
X1.9484Y-2.3951
X1.952Y-2.69
X1.9556Y-1.6776
X1.9614Y-1.5729
X1.966Y-1.06
X1.966Y-1.092
X1.966Y-1.124
X1.9706Y-2.292
X1.974Y-1.0
X1.976Y-0.88
X1.976Y-0.912
X1.976Y-0.944
X1.988Y-2.016
X1.988Y-2.174
X1.9896Y-2.1
X1.99Y-1.244
X1.996Y-3.374
X1.998Y-2.6462
X2.012Y-2.424
X2.023Y-3.598
X2.0266Y-0.95
X2.0266Y-0.982
X2.0266Y-1.014
X2.0266Y-1.046
X2.03Y-1.314
X2.032Y-0.838
X2.05Y-0.922
X2.05Y-1.074
X2.062Y-1.138
X2.066Y-2.632
X2.068Y-2.476
X2.074Y-0.95
X2.074Y-0.982
X2.074Y-1.014
X2.074Y-1.046
X2.1059Y-1.3158
X2.1082Y-1.6693
X2.11Y-1.19
X2.1171Y-1.7082
X2.1186Y-2.1347
X2.1199Y-2.517
X2.125Y-2.05
X2.1475Y-1.995
X2.1506Y-2.1113
X2.152Y-2.182
X2.157Y-1.523
X2.164Y-2.422
X2.1655Y-1.9557
X2.196Y-1.917
X2.272Y-3.516
X2.32Y-3.524
X2.374Y-3.696
T3
X1.4005Y-1.4517
X1.4793Y-1.4517
X1.558Y-1.4517
X1.6367Y-1.4517
X1.7155Y-1.4517
T4
X2.2398Y-0.9398
X2.2398Y-1.2398
X2.2398Y-1.5398
X2.2398Y-1.8398
X2.2398Y-2.3398
X2.2398Y-2.6398
X2.2398Y-2.9398
X2.2398Y-3.2398
X2.3398Y-0.9398
X2.3398Y-1.2398
X2.3398Y-1.5398
X2.3398Y-1.8398
X2.3398Y-2.3398
X2.3398Y-2.6398
X2.3398Y-2.9398
X2.3398Y-3.2398
X2.5898Y-0.5898
X2.5898Y-0.6898
X2.5898Y-2.0398
X2.5898Y-2.1398
X2.5898Y-3.4898
X2.5898Y-3.5898
X2.8898Y-0.5898
X2.8898Y-0.6898
X2.8898Y-2.0398
X2.8898Y-2.1398
X2.8898Y-3.4898
X2.8898Y-3.5898
X3.1898Y-0.5898
X3.1898Y-0.6898
X3.1898Y-2.0398
X3.1898Y-2.1398
X3.1898Y-3.4898
X3.1898Y-3.5898
X3.4898Y-0.5898
X3.4898Y-0.6898
X3.4898Y-2.0398
X3.4898Y-2.1398
X3.4898Y-3.4898
X3.4898Y-3.5898
X3.7398Y-0.9398
X3.7398Y-1.2398
X3.7398Y-1.5398
X3.7398Y-1.8398
X3.7398Y-2.3398
X3.7398Y-2.6398
X3.7398Y-2.9398
X3.7398Y-3.2398
X3.8398Y-0.9398
X3.8398Y-1.2398
X3.8398Y-1.5398
X3.8398Y-1.8398
X3.8398Y-2.3398
X3.8398Y-2.6398
X3.8398Y-2.9398
X3.8398Y-3.2398
X4.1398Y-0.9398
X4.1398Y-1.2398
X4.1398Y-1.5398
X4.1398Y-1.8398
X4.1398Y-2.3398
X4.1398Y-2.6398
X4.1398Y-2.9398
X4.1398Y-3.2398
X4.2398Y-0.9398
X4.2398Y-1.2398
X4.2398Y-1.5398
X4.2398Y-1.8398
X4.2398Y-2.3398
X4.2398Y-2.6398
X4.2398Y-2.9398
X4.2398Y-3.2398
X4.4898Y-0.5898
X4.4898Y-0.6898
X4.4898Y-2.0398
X4.4898Y-2.1398
X4.4898Y-3.4898
X4.4898Y-3.5898
X4.7898Y-0.5898
X4.7898Y-0.6898
X4.7898Y-2.0398
X4.7898Y-2.1398
X4.7898Y-3.4898
X4.7898Y-3.5898
X5.0898Y-0.5898
X5.0898Y-0.6898
X5.0898Y-2.0398
X5.0898Y-2.1398
X5.0898Y-3.4898
X5.0898Y-3.5898
X5.3898Y-0.5898
X5.3898Y-0.6898
X5.3898Y-2.0398
X5.3898Y-2.1398
X5.3898Y-3.4898
X5.3898Y-3.5898
X5.6398Y-0.9398
X5.6398Y-1.2398
X5.6398Y-1.5398
X5.6398Y-1.8398
X5.6398Y-2.3398
X5.6398Y-2.6398
X5.6398Y-2.9398
X5.6398Y-3.2398
X5.7398Y-0.9398
X5.7398Y-1.2398
X5.7398Y-1.5398
X5.7398Y-1.8398
X5.7398Y-2.3398
X5.7398Y-2.6398
X5.7398Y-2.9398
X5.7398Y-3.2398
X6.4898Y-0.9398
X6.4898Y-1.2398
X6.4898Y-1.5398
X6.4898Y-1.8398
X6.4898Y-2.3398
X6.4898Y-2.6398
X6.4898Y-2.9398
X6.4898Y-3.2398
X6.5898Y-0.9398
X6.5898Y-1.2398
X6.5898Y-1.5398
X6.5898Y-1.8398
X6.5898Y-2.3398
X6.5898Y-2.6398
X6.5898Y-2.9398
X6.5898Y-3.2398
X6.8398Y-0.5898
X6.8398Y-0.6898
X6.8398Y-2.0398
X6.8398Y-2.1398
X6.8398Y-3.4898
X6.8398Y-3.5898
X7.1398Y-0.5898
X7.1398Y-0.6898
X7.1398Y-2.0398
X7.1398Y-2.1398
X7.1398Y-3.4898
X7.1398Y-3.5898
X7.4398Y-0.5898
X7.4398Y-0.6898
X7.4398Y-2.0398
X7.4398Y-2.1398
X7.4398Y-3.4898
X7.4398Y-3.5898
X7.7398Y-0.5898
X7.7398Y-0.6898
X7.7398Y-2.0398
X7.7398Y-2.1398
X7.7398Y-3.4898
X7.7398Y-3.5898
X7.9898Y-0.9398
X7.9898Y-1.2398
X7.9898Y-1.5398
X7.9898Y-1.8398
X7.9898Y-2.3398
X7.9898Y-2.6398
X7.9898Y-2.9398
X7.9898Y-3.2398
X8.0898Y-0.9398
X8.0898Y-1.2398
X8.0898Y-1.5398
X8.0898Y-1.8398
X8.0898Y-2.3398
X8.0898Y-2.6398
X8.0898Y-2.9398
X8.0898Y-3.2398
X8.3898Y-0.9398
X8.3898Y-1.2398
X8.3898Y-1.5398
X8.3898Y-1.8398
X8.3898Y-2.3398
X8.3898Y-2.6398
X8.3898Y-2.9398
X8.3898Y-3.2398
X8.4898Y-0.9398
X8.4898Y-1.2398
X8.4898Y-1.5398
X8.4898Y-1.8398
X8.4898Y-2.3398
X8.4898Y-2.6398
X8.4898Y-2.9398
X8.4898Y-3.2398
X8.7398Y-0.5898
X8.7398Y-0.6898
X8.7398Y-2.0398
X8.7398Y-2.1398
X8.7398Y-3.4898
X8.7398Y-3.5898
X9.0398Y-0.5898
X9.0398Y-0.6898
X9.0398Y-2.0398
X9.0398Y-2.1398
X9.0398Y-3.4898
X9.0398Y-3.5898
X9.3398Y-0.5898
X9.3398Y-0.6898
X9.3398Y-2.0398
X9.3398Y-2.1398
X9.3398Y-3.4898
X9.3398Y-3.5898
X9.6398Y-0.5898
X9.6398Y-0.6898
X9.6398Y-2.0398
X9.6398Y-2.1398
X9.6398Y-3.4898
X9.6398Y-3.5898
X9.8898Y-0.9398
X9.8898Y-1.2398
X9.8898Y-1.5398
X9.8898Y-1.8398
X9.8898Y-2.3398
X9.8898Y-2.6398
X9.8898Y-2.9398
X9.8898Y-3.2398
X9.9898Y-0.9398
X9.9898Y-1.2398
X9.9898Y-1.5398
X9.9898Y-1.8398
X9.9898Y-2.3398
X9.9898Y-2.6398
X9.9898Y-2.9398
X9.9898Y-3.2398
T2
G00X1.1869Y-0.8666
M15
G01X1.1633Y-0.8666
M16
G05
G00X1.1869Y-1.2068
M15
G01X1.1633Y-1.2068
M16
G05
G00X1.3365Y-0.8666
M15
G01X1.3129Y-0.8666
M16
G05
G00X1.3365Y-1.2068
M15
G01X1.3129Y-1.2068
M16
G05
T0
M30
