%TF.GenerationSoftware,KiCad,Pcbnew,7.0.8*%
%TF.CreationDate,2024-09-21T08:52:27-04:00*%
%TF.ProjectId,clock,636c6f63-6b2e-46b6-9963-61645f706362,rev?*%
%TF.SameCoordinates,Original*%
%TF.FileFunction,Legend,Top*%
%TF.FilePolarity,Positive*%
%FSLAX46Y46*%
G04 Gerber Fmt 4.6, Leading zero omitted, Abs format (unit mm)*
G04 Created by KiCad (PCBNEW 7.0.8) date 2024-09-21 08:52:27*
%MOMM*%
%LPD*%
G01*
G04 APERTURE LIST*
%ADD10C,3.377000*%
%ADD11C,0.150000*%
%ADD12C,0.300000*%
%ADD13C,0.187500*%
%ADD14C,0.100000*%
%ADD15C,0.120000*%
G04 APERTURE END LIST*
D10*
X156825500Y-35518600D02*
G75*
G03*
X156825500Y-35518600I-1688500J0D01*
G01*
X156825500Y-71078600D02*
G75*
G03*
X156825500Y-71078600I-1688500J0D01*
G01*
D11*
G36*
X43616371Y-90310398D02*
G01*
X43554390Y-90496340D01*
X43432657Y-90618073D01*
X43308051Y-90680376D01*
X43039280Y-90747569D01*
X42843462Y-90747569D01*
X42574690Y-90680376D01*
X42450084Y-90618073D01*
X42328352Y-90496341D01*
X42266371Y-90310398D01*
X42266371Y-90040426D01*
X43616371Y-90040426D01*
X43616371Y-90310398D01*
G37*
G36*
X43980657Y-93825002D02*
G01*
X41902085Y-93825002D01*
X41902085Y-93095259D01*
X42117510Y-93095259D01*
X42126419Y-93145783D01*
X42165719Y-93178760D01*
X42191371Y-93183283D01*
X43616371Y-93183283D01*
X43616371Y-93536855D01*
X43633918Y-93585064D01*
X43678347Y-93610716D01*
X43728871Y-93601807D01*
X43761848Y-93562507D01*
X43766371Y-93536855D01*
X43766371Y-92679712D01*
X43748824Y-92631503D01*
X43704395Y-92605851D01*
X43653871Y-92614760D01*
X43620894Y-92654060D01*
X43616371Y-92679712D01*
X43616371Y-93033283D01*
X42191371Y-93033283D01*
X42143162Y-93050830D01*
X42117510Y-93095259D01*
X41902085Y-93095259D01*
X41902085Y-91965426D01*
X42116371Y-91965426D01*
X42117904Y-91969639D01*
X42116863Y-91974000D01*
X42124289Y-91998967D01*
X42195718Y-92141825D01*
X42196907Y-92142950D01*
X42209767Y-92161317D01*
X42281195Y-92232745D01*
X42282680Y-92233437D01*
X42300687Y-92246794D01*
X42443544Y-92318223D01*
X42447997Y-92318735D01*
X42451433Y-92321618D01*
X42477085Y-92326141D01*
X42619942Y-92326141D01*
X42624155Y-92324607D01*
X42628516Y-92325649D01*
X42653483Y-92318223D01*
X42796341Y-92246794D01*
X42797466Y-92245604D01*
X42815833Y-92232745D01*
X42887261Y-92161317D01*
X42887952Y-92159835D01*
X42901310Y-92141825D01*
X42972739Y-91998967D01*
X42973145Y-91995438D01*
X42978418Y-91983616D01*
X43047849Y-91705888D01*
X43110153Y-91581281D01*
X43164369Y-91527065D01*
X43280505Y-91468998D01*
X43387952Y-91468998D01*
X43504086Y-91527064D01*
X43558302Y-91581281D01*
X43616371Y-91697417D01*
X43616371Y-92024684D01*
X43548791Y-92227424D01*
X43550192Y-92278708D01*
X43584229Y-92317093D01*
X43634978Y-92324618D01*
X43678690Y-92297763D01*
X43691093Y-92274858D01*
X43762522Y-92060573D01*
X43762477Y-92058937D01*
X43766371Y-92036855D01*
X43766371Y-91679712D01*
X43764837Y-91675498D01*
X43765879Y-91671137D01*
X43758453Y-91646171D01*
X43687024Y-91503314D01*
X43685837Y-91502190D01*
X43672975Y-91483822D01*
X43601547Y-91412393D01*
X43600065Y-91411701D01*
X43582055Y-91398344D01*
X43439198Y-91326916D01*
X43434744Y-91326403D01*
X43431309Y-91323521D01*
X43405657Y-91318998D01*
X43262800Y-91318998D01*
X43258587Y-91320531D01*
X43254226Y-91319489D01*
X43229260Y-91326916D01*
X43086401Y-91398344D01*
X43085276Y-91399531D01*
X43066909Y-91412393D01*
X42995481Y-91483822D01*
X42994790Y-91485303D01*
X42981432Y-91503314D01*
X42910003Y-91646171D01*
X42909596Y-91649699D01*
X42904324Y-91661522D01*
X42834892Y-91939250D01*
X42772589Y-92063857D01*
X42718373Y-92118073D01*
X42602237Y-92176141D01*
X42494790Y-92176141D01*
X42378655Y-92118073D01*
X42324439Y-92063857D01*
X42266371Y-91947721D01*
X42266371Y-91620454D01*
X42333951Y-91417716D01*
X42332550Y-91366432D01*
X42298513Y-91328046D01*
X42247764Y-91320521D01*
X42204051Y-91347376D01*
X42191649Y-91370281D01*
X42120220Y-91584567D01*
X42120264Y-91586201D01*
X42116371Y-91608284D01*
X42116371Y-91965426D01*
X41902085Y-91965426D01*
X41902085Y-90322569D01*
X42116371Y-90322569D01*
X42116931Y-90324107D01*
X42120220Y-90346286D01*
X42191649Y-90560572D01*
X42194436Y-90564084D01*
X42194827Y-90568551D01*
X42209767Y-90589888D01*
X42352624Y-90732745D01*
X42354109Y-90733437D01*
X42372116Y-90746794D01*
X42514973Y-90818223D01*
X42518501Y-90818629D01*
X42530324Y-90823902D01*
X42816038Y-90895330D01*
X42819486Y-90894969D01*
X42834228Y-90897569D01*
X43048514Y-90897569D01*
X43051771Y-90896383D01*
X43066704Y-90895330D01*
X43352418Y-90823902D01*
X43355362Y-90821913D01*
X43367769Y-90818223D01*
X43510626Y-90746794D01*
X43511751Y-90745604D01*
X43530118Y-90732745D01*
X43672975Y-90589888D01*
X43674870Y-90585823D01*
X43678690Y-90583477D01*
X43691093Y-90560572D01*
X43762522Y-90346287D01*
X43762477Y-90344651D01*
X43766371Y-90322569D01*
X43766371Y-89965426D01*
X43759707Y-89947117D01*
X43756323Y-89927926D01*
X43751138Y-89923575D01*
X43748824Y-89917217D01*
X43731950Y-89907474D01*
X43717023Y-89894949D01*
X43707280Y-89893231D01*
X43704395Y-89891565D01*
X43701112Y-89892143D01*
X43691371Y-89890426D01*
X42191371Y-89890426D01*
X42173062Y-89897089D01*
X42153871Y-89900474D01*
X42149520Y-89905658D01*
X42143162Y-89907973D01*
X42133419Y-89924846D01*
X42120894Y-89939774D01*
X42119176Y-89949516D01*
X42117510Y-89952402D01*
X42118088Y-89955684D01*
X42116371Y-89965426D01*
X42116371Y-90322569D01*
X41902085Y-90322569D01*
X41902085Y-89676140D01*
X43980657Y-89676140D01*
X43980657Y-93825002D01*
G37*
D12*
X40610666Y-72381600D02*
X40610666Y-72914933D01*
X41077333Y-72581600D02*
X39877333Y-72581600D01*
X39877333Y-72581600D02*
X39744000Y-72648267D01*
X39744000Y-72648267D02*
X39677333Y-72781600D01*
X39677333Y-72781600D02*
X39677333Y-72914933D01*
X39677333Y-73381600D02*
X41077333Y-73381600D01*
X39677333Y-73981600D02*
X40410666Y-73981600D01*
X40410666Y-73981600D02*
X40544000Y-73914933D01*
X40544000Y-73914933D02*
X40610666Y-73781600D01*
X40610666Y-73781600D02*
X40610666Y-73581600D01*
X40610666Y-73581600D02*
X40544000Y-73448267D01*
X40544000Y-73448267D02*
X40477333Y-73381600D01*
X39744000Y-75181600D02*
X39677333Y-75048267D01*
X39677333Y-75048267D02*
X39677333Y-74781600D01*
X39677333Y-74781600D02*
X39744000Y-74648267D01*
X39744000Y-74648267D02*
X39877333Y-74581600D01*
X39877333Y-74581600D02*
X40410666Y-74581600D01*
X40410666Y-74581600D02*
X40544000Y-74648267D01*
X40544000Y-74648267D02*
X40610666Y-74781600D01*
X40610666Y-74781600D02*
X40610666Y-75048267D01*
X40610666Y-75048267D02*
X40544000Y-75181600D01*
X40544000Y-75181600D02*
X40410666Y-75248267D01*
X40410666Y-75248267D02*
X40277333Y-75248267D01*
X40277333Y-75248267D02*
X40144000Y-74581600D01*
X39677333Y-76914934D02*
X40610666Y-76914934D01*
X40477333Y-76914934D02*
X40544000Y-76981601D01*
X40544000Y-76981601D02*
X40610666Y-77114934D01*
X40610666Y-77114934D02*
X40610666Y-77314934D01*
X40610666Y-77314934D02*
X40544000Y-77448267D01*
X40544000Y-77448267D02*
X40410666Y-77514934D01*
X40410666Y-77514934D02*
X39677333Y-77514934D01*
X40410666Y-77514934D02*
X40544000Y-77581601D01*
X40544000Y-77581601D02*
X40610666Y-77714934D01*
X40610666Y-77714934D02*
X40610666Y-77914934D01*
X40610666Y-77914934D02*
X40544000Y-78048267D01*
X40544000Y-78048267D02*
X40410666Y-78114934D01*
X40410666Y-78114934D02*
X39677333Y-78114934D01*
X39677333Y-78981601D02*
X39744000Y-78848268D01*
X39744000Y-78848268D02*
X39810666Y-78781601D01*
X39810666Y-78781601D02*
X39944000Y-78714934D01*
X39944000Y-78714934D02*
X40344000Y-78714934D01*
X40344000Y-78714934D02*
X40477333Y-78781601D01*
X40477333Y-78781601D02*
X40544000Y-78848268D01*
X40544000Y-78848268D02*
X40610666Y-78981601D01*
X40610666Y-78981601D02*
X40610666Y-79181601D01*
X40610666Y-79181601D02*
X40544000Y-79314934D01*
X40544000Y-79314934D02*
X40477333Y-79381601D01*
X40477333Y-79381601D02*
X40344000Y-79448268D01*
X40344000Y-79448268D02*
X39944000Y-79448268D01*
X39944000Y-79448268D02*
X39810666Y-79381601D01*
X39810666Y-79381601D02*
X39744000Y-79314934D01*
X39744000Y-79314934D02*
X39677333Y-79181601D01*
X39677333Y-79181601D02*
X39677333Y-78981601D01*
X39744000Y-79981601D02*
X39677333Y-80114935D01*
X39677333Y-80114935D02*
X39677333Y-80381601D01*
X39677333Y-80381601D02*
X39744000Y-80514935D01*
X39744000Y-80514935D02*
X39877333Y-80581601D01*
X39877333Y-80581601D02*
X39944000Y-80581601D01*
X39944000Y-80581601D02*
X40077333Y-80514935D01*
X40077333Y-80514935D02*
X40144000Y-80381601D01*
X40144000Y-80381601D02*
X40144000Y-80181601D01*
X40144000Y-80181601D02*
X40210666Y-80048268D01*
X40210666Y-80048268D02*
X40344000Y-79981601D01*
X40344000Y-79981601D02*
X40410666Y-79981601D01*
X40410666Y-79981601D02*
X40544000Y-80048268D01*
X40544000Y-80048268D02*
X40610666Y-80181601D01*
X40610666Y-80181601D02*
X40610666Y-80381601D01*
X40610666Y-80381601D02*
X40544000Y-80514935D01*
X40610666Y-80981601D02*
X40610666Y-81514934D01*
X41077333Y-81181601D02*
X39877333Y-81181601D01*
X39877333Y-81181601D02*
X39744000Y-81248268D01*
X39744000Y-81248268D02*
X39677333Y-81381601D01*
X39677333Y-81381601D02*
X39677333Y-81514934D01*
X40610666Y-83648268D02*
X39677333Y-83648268D01*
X40610666Y-83048268D02*
X39877333Y-83048268D01*
X39877333Y-83048268D02*
X39744000Y-83114935D01*
X39744000Y-83114935D02*
X39677333Y-83248268D01*
X39677333Y-83248268D02*
X39677333Y-83448268D01*
X39677333Y-83448268D02*
X39744000Y-83581601D01*
X39744000Y-83581601D02*
X39810666Y-83648268D01*
X39744000Y-84248268D02*
X39677333Y-84381602D01*
X39677333Y-84381602D02*
X39677333Y-84648268D01*
X39677333Y-84648268D02*
X39744000Y-84781602D01*
X39744000Y-84781602D02*
X39877333Y-84848268D01*
X39877333Y-84848268D02*
X39944000Y-84848268D01*
X39944000Y-84848268D02*
X40077333Y-84781602D01*
X40077333Y-84781602D02*
X40144000Y-84648268D01*
X40144000Y-84648268D02*
X40144000Y-84448268D01*
X40144000Y-84448268D02*
X40210666Y-84314935D01*
X40210666Y-84314935D02*
X40344000Y-84248268D01*
X40344000Y-84248268D02*
X40410666Y-84248268D01*
X40410666Y-84248268D02*
X40544000Y-84314935D01*
X40544000Y-84314935D02*
X40610666Y-84448268D01*
X40610666Y-84448268D02*
X40610666Y-84648268D01*
X40610666Y-84648268D02*
X40544000Y-84781602D01*
X39744000Y-85981601D02*
X39677333Y-85848268D01*
X39677333Y-85848268D02*
X39677333Y-85581601D01*
X39677333Y-85581601D02*
X39744000Y-85448268D01*
X39744000Y-85448268D02*
X39877333Y-85381601D01*
X39877333Y-85381601D02*
X40410666Y-85381601D01*
X40410666Y-85381601D02*
X40544000Y-85448268D01*
X40544000Y-85448268D02*
X40610666Y-85581601D01*
X40610666Y-85581601D02*
X40610666Y-85848268D01*
X40610666Y-85848268D02*
X40544000Y-85981601D01*
X40544000Y-85981601D02*
X40410666Y-86048268D01*
X40410666Y-86048268D02*
X40277333Y-86048268D01*
X40277333Y-86048268D02*
X40144000Y-85381601D01*
X39677333Y-86848268D02*
X39744000Y-86714935D01*
X39744000Y-86714935D02*
X39877333Y-86648268D01*
X39877333Y-86648268D02*
X41077333Y-86648268D01*
X39744000Y-87914934D02*
X39677333Y-87781601D01*
X39677333Y-87781601D02*
X39677333Y-87514934D01*
X39677333Y-87514934D02*
X39744000Y-87381601D01*
X39744000Y-87381601D02*
X39877333Y-87314934D01*
X39877333Y-87314934D02*
X40410666Y-87314934D01*
X40410666Y-87314934D02*
X40544000Y-87381601D01*
X40544000Y-87381601D02*
X40610666Y-87514934D01*
X40610666Y-87514934D02*
X40610666Y-87781601D01*
X40610666Y-87781601D02*
X40544000Y-87914934D01*
X40544000Y-87914934D02*
X40410666Y-87981601D01*
X40410666Y-87981601D02*
X40277333Y-87981601D01*
X40277333Y-87981601D02*
X40144000Y-87314934D01*
X39744000Y-88514934D02*
X39677333Y-88648268D01*
X39677333Y-88648268D02*
X39677333Y-88914934D01*
X39677333Y-88914934D02*
X39744000Y-89048268D01*
X39744000Y-89048268D02*
X39877333Y-89114934D01*
X39877333Y-89114934D02*
X39944000Y-89114934D01*
X39944000Y-89114934D02*
X40077333Y-89048268D01*
X40077333Y-89048268D02*
X40144000Y-88914934D01*
X40144000Y-88914934D02*
X40144000Y-88714934D01*
X40144000Y-88714934D02*
X40210666Y-88581601D01*
X40210666Y-88581601D02*
X40344000Y-88514934D01*
X40344000Y-88514934D02*
X40410666Y-88514934D01*
X40410666Y-88514934D02*
X40544000Y-88581601D01*
X40544000Y-88581601D02*
X40610666Y-88714934D01*
X40610666Y-88714934D02*
X40610666Y-88914934D01*
X40610666Y-88914934D02*
X40544000Y-89048268D01*
X39744000Y-89648267D02*
X39677333Y-89781601D01*
X39677333Y-89781601D02*
X39677333Y-90048267D01*
X39677333Y-90048267D02*
X39744000Y-90181601D01*
X39744000Y-90181601D02*
X39877333Y-90248267D01*
X39877333Y-90248267D02*
X39944000Y-90248267D01*
X39944000Y-90248267D02*
X40077333Y-90181601D01*
X40077333Y-90181601D02*
X40144000Y-90048267D01*
X40144000Y-90048267D02*
X40144000Y-89848267D01*
X40144000Y-89848267D02*
X40210666Y-89714934D01*
X40210666Y-89714934D02*
X40344000Y-89648267D01*
X40344000Y-89648267D02*
X40410666Y-89648267D01*
X40410666Y-89648267D02*
X40544000Y-89714934D01*
X40544000Y-89714934D02*
X40610666Y-89848267D01*
X40610666Y-89848267D02*
X40610666Y-90048267D01*
X40610666Y-90048267D02*
X40544000Y-90181601D01*
X37490000Y-72548265D02*
X37423333Y-72414932D01*
X37423333Y-72414932D02*
X37423333Y-72148265D01*
X37423333Y-72148265D02*
X37490000Y-72014932D01*
X37490000Y-72014932D02*
X37556666Y-71948265D01*
X37556666Y-71948265D02*
X37690000Y-71881598D01*
X37690000Y-71881598D02*
X38090000Y-71881598D01*
X38090000Y-71881598D02*
X38223333Y-71948265D01*
X38223333Y-71948265D02*
X38290000Y-72014932D01*
X38290000Y-72014932D02*
X38356666Y-72148265D01*
X38356666Y-72148265D02*
X38356666Y-72414932D01*
X38356666Y-72414932D02*
X38290000Y-72548265D01*
X37423333Y-73348265D02*
X37490000Y-73214932D01*
X37490000Y-73214932D02*
X37623333Y-73148265D01*
X37623333Y-73148265D02*
X38823333Y-73148265D01*
X37423333Y-74081598D02*
X37490000Y-73948265D01*
X37490000Y-73948265D02*
X37556666Y-73881598D01*
X37556666Y-73881598D02*
X37690000Y-73814931D01*
X37690000Y-73814931D02*
X38090000Y-73814931D01*
X38090000Y-73814931D02*
X38223333Y-73881598D01*
X38223333Y-73881598D02*
X38290000Y-73948265D01*
X38290000Y-73948265D02*
X38356666Y-74081598D01*
X38356666Y-74081598D02*
X38356666Y-74281598D01*
X38356666Y-74281598D02*
X38290000Y-74414931D01*
X38290000Y-74414931D02*
X38223333Y-74481598D01*
X38223333Y-74481598D02*
X38090000Y-74548265D01*
X38090000Y-74548265D02*
X37690000Y-74548265D01*
X37690000Y-74548265D02*
X37556666Y-74481598D01*
X37556666Y-74481598D02*
X37490000Y-74414931D01*
X37490000Y-74414931D02*
X37423333Y-74281598D01*
X37423333Y-74281598D02*
X37423333Y-74081598D01*
X37490000Y-75748265D02*
X37423333Y-75614932D01*
X37423333Y-75614932D02*
X37423333Y-75348265D01*
X37423333Y-75348265D02*
X37490000Y-75214932D01*
X37490000Y-75214932D02*
X37556666Y-75148265D01*
X37556666Y-75148265D02*
X37690000Y-75081598D01*
X37690000Y-75081598D02*
X38090000Y-75081598D01*
X38090000Y-75081598D02*
X38223333Y-75148265D01*
X38223333Y-75148265D02*
X38290000Y-75214932D01*
X38290000Y-75214932D02*
X38356666Y-75348265D01*
X38356666Y-75348265D02*
X38356666Y-75614932D01*
X38356666Y-75614932D02*
X38290000Y-75748265D01*
X37423333Y-76348265D02*
X38823333Y-76348265D01*
X37956666Y-76481598D02*
X37423333Y-76881598D01*
X38356666Y-76881598D02*
X37823333Y-76348265D01*
X37423333Y-78548265D02*
X38356666Y-78548265D01*
X38823333Y-78548265D02*
X38756666Y-78481598D01*
X38756666Y-78481598D02*
X38690000Y-78548265D01*
X38690000Y-78548265D02*
X38756666Y-78614932D01*
X38756666Y-78614932D02*
X38823333Y-78548265D01*
X38823333Y-78548265D02*
X38690000Y-78548265D01*
X38356666Y-79214932D02*
X37423333Y-79214932D01*
X38223333Y-79214932D02*
X38290000Y-79281599D01*
X38290000Y-79281599D02*
X38356666Y-79414932D01*
X38356666Y-79414932D02*
X38356666Y-79614932D01*
X38356666Y-79614932D02*
X38290000Y-79748265D01*
X38290000Y-79748265D02*
X38156666Y-79814932D01*
X38156666Y-79814932D02*
X37423333Y-79814932D01*
X38356666Y-81348266D02*
X38356666Y-81881599D01*
X38823333Y-81548266D02*
X37623333Y-81548266D01*
X37623333Y-81548266D02*
X37490000Y-81614933D01*
X37490000Y-81614933D02*
X37423333Y-81748266D01*
X37423333Y-81748266D02*
X37423333Y-81881599D01*
X37423333Y-82348266D02*
X38823333Y-82348266D01*
X37423333Y-82948266D02*
X38156666Y-82948266D01*
X38156666Y-82948266D02*
X38290000Y-82881599D01*
X38290000Y-82881599D02*
X38356666Y-82748266D01*
X38356666Y-82748266D02*
X38356666Y-82548266D01*
X38356666Y-82548266D02*
X38290000Y-82414933D01*
X38290000Y-82414933D02*
X38223333Y-82348266D01*
X37490000Y-84148266D02*
X37423333Y-84014933D01*
X37423333Y-84014933D02*
X37423333Y-83748266D01*
X37423333Y-83748266D02*
X37490000Y-83614933D01*
X37490000Y-83614933D02*
X37623333Y-83548266D01*
X37623333Y-83548266D02*
X38156666Y-83548266D01*
X38156666Y-83548266D02*
X38290000Y-83614933D01*
X38290000Y-83614933D02*
X38356666Y-83748266D01*
X38356666Y-83748266D02*
X38356666Y-84014933D01*
X38356666Y-84014933D02*
X38290000Y-84148266D01*
X38290000Y-84148266D02*
X38156666Y-84214933D01*
X38156666Y-84214933D02*
X38023333Y-84214933D01*
X38023333Y-84214933D02*
X37890000Y-83548266D01*
X38356666Y-85748267D02*
X37423333Y-86014933D01*
X37423333Y-86014933D02*
X38090000Y-86281600D01*
X38090000Y-86281600D02*
X37423333Y-86548267D01*
X37423333Y-86548267D02*
X38356666Y-86814933D01*
X37423333Y-87548267D02*
X37490000Y-87414934D01*
X37490000Y-87414934D02*
X37556666Y-87348267D01*
X37556666Y-87348267D02*
X37690000Y-87281600D01*
X37690000Y-87281600D02*
X38090000Y-87281600D01*
X38090000Y-87281600D02*
X38223333Y-87348267D01*
X38223333Y-87348267D02*
X38290000Y-87414934D01*
X38290000Y-87414934D02*
X38356666Y-87548267D01*
X38356666Y-87548267D02*
X38356666Y-87748267D01*
X38356666Y-87748267D02*
X38290000Y-87881600D01*
X38290000Y-87881600D02*
X38223333Y-87948267D01*
X38223333Y-87948267D02*
X38090000Y-88014934D01*
X38090000Y-88014934D02*
X37690000Y-88014934D01*
X37690000Y-88014934D02*
X37556666Y-87948267D01*
X37556666Y-87948267D02*
X37490000Y-87881600D01*
X37490000Y-87881600D02*
X37423333Y-87748267D01*
X37423333Y-87748267D02*
X37423333Y-87548267D01*
X37423333Y-88614934D02*
X38356666Y-88614934D01*
X38090000Y-88614934D02*
X38223333Y-88681601D01*
X38223333Y-88681601D02*
X38290000Y-88748267D01*
X38290000Y-88748267D02*
X38356666Y-88881601D01*
X38356666Y-88881601D02*
X38356666Y-89014934D01*
X37423333Y-89681601D02*
X37490000Y-89548268D01*
X37490000Y-89548268D02*
X37623333Y-89481601D01*
X37623333Y-89481601D02*
X38823333Y-89481601D01*
X37423333Y-90814934D02*
X38823333Y-90814934D01*
X37490000Y-90814934D02*
X37423333Y-90681601D01*
X37423333Y-90681601D02*
X37423333Y-90414934D01*
X37423333Y-90414934D02*
X37490000Y-90281601D01*
X37490000Y-90281601D02*
X37556666Y-90214934D01*
X37556666Y-90214934D02*
X37690000Y-90148267D01*
X37690000Y-90148267D02*
X38090000Y-90148267D01*
X38090000Y-90148267D02*
X38223333Y-90214934D01*
X38223333Y-90214934D02*
X38290000Y-90281601D01*
X38290000Y-90281601D02*
X38356666Y-90414934D01*
X38356666Y-90414934D02*
X38356666Y-90681601D01*
X38356666Y-90681601D02*
X38290000Y-90814934D01*
D11*
G36*
X43438741Y-77258348D02*
G01*
X43558303Y-77377910D01*
X43616371Y-77494046D01*
X43616371Y-77744349D01*
X43558303Y-77860484D01*
X43438741Y-77980046D01*
X43182137Y-78044198D01*
X42700605Y-78044198D01*
X42444000Y-77980046D01*
X42324438Y-77860484D01*
X42266371Y-77744349D01*
X42266371Y-77494046D01*
X42324438Y-77377910D01*
X42444000Y-77258348D01*
X42700605Y-77194198D01*
X43182137Y-77194198D01*
X43438741Y-77258348D01*
G37*
G36*
X43616371Y-76035598D02*
G01*
X43554390Y-76221540D01*
X43432657Y-76343273D01*
X43308051Y-76405576D01*
X43039280Y-76472769D01*
X42843462Y-76472769D01*
X42574690Y-76405576D01*
X42450084Y-76343273D01*
X42328352Y-76221541D01*
X42266371Y-76035598D01*
X42266371Y-75765626D01*
X43616371Y-75765626D01*
X43616371Y-76035598D01*
G37*
G36*
X43980657Y-81622770D02*
G01*
X41902085Y-81622770D01*
X41902085Y-81320460D01*
X42117510Y-81320460D01*
X42120866Y-81339493D01*
X42120780Y-81358821D01*
X42125214Y-81364154D01*
X42126419Y-81370984D01*
X42141225Y-81383408D01*
X42153582Y-81398268D01*
X42160405Y-81399502D01*
X42165719Y-81403961D01*
X42191371Y-81408484D01*
X43691371Y-81408484D01*
X43739580Y-81390937D01*
X43765232Y-81346508D01*
X43756323Y-81295984D01*
X43717023Y-81263007D01*
X43691371Y-81258484D01*
X42473788Y-81258484D01*
X43728582Y-80541459D01*
X43733063Y-80536165D01*
X43739580Y-80533794D01*
X43749243Y-80517056D01*
X43761733Y-80502306D01*
X43761763Y-80495371D01*
X43765232Y-80489365D01*
X43761875Y-80470331D01*
X43761962Y-80451004D01*
X43757527Y-80445670D01*
X43756323Y-80438841D01*
X43741516Y-80426416D01*
X43729160Y-80411557D01*
X43722336Y-80410322D01*
X43717023Y-80405864D01*
X43691371Y-80401341D01*
X42191371Y-80401341D01*
X42143162Y-80418888D01*
X42117510Y-80463317D01*
X42126419Y-80513841D01*
X42165719Y-80546818D01*
X42191371Y-80551341D01*
X43408955Y-80551341D01*
X42154161Y-81268366D01*
X42149679Y-81273658D01*
X42143162Y-81276031D01*
X42133497Y-81292770D01*
X42121009Y-81307519D01*
X42120978Y-81314453D01*
X42117510Y-81320460D01*
X41902085Y-81320460D01*
X41902085Y-78980779D01*
X42116502Y-78980779D01*
X42119626Y-78988001D01*
X42118950Y-78995839D01*
X42129547Y-79010935D01*
X42136871Y-79027865D01*
X42143904Y-79031388D01*
X42148426Y-79037829D01*
X42172046Y-79048809D01*
X42971720Y-79262055D01*
X42172046Y-79475302D01*
X42165594Y-79479807D01*
X42157780Y-79480713D01*
X42145106Y-79494118D01*
X42129986Y-79504679D01*
X42127941Y-79512273D01*
X42122535Y-79517992D01*
X42121443Y-79536405D01*
X42116648Y-79554217D01*
X42119965Y-79561353D01*
X42119500Y-79569206D01*
X42130496Y-79584009D01*
X42138274Y-79600740D01*
X42145402Y-79604074D01*
X42150093Y-79610389D01*
X42173999Y-79620730D01*
X43673999Y-79977873D01*
X43724962Y-79971970D01*
X43760207Y-79934691D01*
X43763243Y-79883477D01*
X43732649Y-79842294D01*
X43708743Y-79831953D01*
X42497886Y-79543653D01*
X43282125Y-79334523D01*
X43287747Y-79330595D01*
X43294578Y-79329990D01*
X43308280Y-79316254D01*
X43324185Y-79305146D01*
X43325967Y-79298524D01*
X43330811Y-79293670D01*
X43332478Y-79274343D01*
X43337523Y-79255608D01*
X43334631Y-79249388D01*
X43335221Y-79242557D01*
X43324073Y-79226677D01*
X43315896Y-79209086D01*
X43309685Y-79206181D01*
X43305745Y-79200567D01*
X43282125Y-79189587D01*
X42497887Y-78980457D01*
X43708743Y-78692158D01*
X43751576Y-78663922D01*
X43766240Y-78614760D01*
X43745871Y-78567674D01*
X43700002Y-78544696D01*
X43673999Y-78546238D01*
X42173999Y-78903381D01*
X42167430Y-78907710D01*
X42159593Y-78908406D01*
X42146563Y-78921466D01*
X42131166Y-78931617D01*
X42128917Y-78939155D01*
X42123360Y-78944726D01*
X42121774Y-78963102D01*
X42116502Y-78980779D01*
X41902085Y-78980779D01*
X41902085Y-77762055D01*
X42116371Y-77762055D01*
X42117904Y-77766268D01*
X42116863Y-77770630D01*
X42124289Y-77795596D01*
X42195718Y-77938453D01*
X42196907Y-77939578D01*
X42209767Y-77957945D01*
X42352624Y-78100802D01*
X42359331Y-78103929D01*
X42363678Y-78109920D01*
X42387467Y-78120530D01*
X42673180Y-78191959D01*
X42676628Y-78191598D01*
X42691371Y-78194198D01*
X43191371Y-78194198D01*
X43194628Y-78193012D01*
X43209561Y-78191959D01*
X43495275Y-78120530D01*
X43501408Y-78116387D01*
X43508781Y-78115742D01*
X43530118Y-78100802D01*
X43672975Y-77957945D01*
X43673667Y-77956459D01*
X43687024Y-77938453D01*
X43758453Y-77795596D01*
X43758965Y-77791142D01*
X43761848Y-77787707D01*
X43766371Y-77762055D01*
X43766371Y-77476341D01*
X43764837Y-77472127D01*
X43765879Y-77467766D01*
X43758453Y-77442800D01*
X43687024Y-77299943D01*
X43685837Y-77298819D01*
X43672975Y-77280451D01*
X43530118Y-77137593D01*
X43523410Y-77134465D01*
X43519064Y-77128475D01*
X43495275Y-77117865D01*
X43209561Y-77046437D01*
X43206112Y-77046797D01*
X43191371Y-77044198D01*
X42691371Y-77044198D01*
X42688113Y-77045383D01*
X42673181Y-77046437D01*
X42387467Y-77117865D01*
X42381333Y-77122007D01*
X42373961Y-77122653D01*
X42352624Y-77137593D01*
X42209767Y-77280451D01*
X42209076Y-77281932D01*
X42195718Y-77299943D01*
X42124289Y-77442800D01*
X42123776Y-77447253D01*
X42120894Y-77450689D01*
X42116371Y-77476341D01*
X42116371Y-77762055D01*
X41902085Y-77762055D01*
X41902085Y-76047769D01*
X42116371Y-76047769D01*
X42116931Y-76049307D01*
X42120220Y-76071486D01*
X42191649Y-76285772D01*
X42194436Y-76289284D01*
X42194827Y-76293751D01*
X42209767Y-76315088D01*
X42352624Y-76457945D01*
X42354109Y-76458637D01*
X42372116Y-76471994D01*
X42514973Y-76543423D01*
X42518501Y-76543829D01*
X42530324Y-76549102D01*
X42816038Y-76620530D01*
X42819486Y-76620169D01*
X42834228Y-76622769D01*
X43048514Y-76622769D01*
X43051771Y-76621583D01*
X43066704Y-76620530D01*
X43352418Y-76549102D01*
X43355362Y-76547113D01*
X43367769Y-76543423D01*
X43510626Y-76471994D01*
X43511751Y-76470804D01*
X43530118Y-76457945D01*
X43672975Y-76315088D01*
X43674870Y-76311023D01*
X43678690Y-76308677D01*
X43691093Y-76285772D01*
X43762522Y-76071487D01*
X43762477Y-76069851D01*
X43766371Y-76047769D01*
X43766371Y-75690626D01*
X43759707Y-75672317D01*
X43756323Y-75653126D01*
X43751138Y-75648775D01*
X43748824Y-75642417D01*
X43731950Y-75632674D01*
X43717023Y-75620149D01*
X43707280Y-75618431D01*
X43704395Y-75616765D01*
X43701112Y-75617343D01*
X43691371Y-75615626D01*
X42191371Y-75615626D01*
X42173062Y-75622289D01*
X42153871Y-75625674D01*
X42149520Y-75630858D01*
X42143162Y-75633173D01*
X42133419Y-75650046D01*
X42120894Y-75664974D01*
X42119176Y-75674716D01*
X42117510Y-75677602D01*
X42118088Y-75680884D01*
X42116371Y-75690626D01*
X42116371Y-76047769D01*
X41902085Y-76047769D01*
X41902085Y-75401340D01*
X43980657Y-75401340D01*
X43980657Y-81622770D01*
G37*
G36*
X43980657Y-87484545D02*
G01*
X41902085Y-87484545D01*
X41902085Y-86754802D01*
X42117510Y-86754802D01*
X42126419Y-86805326D01*
X42165719Y-86838303D01*
X42191371Y-86842826D01*
X43616371Y-86842826D01*
X43616371Y-87196398D01*
X43633918Y-87244607D01*
X43678347Y-87270259D01*
X43728871Y-87261350D01*
X43761848Y-87222050D01*
X43766371Y-87196398D01*
X43766371Y-86339255D01*
X43748824Y-86291046D01*
X43704395Y-86265394D01*
X43653871Y-86274303D01*
X43620894Y-86313603D01*
X43616371Y-86339255D01*
X43616371Y-86692826D01*
X42191371Y-86692826D01*
X42143162Y-86710373D01*
X42117510Y-86754802D01*
X41902085Y-86754802D01*
X41902085Y-85910683D01*
X42116371Y-85910683D01*
X42133918Y-85958892D01*
X42178347Y-85984544D01*
X42228871Y-85975635D01*
X42261848Y-85936335D01*
X42266371Y-85910683D01*
X42266371Y-85271397D01*
X42902085Y-85271397D01*
X42902085Y-85696397D01*
X42919632Y-85744606D01*
X42964061Y-85770258D01*
X43014585Y-85761349D01*
X43047562Y-85722049D01*
X43052085Y-85696397D01*
X43052085Y-85271397D01*
X43616371Y-85271397D01*
X43616371Y-85910683D01*
X43633918Y-85958892D01*
X43678347Y-85984544D01*
X43728871Y-85975635D01*
X43761848Y-85936335D01*
X43766371Y-85910683D01*
X43766371Y-85196397D01*
X43759707Y-85178088D01*
X43756323Y-85158897D01*
X43751138Y-85154546D01*
X43748824Y-85148188D01*
X43731950Y-85138445D01*
X43717023Y-85125920D01*
X43707280Y-85124202D01*
X43704395Y-85122536D01*
X43701112Y-85123114D01*
X43691371Y-85121397D01*
X42191371Y-85121397D01*
X42173062Y-85128060D01*
X42153871Y-85131445D01*
X42149520Y-85136629D01*
X42143162Y-85138944D01*
X42133419Y-85155817D01*
X42120894Y-85170745D01*
X42119176Y-85180487D01*
X42117510Y-85183373D01*
X42118088Y-85186655D01*
X42116371Y-85196397D01*
X42116371Y-85910683D01*
X41902085Y-85910683D01*
X41902085Y-84267826D01*
X42116371Y-84267826D01*
X42117904Y-84272039D01*
X42116863Y-84276400D01*
X42124289Y-84301367D01*
X42195718Y-84444225D01*
X42196907Y-84445350D01*
X42209767Y-84463717D01*
X42281195Y-84535145D01*
X42282680Y-84535837D01*
X42300687Y-84549194D01*
X42443544Y-84620623D01*
X42447997Y-84621135D01*
X42451433Y-84624018D01*
X42477085Y-84628541D01*
X42619942Y-84628541D01*
X42624155Y-84627007D01*
X42628516Y-84628049D01*
X42653483Y-84620623D01*
X42796341Y-84549194D01*
X42797466Y-84548004D01*
X42815833Y-84535145D01*
X42887261Y-84463717D01*
X42887952Y-84462235D01*
X42901310Y-84444225D01*
X42972739Y-84301367D01*
X42973145Y-84297838D01*
X42978418Y-84286016D01*
X43047849Y-84008288D01*
X43110153Y-83883681D01*
X43164369Y-83829465D01*
X43280505Y-83771398D01*
X43387952Y-83771398D01*
X43504086Y-83829464D01*
X43558302Y-83883681D01*
X43616371Y-83999817D01*
X43616371Y-84327084D01*
X43548791Y-84529824D01*
X43550192Y-84581108D01*
X43584229Y-84619493D01*
X43634978Y-84627018D01*
X43678690Y-84600163D01*
X43691093Y-84577258D01*
X43762522Y-84362973D01*
X43762477Y-84361337D01*
X43766371Y-84339255D01*
X43766371Y-83982112D01*
X43764837Y-83977898D01*
X43765879Y-83973537D01*
X43758453Y-83948571D01*
X43687024Y-83805714D01*
X43685837Y-83804590D01*
X43672975Y-83786222D01*
X43601547Y-83714793D01*
X43600065Y-83714101D01*
X43582055Y-83700744D01*
X43439198Y-83629316D01*
X43434744Y-83628803D01*
X43431309Y-83625921D01*
X43405657Y-83621398D01*
X43262800Y-83621398D01*
X43258587Y-83622931D01*
X43254226Y-83621889D01*
X43229260Y-83629316D01*
X43086401Y-83700744D01*
X43085276Y-83701931D01*
X43066909Y-83714793D01*
X42995481Y-83786222D01*
X42994790Y-83787703D01*
X42981432Y-83805714D01*
X42910003Y-83948571D01*
X42909596Y-83952099D01*
X42904324Y-83963922D01*
X42834892Y-84241650D01*
X42772589Y-84366257D01*
X42718373Y-84420473D01*
X42602237Y-84478541D01*
X42494790Y-84478541D01*
X42378655Y-84420473D01*
X42324439Y-84366257D01*
X42266371Y-84250121D01*
X42266371Y-83922854D01*
X42333951Y-83720116D01*
X42332550Y-83668832D01*
X42298513Y-83630446D01*
X42247764Y-83622921D01*
X42204051Y-83649776D01*
X42191649Y-83672681D01*
X42120220Y-83886967D01*
X42120264Y-83888601D01*
X42116371Y-83910684D01*
X42116371Y-84267826D01*
X41902085Y-84267826D01*
X41902085Y-83407112D01*
X43980657Y-83407112D01*
X43980657Y-87484545D01*
G37*
G36*
X43874979Y-18072882D02*
G01*
X43946922Y-18144825D01*
X43981180Y-18213341D01*
X43981180Y-18368407D01*
X43946922Y-18436923D01*
X43874979Y-18508865D01*
X43713613Y-18549207D01*
X43398748Y-18549207D01*
X43237381Y-18508865D01*
X43165438Y-18436922D01*
X43131180Y-18368405D01*
X43131180Y-18213342D01*
X43165438Y-18144825D01*
X43237381Y-18072882D01*
X43398748Y-18032541D01*
X43713613Y-18032541D01*
X43874979Y-18072882D01*
G37*
G36*
X43874979Y-17025263D02*
G01*
X43946922Y-17097206D01*
X43981180Y-17165722D01*
X43981180Y-17320788D01*
X43946922Y-17389304D01*
X43874979Y-17461246D01*
X43713613Y-17501588D01*
X43398748Y-17501588D01*
X43237381Y-17461246D01*
X43165438Y-17389303D01*
X43131180Y-17320786D01*
X43131180Y-17165723D01*
X43165438Y-17097206D01*
X43237381Y-17025263D01*
X43398748Y-16984922D01*
X43713613Y-16984922D01*
X43874979Y-17025263D01*
G37*
G36*
X43504990Y-16278704D02*
G01*
X43466819Y-16393217D01*
X43440325Y-16419711D01*
X43371809Y-16453969D01*
X43264362Y-16453969D01*
X43195846Y-16419711D01*
X43165438Y-16389303D01*
X43131180Y-16320786D01*
X43131180Y-16032541D01*
X43504990Y-16032541D01*
X43504990Y-16278704D01*
G37*
G36*
X43981180Y-16273169D02*
G01*
X43946922Y-16341685D01*
X43916515Y-16372092D01*
X43847999Y-16406350D01*
X43788171Y-16406350D01*
X43719655Y-16372092D01*
X43689248Y-16341685D01*
X43654990Y-16273169D01*
X43654990Y-16032541D01*
X43981180Y-16032541D01*
X43981180Y-16273169D01*
G37*
G36*
X43981180Y-14416026D02*
G01*
X43946922Y-14484542D01*
X43916515Y-14514949D01*
X43847999Y-14549207D01*
X43740552Y-14549207D01*
X43672036Y-14514949D01*
X43641629Y-14484542D01*
X43607371Y-14416026D01*
X43607371Y-14127779D01*
X43981180Y-14127779D01*
X43981180Y-14416026D01*
G37*
G36*
X44274037Y-19698068D02*
G01*
X42838323Y-19698068D01*
X42838323Y-19182612D01*
X42982319Y-19182612D01*
X42991228Y-19233136D01*
X43030528Y-19266113D01*
X43056180Y-19270636D01*
X43981180Y-19270636D01*
X43981180Y-19481350D01*
X43998727Y-19529559D01*
X44043156Y-19555211D01*
X44093680Y-19546302D01*
X44126657Y-19507002D01*
X44131180Y-19481350D01*
X44131180Y-18909922D01*
X44113633Y-18861713D01*
X44069204Y-18836061D01*
X44018680Y-18844970D01*
X43985703Y-18884270D01*
X43981180Y-18909922D01*
X43981180Y-19120636D01*
X43056180Y-19120636D01*
X43007971Y-19138183D01*
X42982319Y-19182612D01*
X42838323Y-19182612D01*
X42838323Y-18386112D01*
X42981180Y-18386112D01*
X42982713Y-18390325D01*
X42981672Y-18394687D01*
X42989098Y-18419654D01*
X43036718Y-18514892D01*
X43037909Y-18516019D01*
X43050767Y-18534383D01*
X43146005Y-18629621D01*
X43152712Y-18632748D01*
X43157059Y-18638739D01*
X43180848Y-18649349D01*
X43371324Y-18696968D01*
X43374772Y-18696607D01*
X43389514Y-18699207D01*
X43722847Y-18699207D01*
X43726104Y-18698021D01*
X43741037Y-18696968D01*
X43931513Y-18649349D01*
X43937646Y-18645206D01*
X43945019Y-18644561D01*
X43966356Y-18629621D01*
X44061594Y-18534383D01*
X44062284Y-18532901D01*
X44075643Y-18514891D01*
X44123262Y-18419653D01*
X44123774Y-18415199D01*
X44126657Y-18411764D01*
X44131180Y-18386112D01*
X44131180Y-18195636D01*
X44129646Y-18191422D01*
X44130688Y-18187061D01*
X44123262Y-18162095D01*
X44075643Y-18066857D01*
X44074456Y-18065733D01*
X44061594Y-18047365D01*
X43966356Y-17952127D01*
X43959648Y-17948999D01*
X43955302Y-17943009D01*
X43931513Y-17932399D01*
X43741037Y-17884780D01*
X43737588Y-17885140D01*
X43722847Y-17882541D01*
X43389514Y-17882541D01*
X43386256Y-17883726D01*
X43371324Y-17884780D01*
X43180848Y-17932399D01*
X43174715Y-17936540D01*
X43167342Y-17937186D01*
X43146005Y-17952127D01*
X43050767Y-18047365D01*
X43050075Y-18048847D01*
X43036718Y-18066856D01*
X42989098Y-18162094D01*
X42988585Y-18166548D01*
X42985703Y-18169984D01*
X42981180Y-18195636D01*
X42981180Y-18386112D01*
X42838323Y-18386112D01*
X42838323Y-17338493D01*
X42981180Y-17338493D01*
X42982713Y-17342706D01*
X42981672Y-17347068D01*
X42989098Y-17372035D01*
X43036718Y-17467273D01*
X43037909Y-17468400D01*
X43050767Y-17486764D01*
X43146005Y-17582002D01*
X43152712Y-17585129D01*
X43157059Y-17591120D01*
X43180848Y-17601730D01*
X43371324Y-17649349D01*
X43374772Y-17648988D01*
X43389514Y-17651588D01*
X43722847Y-17651588D01*
X43726104Y-17650402D01*
X43741037Y-17649349D01*
X43931513Y-17601730D01*
X43937646Y-17597587D01*
X43945019Y-17596942D01*
X43966356Y-17582002D01*
X44061594Y-17486764D01*
X44062284Y-17485282D01*
X44075643Y-17467272D01*
X44123262Y-17372034D01*
X44123774Y-17367580D01*
X44126657Y-17364145D01*
X44131180Y-17338493D01*
X44131180Y-17148017D01*
X44129646Y-17143803D01*
X44130688Y-17139442D01*
X44123262Y-17114476D01*
X44075643Y-17019238D01*
X44074456Y-17018114D01*
X44061594Y-16999746D01*
X43966356Y-16904508D01*
X43959648Y-16901380D01*
X43955302Y-16895390D01*
X43931513Y-16884780D01*
X43741037Y-16837161D01*
X43737588Y-16837521D01*
X43722847Y-16834922D01*
X43389514Y-16834922D01*
X43386256Y-16836107D01*
X43371324Y-16837161D01*
X43180848Y-16884780D01*
X43174715Y-16888921D01*
X43167342Y-16889567D01*
X43146005Y-16904508D01*
X43050767Y-16999746D01*
X43050075Y-17001228D01*
X43036718Y-17019237D01*
X42989098Y-17114475D01*
X42988585Y-17118929D01*
X42985703Y-17122365D01*
X42981180Y-17148017D01*
X42981180Y-17338493D01*
X42838323Y-17338493D01*
X42838323Y-16338493D01*
X42981180Y-16338493D01*
X42982713Y-16342706D01*
X42981672Y-16347068D01*
X42989098Y-16372035D01*
X43036718Y-16467273D01*
X43037909Y-16468400D01*
X43050767Y-16486764D01*
X43098386Y-16534383D01*
X43099867Y-16535074D01*
X43117878Y-16548432D01*
X43213116Y-16596051D01*
X43217569Y-16596563D01*
X43221005Y-16599446D01*
X43246657Y-16603969D01*
X43389514Y-16603969D01*
X43393727Y-16602435D01*
X43398088Y-16603477D01*
X43423055Y-16596051D01*
X43518293Y-16548432D01*
X43519418Y-16547242D01*
X43537785Y-16534383D01*
X43585404Y-16486764D01*
X43587299Y-16482699D01*
X43591119Y-16480353D01*
X43599783Y-16464352D01*
X43622195Y-16486764D01*
X43623676Y-16487455D01*
X43641687Y-16500813D01*
X43736925Y-16548432D01*
X43741378Y-16548944D01*
X43744814Y-16551827D01*
X43770466Y-16556350D01*
X43865704Y-16556350D01*
X43869917Y-16554816D01*
X43874278Y-16555858D01*
X43899245Y-16548432D01*
X43994483Y-16500813D01*
X43995608Y-16499623D01*
X44013975Y-16486764D01*
X44061594Y-16439145D01*
X44062285Y-16437663D01*
X44075643Y-16419653D01*
X44123262Y-16324415D01*
X44123774Y-16319961D01*
X44126657Y-16316526D01*
X44131180Y-16290874D01*
X44131180Y-15957541D01*
X44124516Y-15939232D01*
X44121132Y-15920041D01*
X44115947Y-15915690D01*
X44113633Y-15909332D01*
X44096759Y-15899589D01*
X44081832Y-15887064D01*
X44072089Y-15885346D01*
X44069204Y-15883680D01*
X44065921Y-15884258D01*
X44056180Y-15882541D01*
X43056180Y-15882541D01*
X43037871Y-15889204D01*
X43018680Y-15892589D01*
X43014329Y-15897773D01*
X43007971Y-15900088D01*
X42998228Y-15916961D01*
X42985703Y-15931889D01*
X42983985Y-15941631D01*
X42982319Y-15944517D01*
X42982897Y-15947799D01*
X42981180Y-15957541D01*
X42981180Y-16338493D01*
X42838323Y-16338493D01*
X42838323Y-15528969D01*
X42981180Y-15528969D01*
X42998727Y-15577178D01*
X43043156Y-15602830D01*
X43093680Y-15593921D01*
X43126657Y-15554621D01*
X43131180Y-15528969D01*
X43131180Y-15127779D01*
X43504990Y-15127779D01*
X43504990Y-15386112D01*
X43522537Y-15434321D01*
X43566966Y-15459973D01*
X43617490Y-15451064D01*
X43650467Y-15411764D01*
X43654990Y-15386112D01*
X43654990Y-15127779D01*
X43981180Y-15127779D01*
X43981180Y-15528969D01*
X43998727Y-15577178D01*
X44043156Y-15602830D01*
X44093680Y-15593921D01*
X44126657Y-15554621D01*
X44131180Y-15528969D01*
X44131180Y-15052779D01*
X44124516Y-15034470D01*
X44121132Y-15015279D01*
X44115947Y-15010928D01*
X44113633Y-15004570D01*
X44096759Y-14994827D01*
X44081832Y-14982302D01*
X44072089Y-14980584D01*
X44069204Y-14978918D01*
X44065921Y-14979496D01*
X44056180Y-14977779D01*
X43056180Y-14977779D01*
X43037871Y-14984442D01*
X43018680Y-14987827D01*
X43014329Y-14993011D01*
X43007971Y-14995326D01*
X42998228Y-15012199D01*
X42985703Y-15027127D01*
X42983985Y-15036869D01*
X42982319Y-15039755D01*
X42982897Y-15043037D01*
X42981180Y-15052779D01*
X42981180Y-15528969D01*
X42838323Y-15528969D01*
X42838323Y-14039755D01*
X42982319Y-14039755D01*
X42991228Y-14090279D01*
X43030528Y-14123256D01*
X43056180Y-14127779D01*
X43457371Y-14127779D01*
X43457371Y-14251824D01*
X43013170Y-14562765D01*
X42983739Y-14604786D01*
X42988202Y-14655894D01*
X43024474Y-14692176D01*
X43075581Y-14696654D01*
X43099190Y-14685649D01*
X43457716Y-14434680D01*
X43458904Y-14437944D01*
X43457863Y-14442305D01*
X43465289Y-14467272D01*
X43512908Y-14562510D01*
X43514097Y-14563635D01*
X43526957Y-14582002D01*
X43574576Y-14629621D01*
X43576057Y-14630312D01*
X43594068Y-14643670D01*
X43689306Y-14691289D01*
X43693759Y-14691801D01*
X43697195Y-14694684D01*
X43722847Y-14699207D01*
X43865704Y-14699207D01*
X43869917Y-14697673D01*
X43874278Y-14698715D01*
X43899245Y-14691289D01*
X43994483Y-14643670D01*
X43995608Y-14642480D01*
X44013975Y-14629621D01*
X44061594Y-14582002D01*
X44062285Y-14580520D01*
X44075643Y-14562510D01*
X44123262Y-14467272D01*
X44123774Y-14462818D01*
X44126657Y-14459383D01*
X44131180Y-14433731D01*
X44131180Y-14052779D01*
X44124516Y-14034470D01*
X44121132Y-14015279D01*
X44115947Y-14010928D01*
X44113633Y-14004570D01*
X44096759Y-13994827D01*
X44081832Y-13982302D01*
X44072089Y-13980584D01*
X44069204Y-13978918D01*
X44065921Y-13979496D01*
X44056180Y-13977779D01*
X43056180Y-13977779D01*
X43007971Y-13995326D01*
X42982319Y-14039755D01*
X42838323Y-14039755D01*
X42838323Y-13834922D01*
X44274037Y-13834922D01*
X44274037Y-19698068D01*
G37*
X36306047Y-74968341D02*
X35639380Y-75206436D01*
X35639380Y-75206436D02*
X36306047Y-75444531D01*
X36210809Y-75968341D02*
X36258428Y-75873103D01*
X36258428Y-75873103D02*
X36306047Y-75825484D01*
X36306047Y-75825484D02*
X36401285Y-75777865D01*
X36401285Y-75777865D02*
X36448904Y-75777865D01*
X36448904Y-75777865D02*
X36544142Y-75825484D01*
X36544142Y-75825484D02*
X36591761Y-75873103D01*
X36591761Y-75873103D02*
X36639380Y-75968341D01*
X36639380Y-75968341D02*
X36639380Y-76158817D01*
X36639380Y-76158817D02*
X36591761Y-76254055D01*
X36591761Y-76254055D02*
X36544142Y-76301674D01*
X36544142Y-76301674D02*
X36448904Y-76349293D01*
X36448904Y-76349293D02*
X36401285Y-76349293D01*
X36401285Y-76349293D02*
X36306047Y-76301674D01*
X36306047Y-76301674D02*
X36258428Y-76254055D01*
X36258428Y-76254055D02*
X36210809Y-76158817D01*
X36210809Y-76158817D02*
X36210809Y-75968341D01*
X36210809Y-75968341D02*
X36163190Y-75873103D01*
X36163190Y-75873103D02*
X36115571Y-75825484D01*
X36115571Y-75825484D02*
X36020333Y-75777865D01*
X36020333Y-75777865D02*
X35829857Y-75777865D01*
X35829857Y-75777865D02*
X35734619Y-75825484D01*
X35734619Y-75825484D02*
X35687000Y-75873103D01*
X35687000Y-75873103D02*
X35639380Y-75968341D01*
X35639380Y-75968341D02*
X35639380Y-76158817D01*
X35639380Y-76158817D02*
X35687000Y-76254055D01*
X35687000Y-76254055D02*
X35734619Y-76301674D01*
X35734619Y-76301674D02*
X35829857Y-76349293D01*
X35829857Y-76349293D02*
X36020333Y-76349293D01*
X36020333Y-76349293D02*
X36115571Y-76301674D01*
X36115571Y-76301674D02*
X36163190Y-76254055D01*
X36163190Y-76254055D02*
X36210809Y-76158817D01*
X35639380Y-76777865D02*
X36639380Y-76777865D01*
X36258428Y-76777865D02*
X36306047Y-76873103D01*
X36306047Y-76873103D02*
X36306047Y-77063579D01*
X36306047Y-77063579D02*
X36258428Y-77158817D01*
X36258428Y-77158817D02*
X36210809Y-77206436D01*
X36210809Y-77206436D02*
X36115571Y-77254055D01*
X36115571Y-77254055D02*
X35829857Y-77254055D01*
X35829857Y-77254055D02*
X35734619Y-77206436D01*
X35734619Y-77206436D02*
X35687000Y-77158817D01*
X35687000Y-77158817D02*
X35639380Y-77063579D01*
X35639380Y-77063579D02*
X35639380Y-76873103D01*
X35639380Y-76873103D02*
X35687000Y-76777865D01*
X36020333Y-78444532D02*
X36020333Y-79206437D01*
X36639380Y-80301675D02*
X36639380Y-80873103D01*
X35639380Y-80587389D02*
X36639380Y-80587389D01*
X35639380Y-81206437D02*
X36639380Y-81206437D01*
X35639380Y-81635008D02*
X36163190Y-81635008D01*
X36163190Y-81635008D02*
X36258428Y-81587389D01*
X36258428Y-81587389D02*
X36306047Y-81492151D01*
X36306047Y-81492151D02*
X36306047Y-81349294D01*
X36306047Y-81349294D02*
X36258428Y-81254056D01*
X36258428Y-81254056D02*
X36210809Y-81206437D01*
X35687000Y-82492151D02*
X35639380Y-82396913D01*
X35639380Y-82396913D02*
X35639380Y-82206437D01*
X35639380Y-82206437D02*
X35687000Y-82111199D01*
X35687000Y-82111199D02*
X35782238Y-82063580D01*
X35782238Y-82063580D02*
X36163190Y-82063580D01*
X36163190Y-82063580D02*
X36258428Y-82111199D01*
X36258428Y-82111199D02*
X36306047Y-82206437D01*
X36306047Y-82206437D02*
X36306047Y-82396913D01*
X36306047Y-82396913D02*
X36258428Y-82492151D01*
X36258428Y-82492151D02*
X36163190Y-82539770D01*
X36163190Y-82539770D02*
X36067952Y-82539770D01*
X36067952Y-82539770D02*
X35972714Y-82063580D01*
X36639380Y-83920723D02*
X36639380Y-84111199D01*
X36639380Y-84111199D02*
X36591761Y-84206437D01*
X36591761Y-84206437D02*
X36496523Y-84301675D01*
X36496523Y-84301675D02*
X36306047Y-84349294D01*
X36306047Y-84349294D02*
X35972714Y-84349294D01*
X35972714Y-84349294D02*
X35782238Y-84301675D01*
X35782238Y-84301675D02*
X35687000Y-84206437D01*
X35687000Y-84206437D02*
X35639380Y-84111199D01*
X35639380Y-84111199D02*
X35639380Y-83920723D01*
X35639380Y-83920723D02*
X35687000Y-83825485D01*
X35687000Y-83825485D02*
X35782238Y-83730247D01*
X35782238Y-83730247D02*
X35972714Y-83682628D01*
X35972714Y-83682628D02*
X36306047Y-83682628D01*
X36306047Y-83682628D02*
X36496523Y-83730247D01*
X36496523Y-83730247D02*
X36591761Y-83825485D01*
X36591761Y-83825485D02*
X36639380Y-83920723D01*
X35687000Y-85206437D02*
X35639380Y-85111199D01*
X35639380Y-85111199D02*
X35639380Y-84920723D01*
X35639380Y-84920723D02*
X35687000Y-84825485D01*
X35687000Y-84825485D02*
X35734619Y-84777866D01*
X35734619Y-84777866D02*
X35829857Y-84730247D01*
X35829857Y-84730247D02*
X36115571Y-84730247D01*
X36115571Y-84730247D02*
X36210809Y-84777866D01*
X36210809Y-84777866D02*
X36258428Y-84825485D01*
X36258428Y-84825485D02*
X36306047Y-84920723D01*
X36306047Y-84920723D02*
X36306047Y-85111199D01*
X36306047Y-85111199D02*
X36258428Y-85206437D01*
X35639380Y-85635009D02*
X36639380Y-85635009D01*
X35639380Y-86063580D02*
X36163190Y-86063580D01*
X36163190Y-86063580D02*
X36258428Y-86015961D01*
X36258428Y-86015961D02*
X36306047Y-85920723D01*
X36306047Y-85920723D02*
X36306047Y-85777866D01*
X36306047Y-85777866D02*
X36258428Y-85682628D01*
X36258428Y-85682628D02*
X36210809Y-85635009D01*
X35639380Y-86682628D02*
X35687000Y-86587390D01*
X35687000Y-86587390D02*
X35734619Y-86539771D01*
X35734619Y-86539771D02*
X35829857Y-86492152D01*
X35829857Y-86492152D02*
X36115571Y-86492152D01*
X36115571Y-86492152D02*
X36210809Y-86539771D01*
X36210809Y-86539771D02*
X36258428Y-86587390D01*
X36258428Y-86587390D02*
X36306047Y-86682628D01*
X36306047Y-86682628D02*
X36306047Y-86825485D01*
X36306047Y-86825485D02*
X36258428Y-86920723D01*
X36258428Y-86920723D02*
X36210809Y-86968342D01*
X36210809Y-86968342D02*
X36115571Y-87015961D01*
X36115571Y-87015961D02*
X35829857Y-87015961D01*
X35829857Y-87015961D02*
X35734619Y-86968342D01*
X35734619Y-86968342D02*
X35687000Y-86920723D01*
X35687000Y-86920723D02*
X35639380Y-86825485D01*
X35639380Y-86825485D02*
X35639380Y-86682628D01*
D13*
G36*
X43599571Y-73010023D02*
G01*
X43544843Y-73119477D01*
X43494929Y-73169392D01*
X43385475Y-73224119D01*
X43215453Y-73224119D01*
X43105995Y-73169390D01*
X43056085Y-73119480D01*
X43001357Y-73010023D01*
X43001357Y-72554476D01*
X43599571Y-72554476D01*
X43599571Y-73010023D01*
G37*
G36*
X44001357Y-73625905D02*
G01*
X41885285Y-73625905D01*
X41885285Y-72489696D01*
X42104159Y-72489696D01*
X42138216Y-72536571D01*
X42193321Y-72554476D01*
X42813857Y-72554476D01*
X42813857Y-73032155D01*
X42820535Y-73052709D01*
X42823754Y-73074081D01*
X42895182Y-73216938D01*
X42905845Y-73227764D01*
X42912744Y-73241303D01*
X42984173Y-73312732D01*
X42997711Y-73319630D01*
X43008538Y-73330294D01*
X43151395Y-73401722D01*
X43172768Y-73404940D01*
X43193321Y-73411619D01*
X43407607Y-73411619D01*
X43428161Y-73404940D01*
X43449533Y-73401722D01*
X43592390Y-73330294D01*
X43603215Y-73319631D01*
X43616756Y-73312732D01*
X43688184Y-73241303D01*
X43695082Y-73227763D01*
X43705744Y-73216939D01*
X43777173Y-73074082D01*
X43780391Y-73052712D01*
X43787071Y-73032155D01*
X43787071Y-72460726D01*
X43782483Y-72446605D01*
X43782483Y-72431756D01*
X43773754Y-72419742D01*
X43769166Y-72405621D01*
X43757153Y-72396893D01*
X43748426Y-72384881D01*
X43734304Y-72380292D01*
X43722291Y-72371564D01*
X43707441Y-72371564D01*
X43693321Y-72366976D01*
X42193321Y-72366976D01*
X42138216Y-72384881D01*
X42104159Y-72431756D01*
X42104159Y-72489696D01*
X41885285Y-72489696D01*
X41885285Y-71460726D01*
X42099571Y-71460726D01*
X42106249Y-71481281D01*
X42109469Y-71502653D01*
X42180897Y-71645509D01*
X42191559Y-71656334D01*
X42198458Y-71669874D01*
X42269886Y-71741303D01*
X42283425Y-71748201D01*
X42294252Y-71758865D01*
X42437109Y-71830293D01*
X42458482Y-71833511D01*
X42479035Y-71840190D01*
X43693321Y-71840190D01*
X43748426Y-71822285D01*
X43782483Y-71775410D01*
X43782483Y-71717470D01*
X43748426Y-71670595D01*
X43693321Y-71652690D01*
X42501167Y-71652690D01*
X42391712Y-71597963D01*
X42341798Y-71548048D01*
X42287071Y-71438594D01*
X42287071Y-71197143D01*
X42341798Y-71087689D01*
X42391713Y-71037773D01*
X42501167Y-70983047D01*
X43693321Y-70983047D01*
X43748426Y-70965142D01*
X43782483Y-70918267D01*
X43782483Y-70860327D01*
X43748426Y-70813452D01*
X43693321Y-70795547D01*
X42479035Y-70795547D01*
X42458477Y-70802226D01*
X42437108Y-70805445D01*
X42294251Y-70876874D01*
X42283425Y-70887536D01*
X42269886Y-70894435D01*
X42198458Y-70965864D01*
X42191559Y-70979403D01*
X42180897Y-70990229D01*
X42109469Y-71133085D01*
X42106249Y-71154456D01*
X42099571Y-71175012D01*
X42099571Y-71460726D01*
X41885285Y-71460726D01*
X41885285Y-70581261D01*
X44001357Y-70581261D01*
X44001357Y-73625905D01*
G37*
D11*
G36*
X35576817Y-32358590D02*
G01*
X35650930Y-32432703D01*
X35689423Y-32509690D01*
X35732807Y-32683224D01*
X35732807Y-32807613D01*
X35689423Y-32981147D01*
X35650929Y-33058134D01*
X35576817Y-33132247D01*
X35462304Y-33170419D01*
X35311379Y-33170419D01*
X35311379Y-32320419D01*
X35462304Y-32320419D01*
X35576817Y-32358590D01*
G37*
G36*
X37576817Y-32834780D02*
G01*
X37603311Y-32861274D01*
X37637569Y-32929790D01*
X37637569Y-33037237D01*
X37603310Y-33105753D01*
X37572903Y-33136161D01*
X37504388Y-33170419D01*
X37216141Y-33170419D01*
X37216141Y-32796609D01*
X37462304Y-32796609D01*
X37576817Y-32834780D01*
G37*
G36*
X37525285Y-32354677D02*
G01*
X37555692Y-32385084D01*
X37589950Y-32453600D01*
X37589950Y-32513428D01*
X37555692Y-32581944D01*
X37525285Y-32612351D01*
X37456769Y-32646609D01*
X37216141Y-32646609D01*
X37216141Y-32320419D01*
X37456769Y-32320419D01*
X37525285Y-32354677D01*
G37*
G36*
X42382428Y-32354677D02*
G01*
X42454370Y-32426619D01*
X42494712Y-32587986D01*
X42494712Y-32902851D01*
X42454370Y-33064217D01*
X42382427Y-33136161D01*
X42313912Y-33170419D01*
X42158846Y-33170419D01*
X42090330Y-33136161D01*
X42018387Y-33064217D01*
X41978046Y-32902851D01*
X41978046Y-32587986D01*
X42018387Y-32426619D01*
X42090330Y-32354677D01*
X42158846Y-32320419D01*
X42313912Y-32320419D01*
X42382428Y-32354677D01*
G37*
G36*
X41382428Y-32354677D02*
G01*
X41412835Y-32385084D01*
X41447093Y-32453600D01*
X41447093Y-32561047D01*
X41412835Y-32629563D01*
X41382428Y-32659970D01*
X41313912Y-32694228D01*
X41025665Y-32694228D01*
X41025665Y-32320419D01*
X41313912Y-32320419D01*
X41382428Y-32354677D01*
G37*
G36*
X43430047Y-32354677D02*
G01*
X43460454Y-32385084D01*
X43494712Y-32453600D01*
X43494712Y-32561047D01*
X43460454Y-32629563D01*
X43430047Y-32659970D01*
X43361531Y-32694228D01*
X43073284Y-32694228D01*
X43073284Y-32320419D01*
X43361531Y-32320419D01*
X43430047Y-32354677D01*
G37*
G36*
X44643573Y-33463276D02*
G01*
X35018522Y-33463276D01*
X35018522Y-33245419D01*
X35161379Y-33245419D01*
X35168042Y-33263727D01*
X35171427Y-33282919D01*
X35176611Y-33287269D01*
X35178926Y-33293628D01*
X35195799Y-33303370D01*
X35210727Y-33315896D01*
X35220469Y-33317613D01*
X35223355Y-33319280D01*
X35226637Y-33318701D01*
X35236379Y-33320419D01*
X35474474Y-33320419D01*
X35476012Y-33319858D01*
X35498191Y-33316570D01*
X35641048Y-33268951D01*
X35644560Y-33266163D01*
X35649027Y-33265773D01*
X35670364Y-33250833D01*
X35675778Y-33245419D01*
X36161379Y-33245419D01*
X36168042Y-33263727D01*
X36171427Y-33282919D01*
X36176611Y-33287269D01*
X36178926Y-33293628D01*
X36195799Y-33303370D01*
X36210727Y-33315896D01*
X36220469Y-33317613D01*
X36223355Y-33319280D01*
X36226637Y-33318701D01*
X36236379Y-33320419D01*
X36712569Y-33320419D01*
X36760778Y-33302872D01*
X36786430Y-33258443D01*
X36784133Y-33245419D01*
X37066141Y-33245419D01*
X37072804Y-33263727D01*
X37076189Y-33282919D01*
X37081373Y-33287269D01*
X37083688Y-33293628D01*
X37100561Y-33303370D01*
X37115489Y-33315896D01*
X37125231Y-33317613D01*
X37128117Y-33319280D01*
X37131399Y-33318701D01*
X37141141Y-33320419D01*
X37522093Y-33320419D01*
X37526306Y-33318885D01*
X37530667Y-33319927D01*
X37555634Y-33312501D01*
X37650872Y-33264882D01*
X37651996Y-33263694D01*
X37670365Y-33250832D01*
X37717983Y-33203213D01*
X37718673Y-33201731D01*
X37732032Y-33183721D01*
X37779651Y-33088483D01*
X37780163Y-33084029D01*
X37783046Y-33080594D01*
X37787569Y-33054942D01*
X38066141Y-33054942D01*
X38067674Y-33059155D01*
X38066633Y-33063516D01*
X38074059Y-33088483D01*
X38121678Y-33183721D01*
X38122866Y-33184846D01*
X38135726Y-33203212D01*
X38183345Y-33250832D01*
X38184826Y-33251522D01*
X38202838Y-33264882D01*
X38298076Y-33312501D01*
X38302529Y-33313013D01*
X38305965Y-33315896D01*
X38331617Y-33320419D01*
X38522093Y-33320419D01*
X38526306Y-33318885D01*
X38530667Y-33319927D01*
X38555634Y-33312501D01*
X38650872Y-33264882D01*
X38651996Y-33263694D01*
X38670365Y-33250832D01*
X38717983Y-33203213D01*
X38718673Y-33201731D01*
X38732032Y-33183721D01*
X38779651Y-33088483D01*
X38780163Y-33084029D01*
X38783046Y-33080594D01*
X38787569Y-33054942D01*
X38787569Y-32816847D01*
X39066141Y-32816847D01*
X39067326Y-32820104D01*
X39068380Y-32835037D01*
X39115999Y-33025513D01*
X39117987Y-33028457D01*
X39121678Y-33040864D01*
X39169297Y-33136102D01*
X39170483Y-33137225D01*
X39183346Y-33155594D01*
X39278584Y-33250833D01*
X39282648Y-33252728D01*
X39284995Y-33256548D01*
X39307900Y-33268951D01*
X39450756Y-33316570D01*
X39452391Y-33316525D01*
X39474474Y-33320419D01*
X39569712Y-33320419D01*
X39571250Y-33319858D01*
X39593429Y-33316570D01*
X39736286Y-33268951D01*
X39739797Y-33266163D01*
X39744266Y-33265773D01*
X39765603Y-33250832D01*
X39771016Y-33245419D01*
X40875665Y-33245419D01*
X40893212Y-33293628D01*
X40937641Y-33319280D01*
X40988165Y-33310371D01*
X41021142Y-33271071D01*
X41025665Y-33245419D01*
X41025665Y-32912085D01*
X41828046Y-32912085D01*
X41829231Y-32915342D01*
X41830285Y-32930275D01*
X41877904Y-33120751D01*
X41882046Y-33126883D01*
X41882691Y-33134257D01*
X41897632Y-33155594D01*
X41992870Y-33250833D01*
X41994352Y-33251524D01*
X42012362Y-33264882D01*
X42107600Y-33312501D01*
X42112053Y-33313013D01*
X42115489Y-33315896D01*
X42141141Y-33320419D01*
X42331617Y-33320419D01*
X42335830Y-33318885D01*
X42340191Y-33319927D01*
X42365158Y-33312501D01*
X42460396Y-33264882D01*
X42461521Y-33263692D01*
X42479888Y-33250833D01*
X42485302Y-33245419D01*
X42923284Y-33245419D01*
X42940831Y-33293628D01*
X42985260Y-33319280D01*
X43035784Y-33310371D01*
X43068761Y-33271071D01*
X43073284Y-33245419D01*
X43073284Y-32844228D01*
X43197330Y-32844228D01*
X43508270Y-33288429D01*
X43550291Y-33317861D01*
X43601399Y-33313397D01*
X43637681Y-33277125D01*
X43642160Y-33226018D01*
X43631155Y-33202410D01*
X43380185Y-32843882D01*
X43383449Y-32842694D01*
X43387810Y-32843736D01*
X43412777Y-32836310D01*
X43508015Y-32788691D01*
X43509140Y-32787501D01*
X43527507Y-32774642D01*
X43575126Y-32727023D01*
X43575817Y-32725541D01*
X43589175Y-32707531D01*
X43636794Y-32612293D01*
X43637306Y-32607839D01*
X43640189Y-32604404D01*
X43644712Y-32578752D01*
X43644712Y-32435895D01*
X43643178Y-32431681D01*
X43644220Y-32427320D01*
X43636794Y-32402354D01*
X43589175Y-32307116D01*
X43587985Y-32305990D01*
X43575126Y-32287624D01*
X43527507Y-32240005D01*
X43526025Y-32239314D01*
X43516696Y-32232395D01*
X43781566Y-32232395D01*
X43790475Y-32282919D01*
X43829775Y-32315896D01*
X43855427Y-32320419D01*
X44066141Y-32320419D01*
X44066141Y-33245419D01*
X44083688Y-33293628D01*
X44128117Y-33319280D01*
X44178641Y-33310371D01*
X44211618Y-33271071D01*
X44216141Y-33245419D01*
X44216141Y-32320419D01*
X44426855Y-32320419D01*
X44475064Y-32302872D01*
X44500716Y-32258443D01*
X44491807Y-32207919D01*
X44452507Y-32174942D01*
X44426855Y-32170419D01*
X43855427Y-32170419D01*
X43807218Y-32187966D01*
X43781566Y-32232395D01*
X43516696Y-32232395D01*
X43508015Y-32225956D01*
X43412777Y-32178337D01*
X43408323Y-32177824D01*
X43404888Y-32174942D01*
X43379236Y-32170419D01*
X42998284Y-32170419D01*
X42979975Y-32177082D01*
X42960784Y-32180467D01*
X42956433Y-32185651D01*
X42950075Y-32187966D01*
X42940332Y-32204839D01*
X42927807Y-32219767D01*
X42926089Y-32229509D01*
X42924423Y-32232395D01*
X42925001Y-32235677D01*
X42923284Y-32245419D01*
X42923284Y-33245419D01*
X42485302Y-33245419D01*
X42575127Y-33155593D01*
X42578254Y-33148885D01*
X42584244Y-33144540D01*
X42594854Y-33120751D01*
X42642473Y-32930275D01*
X42642112Y-32926826D01*
X42644712Y-32912085D01*
X42644712Y-32578752D01*
X42643526Y-32575494D01*
X42642473Y-32560562D01*
X42594854Y-32370086D01*
X42590712Y-32363953D01*
X42590067Y-32356580D01*
X42575126Y-32335243D01*
X42479888Y-32240005D01*
X42478406Y-32239314D01*
X42460396Y-32225956D01*
X42365158Y-32178337D01*
X42360704Y-32177824D01*
X42357269Y-32174942D01*
X42331617Y-32170419D01*
X42141141Y-32170419D01*
X42136927Y-32171952D01*
X42132566Y-32170911D01*
X42107600Y-32178337D01*
X42012362Y-32225956D01*
X42011238Y-32227142D01*
X41992870Y-32240005D01*
X41897632Y-32335243D01*
X41894504Y-32341950D01*
X41888514Y-32346297D01*
X41877904Y-32370086D01*
X41830285Y-32560562D01*
X41830645Y-32564010D01*
X41828046Y-32578752D01*
X41828046Y-32912085D01*
X41025665Y-32912085D01*
X41025665Y-32844228D01*
X41331617Y-32844228D01*
X41335830Y-32842694D01*
X41340191Y-32843736D01*
X41365158Y-32836310D01*
X41460396Y-32788691D01*
X41461521Y-32787501D01*
X41479888Y-32774642D01*
X41527507Y-32727023D01*
X41528198Y-32725541D01*
X41541556Y-32707531D01*
X41589175Y-32612293D01*
X41589687Y-32607839D01*
X41592570Y-32604404D01*
X41597093Y-32578752D01*
X41597093Y-32435895D01*
X41595559Y-32431681D01*
X41596601Y-32427320D01*
X41589175Y-32402354D01*
X41541556Y-32307116D01*
X41540366Y-32305990D01*
X41527507Y-32287624D01*
X41479888Y-32240005D01*
X41478406Y-32239314D01*
X41460396Y-32225956D01*
X41365158Y-32178337D01*
X41360704Y-32177824D01*
X41357269Y-32174942D01*
X41331617Y-32170419D01*
X40950665Y-32170419D01*
X40932356Y-32177082D01*
X40913165Y-32180467D01*
X40908814Y-32185651D01*
X40902456Y-32187966D01*
X40892713Y-32204839D01*
X40880188Y-32219767D01*
X40878470Y-32229509D01*
X40876804Y-32232395D01*
X40877382Y-32235677D01*
X40875665Y-32245419D01*
X40875665Y-33245419D01*
X39771016Y-33245419D01*
X39813221Y-33203213D01*
X39820139Y-33188375D01*
X39830665Y-33175832D01*
X39833508Y-33159704D01*
X39834902Y-33156716D01*
X39834379Y-33154765D01*
X39835188Y-33150180D01*
X39835188Y-32816847D01*
X39828524Y-32798538D01*
X39825140Y-32779347D01*
X39819955Y-32774996D01*
X39817641Y-32768638D01*
X39800767Y-32758895D01*
X39785840Y-32746370D01*
X39776097Y-32744652D01*
X39773212Y-32742986D01*
X39769929Y-32743564D01*
X39760188Y-32741847D01*
X39569712Y-32741847D01*
X39521503Y-32759394D01*
X39495851Y-32803823D01*
X39504760Y-32854347D01*
X39544060Y-32887324D01*
X39569712Y-32891847D01*
X39685188Y-32891847D01*
X39685188Y-33119114D01*
X39672055Y-33132247D01*
X39557542Y-33170419D01*
X39486644Y-33170419D01*
X39372131Y-33132248D01*
X39298018Y-33058134D01*
X39259524Y-32981147D01*
X39216141Y-32807613D01*
X39216141Y-32683224D01*
X39259524Y-32509690D01*
X39298018Y-32432703D01*
X39372131Y-32358590D01*
X39486644Y-32320419D01*
X39599626Y-32320419D01*
X39679028Y-32360120D01*
X39729994Y-32365985D01*
X39772807Y-32337719D01*
X39787434Y-32288544D01*
X39767031Y-32241473D01*
X39746110Y-32225956D01*
X39650872Y-32178337D01*
X39646418Y-32177824D01*
X39642983Y-32174942D01*
X39617331Y-32170419D01*
X39474474Y-32170419D01*
X39472936Y-32170978D01*
X39450756Y-32174268D01*
X39307900Y-32221887D01*
X39304389Y-32224673D01*
X39299921Y-32225064D01*
X39278584Y-32240005D01*
X39183346Y-32335243D01*
X39182655Y-32336724D01*
X39169297Y-32354735D01*
X39121678Y-32449973D01*
X39121271Y-32453501D01*
X39115999Y-32465324D01*
X39068380Y-32655800D01*
X39068740Y-32659248D01*
X39066141Y-32673990D01*
X39066141Y-32816847D01*
X38787569Y-32816847D01*
X38787569Y-32245419D01*
X38770022Y-32197210D01*
X38725593Y-32171558D01*
X38675069Y-32180467D01*
X38642092Y-32219767D01*
X38637569Y-32245419D01*
X38637569Y-33037237D01*
X38603310Y-33105753D01*
X38572903Y-33136161D01*
X38504388Y-33170419D01*
X38349322Y-33170419D01*
X38280806Y-33136161D01*
X38250399Y-33105753D01*
X38216141Y-33037237D01*
X38216141Y-32245419D01*
X38198594Y-32197210D01*
X38154165Y-32171558D01*
X38103641Y-32180467D01*
X38070664Y-32219767D01*
X38066141Y-32245419D01*
X38066141Y-33054942D01*
X37787569Y-33054942D01*
X37787569Y-32912085D01*
X37786035Y-32907871D01*
X37787077Y-32903510D01*
X37779651Y-32878544D01*
X37732032Y-32783306D01*
X37730842Y-32782180D01*
X37717983Y-32763814D01*
X37670364Y-32716195D01*
X37666300Y-32714300D01*
X37663953Y-32710479D01*
X37647952Y-32701815D01*
X37670364Y-32679404D01*
X37671055Y-32677922D01*
X37684413Y-32659912D01*
X37732032Y-32564674D01*
X37732544Y-32560220D01*
X37735427Y-32556785D01*
X37739950Y-32531133D01*
X37739950Y-32435895D01*
X37738416Y-32431681D01*
X37739458Y-32427320D01*
X37732032Y-32402354D01*
X37684413Y-32307116D01*
X37683223Y-32305990D01*
X37670364Y-32287624D01*
X37622745Y-32240005D01*
X37621263Y-32239314D01*
X37603253Y-32225956D01*
X37508015Y-32178337D01*
X37503561Y-32177824D01*
X37500126Y-32174942D01*
X37474474Y-32170419D01*
X37141141Y-32170419D01*
X37122832Y-32177082D01*
X37103641Y-32180467D01*
X37099290Y-32185651D01*
X37092932Y-32187966D01*
X37083189Y-32204839D01*
X37070664Y-32219767D01*
X37068946Y-32229509D01*
X37067280Y-32232395D01*
X37067858Y-32235677D01*
X37066141Y-32245419D01*
X37066141Y-33245419D01*
X36784133Y-33245419D01*
X36777521Y-33207919D01*
X36738221Y-33174942D01*
X36712569Y-33170419D01*
X36311379Y-33170419D01*
X36311379Y-32796609D01*
X36569712Y-32796609D01*
X36617921Y-32779062D01*
X36643573Y-32734633D01*
X36634664Y-32684109D01*
X36595364Y-32651132D01*
X36569712Y-32646609D01*
X36311379Y-32646609D01*
X36311379Y-32320419D01*
X36712569Y-32320419D01*
X36760778Y-32302872D01*
X36786430Y-32258443D01*
X36777521Y-32207919D01*
X36738221Y-32174942D01*
X36712569Y-32170419D01*
X36236379Y-32170419D01*
X36218070Y-32177082D01*
X36198879Y-32180467D01*
X36194528Y-32185651D01*
X36188170Y-32187966D01*
X36178427Y-32204839D01*
X36165902Y-32219767D01*
X36164184Y-32229509D01*
X36162518Y-32232395D01*
X36163096Y-32235677D01*
X36161379Y-32245419D01*
X36161379Y-33245419D01*
X35675778Y-33245419D01*
X35765603Y-33155593D01*
X35766294Y-33154110D01*
X35779651Y-33136102D01*
X35827270Y-33040864D01*
X35827676Y-33037335D01*
X35832949Y-33025513D01*
X35880568Y-32835037D01*
X35880207Y-32831588D01*
X35882807Y-32816847D01*
X35882807Y-32673990D01*
X35881621Y-32670732D01*
X35880568Y-32655800D01*
X35832949Y-32465324D01*
X35830960Y-32462379D01*
X35827270Y-32449973D01*
X35779651Y-32354735D01*
X35778464Y-32353611D01*
X35765602Y-32335243D01*
X35670364Y-32240005D01*
X35666300Y-32238110D01*
X35663953Y-32234289D01*
X35641048Y-32221887D01*
X35498191Y-32174268D01*
X35496556Y-32174312D01*
X35474474Y-32170419D01*
X35236379Y-32170419D01*
X35218070Y-32177082D01*
X35198879Y-32180467D01*
X35194528Y-32185651D01*
X35188170Y-32187966D01*
X35178427Y-32204839D01*
X35165902Y-32219767D01*
X35164184Y-32229509D01*
X35162518Y-32232395D01*
X35163096Y-32235677D01*
X35161379Y-32245419D01*
X35161379Y-33245419D01*
X35018522Y-33245419D01*
X35018522Y-32027562D01*
X44643573Y-32027562D01*
X44643573Y-33463276D01*
G37*
X46101009Y-43237485D02*
X46024819Y-43199390D01*
X46024819Y-43199390D02*
X45948628Y-43123200D01*
X45948628Y-43123200D02*
X45834342Y-43008914D01*
X45834342Y-43008914D02*
X45758152Y-42970819D01*
X45758152Y-42970819D02*
X45681961Y-42970819D01*
X45720057Y-43161295D02*
X45643866Y-43123200D01*
X45643866Y-43123200D02*
X45567676Y-43047009D01*
X45567676Y-43047009D02*
X45529580Y-42894628D01*
X45529580Y-42894628D02*
X45529580Y-42627961D01*
X45529580Y-42627961D02*
X45567676Y-42475580D01*
X45567676Y-42475580D02*
X45643866Y-42399390D01*
X45643866Y-42399390D02*
X45720057Y-42361295D01*
X45720057Y-42361295D02*
X45872438Y-42361295D01*
X45872438Y-42361295D02*
X45948628Y-42399390D01*
X45948628Y-42399390D02*
X46024819Y-42475580D01*
X46024819Y-42475580D02*
X46062914Y-42627961D01*
X46062914Y-42627961D02*
X46062914Y-42894628D01*
X46062914Y-42894628D02*
X46024819Y-43047009D01*
X46024819Y-43047009D02*
X45948628Y-43123200D01*
X45948628Y-43123200D02*
X45872438Y-43161295D01*
X45872438Y-43161295D02*
X45720057Y-43161295D01*
X46329580Y-42361295D02*
X46824818Y-42361295D01*
X46824818Y-42361295D02*
X46558152Y-42666057D01*
X46558152Y-42666057D02*
X46672437Y-42666057D01*
X46672437Y-42666057D02*
X46748628Y-42704152D01*
X46748628Y-42704152D02*
X46786723Y-42742247D01*
X46786723Y-42742247D02*
X46824818Y-42818438D01*
X46824818Y-42818438D02*
X46824818Y-43008914D01*
X46824818Y-43008914D02*
X46786723Y-43085104D01*
X46786723Y-43085104D02*
X46748628Y-43123200D01*
X46748628Y-43123200D02*
X46672437Y-43161295D01*
X46672437Y-43161295D02*
X46443866Y-43161295D01*
X46443866Y-43161295D02*
X46367675Y-43123200D01*
X46367675Y-43123200D02*
X46329580Y-43085104D01*
X42627904Y-24301032D02*
X42666000Y-24339128D01*
X42666000Y-24339128D02*
X42704095Y-24453413D01*
X42704095Y-24453413D02*
X42704095Y-24529604D01*
X42704095Y-24529604D02*
X42666000Y-24643890D01*
X42666000Y-24643890D02*
X42589809Y-24720080D01*
X42589809Y-24720080D02*
X42513619Y-24758175D01*
X42513619Y-24758175D02*
X42361238Y-24796271D01*
X42361238Y-24796271D02*
X42246952Y-24796271D01*
X42246952Y-24796271D02*
X42094571Y-24758175D01*
X42094571Y-24758175D02*
X42018380Y-24720080D01*
X42018380Y-24720080D02*
X41942190Y-24643890D01*
X41942190Y-24643890D02*
X41904095Y-24529604D01*
X41904095Y-24529604D02*
X41904095Y-24453413D01*
X41904095Y-24453413D02*
X41942190Y-24339128D01*
X41942190Y-24339128D02*
X41980285Y-24301032D01*
X41904095Y-23577223D02*
X41904095Y-23958175D01*
X41904095Y-23958175D02*
X42285047Y-23996271D01*
X42285047Y-23996271D02*
X42246952Y-23958175D01*
X42246952Y-23958175D02*
X42208857Y-23881985D01*
X42208857Y-23881985D02*
X42208857Y-23691509D01*
X42208857Y-23691509D02*
X42246952Y-23615318D01*
X42246952Y-23615318D02*
X42285047Y-23577223D01*
X42285047Y-23577223D02*
X42361238Y-23539128D01*
X42361238Y-23539128D02*
X42551714Y-23539128D01*
X42551714Y-23539128D02*
X42627904Y-23577223D01*
X42627904Y-23577223D02*
X42666000Y-23615318D01*
X42666000Y-23615318D02*
X42704095Y-23691509D01*
X42704095Y-23691509D02*
X42704095Y-23881985D01*
X42704095Y-23881985D02*
X42666000Y-23958175D01*
X42666000Y-23958175D02*
X42627904Y-23996271D01*
X51892209Y-43237485D02*
X51816019Y-43199390D01*
X51816019Y-43199390D02*
X51739828Y-43123200D01*
X51739828Y-43123200D02*
X51625542Y-43008914D01*
X51625542Y-43008914D02*
X51549352Y-42970819D01*
X51549352Y-42970819D02*
X51473161Y-42970819D01*
X51511257Y-43161295D02*
X51435066Y-43123200D01*
X51435066Y-43123200D02*
X51358876Y-43047009D01*
X51358876Y-43047009D02*
X51320780Y-42894628D01*
X51320780Y-42894628D02*
X51320780Y-42627961D01*
X51320780Y-42627961D02*
X51358876Y-42475580D01*
X51358876Y-42475580D02*
X51435066Y-42399390D01*
X51435066Y-42399390D02*
X51511257Y-42361295D01*
X51511257Y-42361295D02*
X51663638Y-42361295D01*
X51663638Y-42361295D02*
X51739828Y-42399390D01*
X51739828Y-42399390D02*
X51816019Y-42475580D01*
X51816019Y-42475580D02*
X51854114Y-42627961D01*
X51854114Y-42627961D02*
X51854114Y-42894628D01*
X51854114Y-42894628D02*
X51816019Y-43047009D01*
X51816019Y-43047009D02*
X51739828Y-43123200D01*
X51739828Y-43123200D02*
X51663638Y-43161295D01*
X51663638Y-43161295D02*
X51511257Y-43161295D01*
X52577923Y-42361295D02*
X52196971Y-42361295D01*
X52196971Y-42361295D02*
X52158875Y-42742247D01*
X52158875Y-42742247D02*
X52196971Y-42704152D01*
X52196971Y-42704152D02*
X52273161Y-42666057D01*
X52273161Y-42666057D02*
X52463637Y-42666057D01*
X52463637Y-42666057D02*
X52539828Y-42704152D01*
X52539828Y-42704152D02*
X52577923Y-42742247D01*
X52577923Y-42742247D02*
X52616018Y-42818438D01*
X52616018Y-42818438D02*
X52616018Y-43008914D01*
X52616018Y-43008914D02*
X52577923Y-43085104D01*
X52577923Y-43085104D02*
X52539828Y-43123200D01*
X52539828Y-43123200D02*
X52463637Y-43161295D01*
X52463637Y-43161295D02*
X52273161Y-43161295D01*
X52273161Y-43161295D02*
X52196971Y-43123200D01*
X52196971Y-43123200D02*
X52158875Y-43085104D01*
D14*
X39506095Y-69987123D02*
X40153714Y-69987123D01*
X40153714Y-69987123D02*
X40229904Y-69949028D01*
X40229904Y-69949028D02*
X40268000Y-69910933D01*
X40268000Y-69910933D02*
X40306095Y-69834742D01*
X40306095Y-69834742D02*
X40306095Y-69682361D01*
X40306095Y-69682361D02*
X40268000Y-69606171D01*
X40268000Y-69606171D02*
X40229904Y-69568076D01*
X40229904Y-69568076D02*
X40153714Y-69529980D01*
X40153714Y-69529980D02*
X39506095Y-69529980D01*
X40306095Y-68729981D02*
X40306095Y-69187124D01*
X40306095Y-68958552D02*
X39506095Y-68958552D01*
X39506095Y-68958552D02*
X39620380Y-69034743D01*
X39620380Y-69034743D02*
X39696571Y-69110933D01*
X39696571Y-69110933D02*
X39734666Y-69187124D01*
D11*
X37312285Y-43895790D02*
X37274190Y-43971980D01*
X37274190Y-43971980D02*
X37198000Y-44048171D01*
X37198000Y-44048171D02*
X37083714Y-44162457D01*
X37083714Y-44162457D02*
X37045619Y-44238647D01*
X37045619Y-44238647D02*
X37045619Y-44314838D01*
X37236095Y-44276742D02*
X37198000Y-44352933D01*
X37198000Y-44352933D02*
X37121809Y-44429123D01*
X37121809Y-44429123D02*
X36969428Y-44467219D01*
X36969428Y-44467219D02*
X36702761Y-44467219D01*
X36702761Y-44467219D02*
X36550380Y-44429123D01*
X36550380Y-44429123D02*
X36474190Y-44352933D01*
X36474190Y-44352933D02*
X36436095Y-44276742D01*
X36436095Y-44276742D02*
X36436095Y-44124361D01*
X36436095Y-44124361D02*
X36474190Y-44048171D01*
X36474190Y-44048171D02*
X36550380Y-43971980D01*
X36550380Y-43971980D02*
X36702761Y-43933885D01*
X36702761Y-43933885D02*
X36969428Y-43933885D01*
X36969428Y-43933885D02*
X37121809Y-43971980D01*
X37121809Y-43971980D02*
X37198000Y-44048171D01*
X37198000Y-44048171D02*
X37236095Y-44124361D01*
X37236095Y-44124361D02*
X37236095Y-44276742D01*
X36512285Y-43629124D02*
X36474190Y-43591028D01*
X36474190Y-43591028D02*
X36436095Y-43514838D01*
X36436095Y-43514838D02*
X36436095Y-43324362D01*
X36436095Y-43324362D02*
X36474190Y-43248171D01*
X36474190Y-43248171D02*
X36512285Y-43210076D01*
X36512285Y-43210076D02*
X36588476Y-43171981D01*
X36588476Y-43171981D02*
X36664666Y-43171981D01*
X36664666Y-43171981D02*
X36778952Y-43210076D01*
X36778952Y-43210076D02*
X37236095Y-43667219D01*
X37236095Y-43667219D02*
X37236095Y-43171981D01*
X30818380Y-25998266D02*
X30104095Y-25998266D01*
X30104095Y-25998266D02*
X29961238Y-25950647D01*
X29961238Y-25950647D02*
X29866000Y-25855409D01*
X29866000Y-25855409D02*
X29818380Y-25712552D01*
X29818380Y-25712552D02*
X29818380Y-25617314D01*
X30723142Y-26426838D02*
X30770761Y-26474457D01*
X30770761Y-26474457D02*
X30818380Y-26569695D01*
X30818380Y-26569695D02*
X30818380Y-26807790D01*
X30818380Y-26807790D02*
X30770761Y-26903028D01*
X30770761Y-26903028D02*
X30723142Y-26950647D01*
X30723142Y-26950647D02*
X30627904Y-26998266D01*
X30627904Y-26998266D02*
X30532666Y-26998266D01*
X30532666Y-26998266D02*
X30389809Y-26950647D01*
X30389809Y-26950647D02*
X29818380Y-26379219D01*
X29818380Y-26379219D02*
X29818380Y-26998266D01*
X37303085Y-40980590D02*
X37264990Y-41056780D01*
X37264990Y-41056780D02*
X37188800Y-41132971D01*
X37188800Y-41132971D02*
X37074514Y-41247257D01*
X37074514Y-41247257D02*
X37036419Y-41323447D01*
X37036419Y-41323447D02*
X37036419Y-41399638D01*
X37226895Y-41361542D02*
X37188800Y-41437733D01*
X37188800Y-41437733D02*
X37112609Y-41513923D01*
X37112609Y-41513923D02*
X36960228Y-41552019D01*
X36960228Y-41552019D02*
X36693561Y-41552019D01*
X36693561Y-41552019D02*
X36541180Y-41513923D01*
X36541180Y-41513923D02*
X36464990Y-41437733D01*
X36464990Y-41437733D02*
X36426895Y-41361542D01*
X36426895Y-41361542D02*
X36426895Y-41209161D01*
X36426895Y-41209161D02*
X36464990Y-41132971D01*
X36464990Y-41132971D02*
X36541180Y-41056780D01*
X36541180Y-41056780D02*
X36693561Y-41018685D01*
X36693561Y-41018685D02*
X36960228Y-41018685D01*
X36960228Y-41018685D02*
X37112609Y-41056780D01*
X37112609Y-41056780D02*
X37188800Y-41132971D01*
X37188800Y-41132971D02*
X37226895Y-41209161D01*
X37226895Y-41209161D02*
X37226895Y-41361542D01*
X37226895Y-40256781D02*
X37226895Y-40713924D01*
X37226895Y-40485352D02*
X36426895Y-40485352D01*
X36426895Y-40485352D02*
X36541180Y-40561543D01*
X36541180Y-40561543D02*
X36617371Y-40637733D01*
X36617371Y-40637733D02*
X36655466Y-40713924D01*
X38144019Y-57289904D02*
X38953542Y-57289904D01*
X38953542Y-57289904D02*
X39048780Y-57242285D01*
X39048780Y-57242285D02*
X39096400Y-57194666D01*
X39096400Y-57194666D02*
X39144019Y-57099428D01*
X39144019Y-57099428D02*
X39144019Y-56908952D01*
X39144019Y-56908952D02*
X39096400Y-56813714D01*
X39096400Y-56813714D02*
X39048780Y-56766095D01*
X39048780Y-56766095D02*
X38953542Y-56718476D01*
X38953542Y-56718476D02*
X38144019Y-56718476D01*
X38239257Y-56289904D02*
X38191638Y-56242285D01*
X38191638Y-56242285D02*
X38144019Y-56147047D01*
X38144019Y-56147047D02*
X38144019Y-55908952D01*
X38144019Y-55908952D02*
X38191638Y-55813714D01*
X38191638Y-55813714D02*
X38239257Y-55766095D01*
X38239257Y-55766095D02*
X38334495Y-55718476D01*
X38334495Y-55718476D02*
X38429733Y-55718476D01*
X38429733Y-55718476D02*
X38572590Y-55766095D01*
X38572590Y-55766095D02*
X39144019Y-56337523D01*
X39144019Y-56337523D02*
X39144019Y-55718476D01*
X48324019Y-26060304D02*
X49133542Y-26060304D01*
X49133542Y-26060304D02*
X49228780Y-26012685D01*
X49228780Y-26012685D02*
X49276400Y-25965066D01*
X49276400Y-25965066D02*
X49324019Y-25869828D01*
X49324019Y-25869828D02*
X49324019Y-25679352D01*
X49324019Y-25679352D02*
X49276400Y-25584114D01*
X49276400Y-25584114D02*
X49228780Y-25536495D01*
X49228780Y-25536495D02*
X49133542Y-25488876D01*
X49133542Y-25488876D02*
X48324019Y-25488876D01*
X48324019Y-25107923D02*
X48324019Y-24488876D01*
X48324019Y-24488876D02*
X48704971Y-24822209D01*
X48704971Y-24822209D02*
X48704971Y-24679352D01*
X48704971Y-24679352D02*
X48752590Y-24584114D01*
X48752590Y-24584114D02*
X48800209Y-24536495D01*
X48800209Y-24536495D02*
X48895447Y-24488876D01*
X48895447Y-24488876D02*
X49133542Y-24488876D01*
X49133542Y-24488876D02*
X49228780Y-24536495D01*
X49228780Y-24536495D02*
X49276400Y-24584114D01*
X49276400Y-24584114D02*
X49324019Y-24679352D01*
X49324019Y-24679352D02*
X49324019Y-24965066D01*
X49324019Y-24965066D02*
X49276400Y-25060304D01*
X49276400Y-25060304D02*
X49228780Y-25107923D01*
X48956209Y-43068885D02*
X48880019Y-43030790D01*
X48880019Y-43030790D02*
X48803828Y-42954600D01*
X48803828Y-42954600D02*
X48689542Y-42840314D01*
X48689542Y-42840314D02*
X48613352Y-42802219D01*
X48613352Y-42802219D02*
X48537161Y-42802219D01*
X48575257Y-42992695D02*
X48499066Y-42954600D01*
X48499066Y-42954600D02*
X48422876Y-42878409D01*
X48422876Y-42878409D02*
X48384780Y-42726028D01*
X48384780Y-42726028D02*
X48384780Y-42459361D01*
X48384780Y-42459361D02*
X48422876Y-42306980D01*
X48422876Y-42306980D02*
X48499066Y-42230790D01*
X48499066Y-42230790D02*
X48575257Y-42192695D01*
X48575257Y-42192695D02*
X48727638Y-42192695D01*
X48727638Y-42192695D02*
X48803828Y-42230790D01*
X48803828Y-42230790D02*
X48880019Y-42306980D01*
X48880019Y-42306980D02*
X48918114Y-42459361D01*
X48918114Y-42459361D02*
X48918114Y-42726028D01*
X48918114Y-42726028D02*
X48880019Y-42878409D01*
X48880019Y-42878409D02*
X48803828Y-42954600D01*
X48803828Y-42954600D02*
X48727638Y-42992695D01*
X48727638Y-42992695D02*
X48575257Y-42992695D01*
X49603828Y-42459361D02*
X49603828Y-42992695D01*
X49413352Y-42154600D02*
X49222875Y-42726028D01*
X49222875Y-42726028D02*
X49718114Y-42726028D01*
X43307009Y-43237485D02*
X43230819Y-43199390D01*
X43230819Y-43199390D02*
X43154628Y-43123200D01*
X43154628Y-43123200D02*
X43040342Y-43008914D01*
X43040342Y-43008914D02*
X42964152Y-42970819D01*
X42964152Y-42970819D02*
X42887961Y-42970819D01*
X42926057Y-43161295D02*
X42849866Y-43123200D01*
X42849866Y-43123200D02*
X42773676Y-43047009D01*
X42773676Y-43047009D02*
X42735580Y-42894628D01*
X42735580Y-42894628D02*
X42735580Y-42627961D01*
X42735580Y-42627961D02*
X42773676Y-42475580D01*
X42773676Y-42475580D02*
X42849866Y-42399390D01*
X42849866Y-42399390D02*
X42926057Y-42361295D01*
X42926057Y-42361295D02*
X43078438Y-42361295D01*
X43078438Y-42361295D02*
X43154628Y-42399390D01*
X43154628Y-42399390D02*
X43230819Y-42475580D01*
X43230819Y-42475580D02*
X43268914Y-42627961D01*
X43268914Y-42627961D02*
X43268914Y-42894628D01*
X43268914Y-42894628D02*
X43230819Y-43047009D01*
X43230819Y-43047009D02*
X43154628Y-43123200D01*
X43154628Y-43123200D02*
X43078438Y-43161295D01*
X43078438Y-43161295D02*
X42926057Y-43161295D01*
X43954628Y-42361295D02*
X43802247Y-42361295D01*
X43802247Y-42361295D02*
X43726056Y-42399390D01*
X43726056Y-42399390D02*
X43687961Y-42437485D01*
X43687961Y-42437485D02*
X43611771Y-42551771D01*
X43611771Y-42551771D02*
X43573675Y-42704152D01*
X43573675Y-42704152D02*
X43573675Y-43008914D01*
X43573675Y-43008914D02*
X43611771Y-43085104D01*
X43611771Y-43085104D02*
X43649866Y-43123200D01*
X43649866Y-43123200D02*
X43726056Y-43161295D01*
X43726056Y-43161295D02*
X43878437Y-43161295D01*
X43878437Y-43161295D02*
X43954628Y-43123200D01*
X43954628Y-43123200D02*
X43992723Y-43085104D01*
X43992723Y-43085104D02*
X44030818Y-43008914D01*
X44030818Y-43008914D02*
X44030818Y-42818438D01*
X44030818Y-42818438D02*
X43992723Y-42742247D01*
X43992723Y-42742247D02*
X43954628Y-42704152D01*
X43954628Y-42704152D02*
X43878437Y-42666057D01*
X43878437Y-42666057D02*
X43726056Y-42666057D01*
X43726056Y-42666057D02*
X43649866Y-42704152D01*
X43649866Y-42704152D02*
X43611771Y-42742247D01*
X43611771Y-42742247D02*
X43573675Y-42818438D01*
D15*
%TO.C,D105*%
X103861000Y-22325600D02*
X103861000Y-25415600D01*
X109410999Y-23871062D02*
G75*
G03*
X103861001Y-22325770I-2989999J462D01*
G01*
X103861000Y-25415430D02*
G75*
G03*
X109411000Y-23870138I2560000J1544830D01*
G01*
X108921000Y-23870600D02*
G75*
G03*
X108921000Y-23870600I-2500000J0D01*
G01*
%TO.C,D73*%
X141961000Y-45185600D02*
X141961000Y-48275600D01*
X147510999Y-46731062D02*
G75*
G03*
X141961001Y-45185770I-2989999J462D01*
G01*
X141961000Y-48275430D02*
G75*
G03*
X147511000Y-46730138I2560000J1544830D01*
G01*
X147021000Y-46730600D02*
G75*
G03*
X147021000Y-46730600I-2500000J0D01*
G01*
%TO.C,D2*%
X172186000Y-18810600D02*
X175276000Y-18810600D01*
X173731462Y-13260601D02*
G75*
G03*
X172186170Y-18810599I-462J-2989999D01*
G01*
X175275830Y-18810600D02*
G75*
G03*
X173730538Y-13260600I-1544830J2560000D01*
G01*
X176231000Y-16250600D02*
G75*
G03*
X176231000Y-16250600I-2500000J0D01*
G01*
%TO.C,D92*%
X211811000Y-65505600D02*
X211811000Y-68595600D01*
X217360999Y-67051062D02*
G75*
G03*
X211811001Y-65505770I-2989999J462D01*
G01*
X211811000Y-68595430D02*
G75*
G03*
X217361000Y-67050138I2560000J1544830D01*
G01*
X216871000Y-67050600D02*
G75*
G03*
X216871000Y-67050600I-2500000J0D01*
G01*
%TO.C,R19*%
X53468000Y-41354441D02*
X53468000Y-41047159D01*
X54228000Y-41354441D02*
X54228000Y-41047159D01*
%TO.C,D44*%
X163551000Y-29945600D02*
X163551000Y-33035600D01*
X169100999Y-31491062D02*
G75*
G03*
X163551001Y-29945770I-2989999J462D01*
G01*
X163551000Y-33035430D02*
G75*
G03*
X169101000Y-31490138I2560000J1544830D01*
G01*
X168611000Y-31490600D02*
G75*
G03*
X168611000Y-31490600I-2500000J0D01*
G01*
%TO.C,D37*%
X163551000Y-57885600D02*
X163551000Y-60975600D01*
X169100999Y-59431062D02*
G75*
G03*
X163551001Y-57885770I-2989999J462D01*
G01*
X163551000Y-60975430D02*
G75*
G03*
X169101000Y-59430138I2560000J1544830D01*
G01*
X168611000Y-59430600D02*
G75*
G03*
X168611000Y-59430600I-2500000J0D01*
G01*
%TO.C,D6*%
X201651000Y-22325600D02*
X201651000Y-25415600D01*
X207200999Y-23871062D02*
G75*
G03*
X201651001Y-22325770I-2989999J462D01*
G01*
X201651000Y-25415430D02*
G75*
G03*
X207201000Y-23870138I2560000J1544830D01*
G01*
X206711000Y-23870600D02*
G75*
G03*
X206711000Y-23870600I-2500000J0D01*
G01*
%TO.C,R18*%
X50750800Y-35380664D02*
X50750800Y-34926536D01*
X52220800Y-35380664D02*
X52220800Y-34926536D01*
%TO.C,D49*%
X55601000Y-22325600D02*
X55601000Y-25415600D01*
X61150999Y-23871062D02*
G75*
G03*
X55601001Y-22325770I-2989999J462D01*
G01*
X55601000Y-25415430D02*
G75*
G03*
X61151000Y-23870138I2560000J1544830D01*
G01*
X60661000Y-23870600D02*
G75*
G03*
X60661000Y-23870600I-2500000J0D01*
G01*
%TO.C,D23*%
X93701000Y-65505600D02*
X93701000Y-68595600D01*
X99250999Y-67051062D02*
G75*
G03*
X93701001Y-65505770I-2989999J462D01*
G01*
X93701000Y-68595430D02*
G75*
G03*
X99251000Y-67050138I2560000J1544830D01*
G01*
X98761000Y-67050600D02*
G75*
G03*
X98761000Y-67050600I-2500000J0D01*
G01*
%TO.C,SW3*%
X46096800Y-81707600D02*
X52556800Y-81707600D01*
X46096800Y-81737600D02*
X46096800Y-81707600D01*
X46096800Y-83637600D02*
X46096800Y-86237600D01*
X46096800Y-88167600D02*
X46096800Y-88137600D01*
X46096800Y-88167600D02*
X52556800Y-88167600D01*
X52556800Y-81707600D02*
X52556800Y-81737600D01*
X52556800Y-83637600D02*
X52556800Y-86237600D01*
X52556800Y-88167600D02*
X52556800Y-88137600D01*
%TO.C,R20*%
X52884041Y-46049200D02*
X52576759Y-46049200D01*
X52884041Y-45289200D02*
X52576759Y-45289200D01*
%TO.C,D28*%
X179806000Y-92470600D02*
X182896000Y-92470600D01*
X181351462Y-86920601D02*
G75*
G03*
X179806170Y-92470599I-462J-2989999D01*
G01*
X182895830Y-92470600D02*
G75*
G03*
X181350538Y-86920600I-1544830J2560000D01*
G01*
X183851000Y-89910600D02*
G75*
G03*
X183851000Y-89910600I-2500000J0D01*
G01*
%TO.C,D54*%
X64236000Y-55640600D02*
X67326000Y-55640600D01*
X65781462Y-50090601D02*
G75*
G03*
X64236170Y-55640599I-462J-2989999D01*
G01*
X67325830Y-55640600D02*
G75*
G03*
X65780538Y-50090600I-1544830J2560000D01*
G01*
X68281000Y-53080600D02*
G75*
G03*
X68281000Y-53080600I-2500000J0D01*
G01*
%TO.C,R2*%
X40156400Y-41555159D02*
X40156400Y-41862441D01*
X39396400Y-41555159D02*
X39396400Y-41862441D01*
%TO.C,D82*%
X243306000Y-92470600D02*
X246396000Y-92470600D01*
X244851462Y-86920601D02*
G75*
G03*
X243306170Y-92470599I-462J-2989999D01*
G01*
X246395830Y-92470600D02*
G75*
G03*
X244850538Y-86920600I-1544830J2560000D01*
G01*
X247351000Y-89910600D02*
G75*
G03*
X247351000Y-89910600I-2500000J0D01*
G01*
%TO.C,D53*%
X195046000Y-55640600D02*
X198136000Y-55640600D01*
X196591462Y-50090601D02*
G75*
G03*
X195046170Y-55640599I-462J-2989999D01*
G01*
X198135830Y-55640600D02*
G75*
G03*
X196590538Y-50090600I-1544830J2560000D01*
G01*
X199091000Y-53080600D02*
G75*
G03*
X199091000Y-53080600I-2500000J0D01*
G01*
%TO.C,D11*%
X71856000Y-18810600D02*
X74946000Y-18810600D01*
X73401462Y-13260601D02*
G75*
G03*
X71856170Y-18810599I-462J-2989999D01*
G01*
X74945830Y-18810600D02*
G75*
G03*
X73400538Y-13260600I-1544830J2560000D01*
G01*
X75901000Y-16250600D02*
G75*
G03*
X75901000Y-16250600I-2500000J0D01*
G01*
%TO.C,D22*%
X93701000Y-57885600D02*
X93701000Y-60975600D01*
X99250999Y-59431062D02*
G75*
G03*
X93701001Y-57885770I-2989999J462D01*
G01*
X93701000Y-60975430D02*
G75*
G03*
X99251000Y-59430138I2560000J1544830D01*
G01*
X98761000Y-59430600D02*
G75*
G03*
X98761000Y-59430600I-2500000J0D01*
G01*
%TO.C,Q3*%
X47388000Y-43482800D02*
X47388000Y-42082800D01*
X45068000Y-42082800D02*
X45068000Y-43982800D01*
%TO.C,D64*%
X127736000Y-18810600D02*
X130826000Y-18810600D01*
X129281462Y-13260601D02*
G75*
G03*
X127736170Y-18810599I-462J-2989999D01*
G01*
X130825830Y-18810600D02*
G75*
G03*
X129280538Y-13260600I-1544830J2560000D01*
G01*
X131781000Y-16250600D02*
G75*
G03*
X131781000Y-16250600I-2500000J0D01*
G01*
%TO.C,SW5*%
X46096800Y-88311600D02*
X52556800Y-88311600D01*
X46096800Y-88341600D02*
X46096800Y-88311600D01*
X46096800Y-90241600D02*
X46096800Y-92841600D01*
X46096800Y-94771600D02*
X46096800Y-94741600D01*
X46096800Y-94771600D02*
X52556800Y-94771600D01*
X52556800Y-88311600D02*
X52556800Y-88341600D01*
X52556800Y-90241600D02*
X52556800Y-92841600D01*
X52556800Y-94771600D02*
X52556800Y-94741600D01*
%TO.C,D60*%
X235686000Y-18810600D02*
X238776000Y-18810600D01*
X237231462Y-13260601D02*
G75*
G03*
X235686170Y-18810599I-462J-2989999D01*
G01*
X238775830Y-18810600D02*
G75*
G03*
X237230538Y-13260600I-1544830J2560000D01*
G01*
X239731000Y-16250600D02*
G75*
G03*
X239731000Y-16250600I-2500000J0D01*
G01*
%TO.C,C5*%
X41406400Y-24841252D02*
X41406400Y-23418748D01*
X43226400Y-24841252D02*
X43226400Y-23418748D01*
%TO.C,D104*%
X103861000Y-29945600D02*
X103861000Y-33035600D01*
X109410999Y-31491062D02*
G75*
G03*
X103861001Y-29945770I-2989999J462D01*
G01*
X103861000Y-33035430D02*
G75*
G03*
X109411000Y-31490138I2560000J1544830D01*
G01*
X108921000Y-31490600D02*
G75*
G03*
X108921000Y-31490600I-2500000J0D01*
G01*
%TO.C,D52*%
X187426000Y-55640600D02*
X190516000Y-55640600D01*
X188971462Y-50090601D02*
G75*
G03*
X187426170Y-55640599I-462J-2989999D01*
G01*
X190515830Y-55640600D02*
G75*
G03*
X188970538Y-50090600I-1544830J2560000D01*
G01*
X191471000Y-53080600D02*
G75*
G03*
X191471000Y-53080600I-2500000J0D01*
G01*
%TO.C,D62*%
X112496000Y-18810600D02*
X115586000Y-18810600D01*
X114041462Y-13260601D02*
G75*
G03*
X112496170Y-18810599I-462J-2989999D01*
G01*
X115585830Y-18810600D02*
G75*
G03*
X114040538Y-13260600I-1544830J2560000D01*
G01*
X116541000Y-16250600D02*
G75*
G03*
X116541000Y-16250600I-2500000J0D01*
G01*
%TO.C,D46*%
X55601000Y-45185600D02*
X55601000Y-48275600D01*
X61150999Y-46731062D02*
G75*
G03*
X55601001Y-45185770I-2989999J462D01*
G01*
X55601000Y-48275430D02*
G75*
G03*
X61151000Y-46730138I2560000J1544830D01*
G01*
X60661000Y-46730600D02*
G75*
G03*
X60661000Y-46730600I-2500000J0D01*
G01*
%TO.C,D30*%
X87096000Y-92470600D02*
X90186000Y-92470600D01*
X88641462Y-86920601D02*
G75*
G03*
X87096170Y-92470599I-462J-2989999D01*
G01*
X90185830Y-92470600D02*
G75*
G03*
X88640538Y-86920600I-1544830J2560000D01*
G01*
X91141000Y-89910600D02*
G75*
G03*
X91141000Y-89910600I-2500000J0D01*
G01*
%TO.C,D91*%
X211811000Y-73125600D02*
X211811000Y-76215600D01*
X217360999Y-74671062D02*
G75*
G03*
X211811001Y-73125770I-2989999J462D01*
G01*
X211811000Y-76215430D02*
G75*
G03*
X217361000Y-74670138I2560000J1544830D01*
G01*
X216871000Y-74670600D02*
G75*
G03*
X216871000Y-74670600I-2500000J0D01*
G01*
%TO.C,SW4*%
X46147600Y-13635600D02*
X52607600Y-13635600D01*
X46147600Y-13665600D02*
X46147600Y-13635600D01*
X46147600Y-15565600D02*
X46147600Y-18165600D01*
X46147600Y-20095600D02*
X46147600Y-20065600D01*
X46147600Y-20095600D02*
X52607600Y-20095600D01*
X52607600Y-13635600D02*
X52607600Y-13665600D01*
X52607600Y-15565600D02*
X52607600Y-18165600D01*
X52607600Y-20095600D02*
X52607600Y-20065600D01*
%TO.C,D97*%
X103861000Y-57885600D02*
X103861000Y-60975600D01*
X109410999Y-59431062D02*
G75*
G03*
X103861001Y-57885770I-2989999J462D01*
G01*
X103861000Y-60975430D02*
G75*
G03*
X109411000Y-59430138I2560000J1544830D01*
G01*
X108921000Y-59430600D02*
G75*
G03*
X108921000Y-59430600I-2500000J0D01*
G01*
%TO.C,SW2*%
X52560000Y-81563600D02*
X46100000Y-81563600D01*
X52560000Y-81533600D02*
X52560000Y-81563600D01*
X52560000Y-79633600D02*
X52560000Y-77033600D01*
X52560000Y-75103600D02*
X52560000Y-75133600D01*
X52560000Y-75103600D02*
X46100000Y-75103600D01*
X46100000Y-81563600D02*
X46100000Y-81533600D01*
X46100000Y-79633600D02*
X46100000Y-77033600D01*
X46100000Y-75103600D02*
X46100000Y-75133600D01*
%TO.C,D41*%
X55601000Y-57885600D02*
X55601000Y-60975600D01*
X61150999Y-59431062D02*
G75*
G03*
X55601001Y-57885770I-2989999J462D01*
G01*
X55601000Y-60975430D02*
G75*
G03*
X61151000Y-59430138I2560000J1544830D01*
G01*
X60661000Y-59430600D02*
G75*
G03*
X60661000Y-59430600I-2500000J0D01*
G01*
%TO.C,R15*%
X48593636Y-35587000D02*
X49047764Y-35587000D01*
X48593636Y-37057000D02*
X49047764Y-37057000D01*
%TO.C,Q5*%
X53103000Y-43482800D02*
X53103000Y-42082800D01*
X50783000Y-42082800D02*
X50783000Y-43982800D01*
%TO.C,D84*%
X228066000Y-92470600D02*
X231156000Y-92470600D01*
X229611462Y-86920601D02*
G75*
G03*
X228066170Y-92470599I-462J-2989999D01*
G01*
X231155830Y-92470600D02*
G75*
G03*
X229610538Y-86920600I-1544830J2560000D01*
G01*
X232111000Y-89910600D02*
G75*
G03*
X232111000Y-89910600I-2500000J0D01*
G01*
%TO.C,D20*%
X201651000Y-73125600D02*
X201651000Y-76215600D01*
X207200999Y-74671062D02*
G75*
G03*
X201651001Y-73125770I-2989999J462D01*
G01*
X201651000Y-76215430D02*
G75*
G03*
X207201000Y-74670138I2560000J1544830D01*
G01*
X206711000Y-74670600D02*
G75*
G03*
X206711000Y-74670600I-2500000J0D01*
G01*
D11*
%TO.C,U1*%
X38858800Y-67826800D02*
X38108800Y-67826800D01*
D15*
%TO.C,R14*%
X50695159Y-45289200D02*
X51002441Y-45289200D01*
X50695159Y-46049200D02*
X51002441Y-46049200D01*
%TO.C,D75*%
X249911000Y-65505600D02*
X249911000Y-68595600D01*
X255460999Y-67051062D02*
G75*
G03*
X249911001Y-65505770I-2989999J462D01*
G01*
X249911000Y-68595430D02*
G75*
G03*
X255461000Y-67050138I2560000J1544830D01*
G01*
X254971000Y-67050600D02*
G75*
G03*
X254971000Y-67050600I-2500000J0D01*
G01*
%TO.C,R6*%
X35891200Y-66955641D02*
X35891200Y-66648359D01*
X36651200Y-66955641D02*
X36651200Y-66648359D01*
%TO.C,D27*%
X187426000Y-92470600D02*
X190516000Y-92470600D01*
X188971462Y-86920601D02*
G75*
G03*
X187426170Y-92470599I-462J-2989999D01*
G01*
X190515830Y-92470600D02*
G75*
G03*
X188970538Y-86920600I-1544830J2560000D01*
G01*
X191471000Y-89910600D02*
G75*
G03*
X191471000Y-89910600I-2500000J0D01*
G01*
%TO.C,D68*%
X249911000Y-37565600D02*
X249911000Y-40655600D01*
X255460999Y-39111062D02*
G75*
G03*
X249911001Y-37565770I-2989999J462D01*
G01*
X249911000Y-40655430D02*
G75*
G03*
X255461000Y-39110138I2560000J1544830D01*
G01*
X254971000Y-39110600D02*
G75*
G03*
X254971000Y-39110600I-2500000J0D01*
G01*
%TO.C,D71*%
X141961000Y-29945600D02*
X141961000Y-33035600D01*
X147510999Y-31491062D02*
G75*
G03*
X141961001Y-29945770I-2989999J462D01*
G01*
X141961000Y-33035430D02*
G75*
G03*
X147511000Y-31490138I2560000J1544830D01*
G01*
X147021000Y-31490600D02*
G75*
G03*
X147021000Y-31490600I-2500000J0D01*
G01*
%TO.C,R11*%
X45367641Y-46049200D02*
X45060359Y-46049200D01*
X45367641Y-45289200D02*
X45060359Y-45289200D01*
%TO.C,D40*%
X55601000Y-65505600D02*
X55601000Y-68595600D01*
X61150999Y-67051062D02*
G75*
G03*
X55601001Y-65505770I-2989999J462D01*
G01*
X55601000Y-68595430D02*
G75*
G03*
X61151000Y-67050138I2560000J1544830D01*
G01*
X60661000Y-67050600D02*
G75*
G03*
X60661000Y-67050600I-2500000J0D01*
G01*
%TO.C,D57*%
X87096000Y-55640600D02*
X90186000Y-55640600D01*
X88641462Y-50090601D02*
G75*
G03*
X87096170Y-55640599I-462J-2989999D01*
G01*
X90185830Y-55640600D02*
G75*
G03*
X88640538Y-50090600I-1544830J2560000D01*
G01*
X91141000Y-53080600D02*
G75*
G03*
X91141000Y-53080600I-2500000J0D01*
G01*
%TO.C,D69*%
X249911000Y-45185600D02*
X249911000Y-48275600D01*
X255460999Y-46731062D02*
G75*
G03*
X249911001Y-45185770I-2989999J462D01*
G01*
X249911000Y-48275430D02*
G75*
G03*
X255461000Y-46730138I2560000J1544830D01*
G01*
X254971000Y-46730600D02*
G75*
G03*
X254971000Y-46730600I-2500000J0D01*
G01*
%TO.C,D65*%
X135356000Y-18810600D02*
X138446000Y-18810600D01*
X136901462Y-13260601D02*
G75*
G03*
X135356170Y-18810599I-462J-2989999D01*
G01*
X138445830Y-18810600D02*
G75*
G03*
X136900538Y-13260600I-1544830J2560000D01*
G01*
X139401000Y-16250600D02*
G75*
G03*
X139401000Y-16250600I-2500000J0D01*
G01*
%TO.C,R17*%
X54176600Y-34928436D02*
X54176600Y-35382564D01*
X52706600Y-34928436D02*
X52706600Y-35382564D01*
%TO.C,C3*%
X35504800Y-67500848D02*
X35504800Y-68923352D01*
X33684800Y-67500848D02*
X33684800Y-68923352D01*
%TO.C,D110*%
X112496000Y-55640600D02*
X115586000Y-55640600D01*
X114041462Y-50090601D02*
G75*
G03*
X112496170Y-55640599I-462J-2989999D01*
G01*
X115585830Y-55640600D02*
G75*
G03*
X114040538Y-50090600I-1544830J2560000D01*
G01*
X116541000Y-53080600D02*
G75*
G03*
X116541000Y-53080600I-2500000J0D01*
G01*
%TO.C,D70*%
X141961000Y-22325600D02*
X141961000Y-25415600D01*
X147510999Y-23871062D02*
G75*
G03*
X141961001Y-22325770I-2989999J462D01*
G01*
X141961000Y-25415430D02*
G75*
G03*
X147511000Y-23870138I2560000J1544830D01*
G01*
X147021000Y-23870600D02*
G75*
G03*
X147021000Y-23870600I-2500000J0D01*
G01*
%TO.C,D74*%
X249911000Y-57885600D02*
X249911000Y-60975600D01*
X255460999Y-59431062D02*
G75*
G03*
X249911001Y-57885770I-2989999J462D01*
G01*
X249911000Y-60975430D02*
G75*
G03*
X255461000Y-59430138I2560000J1544830D01*
G01*
X254971000Y-59430600D02*
G75*
G03*
X254971000Y-59430600I-2500000J0D01*
G01*
%TO.C,R9*%
X46406800Y-66854041D02*
X46406800Y-66546759D01*
X47166800Y-66854041D02*
X47166800Y-66546759D01*
%TO.C,D90*%
X211811000Y-80745600D02*
X211811000Y-83835600D01*
X217360999Y-82291062D02*
G75*
G03*
X211811001Y-80745770I-2989999J462D01*
G01*
X211811000Y-83835430D02*
G75*
G03*
X217361000Y-82290138I2560000J1544830D01*
G01*
X216871000Y-82290600D02*
G75*
G03*
X216871000Y-82290600I-2500000J0D01*
G01*
%TO.C,D10*%
X64236000Y-18810600D02*
X67326000Y-18810600D01*
X65781462Y-13260601D02*
G75*
G03*
X64236170Y-18810599I-462J-2989999D01*
G01*
X67325830Y-18810600D02*
G75*
G03*
X65780538Y-13260600I-1544830J2560000D01*
G01*
X68281000Y-16250600D02*
G75*
G03*
X68281000Y-16250600I-2500000J0D01*
G01*
%TO.C,D5*%
X195046000Y-18810600D02*
X198136000Y-18810600D01*
X196591462Y-13260601D02*
G75*
G03*
X195046170Y-18810599I-462J-2989999D01*
G01*
X198135830Y-18810600D02*
G75*
G03*
X196590538Y-13260600I-1544830J2560000D01*
G01*
X199091000Y-16250600D02*
G75*
G03*
X199091000Y-16250600I-2500000J0D01*
G01*
%TO.C,D89*%
X112496000Y-92470600D02*
X115586000Y-92470600D01*
X114041462Y-86920601D02*
G75*
G03*
X112496170Y-92470599I-462J-2989999D01*
G01*
X115585830Y-92470600D02*
G75*
G03*
X114040538Y-86920600I-1544830J2560000D01*
G01*
X116541000Y-89910600D02*
G75*
G03*
X116541000Y-89910600I-2500000J0D01*
G01*
%TO.C,D29*%
X172186000Y-92470600D02*
X175276000Y-92470600D01*
X173731462Y-86920601D02*
G75*
G03*
X172186170Y-92470599I-462J-2989999D01*
G01*
X175275830Y-92470600D02*
G75*
G03*
X173730538Y-86920600I-1544830J2560000D01*
G01*
X176231000Y-89910600D02*
G75*
G03*
X176231000Y-89910600I-2500000J0D01*
G01*
%TO.C,D58*%
X220446000Y-18810600D02*
X223536000Y-18810600D01*
X221991462Y-13260601D02*
G75*
G03*
X220446170Y-18810599I-462J-2989999D01*
G01*
X223535830Y-18810600D02*
G75*
G03*
X221990538Y-13260600I-1544830J2560000D01*
G01*
X224491000Y-16250600D02*
G75*
G03*
X224491000Y-16250600I-2500000J0D01*
G01*
%TO.C,SW1*%
X46109400Y-68514400D02*
X52569400Y-68514400D01*
X46109400Y-68544400D02*
X46109400Y-68514400D01*
X46109400Y-70444400D02*
X46109400Y-73044400D01*
X46109400Y-74974400D02*
X46109400Y-74944400D01*
X46109400Y-74974400D02*
X52569400Y-74974400D01*
X52569400Y-68514400D02*
X52569400Y-68544400D01*
X52569400Y-70444400D02*
X52569400Y-73044400D01*
X52569400Y-74974400D02*
X52569400Y-74944400D01*
%TO.C,R4*%
X37080759Y-45289200D02*
X37388041Y-45289200D01*
X37080759Y-46049200D02*
X37388041Y-46049200D01*
%TO.C,D66*%
X249911000Y-22325600D02*
X249911000Y-25415600D01*
X255460999Y-23871062D02*
G75*
G03*
X249911001Y-22325770I-2989999J462D01*
G01*
X249911000Y-25415430D02*
G75*
G03*
X255461000Y-23870138I2560000J1544830D01*
G01*
X254971000Y-23870600D02*
G75*
G03*
X254971000Y-23870600I-2500000J0D01*
G01*
%TO.C,D25*%
X93701000Y-80745600D02*
X93701000Y-83835600D01*
X99250999Y-82291062D02*
G75*
G03*
X93701001Y-80745770I-2989999J462D01*
G01*
X93701000Y-83835430D02*
G75*
G03*
X99251000Y-82290138I2560000J1544830D01*
G01*
X98761000Y-82290600D02*
G75*
G03*
X98761000Y-82290600I-2500000J0D01*
G01*
%TO.C,D21*%
X201651000Y-80745600D02*
X201651000Y-83835600D01*
X207200999Y-82291062D02*
G75*
G03*
X201651001Y-80745770I-2989999J462D01*
G01*
X201651000Y-83835430D02*
G75*
G03*
X207201000Y-82290138I2560000J1544830D01*
G01*
X206711000Y-82290600D02*
G75*
G03*
X206711000Y-82290600I-2500000J0D01*
G01*
%TO.C,J1*%
X45933200Y-38982000D02*
X45933200Y-37732000D01*
X45633200Y-38682000D02*
X45633200Y-33962000D01*
X45633200Y-37372000D02*
X45023200Y-37372000D01*
X45633200Y-36072000D02*
X45023200Y-36072000D01*
X45633200Y-33962000D02*
X33513200Y-33962000D01*
X45023200Y-38072000D02*
X45023200Y-34572000D01*
X45023200Y-34572000D02*
X34123200Y-34572000D01*
X44683200Y-38982000D02*
X45933200Y-38982000D01*
X44173200Y-38882000D02*
X44173200Y-38682000D01*
X43873200Y-38882000D02*
X44173200Y-38882000D01*
X43873200Y-38782000D02*
X44173200Y-38782000D01*
X43873200Y-38682000D02*
X43873200Y-38882000D01*
X43073200Y-38682000D02*
X43073200Y-38072000D01*
X43073200Y-38072000D02*
X45023200Y-38072000D01*
X42673200Y-35072000D02*
X42473200Y-35072000D01*
X42673200Y-34572000D02*
X42673200Y-35072000D01*
X42573200Y-34572000D02*
X42573200Y-35072000D01*
X42473200Y-35072000D02*
X42473200Y-34572000D01*
X40673200Y-35072000D02*
X40473200Y-35072000D01*
X40673200Y-34572000D02*
X40673200Y-35072000D01*
X40573200Y-34572000D02*
X40573200Y-35072000D01*
X40473200Y-35072000D02*
X40473200Y-34572000D01*
X38673200Y-35072000D02*
X38473200Y-35072000D01*
X38673200Y-34572000D02*
X38673200Y-35072000D01*
X38573200Y-34572000D02*
X38573200Y-35072000D01*
X38473200Y-35072000D02*
X38473200Y-34572000D01*
X36673200Y-35072000D02*
X36473200Y-35072000D01*
X36673200Y-34572000D02*
X36673200Y-35072000D01*
X36573200Y-34572000D02*
X36573200Y-35072000D01*
X36473200Y-35072000D02*
X36473200Y-34572000D01*
X36073200Y-38072000D02*
X36073200Y-38682000D01*
X34123200Y-38072000D02*
X36073200Y-38072000D01*
X34123200Y-34572000D02*
X34123200Y-38072000D01*
X33513200Y-38682000D02*
X45633200Y-38682000D01*
X33513200Y-37372000D02*
X34123200Y-37372000D01*
X33513200Y-36072000D02*
X34123200Y-36072000D01*
X33513200Y-33962000D02*
X33513200Y-38682000D01*
%TO.C,D38*%
X55601000Y-80745600D02*
X55601000Y-83835600D01*
X61150999Y-82291062D02*
G75*
G03*
X55601001Y-80745770I-2989999J462D01*
G01*
X55601000Y-83835430D02*
G75*
G03*
X61151000Y-82290138I2560000J1544830D01*
G01*
X60661000Y-82290600D02*
G75*
G03*
X60661000Y-82290600I-2500000J0D01*
G01*
%TO.C,TH1*%
X42230664Y-29154800D02*
X40776536Y-29154800D01*
X42230664Y-27334800D02*
X40776536Y-27334800D01*
%TO.C,D55*%
X71856000Y-55640600D02*
X74946000Y-55640600D01*
X73401462Y-50090601D02*
G75*
G03*
X71856170Y-55640599I-462J-2989999D01*
G01*
X74945830Y-55640600D02*
G75*
G03*
X73400538Y-50090600I-1544830J2560000D01*
G01*
X75901000Y-53080600D02*
G75*
G03*
X75901000Y-53080600I-2500000J0D01*
G01*
%TO.C,D81*%
X141961000Y-80745600D02*
X141961000Y-83835600D01*
X147510999Y-82291062D02*
G75*
G03*
X141961001Y-80745770I-2989999J462D01*
G01*
X141961000Y-83835430D02*
G75*
G03*
X147511000Y-82290138I2560000J1544830D01*
G01*
X147021000Y-82290600D02*
G75*
G03*
X147021000Y-82290600I-2500000J0D01*
G01*
%TO.C,D48*%
X55601000Y-29945600D02*
X55601000Y-33035600D01*
X61150999Y-31491062D02*
G75*
G03*
X55601001Y-29945770I-2989999J462D01*
G01*
X55601000Y-33035430D02*
G75*
G03*
X61151000Y-31490138I2560000J1544830D01*
G01*
X60661000Y-31490600D02*
G75*
G03*
X60661000Y-31490600I-2500000J0D01*
G01*
%TO.C,D35*%
X163551000Y-73125600D02*
X163551000Y-76215600D01*
X169100999Y-74671062D02*
G75*
G03*
X163551001Y-73125770I-2989999J462D01*
G01*
X163551000Y-76215430D02*
G75*
G03*
X169101000Y-74670138I2560000J1544830D01*
G01*
X168611000Y-74670600D02*
G75*
G03*
X168611000Y-74670600I-2500000J0D01*
G01*
%TO.C,D103*%
X103861000Y-37565600D02*
X103861000Y-40655600D01*
X109410999Y-39111062D02*
G75*
G03*
X103861001Y-37565770I-2989999J462D01*
G01*
X103861000Y-40655430D02*
G75*
G03*
X109411000Y-39110138I2560000J1544830D01*
G01*
X108921000Y-39110600D02*
G75*
G03*
X108921000Y-39110600I-2500000J0D01*
G01*
%TO.C,R12*%
X49122841Y-46049200D02*
X48815559Y-46049200D01*
X49122841Y-45289200D02*
X48815559Y-45289200D01*
%TO.C,D36*%
X163551000Y-65505600D02*
X163551000Y-68595600D01*
X169100999Y-67051062D02*
G75*
G03*
X163551001Y-65505770I-2989999J462D01*
G01*
X163551000Y-68595430D02*
G75*
G03*
X169101000Y-67050138I2560000J1544830D01*
G01*
X168611000Y-67050600D02*
G75*
G03*
X168611000Y-67050600I-2500000J0D01*
G01*
%TO.C,D113*%
X135356000Y-55640600D02*
X138446000Y-55640600D01*
X136901462Y-50090601D02*
G75*
G03*
X135356170Y-55640599I-462J-2989999D01*
G01*
X138445830Y-55640600D02*
G75*
G03*
X136900538Y-50090600I-1544830J2560000D01*
G01*
X139401000Y-53080600D02*
G75*
G03*
X139401000Y-53080600I-2500000J0D01*
G01*
%TO.C,D72*%
X141961000Y-37565600D02*
X141961000Y-40655600D01*
X147510999Y-39111062D02*
G75*
G03*
X141961001Y-37565770I-2989999J462D01*
G01*
X141961000Y-40655430D02*
G75*
G03*
X147511000Y-39110138I2560000J1544830D01*
G01*
X147021000Y-39110600D02*
G75*
G03*
X147021000Y-39110600I-2500000J0D01*
G01*
%TO.C,D50*%
X172186000Y-55640600D02*
X175276000Y-55640600D01*
X173731462Y-50090601D02*
G75*
G03*
X172186170Y-55640599I-462J-2989999D01*
G01*
X175275830Y-55640600D02*
G75*
G03*
X173730538Y-50090600I-1544830J2560000D01*
G01*
X176231000Y-53080600D02*
G75*
G03*
X176231000Y-53080600I-2500000J0D01*
G01*
%TO.C,D18*%
X201651000Y-57885600D02*
X201651000Y-60975600D01*
X207200999Y-59431062D02*
G75*
G03*
X201651001Y-57885770I-2989999J462D01*
G01*
X201651000Y-60975430D02*
G75*
G03*
X207201000Y-59430138I2560000J1544830D01*
G01*
X206711000Y-59430600D02*
G75*
G03*
X206711000Y-59430600I-2500000J0D01*
G01*
%TO.C,D107*%
X228066000Y-55640600D02*
X231156000Y-55640600D01*
X229611462Y-50090601D02*
G75*
G03*
X228066170Y-55640599I-462J-2989999D01*
G01*
X231155830Y-55640600D02*
G75*
G03*
X229610538Y-50090600I-1544830J2560000D01*
G01*
X232111000Y-53080600D02*
G75*
G03*
X232111000Y-53080600I-2500000J0D01*
G01*
%TO.C,D33*%
X64236000Y-92470600D02*
X67326000Y-92470600D01*
X65781462Y-86920601D02*
G75*
G03*
X64236170Y-92470599I-462J-2989999D01*
G01*
X67325830Y-92470600D02*
G75*
G03*
X65780538Y-86920600I-1544830J2560000D01*
G01*
X68281000Y-89910600D02*
G75*
G03*
X68281000Y-89910600I-2500000J0D01*
G01*
%TO.C,D101*%
X211811000Y-22325600D02*
X211811000Y-25415600D01*
X217360999Y-23871062D02*
G75*
G03*
X211811001Y-22325770I-2989999J462D01*
G01*
X211811000Y-25415430D02*
G75*
G03*
X217361000Y-23870138I2560000J1544830D01*
G01*
X216871000Y-23870600D02*
G75*
G03*
X216871000Y-23870600I-2500000J0D01*
G01*
%TO.C,R13*%
X47243241Y-46049200D02*
X46935959Y-46049200D01*
X47243241Y-45289200D02*
X46935959Y-45289200D01*
%TO.C,D56*%
X79476000Y-55640600D02*
X82566000Y-55640600D01*
X81021462Y-50090601D02*
G75*
G03*
X79476170Y-55640599I-462J-2989999D01*
G01*
X82565830Y-55640600D02*
G75*
G03*
X81020538Y-50090600I-1544830J2560000D01*
G01*
X83521000Y-53080600D02*
G75*
G03*
X83521000Y-53080600I-2500000J0D01*
G01*
%TO.C,R1*%
X34390359Y-45289200D02*
X34697641Y-45289200D01*
X34390359Y-46049200D02*
X34697641Y-46049200D01*
%TO.C,R23*%
X50750800Y-38786164D02*
X50750800Y-38332036D01*
X52220800Y-38786164D02*
X52220800Y-38332036D01*
%TO.C,D45*%
X163551000Y-22325600D02*
X163551000Y-25415600D01*
X169100999Y-23871062D02*
G75*
G03*
X163551001Y-22325770I-2989999J462D01*
G01*
X163551000Y-25415430D02*
G75*
G03*
X169101000Y-23870138I2560000J1544830D01*
G01*
X168611000Y-23870600D02*
G75*
G03*
X168611000Y-23870600I-2500000J0D01*
G01*
%TO.C,D16*%
X93701000Y-37565600D02*
X93701000Y-40655600D01*
X99250999Y-39111062D02*
G75*
G03*
X93701001Y-37565770I-2989999J462D01*
G01*
X93701000Y-40655430D02*
G75*
G03*
X99251000Y-39110138I2560000J1544830D01*
G01*
X98761000Y-39110600D02*
G75*
G03*
X98761000Y-39110600I-2500000J0D01*
G01*
%TO.C,D100*%
X211811000Y-29945600D02*
X211811000Y-33035600D01*
X217360999Y-31491062D02*
G75*
G03*
X211811001Y-29945770I-2989999J462D01*
G01*
X211811000Y-33035430D02*
G75*
G03*
X217361000Y-31490138I2560000J1544830D01*
G01*
X216871000Y-31490600D02*
G75*
G03*
X216871000Y-31490600I-2500000J0D01*
G01*
%TO.C,D109*%
X243306000Y-55640600D02*
X246396000Y-55640600D01*
X244851462Y-50090601D02*
G75*
G03*
X243306170Y-55640599I-462J-2989999D01*
G01*
X246395830Y-55640600D02*
G75*
G03*
X244850538Y-50090600I-1544830J2560000D01*
G01*
X247351000Y-53080600D02*
G75*
G03*
X247351000Y-53080600I-2500000J0D01*
G01*
%TO.C,D67*%
X249911000Y-29945600D02*
X249911000Y-33035600D01*
X255460999Y-31491062D02*
G75*
G03*
X249911001Y-29945770I-2989999J462D01*
G01*
X249911000Y-33035430D02*
G75*
G03*
X255461000Y-31490138I2560000J1544830D01*
G01*
X254971000Y-31490600D02*
G75*
G03*
X254971000Y-31490600I-2500000J0D01*
G01*
%TO.C,Q2*%
X37539200Y-42593800D02*
X36139200Y-42593800D01*
X36139200Y-44913800D02*
X38039200Y-44913800D01*
%TO.C,D59*%
X228066000Y-18810600D02*
X231156000Y-18810600D01*
X229611462Y-13260601D02*
G75*
G03*
X228066170Y-18810599I-462J-2989999D01*
G01*
X231155830Y-18810600D02*
G75*
G03*
X229610538Y-13260600I-1544830J2560000D01*
G01*
X232111000Y-16250600D02*
G75*
G03*
X232111000Y-16250600I-2500000J0D01*
G01*
%TO.C,D1*%
X50278500Y-67943400D02*
X50278500Y-66473400D01*
X50278500Y-66473400D02*
X47993500Y-66473400D01*
X47993500Y-67943400D02*
X50278500Y-67943400D01*
%TO.C,D111*%
X120116000Y-55640600D02*
X123206000Y-55640600D01*
X121661462Y-50090601D02*
G75*
G03*
X120116170Y-55640599I-462J-2989999D01*
G01*
X123205830Y-55640600D02*
G75*
G03*
X121660538Y-50090600I-1544830J2560000D01*
G01*
X124161000Y-53080600D02*
G75*
G03*
X124161000Y-53080600I-2500000J0D01*
G01*
%TO.C,D24*%
X93701000Y-73125600D02*
X93701000Y-76215600D01*
X99250999Y-74671062D02*
G75*
G03*
X93701001Y-73125770I-2989999J462D01*
G01*
X93701000Y-76215430D02*
G75*
G03*
X99251000Y-74670138I2560000J1544830D01*
G01*
X98761000Y-74670600D02*
G75*
G03*
X98761000Y-74670600I-2500000J0D01*
G01*
%TO.C,D34*%
X163551000Y-80745600D02*
X163551000Y-83835600D01*
X169100999Y-82291062D02*
G75*
G03*
X163551001Y-80745770I-2989999J462D01*
G01*
X163551000Y-83835430D02*
G75*
G03*
X169101000Y-82290138I2560000J1544830D01*
G01*
X168611000Y-82290600D02*
G75*
G03*
X168611000Y-82290600I-2500000J0D01*
G01*
%TO.C,D93*%
X211811000Y-57885600D02*
X211811000Y-60975600D01*
X217360999Y-59431062D02*
G75*
G03*
X211811001Y-57885770I-2989999J462D01*
G01*
X211811000Y-60975430D02*
G75*
G03*
X217361000Y-59430138I2560000J1544830D01*
G01*
X216871000Y-59430600D02*
G75*
G03*
X216871000Y-59430600I-2500000J0D01*
G01*
%TO.C,R10*%
X38124400Y-66646359D02*
X38124400Y-66953641D01*
X37364400Y-66646359D02*
X37364400Y-66953641D01*
%TO.C,C1*%
X50101048Y-29265200D02*
X51523552Y-29265200D01*
X50101048Y-31085200D02*
X51523552Y-31085200D01*
%TO.C,D8*%
X201651000Y-37565600D02*
X201651000Y-40655600D01*
X207200999Y-39111062D02*
G75*
G03*
X201651001Y-37565770I-2989999J462D01*
G01*
X201651000Y-40655430D02*
G75*
G03*
X207201000Y-39110138I2560000J1544830D01*
G01*
X206711000Y-39110600D02*
G75*
G03*
X206711000Y-39110600I-2500000J0D01*
G01*
%TO.C,J2*%
X30897600Y-21661600D02*
X32597600Y-21661600D01*
X30897600Y-31001600D02*
X32597600Y-31001600D01*
%TO.C,D83*%
X235686000Y-92470600D02*
X238776000Y-92470600D01*
X237231462Y-86920601D02*
G75*
G03*
X235686170Y-92470599I-462J-2989999D01*
G01*
X238775830Y-92470600D02*
G75*
G03*
X237230538Y-86920600I-1544830J2560000D01*
G01*
X239731000Y-89910600D02*
G75*
G03*
X239731000Y-89910600I-2500000J0D01*
G01*
%TO.C,D80*%
X141961000Y-73125600D02*
X141961000Y-76215600D01*
X147510999Y-74671062D02*
G75*
G03*
X141961001Y-73125770I-2989999J462D01*
G01*
X141961000Y-76215430D02*
G75*
G03*
X147511000Y-74670138I2560000J1544830D01*
G01*
X147021000Y-74670600D02*
G75*
G03*
X147021000Y-74670600I-2500000J0D01*
G01*
%TO.C,Q1*%
X36164600Y-42064400D02*
X37564600Y-42064400D01*
X37564600Y-39744400D02*
X35664600Y-39744400D01*
%TO.C,D31*%
X79476000Y-92470600D02*
X82566000Y-92470600D01*
X81021462Y-86920601D02*
G75*
G03*
X79476170Y-92470599I-462J-2989999D01*
G01*
X82565830Y-92470600D02*
G75*
G03*
X81020538Y-86920600I-1544830J2560000D01*
G01*
X83521000Y-89910600D02*
G75*
G03*
X83521000Y-89910600I-2500000J0D01*
G01*
%TO.C,D96*%
X103861000Y-65505600D02*
X103861000Y-68595600D01*
X109410999Y-67051062D02*
G75*
G03*
X103861001Y-65505770I-2989999J462D01*
G01*
X103861000Y-68595430D02*
G75*
G03*
X109411000Y-67050138I2560000J1544830D01*
G01*
X108921000Y-67050600D02*
G75*
G03*
X108921000Y-67050600I-2500000J0D01*
G01*
%TO.C,R8*%
X34140841Y-33400000D02*
X33833559Y-33400000D01*
X34140841Y-32640000D02*
X33833559Y-32640000D01*
%TO.C,D17*%
X93701000Y-45185600D02*
X93701000Y-48275600D01*
X99250999Y-46731062D02*
G75*
G03*
X93701001Y-45185770I-2989999J462D01*
G01*
X93701000Y-48275430D02*
G75*
G03*
X99251000Y-46730138I2560000J1544830D01*
G01*
X98761000Y-46730600D02*
G75*
G03*
X98761000Y-46730600I-2500000J0D01*
G01*
%TO.C,D14*%
X93701000Y-22325600D02*
X93701000Y-25415600D01*
X99250999Y-23871062D02*
G75*
G03*
X93701001Y-22325770I-2989999J462D01*
G01*
X93701000Y-25415430D02*
G75*
G03*
X99251000Y-23870138I2560000J1544830D01*
G01*
X98761000Y-23870600D02*
G75*
G03*
X98761000Y-23870600I-2500000J0D01*
G01*
%TO.C,D61*%
X243306000Y-18810600D02*
X246396000Y-18810600D01*
X244851462Y-13260601D02*
G75*
G03*
X243306170Y-18810599I-462J-2989999D01*
G01*
X246395830Y-18810600D02*
G75*
G03*
X244850538Y-13260600I-1544830J2560000D01*
G01*
X247351000Y-16250600D02*
G75*
G03*
X247351000Y-16250600I-2500000J0D01*
G01*
%TO.C,D3*%
X179806000Y-18810600D02*
X182896000Y-18810600D01*
X181351462Y-13260601D02*
G75*
G03*
X179806170Y-18810599I-462J-2989999D01*
G01*
X182895830Y-18810600D02*
G75*
G03*
X181350538Y-13260600I-1544830J2560000D01*
G01*
X183851000Y-16250600D02*
G75*
G03*
X183851000Y-16250600I-2500000J0D01*
G01*
%TO.C,R24*%
X48593636Y-33656600D02*
X49047764Y-33656600D01*
X48593636Y-35126600D02*
X49047764Y-35126600D01*
%TO.C,D12*%
X79476000Y-18810600D02*
X82566000Y-18810600D01*
X81021462Y-13260601D02*
G75*
G03*
X79476170Y-18810599I-462J-2989999D01*
G01*
X82565830Y-18810600D02*
G75*
G03*
X81020538Y-13260600I-1544830J2560000D01*
G01*
X83521000Y-16250600D02*
G75*
G03*
X83521000Y-16250600I-2500000J0D01*
G01*
%TO.C,D102*%
X103861000Y-45185600D02*
X103861000Y-48275600D01*
X109410999Y-46731062D02*
G75*
G03*
X103861001Y-45185770I-2989999J462D01*
G01*
X103861000Y-48275430D02*
G75*
G03*
X109411000Y-46730138I2560000J1544830D01*
G01*
X108921000Y-46730600D02*
G75*
G03*
X108921000Y-46730600I-2500000J0D01*
G01*
%TO.C,C2*%
X42464400Y-15557048D02*
X42464400Y-16979552D01*
X40644400Y-15557048D02*
X40644400Y-16979552D01*
%TO.C,R7*%
X36424841Y-26237200D02*
X36117559Y-26237200D01*
X36424841Y-25477200D02*
X36117559Y-25477200D01*
%TO.C,D51*%
X179806000Y-55640600D02*
X182896000Y-55640600D01*
X181351462Y-50090601D02*
G75*
G03*
X179806170Y-55640599I-462J-2989999D01*
G01*
X182895830Y-55640600D02*
G75*
G03*
X181350538Y-50090600I-1544830J2560000D01*
G01*
X183851000Y-53080600D02*
G75*
G03*
X183851000Y-53080600I-2500000J0D01*
G01*
%TO.C,D87*%
X127736000Y-92470600D02*
X130826000Y-92470600D01*
X129281462Y-86920601D02*
G75*
G03*
X127736170Y-92470599I-462J-2989999D01*
G01*
X130825830Y-92470600D02*
G75*
G03*
X129280538Y-86920600I-1544830J2560000D01*
G01*
X131781000Y-89910600D02*
G75*
G03*
X131781000Y-89910600I-2500000J0D01*
G01*
%TO.C,D4*%
X187426000Y-18810600D02*
X190516000Y-18810600D01*
X188971462Y-13260601D02*
G75*
G03*
X187426170Y-18810599I-462J-2989999D01*
G01*
X190515830Y-18810600D02*
G75*
G03*
X188970538Y-13260600I-1544830J2560000D01*
G01*
X191471000Y-16250600D02*
G75*
G03*
X191471000Y-16250600I-2500000J0D01*
G01*
%TO.C,D77*%
X249911000Y-80745600D02*
X249911000Y-83835600D01*
X255460999Y-82291062D02*
G75*
G03*
X249911001Y-80745770I-2989999J462D01*
G01*
X249911000Y-83835430D02*
G75*
G03*
X255461000Y-82290138I2560000J1544830D01*
G01*
X254971000Y-82290600D02*
G75*
G03*
X254971000Y-82290600I-2500000J0D01*
G01*
%TO.C,D15*%
X93701000Y-29945600D02*
X93701000Y-33035600D01*
X99250999Y-31491062D02*
G75*
G03*
X93701001Y-29945770I-2989999J462D01*
G01*
X93701000Y-33035430D02*
G75*
G03*
X99251000Y-31490138I2560000J1544830D01*
G01*
X98761000Y-31490600D02*
G75*
G03*
X98761000Y-31490600I-2500000J0D01*
G01*
%TO.C,D79*%
X141961000Y-65505600D02*
X141961000Y-68595600D01*
X147510999Y-67051062D02*
G75*
G03*
X141961001Y-65505770I-2989999J462D01*
G01*
X141961000Y-68595430D02*
G75*
G03*
X147511000Y-67050138I2560000J1544830D01*
G01*
X147021000Y-67050600D02*
G75*
G03*
X147021000Y-67050600I-2500000J0D01*
G01*
%TO.C,R16*%
X48593636Y-37517400D02*
X49047764Y-37517400D01*
X48593636Y-38987400D02*
X49047764Y-38987400D01*
%TO.C,U2*%
X51924400Y-65050800D02*
X52704400Y-65050800D01*
X52704400Y-65050800D02*
X52704400Y-64050800D01*
X51924400Y-46810800D02*
X52704400Y-46810800D01*
X52704400Y-46810800D02*
X52704400Y-47810800D01*
%TO.C,D43*%
X163551000Y-37565600D02*
X163551000Y-40655600D01*
X169100999Y-39111062D02*
G75*
G03*
X163551001Y-37565770I-2989999J462D01*
G01*
X163551000Y-40655430D02*
G75*
G03*
X169101000Y-39110138I2560000J1544830D01*
G01*
X168611000Y-39110600D02*
G75*
G03*
X168611000Y-39110600I-2500000J0D01*
G01*
%TO.C,D98*%
X211811000Y-45185600D02*
X211811000Y-48275600D01*
X217360999Y-46731062D02*
G75*
G03*
X211811001Y-45185770I-2989999J462D01*
G01*
X211811000Y-48275430D02*
G75*
G03*
X217361000Y-46730138I2560000J1544830D01*
G01*
X216871000Y-46730600D02*
G75*
G03*
X216871000Y-46730600I-2500000J0D01*
G01*
%TO.C,U3*%
X44820400Y-21939200D02*
X50830400Y-21939200D01*
X47070400Y-28759200D02*
X50830400Y-28759200D01*
X50830400Y-21939200D02*
X50830400Y-23199200D01*
X50830400Y-28759200D02*
X50830400Y-27499200D01*
%TO.C,C4*%
X42405752Y-31898000D02*
X40983248Y-31898000D01*
X42405752Y-30078000D02*
X40983248Y-30078000D01*
%TO.C,D99*%
X211811000Y-37565600D02*
X211811000Y-40655600D01*
X217360999Y-39111062D02*
G75*
G03*
X211811001Y-37565770I-2989999J462D01*
G01*
X211811000Y-40655430D02*
G75*
G03*
X217361000Y-39110138I2560000J1544830D01*
G01*
X216871000Y-39110600D02*
G75*
G03*
X216871000Y-39110600I-2500000J0D01*
G01*
%TO.C,D95*%
X103861000Y-73125600D02*
X103861000Y-76215600D01*
X109410999Y-74671062D02*
G75*
G03*
X103861001Y-73125770I-2989999J462D01*
G01*
X103861000Y-76215430D02*
G75*
G03*
X109411000Y-74670138I2560000J1544830D01*
G01*
X108921000Y-74670600D02*
G75*
G03*
X108921000Y-74670600I-2500000J0D01*
G01*
%TO.C,D39*%
X55601000Y-73125600D02*
X55601000Y-76215600D01*
X61150999Y-74671062D02*
G75*
G03*
X55601001Y-73125770I-2989999J462D01*
G01*
X55601000Y-76215430D02*
G75*
G03*
X61151000Y-74670138I2560000J1544830D01*
G01*
X60661000Y-74670600D02*
G75*
G03*
X60661000Y-74670600I-2500000J0D01*
G01*
%TO.C,D86*%
X135356000Y-92470600D02*
X138446000Y-92470600D01*
X136901462Y-86920601D02*
G75*
G03*
X135356170Y-92470599I-462J-2989999D01*
G01*
X138445830Y-92470600D02*
G75*
G03*
X136900538Y-86920600I-1544830J2560000D01*
G01*
X139401000Y-89910600D02*
G75*
G03*
X139401000Y-89910600I-2500000J0D01*
G01*
%TO.C,D78*%
X141961000Y-57885600D02*
X141961000Y-60975600D01*
X147510999Y-59431062D02*
G75*
G03*
X141961001Y-57885770I-2989999J462D01*
G01*
X141961000Y-60975430D02*
G75*
G03*
X147511000Y-59430138I2560000J1544830D01*
G01*
X147021000Y-59430600D02*
G75*
G03*
X147021000Y-59430600I-2500000J0D01*
G01*
%TO.C,D9*%
X201651000Y-45185600D02*
X201651000Y-48275600D01*
X207200999Y-46731062D02*
G75*
G03*
X201651001Y-45185770I-2989999J462D01*
G01*
X201651000Y-48275430D02*
G75*
G03*
X207201000Y-46730138I2560000J1544830D01*
G01*
X206711000Y-46730600D02*
G75*
G03*
X206711000Y-46730600I-2500000J0D01*
G01*
%TO.C,D94*%
X103861000Y-80745600D02*
X103861000Y-83835600D01*
X109410999Y-82291062D02*
G75*
G03*
X103861001Y-80745770I-2989999J462D01*
G01*
X103861000Y-83835430D02*
G75*
G03*
X109411000Y-82290138I2560000J1544830D01*
G01*
X108921000Y-82290600D02*
G75*
G03*
X108921000Y-82290600I-2500000J0D01*
G01*
%TO.C,D42*%
X163551000Y-45185600D02*
X163551000Y-48275600D01*
X169100999Y-46731062D02*
G75*
G03*
X163551001Y-45185770I-2989999J462D01*
G01*
X163551000Y-48275430D02*
G75*
G03*
X169101000Y-46730138I2560000J1544830D01*
G01*
X168611000Y-46730600D02*
G75*
G03*
X168611000Y-46730600I-2500000J0D01*
G01*
%TO.C,D13*%
X87096000Y-18810600D02*
X90186000Y-18810600D01*
X88641462Y-13260601D02*
G75*
G03*
X87096170Y-18810599I-462J-2989999D01*
G01*
X90185830Y-18810600D02*
G75*
G03*
X88640538Y-13260600I-1544830J2560000D01*
G01*
X91141000Y-16250600D02*
G75*
G03*
X91141000Y-16250600I-2500000J0D01*
G01*
%TO.C,D26*%
X195046000Y-92470600D02*
X198136000Y-92470600D01*
X196591462Y-86920601D02*
G75*
G03*
X195046170Y-92470599I-462J-2989999D01*
G01*
X198135830Y-92470600D02*
G75*
G03*
X196590538Y-86920600I-1544830J2560000D01*
G01*
X199091000Y-89910600D02*
G75*
G03*
X199091000Y-89910600I-2500000J0D01*
G01*
%TO.C,R5*%
X36426841Y-27202400D02*
X36119559Y-27202400D01*
X36426841Y-26442400D02*
X36119559Y-26442400D01*
%TO.C,D106*%
X220446000Y-55640600D02*
X223536000Y-55640600D01*
X221991462Y-50090601D02*
G75*
G03*
X220446170Y-55640599I-462J-2989999D01*
G01*
X223535830Y-55640600D02*
G75*
G03*
X221990538Y-50090600I-1544830J2560000D01*
G01*
X224491000Y-53080600D02*
G75*
G03*
X224491000Y-53080600I-2500000J0D01*
G01*
%TO.C,D32*%
X71856000Y-92470600D02*
X74946000Y-92470600D01*
X73401462Y-86920601D02*
G75*
G03*
X71856170Y-92470599I-462J-2989999D01*
G01*
X74945830Y-92470600D02*
G75*
G03*
X73400538Y-86920600I-1544830J2560000D01*
G01*
X75901000Y-89910600D02*
G75*
G03*
X75901000Y-89910600I-2500000J0D01*
G01*
%TO.C,D19*%
X201651000Y-65505600D02*
X201651000Y-68595600D01*
X207200999Y-67051062D02*
G75*
G03*
X201651001Y-65505770I-2989999J462D01*
G01*
X201651000Y-68595430D02*
G75*
G03*
X207201000Y-67050138I2560000J1544830D01*
G01*
X206711000Y-67050600D02*
G75*
G03*
X206711000Y-67050600I-2500000J0D01*
G01*
%TO.C,Q4*%
X47923200Y-41930400D02*
X47923200Y-43330400D01*
X50243200Y-43330400D02*
X50243200Y-41430400D01*
%TO.C,D108*%
X235686000Y-55640600D02*
X238776000Y-55640600D01*
X237231462Y-50090601D02*
G75*
G03*
X235686170Y-55640599I-462J-2989999D01*
G01*
X238775830Y-55640600D02*
G75*
G03*
X237230538Y-50090600I-1544830J2560000D01*
G01*
X239731000Y-53080600D02*
G75*
G03*
X239731000Y-53080600I-2500000J0D01*
G01*
%TO.C,D76*%
X249911000Y-73125600D02*
X249911000Y-76215600D01*
X255460999Y-74671062D02*
G75*
G03*
X249911001Y-73125770I-2989999J462D01*
G01*
X249911000Y-76215430D02*
G75*
G03*
X255461000Y-74670138I2560000J1544830D01*
G01*
X254971000Y-74670600D02*
G75*
G03*
X254971000Y-74670600I-2500000J0D01*
G01*
%TO.C,D88*%
X120116000Y-92470600D02*
X123206000Y-92470600D01*
X121661462Y-86920601D02*
G75*
G03*
X120116170Y-92470599I-462J-2989999D01*
G01*
X123205830Y-92470600D02*
G75*
G03*
X121660538Y-86920600I-1544830J2560000D01*
G01*
X124161000Y-89910600D02*
G75*
G03*
X124161000Y-89910600I-2500000J0D01*
G01*
%TO.C,R22*%
X52706600Y-38786164D02*
X52706600Y-38332036D01*
X54176600Y-38786164D02*
X54176600Y-38332036D01*
%TO.C,Q6*%
X44553600Y-43482800D02*
X44553600Y-42082800D01*
X42233600Y-42082800D02*
X42233600Y-43982800D01*
%TO.C,D85*%
X220446000Y-92470600D02*
X223536000Y-92470600D01*
X221991462Y-86920601D02*
G75*
G03*
X220446170Y-92470599I-462J-2989999D01*
G01*
X223535830Y-92470600D02*
G75*
G03*
X221990538Y-86920600I-1544830J2560000D01*
G01*
X224491000Y-89910600D02*
G75*
G03*
X224491000Y-89910600I-2500000J0D01*
G01*
%TO.C,R3*%
X40156400Y-44044359D02*
X40156400Y-44351641D01*
X39396400Y-44044359D02*
X39396400Y-44351641D01*
%TO.C,D47*%
X55601000Y-37565600D02*
X55601000Y-40655600D01*
X61150999Y-39111062D02*
G75*
G03*
X55601001Y-37565770I-2989999J462D01*
G01*
X55601000Y-40655430D02*
G75*
G03*
X61151000Y-39110138I2560000J1544830D01*
G01*
X60661000Y-39110600D02*
G75*
G03*
X60661000Y-39110600I-2500000J0D01*
G01*
%TO.C,D112*%
X127736000Y-55640600D02*
X130826000Y-55640600D01*
X129281462Y-50090601D02*
G75*
G03*
X127736170Y-55640599I-462J-2989999D01*
G01*
X130825830Y-55640600D02*
G75*
G03*
X129280538Y-50090600I-1544830J2560000D01*
G01*
X131781000Y-53080600D02*
G75*
G03*
X131781000Y-53080600I-2500000J0D01*
G01*
%TO.C,D7*%
X201651000Y-29945600D02*
X201651000Y-33035600D01*
X207200999Y-31491062D02*
G75*
G03*
X201651001Y-29945770I-2989999J462D01*
G01*
X201651000Y-33035430D02*
G75*
G03*
X207201000Y-31490138I2560000J1544830D01*
G01*
X206711000Y-31490600D02*
G75*
G03*
X206711000Y-31490600I-2500000J0D01*
G01*
%TO.C,D63*%
X120116000Y-18810600D02*
X123206000Y-18810600D01*
X121661462Y-13260601D02*
G75*
G03*
X120116170Y-18810599I-462J-2989999D01*
G01*
X123205830Y-18810600D02*
G75*
G03*
X121660538Y-13260600I-1544830J2560000D01*
G01*
X124161000Y-16250600D02*
G75*
G03*
X124161000Y-16250600I-2500000J0D01*
G01*
%TO.C,R21*%
X41072800Y-43996041D02*
X41072800Y-43688759D01*
X41832800Y-43996041D02*
X41832800Y-43688759D01*
%TD*%
M02*
