%TF.GenerationSoftware,KiCad,Pcbnew,7.0.8*%
%TF.CreationDate,2024-09-21T08:52:27-04:00*%
%TF.ProjectId,clock,636c6f63-6b2e-46b6-9963-61645f706362,rev?*%
%TF.SameCoordinates,Original*%
%TF.FileFunction,Soldermask,Bot*%
%TF.FilePolarity,Negative*%
%FSLAX46Y46*%
G04 Gerber Fmt 4.6, Leading zero omitted, Abs format (unit mm)*
G04 Created by KiCad (PCBNEW 7.0.8) date 2024-09-21 08:52:27*
%MOMM*%
%LPD*%
G01*
G04 APERTURE LIST*
G04 Aperture macros list*
%AMRoundRect*
0 Rectangle with rounded corners*
0 $1 Rounding radius*
0 $2 $3 $4 $5 $6 $7 $8 $9 X,Y pos of 4 corners*
0 Add a 4 corners polygon primitive as box body*
4,1,4,$2,$3,$4,$5,$6,$7,$8,$9,$2,$3,0*
0 Add four circle primitives for the rounded corners*
1,1,$1+$1,$2,$3*
1,1,$1+$1,$4,$5*
1,1,$1+$1,$6,$7*
1,1,$1+$1,$8,$9*
0 Add four rect primitives between the rounded corners*
20,1,$1+$1,$2,$3,$4,$5,0*
20,1,$1+$1,$4,$5,$6,$7,0*
20,1,$1+$1,$6,$7,$8,$9,0*
20,1,$1+$1,$8,$9,$2,$3,0*%
G04 Aperture macros list end*
%ADD10R,1.800000X1.800000*%
%ADD11C,1.800000*%
%ADD12RoundRect,0.250000X0.350000X0.625000X-0.350000X0.625000X-0.350000X-0.625000X0.350000X-0.625000X0*%
%ADD13O,1.200000X1.750000*%
%ADD14O,1.700000X1.100000*%
G04 APERTURE END LIST*
D10*
%TO.C,D105*%
X105151000Y-23870600D03*
D11*
X107691000Y-23870600D03*
%TD*%
D10*
%TO.C,D73*%
X143251000Y-46730600D03*
D11*
X145791000Y-46730600D03*
%TD*%
D10*
%TO.C,D2*%
X173731000Y-17520600D03*
D11*
X173731000Y-14980600D03*
%TD*%
D10*
%TO.C,D92*%
X213101000Y-67050600D03*
D11*
X215641000Y-67050600D03*
%TD*%
D10*
%TO.C,D44*%
X164841000Y-31490600D03*
D11*
X167381000Y-31490600D03*
%TD*%
D10*
%TO.C,D37*%
X164841000Y-59430600D03*
D11*
X167381000Y-59430600D03*
%TD*%
D10*
%TO.C,D6*%
X202941000Y-23870600D03*
D11*
X205481000Y-23870600D03*
%TD*%
D10*
%TO.C,D49*%
X56891000Y-23870600D03*
D11*
X59431000Y-23870600D03*
%TD*%
D10*
%TO.C,D23*%
X94991000Y-67050600D03*
D11*
X97531000Y-67050600D03*
%TD*%
D10*
%TO.C,D28*%
X181351000Y-91180600D03*
D11*
X181351000Y-88640600D03*
%TD*%
D10*
%TO.C,D54*%
X65781000Y-54350600D03*
D11*
X65781000Y-51810600D03*
%TD*%
D10*
%TO.C,D82*%
X244851000Y-91180600D03*
D11*
X244851000Y-88640600D03*
%TD*%
D10*
%TO.C,D53*%
X196591000Y-54350600D03*
D11*
X196591000Y-51810600D03*
%TD*%
D10*
%TO.C,D11*%
X73401000Y-17520600D03*
D11*
X73401000Y-14980600D03*
%TD*%
D10*
%TO.C,D22*%
X94991000Y-59430600D03*
D11*
X97531000Y-59430600D03*
%TD*%
D10*
%TO.C,D64*%
X129281000Y-17520600D03*
D11*
X129281000Y-14980600D03*
%TD*%
D10*
%TO.C,D60*%
X237231000Y-17520600D03*
D11*
X237231000Y-14980600D03*
%TD*%
D10*
%TO.C,D104*%
X105151000Y-31490600D03*
D11*
X107691000Y-31490600D03*
%TD*%
D10*
%TO.C,D52*%
X188971000Y-54350600D03*
D11*
X188971000Y-51810600D03*
%TD*%
D10*
%TO.C,D62*%
X114041000Y-17520600D03*
D11*
X114041000Y-14980600D03*
%TD*%
D10*
%TO.C,D46*%
X56891000Y-46730600D03*
D11*
X59431000Y-46730600D03*
%TD*%
D10*
%TO.C,D30*%
X88641000Y-91180600D03*
D11*
X88641000Y-88640600D03*
%TD*%
D10*
%TO.C,D91*%
X213101000Y-74670600D03*
D11*
X215641000Y-74670600D03*
%TD*%
D10*
%TO.C,D97*%
X105151000Y-59430600D03*
D11*
X107691000Y-59430600D03*
%TD*%
D10*
%TO.C,D41*%
X56891000Y-59430600D03*
D11*
X59431000Y-59430600D03*
%TD*%
D10*
%TO.C,D84*%
X229611000Y-91180600D03*
D11*
X229611000Y-88640600D03*
%TD*%
D10*
%TO.C,D20*%
X202941000Y-74670600D03*
D11*
X205481000Y-74670600D03*
%TD*%
D10*
%TO.C,D75*%
X251201000Y-67050600D03*
D11*
X253741000Y-67050600D03*
%TD*%
D10*
%TO.C,D27*%
X188971000Y-91180600D03*
D11*
X188971000Y-88640600D03*
%TD*%
D10*
%TO.C,D68*%
X251201000Y-39110600D03*
D11*
X253741000Y-39110600D03*
%TD*%
D10*
%TO.C,D71*%
X143251000Y-31490600D03*
D11*
X145791000Y-31490600D03*
%TD*%
D10*
%TO.C,D40*%
X56891000Y-67050600D03*
D11*
X59431000Y-67050600D03*
%TD*%
D10*
%TO.C,D57*%
X88641000Y-54350600D03*
D11*
X88641000Y-51810600D03*
%TD*%
D10*
%TO.C,D69*%
X251201000Y-46730600D03*
D11*
X253741000Y-46730600D03*
%TD*%
D10*
%TO.C,D65*%
X136901000Y-17520600D03*
D11*
X136901000Y-14980600D03*
%TD*%
D10*
%TO.C,D110*%
X114041000Y-54350600D03*
D11*
X114041000Y-51810600D03*
%TD*%
D10*
%TO.C,D70*%
X143251000Y-23870600D03*
D11*
X145791000Y-23870600D03*
%TD*%
D10*
%TO.C,D74*%
X251201000Y-59430600D03*
D11*
X253741000Y-59430600D03*
%TD*%
D10*
%TO.C,D90*%
X213101000Y-82290600D03*
D11*
X215641000Y-82290600D03*
%TD*%
D10*
%TO.C,D10*%
X65781000Y-17520600D03*
D11*
X65781000Y-14980600D03*
%TD*%
D10*
%TO.C,D5*%
X196591000Y-17520600D03*
D11*
X196591000Y-14980600D03*
%TD*%
D10*
%TO.C,D89*%
X114041000Y-91180600D03*
D11*
X114041000Y-88640600D03*
%TD*%
D10*
%TO.C,D29*%
X173731000Y-91180600D03*
D11*
X173731000Y-88640600D03*
%TD*%
D10*
%TO.C,D58*%
X221991000Y-17520600D03*
D11*
X221991000Y-14980600D03*
%TD*%
D10*
%TO.C,D66*%
X251201000Y-23870600D03*
D11*
X253741000Y-23870600D03*
%TD*%
D10*
%TO.C,D25*%
X94991000Y-82290600D03*
D11*
X97531000Y-82290600D03*
%TD*%
D10*
%TO.C,D21*%
X202941000Y-82290600D03*
D11*
X205481000Y-82290600D03*
%TD*%
D12*
%TO.C,J1*%
X43573200Y-36872000D03*
D13*
X41573200Y-36872000D03*
X39573200Y-36872000D03*
X37573200Y-36872000D03*
X35573200Y-36872000D03*
%TD*%
D10*
%TO.C,D38*%
X56891000Y-82290600D03*
D11*
X59431000Y-82290600D03*
%TD*%
D10*
%TO.C,D55*%
X73401000Y-54350600D03*
D11*
X73401000Y-51810600D03*
%TD*%
D10*
%TO.C,D81*%
X143251000Y-82290600D03*
D11*
X145791000Y-82290600D03*
%TD*%
D10*
%TO.C,D48*%
X56891000Y-31490600D03*
D11*
X59431000Y-31490600D03*
%TD*%
D10*
%TO.C,D35*%
X164841000Y-74670600D03*
D11*
X167381000Y-74670600D03*
%TD*%
D10*
%TO.C,D103*%
X105151000Y-39110600D03*
D11*
X107691000Y-39110600D03*
%TD*%
D10*
%TO.C,D36*%
X164841000Y-67050600D03*
D11*
X167381000Y-67050600D03*
%TD*%
D10*
%TO.C,D113*%
X136901000Y-54350600D03*
D11*
X136901000Y-51810600D03*
%TD*%
D10*
%TO.C,D72*%
X143251000Y-39110600D03*
D11*
X145791000Y-39110600D03*
%TD*%
D10*
%TO.C,D50*%
X173731000Y-54350600D03*
D11*
X173731000Y-51810600D03*
%TD*%
D10*
%TO.C,D18*%
X202941000Y-59430600D03*
D11*
X205481000Y-59430600D03*
%TD*%
D10*
%TO.C,D107*%
X229611000Y-54350600D03*
D11*
X229611000Y-51810600D03*
%TD*%
D10*
%TO.C,D33*%
X65781000Y-91180600D03*
D11*
X65781000Y-88640600D03*
%TD*%
D10*
%TO.C,D101*%
X213101000Y-23870600D03*
D11*
X215641000Y-23870600D03*
%TD*%
D10*
%TO.C,D56*%
X81021000Y-54350600D03*
D11*
X81021000Y-51810600D03*
%TD*%
D10*
%TO.C,D45*%
X164841000Y-23870600D03*
D11*
X167381000Y-23870600D03*
%TD*%
D10*
%TO.C,D16*%
X94991000Y-39110600D03*
D11*
X97531000Y-39110600D03*
%TD*%
D10*
%TO.C,D100*%
X213101000Y-31490600D03*
D11*
X215641000Y-31490600D03*
%TD*%
D10*
%TO.C,D109*%
X244851000Y-54350600D03*
D11*
X244851000Y-51810600D03*
%TD*%
D10*
%TO.C,D67*%
X251201000Y-31490600D03*
D11*
X253741000Y-31490600D03*
%TD*%
D10*
%TO.C,D59*%
X229611000Y-17520600D03*
D11*
X229611000Y-14980600D03*
%TD*%
D10*
%TO.C,D111*%
X121661000Y-54350600D03*
D11*
X121661000Y-51810600D03*
%TD*%
D10*
%TO.C,D24*%
X94991000Y-74670600D03*
D11*
X97531000Y-74670600D03*
%TD*%
D10*
%TO.C,D34*%
X164841000Y-82290600D03*
D11*
X167381000Y-82290600D03*
%TD*%
D10*
%TO.C,D93*%
X213101000Y-59430600D03*
D11*
X215641000Y-59430600D03*
%TD*%
D10*
%TO.C,D8*%
X202941000Y-39110600D03*
D11*
X205481000Y-39110600D03*
%TD*%
D14*
%TO.C,J2*%
X33647600Y-22011600D03*
X29847600Y-22011600D03*
X33647600Y-30651600D03*
X29847600Y-30651600D03*
%TD*%
D10*
%TO.C,D83*%
X237231000Y-91180600D03*
D11*
X237231000Y-88640600D03*
%TD*%
D10*
%TO.C,D80*%
X143251000Y-74670600D03*
D11*
X145791000Y-74670600D03*
%TD*%
D10*
%TO.C,D31*%
X81021000Y-91180600D03*
D11*
X81021000Y-88640600D03*
%TD*%
D10*
%TO.C,D96*%
X105151000Y-67050600D03*
D11*
X107691000Y-67050600D03*
%TD*%
D10*
%TO.C,D17*%
X94991000Y-46730600D03*
D11*
X97531000Y-46730600D03*
%TD*%
D10*
%TO.C,D14*%
X94991000Y-23870600D03*
D11*
X97531000Y-23870600D03*
%TD*%
D10*
%TO.C,D61*%
X244851000Y-17520600D03*
D11*
X244851000Y-14980600D03*
%TD*%
D10*
%TO.C,D3*%
X181351000Y-17520600D03*
D11*
X181351000Y-14980600D03*
%TD*%
D10*
%TO.C,D12*%
X81021000Y-17520600D03*
D11*
X81021000Y-14980600D03*
%TD*%
D10*
%TO.C,D102*%
X105151000Y-46730600D03*
D11*
X107691000Y-46730600D03*
%TD*%
D10*
%TO.C,D51*%
X181351000Y-54350600D03*
D11*
X181351000Y-51810600D03*
%TD*%
D10*
%TO.C,D87*%
X129281000Y-91180600D03*
D11*
X129281000Y-88640600D03*
%TD*%
D10*
%TO.C,D4*%
X188971000Y-17520600D03*
D11*
X188971000Y-14980600D03*
%TD*%
D10*
%TO.C,D77*%
X251201000Y-82290600D03*
D11*
X253741000Y-82290600D03*
%TD*%
D10*
%TO.C,D15*%
X94991000Y-31490600D03*
D11*
X97531000Y-31490600D03*
%TD*%
D10*
%TO.C,D79*%
X143251000Y-67050600D03*
D11*
X145791000Y-67050600D03*
%TD*%
D10*
%TO.C,D43*%
X164841000Y-39110600D03*
D11*
X167381000Y-39110600D03*
%TD*%
D10*
%TO.C,D98*%
X213101000Y-46730600D03*
D11*
X215641000Y-46730600D03*
%TD*%
D10*
%TO.C,D99*%
X213101000Y-39110600D03*
D11*
X215641000Y-39110600D03*
%TD*%
D10*
%TO.C,D95*%
X105151000Y-74670600D03*
D11*
X107691000Y-74670600D03*
%TD*%
D10*
%TO.C,D39*%
X56891000Y-74670600D03*
D11*
X59431000Y-74670600D03*
%TD*%
D10*
%TO.C,D86*%
X136901000Y-91180600D03*
D11*
X136901000Y-88640600D03*
%TD*%
D10*
%TO.C,D78*%
X143251000Y-59430600D03*
D11*
X145791000Y-59430600D03*
%TD*%
D10*
%TO.C,D9*%
X202941000Y-46730600D03*
D11*
X205481000Y-46730600D03*
%TD*%
D10*
%TO.C,D94*%
X105151000Y-82290600D03*
D11*
X107691000Y-82290600D03*
%TD*%
D10*
%TO.C,D42*%
X164841000Y-46730600D03*
D11*
X167381000Y-46730600D03*
%TD*%
D10*
%TO.C,D13*%
X88641000Y-17520600D03*
D11*
X88641000Y-14980600D03*
%TD*%
D10*
%TO.C,D26*%
X196591000Y-91180600D03*
D11*
X196591000Y-88640600D03*
%TD*%
D10*
%TO.C,D106*%
X221991000Y-54350600D03*
D11*
X221991000Y-51810600D03*
%TD*%
D10*
%TO.C,D32*%
X73401000Y-91180600D03*
D11*
X73401000Y-88640600D03*
%TD*%
D10*
%TO.C,D19*%
X202941000Y-67050600D03*
D11*
X205481000Y-67050600D03*
%TD*%
D10*
%TO.C,D108*%
X237231000Y-54350600D03*
D11*
X237231000Y-51810600D03*
%TD*%
D10*
%TO.C,D76*%
X251201000Y-74670600D03*
D11*
X253741000Y-74670600D03*
%TD*%
D10*
%TO.C,D88*%
X121661000Y-91180600D03*
D11*
X121661000Y-88640600D03*
%TD*%
D10*
%TO.C,D85*%
X221991000Y-91180600D03*
D11*
X221991000Y-88640600D03*
%TD*%
D10*
%TO.C,D47*%
X56891000Y-39110600D03*
D11*
X59431000Y-39110600D03*
%TD*%
D10*
%TO.C,D112*%
X129281000Y-54350600D03*
D11*
X129281000Y-51810600D03*
%TD*%
D10*
%TO.C,D7*%
X202941000Y-31490600D03*
D11*
X205481000Y-31490600D03*
%TD*%
D10*
%TO.C,D63*%
X121661000Y-17520600D03*
D11*
X121661000Y-14980600D03*
%TD*%
M02*
