%TF.GenerationSoftware,KiCad,Pcbnew,7.0.8*%
%TF.CreationDate,2024-09-21T08:52:27-04:00*%
%TF.ProjectId,clock,636c6f63-6b2e-46b6-9963-61645f706362,rev?*%
%TF.SameCoordinates,Original*%
%TF.FileFunction,Paste,Top*%
%TF.FilePolarity,Positive*%
%FSLAX46Y46*%
G04 Gerber Fmt 4.6, Leading zero omitted, Abs format (unit mm)*
G04 Created by KiCad (PCBNEW 7.0.8) date 2024-09-21 08:52:27*
%MOMM*%
%LPD*%
G01*
G04 APERTURE LIST*
G04 Aperture macros list*
%AMRoundRect*
0 Rectangle with rounded corners*
0 $1 Rounding radius*
0 $2 $3 $4 $5 $6 $7 $8 $9 X,Y pos of 4 corners*
0 Add a 4 corners polygon primitive as box body*
4,1,4,$2,$3,$4,$5,$6,$7,$8,$9,$2,$3,0*
0 Add four circle primitives for the rounded corners*
1,1,$1+$1,$2,$3*
1,1,$1+$1,$4,$5*
1,1,$1+$1,$6,$7*
1,1,$1+$1,$8,$9*
0 Add four rect primitives between the rounded corners*
20,1,$1+$1,$2,$3,$4,$5,0*
20,1,$1+$1,$4,$5,$6,$7,0*
20,1,$1+$1,$6,$7,$8,$9,0*
20,1,$1+$1,$8,$9,$2,$3,0*%
G04 Aperture macros list end*
%ADD10RoundRect,0.135000X0.185000X-0.135000X0.185000X0.135000X-0.185000X0.135000X-0.185000X-0.135000X0*%
%ADD11RoundRect,0.250000X0.450000X-0.262500X0.450000X0.262500X-0.450000X0.262500X-0.450000X-0.262500X0*%
%ADD12R,1.550000X1.300000*%
%ADD13RoundRect,0.135000X0.135000X0.185000X-0.135000X0.185000X-0.135000X-0.185000X0.135000X-0.185000X0*%
%ADD14RoundRect,0.135000X-0.185000X0.135000X-0.185000X-0.135000X0.185000X-0.135000X0.185000X0.135000X0*%
%ADD15R,0.400000X1.500000*%
%ADD16RoundRect,0.250000X0.650000X-0.412500X0.650000X0.412500X-0.650000X0.412500X-0.650000X-0.412500X0*%
%ADD17RoundRect,0.250000X-0.262500X-0.450000X0.262500X-0.450000X0.262500X0.450000X-0.262500X0.450000X0*%
%ADD18R,0.800000X0.550000*%
%ADD19RoundRect,0.135000X-0.135000X-0.185000X0.135000X-0.185000X0.135000X0.185000X-0.135000X0.185000X0*%
%ADD20RoundRect,0.250000X-0.450000X0.262500X-0.450000X-0.262500X0.450000X-0.262500X0.450000X0.262500X0*%
%ADD21RoundRect,0.250000X-0.650000X0.412500X-0.650000X-0.412500X0.650000X-0.412500X0.650000X0.412500X0*%
%ADD22RoundRect,0.250000X0.312500X0.625000X-0.312500X0.625000X-0.312500X-0.625000X0.312500X-0.625000X0*%
%ADD23R,1.500000X0.400000*%
%ADD24RoundRect,0.218750X0.218750X0.256250X-0.218750X0.256250X-0.218750X-0.256250X0.218750X-0.256250X0*%
%ADD25RoundRect,0.250000X-0.412500X-0.650000X0.412500X-0.650000X0.412500X0.650000X-0.412500X0.650000X0*%
%ADD26RoundRect,0.175000X-0.425000X0.175000X-0.425000X-0.175000X0.425000X-0.175000X0.425000X0.175000X0*%
%ADD27RoundRect,0.190000X0.410000X-0.190000X0.410000X0.190000X-0.410000X0.190000X-0.410000X-0.190000X0*%
%ADD28RoundRect,0.200000X0.400000X-0.200000X0.400000X0.200000X-0.400000X0.200000X-0.400000X-0.200000X0*%
%ADD29RoundRect,0.175000X0.425000X-0.175000X0.425000X0.175000X-0.425000X0.175000X-0.425000X-0.175000X0*%
%ADD30RoundRect,0.190000X-0.410000X0.190000X-0.410000X-0.190000X0.410000X-0.190000X0.410000X0.190000X0*%
%ADD31RoundRect,0.200000X-0.400000X0.200000X-0.400000X-0.200000X0.400000X-0.200000X0.400000X0.200000X0*%
%ADD32O,1.700000X1.100000*%
%ADD33R,0.900000X1.500000*%
%ADD34R,1.500000X0.900000*%
%ADD35R,2.000000X1.500000*%
%ADD36R,2.000000X3.800000*%
%ADD37RoundRect,0.250000X0.412500X0.650000X-0.412500X0.650000X-0.412500X-0.650000X0.412500X-0.650000X0*%
G04 APERTURE END LIST*
D10*
%TO.C,R19*%
X53848000Y-41710800D03*
X53848000Y-40690800D03*
%TD*%
D11*
%TO.C,R18*%
X51485800Y-36066100D03*
X51485800Y-34241100D03*
%TD*%
D12*
%TO.C,SW3*%
X45351800Y-82687600D03*
X53301800Y-82687600D03*
X45351800Y-87187600D03*
X53301800Y-87187600D03*
%TD*%
D13*
%TO.C,R20*%
X53240400Y-45669200D03*
X52220400Y-45669200D03*
%TD*%
D14*
%TO.C,R2*%
X39776400Y-41198800D03*
X39776400Y-42218800D03*
%TD*%
D15*
%TO.C,Q3*%
X45578000Y-44112800D03*
X46228000Y-44112800D03*
X46878000Y-44112800D03*
X46878000Y-41452800D03*
X46228000Y-41452800D03*
X45578000Y-41452800D03*
%TD*%
D12*
%TO.C,SW5*%
X45351800Y-89291600D03*
X53301800Y-89291600D03*
X45351800Y-93791600D03*
X53301800Y-93791600D03*
%TD*%
D16*
%TO.C,C5*%
X42316400Y-25692500D03*
X42316400Y-22567500D03*
%TD*%
D12*
%TO.C,SW4*%
X45402600Y-14615600D03*
X53352600Y-14615600D03*
X45402600Y-19115600D03*
X53352600Y-19115600D03*
%TD*%
%TO.C,SW2*%
X53305000Y-80583600D03*
X45355000Y-80583600D03*
X53305000Y-76083600D03*
X45355000Y-76083600D03*
%TD*%
D17*
%TO.C,R15*%
X47908200Y-36322000D03*
X49733200Y-36322000D03*
%TD*%
D15*
%TO.C,Q5*%
X51293000Y-44112800D03*
X51943000Y-44112800D03*
X52593000Y-44112800D03*
X52593000Y-41452800D03*
X51943000Y-41452800D03*
X51293000Y-41452800D03*
%TD*%
D18*
%TO.C,U1*%
X38658800Y-68376800D03*
X38658800Y-69326800D03*
X38658800Y-70276800D03*
X41058800Y-70276800D03*
X41058800Y-69326800D03*
X41058800Y-68376800D03*
%TD*%
D19*
%TO.C,R14*%
X50338800Y-45669200D03*
X51358800Y-45669200D03*
%TD*%
D10*
%TO.C,R6*%
X36271200Y-67312000D03*
X36271200Y-66292000D03*
%TD*%
D13*
%TO.C,R11*%
X45724000Y-45669200D03*
X44704000Y-45669200D03*
%TD*%
D20*
%TO.C,R17*%
X53441600Y-34243000D03*
X53441600Y-36068000D03*
%TD*%
D21*
%TO.C,C3*%
X34594800Y-66649600D03*
X34594800Y-69774600D03*
%TD*%
D10*
%TO.C,R9*%
X46786800Y-67210400D03*
X46786800Y-66190400D03*
%TD*%
D12*
%TO.C,SW1*%
X45364400Y-69494400D03*
X53314400Y-69494400D03*
X45364400Y-73994400D03*
X53314400Y-73994400D03*
%TD*%
D19*
%TO.C,R4*%
X36724400Y-45669200D03*
X37744400Y-45669200D03*
%TD*%
D22*
%TO.C,TH1*%
X42966100Y-28244800D03*
X40041100Y-28244800D03*
%TD*%
D13*
%TO.C,R12*%
X49479200Y-45669200D03*
X48459200Y-45669200D03*
%TD*%
%TO.C,R13*%
X47599600Y-45669200D03*
X46579600Y-45669200D03*
%TD*%
D19*
%TO.C,R1*%
X34034000Y-45669200D03*
X35054000Y-45669200D03*
%TD*%
D11*
%TO.C,R23*%
X51485800Y-39471600D03*
X51485800Y-37646600D03*
%TD*%
D23*
%TO.C,Q2*%
X38169200Y-44403800D03*
X38169200Y-43753800D03*
X38169200Y-43103800D03*
X35509200Y-43103800D03*
X35509200Y-43753800D03*
X35509200Y-44403800D03*
%TD*%
D24*
%TO.C,D1*%
X49581000Y-67208400D03*
X48006000Y-67208400D03*
%TD*%
D14*
%TO.C,R10*%
X37744400Y-66290000D03*
X37744400Y-67310000D03*
%TD*%
D25*
%TO.C,C1*%
X49249800Y-30175200D03*
X52374800Y-30175200D03*
%TD*%
D26*
%TO.C,J2*%
X33727600Y-25831600D03*
D27*
X33727600Y-27851600D03*
D28*
X33727600Y-29081600D03*
D29*
X33727600Y-26831600D03*
D30*
X33727600Y-24811600D03*
D31*
X33727600Y-23581600D03*
D32*
X33647600Y-22011600D03*
X29847600Y-22011600D03*
X33647600Y-30651600D03*
X29847600Y-30651600D03*
%TD*%
D23*
%TO.C,Q1*%
X35534600Y-40254400D03*
X35534600Y-40904400D03*
X35534600Y-41554400D03*
X38194600Y-41554400D03*
X38194600Y-40904400D03*
X38194600Y-40254400D03*
%TD*%
D13*
%TO.C,R8*%
X34497200Y-33020000D03*
X33477200Y-33020000D03*
%TD*%
D17*
%TO.C,R24*%
X47908200Y-34391600D03*
X49733200Y-34391600D03*
%TD*%
D21*
%TO.C,C2*%
X41554400Y-14705800D03*
X41554400Y-17830800D03*
%TD*%
D13*
%TO.C,R7*%
X36781200Y-25857200D03*
X35761200Y-25857200D03*
%TD*%
D17*
%TO.C,R16*%
X47908200Y-38252400D03*
X49733200Y-38252400D03*
%TD*%
D33*
%TO.C,U2*%
X34574400Y-64680800D03*
X35844400Y-64680800D03*
X37114400Y-64680800D03*
X38384400Y-64680800D03*
X39654400Y-64680800D03*
X40924400Y-64680800D03*
X42194400Y-64680800D03*
X43464400Y-64680800D03*
X44734400Y-64680800D03*
X46004400Y-64680800D03*
X47274400Y-64680800D03*
X48544400Y-64680800D03*
X49814400Y-64680800D03*
X51084400Y-64680800D03*
D34*
X52334400Y-61640800D03*
X52334400Y-60370800D03*
X52334400Y-59100800D03*
X52334400Y-57830800D03*
X52334400Y-56560800D03*
X52334400Y-55290800D03*
X52334400Y-54020800D03*
X52334400Y-52750800D03*
X52334400Y-51480800D03*
X52334400Y-50210800D03*
D33*
X51084400Y-47180800D03*
X49814400Y-47180800D03*
X48544400Y-47180800D03*
X47274400Y-47180800D03*
X46004400Y-47180800D03*
X44734400Y-47180800D03*
X43464400Y-47180800D03*
X42194400Y-47180800D03*
X40924400Y-47180800D03*
X39654400Y-47180800D03*
X38384400Y-47180800D03*
X37114400Y-47180800D03*
X35844400Y-47180800D03*
X34574400Y-47180800D03*
%TD*%
D35*
%TO.C,U3*%
X45770400Y-23049200D03*
X45770400Y-25349200D03*
X45770400Y-27649200D03*
D36*
X52070400Y-25349200D03*
%TD*%
D37*
%TO.C,C4*%
X43257000Y-30988000D03*
X40132000Y-30988000D03*
%TD*%
D13*
%TO.C,R5*%
X36783200Y-26822400D03*
X35763200Y-26822400D03*
%TD*%
D15*
%TO.C,Q4*%
X49733200Y-41300400D03*
X49083200Y-41300400D03*
X48433200Y-41300400D03*
X48433200Y-43960400D03*
X49083200Y-43960400D03*
X49733200Y-43960400D03*
%TD*%
D11*
%TO.C,R22*%
X53441600Y-39471600D03*
X53441600Y-37646600D03*
%TD*%
D15*
%TO.C,Q6*%
X42743600Y-44112800D03*
X43393600Y-44112800D03*
X44043600Y-44112800D03*
X44043600Y-41452800D03*
X43393600Y-41452800D03*
X42743600Y-41452800D03*
%TD*%
D14*
%TO.C,R3*%
X39776400Y-43688000D03*
X39776400Y-44708000D03*
%TD*%
D10*
%TO.C,R21*%
X41452800Y-44352400D03*
X41452800Y-43332400D03*
%TD*%
M02*
