%TF.GenerationSoftware,KiCad,Pcbnew,7.0.8*%
%TF.CreationDate,2024-09-21T08:52:27-04:00*%
%TF.ProjectId,clock,636c6f63-6b2e-46b6-9963-61645f706362,rev?*%
%TF.SameCoordinates,Original*%
%TF.FileFunction,Soldermask,Top*%
%TF.FilePolarity,Negative*%
%FSLAX46Y46*%
G04 Gerber Fmt 4.6, Leading zero omitted, Abs format (unit mm)*
G04 Created by KiCad (PCBNEW 7.0.8) date 2024-09-21 08:52:27*
%MOMM*%
%LPD*%
G01*
G04 APERTURE LIST*
G04 Aperture macros list*
%AMRoundRect*
0 Rectangle with rounded corners*
0 $1 Rounding radius*
0 $2 $3 $4 $5 $6 $7 $8 $9 X,Y pos of 4 corners*
0 Add a 4 corners polygon primitive as box body*
4,1,4,$2,$3,$4,$5,$6,$7,$8,$9,$2,$3,0*
0 Add four circle primitives for the rounded corners*
1,1,$1+$1,$2,$3*
1,1,$1+$1,$4,$5*
1,1,$1+$1,$6,$7*
1,1,$1+$1,$8,$9*
0 Add four rect primitives between the rounded corners*
20,1,$1+$1,$2,$3,$4,$5,0*
20,1,$1+$1,$4,$5,$6,$7,0*
20,1,$1+$1,$6,$7,$8,$9,0*
20,1,$1+$1,$8,$9,$2,$3,0*%
G04 Aperture macros list end*
%ADD10R,1.800000X1.800000*%
%ADD11C,1.800000*%
%ADD12RoundRect,0.135000X0.185000X-0.135000X0.185000X0.135000X-0.185000X0.135000X-0.185000X-0.135000X0*%
%ADD13RoundRect,0.250000X0.450000X-0.262500X0.450000X0.262500X-0.450000X0.262500X-0.450000X-0.262500X0*%
%ADD14R,1.550000X1.300000*%
%ADD15RoundRect,0.135000X0.135000X0.185000X-0.135000X0.185000X-0.135000X-0.185000X0.135000X-0.185000X0*%
%ADD16RoundRect,0.135000X-0.185000X0.135000X-0.185000X-0.135000X0.185000X-0.135000X0.185000X0.135000X0*%
%ADD17R,0.400000X1.500000*%
%ADD18RoundRect,0.250000X0.650000X-0.412500X0.650000X0.412500X-0.650000X0.412500X-0.650000X-0.412500X0*%
%ADD19RoundRect,0.250000X-0.262500X-0.450000X0.262500X-0.450000X0.262500X0.450000X-0.262500X0.450000X0*%
%ADD20RoundRect,0.050000X-0.400000X0.275000X-0.400000X-0.275000X0.400000X-0.275000X0.400000X0.275000X0*%
%ADD21RoundRect,0.135000X-0.135000X-0.185000X0.135000X-0.185000X0.135000X0.185000X-0.135000X0.185000X0*%
%ADD22RoundRect,0.250000X-0.450000X0.262500X-0.450000X-0.262500X0.450000X-0.262500X0.450000X0.262500X0*%
%ADD23RoundRect,0.250000X-0.650000X0.412500X-0.650000X-0.412500X0.650000X-0.412500X0.650000X0.412500X0*%
%ADD24RoundRect,0.250000X0.350000X0.625000X-0.350000X0.625000X-0.350000X-0.625000X0.350000X-0.625000X0*%
%ADD25O,1.200000X1.750000*%
%ADD26RoundRect,0.250000X0.312500X0.625000X-0.312500X0.625000X-0.312500X-0.625000X0.312500X-0.625000X0*%
%ADD27R,1.500000X0.400000*%
%ADD28RoundRect,0.218750X0.218750X0.256250X-0.218750X0.256250X-0.218750X-0.256250X0.218750X-0.256250X0*%
%ADD29RoundRect,0.250000X-0.412500X-0.650000X0.412500X-0.650000X0.412500X0.650000X-0.412500X0.650000X0*%
%ADD30RoundRect,0.175000X-0.425000X0.175000X-0.425000X-0.175000X0.425000X-0.175000X0.425000X0.175000X0*%
%ADD31RoundRect,0.190000X0.410000X-0.190000X0.410000X0.190000X-0.410000X0.190000X-0.410000X-0.190000X0*%
%ADD32RoundRect,0.200000X0.400000X-0.200000X0.400000X0.200000X-0.400000X0.200000X-0.400000X-0.200000X0*%
%ADD33RoundRect,0.175000X0.425000X-0.175000X0.425000X0.175000X-0.425000X0.175000X-0.425000X-0.175000X0*%
%ADD34RoundRect,0.190000X-0.410000X0.190000X-0.410000X-0.190000X0.410000X-0.190000X0.410000X0.190000X0*%
%ADD35RoundRect,0.200000X-0.400000X0.200000X-0.400000X-0.200000X0.400000X-0.200000X0.400000X0.200000X0*%
%ADD36O,1.700000X1.100000*%
%ADD37R,0.900000X1.500000*%
%ADD38R,1.500000X0.900000*%
%ADD39R,4.200000X4.200000*%
%ADD40R,2.000000X1.500000*%
%ADD41R,2.000000X3.800000*%
%ADD42RoundRect,0.250000X0.412500X0.650000X-0.412500X0.650000X-0.412500X-0.650000X0.412500X-0.650000X0*%
G04 APERTURE END LIST*
D10*
%TO.C,D105*%
X105151000Y-23870600D03*
D11*
X107691000Y-23870600D03*
%TD*%
D10*
%TO.C,D73*%
X143251000Y-46730600D03*
D11*
X145791000Y-46730600D03*
%TD*%
D10*
%TO.C,D2*%
X173731000Y-17520600D03*
D11*
X173731000Y-14980600D03*
%TD*%
D10*
%TO.C,D92*%
X213101000Y-67050600D03*
D11*
X215641000Y-67050600D03*
%TD*%
D12*
%TO.C,R19*%
X53848000Y-41710800D03*
X53848000Y-40690800D03*
%TD*%
D10*
%TO.C,D44*%
X164841000Y-31490600D03*
D11*
X167381000Y-31490600D03*
%TD*%
D10*
%TO.C,D37*%
X164841000Y-59430600D03*
D11*
X167381000Y-59430600D03*
%TD*%
D10*
%TO.C,D6*%
X202941000Y-23870600D03*
D11*
X205481000Y-23870600D03*
%TD*%
D13*
%TO.C,R18*%
X51485800Y-36066100D03*
X51485800Y-34241100D03*
%TD*%
D10*
%TO.C,D49*%
X56891000Y-23870600D03*
D11*
X59431000Y-23870600D03*
%TD*%
D10*
%TO.C,D23*%
X94991000Y-67050600D03*
D11*
X97531000Y-67050600D03*
%TD*%
D14*
%TO.C,SW3*%
X45351800Y-82687600D03*
X53301800Y-82687600D03*
X45351800Y-87187600D03*
X53301800Y-87187600D03*
%TD*%
D15*
%TO.C,R20*%
X53240400Y-45669200D03*
X52220400Y-45669200D03*
%TD*%
D10*
%TO.C,D28*%
X181351000Y-91180600D03*
D11*
X181351000Y-88640600D03*
%TD*%
D10*
%TO.C,D54*%
X65781000Y-54350600D03*
D11*
X65781000Y-51810600D03*
%TD*%
D16*
%TO.C,R2*%
X39776400Y-41198800D03*
X39776400Y-42218800D03*
%TD*%
D10*
%TO.C,D82*%
X244851000Y-91180600D03*
D11*
X244851000Y-88640600D03*
%TD*%
D10*
%TO.C,D53*%
X196591000Y-54350600D03*
D11*
X196591000Y-51810600D03*
%TD*%
D10*
%TO.C,D11*%
X73401000Y-17520600D03*
D11*
X73401000Y-14980600D03*
%TD*%
D10*
%TO.C,D22*%
X94991000Y-59430600D03*
D11*
X97531000Y-59430600D03*
%TD*%
D17*
%TO.C,Q3*%
X45578000Y-44112800D03*
X46228000Y-44112800D03*
X46878000Y-44112800D03*
X46878000Y-41452800D03*
X46228000Y-41452800D03*
X45578000Y-41452800D03*
%TD*%
D10*
%TO.C,D64*%
X129281000Y-17520600D03*
D11*
X129281000Y-14980600D03*
%TD*%
D14*
%TO.C,SW5*%
X45351800Y-89291600D03*
X53301800Y-89291600D03*
X45351800Y-93791600D03*
X53301800Y-93791600D03*
%TD*%
D10*
%TO.C,D60*%
X237231000Y-17520600D03*
D11*
X237231000Y-14980600D03*
%TD*%
D18*
%TO.C,C5*%
X42316400Y-25692500D03*
X42316400Y-22567500D03*
%TD*%
D10*
%TO.C,D104*%
X105151000Y-31490600D03*
D11*
X107691000Y-31490600D03*
%TD*%
D10*
%TO.C,D52*%
X188971000Y-54350600D03*
D11*
X188971000Y-51810600D03*
%TD*%
D10*
%TO.C,D62*%
X114041000Y-17520600D03*
D11*
X114041000Y-14980600D03*
%TD*%
D10*
%TO.C,D46*%
X56891000Y-46730600D03*
D11*
X59431000Y-46730600D03*
%TD*%
D10*
%TO.C,D30*%
X88641000Y-91180600D03*
D11*
X88641000Y-88640600D03*
%TD*%
D10*
%TO.C,D91*%
X213101000Y-74670600D03*
D11*
X215641000Y-74670600D03*
%TD*%
D14*
%TO.C,SW4*%
X45402600Y-14615600D03*
X53352600Y-14615600D03*
X45402600Y-19115600D03*
X53352600Y-19115600D03*
%TD*%
D10*
%TO.C,D97*%
X105151000Y-59430600D03*
D11*
X107691000Y-59430600D03*
%TD*%
D14*
%TO.C,SW2*%
X53305000Y-80583600D03*
X45355000Y-80583600D03*
X53305000Y-76083600D03*
X45355000Y-76083600D03*
%TD*%
D10*
%TO.C,D41*%
X56891000Y-59430600D03*
D11*
X59431000Y-59430600D03*
%TD*%
D19*
%TO.C,R15*%
X47908200Y-36322000D03*
X49733200Y-36322000D03*
%TD*%
D17*
%TO.C,Q5*%
X51293000Y-44112800D03*
X51943000Y-44112800D03*
X52593000Y-44112800D03*
X52593000Y-41452800D03*
X51943000Y-41452800D03*
X51293000Y-41452800D03*
%TD*%
D10*
%TO.C,D84*%
X229611000Y-91180600D03*
D11*
X229611000Y-88640600D03*
%TD*%
D10*
%TO.C,D20*%
X202941000Y-74670600D03*
D11*
X205481000Y-74670600D03*
%TD*%
D20*
%TO.C,U1*%
X38658800Y-68376800D03*
X38658800Y-69326800D03*
X38658800Y-70276800D03*
X41058800Y-70276800D03*
X41058800Y-69326800D03*
X41058800Y-68376800D03*
%TD*%
D21*
%TO.C,R14*%
X50338800Y-45669200D03*
X51358800Y-45669200D03*
%TD*%
D10*
%TO.C,D75*%
X251201000Y-67050600D03*
D11*
X253741000Y-67050600D03*
%TD*%
D12*
%TO.C,R6*%
X36271200Y-67312000D03*
X36271200Y-66292000D03*
%TD*%
D10*
%TO.C,D27*%
X188971000Y-91180600D03*
D11*
X188971000Y-88640600D03*
%TD*%
D10*
%TO.C,D68*%
X251201000Y-39110600D03*
D11*
X253741000Y-39110600D03*
%TD*%
D10*
%TO.C,D71*%
X143251000Y-31490600D03*
D11*
X145791000Y-31490600D03*
%TD*%
D15*
%TO.C,R11*%
X45724000Y-45669200D03*
X44704000Y-45669200D03*
%TD*%
D10*
%TO.C,D40*%
X56891000Y-67050600D03*
D11*
X59431000Y-67050600D03*
%TD*%
D10*
%TO.C,D57*%
X88641000Y-54350600D03*
D11*
X88641000Y-51810600D03*
%TD*%
D10*
%TO.C,D69*%
X251201000Y-46730600D03*
D11*
X253741000Y-46730600D03*
%TD*%
D10*
%TO.C,D65*%
X136901000Y-17520600D03*
D11*
X136901000Y-14980600D03*
%TD*%
D22*
%TO.C,R17*%
X53441600Y-34243000D03*
X53441600Y-36068000D03*
%TD*%
D23*
%TO.C,C3*%
X34594800Y-66649600D03*
X34594800Y-69774600D03*
%TD*%
D10*
%TO.C,D110*%
X114041000Y-54350600D03*
D11*
X114041000Y-51810600D03*
%TD*%
D10*
%TO.C,D70*%
X143251000Y-23870600D03*
D11*
X145791000Y-23870600D03*
%TD*%
D10*
%TO.C,D74*%
X251201000Y-59430600D03*
D11*
X253741000Y-59430600D03*
%TD*%
D12*
%TO.C,R9*%
X46786800Y-67210400D03*
X46786800Y-66190400D03*
%TD*%
D10*
%TO.C,D90*%
X213101000Y-82290600D03*
D11*
X215641000Y-82290600D03*
%TD*%
D10*
%TO.C,D10*%
X65781000Y-17520600D03*
D11*
X65781000Y-14980600D03*
%TD*%
D10*
%TO.C,D5*%
X196591000Y-17520600D03*
D11*
X196591000Y-14980600D03*
%TD*%
D10*
%TO.C,D89*%
X114041000Y-91180600D03*
D11*
X114041000Y-88640600D03*
%TD*%
D10*
%TO.C,D29*%
X173731000Y-91180600D03*
D11*
X173731000Y-88640600D03*
%TD*%
D10*
%TO.C,D58*%
X221991000Y-17520600D03*
D11*
X221991000Y-14980600D03*
%TD*%
D14*
%TO.C,SW1*%
X45364400Y-69494400D03*
X53314400Y-69494400D03*
X45364400Y-73994400D03*
X53314400Y-73994400D03*
%TD*%
D21*
%TO.C,R4*%
X36724400Y-45669200D03*
X37744400Y-45669200D03*
%TD*%
D10*
%TO.C,D66*%
X251201000Y-23870600D03*
D11*
X253741000Y-23870600D03*
%TD*%
D10*
%TO.C,D25*%
X94991000Y-82290600D03*
D11*
X97531000Y-82290600D03*
%TD*%
D10*
%TO.C,D21*%
X202941000Y-82290600D03*
D11*
X205481000Y-82290600D03*
%TD*%
D24*
%TO.C,J1*%
X43573200Y-36872000D03*
D25*
X41573200Y-36872000D03*
X39573200Y-36872000D03*
X37573200Y-36872000D03*
X35573200Y-36872000D03*
%TD*%
D10*
%TO.C,D38*%
X56891000Y-82290600D03*
D11*
X59431000Y-82290600D03*
%TD*%
D26*
%TO.C,TH1*%
X42966100Y-28244800D03*
X40041100Y-28244800D03*
%TD*%
D10*
%TO.C,D55*%
X73401000Y-54350600D03*
D11*
X73401000Y-51810600D03*
%TD*%
D10*
%TO.C,D81*%
X143251000Y-82290600D03*
D11*
X145791000Y-82290600D03*
%TD*%
D10*
%TO.C,D48*%
X56891000Y-31490600D03*
D11*
X59431000Y-31490600D03*
%TD*%
D10*
%TO.C,D35*%
X164841000Y-74670600D03*
D11*
X167381000Y-74670600D03*
%TD*%
D10*
%TO.C,D103*%
X105151000Y-39110600D03*
D11*
X107691000Y-39110600D03*
%TD*%
D15*
%TO.C,R12*%
X49479200Y-45669200D03*
X48459200Y-45669200D03*
%TD*%
D10*
%TO.C,D36*%
X164841000Y-67050600D03*
D11*
X167381000Y-67050600D03*
%TD*%
D10*
%TO.C,D113*%
X136901000Y-54350600D03*
D11*
X136901000Y-51810600D03*
%TD*%
D10*
%TO.C,D72*%
X143251000Y-39110600D03*
D11*
X145791000Y-39110600D03*
%TD*%
D10*
%TO.C,D50*%
X173731000Y-54350600D03*
D11*
X173731000Y-51810600D03*
%TD*%
D10*
%TO.C,D18*%
X202941000Y-59430600D03*
D11*
X205481000Y-59430600D03*
%TD*%
D10*
%TO.C,D107*%
X229611000Y-54350600D03*
D11*
X229611000Y-51810600D03*
%TD*%
D10*
%TO.C,D33*%
X65781000Y-91180600D03*
D11*
X65781000Y-88640600D03*
%TD*%
D10*
%TO.C,D101*%
X213101000Y-23870600D03*
D11*
X215641000Y-23870600D03*
%TD*%
D15*
%TO.C,R13*%
X47599600Y-45669200D03*
X46579600Y-45669200D03*
%TD*%
D10*
%TO.C,D56*%
X81021000Y-54350600D03*
D11*
X81021000Y-51810600D03*
%TD*%
D21*
%TO.C,R1*%
X34034000Y-45669200D03*
X35054000Y-45669200D03*
%TD*%
D13*
%TO.C,R23*%
X51485800Y-39471600D03*
X51485800Y-37646600D03*
%TD*%
D10*
%TO.C,D45*%
X164841000Y-23870600D03*
D11*
X167381000Y-23870600D03*
%TD*%
D10*
%TO.C,D16*%
X94991000Y-39110600D03*
D11*
X97531000Y-39110600D03*
%TD*%
D10*
%TO.C,D100*%
X213101000Y-31490600D03*
D11*
X215641000Y-31490600D03*
%TD*%
D10*
%TO.C,D109*%
X244851000Y-54350600D03*
D11*
X244851000Y-51810600D03*
%TD*%
D10*
%TO.C,D67*%
X251201000Y-31490600D03*
D11*
X253741000Y-31490600D03*
%TD*%
D27*
%TO.C,Q2*%
X38169200Y-44403800D03*
X38169200Y-43753800D03*
X38169200Y-43103800D03*
X35509200Y-43103800D03*
X35509200Y-43753800D03*
X35509200Y-44403800D03*
%TD*%
D10*
%TO.C,D59*%
X229611000Y-17520600D03*
D11*
X229611000Y-14980600D03*
%TD*%
D28*
%TO.C,D1*%
X49581000Y-67208400D03*
X48006000Y-67208400D03*
%TD*%
D10*
%TO.C,D111*%
X121661000Y-54350600D03*
D11*
X121661000Y-51810600D03*
%TD*%
D10*
%TO.C,D24*%
X94991000Y-74670600D03*
D11*
X97531000Y-74670600D03*
%TD*%
D10*
%TO.C,D34*%
X164841000Y-82290600D03*
D11*
X167381000Y-82290600D03*
%TD*%
D10*
%TO.C,D93*%
X213101000Y-59430600D03*
D11*
X215641000Y-59430600D03*
%TD*%
D16*
%TO.C,R10*%
X37744400Y-66290000D03*
X37744400Y-67310000D03*
%TD*%
D29*
%TO.C,C1*%
X49249800Y-30175200D03*
X52374800Y-30175200D03*
%TD*%
D10*
%TO.C,D8*%
X202941000Y-39110600D03*
D11*
X205481000Y-39110600D03*
%TD*%
D30*
%TO.C,J2*%
X33727600Y-25831600D03*
D31*
X33727600Y-27851600D03*
D32*
X33727600Y-29081600D03*
D33*
X33727600Y-26831600D03*
D34*
X33727600Y-24811600D03*
D35*
X33727600Y-23581600D03*
D36*
X33647600Y-22011600D03*
X29847600Y-22011600D03*
X33647600Y-30651600D03*
X29847600Y-30651600D03*
%TD*%
D10*
%TO.C,D83*%
X237231000Y-91180600D03*
D11*
X237231000Y-88640600D03*
%TD*%
D10*
%TO.C,D80*%
X143251000Y-74670600D03*
D11*
X145791000Y-74670600D03*
%TD*%
D27*
%TO.C,Q1*%
X35534600Y-40254400D03*
X35534600Y-40904400D03*
X35534600Y-41554400D03*
X38194600Y-41554400D03*
X38194600Y-40904400D03*
X38194600Y-40254400D03*
%TD*%
D10*
%TO.C,D31*%
X81021000Y-91180600D03*
D11*
X81021000Y-88640600D03*
%TD*%
D10*
%TO.C,D96*%
X105151000Y-67050600D03*
D11*
X107691000Y-67050600D03*
%TD*%
D15*
%TO.C,R8*%
X34497200Y-33020000D03*
X33477200Y-33020000D03*
%TD*%
D10*
%TO.C,D17*%
X94991000Y-46730600D03*
D11*
X97531000Y-46730600D03*
%TD*%
D10*
%TO.C,D14*%
X94991000Y-23870600D03*
D11*
X97531000Y-23870600D03*
%TD*%
D10*
%TO.C,D61*%
X244851000Y-17520600D03*
D11*
X244851000Y-14980600D03*
%TD*%
D10*
%TO.C,D3*%
X181351000Y-17520600D03*
D11*
X181351000Y-14980600D03*
%TD*%
D19*
%TO.C,R24*%
X47908200Y-34391600D03*
X49733200Y-34391600D03*
%TD*%
D10*
%TO.C,D12*%
X81021000Y-17520600D03*
D11*
X81021000Y-14980600D03*
%TD*%
D10*
%TO.C,D102*%
X105151000Y-46730600D03*
D11*
X107691000Y-46730600D03*
%TD*%
D23*
%TO.C,C2*%
X41554400Y-14705800D03*
X41554400Y-17830800D03*
%TD*%
D15*
%TO.C,R7*%
X36781200Y-25857200D03*
X35761200Y-25857200D03*
%TD*%
D10*
%TO.C,D51*%
X181351000Y-54350600D03*
D11*
X181351000Y-51810600D03*
%TD*%
D10*
%TO.C,D87*%
X129281000Y-91180600D03*
D11*
X129281000Y-88640600D03*
%TD*%
D10*
%TO.C,D4*%
X188971000Y-17520600D03*
D11*
X188971000Y-14980600D03*
%TD*%
D10*
%TO.C,D77*%
X251201000Y-82290600D03*
D11*
X253741000Y-82290600D03*
%TD*%
D10*
%TO.C,D15*%
X94991000Y-31490600D03*
D11*
X97531000Y-31490600D03*
%TD*%
D10*
%TO.C,D79*%
X143251000Y-67050600D03*
D11*
X145791000Y-67050600D03*
%TD*%
D19*
%TO.C,R16*%
X47908200Y-38252400D03*
X49733200Y-38252400D03*
%TD*%
D37*
%TO.C,U2*%
X34574400Y-64680800D03*
X35844400Y-64680800D03*
X37114400Y-64680800D03*
X38384400Y-64680800D03*
X39654400Y-64680800D03*
X40924400Y-64680800D03*
X42194400Y-64680800D03*
X43464400Y-64680800D03*
X44734400Y-64680800D03*
X46004400Y-64680800D03*
X47274400Y-64680800D03*
X48544400Y-64680800D03*
X49814400Y-64680800D03*
X51084400Y-64680800D03*
D38*
X52334400Y-61640800D03*
X52334400Y-60370800D03*
X52334400Y-59100800D03*
X52334400Y-57830800D03*
X52334400Y-56560800D03*
X52334400Y-55290800D03*
X52334400Y-54020800D03*
X52334400Y-52750800D03*
X52334400Y-51480800D03*
X52334400Y-50210800D03*
D37*
X51084400Y-47180800D03*
X49814400Y-47180800D03*
X48544400Y-47180800D03*
X47274400Y-47180800D03*
X46004400Y-47180800D03*
X44734400Y-47180800D03*
X43464400Y-47180800D03*
X42194400Y-47180800D03*
X40924400Y-47180800D03*
X39654400Y-47180800D03*
X38384400Y-47180800D03*
X37114400Y-47180800D03*
X35844400Y-47180800D03*
X34574400Y-47180800D03*
D39*
X41914400Y-56610800D03*
%TD*%
D10*
%TO.C,D43*%
X164841000Y-39110600D03*
D11*
X167381000Y-39110600D03*
%TD*%
D10*
%TO.C,D98*%
X213101000Y-46730600D03*
D11*
X215641000Y-46730600D03*
%TD*%
D40*
%TO.C,U3*%
X45770400Y-23049200D03*
X45770400Y-25349200D03*
X45770400Y-27649200D03*
D41*
X52070400Y-25349200D03*
%TD*%
D42*
%TO.C,C4*%
X43257000Y-30988000D03*
X40132000Y-30988000D03*
%TD*%
D10*
%TO.C,D99*%
X213101000Y-39110600D03*
D11*
X215641000Y-39110600D03*
%TD*%
D10*
%TO.C,D95*%
X105151000Y-74670600D03*
D11*
X107691000Y-74670600D03*
%TD*%
D10*
%TO.C,D39*%
X56891000Y-74670600D03*
D11*
X59431000Y-74670600D03*
%TD*%
D10*
%TO.C,D86*%
X136901000Y-91180600D03*
D11*
X136901000Y-88640600D03*
%TD*%
D10*
%TO.C,D78*%
X143251000Y-59430600D03*
D11*
X145791000Y-59430600D03*
%TD*%
D10*
%TO.C,D9*%
X202941000Y-46730600D03*
D11*
X205481000Y-46730600D03*
%TD*%
D10*
%TO.C,D94*%
X105151000Y-82290600D03*
D11*
X107691000Y-82290600D03*
%TD*%
D10*
%TO.C,D42*%
X164841000Y-46730600D03*
D11*
X167381000Y-46730600D03*
%TD*%
D10*
%TO.C,D13*%
X88641000Y-17520600D03*
D11*
X88641000Y-14980600D03*
%TD*%
D10*
%TO.C,D26*%
X196591000Y-91180600D03*
D11*
X196591000Y-88640600D03*
%TD*%
D15*
%TO.C,R5*%
X36783200Y-26822400D03*
X35763200Y-26822400D03*
%TD*%
D10*
%TO.C,D106*%
X221991000Y-54350600D03*
D11*
X221991000Y-51810600D03*
%TD*%
D10*
%TO.C,D32*%
X73401000Y-91180600D03*
D11*
X73401000Y-88640600D03*
%TD*%
D10*
%TO.C,D19*%
X202941000Y-67050600D03*
D11*
X205481000Y-67050600D03*
%TD*%
D17*
%TO.C,Q4*%
X49733200Y-41300400D03*
X49083200Y-41300400D03*
X48433200Y-41300400D03*
X48433200Y-43960400D03*
X49083200Y-43960400D03*
X49733200Y-43960400D03*
%TD*%
D10*
%TO.C,D108*%
X237231000Y-54350600D03*
D11*
X237231000Y-51810600D03*
%TD*%
D10*
%TO.C,D76*%
X251201000Y-74670600D03*
D11*
X253741000Y-74670600D03*
%TD*%
D10*
%TO.C,D88*%
X121661000Y-91180600D03*
D11*
X121661000Y-88640600D03*
%TD*%
D13*
%TO.C,R22*%
X53441600Y-39471600D03*
X53441600Y-37646600D03*
%TD*%
D17*
%TO.C,Q6*%
X42743600Y-44112800D03*
X43393600Y-44112800D03*
X44043600Y-44112800D03*
X44043600Y-41452800D03*
X43393600Y-41452800D03*
X42743600Y-41452800D03*
%TD*%
D10*
%TO.C,D85*%
X221991000Y-91180600D03*
D11*
X221991000Y-88640600D03*
%TD*%
D16*
%TO.C,R3*%
X39776400Y-43688000D03*
X39776400Y-44708000D03*
%TD*%
D10*
%TO.C,D47*%
X56891000Y-39110600D03*
D11*
X59431000Y-39110600D03*
%TD*%
D10*
%TO.C,D112*%
X129281000Y-54350600D03*
D11*
X129281000Y-51810600D03*
%TD*%
D10*
%TO.C,D7*%
X202941000Y-31490600D03*
D11*
X205481000Y-31490600D03*
%TD*%
D10*
%TO.C,D63*%
X121661000Y-17520600D03*
D11*
X121661000Y-14980600D03*
%TD*%
D12*
%TO.C,R21*%
X41452800Y-44352400D03*
X41452800Y-43332400D03*
%TD*%
M02*
