%TF.GenerationSoftware,KiCad,Pcbnew,7.0.8*%
%TF.CreationDate,2024-09-21T08:52:30-04:00*%
%TF.ProjectId,clock,636c6f63-6b2e-46b6-9963-61645f706362,rev?*%
%TF.SameCoordinates,Original*%
%TF.FileFunction,Drillmap*%
%TF.FilePolarity,Positive*%
%FSLAX45Y45*%
G04 Gerber Fmt 4.5, Leading zero omitted, Abs format (unit mm)*
G04 Created by KiCad (PCBNEW 7.0.8) date 2024-09-21 08:52:30*
%MOMM*%
%LPD*%
G01*
G04 APERTURE LIST*
%ADD10C,0.100000*%
%ADD11C,0.200000*%
G04 APERTURE END LIST*
D10*
X2670280Y-1200000D02*
X25773560Y-1200000D01*
X25773560Y-9500000D01*
X2670280Y-9500000D01*
X2670280Y-1200000D01*
X25600000Y-1700000D02*
G75*
G03*
X25600000Y-1700000I-300000J0D01*
G01*
X3400000Y-8900000D02*
G75*
G03*
X3400000Y-8900000I-300000J0D01*
G01*
X3400000Y-1700000D02*
G75*
G03*
X3400000Y-1700000I-300000J0D01*
G01*
X25600000Y-8900000D02*
G75*
G03*
X25600000Y-8900000I-300000J0D01*
G01*
D11*
X2926057Y-9816484D02*
X2926057Y-9616484D01*
X2926057Y-9616484D02*
X2973676Y-9616484D01*
X2973676Y-9616484D02*
X3002247Y-9626008D01*
X3002247Y-9626008D02*
X3021295Y-9645055D01*
X3021295Y-9645055D02*
X3030819Y-9664103D01*
X3030819Y-9664103D02*
X3040342Y-9702198D01*
X3040342Y-9702198D02*
X3040342Y-9730770D01*
X3040342Y-9730770D02*
X3030819Y-9768865D01*
X3030819Y-9768865D02*
X3021295Y-9787912D01*
X3021295Y-9787912D02*
X3002247Y-9806960D01*
X3002247Y-9806960D02*
X2973676Y-9816484D01*
X2973676Y-9816484D02*
X2926057Y-9816484D01*
X3126057Y-9816484D02*
X3126057Y-9683150D01*
X3126057Y-9721246D02*
X3135581Y-9702198D01*
X3135581Y-9702198D02*
X3145104Y-9692674D01*
X3145104Y-9692674D02*
X3164152Y-9683150D01*
X3164152Y-9683150D02*
X3183200Y-9683150D01*
X3249866Y-9816484D02*
X3249866Y-9683150D01*
X3249866Y-9616484D02*
X3240342Y-9626008D01*
X3240342Y-9626008D02*
X3249866Y-9635531D01*
X3249866Y-9635531D02*
X3259390Y-9626008D01*
X3259390Y-9626008D02*
X3249866Y-9616484D01*
X3249866Y-9616484D02*
X3249866Y-9635531D01*
X3373676Y-9816484D02*
X3354628Y-9806960D01*
X3354628Y-9806960D02*
X3345104Y-9787912D01*
X3345104Y-9787912D02*
X3345104Y-9616484D01*
X3478438Y-9816484D02*
X3459390Y-9806960D01*
X3459390Y-9806960D02*
X3449866Y-9787912D01*
X3449866Y-9787912D02*
X3449866Y-9616484D01*
X3707009Y-9816484D02*
X3707009Y-9616484D01*
X3707009Y-9616484D02*
X3773676Y-9759341D01*
X3773676Y-9759341D02*
X3840342Y-9616484D01*
X3840342Y-9616484D02*
X3840342Y-9816484D01*
X4021295Y-9816484D02*
X4021295Y-9711722D01*
X4021295Y-9711722D02*
X4011771Y-9692674D01*
X4011771Y-9692674D02*
X3992723Y-9683150D01*
X3992723Y-9683150D02*
X3954628Y-9683150D01*
X3954628Y-9683150D02*
X3935581Y-9692674D01*
X4021295Y-9806960D02*
X4002247Y-9816484D01*
X4002247Y-9816484D02*
X3954628Y-9816484D01*
X3954628Y-9816484D02*
X3935581Y-9806960D01*
X3935581Y-9806960D02*
X3926057Y-9787912D01*
X3926057Y-9787912D02*
X3926057Y-9768865D01*
X3926057Y-9768865D02*
X3935581Y-9749817D01*
X3935581Y-9749817D02*
X3954628Y-9740293D01*
X3954628Y-9740293D02*
X4002247Y-9740293D01*
X4002247Y-9740293D02*
X4021295Y-9730770D01*
X4116533Y-9683150D02*
X4116533Y-9883150D01*
X4116533Y-9692674D02*
X4135581Y-9683150D01*
X4135581Y-9683150D02*
X4173676Y-9683150D01*
X4173676Y-9683150D02*
X4192723Y-9692674D01*
X4192723Y-9692674D02*
X4202247Y-9702198D01*
X4202247Y-9702198D02*
X4211771Y-9721246D01*
X4211771Y-9721246D02*
X4211771Y-9778389D01*
X4211771Y-9778389D02*
X4202247Y-9797436D01*
X4202247Y-9797436D02*
X4192723Y-9806960D01*
X4192723Y-9806960D02*
X4173676Y-9816484D01*
X4173676Y-9816484D02*
X4135581Y-9816484D01*
X4135581Y-9816484D02*
X4116533Y-9806960D01*
X4297485Y-9797436D02*
X4307009Y-9806960D01*
X4307009Y-9806960D02*
X4297485Y-9816484D01*
X4297485Y-9816484D02*
X4287962Y-9806960D01*
X4287962Y-9806960D02*
X4297485Y-9797436D01*
X4297485Y-9797436D02*
X4297485Y-9816484D01*
X4297485Y-9692674D02*
X4307009Y-9702198D01*
X4307009Y-9702198D02*
X4297485Y-9711722D01*
X4297485Y-9711722D02*
X4287962Y-9702198D01*
X4287962Y-9702198D02*
X4297485Y-9692674D01*
X4297485Y-9692674D02*
X4297485Y-9711722D01*
M02*
