M48
; DRILL file {KiCad 7.0.8} date 2023 November 29, Wednesday 08:53:46
; FORMAT={-:-/ absolute / inch / decimal}
; #@! TF.CreationDate,2023-11-29T08:53:46-05:00
; #@! TF.GenerationSoftware,Kicad,Pcbnew,7.0.8
; #@! TF.FileFunction,Plated,1,2,PTH
FMAT,2
INCH
; #@! TA.AperFunction,Plated,PTH,ViaDrill
T1C0.0157
; #@! TA.AperFunction,Plated,PTH,ComponentDrill
T2C0.0236
; #@! TA.AperFunction,Plated,PTH,ComponentDrill
T3C0.0354
; #@! TA.AperFunction,Plated,PTH,ComponentDrill
T4C0.0402
%
G90
G05
T1
X0.784Y-1.668
X0.876Y-2.722
X0.8795Y-1.1301
X0.8812Y-1.0908
X0.908Y-2.88
X0.936Y-2.79
X0.972Y-1.0098
X0.976Y-2.624
X0.986Y-2.58
X1.254Y-1.482
X1.27Y-3.46
X1.272Y-2.388
X1.37Y-3.39
X1.416Y-1.464
X1.608Y-2.1
X1.615Y-2.257
X1.628Y-1.948
X1.6428Y-2.5072
X1.646Y-1.636
X1.658Y-0.932
X1.696Y-0.984
X1.726Y-0.928
X1.75Y-2.414
X1.802Y-3.358
X1.892Y-3.328
X2.066Y-0.682
X2.076Y-1.488
X2.1098Y-1.5398
X2.1098Y-1.588
X2.1124Y-2.1429
X2.1171Y-0.7849
X2.136Y-0.604
X2.14Y-1.64
X2.14Y-2.172
T3
X2.2398Y-0.9398
X2.2398Y-1.2398
X2.2398Y-1.5398
X2.2398Y-1.8398
X2.2398Y-2.3398
X2.2398Y-2.6398
X2.2398Y-2.9398
X2.2398Y-3.2398
X2.3398Y-0.9398
X2.3398Y-1.2398
X2.3398Y-1.5398
X2.3398Y-1.8398
X2.3398Y-2.3398
X2.3398Y-2.6398
X2.3398Y-2.9398
X2.3398Y-3.2398
X2.5898Y-0.5898
X2.5898Y-0.6898
X2.5898Y-2.0398
X2.5898Y-2.1398
X2.5898Y-3.4898
X2.5898Y-3.5898
X2.8898Y-0.5898
X2.8898Y-0.6898
X2.8898Y-2.0398
X2.8898Y-2.1398
X2.8898Y-3.4898
X2.8898Y-3.5898
X3.1898Y-0.5898
X3.1898Y-0.6898
X3.1898Y-2.0398
X3.1898Y-2.1398
X3.1898Y-3.4898
X3.1898Y-3.5898
X3.4898Y-0.5898
X3.4898Y-0.6898
X3.4898Y-2.0398
X3.4898Y-2.1398
X3.4898Y-3.4898
X3.4898Y-3.5898
X3.7398Y-0.9398
X3.7398Y-1.2398
X3.7398Y-1.5398
X3.7398Y-1.8398
X3.7398Y-2.3398
X3.7398Y-2.6398
X3.7398Y-2.9398
X3.7398Y-3.2398
X3.8398Y-0.9398
X3.8398Y-1.2398
X3.8398Y-1.5398
X3.8398Y-1.8398
X3.8398Y-2.3398
X3.8398Y-2.6398
X3.8398Y-2.9398
X3.8398Y-3.2398
X4.1398Y-0.9398
X4.1398Y-1.2398
X4.1398Y-1.5398
X4.1398Y-1.8398
X4.1398Y-2.3398
X4.1398Y-2.6398
X4.1398Y-2.9398
X4.1398Y-3.2398
X4.2398Y-0.9398
X4.2398Y-1.2398
X4.2398Y-1.5398
X4.2398Y-1.8398
X4.2398Y-2.3398
X4.2398Y-2.6398
X4.2398Y-2.9398
X4.2398Y-3.2398
X4.4898Y-0.5898
X4.4898Y-0.6898
X4.4898Y-2.0398
X4.4898Y-2.1398
X4.4898Y-3.4898
X4.4898Y-3.5898
X4.7898Y-0.5898
X4.7898Y-0.6898
X4.7898Y-2.0398
X4.7898Y-2.1398
X4.7898Y-3.4898
X4.7898Y-3.5898
X5.0898Y-0.5898
X5.0898Y-0.6898
X5.0898Y-2.0398
X5.0898Y-2.1398
X5.0898Y-3.4898
X5.0898Y-3.5898
X5.3898Y-0.5898
X5.3898Y-0.6898
X5.3898Y-2.0398
X5.3898Y-2.1398
X5.3898Y-3.4898
X5.3898Y-3.5898
X5.6398Y-0.9398
X5.6398Y-1.2398
X5.6398Y-1.5398
X5.6398Y-1.8398
X5.6398Y-2.3398
X5.6398Y-2.6398
X5.6398Y-2.9398
X5.6398Y-3.2398
X5.7398Y-0.9398
X5.7398Y-1.2398
X5.7398Y-1.5398
X5.7398Y-1.8398
X5.7398Y-2.3398
X5.7398Y-2.6398
X5.7398Y-2.9398
X5.7398Y-3.2398
X6.4898Y-0.9398
X6.4898Y-1.2398
X6.4898Y-1.5398
X6.4898Y-1.8398
X6.4898Y-2.3398
X6.4898Y-2.6398
X6.4898Y-2.9398
X6.4898Y-3.2398
X6.5898Y-0.9398
X6.5898Y-1.2398
X6.5898Y-1.5398
X6.5898Y-1.8398
X6.5898Y-2.3398
X6.5898Y-2.6398
X6.5898Y-2.9398
X6.5898Y-3.2398
X6.8398Y-0.5898
X6.8398Y-0.6898
X6.8398Y-2.0398
X6.8398Y-2.1398
X6.8398Y-3.4898
X6.8398Y-3.5898
X7.1398Y-0.5898
X7.1398Y-0.6898
X7.1398Y-2.0398
X7.1398Y-2.1398
X7.1398Y-3.4898
X7.1398Y-3.5898
X7.4398Y-0.5898
X7.4398Y-0.6898
X7.4398Y-2.0398
X7.4398Y-2.1398
X7.4398Y-3.4898
X7.4398Y-3.5898
X7.7398Y-0.5898
X7.7398Y-0.6898
X7.7398Y-2.0398
X7.7398Y-2.1398
X7.7398Y-3.4898
X7.7398Y-3.5898
X7.9898Y-0.9398
X7.9898Y-1.2398
X7.9898Y-1.5398
X7.9898Y-1.8398
X7.9898Y-2.3398
X7.9898Y-2.6398
X7.9898Y-2.9398
X7.9898Y-3.2398
X8.0898Y-0.9398
X8.0898Y-1.2398
X8.0898Y-1.5398
X8.0898Y-1.8398
X8.0898Y-2.3398
X8.0898Y-2.6398
X8.0898Y-2.9398
X8.0898Y-3.2398
X8.3898Y-0.9398
X8.3898Y-1.2398
X8.3898Y-1.5398
X8.3898Y-1.8398
X8.3898Y-2.3398
X8.3898Y-2.6398
X8.3898Y-2.9398
X8.3898Y-3.2398
X8.4898Y-0.9398
X8.4898Y-1.2398
X8.4898Y-1.5398
X8.4898Y-1.8398
X8.4898Y-2.3398
X8.4898Y-2.6398
X8.4898Y-2.9398
X8.4898Y-3.2398
X8.7398Y-0.5898
X8.7398Y-0.6898
X8.7398Y-2.0398
X8.7398Y-2.1398
X8.7398Y-3.4898
X8.7398Y-3.5898
X9.0398Y-0.5898
X9.0398Y-0.6898
X9.0398Y-2.0398
X9.0398Y-2.1398
X9.0398Y-3.4898
X9.0398Y-3.5898
X9.3398Y-0.5898
X9.3398Y-0.6898
X9.3398Y-2.0398
X9.3398Y-2.1398
X9.3398Y-3.4898
X9.3398Y-3.5898
X9.6398Y-0.5898
X9.6398Y-0.6898
X9.6398Y-2.0398
X9.6398Y-2.1398
X9.6398Y-3.4898
X9.6398Y-3.5898
X9.8898Y-0.9398
X9.8898Y-1.2398
X9.8898Y-1.5398
X9.8898Y-1.8398
X9.8898Y-2.3398
X9.8898Y-2.6398
X9.8898Y-2.9398
X9.8898Y-3.2398
X9.9898Y-0.9398
X9.9898Y-1.2398
X9.9898Y-1.5398
X9.9898Y-1.8398
X9.9898Y-2.3398
X9.9898Y-2.6398
X9.9898Y-2.9398
X9.9898Y-3.2398
T4
X1.104Y-0.564
X1.104Y-0.664
X1.104Y-0.764
X1.104Y-0.864
X1.104Y-0.964
X1.104Y-1.064
X1.104Y-1.164
X1.104Y-1.264
X1.104Y-1.364
X1.104Y-1.464
X1.104Y-1.564
X1.104Y-1.664
X1.104Y-1.764
X1.104Y-1.864
X1.104Y-1.964
X1.104Y-2.064
X1.104Y-2.164
X1.104Y-2.264
X1.104Y-2.364
X1.104Y-2.464
X1.354Y-2.4549
X1.454Y-2.4549
X1.554Y-2.4549
X1.804Y-0.564
X1.804Y-0.664
X1.804Y-0.764
X1.804Y-0.864
X1.804Y-0.964
X1.804Y-1.064
X1.804Y-1.164
X1.804Y-1.264
X1.804Y-1.364
X1.804Y-1.464
X1.804Y-1.564
X1.804Y-1.664
X1.804Y-1.764
X1.804Y-1.864
X1.804Y-1.964
X1.804Y-2.064
X1.804Y-2.164
X1.804Y-2.264
X1.804Y-2.364
X1.804Y-2.464
T2
G00X0.7831Y-0.94
M15
G01X0.7594Y-0.94
M16
G05
G00X0.7831Y-1.2802
M15
G01X0.7594Y-1.2802
M16
G05
G00X0.9327Y-0.94
M15
G01X0.909Y-0.94
M16
G05
G00X0.9327Y-1.2802
M15
G01X0.909Y-1.2802
M16
G05
T0
M30
