%TF.GenerationSoftware,KiCad,Pcbnew,7.0.8*%
%TF.CreationDate,2023-11-29T08:53:45-05:00*%
%TF.ProjectId,clock,636c6f63-6b2e-46b6-9963-61645f706362,rev?*%
%TF.SameCoordinates,Original*%
%TF.FileFunction,Legend,Top*%
%TF.FilePolarity,Positive*%
%FSLAX46Y46*%
G04 Gerber Fmt 4.6, Leading zero omitted, Abs format (unit mm)*
G04 Created by KiCad (PCBNEW 7.0.8) date 2023-11-29 08:53:45*
%MOMM*%
%LPD*%
G01*
G04 APERTURE LIST*
%ADD10C,3.377000*%
%ADD11C,0.150000*%
%ADD12C,0.400000*%
%ADD13C,0.120000*%
G04 APERTURE END LIST*
D10*
X156825500Y-35518600D02*
G75*
G03*
X156825500Y-35518600I-1688500J0D01*
G01*
X156825500Y-71078600D02*
G75*
G03*
X156825500Y-71078600I-1688500J0D01*
G01*
D11*
X35337979Y-93443419D02*
X35337979Y-92443419D01*
X35337979Y-92443419D02*
X35576074Y-92443419D01*
X35576074Y-92443419D02*
X35718931Y-92491038D01*
X35718931Y-92491038D02*
X35814169Y-92586276D01*
X35814169Y-92586276D02*
X35861788Y-92681514D01*
X35861788Y-92681514D02*
X35909407Y-92871990D01*
X35909407Y-92871990D02*
X35909407Y-93014847D01*
X35909407Y-93014847D02*
X35861788Y-93205323D01*
X35861788Y-93205323D02*
X35814169Y-93300561D01*
X35814169Y-93300561D02*
X35718931Y-93395800D01*
X35718931Y-93395800D02*
X35576074Y-93443419D01*
X35576074Y-93443419D02*
X35337979Y-93443419D01*
X36528455Y-92443419D02*
X36718931Y-92443419D01*
X36718931Y-92443419D02*
X36814169Y-92491038D01*
X36814169Y-92491038D02*
X36909407Y-92586276D01*
X36909407Y-92586276D02*
X36957026Y-92776752D01*
X36957026Y-92776752D02*
X36957026Y-93110085D01*
X36957026Y-93110085D02*
X36909407Y-93300561D01*
X36909407Y-93300561D02*
X36814169Y-93395800D01*
X36814169Y-93395800D02*
X36718931Y-93443419D01*
X36718931Y-93443419D02*
X36528455Y-93443419D01*
X36528455Y-93443419D02*
X36433217Y-93395800D01*
X36433217Y-93395800D02*
X36337979Y-93300561D01*
X36337979Y-93300561D02*
X36290360Y-93110085D01*
X36290360Y-93110085D02*
X36290360Y-92776752D01*
X36290360Y-92776752D02*
X36337979Y-92586276D01*
X36337979Y-92586276D02*
X36433217Y-92491038D01*
X36433217Y-92491038D02*
X36528455Y-92443419D01*
X37290360Y-92443419D02*
X37528455Y-93443419D01*
X37528455Y-93443419D02*
X37718931Y-92729133D01*
X37718931Y-92729133D02*
X37909407Y-93443419D01*
X37909407Y-93443419D02*
X38147503Y-92443419D01*
X38528455Y-93443419D02*
X38528455Y-92443419D01*
X38528455Y-92443419D02*
X39099883Y-93443419D01*
X39099883Y-93443419D02*
X39099883Y-92443419D01*
X47733179Y-81302219D02*
X47733179Y-80302219D01*
X47733179Y-80302219D02*
X47971274Y-80302219D01*
X47971274Y-80302219D02*
X48114131Y-80349838D01*
X48114131Y-80349838D02*
X48209369Y-80445076D01*
X48209369Y-80445076D02*
X48256988Y-80540314D01*
X48256988Y-80540314D02*
X48304607Y-80730790D01*
X48304607Y-80730790D02*
X48304607Y-80873647D01*
X48304607Y-80873647D02*
X48256988Y-81064123D01*
X48256988Y-81064123D02*
X48209369Y-81159361D01*
X48209369Y-81159361D02*
X48114131Y-81254600D01*
X48114131Y-81254600D02*
X47971274Y-81302219D01*
X47971274Y-81302219D02*
X47733179Y-81302219D01*
X48685560Y-81254600D02*
X48828417Y-81302219D01*
X48828417Y-81302219D02*
X49066512Y-81302219D01*
X49066512Y-81302219D02*
X49161750Y-81254600D01*
X49161750Y-81254600D02*
X49209369Y-81206980D01*
X49209369Y-81206980D02*
X49256988Y-81111742D01*
X49256988Y-81111742D02*
X49256988Y-81016504D01*
X49256988Y-81016504D02*
X49209369Y-80921266D01*
X49209369Y-80921266D02*
X49161750Y-80873647D01*
X49161750Y-80873647D02*
X49066512Y-80826028D01*
X49066512Y-80826028D02*
X48876036Y-80778409D01*
X48876036Y-80778409D02*
X48780798Y-80730790D01*
X48780798Y-80730790D02*
X48733179Y-80683171D01*
X48733179Y-80683171D02*
X48685560Y-80587933D01*
X48685560Y-80587933D02*
X48685560Y-80492695D01*
X48685560Y-80492695D02*
X48733179Y-80397457D01*
X48733179Y-80397457D02*
X48780798Y-80349838D01*
X48780798Y-80349838D02*
X48876036Y-80302219D01*
X48876036Y-80302219D02*
X49114131Y-80302219D01*
X49114131Y-80302219D02*
X49256988Y-80349838D01*
X49542703Y-80302219D02*
X50114131Y-80302219D01*
X49828417Y-81302219D02*
X49828417Y-80302219D01*
X51161751Y-81016504D02*
X51637941Y-81016504D01*
X51066513Y-81302219D02*
X51399846Y-80302219D01*
X51399846Y-80302219D02*
X51733179Y-81302219D01*
X52066513Y-81302219D02*
X52066513Y-80302219D01*
X52066513Y-80302219D02*
X52304608Y-80302219D01*
X52304608Y-80302219D02*
X52447465Y-80349838D01*
X52447465Y-80349838D02*
X52542703Y-80445076D01*
X52542703Y-80445076D02*
X52590322Y-80540314D01*
X52590322Y-80540314D02*
X52637941Y-80730790D01*
X52637941Y-80730790D02*
X52637941Y-80873647D01*
X52637941Y-80873647D02*
X52590322Y-81064123D01*
X52590322Y-81064123D02*
X52542703Y-81159361D01*
X52542703Y-81159361D02*
X52447465Y-81254600D01*
X52447465Y-81254600D02*
X52304608Y-81302219D01*
X52304608Y-81302219D02*
X52066513Y-81302219D01*
X53352227Y-80302219D02*
X53352227Y-81016504D01*
X53352227Y-81016504D02*
X53304608Y-81159361D01*
X53304608Y-81159361D02*
X53209370Y-81254600D01*
X53209370Y-81254600D02*
X53066513Y-81302219D01*
X53066513Y-81302219D02*
X52971275Y-81302219D01*
D12*
X26665255Y-69196704D02*
X27427159Y-69196704D01*
X26950969Y-68530038D02*
X26950969Y-70244323D01*
X26950969Y-70244323D02*
X27046207Y-70434800D01*
X27046207Y-70434800D02*
X27236683Y-70530038D01*
X27236683Y-70530038D02*
X27427159Y-70530038D01*
X28093826Y-70530038D02*
X28093826Y-68530038D01*
X28950969Y-70530038D02*
X28950969Y-69482419D01*
X28950969Y-69482419D02*
X28855731Y-69291942D01*
X28855731Y-69291942D02*
X28665255Y-69196704D01*
X28665255Y-69196704D02*
X28379540Y-69196704D01*
X28379540Y-69196704D02*
X28189064Y-69291942D01*
X28189064Y-69291942D02*
X28093826Y-69387180D01*
X30665255Y-70434800D02*
X30474779Y-70530038D01*
X30474779Y-70530038D02*
X30093826Y-70530038D01*
X30093826Y-70530038D02*
X29903350Y-70434800D01*
X29903350Y-70434800D02*
X29808112Y-70244323D01*
X29808112Y-70244323D02*
X29808112Y-69482419D01*
X29808112Y-69482419D02*
X29903350Y-69291942D01*
X29903350Y-69291942D02*
X30093826Y-69196704D01*
X30093826Y-69196704D02*
X30474779Y-69196704D01*
X30474779Y-69196704D02*
X30665255Y-69291942D01*
X30665255Y-69291942D02*
X30760493Y-69482419D01*
X30760493Y-69482419D02*
X30760493Y-69672895D01*
X30760493Y-69672895D02*
X29808112Y-69863371D01*
X33141446Y-70530038D02*
X33141446Y-69196704D01*
X33141446Y-69387180D02*
X33236684Y-69291942D01*
X33236684Y-69291942D02*
X33427160Y-69196704D01*
X33427160Y-69196704D02*
X33712875Y-69196704D01*
X33712875Y-69196704D02*
X33903351Y-69291942D01*
X33903351Y-69291942D02*
X33998589Y-69482419D01*
X33998589Y-69482419D02*
X33998589Y-70530038D01*
X33998589Y-69482419D02*
X34093827Y-69291942D01*
X34093827Y-69291942D02*
X34284303Y-69196704D01*
X34284303Y-69196704D02*
X34570017Y-69196704D01*
X34570017Y-69196704D02*
X34760494Y-69291942D01*
X34760494Y-69291942D02*
X34855732Y-69482419D01*
X34855732Y-69482419D02*
X34855732Y-70530038D01*
X36093827Y-70530038D02*
X35903351Y-70434800D01*
X35903351Y-70434800D02*
X35808113Y-70339561D01*
X35808113Y-70339561D02*
X35712875Y-70149085D01*
X35712875Y-70149085D02*
X35712875Y-69577657D01*
X35712875Y-69577657D02*
X35808113Y-69387180D01*
X35808113Y-69387180D02*
X35903351Y-69291942D01*
X35903351Y-69291942D02*
X36093827Y-69196704D01*
X36093827Y-69196704D02*
X36379542Y-69196704D01*
X36379542Y-69196704D02*
X36570018Y-69291942D01*
X36570018Y-69291942D02*
X36665256Y-69387180D01*
X36665256Y-69387180D02*
X36760494Y-69577657D01*
X36760494Y-69577657D02*
X36760494Y-70149085D01*
X36760494Y-70149085D02*
X36665256Y-70339561D01*
X36665256Y-70339561D02*
X36570018Y-70434800D01*
X36570018Y-70434800D02*
X36379542Y-70530038D01*
X36379542Y-70530038D02*
X36093827Y-70530038D01*
X37522399Y-70434800D02*
X37712875Y-70530038D01*
X37712875Y-70530038D02*
X38093827Y-70530038D01*
X38093827Y-70530038D02*
X38284304Y-70434800D01*
X38284304Y-70434800D02*
X38379542Y-70244323D01*
X38379542Y-70244323D02*
X38379542Y-70149085D01*
X38379542Y-70149085D02*
X38284304Y-69958609D01*
X38284304Y-69958609D02*
X38093827Y-69863371D01*
X38093827Y-69863371D02*
X37808113Y-69863371D01*
X37808113Y-69863371D02*
X37617637Y-69768133D01*
X37617637Y-69768133D02*
X37522399Y-69577657D01*
X37522399Y-69577657D02*
X37522399Y-69482419D01*
X37522399Y-69482419D02*
X37617637Y-69291942D01*
X37617637Y-69291942D02*
X37808113Y-69196704D01*
X37808113Y-69196704D02*
X38093827Y-69196704D01*
X38093827Y-69196704D02*
X38284304Y-69291942D01*
X38950971Y-69196704D02*
X39712875Y-69196704D01*
X39236685Y-68530038D02*
X39236685Y-70244323D01*
X39236685Y-70244323D02*
X39331923Y-70434800D01*
X39331923Y-70434800D02*
X39522399Y-70530038D01*
X39522399Y-70530038D02*
X39712875Y-70530038D01*
X42760495Y-69196704D02*
X42760495Y-70530038D01*
X41903352Y-69196704D02*
X41903352Y-70244323D01*
X41903352Y-70244323D02*
X41998590Y-70434800D01*
X41998590Y-70434800D02*
X42189066Y-70530038D01*
X42189066Y-70530038D02*
X42474781Y-70530038D01*
X42474781Y-70530038D02*
X42665257Y-70434800D01*
X42665257Y-70434800D02*
X42760495Y-70339561D01*
X43617638Y-70434800D02*
X43808114Y-70530038D01*
X43808114Y-70530038D02*
X44189066Y-70530038D01*
X44189066Y-70530038D02*
X44379543Y-70434800D01*
X44379543Y-70434800D02*
X44474781Y-70244323D01*
X44474781Y-70244323D02*
X44474781Y-70149085D01*
X44474781Y-70149085D02*
X44379543Y-69958609D01*
X44379543Y-69958609D02*
X44189066Y-69863371D01*
X44189066Y-69863371D02*
X43903352Y-69863371D01*
X43903352Y-69863371D02*
X43712876Y-69768133D01*
X43712876Y-69768133D02*
X43617638Y-69577657D01*
X43617638Y-69577657D02*
X43617638Y-69482419D01*
X43617638Y-69482419D02*
X43712876Y-69291942D01*
X43712876Y-69291942D02*
X43903352Y-69196704D01*
X43903352Y-69196704D02*
X44189066Y-69196704D01*
X44189066Y-69196704D02*
X44379543Y-69291942D01*
X46093829Y-70434800D02*
X45903353Y-70530038D01*
X45903353Y-70530038D02*
X45522400Y-70530038D01*
X45522400Y-70530038D02*
X45331924Y-70434800D01*
X45331924Y-70434800D02*
X45236686Y-70244323D01*
X45236686Y-70244323D02*
X45236686Y-69482419D01*
X45236686Y-69482419D02*
X45331924Y-69291942D01*
X45331924Y-69291942D02*
X45522400Y-69196704D01*
X45522400Y-69196704D02*
X45903353Y-69196704D01*
X45903353Y-69196704D02*
X46093829Y-69291942D01*
X46093829Y-69291942D02*
X46189067Y-69482419D01*
X46189067Y-69482419D02*
X46189067Y-69672895D01*
X46189067Y-69672895D02*
X45236686Y-69863371D01*
X47331924Y-70530038D02*
X47141448Y-70434800D01*
X47141448Y-70434800D02*
X47046210Y-70244323D01*
X47046210Y-70244323D02*
X47046210Y-68530038D01*
X48855734Y-70434800D02*
X48665258Y-70530038D01*
X48665258Y-70530038D02*
X48284305Y-70530038D01*
X48284305Y-70530038D02*
X48093829Y-70434800D01*
X48093829Y-70434800D02*
X47998591Y-70244323D01*
X47998591Y-70244323D02*
X47998591Y-69482419D01*
X47998591Y-69482419D02*
X48093829Y-69291942D01*
X48093829Y-69291942D02*
X48284305Y-69196704D01*
X48284305Y-69196704D02*
X48665258Y-69196704D01*
X48665258Y-69196704D02*
X48855734Y-69291942D01*
X48855734Y-69291942D02*
X48950972Y-69482419D01*
X48950972Y-69482419D02*
X48950972Y-69672895D01*
X48950972Y-69672895D02*
X47998591Y-69863371D01*
X49712877Y-70434800D02*
X49903353Y-70530038D01*
X49903353Y-70530038D02*
X50284305Y-70530038D01*
X50284305Y-70530038D02*
X50474782Y-70434800D01*
X50474782Y-70434800D02*
X50570020Y-70244323D01*
X50570020Y-70244323D02*
X50570020Y-70149085D01*
X50570020Y-70149085D02*
X50474782Y-69958609D01*
X50474782Y-69958609D02*
X50284305Y-69863371D01*
X50284305Y-69863371D02*
X49998591Y-69863371D01*
X49998591Y-69863371D02*
X49808115Y-69768133D01*
X49808115Y-69768133D02*
X49712877Y-69577657D01*
X49712877Y-69577657D02*
X49712877Y-69482419D01*
X49712877Y-69482419D02*
X49808115Y-69291942D01*
X49808115Y-69291942D02*
X49998591Y-69196704D01*
X49998591Y-69196704D02*
X50284305Y-69196704D01*
X50284305Y-69196704D02*
X50474782Y-69291942D01*
X51331925Y-70434800D02*
X51522401Y-70530038D01*
X51522401Y-70530038D02*
X51903353Y-70530038D01*
X51903353Y-70530038D02*
X52093830Y-70434800D01*
X52093830Y-70434800D02*
X52189068Y-70244323D01*
X52189068Y-70244323D02*
X52189068Y-70149085D01*
X52189068Y-70149085D02*
X52093830Y-69958609D01*
X52093830Y-69958609D02*
X51903353Y-69863371D01*
X51903353Y-69863371D02*
X51617639Y-69863371D01*
X51617639Y-69863371D02*
X51427163Y-69768133D01*
X51427163Y-69768133D02*
X51331925Y-69577657D01*
X51331925Y-69577657D02*
X51331925Y-69482419D01*
X51331925Y-69482419D02*
X51427163Y-69291942D01*
X51427163Y-69291942D02*
X51617639Y-69196704D01*
X51617639Y-69196704D02*
X51903353Y-69196704D01*
X51903353Y-69196704D02*
X52093830Y-69291942D01*
X26903351Y-73654800D02*
X26712875Y-73750038D01*
X26712875Y-73750038D02*
X26331922Y-73750038D01*
X26331922Y-73750038D02*
X26141446Y-73654800D01*
X26141446Y-73654800D02*
X26046208Y-73559561D01*
X26046208Y-73559561D02*
X25950970Y-73369085D01*
X25950970Y-73369085D02*
X25950970Y-72797657D01*
X25950970Y-72797657D02*
X26046208Y-72607180D01*
X26046208Y-72607180D02*
X26141446Y-72511942D01*
X26141446Y-72511942D02*
X26331922Y-72416704D01*
X26331922Y-72416704D02*
X26712875Y-72416704D01*
X26712875Y-72416704D02*
X26903351Y-72511942D01*
X28046208Y-73750038D02*
X27855732Y-73654800D01*
X27855732Y-73654800D02*
X27760494Y-73464323D01*
X27760494Y-73464323D02*
X27760494Y-71750038D01*
X29093827Y-73750038D02*
X28903351Y-73654800D01*
X28903351Y-73654800D02*
X28808113Y-73559561D01*
X28808113Y-73559561D02*
X28712875Y-73369085D01*
X28712875Y-73369085D02*
X28712875Y-72797657D01*
X28712875Y-72797657D02*
X28808113Y-72607180D01*
X28808113Y-72607180D02*
X28903351Y-72511942D01*
X28903351Y-72511942D02*
X29093827Y-72416704D01*
X29093827Y-72416704D02*
X29379542Y-72416704D01*
X29379542Y-72416704D02*
X29570018Y-72511942D01*
X29570018Y-72511942D02*
X29665256Y-72607180D01*
X29665256Y-72607180D02*
X29760494Y-72797657D01*
X29760494Y-72797657D02*
X29760494Y-73369085D01*
X29760494Y-73369085D02*
X29665256Y-73559561D01*
X29665256Y-73559561D02*
X29570018Y-73654800D01*
X29570018Y-73654800D02*
X29379542Y-73750038D01*
X29379542Y-73750038D02*
X29093827Y-73750038D01*
X31474780Y-73654800D02*
X31284304Y-73750038D01*
X31284304Y-73750038D02*
X30903351Y-73750038D01*
X30903351Y-73750038D02*
X30712875Y-73654800D01*
X30712875Y-73654800D02*
X30617637Y-73559561D01*
X30617637Y-73559561D02*
X30522399Y-73369085D01*
X30522399Y-73369085D02*
X30522399Y-72797657D01*
X30522399Y-72797657D02*
X30617637Y-72607180D01*
X30617637Y-72607180D02*
X30712875Y-72511942D01*
X30712875Y-72511942D02*
X30903351Y-72416704D01*
X30903351Y-72416704D02*
X31284304Y-72416704D01*
X31284304Y-72416704D02*
X31474780Y-72511942D01*
X32331923Y-73750038D02*
X32331923Y-71750038D01*
X32522399Y-72988133D02*
X33093828Y-73750038D01*
X33093828Y-72416704D02*
X32331923Y-73178609D01*
X35474781Y-73750038D02*
X35474781Y-72416704D01*
X35474781Y-71750038D02*
X35379543Y-71845276D01*
X35379543Y-71845276D02*
X35474781Y-71940514D01*
X35474781Y-71940514D02*
X35570019Y-71845276D01*
X35570019Y-71845276D02*
X35474781Y-71750038D01*
X35474781Y-71750038D02*
X35474781Y-71940514D01*
X36427162Y-72416704D02*
X36427162Y-73750038D01*
X36427162Y-72607180D02*
X36522400Y-72511942D01*
X36522400Y-72511942D02*
X36712876Y-72416704D01*
X36712876Y-72416704D02*
X36998591Y-72416704D01*
X36998591Y-72416704D02*
X37189067Y-72511942D01*
X37189067Y-72511942D02*
X37284305Y-72702419D01*
X37284305Y-72702419D02*
X37284305Y-73750038D01*
X39474782Y-72416704D02*
X40236686Y-72416704D01*
X39760496Y-71750038D02*
X39760496Y-73464323D01*
X39760496Y-73464323D02*
X39855734Y-73654800D01*
X39855734Y-73654800D02*
X40046210Y-73750038D01*
X40046210Y-73750038D02*
X40236686Y-73750038D01*
X40903353Y-73750038D02*
X40903353Y-71750038D01*
X41760496Y-73750038D02*
X41760496Y-72702419D01*
X41760496Y-72702419D02*
X41665258Y-72511942D01*
X41665258Y-72511942D02*
X41474782Y-72416704D01*
X41474782Y-72416704D02*
X41189067Y-72416704D01*
X41189067Y-72416704D02*
X40998591Y-72511942D01*
X40998591Y-72511942D02*
X40903353Y-72607180D01*
X43474782Y-73654800D02*
X43284306Y-73750038D01*
X43284306Y-73750038D02*
X42903353Y-73750038D01*
X42903353Y-73750038D02*
X42712877Y-73654800D01*
X42712877Y-73654800D02*
X42617639Y-73464323D01*
X42617639Y-73464323D02*
X42617639Y-72702419D01*
X42617639Y-72702419D02*
X42712877Y-72511942D01*
X42712877Y-72511942D02*
X42903353Y-72416704D01*
X42903353Y-72416704D02*
X43284306Y-72416704D01*
X43284306Y-72416704D02*
X43474782Y-72511942D01*
X43474782Y-72511942D02*
X43570020Y-72702419D01*
X43570020Y-72702419D02*
X43570020Y-72892895D01*
X43570020Y-72892895D02*
X42617639Y-73083371D01*
X45760497Y-72416704D02*
X46141449Y-73750038D01*
X46141449Y-73750038D02*
X46522402Y-72797657D01*
X46522402Y-72797657D02*
X46903354Y-73750038D01*
X46903354Y-73750038D02*
X47284306Y-72416704D01*
X48331925Y-73750038D02*
X48141449Y-73654800D01*
X48141449Y-73654800D02*
X48046211Y-73559561D01*
X48046211Y-73559561D02*
X47950973Y-73369085D01*
X47950973Y-73369085D02*
X47950973Y-72797657D01*
X47950973Y-72797657D02*
X48046211Y-72607180D01*
X48046211Y-72607180D02*
X48141449Y-72511942D01*
X48141449Y-72511942D02*
X48331925Y-72416704D01*
X48331925Y-72416704D02*
X48617640Y-72416704D01*
X48617640Y-72416704D02*
X48808116Y-72511942D01*
X48808116Y-72511942D02*
X48903354Y-72607180D01*
X48903354Y-72607180D02*
X48998592Y-72797657D01*
X48998592Y-72797657D02*
X48998592Y-73369085D01*
X48998592Y-73369085D02*
X48903354Y-73559561D01*
X48903354Y-73559561D02*
X48808116Y-73654800D01*
X48808116Y-73654800D02*
X48617640Y-73750038D01*
X48617640Y-73750038D02*
X48331925Y-73750038D01*
X49855735Y-73750038D02*
X49855735Y-72416704D01*
X49855735Y-72797657D02*
X49950973Y-72607180D01*
X49950973Y-72607180D02*
X50046211Y-72511942D01*
X50046211Y-72511942D02*
X50236687Y-72416704D01*
X50236687Y-72416704D02*
X50427164Y-72416704D01*
X51379544Y-73750038D02*
X51189068Y-73654800D01*
X51189068Y-73654800D02*
X51093830Y-73464323D01*
X51093830Y-73464323D02*
X51093830Y-71750038D01*
X52998592Y-73750038D02*
X52998592Y-71750038D01*
X52998592Y-73654800D02*
X52808116Y-73750038D01*
X52808116Y-73750038D02*
X52427163Y-73750038D01*
X52427163Y-73750038D02*
X52236687Y-73654800D01*
X52236687Y-73654800D02*
X52141449Y-73559561D01*
X52141449Y-73559561D02*
X52046211Y-73369085D01*
X52046211Y-73369085D02*
X52046211Y-72797657D01*
X52046211Y-72797657D02*
X52141449Y-72607180D01*
X52141449Y-72607180D02*
X52236687Y-72511942D01*
X52236687Y-72511942D02*
X52427163Y-72416704D01*
X52427163Y-72416704D02*
X52808116Y-72416704D01*
X52808116Y-72416704D02*
X52998592Y-72511942D01*
D11*
X42707160Y-93395800D02*
X42850017Y-93443419D01*
X42850017Y-93443419D02*
X43088112Y-93443419D01*
X43088112Y-93443419D02*
X43183350Y-93395800D01*
X43183350Y-93395800D02*
X43230969Y-93348180D01*
X43230969Y-93348180D02*
X43278588Y-93252942D01*
X43278588Y-93252942D02*
X43278588Y-93157704D01*
X43278588Y-93157704D02*
X43230969Y-93062466D01*
X43230969Y-93062466D02*
X43183350Y-93014847D01*
X43183350Y-93014847D02*
X43088112Y-92967228D01*
X43088112Y-92967228D02*
X42897636Y-92919609D01*
X42897636Y-92919609D02*
X42802398Y-92871990D01*
X42802398Y-92871990D02*
X42754779Y-92824371D01*
X42754779Y-92824371D02*
X42707160Y-92729133D01*
X42707160Y-92729133D02*
X42707160Y-92633895D01*
X42707160Y-92633895D02*
X42754779Y-92538657D01*
X42754779Y-92538657D02*
X42802398Y-92491038D01*
X42802398Y-92491038D02*
X42897636Y-92443419D01*
X42897636Y-92443419D02*
X43135731Y-92443419D01*
X43135731Y-92443419D02*
X43278588Y-92491038D01*
X43707160Y-92919609D02*
X44040493Y-92919609D01*
X44183350Y-93443419D02*
X43707160Y-93443419D01*
X43707160Y-93443419D02*
X43707160Y-92443419D01*
X43707160Y-92443419D02*
X44183350Y-92443419D01*
X44469065Y-92443419D02*
X45040493Y-92443419D01*
X44754779Y-93443419D02*
X44754779Y-92443419D01*
X35287179Y-81251419D02*
X35287179Y-80251419D01*
X35287179Y-80251419D02*
X35525274Y-80251419D01*
X35525274Y-80251419D02*
X35668131Y-80299038D01*
X35668131Y-80299038D02*
X35763369Y-80394276D01*
X35763369Y-80394276D02*
X35810988Y-80489514D01*
X35810988Y-80489514D02*
X35858607Y-80679990D01*
X35858607Y-80679990D02*
X35858607Y-80822847D01*
X35858607Y-80822847D02*
X35810988Y-81013323D01*
X35810988Y-81013323D02*
X35763369Y-81108561D01*
X35763369Y-81108561D02*
X35668131Y-81203800D01*
X35668131Y-81203800D02*
X35525274Y-81251419D01*
X35525274Y-81251419D02*
X35287179Y-81251419D01*
X36477655Y-80251419D02*
X36668131Y-80251419D01*
X36668131Y-80251419D02*
X36763369Y-80299038D01*
X36763369Y-80299038D02*
X36858607Y-80394276D01*
X36858607Y-80394276D02*
X36906226Y-80584752D01*
X36906226Y-80584752D02*
X36906226Y-80918085D01*
X36906226Y-80918085D02*
X36858607Y-81108561D01*
X36858607Y-81108561D02*
X36763369Y-81203800D01*
X36763369Y-81203800D02*
X36668131Y-81251419D01*
X36668131Y-81251419D02*
X36477655Y-81251419D01*
X36477655Y-81251419D02*
X36382417Y-81203800D01*
X36382417Y-81203800D02*
X36287179Y-81108561D01*
X36287179Y-81108561D02*
X36239560Y-80918085D01*
X36239560Y-80918085D02*
X36239560Y-80584752D01*
X36239560Y-80584752D02*
X36287179Y-80394276D01*
X36287179Y-80394276D02*
X36382417Y-80299038D01*
X36382417Y-80299038D02*
X36477655Y-80251419D01*
X37239560Y-80251419D02*
X37477655Y-81251419D01*
X37477655Y-81251419D02*
X37668131Y-80537133D01*
X37668131Y-80537133D02*
X37858607Y-81251419D01*
X37858607Y-81251419D02*
X38096703Y-80251419D01*
X38477655Y-81251419D02*
X38477655Y-80251419D01*
X38477655Y-80251419D02*
X39049083Y-81251419D01*
X39049083Y-81251419D02*
X39049083Y-80251419D01*
X25946341Y-75022952D02*
X26184436Y-75689619D01*
X26184436Y-75689619D02*
X26422531Y-75022952D01*
X27279674Y-74689619D02*
X26803484Y-74689619D01*
X26803484Y-74689619D02*
X26755865Y-75165809D01*
X26755865Y-75165809D02*
X26803484Y-75118190D01*
X26803484Y-75118190D02*
X26898722Y-75070571D01*
X26898722Y-75070571D02*
X27136817Y-75070571D01*
X27136817Y-75070571D02*
X27232055Y-75118190D01*
X27232055Y-75118190D02*
X27279674Y-75165809D01*
X27279674Y-75165809D02*
X27327293Y-75261047D01*
X27327293Y-75261047D02*
X27327293Y-75499142D01*
X27327293Y-75499142D02*
X27279674Y-75594380D01*
X27279674Y-75594380D02*
X27232055Y-75642000D01*
X27232055Y-75642000D02*
X27136817Y-75689619D01*
X27136817Y-75689619D02*
X26898722Y-75689619D01*
X26898722Y-75689619D02*
X26803484Y-75642000D01*
X26803484Y-75642000D02*
X26755865Y-75594380D01*
X28517770Y-75308666D02*
X29279675Y-75308666D01*
X30517770Y-75689619D02*
X30517770Y-75022952D01*
X30517770Y-75118190D02*
X30565389Y-75070571D01*
X30565389Y-75070571D02*
X30660627Y-75022952D01*
X30660627Y-75022952D02*
X30803484Y-75022952D01*
X30803484Y-75022952D02*
X30898722Y-75070571D01*
X30898722Y-75070571D02*
X30946341Y-75165809D01*
X30946341Y-75165809D02*
X30946341Y-75689619D01*
X30946341Y-75165809D02*
X30993960Y-75070571D01*
X30993960Y-75070571D02*
X31089198Y-75022952D01*
X31089198Y-75022952D02*
X31232055Y-75022952D01*
X31232055Y-75022952D02*
X31327294Y-75070571D01*
X31327294Y-75070571D02*
X31374913Y-75165809D01*
X31374913Y-75165809D02*
X31374913Y-75689619D01*
X31755865Y-75022952D02*
X31993960Y-75689619D01*
X32232055Y-75022952D02*
X31993960Y-75689619D01*
X31993960Y-75689619D02*
X31898722Y-75927714D01*
X31898722Y-75927714D02*
X31851103Y-75975333D01*
X31851103Y-75975333D02*
X31755865Y-76022952D01*
X33803484Y-75642000D02*
X33708246Y-75689619D01*
X33708246Y-75689619D02*
X33517770Y-75689619D01*
X33517770Y-75689619D02*
X33422532Y-75642000D01*
X33422532Y-75642000D02*
X33374913Y-75594380D01*
X33374913Y-75594380D02*
X33327294Y-75499142D01*
X33327294Y-75499142D02*
X33327294Y-75213428D01*
X33327294Y-75213428D02*
X33374913Y-75118190D01*
X33374913Y-75118190D02*
X33422532Y-75070571D01*
X33422532Y-75070571D02*
X33517770Y-75022952D01*
X33517770Y-75022952D02*
X33708246Y-75022952D01*
X33708246Y-75022952D02*
X33803484Y-75070571D01*
X34374913Y-75689619D02*
X34279675Y-75642000D01*
X34279675Y-75642000D02*
X34232056Y-75546761D01*
X34232056Y-75546761D02*
X34232056Y-74689619D01*
X34898723Y-75689619D02*
X34803485Y-75642000D01*
X34803485Y-75642000D02*
X34755866Y-75594380D01*
X34755866Y-75594380D02*
X34708247Y-75499142D01*
X34708247Y-75499142D02*
X34708247Y-75213428D01*
X34708247Y-75213428D02*
X34755866Y-75118190D01*
X34755866Y-75118190D02*
X34803485Y-75070571D01*
X34803485Y-75070571D02*
X34898723Y-75022952D01*
X34898723Y-75022952D02*
X35041580Y-75022952D01*
X35041580Y-75022952D02*
X35136818Y-75070571D01*
X35136818Y-75070571D02*
X35184437Y-75118190D01*
X35184437Y-75118190D02*
X35232056Y-75213428D01*
X35232056Y-75213428D02*
X35232056Y-75499142D01*
X35232056Y-75499142D02*
X35184437Y-75594380D01*
X35184437Y-75594380D02*
X35136818Y-75642000D01*
X35136818Y-75642000D02*
X35041580Y-75689619D01*
X35041580Y-75689619D02*
X34898723Y-75689619D01*
X36089199Y-75642000D02*
X35993961Y-75689619D01*
X35993961Y-75689619D02*
X35803485Y-75689619D01*
X35803485Y-75689619D02*
X35708247Y-75642000D01*
X35708247Y-75642000D02*
X35660628Y-75594380D01*
X35660628Y-75594380D02*
X35613009Y-75499142D01*
X35613009Y-75499142D02*
X35613009Y-75213428D01*
X35613009Y-75213428D02*
X35660628Y-75118190D01*
X35660628Y-75118190D02*
X35708247Y-75070571D01*
X35708247Y-75070571D02*
X35803485Y-75022952D01*
X35803485Y-75022952D02*
X35993961Y-75022952D01*
X35993961Y-75022952D02*
X36089199Y-75070571D01*
X36517771Y-75689619D02*
X36517771Y-74689619D01*
X36613009Y-75308666D02*
X36898723Y-75689619D01*
X36898723Y-75022952D02*
X36517771Y-75403904D01*
X38089200Y-75689619D02*
X38089200Y-75022952D01*
X38089200Y-74689619D02*
X38041581Y-74737238D01*
X38041581Y-74737238D02*
X38089200Y-74784857D01*
X38089200Y-74784857D02*
X38136819Y-74737238D01*
X38136819Y-74737238D02*
X38089200Y-74689619D01*
X38089200Y-74689619D02*
X38089200Y-74784857D01*
X38517771Y-75642000D02*
X38613009Y-75689619D01*
X38613009Y-75689619D02*
X38803485Y-75689619D01*
X38803485Y-75689619D02*
X38898723Y-75642000D01*
X38898723Y-75642000D02*
X38946342Y-75546761D01*
X38946342Y-75546761D02*
X38946342Y-75499142D01*
X38946342Y-75499142D02*
X38898723Y-75403904D01*
X38898723Y-75403904D02*
X38803485Y-75356285D01*
X38803485Y-75356285D02*
X38660628Y-75356285D01*
X38660628Y-75356285D02*
X38565390Y-75308666D01*
X38565390Y-75308666D02*
X38517771Y-75213428D01*
X38517771Y-75213428D02*
X38517771Y-75165809D01*
X38517771Y-75165809D02*
X38565390Y-75070571D01*
X38565390Y-75070571D02*
X38660628Y-75022952D01*
X38660628Y-75022952D02*
X38803485Y-75022952D01*
X38803485Y-75022952D02*
X38898723Y-75070571D01*
X40136819Y-75689619D02*
X40136819Y-74689619D01*
X40136819Y-75070571D02*
X40232057Y-75022952D01*
X40232057Y-75022952D02*
X40422533Y-75022952D01*
X40422533Y-75022952D02*
X40517771Y-75070571D01*
X40517771Y-75070571D02*
X40565390Y-75118190D01*
X40565390Y-75118190D02*
X40613009Y-75213428D01*
X40613009Y-75213428D02*
X40613009Y-75499142D01*
X40613009Y-75499142D02*
X40565390Y-75594380D01*
X40565390Y-75594380D02*
X40517771Y-75642000D01*
X40517771Y-75642000D02*
X40422533Y-75689619D01*
X40422533Y-75689619D02*
X40232057Y-75689619D01*
X40232057Y-75689619D02*
X40136819Y-75642000D01*
X41041581Y-75689619D02*
X41041581Y-75022952D01*
X41041581Y-74689619D02*
X40993962Y-74737238D01*
X40993962Y-74737238D02*
X41041581Y-74784857D01*
X41041581Y-74784857D02*
X41089200Y-74737238D01*
X41089200Y-74737238D02*
X41041581Y-74689619D01*
X41041581Y-74689619D02*
X41041581Y-74784857D01*
X41946342Y-75022952D02*
X41946342Y-75832476D01*
X41946342Y-75832476D02*
X41898723Y-75927714D01*
X41898723Y-75927714D02*
X41851104Y-75975333D01*
X41851104Y-75975333D02*
X41755866Y-76022952D01*
X41755866Y-76022952D02*
X41613009Y-76022952D01*
X41613009Y-76022952D02*
X41517771Y-75975333D01*
X41946342Y-75642000D02*
X41851104Y-75689619D01*
X41851104Y-75689619D02*
X41660628Y-75689619D01*
X41660628Y-75689619D02*
X41565390Y-75642000D01*
X41565390Y-75642000D02*
X41517771Y-75594380D01*
X41517771Y-75594380D02*
X41470152Y-75499142D01*
X41470152Y-75499142D02*
X41470152Y-75213428D01*
X41470152Y-75213428D02*
X41517771Y-75118190D01*
X41517771Y-75118190D02*
X41565390Y-75070571D01*
X41565390Y-75070571D02*
X41660628Y-75022952D01*
X41660628Y-75022952D02*
X41851104Y-75022952D01*
X41851104Y-75022952D02*
X41946342Y-75070571D01*
X42851104Y-75022952D02*
X42851104Y-75832476D01*
X42851104Y-75832476D02*
X42803485Y-75927714D01*
X42803485Y-75927714D02*
X42755866Y-75975333D01*
X42755866Y-75975333D02*
X42660628Y-76022952D01*
X42660628Y-76022952D02*
X42517771Y-76022952D01*
X42517771Y-76022952D02*
X42422533Y-75975333D01*
X42851104Y-75642000D02*
X42755866Y-75689619D01*
X42755866Y-75689619D02*
X42565390Y-75689619D01*
X42565390Y-75689619D02*
X42470152Y-75642000D01*
X42470152Y-75642000D02*
X42422533Y-75594380D01*
X42422533Y-75594380D02*
X42374914Y-75499142D01*
X42374914Y-75499142D02*
X42374914Y-75213428D01*
X42374914Y-75213428D02*
X42422533Y-75118190D01*
X42422533Y-75118190D02*
X42470152Y-75070571D01*
X42470152Y-75070571D02*
X42565390Y-75022952D01*
X42565390Y-75022952D02*
X42755866Y-75022952D01*
X42755866Y-75022952D02*
X42851104Y-75070571D01*
X43708247Y-75642000D02*
X43613009Y-75689619D01*
X43613009Y-75689619D02*
X43422533Y-75689619D01*
X43422533Y-75689619D02*
X43327295Y-75642000D01*
X43327295Y-75642000D02*
X43279676Y-75546761D01*
X43279676Y-75546761D02*
X43279676Y-75165809D01*
X43279676Y-75165809D02*
X43327295Y-75070571D01*
X43327295Y-75070571D02*
X43422533Y-75022952D01*
X43422533Y-75022952D02*
X43613009Y-75022952D01*
X43613009Y-75022952D02*
X43708247Y-75070571D01*
X43708247Y-75070571D02*
X43755866Y-75165809D01*
X43755866Y-75165809D02*
X43755866Y-75261047D01*
X43755866Y-75261047D02*
X43279676Y-75356285D01*
X44184438Y-75689619D02*
X44184438Y-75022952D01*
X44184438Y-75213428D02*
X44232057Y-75118190D01*
X44232057Y-75118190D02*
X44279676Y-75070571D01*
X44279676Y-75070571D02*
X44374914Y-75022952D01*
X44374914Y-75022952D02*
X44470152Y-75022952D01*
X45422534Y-75022952D02*
X45803486Y-75022952D01*
X45565391Y-74689619D02*
X45565391Y-75546761D01*
X45565391Y-75546761D02*
X45613010Y-75642000D01*
X45613010Y-75642000D02*
X45708248Y-75689619D01*
X45708248Y-75689619D02*
X45803486Y-75689619D01*
X46136820Y-75689619D02*
X46136820Y-74689619D01*
X46565391Y-75689619D02*
X46565391Y-75165809D01*
X46565391Y-75165809D02*
X46517772Y-75070571D01*
X46517772Y-75070571D02*
X46422534Y-75022952D01*
X46422534Y-75022952D02*
X46279677Y-75022952D01*
X46279677Y-75022952D02*
X46184439Y-75070571D01*
X46184439Y-75070571D02*
X46136820Y-75118190D01*
X47470153Y-75689619D02*
X47470153Y-75165809D01*
X47470153Y-75165809D02*
X47422534Y-75070571D01*
X47422534Y-75070571D02*
X47327296Y-75022952D01*
X47327296Y-75022952D02*
X47136820Y-75022952D01*
X47136820Y-75022952D02*
X47041582Y-75070571D01*
X47470153Y-75642000D02*
X47374915Y-75689619D01*
X47374915Y-75689619D02*
X47136820Y-75689619D01*
X47136820Y-75689619D02*
X47041582Y-75642000D01*
X47041582Y-75642000D02*
X46993963Y-75546761D01*
X46993963Y-75546761D02*
X46993963Y-75451523D01*
X46993963Y-75451523D02*
X47041582Y-75356285D01*
X47041582Y-75356285D02*
X47136820Y-75308666D01*
X47136820Y-75308666D02*
X47374915Y-75308666D01*
X47374915Y-75308666D02*
X47470153Y-75261047D01*
X47946344Y-75022952D02*
X47946344Y-75689619D01*
X47946344Y-75118190D02*
X47993963Y-75070571D01*
X47993963Y-75070571D02*
X48089201Y-75022952D01*
X48089201Y-75022952D02*
X48232058Y-75022952D01*
X48232058Y-75022952D02*
X48327296Y-75070571D01*
X48327296Y-75070571D02*
X48374915Y-75165809D01*
X48374915Y-75165809D02*
X48374915Y-75689619D01*
X49517773Y-75022952D02*
X49755868Y-75689619D01*
X49993963Y-75022952D02*
X49755868Y-75689619D01*
X49755868Y-75689619D02*
X49660630Y-75927714D01*
X49660630Y-75927714D02*
X49613011Y-75975333D01*
X49613011Y-75975333D02*
X49517773Y-76022952D01*
X50517773Y-75689619D02*
X50422535Y-75642000D01*
X50422535Y-75642000D02*
X50374916Y-75594380D01*
X50374916Y-75594380D02*
X50327297Y-75499142D01*
X50327297Y-75499142D02*
X50327297Y-75213428D01*
X50327297Y-75213428D02*
X50374916Y-75118190D01*
X50374916Y-75118190D02*
X50422535Y-75070571D01*
X50422535Y-75070571D02*
X50517773Y-75022952D01*
X50517773Y-75022952D02*
X50660630Y-75022952D01*
X50660630Y-75022952D02*
X50755868Y-75070571D01*
X50755868Y-75070571D02*
X50803487Y-75118190D01*
X50803487Y-75118190D02*
X50851106Y-75213428D01*
X50851106Y-75213428D02*
X50851106Y-75499142D01*
X50851106Y-75499142D02*
X50803487Y-75594380D01*
X50803487Y-75594380D02*
X50755868Y-75642000D01*
X50755868Y-75642000D02*
X50660630Y-75689619D01*
X50660630Y-75689619D02*
X50517773Y-75689619D01*
X51708249Y-75022952D02*
X51708249Y-75689619D01*
X51279678Y-75022952D02*
X51279678Y-75546761D01*
X51279678Y-75546761D02*
X51327297Y-75642000D01*
X51327297Y-75642000D02*
X51422535Y-75689619D01*
X51422535Y-75689619D02*
X51565392Y-75689619D01*
X51565392Y-75689619D02*
X51660630Y-75642000D01*
X51660630Y-75642000D02*
X51708249Y-75594380D01*
X52184440Y-75689619D02*
X52184440Y-75022952D01*
X52184440Y-75213428D02*
X52232059Y-75118190D01*
X52232059Y-75118190D02*
X52279678Y-75070571D01*
X52279678Y-75070571D02*
X52374916Y-75022952D01*
X52374916Y-75022952D02*
X52470154Y-75022952D01*
X52755869Y-75642000D02*
X52851107Y-75689619D01*
X52851107Y-75689619D02*
X53041583Y-75689619D01*
X53041583Y-75689619D02*
X53136821Y-75642000D01*
X53136821Y-75642000D02*
X53184440Y-75546761D01*
X53184440Y-75546761D02*
X53184440Y-75499142D01*
X53184440Y-75499142D02*
X53136821Y-75403904D01*
X53136821Y-75403904D02*
X53041583Y-75356285D01*
X53041583Y-75356285D02*
X52898726Y-75356285D01*
X52898726Y-75356285D02*
X52803488Y-75308666D01*
X52803488Y-75308666D02*
X52755869Y-75213428D01*
X52755869Y-75213428D02*
X52755869Y-75165809D01*
X52755869Y-75165809D02*
X52803488Y-75070571D01*
X52803488Y-75070571D02*
X52898726Y-75022952D01*
X52898726Y-75022952D02*
X53041583Y-75022952D01*
X53041583Y-75022952D02*
X53136821Y-75070571D01*
X53613012Y-75594380D02*
X53660631Y-75642000D01*
X53660631Y-75642000D02*
X53613012Y-75689619D01*
X53613012Y-75689619D02*
X53565393Y-75642000D01*
X53565393Y-75642000D02*
X53613012Y-75594380D01*
X53613012Y-75594380D02*
X53613012Y-75689619D01*
X53613012Y-75308666D02*
X53565393Y-74737238D01*
X53565393Y-74737238D02*
X53613012Y-74689619D01*
X53613012Y-74689619D02*
X53660631Y-74737238D01*
X53660631Y-74737238D02*
X53613012Y-75308666D01*
X53613012Y-75308666D02*
X53613012Y-74689619D01*
X42656360Y-81203800D02*
X42799217Y-81251419D01*
X42799217Y-81251419D02*
X43037312Y-81251419D01*
X43037312Y-81251419D02*
X43132550Y-81203800D01*
X43132550Y-81203800D02*
X43180169Y-81156180D01*
X43180169Y-81156180D02*
X43227788Y-81060942D01*
X43227788Y-81060942D02*
X43227788Y-80965704D01*
X43227788Y-80965704D02*
X43180169Y-80870466D01*
X43180169Y-80870466D02*
X43132550Y-80822847D01*
X43132550Y-80822847D02*
X43037312Y-80775228D01*
X43037312Y-80775228D02*
X42846836Y-80727609D01*
X42846836Y-80727609D02*
X42751598Y-80679990D01*
X42751598Y-80679990D02*
X42703979Y-80632371D01*
X42703979Y-80632371D02*
X42656360Y-80537133D01*
X42656360Y-80537133D02*
X42656360Y-80441895D01*
X42656360Y-80441895D02*
X42703979Y-80346657D01*
X42703979Y-80346657D02*
X42751598Y-80299038D01*
X42751598Y-80299038D02*
X42846836Y-80251419D01*
X42846836Y-80251419D02*
X43084931Y-80251419D01*
X43084931Y-80251419D02*
X43227788Y-80299038D01*
X43656360Y-80727609D02*
X43989693Y-80727609D01*
X44132550Y-81251419D02*
X43656360Y-81251419D01*
X43656360Y-81251419D02*
X43656360Y-80251419D01*
X43656360Y-80251419D02*
X44132550Y-80251419D01*
X44418265Y-80251419D02*
X44989693Y-80251419D01*
X44703979Y-81251419D02*
X44703979Y-80251419D01*
X19856607Y-39849419D02*
X19523274Y-39373228D01*
X19285179Y-39849419D02*
X19285179Y-38849419D01*
X19285179Y-38849419D02*
X19666131Y-38849419D01*
X19666131Y-38849419D02*
X19761369Y-38897038D01*
X19761369Y-38897038D02*
X19808988Y-38944657D01*
X19808988Y-38944657D02*
X19856607Y-39039895D01*
X19856607Y-39039895D02*
X19856607Y-39182752D01*
X19856607Y-39182752D02*
X19808988Y-39277990D01*
X19808988Y-39277990D02*
X19761369Y-39325609D01*
X19761369Y-39325609D02*
X19666131Y-39373228D01*
X19666131Y-39373228D02*
X19285179Y-39373228D01*
X20285179Y-39325609D02*
X20618512Y-39325609D01*
X20761369Y-39849419D02*
X20285179Y-39849419D01*
X20285179Y-39849419D02*
X20285179Y-38849419D01*
X20285179Y-38849419D02*
X20761369Y-38849419D01*
X21142322Y-39801800D02*
X21285179Y-39849419D01*
X21285179Y-39849419D02*
X21523274Y-39849419D01*
X21523274Y-39849419D02*
X21618512Y-39801800D01*
X21618512Y-39801800D02*
X21666131Y-39754180D01*
X21666131Y-39754180D02*
X21713750Y-39658942D01*
X21713750Y-39658942D02*
X21713750Y-39563704D01*
X21713750Y-39563704D02*
X21666131Y-39468466D01*
X21666131Y-39468466D02*
X21618512Y-39420847D01*
X21618512Y-39420847D02*
X21523274Y-39373228D01*
X21523274Y-39373228D02*
X21332798Y-39325609D01*
X21332798Y-39325609D02*
X21237560Y-39277990D01*
X21237560Y-39277990D02*
X21189941Y-39230371D01*
X21189941Y-39230371D02*
X21142322Y-39135133D01*
X21142322Y-39135133D02*
X21142322Y-39039895D01*
X21142322Y-39039895D02*
X21189941Y-38944657D01*
X21189941Y-38944657D02*
X21237560Y-38897038D01*
X21237560Y-38897038D02*
X21332798Y-38849419D01*
X21332798Y-38849419D02*
X21570893Y-38849419D01*
X21570893Y-38849419D02*
X21713750Y-38897038D01*
X22142322Y-39325609D02*
X22475655Y-39325609D01*
X22618512Y-39849419D02*
X22142322Y-39849419D01*
X22142322Y-39849419D02*
X22142322Y-38849419D01*
X22142322Y-38849419D02*
X22618512Y-38849419D01*
X22904227Y-38849419D02*
X23475655Y-38849419D01*
X23189941Y-39849419D02*
X23189941Y-38849419D01*
X29902379Y-92341819D02*
X29902379Y-93151342D01*
X29902379Y-93151342D02*
X29949998Y-93246580D01*
X29949998Y-93246580D02*
X29997617Y-93294200D01*
X29997617Y-93294200D02*
X30092855Y-93341819D01*
X30092855Y-93341819D02*
X30283331Y-93341819D01*
X30283331Y-93341819D02*
X30378569Y-93294200D01*
X30378569Y-93294200D02*
X30426188Y-93246580D01*
X30426188Y-93246580D02*
X30473807Y-93151342D01*
X30473807Y-93151342D02*
X30473807Y-92341819D01*
X30949998Y-93341819D02*
X30949998Y-92341819D01*
X30949998Y-92341819D02*
X31330950Y-92341819D01*
X31330950Y-92341819D02*
X31426188Y-92389438D01*
X31426188Y-92389438D02*
X31473807Y-92437057D01*
X31473807Y-92437057D02*
X31521426Y-92532295D01*
X31521426Y-92532295D02*
X31521426Y-92675152D01*
X31521426Y-92675152D02*
X31473807Y-92770390D01*
X31473807Y-92770390D02*
X31426188Y-92818009D01*
X31426188Y-92818009D02*
X31330950Y-92865628D01*
X31330950Y-92865628D02*
X30949998Y-92865628D01*
X19907407Y-51228619D02*
X19574074Y-50752428D01*
X19335979Y-51228619D02*
X19335979Y-50228619D01*
X19335979Y-50228619D02*
X19716931Y-50228619D01*
X19716931Y-50228619D02*
X19812169Y-50276238D01*
X19812169Y-50276238D02*
X19859788Y-50323857D01*
X19859788Y-50323857D02*
X19907407Y-50419095D01*
X19907407Y-50419095D02*
X19907407Y-50561952D01*
X19907407Y-50561952D02*
X19859788Y-50657190D01*
X19859788Y-50657190D02*
X19812169Y-50704809D01*
X19812169Y-50704809D02*
X19716931Y-50752428D01*
X19716931Y-50752428D02*
X19335979Y-50752428D01*
X20335979Y-50704809D02*
X20669312Y-50704809D01*
X20812169Y-51228619D02*
X20335979Y-51228619D01*
X20335979Y-51228619D02*
X20335979Y-50228619D01*
X20335979Y-50228619D02*
X20812169Y-50228619D01*
X21193122Y-51181000D02*
X21335979Y-51228619D01*
X21335979Y-51228619D02*
X21574074Y-51228619D01*
X21574074Y-51228619D02*
X21669312Y-51181000D01*
X21669312Y-51181000D02*
X21716931Y-51133380D01*
X21716931Y-51133380D02*
X21764550Y-51038142D01*
X21764550Y-51038142D02*
X21764550Y-50942904D01*
X21764550Y-50942904D02*
X21716931Y-50847666D01*
X21716931Y-50847666D02*
X21669312Y-50800047D01*
X21669312Y-50800047D02*
X21574074Y-50752428D01*
X21574074Y-50752428D02*
X21383598Y-50704809D01*
X21383598Y-50704809D02*
X21288360Y-50657190D01*
X21288360Y-50657190D02*
X21240741Y-50609571D01*
X21240741Y-50609571D02*
X21193122Y-50514333D01*
X21193122Y-50514333D02*
X21193122Y-50419095D01*
X21193122Y-50419095D02*
X21240741Y-50323857D01*
X21240741Y-50323857D02*
X21288360Y-50276238D01*
X21288360Y-50276238D02*
X21383598Y-50228619D01*
X21383598Y-50228619D02*
X21621693Y-50228619D01*
X21621693Y-50228619D02*
X21764550Y-50276238D01*
X22193122Y-50704809D02*
X22526455Y-50704809D01*
X22669312Y-51228619D02*
X22193122Y-51228619D01*
X22193122Y-51228619D02*
X22193122Y-50228619D01*
X22193122Y-50228619D02*
X22669312Y-50228619D01*
X22955027Y-50228619D02*
X23526455Y-50228619D01*
X23240741Y-51228619D02*
X23240741Y-50228619D01*
X47783979Y-93494219D02*
X47783979Y-92494219D01*
X47783979Y-92494219D02*
X48022074Y-92494219D01*
X48022074Y-92494219D02*
X48164931Y-92541838D01*
X48164931Y-92541838D02*
X48260169Y-92637076D01*
X48260169Y-92637076D02*
X48307788Y-92732314D01*
X48307788Y-92732314D02*
X48355407Y-92922790D01*
X48355407Y-92922790D02*
X48355407Y-93065647D01*
X48355407Y-93065647D02*
X48307788Y-93256123D01*
X48307788Y-93256123D02*
X48260169Y-93351361D01*
X48260169Y-93351361D02*
X48164931Y-93446600D01*
X48164931Y-93446600D02*
X48022074Y-93494219D01*
X48022074Y-93494219D02*
X47783979Y-93494219D01*
X48736360Y-93446600D02*
X48879217Y-93494219D01*
X48879217Y-93494219D02*
X49117312Y-93494219D01*
X49117312Y-93494219D02*
X49212550Y-93446600D01*
X49212550Y-93446600D02*
X49260169Y-93398980D01*
X49260169Y-93398980D02*
X49307788Y-93303742D01*
X49307788Y-93303742D02*
X49307788Y-93208504D01*
X49307788Y-93208504D02*
X49260169Y-93113266D01*
X49260169Y-93113266D02*
X49212550Y-93065647D01*
X49212550Y-93065647D02*
X49117312Y-93018028D01*
X49117312Y-93018028D02*
X48926836Y-92970409D01*
X48926836Y-92970409D02*
X48831598Y-92922790D01*
X48831598Y-92922790D02*
X48783979Y-92875171D01*
X48783979Y-92875171D02*
X48736360Y-92779933D01*
X48736360Y-92779933D02*
X48736360Y-92684695D01*
X48736360Y-92684695D02*
X48783979Y-92589457D01*
X48783979Y-92589457D02*
X48831598Y-92541838D01*
X48831598Y-92541838D02*
X48926836Y-92494219D01*
X48926836Y-92494219D02*
X49164931Y-92494219D01*
X49164931Y-92494219D02*
X49307788Y-92541838D01*
X49593503Y-92494219D02*
X50164931Y-92494219D01*
X49879217Y-93494219D02*
X49879217Y-92494219D01*
X51212551Y-93208504D02*
X51688741Y-93208504D01*
X51117313Y-93494219D02*
X51450646Y-92494219D01*
X51450646Y-92494219D02*
X51783979Y-93494219D01*
X52117313Y-93494219D02*
X52117313Y-92494219D01*
X52117313Y-92494219D02*
X52355408Y-92494219D01*
X52355408Y-92494219D02*
X52498265Y-92541838D01*
X52498265Y-92541838D02*
X52593503Y-92637076D01*
X52593503Y-92637076D02*
X52641122Y-92732314D01*
X52641122Y-92732314D02*
X52688741Y-92922790D01*
X52688741Y-92922790D02*
X52688741Y-93065647D01*
X52688741Y-93065647D02*
X52641122Y-93256123D01*
X52641122Y-93256123D02*
X52593503Y-93351361D01*
X52593503Y-93351361D02*
X52498265Y-93446600D01*
X52498265Y-93446600D02*
X52355408Y-93494219D01*
X52355408Y-93494219D02*
X52117313Y-93494219D01*
X53403027Y-92494219D02*
X53403027Y-93208504D01*
X53403027Y-93208504D02*
X53355408Y-93351361D01*
X53355408Y-93351361D02*
X53260170Y-93446600D01*
X53260170Y-93446600D02*
X53117313Y-93494219D01*
X53117313Y-93494219D02*
X53022075Y-93494219D01*
X29851579Y-80149819D02*
X29851579Y-80959342D01*
X29851579Y-80959342D02*
X29899198Y-81054580D01*
X29899198Y-81054580D02*
X29946817Y-81102200D01*
X29946817Y-81102200D02*
X30042055Y-81149819D01*
X30042055Y-81149819D02*
X30232531Y-81149819D01*
X30232531Y-81149819D02*
X30327769Y-81102200D01*
X30327769Y-81102200D02*
X30375388Y-81054580D01*
X30375388Y-81054580D02*
X30423007Y-80959342D01*
X30423007Y-80959342D02*
X30423007Y-80149819D01*
X30899198Y-81149819D02*
X30899198Y-80149819D01*
X30899198Y-80149819D02*
X31280150Y-80149819D01*
X31280150Y-80149819D02*
X31375388Y-80197438D01*
X31375388Y-80197438D02*
X31423007Y-80245057D01*
X31423007Y-80245057D02*
X31470626Y-80340295D01*
X31470626Y-80340295D02*
X31470626Y-80483152D01*
X31470626Y-80483152D02*
X31423007Y-80578390D01*
X31423007Y-80578390D02*
X31375388Y-80626009D01*
X31375388Y-80626009D02*
X31280150Y-80673628D01*
X31280150Y-80673628D02*
X30899198Y-80673628D01*
X36169695Y-37910419D02*
X36169695Y-38719942D01*
X36169695Y-38719942D02*
X36217314Y-38815180D01*
X36217314Y-38815180D02*
X36264933Y-38862800D01*
X36264933Y-38862800D02*
X36360171Y-38910419D01*
X36360171Y-38910419D02*
X36550647Y-38910419D01*
X36550647Y-38910419D02*
X36645885Y-38862800D01*
X36645885Y-38862800D02*
X36693504Y-38815180D01*
X36693504Y-38815180D02*
X36741123Y-38719942D01*
X36741123Y-38719942D02*
X36741123Y-37910419D01*
X37741123Y-38910419D02*
X37169695Y-38910419D01*
X37455409Y-38910419D02*
X37455409Y-37910419D01*
X37455409Y-37910419D02*
X37360171Y-38053276D01*
X37360171Y-38053276D02*
X37264933Y-38148514D01*
X37264933Y-38148514D02*
X37169695Y-38196133D01*
X32407790Y-40545609D02*
X32550647Y-40593228D01*
X32550647Y-40593228D02*
X32598266Y-40640847D01*
X32598266Y-40640847D02*
X32645885Y-40736085D01*
X32645885Y-40736085D02*
X32645885Y-40878942D01*
X32645885Y-40878942D02*
X32598266Y-40974180D01*
X32598266Y-40974180D02*
X32550647Y-41021800D01*
X32550647Y-41021800D02*
X32455409Y-41069419D01*
X32455409Y-41069419D02*
X32074457Y-41069419D01*
X32074457Y-41069419D02*
X32074457Y-40069419D01*
X32074457Y-40069419D02*
X32407790Y-40069419D01*
X32407790Y-40069419D02*
X32503028Y-40117038D01*
X32503028Y-40117038D02*
X32550647Y-40164657D01*
X32550647Y-40164657D02*
X32598266Y-40259895D01*
X32598266Y-40259895D02*
X32598266Y-40355133D01*
X32598266Y-40355133D02*
X32550647Y-40450371D01*
X32550647Y-40450371D02*
X32503028Y-40497990D01*
X32503028Y-40497990D02*
X32407790Y-40545609D01*
X32407790Y-40545609D02*
X32074457Y-40545609D01*
X33217314Y-41069419D02*
X33122076Y-41021800D01*
X33122076Y-41021800D02*
X33074457Y-40974180D01*
X33074457Y-40974180D02*
X33026838Y-40878942D01*
X33026838Y-40878942D02*
X33026838Y-40593228D01*
X33026838Y-40593228D02*
X33074457Y-40497990D01*
X33074457Y-40497990D02*
X33122076Y-40450371D01*
X33122076Y-40450371D02*
X33217314Y-40402752D01*
X33217314Y-40402752D02*
X33360171Y-40402752D01*
X33360171Y-40402752D02*
X33455409Y-40450371D01*
X33455409Y-40450371D02*
X33503028Y-40497990D01*
X33503028Y-40497990D02*
X33550647Y-40593228D01*
X33550647Y-40593228D02*
X33550647Y-40878942D01*
X33550647Y-40878942D02*
X33503028Y-40974180D01*
X33503028Y-40974180D02*
X33455409Y-41021800D01*
X33455409Y-41021800D02*
X33360171Y-41069419D01*
X33360171Y-41069419D02*
X33217314Y-41069419D01*
X33979219Y-41069419D02*
X33979219Y-40069419D01*
X34074457Y-40688466D02*
X34360171Y-41069419D01*
X34360171Y-40402752D02*
X33979219Y-40783704D01*
X35217314Y-40402752D02*
X35217314Y-41069419D01*
X34788743Y-40402752D02*
X34788743Y-40926561D01*
X34788743Y-40926561D02*
X34836362Y-41021800D01*
X34836362Y-41021800D02*
X34931600Y-41069419D01*
X34931600Y-41069419D02*
X35074457Y-41069419D01*
X35074457Y-41069419D02*
X35169695Y-41021800D01*
X35169695Y-41021800D02*
X35217314Y-40974180D01*
X36455410Y-40402752D02*
X36455410Y-41069419D01*
X36455410Y-40497990D02*
X36503029Y-40450371D01*
X36503029Y-40450371D02*
X36598267Y-40402752D01*
X36598267Y-40402752D02*
X36741124Y-40402752D01*
X36741124Y-40402752D02*
X36836362Y-40450371D01*
X36836362Y-40450371D02*
X36883981Y-40545609D01*
X36883981Y-40545609D02*
X36883981Y-41069419D01*
X37503029Y-41069419D02*
X37407791Y-41021800D01*
X37407791Y-41021800D02*
X37360172Y-40974180D01*
X37360172Y-40974180D02*
X37312553Y-40878942D01*
X37312553Y-40878942D02*
X37312553Y-40593228D01*
X37312553Y-40593228D02*
X37360172Y-40497990D01*
X37360172Y-40497990D02*
X37407791Y-40450371D01*
X37407791Y-40450371D02*
X37503029Y-40402752D01*
X37503029Y-40402752D02*
X37645886Y-40402752D01*
X37645886Y-40402752D02*
X37741124Y-40450371D01*
X37741124Y-40450371D02*
X37788743Y-40497990D01*
X37788743Y-40497990D02*
X37836362Y-40593228D01*
X37836362Y-40593228D02*
X37836362Y-40878942D01*
X37836362Y-40878942D02*
X37788743Y-40974180D01*
X37788743Y-40974180D02*
X37741124Y-41021800D01*
X37741124Y-41021800D02*
X37645886Y-41069419D01*
X37645886Y-41069419D02*
X37503029Y-41069419D01*
X39026839Y-41069419D02*
X39026839Y-40069419D01*
X39026839Y-40069419D02*
X39407791Y-40069419D01*
X39407791Y-40069419D02*
X39503029Y-40117038D01*
X39503029Y-40117038D02*
X39550648Y-40164657D01*
X39550648Y-40164657D02*
X39598267Y-40259895D01*
X39598267Y-40259895D02*
X39598267Y-40402752D01*
X39598267Y-40402752D02*
X39550648Y-40497990D01*
X39550648Y-40497990D02*
X39503029Y-40545609D01*
X39503029Y-40545609D02*
X39407791Y-40593228D01*
X39407791Y-40593228D02*
X39026839Y-40593228D01*
X40026839Y-41069419D02*
X40026839Y-40402752D01*
X40026839Y-40069419D02*
X39979220Y-40117038D01*
X39979220Y-40117038D02*
X40026839Y-40164657D01*
X40026839Y-40164657D02*
X40074458Y-40117038D01*
X40074458Y-40117038D02*
X40026839Y-40069419D01*
X40026839Y-40069419D02*
X40026839Y-40164657D01*
X40931600Y-41021800D02*
X40836362Y-41069419D01*
X40836362Y-41069419D02*
X40645886Y-41069419D01*
X40645886Y-41069419D02*
X40550648Y-41021800D01*
X40550648Y-41021800D02*
X40503029Y-40974180D01*
X40503029Y-40974180D02*
X40455410Y-40878942D01*
X40455410Y-40878942D02*
X40455410Y-40593228D01*
X40455410Y-40593228D02*
X40503029Y-40497990D01*
X40503029Y-40497990D02*
X40550648Y-40450371D01*
X40550648Y-40450371D02*
X40645886Y-40402752D01*
X40645886Y-40402752D02*
X40836362Y-40402752D01*
X40836362Y-40402752D02*
X40931600Y-40450371D01*
X41503029Y-41069419D02*
X41407791Y-41021800D01*
X41407791Y-41021800D02*
X41360172Y-40974180D01*
X41360172Y-40974180D02*
X41312553Y-40878942D01*
X41312553Y-40878942D02*
X41312553Y-40593228D01*
X41312553Y-40593228D02*
X41360172Y-40497990D01*
X41360172Y-40497990D02*
X41407791Y-40450371D01*
X41407791Y-40450371D02*
X41503029Y-40402752D01*
X41503029Y-40402752D02*
X41645886Y-40402752D01*
X41645886Y-40402752D02*
X41741124Y-40450371D01*
X41741124Y-40450371D02*
X41788743Y-40497990D01*
X41788743Y-40497990D02*
X41836362Y-40593228D01*
X41836362Y-40593228D02*
X41836362Y-40878942D01*
X41836362Y-40878942D02*
X41788743Y-40974180D01*
X41788743Y-40974180D02*
X41741124Y-41021800D01*
X41741124Y-41021800D02*
X41645886Y-41069419D01*
X41645886Y-41069419D02*
X41503029Y-41069419D01*
X20560380Y-27862666D02*
X19846095Y-27862666D01*
X19846095Y-27862666D02*
X19703238Y-27815047D01*
X19703238Y-27815047D02*
X19608000Y-27719809D01*
X19608000Y-27719809D02*
X19560380Y-27576952D01*
X19560380Y-27576952D02*
X19560380Y-27481714D01*
X20560380Y-28243619D02*
X20560380Y-28862666D01*
X20560380Y-28862666D02*
X20179428Y-28529333D01*
X20179428Y-28529333D02*
X20179428Y-28672190D01*
X20179428Y-28672190D02*
X20131809Y-28767428D01*
X20131809Y-28767428D02*
X20084190Y-28815047D01*
X20084190Y-28815047D02*
X19988952Y-28862666D01*
X19988952Y-28862666D02*
X19750857Y-28862666D01*
X19750857Y-28862666D02*
X19655619Y-28815047D01*
X19655619Y-28815047D02*
X19608000Y-28767428D01*
X19608000Y-28767428D02*
X19560380Y-28672190D01*
X19560380Y-28672190D02*
X19560380Y-28386476D01*
X19560380Y-28386476D02*
X19608000Y-28291238D01*
X19608000Y-28291238D02*
X19655619Y-28243619D01*
D13*
%TO.C,D104*%
X103861000Y-22325600D02*
X103861000Y-25415600D01*
X109410999Y-23871062D02*
G75*
G03*
X103861001Y-22325770I-2989999J462D01*
G01*
X103861000Y-25415430D02*
G75*
G03*
X109411000Y-23870138I2560000J1544830D01*
G01*
X108921000Y-23870600D02*
G75*
G03*
X108921000Y-23870600I-2500000J0D01*
G01*
%TO.C,D72*%
X141961000Y-45185600D02*
X141961000Y-48275600D01*
X147510999Y-46731062D02*
G75*
G03*
X141961001Y-45185770I-2989999J462D01*
G01*
X141961000Y-48275430D02*
G75*
G03*
X147511000Y-46730138I2560000J1544830D01*
G01*
X147021000Y-46730600D02*
G75*
G03*
X147021000Y-46730600I-2500000J0D01*
G01*
%TO.C,D1*%
X172186000Y-18810600D02*
X175276000Y-18810600D01*
X173731462Y-13260601D02*
G75*
G03*
X172186170Y-18810599I-462J-2989999D01*
G01*
X175275830Y-18810600D02*
G75*
G03*
X173730538Y-13260600I-1544830J2560000D01*
G01*
X176231000Y-16250600D02*
G75*
G03*
X176231000Y-16250600I-2500000J0D01*
G01*
%TO.C,D91*%
X211811000Y-65505600D02*
X211811000Y-68595600D01*
X217360999Y-67051062D02*
G75*
G03*
X211811001Y-65505770I-2989999J462D01*
G01*
X211811000Y-68595430D02*
G75*
G03*
X217361000Y-67050138I2560000J1544830D01*
G01*
X216871000Y-67050600D02*
G75*
G03*
X216871000Y-67050600I-2500000J0D01*
G01*
%TO.C,D43*%
X163551000Y-29945600D02*
X163551000Y-33035600D01*
X169100999Y-31491062D02*
G75*
G03*
X163551001Y-29945770I-2989999J462D01*
G01*
X163551000Y-33035430D02*
G75*
G03*
X169101000Y-31490138I2560000J1544830D01*
G01*
X168611000Y-31490600D02*
G75*
G03*
X168611000Y-31490600I-2500000J0D01*
G01*
%TO.C,D36*%
X163551000Y-57885600D02*
X163551000Y-60975600D01*
X169100999Y-59431062D02*
G75*
G03*
X163551001Y-57885770I-2989999J462D01*
G01*
X163551000Y-60975430D02*
G75*
G03*
X169101000Y-59430138I2560000J1544830D01*
G01*
X168611000Y-59430600D02*
G75*
G03*
X168611000Y-59430600I-2500000J0D01*
G01*
%TO.C,D5*%
X201651000Y-22325600D02*
X201651000Y-25415600D01*
X207200999Y-23871062D02*
G75*
G03*
X201651001Y-22325770I-2989999J462D01*
G01*
X201651000Y-25415430D02*
G75*
G03*
X207201000Y-23870138I2560000J1544830D01*
G01*
X206711000Y-23870600D02*
G75*
G03*
X206711000Y-23870600I-2500000J0D01*
G01*
%TO.C,D48*%
X55601000Y-22325600D02*
X55601000Y-25415600D01*
X61150999Y-23871062D02*
G75*
G03*
X55601001Y-22325770I-2989999J462D01*
G01*
X55601000Y-25415430D02*
G75*
G03*
X61151000Y-23870138I2560000J1544830D01*
G01*
X60661000Y-23870600D02*
G75*
G03*
X60661000Y-23870600I-2500000J0D01*
G01*
%TO.C,D22*%
X93701000Y-65505600D02*
X93701000Y-68595600D01*
X99250999Y-67051062D02*
G75*
G03*
X93701001Y-65505770I-2989999J462D01*
G01*
X93701000Y-68595430D02*
G75*
G03*
X99251000Y-67050138I2560000J1544830D01*
G01*
X98761000Y-67050600D02*
G75*
G03*
X98761000Y-67050600I-2500000J0D01*
G01*
%TO.C,SW3*%
X46918000Y-83434800D02*
X46918000Y-89894800D01*
X46888000Y-83434800D02*
X46918000Y-83434800D01*
X44988000Y-83434800D02*
X42388000Y-83434800D01*
X40458000Y-83434800D02*
X40488000Y-83434800D01*
X40458000Y-83434800D02*
X40458000Y-89894800D01*
X46918000Y-89894800D02*
X46888000Y-89894800D01*
X44988000Y-89894800D02*
X42388000Y-89894800D01*
X40458000Y-89894800D02*
X40488000Y-89894800D01*
%TO.C,D27*%
X179806000Y-92470600D02*
X182896000Y-92470600D01*
X181351462Y-86920601D02*
G75*
G03*
X179806170Y-92470599I-462J-2989999D01*
G01*
X182895830Y-92470600D02*
G75*
G03*
X181350538Y-86920600I-1544830J2560000D01*
G01*
X183851000Y-89910600D02*
G75*
G03*
X183851000Y-89910600I-2500000J0D01*
G01*
%TO.C,D53*%
X64236000Y-55640600D02*
X67326000Y-55640600D01*
X65781462Y-50090601D02*
G75*
G03*
X64236170Y-55640599I-462J-2989999D01*
G01*
X67325830Y-55640600D02*
G75*
G03*
X65780538Y-50090600I-1544830J2560000D01*
G01*
X68281000Y-53080600D02*
G75*
G03*
X68281000Y-53080600I-2500000J0D01*
G01*
%TO.C,D81*%
X243306000Y-92470600D02*
X246396000Y-92470600D01*
X244851462Y-86920601D02*
G75*
G03*
X243306170Y-92470599I-462J-2989999D01*
G01*
X246395830Y-92470600D02*
G75*
G03*
X244850538Y-86920600I-1544830J2560000D01*
G01*
X247351000Y-89910600D02*
G75*
G03*
X247351000Y-89910600I-2500000J0D01*
G01*
%TO.C,D52*%
X195046000Y-55640600D02*
X198136000Y-55640600D01*
X196591462Y-50090601D02*
G75*
G03*
X195046170Y-55640599I-462J-2989999D01*
G01*
X198135830Y-55640600D02*
G75*
G03*
X196590538Y-50090600I-1544830J2560000D01*
G01*
X199091000Y-53080600D02*
G75*
G03*
X199091000Y-53080600I-2500000J0D01*
G01*
%TO.C,D10*%
X71856000Y-18810600D02*
X74946000Y-18810600D01*
X73401462Y-13260601D02*
G75*
G03*
X71856170Y-18810599I-462J-2989999D01*
G01*
X74945830Y-18810600D02*
G75*
G03*
X73400538Y-13260600I-1544830J2560000D01*
G01*
X75901000Y-16250600D02*
G75*
G03*
X75901000Y-16250600I-2500000J0D01*
G01*
%TO.C,D21*%
X93701000Y-57885600D02*
X93701000Y-60975600D01*
X99250999Y-59431062D02*
G75*
G03*
X93701001Y-57885770I-2989999J462D01*
G01*
X93701000Y-60975430D02*
G75*
G03*
X99251000Y-59430138I2560000J1544830D01*
G01*
X98761000Y-59430600D02*
G75*
G03*
X98761000Y-59430600I-2500000J0D01*
G01*
%TO.C,D63*%
X127736000Y-18810600D02*
X130826000Y-18810600D01*
X129281462Y-13260601D02*
G75*
G03*
X127736170Y-18810599I-462J-2989999D01*
G01*
X130825830Y-18810600D02*
G75*
G03*
X129280538Y-13260600I-1544830J2560000D01*
G01*
X131781000Y-16250600D02*
G75*
G03*
X131781000Y-16250600I-2500000J0D01*
G01*
%TO.C,SW5*%
X47062000Y-89894800D02*
X47062000Y-83434800D01*
X47092000Y-89894800D02*
X47062000Y-89894800D01*
X48992000Y-89894800D02*
X51592000Y-89894800D01*
X53522000Y-89894800D02*
X53492000Y-89894800D01*
X53522000Y-89894800D02*
X53522000Y-83434800D01*
X47062000Y-83434800D02*
X47092000Y-83434800D01*
X48992000Y-83434800D02*
X51592000Y-83434800D01*
X53522000Y-83434800D02*
X53492000Y-83434800D01*
%TO.C,D59*%
X235686000Y-18810600D02*
X238776000Y-18810600D01*
X237231462Y-13260601D02*
G75*
G03*
X235686170Y-18810599I-462J-2989999D01*
G01*
X238775830Y-18810600D02*
G75*
G03*
X237230538Y-13260600I-1544830J2560000D01*
G01*
X239731000Y-16250600D02*
G75*
G03*
X239731000Y-16250600I-2500000J0D01*
G01*
%TO.C,D103*%
X103861000Y-29945600D02*
X103861000Y-33035600D01*
X109410999Y-31491062D02*
G75*
G03*
X103861001Y-29945770I-2989999J462D01*
G01*
X103861000Y-33035430D02*
G75*
G03*
X109411000Y-31490138I2560000J1544830D01*
G01*
X108921000Y-31490600D02*
G75*
G03*
X108921000Y-31490600I-2500000J0D01*
G01*
%TO.C,D51*%
X187426000Y-55640600D02*
X190516000Y-55640600D01*
X188971462Y-50090601D02*
G75*
G03*
X187426170Y-55640599I-462J-2989999D01*
G01*
X190515830Y-55640600D02*
G75*
G03*
X188970538Y-50090600I-1544830J2560000D01*
G01*
X191471000Y-53080600D02*
G75*
G03*
X191471000Y-53080600I-2500000J0D01*
G01*
%TO.C,D61*%
X112496000Y-18810600D02*
X115586000Y-18810600D01*
X114041462Y-13260601D02*
G75*
G03*
X112496170Y-18810599I-462J-2989999D01*
G01*
X115585830Y-18810600D02*
G75*
G03*
X114040538Y-13260600I-1544830J2560000D01*
G01*
X116541000Y-16250600D02*
G75*
G03*
X116541000Y-16250600I-2500000J0D01*
G01*
%TO.C,D45*%
X55601000Y-45185600D02*
X55601000Y-48275600D01*
X61150999Y-46731062D02*
G75*
G03*
X55601001Y-45185770I-2989999J462D01*
G01*
X55601000Y-48275430D02*
G75*
G03*
X61151000Y-46730138I2560000J1544830D01*
G01*
X60661000Y-46730600D02*
G75*
G03*
X60661000Y-46730600I-2500000J0D01*
G01*
%TO.C,D29*%
X87096000Y-92470600D02*
X90186000Y-92470600D01*
X88641462Y-86920601D02*
G75*
G03*
X87096170Y-92470599I-462J-2989999D01*
G01*
X90185830Y-92470600D02*
G75*
G03*
X88640538Y-86920600I-1544830J2560000D01*
G01*
X91141000Y-89910600D02*
G75*
G03*
X91141000Y-89910600I-2500000J0D01*
G01*
%TO.C,D90*%
X211811000Y-73125600D02*
X211811000Y-76215600D01*
X217360999Y-74671062D02*
G75*
G03*
X211811001Y-73125770I-2989999J462D01*
G01*
X211811000Y-76215430D02*
G75*
G03*
X217361000Y-74670138I2560000J1544830D01*
G01*
X216871000Y-74670600D02*
G75*
G03*
X216871000Y-74670600I-2500000J0D01*
G01*
%TO.C,SW4*%
X17968400Y-48251400D02*
X17968400Y-41791400D01*
X17998400Y-48251400D02*
X17968400Y-48251400D01*
X19898400Y-48251400D02*
X22498400Y-48251400D01*
X24428400Y-48251400D02*
X24398400Y-48251400D01*
X24428400Y-48251400D02*
X24428400Y-41791400D01*
X17968400Y-41791400D02*
X17998400Y-41791400D01*
X19898400Y-41791400D02*
X22498400Y-41791400D01*
X24428400Y-41791400D02*
X24398400Y-41791400D01*
%TO.C,D96*%
X103861000Y-57885600D02*
X103861000Y-60975600D01*
X109410999Y-59431062D02*
G75*
G03*
X103861001Y-57885770I-2989999J462D01*
G01*
X103861000Y-60975430D02*
G75*
G03*
X109411000Y-59430138I2560000J1544830D01*
G01*
X108921000Y-59430600D02*
G75*
G03*
X108921000Y-59430600I-2500000J0D01*
G01*
%TO.C,SW2*%
X33752400Y-89894800D02*
X33752400Y-83434800D01*
X33782400Y-89894800D02*
X33752400Y-89894800D01*
X35682400Y-89894800D02*
X38282400Y-89894800D01*
X40212400Y-89894800D02*
X40182400Y-89894800D01*
X40212400Y-89894800D02*
X40212400Y-83434800D01*
X33752400Y-83434800D02*
X33782400Y-83434800D01*
X35682400Y-83434800D02*
X38282400Y-83434800D01*
X40212400Y-83434800D02*
X40182400Y-83434800D01*
%TO.C,D40*%
X55601000Y-57885600D02*
X55601000Y-60975600D01*
X61150999Y-59431062D02*
G75*
G03*
X55601001Y-57885770I-2989999J462D01*
G01*
X55601000Y-60975430D02*
G75*
G03*
X61151000Y-59430138I2560000J1544830D01*
G01*
X60661000Y-59430600D02*
G75*
G03*
X60661000Y-59430600I-2500000J0D01*
G01*
%TO.C,D83*%
X228066000Y-92470600D02*
X231156000Y-92470600D01*
X229611462Y-86920601D02*
G75*
G03*
X228066170Y-92470599I-462J-2989999D01*
G01*
X231155830Y-92470600D02*
G75*
G03*
X229610538Y-86920600I-1544830J2560000D01*
G01*
X232111000Y-89910600D02*
G75*
G03*
X232111000Y-89910600I-2500000J0D01*
G01*
%TO.C,D19*%
X201651000Y-73125600D02*
X201651000Y-76215600D01*
X207200999Y-74671062D02*
G75*
G03*
X201651001Y-73125770I-2989999J462D01*
G01*
X201651000Y-76215430D02*
G75*
G03*
X207201000Y-74670138I2560000J1544830D01*
G01*
X206711000Y-74670600D02*
G75*
G03*
X206711000Y-74670600I-2500000J0D01*
G01*
%TO.C,D74*%
X249911000Y-65505600D02*
X249911000Y-68595600D01*
X255460999Y-67051062D02*
G75*
G03*
X249911001Y-65505770I-2989999J462D01*
G01*
X249911000Y-68595430D02*
G75*
G03*
X255461000Y-67050138I2560000J1544830D01*
G01*
X254971000Y-67050600D02*
G75*
G03*
X254971000Y-67050600I-2500000J0D01*
G01*
%TO.C,D26*%
X187426000Y-92470600D02*
X190516000Y-92470600D01*
X188971462Y-86920601D02*
G75*
G03*
X187426170Y-92470599I-462J-2989999D01*
G01*
X190515830Y-92470600D02*
G75*
G03*
X188970538Y-86920600I-1544830J2560000D01*
G01*
X191471000Y-89910600D02*
G75*
G03*
X191471000Y-89910600I-2500000J0D01*
G01*
%TO.C,D67*%
X249911000Y-37565600D02*
X249911000Y-40655600D01*
X255460999Y-39111062D02*
G75*
G03*
X249911001Y-37565770I-2989999J462D01*
G01*
X249911000Y-40655430D02*
G75*
G03*
X255461000Y-39110138I2560000J1544830D01*
G01*
X254971000Y-39110600D02*
G75*
G03*
X254971000Y-39110600I-2500000J0D01*
G01*
%TO.C,D70*%
X141961000Y-29945600D02*
X141961000Y-33035600D01*
X147510999Y-31491062D02*
G75*
G03*
X141961001Y-29945770I-2989999J462D01*
G01*
X141961000Y-33035430D02*
G75*
G03*
X147511000Y-31490138I2560000J1544830D01*
G01*
X147021000Y-31490600D02*
G75*
G03*
X147021000Y-31490600I-2500000J0D01*
G01*
%TO.C,D39*%
X55601000Y-65505600D02*
X55601000Y-68595600D01*
X61150999Y-67051062D02*
G75*
G03*
X55601001Y-65505770I-2989999J462D01*
G01*
X55601000Y-68595430D02*
G75*
G03*
X61151000Y-67050138I2560000J1544830D01*
G01*
X60661000Y-67050600D02*
G75*
G03*
X60661000Y-67050600I-2500000J0D01*
G01*
%TO.C,D56*%
X87096000Y-55640600D02*
X90186000Y-55640600D01*
X88641462Y-50090601D02*
G75*
G03*
X87096170Y-55640599I-462J-2989999D01*
G01*
X90185830Y-55640600D02*
G75*
G03*
X88640538Y-50090600I-1544830J2560000D01*
G01*
X91141000Y-53080600D02*
G75*
G03*
X91141000Y-53080600I-2500000J0D01*
G01*
%TO.C,D68*%
X249911000Y-45185600D02*
X249911000Y-48275600D01*
X255460999Y-46731062D02*
G75*
G03*
X249911001Y-45185770I-2989999J462D01*
G01*
X249911000Y-48275430D02*
G75*
G03*
X255461000Y-46730138I2560000J1544830D01*
G01*
X254971000Y-46730600D02*
G75*
G03*
X254971000Y-46730600I-2500000J0D01*
G01*
%TO.C,D64*%
X135356000Y-18810600D02*
X138446000Y-18810600D01*
X136901462Y-13260601D02*
G75*
G03*
X135356170Y-18810599I-462J-2989999D01*
G01*
X138445830Y-18810600D02*
G75*
G03*
X136900538Y-13260600I-1544830J2560000D01*
G01*
X139401000Y-16250600D02*
G75*
G03*
X139401000Y-16250600I-2500000J0D01*
G01*
%TO.C,D109*%
X112496000Y-55640600D02*
X115586000Y-55640600D01*
X114041462Y-50090601D02*
G75*
G03*
X112496170Y-55640599I-462J-2989999D01*
G01*
X115585830Y-55640600D02*
G75*
G03*
X114040538Y-50090600I-1544830J2560000D01*
G01*
X116541000Y-53080600D02*
G75*
G03*
X116541000Y-53080600I-2500000J0D01*
G01*
%TO.C,D69*%
X141961000Y-22325600D02*
X141961000Y-25415600D01*
X147510999Y-23871062D02*
G75*
G03*
X141961001Y-22325770I-2989999J462D01*
G01*
X141961000Y-25415430D02*
G75*
G03*
X147511000Y-23870138I2560000J1544830D01*
G01*
X147021000Y-23870600D02*
G75*
G03*
X147021000Y-23870600I-2500000J0D01*
G01*
%TO.C,D73*%
X249911000Y-57885600D02*
X249911000Y-60975600D01*
X255460999Y-59431062D02*
G75*
G03*
X249911001Y-57885770I-2989999J462D01*
G01*
X249911000Y-60975430D02*
G75*
G03*
X255461000Y-59430138I2560000J1544830D01*
G01*
X254971000Y-59430600D02*
G75*
G03*
X254971000Y-59430600I-2500000J0D01*
G01*
%TO.C,D89*%
X211811000Y-80745600D02*
X211811000Y-83835600D01*
X217360999Y-82291062D02*
G75*
G03*
X211811001Y-80745770I-2989999J462D01*
G01*
X211811000Y-83835430D02*
G75*
G03*
X217361000Y-82290138I2560000J1544830D01*
G01*
X216871000Y-82290600D02*
G75*
G03*
X216871000Y-82290600I-2500000J0D01*
G01*
%TO.C,D9*%
X64236000Y-18810600D02*
X67326000Y-18810600D01*
X65781462Y-13260601D02*
G75*
G03*
X64236170Y-18810599I-462J-2989999D01*
G01*
X67325830Y-18810600D02*
G75*
G03*
X65780538Y-13260600I-1544830J2560000D01*
G01*
X68281000Y-16250600D02*
G75*
G03*
X68281000Y-16250600I-2500000J0D01*
G01*
%TO.C,D4*%
X195046000Y-18810600D02*
X198136000Y-18810600D01*
X196591462Y-13260601D02*
G75*
G03*
X195046170Y-18810599I-462J-2989999D01*
G01*
X198135830Y-18810600D02*
G75*
G03*
X196590538Y-13260600I-1544830J2560000D01*
G01*
X199091000Y-16250600D02*
G75*
G03*
X199091000Y-16250600I-2500000J0D01*
G01*
%TO.C,D88*%
X112496000Y-92470600D02*
X115586000Y-92470600D01*
X114041462Y-86920601D02*
G75*
G03*
X112496170Y-92470599I-462J-2989999D01*
G01*
X115585830Y-92470600D02*
G75*
G03*
X114040538Y-86920600I-1544830J2560000D01*
G01*
X116541000Y-89910600D02*
G75*
G03*
X116541000Y-89910600I-2500000J0D01*
G01*
%TO.C,D28*%
X172186000Y-92470600D02*
X175276000Y-92470600D01*
X173731462Y-86920601D02*
G75*
G03*
X172186170Y-92470599I-462J-2989999D01*
G01*
X175275830Y-92470600D02*
G75*
G03*
X173730538Y-86920600I-1544830J2560000D01*
G01*
X176231000Y-89910600D02*
G75*
G03*
X176231000Y-89910600I-2500000J0D01*
G01*
%TO.C,D57*%
X220446000Y-18810600D02*
X223536000Y-18810600D01*
X221991462Y-13260601D02*
G75*
G03*
X220446170Y-18810599I-462J-2989999D01*
G01*
X223535830Y-18810600D02*
G75*
G03*
X221990538Y-13260600I-1544830J2560000D01*
G01*
X224491000Y-16250600D02*
G75*
G03*
X224491000Y-16250600I-2500000J0D01*
G01*
%TO.C,U1*%
X26431600Y-12955600D02*
X26431600Y-13255600D01*
X26431600Y-12955600D02*
X47431600Y-12955600D01*
X26431600Y-15355600D02*
X26431600Y-15755600D01*
X26431600Y-15622600D02*
X29438600Y-15622600D01*
X26431600Y-17955600D02*
X26431600Y-18355600D01*
X26431600Y-20455600D02*
X26431600Y-20855600D01*
X26431600Y-23055600D02*
X26431600Y-23455600D01*
X26431600Y-25555600D02*
X26431600Y-25955600D01*
X26431600Y-28055600D02*
X26431600Y-28455600D01*
X26431600Y-30655600D02*
X26431600Y-31055600D01*
X26431600Y-33155600D02*
X26431600Y-33555600D01*
X26431600Y-35755600D02*
X26431600Y-36155600D01*
X26431600Y-38255600D02*
X26431600Y-38655600D01*
X26431600Y-40755600D02*
X26431600Y-41155600D01*
X26431600Y-43355600D02*
X26431600Y-43755600D01*
X26431600Y-45855600D02*
X26431600Y-46255600D01*
X26431600Y-48455600D02*
X26431600Y-48855600D01*
X26431600Y-50955600D02*
X26431600Y-51355600D01*
X26431600Y-53555600D02*
X26431600Y-53955600D01*
X26431600Y-56055600D02*
X26431600Y-56455600D01*
X26431600Y-58555600D02*
X26431600Y-58955600D01*
X26431600Y-61155600D02*
X26431600Y-61555600D01*
X29438600Y-15622600D02*
X29438600Y-12955600D01*
X33231600Y-63955600D02*
X26431600Y-63955600D01*
X35431600Y-63955600D02*
X35831600Y-63955600D01*
X38031600Y-63955600D02*
X38431600Y-63955600D01*
X47431600Y-12955600D02*
X47431600Y-13255600D01*
X47431600Y-15355600D02*
X47431600Y-15755600D01*
X47431600Y-17955600D02*
X47431600Y-18355600D01*
X47431600Y-20455600D02*
X47431600Y-20855600D01*
X47431600Y-23055600D02*
X47431600Y-23455600D01*
X47431600Y-25555600D02*
X47431600Y-25955600D01*
X47431600Y-28055600D02*
X47431600Y-28455600D01*
X47431600Y-30655600D02*
X47431600Y-31055600D01*
X47431600Y-33155600D02*
X47431600Y-33555600D01*
X47431600Y-35755600D02*
X47431600Y-36155600D01*
X47431600Y-38255600D02*
X47431600Y-38655600D01*
X47431600Y-40755600D02*
X47431600Y-41155600D01*
X47431600Y-43355600D02*
X47431600Y-43755600D01*
X47431600Y-45855600D02*
X47431600Y-46255600D01*
X47431600Y-48455600D02*
X47431600Y-48855600D01*
X47431600Y-50955600D02*
X47431600Y-51355600D01*
X47431600Y-53555600D02*
X47431600Y-53955600D01*
X47431600Y-56055600D02*
X47431600Y-56455600D01*
X47431600Y-58555600D02*
X47431600Y-58955600D01*
X47431600Y-61155600D02*
X47431600Y-61555600D01*
X47431600Y-63955600D02*
X40631600Y-63955600D01*
%TO.C,SW1*%
X33608400Y-83434800D02*
X33608400Y-89894800D01*
X33578400Y-83434800D02*
X33608400Y-83434800D01*
X31678400Y-83434800D02*
X29078400Y-83434800D01*
X27148400Y-83434800D02*
X27178400Y-83434800D01*
X27148400Y-83434800D02*
X27148400Y-89894800D01*
X33608400Y-89894800D02*
X33578400Y-89894800D01*
X31678400Y-89894800D02*
X29078400Y-89894800D01*
X27148400Y-89894800D02*
X27178400Y-89894800D01*
%TO.C,D65*%
X249911000Y-22325600D02*
X249911000Y-25415600D01*
X255460999Y-23871062D02*
G75*
G03*
X249911001Y-22325770I-2989999J462D01*
G01*
X249911000Y-25415430D02*
G75*
G03*
X255461000Y-23870138I2560000J1544830D01*
G01*
X254971000Y-23870600D02*
G75*
G03*
X254971000Y-23870600I-2500000J0D01*
G01*
%TO.C,D24*%
X93701000Y-80745600D02*
X93701000Y-83835600D01*
X99250999Y-82291062D02*
G75*
G03*
X93701001Y-80745770I-2989999J462D01*
G01*
X93701000Y-83835430D02*
G75*
G03*
X99251000Y-82290138I2560000J1544830D01*
G01*
X98761000Y-82290600D02*
G75*
G03*
X98761000Y-82290600I-2500000J0D01*
G01*
%TO.C,D20*%
X201651000Y-80745600D02*
X201651000Y-83835600D01*
X207200999Y-82291062D02*
G75*
G03*
X201651001Y-80745770I-2989999J462D01*
G01*
X201651000Y-83835430D02*
G75*
G03*
X207201000Y-82290138I2560000J1544830D01*
G01*
X206711000Y-82290600D02*
G75*
G03*
X206711000Y-82290600I-2500000J0D01*
G01*
%TO.C,D37*%
X55601000Y-80745600D02*
X55601000Y-83835600D01*
X61150999Y-82291062D02*
G75*
G03*
X55601001Y-80745770I-2989999J462D01*
G01*
X55601000Y-83835430D02*
G75*
G03*
X61151000Y-82290138I2560000J1544830D01*
G01*
X60661000Y-82290600D02*
G75*
G03*
X60661000Y-82290600I-2500000J0D01*
G01*
%TO.C,D54*%
X71856000Y-55640600D02*
X74946000Y-55640600D01*
X73401462Y-50090601D02*
G75*
G03*
X71856170Y-55640599I-462J-2989999D01*
G01*
X74945830Y-55640600D02*
G75*
G03*
X73400538Y-50090600I-1544830J2560000D01*
G01*
X75901000Y-53080600D02*
G75*
G03*
X75901000Y-53080600I-2500000J0D01*
G01*
%TO.C,D80*%
X141961000Y-80745600D02*
X141961000Y-83835600D01*
X147510999Y-82291062D02*
G75*
G03*
X141961001Y-80745770I-2989999J462D01*
G01*
X141961000Y-83835430D02*
G75*
G03*
X147511000Y-82290138I2560000J1544830D01*
G01*
X147021000Y-82290600D02*
G75*
G03*
X147021000Y-82290600I-2500000J0D01*
G01*
%TO.C,D47*%
X55601000Y-29945600D02*
X55601000Y-33035600D01*
X61150999Y-31491062D02*
G75*
G03*
X55601001Y-29945770I-2989999J462D01*
G01*
X55601000Y-33035430D02*
G75*
G03*
X61151000Y-31490138I2560000J1544830D01*
G01*
X60661000Y-31490600D02*
G75*
G03*
X60661000Y-31490600I-2500000J0D01*
G01*
%TO.C,D34*%
X163551000Y-73125600D02*
X163551000Y-76215600D01*
X169100999Y-74671062D02*
G75*
G03*
X163551001Y-73125770I-2989999J462D01*
G01*
X163551000Y-76215430D02*
G75*
G03*
X169101000Y-74670138I2560000J1544830D01*
G01*
X168611000Y-74670600D02*
G75*
G03*
X168611000Y-74670600I-2500000J0D01*
G01*
%TO.C,D102*%
X103861000Y-37565600D02*
X103861000Y-40655600D01*
X109410999Y-39111062D02*
G75*
G03*
X103861001Y-37565770I-2989999J462D01*
G01*
X103861000Y-40655430D02*
G75*
G03*
X109411000Y-39110138I2560000J1544830D01*
G01*
X108921000Y-39110600D02*
G75*
G03*
X108921000Y-39110600I-2500000J0D01*
G01*
%TO.C,D35*%
X163551000Y-65505600D02*
X163551000Y-68595600D01*
X169100999Y-67051062D02*
G75*
G03*
X163551001Y-65505770I-2989999J462D01*
G01*
X163551000Y-68595430D02*
G75*
G03*
X169101000Y-67050138I2560000J1544830D01*
G01*
X168611000Y-67050600D02*
G75*
G03*
X168611000Y-67050600I-2500000J0D01*
G01*
%TO.C,D112*%
X135356000Y-55640600D02*
X138446000Y-55640600D01*
X136901462Y-50090601D02*
G75*
G03*
X135356170Y-55640599I-462J-2989999D01*
G01*
X138445830Y-55640600D02*
G75*
G03*
X136900538Y-50090600I-1544830J2560000D01*
G01*
X139401000Y-53080600D02*
G75*
G03*
X139401000Y-53080600I-2500000J0D01*
G01*
%TO.C,D71*%
X141961000Y-37565600D02*
X141961000Y-40655600D01*
X147510999Y-39111062D02*
G75*
G03*
X141961001Y-37565770I-2989999J462D01*
G01*
X141961000Y-40655430D02*
G75*
G03*
X147511000Y-39110138I2560000J1544830D01*
G01*
X147021000Y-39110600D02*
G75*
G03*
X147021000Y-39110600I-2500000J0D01*
G01*
%TO.C,D49*%
X172186000Y-55640600D02*
X175276000Y-55640600D01*
X173731462Y-50090601D02*
G75*
G03*
X172186170Y-55640599I-462J-2989999D01*
G01*
X175275830Y-55640600D02*
G75*
G03*
X173730538Y-50090600I-1544830J2560000D01*
G01*
X176231000Y-53080600D02*
G75*
G03*
X176231000Y-53080600I-2500000J0D01*
G01*
%TO.C,D17*%
X201651000Y-57885600D02*
X201651000Y-60975600D01*
X207200999Y-59431062D02*
G75*
G03*
X201651001Y-57885770I-2989999J462D01*
G01*
X201651000Y-60975430D02*
G75*
G03*
X207201000Y-59430138I2560000J1544830D01*
G01*
X206711000Y-59430600D02*
G75*
G03*
X206711000Y-59430600I-2500000J0D01*
G01*
%TO.C,D106*%
X228066000Y-55640600D02*
X231156000Y-55640600D01*
X229611462Y-50090601D02*
G75*
G03*
X228066170Y-55640599I-462J-2989999D01*
G01*
X231155830Y-55640600D02*
G75*
G03*
X229610538Y-50090600I-1544830J2560000D01*
G01*
X232111000Y-53080600D02*
G75*
G03*
X232111000Y-53080600I-2500000J0D01*
G01*
%TO.C,D32*%
X64236000Y-92470600D02*
X67326000Y-92470600D01*
X65781462Y-86920601D02*
G75*
G03*
X64236170Y-92470599I-462J-2989999D01*
G01*
X67325830Y-92470600D02*
G75*
G03*
X65780538Y-86920600I-1544830J2560000D01*
G01*
X68281000Y-89910600D02*
G75*
G03*
X68281000Y-89910600I-2500000J0D01*
G01*
%TO.C,D100*%
X211811000Y-22325600D02*
X211811000Y-25415600D01*
X217360999Y-23871062D02*
G75*
G03*
X211811001Y-22325770I-2989999J462D01*
G01*
X211811000Y-25415430D02*
G75*
G03*
X217361000Y-23870138I2560000J1544830D01*
G01*
X216871000Y-23870600D02*
G75*
G03*
X216871000Y-23870600I-2500000J0D01*
G01*
%TO.C,D55*%
X79476000Y-55640600D02*
X82566000Y-55640600D01*
X81021462Y-50090601D02*
G75*
G03*
X79476170Y-55640599I-462J-2989999D01*
G01*
X82565830Y-55640600D02*
G75*
G03*
X81020538Y-50090600I-1544830J2560000D01*
G01*
X83521000Y-53080600D02*
G75*
G03*
X83521000Y-53080600I-2500000J0D01*
G01*
%TO.C,D44*%
X163551000Y-22325600D02*
X163551000Y-25415600D01*
X169100999Y-23871062D02*
G75*
G03*
X163551001Y-22325770I-2989999J462D01*
G01*
X163551000Y-25415430D02*
G75*
G03*
X169101000Y-23870138I2560000J1544830D01*
G01*
X168611000Y-23870600D02*
G75*
G03*
X168611000Y-23870600I-2500000J0D01*
G01*
%TO.C,D15*%
X93701000Y-37565600D02*
X93701000Y-40655600D01*
X99250999Y-39111062D02*
G75*
G03*
X93701001Y-37565770I-2989999J462D01*
G01*
X93701000Y-40655430D02*
G75*
G03*
X99251000Y-39110138I2560000J1544830D01*
G01*
X98761000Y-39110600D02*
G75*
G03*
X98761000Y-39110600I-2500000J0D01*
G01*
%TO.C,D99*%
X211811000Y-29945600D02*
X211811000Y-33035600D01*
X217360999Y-31491062D02*
G75*
G03*
X211811001Y-29945770I-2989999J462D01*
G01*
X211811000Y-33035430D02*
G75*
G03*
X217361000Y-31490138I2560000J1544830D01*
G01*
X216871000Y-31490600D02*
G75*
G03*
X216871000Y-31490600I-2500000J0D01*
G01*
%TO.C,D108*%
X243306000Y-55640600D02*
X246396000Y-55640600D01*
X244851462Y-50090601D02*
G75*
G03*
X243306170Y-55640599I-462J-2989999D01*
G01*
X246395830Y-55640600D02*
G75*
G03*
X244850538Y-50090600I-1544830J2560000D01*
G01*
X247351000Y-53080600D02*
G75*
G03*
X247351000Y-53080600I-2500000J0D01*
G01*
%TO.C,D66*%
X249911000Y-29945600D02*
X249911000Y-33035600D01*
X255460999Y-31491062D02*
G75*
G03*
X249911001Y-29945770I-2989999J462D01*
G01*
X249911000Y-33035430D02*
G75*
G03*
X255461000Y-31490138I2560000J1544830D01*
G01*
X254971000Y-31490600D02*
G75*
G03*
X254971000Y-31490600I-2500000J0D01*
G01*
%TO.C,D58*%
X228066000Y-18810600D02*
X231156000Y-18810600D01*
X229611462Y-13260601D02*
G75*
G03*
X228066170Y-18810599I-462J-2989999D01*
G01*
X231155830Y-18810600D02*
G75*
G03*
X229610538Y-13260600I-1544830J2560000D01*
G01*
X232111000Y-16250600D02*
G75*
G03*
X232111000Y-16250600I-2500000J0D01*
G01*
%TO.C,D110*%
X120116000Y-55640600D02*
X123206000Y-55640600D01*
X121661462Y-50090601D02*
G75*
G03*
X120116170Y-55640599I-462J-2989999D01*
G01*
X123205830Y-55640600D02*
G75*
G03*
X121660538Y-50090600I-1544830J2560000D01*
G01*
X124161000Y-53080600D02*
G75*
G03*
X124161000Y-53080600I-2500000J0D01*
G01*
%TO.C,D23*%
X93701000Y-73125600D02*
X93701000Y-76215600D01*
X99250999Y-74671062D02*
G75*
G03*
X93701001Y-73125770I-2989999J462D01*
G01*
X93701000Y-76215430D02*
G75*
G03*
X99251000Y-74670138I2560000J1544830D01*
G01*
X98761000Y-74670600D02*
G75*
G03*
X98761000Y-74670600I-2500000J0D01*
G01*
%TO.C,D33*%
X163551000Y-80745600D02*
X163551000Y-83835600D01*
X169100999Y-82291062D02*
G75*
G03*
X163551001Y-80745770I-2989999J462D01*
G01*
X163551000Y-83835430D02*
G75*
G03*
X169101000Y-82290138I2560000J1544830D01*
G01*
X168611000Y-82290600D02*
G75*
G03*
X168611000Y-82290600I-2500000J0D01*
G01*
%TO.C,D92*%
X211811000Y-57885600D02*
X211811000Y-60975600D01*
X217360999Y-59431062D02*
G75*
G03*
X211811001Y-57885770I-2989999J462D01*
G01*
X211811000Y-60975430D02*
G75*
G03*
X217361000Y-59430138I2560000J1544830D01*
G01*
X216871000Y-59430600D02*
G75*
G03*
X216871000Y-59430600I-2500000J0D01*
G01*
%TO.C,D7*%
X201651000Y-37565600D02*
X201651000Y-40655600D01*
X207200999Y-39111062D02*
G75*
G03*
X201651001Y-37565770I-2989999J462D01*
G01*
X201651000Y-40655430D02*
G75*
G03*
X207201000Y-39110138I2560000J1544830D01*
G01*
X206711000Y-39110600D02*
G75*
G03*
X206711000Y-39110600I-2500000J0D01*
G01*
%TO.C,J3*%
X20639600Y-23526000D02*
X22339600Y-23526000D01*
X20639600Y-32866000D02*
X22339600Y-32866000D01*
%TO.C,D82*%
X235686000Y-92470600D02*
X238776000Y-92470600D01*
X237231462Y-86920601D02*
G75*
G03*
X235686170Y-92470599I-462J-2989999D01*
G01*
X238775830Y-92470600D02*
G75*
G03*
X237230538Y-86920600I-1544830J2560000D01*
G01*
X239731000Y-89910600D02*
G75*
G03*
X239731000Y-89910600I-2500000J0D01*
G01*
%TO.C,D79*%
X141961000Y-73125600D02*
X141961000Y-76215600D01*
X147510999Y-74671062D02*
G75*
G03*
X141961001Y-73125770I-2989999J462D01*
G01*
X141961000Y-76215430D02*
G75*
G03*
X147511000Y-74670138I2560000J1544830D01*
G01*
X147021000Y-74670600D02*
G75*
G03*
X147021000Y-74670600I-2500000J0D01*
G01*
%TO.C,D30*%
X79476000Y-92470600D02*
X82566000Y-92470600D01*
X81021462Y-86920601D02*
G75*
G03*
X79476170Y-92470599I-462J-2989999D01*
G01*
X82565830Y-92470600D02*
G75*
G03*
X81020538Y-86920600I-1544830J2560000D01*
G01*
X83521000Y-89910600D02*
G75*
G03*
X83521000Y-89910600I-2500000J0D01*
G01*
%TO.C,D95*%
X103861000Y-65505600D02*
X103861000Y-68595600D01*
X109410999Y-67051062D02*
G75*
G03*
X103861001Y-65505770I-2989999J462D01*
G01*
X103861000Y-68595430D02*
G75*
G03*
X109411000Y-67050138I2560000J1544830D01*
G01*
X108921000Y-67050600D02*
G75*
G03*
X108921000Y-67050600I-2500000J0D01*
G01*
%TO.C,D16*%
X93701000Y-45185600D02*
X93701000Y-48275600D01*
X99250999Y-46731062D02*
G75*
G03*
X93701001Y-45185770I-2989999J462D01*
G01*
X93701000Y-48275430D02*
G75*
G03*
X99251000Y-46730138I2560000J1544830D01*
G01*
X98761000Y-46730600D02*
G75*
G03*
X98761000Y-46730600I-2500000J0D01*
G01*
%TO.C,D13*%
X93701000Y-22325600D02*
X93701000Y-25415600D01*
X99250999Y-23871062D02*
G75*
G03*
X93701001Y-22325770I-2989999J462D01*
G01*
X93701000Y-25415430D02*
G75*
G03*
X99251000Y-23870138I2560000J1544830D01*
G01*
X98761000Y-23870600D02*
G75*
G03*
X98761000Y-23870600I-2500000J0D01*
G01*
%TO.C,D60*%
X243306000Y-18810600D02*
X246396000Y-18810600D01*
X244851462Y-13260601D02*
G75*
G03*
X243306170Y-18810599I-462J-2989999D01*
G01*
X246395830Y-18810600D02*
G75*
G03*
X244850538Y-13260600I-1544830J2560000D01*
G01*
X247351000Y-16250600D02*
G75*
G03*
X247351000Y-16250600I-2500000J0D01*
G01*
%TO.C,D2*%
X179806000Y-18810600D02*
X182896000Y-18810600D01*
X181351462Y-13260601D02*
G75*
G03*
X179806170Y-18810599I-462J-2989999D01*
G01*
X182895830Y-18810600D02*
G75*
G03*
X181350538Y-13260600I-1544830J2560000D01*
G01*
X183851000Y-16250600D02*
G75*
G03*
X183851000Y-16250600I-2500000J0D01*
G01*
%TO.C,D11*%
X79476000Y-18810600D02*
X82566000Y-18810600D01*
X81021462Y-13260601D02*
G75*
G03*
X79476170Y-18810599I-462J-2989999D01*
G01*
X82565830Y-18810600D02*
G75*
G03*
X81020538Y-13260600I-1544830J2560000D01*
G01*
X83521000Y-16250600D02*
G75*
G03*
X83521000Y-16250600I-2500000J0D01*
G01*
%TO.C,D101*%
X103861000Y-45185600D02*
X103861000Y-48275600D01*
X109410999Y-46731062D02*
G75*
G03*
X103861001Y-45185770I-2989999J462D01*
G01*
X103861000Y-48275430D02*
G75*
G03*
X109411000Y-46730138I2560000J1544830D01*
G01*
X108921000Y-46730600D02*
G75*
G03*
X108921000Y-46730600I-2500000J0D01*
G01*
%TO.C,D50*%
X179806000Y-55640600D02*
X182896000Y-55640600D01*
X181351462Y-50090601D02*
G75*
G03*
X179806170Y-55640599I-462J-2989999D01*
G01*
X182895830Y-55640600D02*
G75*
G03*
X181350538Y-50090600I-1544830J2560000D01*
G01*
X183851000Y-53080600D02*
G75*
G03*
X183851000Y-53080600I-2500000J0D01*
G01*
%TO.C,D86*%
X127736000Y-92470600D02*
X130826000Y-92470600D01*
X129281462Y-86920601D02*
G75*
G03*
X127736170Y-92470599I-462J-2989999D01*
G01*
X130825830Y-92470600D02*
G75*
G03*
X129280538Y-86920600I-1544830J2560000D01*
G01*
X131781000Y-89910600D02*
G75*
G03*
X131781000Y-89910600I-2500000J0D01*
G01*
%TO.C,D3*%
X187426000Y-18810600D02*
X190516000Y-18810600D01*
X188971462Y-13260601D02*
G75*
G03*
X187426170Y-18810599I-462J-2989999D01*
G01*
X190515830Y-18810600D02*
G75*
G03*
X188970538Y-13260600I-1544830J2560000D01*
G01*
X191471000Y-16250600D02*
G75*
G03*
X191471000Y-16250600I-2500000J0D01*
G01*
%TO.C,D76*%
X249911000Y-80745600D02*
X249911000Y-83835600D01*
X255460999Y-82291062D02*
G75*
G03*
X249911001Y-80745770I-2989999J462D01*
G01*
X249911000Y-83835430D02*
G75*
G03*
X255461000Y-82290138I2560000J1544830D01*
G01*
X254971000Y-82290600D02*
G75*
G03*
X254971000Y-82290600I-2500000J0D01*
G01*
%TO.C,D14*%
X93701000Y-29945600D02*
X93701000Y-33035600D01*
X99250999Y-31491062D02*
G75*
G03*
X93701001Y-29945770I-2989999J462D01*
G01*
X93701000Y-33035430D02*
G75*
G03*
X99251000Y-31490138I2560000J1544830D01*
G01*
X98761000Y-31490600D02*
G75*
G03*
X98761000Y-31490600I-2500000J0D01*
G01*
%TO.C,D78*%
X141961000Y-65505600D02*
X141961000Y-68595600D01*
X147510999Y-67051062D02*
G75*
G03*
X141961001Y-65505770I-2989999J462D01*
G01*
X141961000Y-68595430D02*
G75*
G03*
X147511000Y-67050138I2560000J1544830D01*
G01*
X147021000Y-67050600D02*
G75*
G03*
X147021000Y-67050600I-2500000J0D01*
G01*
%TO.C,D42*%
X163551000Y-37565600D02*
X163551000Y-40655600D01*
X169100999Y-39111062D02*
G75*
G03*
X163551001Y-37565770I-2989999J462D01*
G01*
X163551000Y-40655430D02*
G75*
G03*
X169101000Y-39110138I2560000J1544830D01*
G01*
X168611000Y-39110600D02*
G75*
G03*
X168611000Y-39110600I-2500000J0D01*
G01*
%TO.C,D97*%
X211811000Y-45185600D02*
X211811000Y-48275600D01*
X217360999Y-46731062D02*
G75*
G03*
X211811001Y-45185770I-2989999J462D01*
G01*
X211811000Y-48275430D02*
G75*
G03*
X217361000Y-46730138I2560000J1544830D01*
G01*
X216871000Y-46730600D02*
G75*
G03*
X216871000Y-46730600I-2500000J0D01*
G01*
%TO.C,D98*%
X211811000Y-37565600D02*
X211811000Y-40655600D01*
X217360999Y-39111062D02*
G75*
G03*
X211811001Y-37565770I-2989999J462D01*
G01*
X211811000Y-40655430D02*
G75*
G03*
X217361000Y-39110138I2560000J1544830D01*
G01*
X216871000Y-39110600D02*
G75*
G03*
X216871000Y-39110600I-2500000J0D01*
G01*
%TO.C,D94*%
X103861000Y-73125600D02*
X103861000Y-76215600D01*
X109410999Y-74671062D02*
G75*
G03*
X103861001Y-73125770I-2989999J462D01*
G01*
X103861000Y-76215430D02*
G75*
G03*
X109411000Y-74670138I2560000J1544830D01*
G01*
X108921000Y-74670600D02*
G75*
G03*
X108921000Y-74670600I-2500000J0D01*
G01*
%TO.C,D38*%
X55601000Y-73125600D02*
X55601000Y-76215600D01*
X61150999Y-74671062D02*
G75*
G03*
X55601001Y-73125770I-2989999J462D01*
G01*
X55601000Y-76215430D02*
G75*
G03*
X61151000Y-74670138I2560000J1544830D01*
G01*
X60661000Y-74670600D02*
G75*
G03*
X60661000Y-74670600I-2500000J0D01*
G01*
%TO.C,D85*%
X135356000Y-92470600D02*
X138446000Y-92470600D01*
X136901462Y-86920601D02*
G75*
G03*
X135356170Y-92470599I-462J-2989999D01*
G01*
X138445830Y-92470600D02*
G75*
G03*
X136900538Y-86920600I-1544830J2560000D01*
G01*
X139401000Y-89910600D02*
G75*
G03*
X139401000Y-89910600I-2500000J0D01*
G01*
%TO.C,D77*%
X141961000Y-57885600D02*
X141961000Y-60975600D01*
X147510999Y-59431062D02*
G75*
G03*
X141961001Y-57885770I-2989999J462D01*
G01*
X141961000Y-60975430D02*
G75*
G03*
X147511000Y-59430138I2560000J1544830D01*
G01*
X147021000Y-59430600D02*
G75*
G03*
X147021000Y-59430600I-2500000J0D01*
G01*
%TO.C,D8*%
X201651000Y-45185600D02*
X201651000Y-48275600D01*
X207200999Y-46731062D02*
G75*
G03*
X201651001Y-45185770I-2989999J462D01*
G01*
X201651000Y-48275430D02*
G75*
G03*
X207201000Y-46730138I2560000J1544830D01*
G01*
X206711000Y-46730600D02*
G75*
G03*
X206711000Y-46730600I-2500000J0D01*
G01*
%TO.C,D93*%
X103861000Y-80745600D02*
X103861000Y-83835600D01*
X109410999Y-82291062D02*
G75*
G03*
X103861001Y-80745770I-2989999J462D01*
G01*
X103861000Y-83835430D02*
G75*
G03*
X109411000Y-82290138I2560000J1544830D01*
G01*
X108921000Y-82290600D02*
G75*
G03*
X108921000Y-82290600I-2500000J0D01*
G01*
%TO.C,D41*%
X163551000Y-45185600D02*
X163551000Y-48275600D01*
X169100999Y-46731062D02*
G75*
G03*
X163551001Y-45185770I-2989999J462D01*
G01*
X163551000Y-48275430D02*
G75*
G03*
X169101000Y-46730138I2560000J1544830D01*
G01*
X168611000Y-46730600D02*
G75*
G03*
X168611000Y-46730600I-2500000J0D01*
G01*
%TO.C,D12*%
X87096000Y-18810600D02*
X90186000Y-18810600D01*
X88641462Y-13260601D02*
G75*
G03*
X87096170Y-18810599I-462J-2989999D01*
G01*
X90185830Y-18810600D02*
G75*
G03*
X88640538Y-13260600I-1544830J2560000D01*
G01*
X91141000Y-16250600D02*
G75*
G03*
X91141000Y-16250600I-2500000J0D01*
G01*
%TO.C,D25*%
X195046000Y-92470600D02*
X198136000Y-92470600D01*
X196591462Y-86920601D02*
G75*
G03*
X195046170Y-92470599I-462J-2989999D01*
G01*
X198135830Y-92470600D02*
G75*
G03*
X196590538Y-86920600I-1544830J2560000D01*
G01*
X199091000Y-89910600D02*
G75*
G03*
X199091000Y-89910600I-2500000J0D01*
G01*
%TO.C,D105*%
X220446000Y-55640600D02*
X223536000Y-55640600D01*
X221991462Y-50090601D02*
G75*
G03*
X220446170Y-55640599I-462J-2989999D01*
G01*
X223535830Y-55640600D02*
G75*
G03*
X221990538Y-50090600I-1544830J2560000D01*
G01*
X224491000Y-53080600D02*
G75*
G03*
X224491000Y-53080600I-2500000J0D01*
G01*
%TO.C,D31*%
X71856000Y-92470600D02*
X74946000Y-92470600D01*
X73401462Y-86920601D02*
G75*
G03*
X71856170Y-92470599I-462J-2989999D01*
G01*
X74945830Y-92470600D02*
G75*
G03*
X73400538Y-86920600I-1544830J2560000D01*
G01*
X75901000Y-89910600D02*
G75*
G03*
X75901000Y-89910600I-2500000J0D01*
G01*
%TO.C,D18*%
X201651000Y-65505600D02*
X201651000Y-68595600D01*
X207200999Y-67051062D02*
G75*
G03*
X201651001Y-65505770I-2989999J462D01*
G01*
X201651000Y-68595430D02*
G75*
G03*
X207201000Y-67050138I2560000J1544830D01*
G01*
X206711000Y-67050600D02*
G75*
G03*
X206711000Y-67050600I-2500000J0D01*
G01*
%TO.C,D107*%
X235686000Y-55640600D02*
X238776000Y-55640600D01*
X237231462Y-50090601D02*
G75*
G03*
X235686170Y-55640599I-462J-2989999D01*
G01*
X238775830Y-55640600D02*
G75*
G03*
X237230538Y-50090600I-1544830J2560000D01*
G01*
X239731000Y-53080600D02*
G75*
G03*
X239731000Y-53080600I-2500000J0D01*
G01*
%TO.C,D75*%
X249911000Y-73125600D02*
X249911000Y-76215600D01*
X255460999Y-74671062D02*
G75*
G03*
X249911001Y-73125770I-2989999J462D01*
G01*
X249911000Y-76215430D02*
G75*
G03*
X255461000Y-74670138I2560000J1544830D01*
G01*
X254971000Y-74670600D02*
G75*
G03*
X254971000Y-74670600I-2500000J0D01*
G01*
%TO.C,D87*%
X120116000Y-92470600D02*
X123206000Y-92470600D01*
X121661462Y-86920601D02*
G75*
G03*
X120116170Y-92470599I-462J-2989999D01*
G01*
X123205830Y-92470600D02*
G75*
G03*
X121660538Y-86920600I-1544830J2560000D01*
G01*
X124161000Y-89910600D02*
G75*
G03*
X124161000Y-89910600I-2500000J0D01*
G01*
%TO.C,D84*%
X220446000Y-92470600D02*
X223536000Y-92470600D01*
X221991462Y-86920601D02*
G75*
G03*
X220446170Y-92470599I-462J-2989999D01*
G01*
X223535830Y-92470600D02*
G75*
G03*
X221990538Y-86920600I-1544830J2560000D01*
G01*
X224491000Y-89910600D02*
G75*
G03*
X224491000Y-89910600I-2500000J0D01*
G01*
%TO.C,D46*%
X55601000Y-37565600D02*
X55601000Y-40655600D01*
X61150999Y-39111062D02*
G75*
G03*
X55601001Y-37565770I-2989999J462D01*
G01*
X55601000Y-40655430D02*
G75*
G03*
X61151000Y-39110138I2560000J1544830D01*
G01*
X60661000Y-39110600D02*
G75*
G03*
X60661000Y-39110600I-2500000J0D01*
G01*
%TO.C,D111*%
X127736000Y-55640600D02*
X130826000Y-55640600D01*
X129281462Y-50090601D02*
G75*
G03*
X127736170Y-55640599I-462J-2989999D01*
G01*
X130825830Y-55640600D02*
G75*
G03*
X129280538Y-50090600I-1544830J2560000D01*
G01*
X131781000Y-53080600D02*
G75*
G03*
X131781000Y-53080600I-2500000J0D01*
G01*
%TO.C,D6*%
X201651000Y-29945600D02*
X201651000Y-33035600D01*
X207200999Y-31491062D02*
G75*
G03*
X201651001Y-29945770I-2989999J462D01*
G01*
X201651000Y-33035430D02*
G75*
G03*
X207201000Y-31490138I2560000J1544830D01*
G01*
X206711000Y-31490600D02*
G75*
G03*
X206711000Y-31490600I-2500000J0D01*
G01*
%TO.C,D62*%
X120116000Y-18810600D02*
X123206000Y-18810600D01*
X121661462Y-13260601D02*
G75*
G03*
X120116170Y-18810599I-462J-2989999D01*
G01*
X123205830Y-18810600D02*
G75*
G03*
X121660538Y-13260600I-1544830J2560000D01*
G01*
X124161000Y-16250600D02*
G75*
G03*
X124161000Y-16250600I-2500000J0D01*
G01*
%TD*%
M02*
