%TF.GenerationSoftware,KiCad,Pcbnew,7.0.8*%
%TF.CreationDate,2023-11-29T08:53:45-05:00*%
%TF.ProjectId,clock,636c6f63-6b2e-46b6-9963-61645f706362,rev?*%
%TF.SameCoordinates,Original*%
%TF.FileFunction,Paste,Bot*%
%TF.FilePolarity,Positive*%
%FSLAX46Y46*%
G04 Gerber Fmt 4.6, Leading zero omitted, Abs format (unit mm)*
G04 Created by KiCad (PCBNEW 7.0.8) date 2023-11-29 08:53:45*
%MOMM*%
%LPD*%
G01*
G04 APERTURE LIST*
G04 Aperture macros list*
%AMRoundRect*
0 Rectangle with rounded corners*
0 $1 Rounding radius*
0 $2 $3 $4 $5 $6 $7 $8 $9 X,Y pos of 4 corners*
0 Add a 4 corners polygon primitive as box body*
4,1,4,$2,$3,$4,$5,$6,$7,$8,$9,$2,$3,0*
0 Add four circle primitives for the rounded corners*
1,1,$1+$1,$2,$3*
1,1,$1+$1,$4,$5*
1,1,$1+$1,$6,$7*
1,1,$1+$1,$8,$9*
0 Add four rect primitives between the rounded corners*
20,1,$1+$1,$2,$3,$4,$5,0*
20,1,$1+$1,$4,$5,$6,$7,0*
20,1,$1+$1,$6,$7,$8,$9,0*
20,1,$1+$1,$8,$9,$2,$3,0*%
G04 Aperture macros list end*
%ADD10RoundRect,0.250000X-0.400000X-1.075000X0.400000X-1.075000X0.400000X1.075000X-0.400000X1.075000X0*%
%ADD11R,0.400000X1.500000*%
%ADD12R,0.550000X0.800000*%
%ADD13RoundRect,0.150000X0.512500X0.150000X-0.512500X0.150000X-0.512500X-0.150000X0.512500X-0.150000X0*%
%ADD14R,0.900000X0.900000*%
%ADD15RoundRect,0.250000X0.625000X-0.375000X0.625000X0.375000X-0.625000X0.375000X-0.625000X-0.375000X0*%
%ADD16RoundRect,0.200000X-0.200000X-0.275000X0.200000X-0.275000X0.200000X0.275000X-0.200000X0.275000X0*%
%ADD17RoundRect,0.250000X-0.650000X0.412500X-0.650000X-0.412500X0.650000X-0.412500X0.650000X0.412500X0*%
G04 APERTURE END LIST*
D10*
%TO.C,R1*%
X32232000Y-49326800D03*
X35332000Y-49326800D03*
%TD*%
D11*
%TO.C,Q3*%
X43281600Y-61417200D03*
X42631600Y-61417200D03*
X41981600Y-61417200D03*
X41981600Y-58757200D03*
X42631600Y-58757200D03*
X43281600Y-58757200D03*
%TD*%
%TO.C,Q4*%
X43322000Y-56549600D03*
X42672000Y-56549600D03*
X42022000Y-56549600D03*
X42022000Y-53889600D03*
X42672000Y-53889600D03*
X43322000Y-53889600D03*
%TD*%
D12*
%TO.C,U2*%
X32694800Y-44602400D03*
X33644800Y-44602400D03*
X34594800Y-44602400D03*
X34594800Y-47002400D03*
X33644800Y-47002400D03*
X32694800Y-47002400D03*
%TD*%
D11*
%TO.C,Q5*%
X43830000Y-49377600D03*
X43180000Y-49377600D03*
X42530000Y-49377600D03*
X42530000Y-46717600D03*
X43180000Y-46717600D03*
X43830000Y-46717600D03*
%TD*%
D13*
%TO.C,Q6*%
X43911100Y-42788800D03*
X43911100Y-44688800D03*
X41636100Y-43738800D03*
%TD*%
D14*
%TO.C,RN1*%
X36271200Y-24892000D03*
X36271200Y-23552000D03*
X36271200Y-22232000D03*
X36271200Y-20892000D03*
X39271200Y-20892000D03*
X39271200Y-22232000D03*
X39271200Y-23552000D03*
X39271200Y-24892000D03*
%TD*%
D11*
%TO.C,Q7*%
X30388800Y-59994800D03*
X31038800Y-59994800D03*
X31688800Y-59994800D03*
X31688800Y-62654800D03*
X31038800Y-62654800D03*
X30388800Y-62654800D03*
%TD*%
D15*
%TO.C,D*%
X30378400Y-15471600D03*
X30378400Y-12671600D03*
%TD*%
D11*
%TO.C,Q2*%
X30592000Y-52458000D03*
X31242000Y-52458000D03*
X31892000Y-52458000D03*
X31892000Y-55118000D03*
X31242000Y-55118000D03*
X30592000Y-55118000D03*
%TD*%
D16*
%TO.C,R2*%
X19723600Y-27442000D03*
X21373600Y-27442000D03*
%TD*%
D17*
%TO.C,C1*%
X30378400Y-17373600D03*
X30378400Y-20498600D03*
%TD*%
D14*
%TO.C,RN2*%
X33982400Y-57982000D03*
X33982400Y-56642000D03*
X33982400Y-55322000D03*
X33982400Y-53982000D03*
X36982400Y-53982000D03*
X36982400Y-55322000D03*
X36982400Y-56642000D03*
X36982400Y-57982000D03*
%TD*%
D16*
%TO.C,R3*%
X19723600Y-29347000D03*
X21373600Y-29347000D03*
%TD*%
M02*
