%TF.GenerationSoftware,KiCad,Pcbnew,7.0.11*%
%TF.CreationDate,2025-12-11T10:01:47-05:00*%
%TF.ProjectId,clock_hbridge_fix,636c6f63-6b5f-4686-9272-696467655f66,rev?*%
%TF.SameCoordinates,Original*%
%TF.FileFunction,Legend,Top*%
%TF.FilePolarity,Positive*%
%FSLAX46Y46*%
G04 Gerber Fmt 4.6, Leading zero omitted, Abs format (unit mm)*
G04 Created by KiCad (PCBNEW 7.0.11) date 2025-12-11 10:01:47*
%MOMM*%
%LPD*%
G01*
G04 APERTURE LIST*
%ADD10C,0.120000*%
G04 APERTURE END LIST*
D10*
%TO.C,R5*%
X19910000Y-33962258D02*
X19910000Y-33487742D01*
X18865000Y-33962258D02*
X18865000Y-33487742D01*
%TO.C,TP2*%
X22750000Y-38000000D02*
G75*
G03*
X19250000Y-38000000I-1750000J0D01*
G01*
X19250000Y-38000000D02*
G75*
G03*
X22750000Y-38000000I1750000J0D01*
G01*
%TO.C,TP1*%
X29750000Y-38000000D02*
G75*
G03*
X26250000Y-38000000I-1750000J0D01*
G01*
X26250000Y-38000000D02*
G75*
G03*
X29750000Y-38000000I1750000J0D01*
G01*
%TO.C,J2*%
X23330000Y-19730000D02*
X23330000Y-27410000D01*
X20670000Y-18460000D02*
X20670000Y-17130000D01*
X20670000Y-27410000D02*
X23330000Y-27410000D01*
X20670000Y-19730000D02*
X23330000Y-19730000D01*
X20670000Y-17130000D02*
X22000000Y-17130000D01*
X20670000Y-19730000D02*
X20670000Y-27410000D01*
%TO.C,R6*%
X17477500Y-37437742D02*
X17477500Y-37912258D01*
X18522500Y-37437742D02*
X18522500Y-37912258D01*
%TO.C,R4*%
X18865000Y-30487742D02*
X18865000Y-30962258D01*
X19910000Y-30487742D02*
X19910000Y-30962258D01*
%TO.C,R3*%
X24577500Y-33137742D02*
X24577500Y-33612258D01*
X25622500Y-33137742D02*
X25622500Y-33612258D01*
%TO.C,R2*%
X25622500Y-30537258D02*
X25622500Y-30062742D01*
X24577500Y-30537258D02*
X24577500Y-30062742D01*
%TO.C,R1*%
X25022500Y-37737258D02*
X25022500Y-37262742D01*
X23977500Y-37737258D02*
X23977500Y-37262742D01*
%TO.C,Q4*%
X20950000Y-32540000D02*
X20710000Y-32210000D01*
X21190000Y-32210000D01*
X20950000Y-32540000D01*
G36*
X20950000Y-32540000D02*
G01*
X20710000Y-32210000D01*
X21190000Y-32210000D01*
X20950000Y-32540000D01*
G37*
X22250000Y-32490000D02*
X21450000Y-32490000D01*
X22250000Y-32490000D02*
X23050000Y-32490000D01*
X22250000Y-35610000D02*
X21450000Y-35610000D01*
X22250000Y-35610000D02*
X23050000Y-35610000D01*
%TO.C,Q3*%
X22250000Y-32060000D02*
X23050000Y-32060000D01*
X22250000Y-32060000D02*
X21450000Y-32060000D01*
X22250000Y-28940000D02*
X23050000Y-28940000D01*
X22250000Y-28940000D02*
X21450000Y-28940000D01*
X20950000Y-28990000D02*
X20710000Y-28660000D01*
X21190000Y-28660000D01*
X20950000Y-28990000D01*
G36*
X20950000Y-28990000D02*
G01*
X20710000Y-28660000D01*
X21190000Y-28660000D01*
X20950000Y-28990000D01*
G37*
%TO.C,Q2*%
X27887500Y-35610000D02*
X28687500Y-35610000D01*
X27887500Y-35610000D02*
X27087500Y-35610000D01*
X27887500Y-32490000D02*
X28687500Y-32490000D01*
X27887500Y-32490000D02*
X27087500Y-32490000D01*
X26587500Y-32540000D02*
X26347500Y-32210000D01*
X26827500Y-32210000D01*
X26587500Y-32540000D01*
G36*
X26587500Y-32540000D02*
G01*
X26347500Y-32210000D01*
X26827500Y-32210000D01*
X26587500Y-32540000D01*
G37*
%TO.C,Q1*%
X27887500Y-32060000D02*
X28687500Y-32060000D01*
X27887500Y-32060000D02*
X27087500Y-32060000D01*
X27887500Y-28940000D02*
X28687500Y-28940000D01*
X27887500Y-28940000D02*
X27087500Y-28940000D01*
X26587500Y-28990000D02*
X26347500Y-28660000D01*
X26827500Y-28660000D01*
X26587500Y-28990000D01*
G36*
X26587500Y-28990000D02*
G01*
X26347500Y-28660000D01*
X26827500Y-28660000D01*
X26587500Y-28990000D01*
G37*
%TD*%
M02*
