%TF.GenerationSoftware,KiCad,Pcbnew,7.0.11*%
%TF.CreationDate,2025-12-11T10:01:47-05:00*%
%TF.ProjectId,clock_hbridge_fix,636c6f63-6b5f-4686-9272-696467655f66,rev?*%
%TF.SameCoordinates,Original*%
%TF.FileFunction,Copper,L2,Bot*%
%TF.FilePolarity,Positive*%
%FSLAX46Y46*%
G04 Gerber Fmt 4.6, Leading zero omitted, Abs format (unit mm)*
G04 Created by KiCad (PCBNEW 7.0.11) date 2025-12-11 10:01:47*
%MOMM*%
%LPD*%
G01*
G04 APERTURE LIST*
%TA.AperFunction,ComponentPad*%
%ADD10R,1.700000X1.700000*%
%TD*%
%TA.AperFunction,ComponentPad*%
%ADD11O,1.700000X1.700000*%
%TD*%
%TA.AperFunction,ViaPad*%
%ADD12C,0.600000*%
%TD*%
%TA.AperFunction,Conductor*%
%ADD13C,1.000000*%
%TD*%
G04 APERTURE END LIST*
D10*
%TO.P,J2,1,Pin_1*%
%TO.N,-BATT*%
X22000000Y-18460000D03*
D11*
%TO.P,J2,2,Pin_2*%
%TO.N,+BATT*%
X22000000Y-21000000D03*
%TO.P,J2,3,Pin_3*%
X22000000Y-23540000D03*
%TO.P,J2,4,Pin_4*%
%TO.N,-BATT*%
X22000000Y-26080000D03*
%TD*%
D10*
%TO.P,J1,1,Pin_1*%
%TO.N,GND*%
X27750000Y-18500000D03*
D11*
%TO.P,J1,2,Pin_2*%
%TO.N,+2V5*%
X27750000Y-21040000D03*
%TO.P,J1,3,Pin_3*%
X27750000Y-23580000D03*
%TO.P,J1,4,Pin_4*%
%TO.N,GND*%
X27750000Y-26120000D03*
%TD*%
D12*
%TO.N,GND*%
X25000000Y-23000000D03*
X24750000Y-26500000D03*
X24750000Y-24750000D03*
X18000000Y-39250000D03*
X19250000Y-35750000D03*
X25250000Y-35250000D03*
X23000000Y-35500000D03*
X26000000Y-22250000D03*
X29250000Y-26000000D03*
X25750000Y-20000000D03*
X24750000Y-18750000D03*
%TO.N,+2V5*%
X21000000Y-31500000D03*
X27500000Y-31500000D03*
%TD*%
D13*
%TO.N,+2V5*%
X27750000Y-23580000D02*
X26420000Y-23580000D01*
X26000000Y-24000000D02*
X26000000Y-27500000D01*
X26000000Y-27500000D02*
X26750000Y-28250000D01*
X26420000Y-23580000D02*
X26000000Y-24000000D01*
X27750000Y-28500000D02*
X27750000Y-31250000D01*
X26750000Y-28250000D02*
X27500000Y-28250000D01*
X27500000Y-28250000D02*
X27750000Y-28500000D01*
X27750000Y-31250000D02*
X27500000Y-31500000D01*
%TO.N,-BATT*%
X22000000Y-26080000D02*
X23170000Y-26080000D01*
X23170000Y-26080000D02*
X23550000Y-25700000D01*
X23550000Y-25700000D02*
X23550000Y-18800000D01*
X23210000Y-18460000D02*
X22000000Y-18460000D01*
X23550000Y-18800000D02*
X23210000Y-18460000D01*
%TO.N,+2V5*%
X21000000Y-31500000D02*
X21250000Y-31500000D01*
X27500000Y-31500000D02*
X21000000Y-31500000D01*
X27500000Y-31500000D02*
X27750000Y-31500000D01*
%TD*%
%TA.AperFunction,Conductor*%
%TO.N,GND*%
G36*
X20823503Y-17020185D02*
G01*
X20869258Y-17072989D01*
X20879202Y-17142147D01*
X20850177Y-17205703D01*
X20830776Y-17223766D01*
X20792452Y-17252455D01*
X20706206Y-17367664D01*
X20706202Y-17367671D01*
X20655908Y-17502517D01*
X20649501Y-17562116D01*
X20649500Y-17562135D01*
X20649500Y-19357870D01*
X20649501Y-19357876D01*
X20655908Y-19417483D01*
X20706202Y-19552328D01*
X20706206Y-19552335D01*
X20792452Y-19667544D01*
X20792455Y-19667547D01*
X20907664Y-19753793D01*
X20907671Y-19753797D01*
X21039081Y-19802810D01*
X21095015Y-19844681D01*
X21119432Y-19910145D01*
X21104580Y-19978418D01*
X21083430Y-20006673D01*
X20961503Y-20128600D01*
X20825965Y-20322169D01*
X20825964Y-20322171D01*
X20726098Y-20536335D01*
X20726094Y-20536344D01*
X20664938Y-20764586D01*
X20664936Y-20764596D01*
X20644341Y-20999999D01*
X20644341Y-21000000D01*
X20664936Y-21235403D01*
X20664938Y-21235413D01*
X20726094Y-21463655D01*
X20726096Y-21463659D01*
X20726097Y-21463663D01*
X20744750Y-21503664D01*
X20825965Y-21677830D01*
X20825967Y-21677834D01*
X20961501Y-21871395D01*
X20961506Y-21871402D01*
X21128597Y-22038493D01*
X21128603Y-22038498D01*
X21314158Y-22168425D01*
X21357783Y-22223002D01*
X21364977Y-22292500D01*
X21333454Y-22354855D01*
X21314158Y-22371575D01*
X21128597Y-22501505D01*
X20961505Y-22668597D01*
X20825965Y-22862169D01*
X20825964Y-22862171D01*
X20726098Y-23076335D01*
X20726094Y-23076344D01*
X20664938Y-23304586D01*
X20664936Y-23304596D01*
X20644341Y-23539999D01*
X20644341Y-23540000D01*
X20664936Y-23775403D01*
X20664938Y-23775413D01*
X20726094Y-24003655D01*
X20726096Y-24003659D01*
X20726097Y-24003663D01*
X20744750Y-24043664D01*
X20825965Y-24217830D01*
X20825967Y-24217834D01*
X20961501Y-24411395D01*
X20961506Y-24411402D01*
X21128597Y-24578493D01*
X21128603Y-24578498D01*
X21314158Y-24708425D01*
X21357783Y-24763002D01*
X21364977Y-24832500D01*
X21333454Y-24894855D01*
X21314158Y-24911575D01*
X21128597Y-25041505D01*
X20961505Y-25208597D01*
X20825965Y-25402169D01*
X20825964Y-25402171D01*
X20726098Y-25616335D01*
X20726094Y-25616344D01*
X20664938Y-25844586D01*
X20664936Y-25844596D01*
X20644341Y-26079999D01*
X20644341Y-26080000D01*
X20664936Y-26315403D01*
X20664938Y-26315413D01*
X20726094Y-26543655D01*
X20726096Y-26543659D01*
X20726097Y-26543663D01*
X20744667Y-26583486D01*
X20825965Y-26757830D01*
X20825967Y-26757834D01*
X20911838Y-26880469D01*
X20961505Y-26951401D01*
X21128599Y-27118495D01*
X21185168Y-27158105D01*
X21322165Y-27254032D01*
X21322167Y-27254033D01*
X21322170Y-27254035D01*
X21536337Y-27353903D01*
X21764592Y-27415063D01*
X21952918Y-27431539D01*
X21999999Y-27435659D01*
X22000000Y-27435659D01*
X22000001Y-27435659D01*
X22039234Y-27432226D01*
X22235408Y-27415063D01*
X22463663Y-27353903D01*
X22677830Y-27254035D01*
X22871401Y-27118495D01*
X22873077Y-27116819D01*
X22873995Y-27116317D01*
X22875544Y-27115018D01*
X22875805Y-27115329D01*
X22934400Y-27083334D01*
X22960758Y-27080500D01*
X23155721Y-27080500D01*
X23158863Y-27080540D01*
X23246358Y-27082757D01*
X23246358Y-27082756D01*
X23246363Y-27082757D01*
X23304425Y-27072349D01*
X23313754Y-27071041D01*
X23372438Y-27065074D01*
X23401471Y-27055964D01*
X23416700Y-27052226D01*
X23446653Y-27046858D01*
X23446657Y-27046856D01*
X23446659Y-27046856D01*
X23501423Y-27024980D01*
X23510292Y-27021821D01*
X23566588Y-27004159D01*
X23593200Y-26989387D01*
X23607362Y-26982662D01*
X23635617Y-26971377D01*
X23684879Y-26938909D01*
X23692910Y-26934043D01*
X23744502Y-26905409D01*
X23744509Y-26905402D01*
X23744512Y-26905401D01*
X23767583Y-26885594D01*
X23780125Y-26876137D01*
X23805519Y-26859402D01*
X23847219Y-26817701D01*
X23854131Y-26811295D01*
X23878381Y-26790475D01*
X23898895Y-26772866D01*
X23917521Y-26748800D01*
X23927883Y-26737035D01*
X24247391Y-26417527D01*
X24249560Y-26415412D01*
X24313053Y-26355059D01*
X24346752Y-26306641D01*
X24352428Y-26299113D01*
X24389698Y-26253407D01*
X24403782Y-26226444D01*
X24411919Y-26213013D01*
X24429292Y-26188053D01*
X24429295Y-26188049D01*
X24452563Y-26133825D01*
X24456582Y-26125361D01*
X24483909Y-26073049D01*
X24492275Y-26043808D01*
X24497544Y-26029009D01*
X24509538Y-26001062D01*
X24509540Y-26001058D01*
X24521421Y-25943238D01*
X24523650Y-25934155D01*
X24539886Y-25877418D01*
X24542196Y-25847080D01*
X24544376Y-25831540D01*
X24550500Y-25801743D01*
X24550500Y-25742754D01*
X24550858Y-25733339D01*
X24555337Y-25674524D01*
X24551493Y-25644339D01*
X24550500Y-25628675D01*
X24550500Y-18814277D01*
X24550540Y-18811135D01*
X24552757Y-18723641D01*
X24552756Y-18723640D01*
X24552757Y-18723637D01*
X24542350Y-18665574D01*
X24541041Y-18656242D01*
X24535074Y-18597566D01*
X24535074Y-18597564D01*
X24535074Y-18597562D01*
X24525962Y-18568524D01*
X24522225Y-18553295D01*
X24516858Y-18523348D01*
X24494972Y-18468556D01*
X24491824Y-18459714D01*
X24474159Y-18403412D01*
X24459398Y-18376817D01*
X24452663Y-18362635D01*
X24441379Y-18334384D01*
X24441377Y-18334380D01*
X24408915Y-18285127D01*
X24404040Y-18277082D01*
X24375409Y-18225498D01*
X24355590Y-18202412D01*
X24346145Y-18189884D01*
X24329404Y-18164484D01*
X24287699Y-18122779D01*
X24281306Y-18115882D01*
X24242866Y-18071105D01*
X24218800Y-18052476D01*
X24207022Y-18042102D01*
X23927567Y-17762647D01*
X23925374Y-17760398D01*
X23865061Y-17696949D01*
X23865060Y-17696948D01*
X23865059Y-17696947D01*
X23816640Y-17663246D01*
X23809120Y-17657575D01*
X23763413Y-17620305D01*
X23763406Y-17620301D01*
X23736441Y-17606216D01*
X23723026Y-17598089D01*
X23698049Y-17580705D01*
X23698046Y-17580703D01*
X23698045Y-17580703D01*
X23698041Y-17580701D01*
X23643845Y-17557443D01*
X23635336Y-17553402D01*
X23583057Y-17526094D01*
X23583046Y-17526090D01*
X23553806Y-17517723D01*
X23539021Y-17512459D01*
X23511058Y-17500459D01*
X23453273Y-17488583D01*
X23444125Y-17486338D01*
X23385576Y-17469585D01*
X23326538Y-17432217D01*
X23303506Y-17393702D01*
X23293797Y-17367671D01*
X23293793Y-17367664D01*
X23207547Y-17252455D01*
X23169224Y-17223766D01*
X23127354Y-17167832D01*
X23122370Y-17098140D01*
X23155856Y-17036818D01*
X23217180Y-17003333D01*
X23243536Y-17000500D01*
X26560731Y-17000500D01*
X26627770Y-17020185D01*
X26673525Y-17072989D01*
X26683469Y-17142147D01*
X26654444Y-17205703D01*
X26635042Y-17223766D01*
X26542812Y-17292809D01*
X26542809Y-17292812D01*
X26456649Y-17407906D01*
X26456645Y-17407913D01*
X26406403Y-17542620D01*
X26406401Y-17542627D01*
X26400000Y-17602155D01*
X26400000Y-18250000D01*
X27316314Y-18250000D01*
X27290507Y-18290156D01*
X27250000Y-18428111D01*
X27250000Y-18571889D01*
X27290507Y-18709844D01*
X27316314Y-18750000D01*
X26400000Y-18750000D01*
X26400000Y-19397844D01*
X26406401Y-19457372D01*
X26406403Y-19457379D01*
X26456645Y-19592086D01*
X26456649Y-19592093D01*
X26542809Y-19707187D01*
X26542812Y-19707190D01*
X26657906Y-19793350D01*
X26657913Y-19793354D01*
X26789470Y-19842421D01*
X26845403Y-19884292D01*
X26869821Y-19949756D01*
X26854970Y-20018029D01*
X26833819Y-20046284D01*
X26711503Y-20168600D01*
X26575965Y-20362169D01*
X26575964Y-20362171D01*
X26476098Y-20576335D01*
X26476094Y-20576344D01*
X26414938Y-20804586D01*
X26414936Y-20804596D01*
X26394341Y-21039999D01*
X26394341Y-21040000D01*
X26414936Y-21275403D01*
X26414938Y-21275413D01*
X26476094Y-21503655D01*
X26476096Y-21503659D01*
X26476097Y-21503663D01*
X26557313Y-21677830D01*
X26575965Y-21717830D01*
X26575967Y-21717834D01*
X26711501Y-21911395D01*
X26711506Y-21911402D01*
X26878597Y-22078493D01*
X26878603Y-22078498D01*
X27064158Y-22208425D01*
X27107783Y-22263002D01*
X27114977Y-22332500D01*
X27083454Y-22394855D01*
X27064158Y-22411575D01*
X26878597Y-22541505D01*
X26876922Y-22543181D01*
X26876000Y-22543684D01*
X26874449Y-22544986D01*
X26874187Y-22544674D01*
X26815599Y-22576666D01*
X26789241Y-22579500D01*
X26434278Y-22579500D01*
X26431138Y-22579460D01*
X26343637Y-22577243D01*
X26343628Y-22577243D01*
X26285579Y-22587648D01*
X26276252Y-22588956D01*
X26217564Y-22594925D01*
X26217554Y-22594927D01*
X26188528Y-22604034D01*
X26173288Y-22607775D01*
X26143350Y-22613141D01*
X26088570Y-22635021D01*
X26079702Y-22638178D01*
X26023414Y-22655840D01*
X26023413Y-22655840D01*
X25996818Y-22670601D01*
X25982648Y-22677330D01*
X25954384Y-22688621D01*
X25905121Y-22721087D01*
X25897066Y-22725967D01*
X25845502Y-22754588D01*
X25845499Y-22754590D01*
X25822405Y-22774414D01*
X25809883Y-22783855D01*
X25784482Y-22800598D01*
X25784475Y-22800603D01*
X25742781Y-22842297D01*
X25735874Y-22848698D01*
X25691106Y-22887132D01*
X25691105Y-22887133D01*
X25672480Y-22911194D01*
X25662107Y-22922971D01*
X25302646Y-23282432D01*
X25300398Y-23284624D01*
X25237321Y-23344586D01*
X25236946Y-23344942D01*
X25203245Y-23393361D01*
X25197574Y-23400882D01*
X25160302Y-23446592D01*
X25160298Y-23446598D01*
X25146209Y-23473568D01*
X25138082Y-23486983D01*
X25120702Y-23511955D01*
X25097438Y-23566165D01*
X25093398Y-23574672D01*
X25066090Y-23626951D01*
X25066090Y-23626952D01*
X25057720Y-23656201D01*
X25052459Y-23670979D01*
X25040459Y-23698943D01*
X25028588Y-23756711D01*
X25026342Y-23765860D01*
X25010113Y-23822577D01*
X25007802Y-23852926D01*
X25005622Y-23868466D01*
X24999500Y-23898258D01*
X24999500Y-23957240D01*
X24999142Y-23966656D01*
X24994662Y-24025474D01*
X24998506Y-24055649D01*
X24999500Y-24071317D01*
X24999500Y-27485721D01*
X24999460Y-27488861D01*
X24997243Y-27576362D01*
X24997243Y-27576371D01*
X25007648Y-27634420D01*
X25008956Y-27643748D01*
X25014925Y-27702430D01*
X25014927Y-27702444D01*
X25024033Y-27731468D01*
X25027772Y-27746701D01*
X25033142Y-27776653D01*
X25033142Y-27776655D01*
X25055020Y-27831424D01*
X25058177Y-27840292D01*
X25075841Y-27896588D01*
X25075842Y-27896589D01*
X25075844Y-27896595D01*
X25090603Y-27923185D01*
X25097336Y-27937361D01*
X25108057Y-27964201D01*
X25108622Y-27965614D01*
X25108627Y-27965624D01*
X25141080Y-28014866D01*
X25145962Y-28022923D01*
X25174588Y-28074498D01*
X25174589Y-28074500D01*
X25174591Y-28074502D01*
X25194410Y-28097588D01*
X25203855Y-28110115D01*
X25220599Y-28135521D01*
X25262299Y-28177221D01*
X25268703Y-28184130D01*
X25290958Y-28210053D01*
X25307134Y-28228895D01*
X25331193Y-28247518D01*
X25342972Y-28257893D01*
X26032432Y-28947352D01*
X26034625Y-28949601D01*
X26094940Y-29013052D01*
X26094948Y-29013058D01*
X26143362Y-29046755D01*
X26150871Y-29052416D01*
X26196593Y-29089698D01*
X26223565Y-29103786D01*
X26236982Y-29111916D01*
X26261951Y-29129295D01*
X26316163Y-29152559D01*
X26324652Y-29156590D01*
X26376951Y-29183909D01*
X26398998Y-29190216D01*
X26406184Y-29192273D01*
X26420976Y-29197539D01*
X26448939Y-29209539D01*
X26448942Y-29209540D01*
X26506727Y-29221414D01*
X26515869Y-29223657D01*
X26572582Y-29239886D01*
X26602918Y-29242196D01*
X26618452Y-29244374D01*
X26648259Y-29250500D01*
X26648260Y-29250500D01*
X26650460Y-29250952D01*
X26712165Y-29283728D01*
X26746354Y-29344662D01*
X26749500Y-29372414D01*
X26749500Y-30375500D01*
X26729815Y-30442539D01*
X26677011Y-30488294D01*
X26625500Y-30499500D01*
X20949257Y-30499500D01*
X20797560Y-30514925D01*
X20603420Y-30575837D01*
X20603405Y-30575844D01*
X20425500Y-30674589D01*
X20425495Y-30674592D01*
X20271106Y-30807132D01*
X20271104Y-30807134D01*
X20146554Y-30968037D01*
X20146553Y-30968040D01*
X20056940Y-31150728D01*
X20005937Y-31347714D01*
X19995631Y-31550936D01*
X20026442Y-31752063D01*
X20026445Y-31752075D01*
X20097111Y-31942881D01*
X20097115Y-31942888D01*
X20204745Y-32115567D01*
X20204747Y-32115569D01*
X20204748Y-32115571D01*
X20344941Y-32263053D01*
X20473344Y-32352424D01*
X20511949Y-32379294D01*
X20511950Y-32379294D01*
X20511951Y-32379295D01*
X20698942Y-32459540D01*
X20898259Y-32500500D01*
X27398259Y-32500500D01*
X27485721Y-32500500D01*
X27488863Y-32500540D01*
X27576360Y-32502757D01*
X27576361Y-32502757D01*
X27576361Y-32502756D01*
X27576363Y-32502757D01*
X27577410Y-32502569D01*
X27578105Y-32502445D01*
X27599979Y-32500500D01*
X27800743Y-32500500D01*
X27952439Y-32485074D01*
X28146579Y-32424162D01*
X28146580Y-32424161D01*
X28146588Y-32424159D01*
X28324502Y-32325409D01*
X28478895Y-32192866D01*
X28603448Y-32031958D01*
X28693060Y-31849271D01*
X28744063Y-31652285D01*
X28754369Y-31449064D01*
X28747539Y-31404484D01*
X28748648Y-31360747D01*
X28750500Y-31351741D01*
X28750500Y-31292754D01*
X28750858Y-31283339D01*
X28755337Y-31224524D01*
X28751493Y-31194339D01*
X28750500Y-31178675D01*
X28750500Y-28514237D01*
X28750540Y-28511095D01*
X28752756Y-28423642D01*
X28752755Y-28423641D01*
X28752756Y-28423636D01*
X28742345Y-28365554D01*
X28741042Y-28356260D01*
X28735074Y-28297562D01*
X28733396Y-28292214D01*
X28725967Y-28268536D01*
X28722224Y-28253287D01*
X28716858Y-28223348D01*
X28711547Y-28210053D01*
X28694974Y-28168562D01*
X28691822Y-28159709D01*
X28674159Y-28103412D01*
X28674158Y-28103411D01*
X28674157Y-28103406D01*
X28659396Y-28076814D01*
X28652659Y-28062629D01*
X28641378Y-28034385D01*
X28641375Y-28034380D01*
X28608918Y-27985131D01*
X28604036Y-27977074D01*
X28596891Y-27964201D01*
X28575409Y-27925498D01*
X28555588Y-27902410D01*
X28546144Y-27889885D01*
X28529402Y-27864481D01*
X28487699Y-27822778D01*
X28481294Y-27815868D01*
X28459041Y-27789947D01*
X28442866Y-27771105D01*
X28418800Y-27752476D01*
X28407029Y-27742108D01*
X28232909Y-27567989D01*
X28199424Y-27506666D01*
X28204408Y-27436975D01*
X28246279Y-27381041D01*
X28268186Y-27367926D01*
X28427575Y-27293601D01*
X28427577Y-27293600D01*
X28621082Y-27158105D01*
X28788105Y-26991082D01*
X28923600Y-26797578D01*
X29023429Y-26583492D01*
X29023432Y-26583486D01*
X29080636Y-26370000D01*
X28183686Y-26370000D01*
X28209493Y-26329844D01*
X28250000Y-26191889D01*
X28250000Y-26048111D01*
X28209493Y-25910156D01*
X28183686Y-25870000D01*
X29080636Y-25870000D01*
X29080635Y-25869999D01*
X29023432Y-25656513D01*
X29023429Y-25656507D01*
X28923600Y-25442422D01*
X28923599Y-25442420D01*
X28788113Y-25248926D01*
X28788108Y-25248920D01*
X28621078Y-25081890D01*
X28435405Y-24951879D01*
X28391780Y-24897302D01*
X28384588Y-24827804D01*
X28416110Y-24765449D01*
X28435406Y-24748730D01*
X28621401Y-24618495D01*
X28788495Y-24451401D01*
X28924035Y-24257830D01*
X29023903Y-24043663D01*
X29085063Y-23815408D01*
X29105659Y-23580000D01*
X29085063Y-23344592D01*
X29023903Y-23116337D01*
X28924035Y-22902171D01*
X28913506Y-22887133D01*
X28788494Y-22708597D01*
X28621402Y-22541506D01*
X28621396Y-22541501D01*
X28435842Y-22411575D01*
X28392217Y-22356998D01*
X28385023Y-22287500D01*
X28416546Y-22225145D01*
X28435842Y-22208425D01*
X28492968Y-22168425D01*
X28621401Y-22078495D01*
X28788495Y-21911401D01*
X28924035Y-21717830D01*
X29023903Y-21503663D01*
X29085063Y-21275408D01*
X29105659Y-21040000D01*
X29085063Y-20804592D01*
X29023903Y-20576337D01*
X28924035Y-20362171D01*
X28896025Y-20322169D01*
X28788496Y-20168600D01*
X28748495Y-20128599D01*
X28666179Y-20046283D01*
X28632696Y-19984963D01*
X28637680Y-19915271D01*
X28679551Y-19859337D01*
X28710529Y-19842422D01*
X28842086Y-19793354D01*
X28842093Y-19793350D01*
X28957187Y-19707190D01*
X28957190Y-19707187D01*
X29043350Y-19592093D01*
X29043354Y-19592086D01*
X29093596Y-19457379D01*
X29093598Y-19457372D01*
X29099999Y-19397844D01*
X29100000Y-19397827D01*
X29100000Y-18750000D01*
X28183686Y-18750000D01*
X28209493Y-18709844D01*
X28250000Y-18571889D01*
X28250000Y-18428111D01*
X28209493Y-18290156D01*
X28183686Y-18250000D01*
X29100000Y-18250000D01*
X29100000Y-17602172D01*
X29099999Y-17602155D01*
X29093598Y-17542627D01*
X29093596Y-17542620D01*
X29043354Y-17407913D01*
X29043350Y-17407906D01*
X28957190Y-17292812D01*
X28957187Y-17292809D01*
X28864958Y-17223766D01*
X28823087Y-17167832D01*
X28818103Y-17098141D01*
X28851589Y-17036818D01*
X28912912Y-17003334D01*
X28939269Y-17000500D01*
X29625500Y-17000500D01*
X29692539Y-17020185D01*
X29738294Y-17072989D01*
X29749500Y-17124500D01*
X29749500Y-39625500D01*
X29729815Y-39692539D01*
X29677011Y-39738294D01*
X29625500Y-39749500D01*
X17624500Y-39749500D01*
X17557461Y-39729815D01*
X17511706Y-39677011D01*
X17500500Y-39625500D01*
X17500500Y-28624500D01*
X17520185Y-28557461D01*
X17572989Y-28511706D01*
X17624500Y-28500500D01*
X19821960Y-28500500D01*
X19821961Y-28500500D01*
X19848153Y-28492809D01*
X19865436Y-28489050D01*
X19869882Y-28488410D01*
X19892457Y-28485165D01*
X19917287Y-28473824D01*
X19933862Y-28467642D01*
X19960053Y-28459953D01*
X19983020Y-28445192D01*
X19998540Y-28436717D01*
X20023373Y-28425377D01*
X20044006Y-28407497D01*
X20058148Y-28396910D01*
X20081128Y-28382143D01*
X20099015Y-28361499D01*
X20111499Y-28349015D01*
X20132143Y-28331128D01*
X20146910Y-28308148D01*
X20157497Y-28294006D01*
X20175377Y-28273373D01*
X20186717Y-28248540D01*
X20195192Y-28233020D01*
X20209953Y-28210053D01*
X20217642Y-28183862D01*
X20223824Y-28167287D01*
X20235165Y-28142457D01*
X20239050Y-28115436D01*
X20242809Y-28098153D01*
X20250500Y-28071961D01*
X20250500Y-27928039D01*
X20250500Y-17124500D01*
X20270185Y-17057461D01*
X20322989Y-17011706D01*
X20374500Y-17000500D01*
X20756464Y-17000500D01*
X20823503Y-17020185D01*
G37*
%TD.AperFunction*%
%TD*%
M02*
