%TF.GenerationSoftware,KiCad,Pcbnew,7.0.11*%
%TF.CreationDate,2025-12-11T10:01:51-05:00*%
%TF.ProjectId,clock_hbridge_fix,636c6f63-6b5f-4686-9272-696467655f66,rev?*%
%TF.SameCoordinates,Original*%
%TF.FileFunction,Drillmap*%
%TF.FilePolarity,Positive*%
%FSLAX45Y45*%
G04 Gerber Fmt 4.5, Leading zero omitted, Abs format (unit mm)*
G04 Created by KiCad (PCBNEW 7.0.11) date 2025-12-11 10:01:51*
%MOMM*%
%LPD*%
G01*
G04 APERTURE LIST*
%ADD10C,0.050000*%
%ADD11C,0.200000*%
G04 APERTURE END LIST*
D10*
X3025000Y-1650000D02*
X1975000Y-1650000D01*
X3025000Y-4025000D02*
X3025000Y-1650000D01*
X1700000Y-4025000D02*
X3025000Y-4025000D01*
X1700000Y-2800000D02*
X1700000Y-4025000D01*
X1975000Y-2800000D02*
X1700000Y-2800000D01*
X1975000Y-1650000D02*
X1975000Y-2800000D01*
D11*
X1958277Y-4338984D02*
X1958277Y-4138984D01*
X1958277Y-4138984D02*
X2005896Y-4138984D01*
X2005896Y-4138984D02*
X2034467Y-4148508D01*
X2034467Y-4148508D02*
X2053515Y-4167555D01*
X2053515Y-4167555D02*
X2063039Y-4186603D01*
X2063039Y-4186603D02*
X2072562Y-4224698D01*
X2072562Y-4224698D02*
X2072562Y-4253270D01*
X2072562Y-4253270D02*
X2063039Y-4291365D01*
X2063039Y-4291365D02*
X2053515Y-4310412D01*
X2053515Y-4310412D02*
X2034467Y-4329460D01*
X2034467Y-4329460D02*
X2005896Y-4338984D01*
X2005896Y-4338984D02*
X1958277Y-4338984D01*
X2158277Y-4338984D02*
X2158277Y-4205650D01*
X2158277Y-4243746D02*
X2167801Y-4224698D01*
X2167801Y-4224698D02*
X2177324Y-4215174D01*
X2177324Y-4215174D02*
X2196372Y-4205650D01*
X2196372Y-4205650D02*
X2215420Y-4205650D01*
X2282086Y-4338984D02*
X2282086Y-4205650D01*
X2282086Y-4138984D02*
X2272563Y-4148508D01*
X2272563Y-4148508D02*
X2282086Y-4158031D01*
X2282086Y-4158031D02*
X2291610Y-4148508D01*
X2291610Y-4148508D02*
X2282086Y-4138984D01*
X2282086Y-4138984D02*
X2282086Y-4158031D01*
X2405896Y-4338984D02*
X2386848Y-4329460D01*
X2386848Y-4329460D02*
X2377324Y-4310412D01*
X2377324Y-4310412D02*
X2377324Y-4138984D01*
X2510658Y-4338984D02*
X2491610Y-4329460D01*
X2491610Y-4329460D02*
X2482086Y-4310412D01*
X2482086Y-4310412D02*
X2482086Y-4138984D01*
X2739229Y-4338984D02*
X2739229Y-4138984D01*
X2739229Y-4138984D02*
X2805896Y-4281841D01*
X2805896Y-4281841D02*
X2872562Y-4138984D01*
X2872562Y-4138984D02*
X2872562Y-4338984D01*
X3053515Y-4338984D02*
X3053515Y-4234222D01*
X3053515Y-4234222D02*
X3043991Y-4215174D01*
X3043991Y-4215174D02*
X3024943Y-4205650D01*
X3024943Y-4205650D02*
X2986848Y-4205650D01*
X2986848Y-4205650D02*
X2967801Y-4215174D01*
X3053515Y-4329460D02*
X3034467Y-4338984D01*
X3034467Y-4338984D02*
X2986848Y-4338984D01*
X2986848Y-4338984D02*
X2967801Y-4329460D01*
X2967801Y-4329460D02*
X2958277Y-4310412D01*
X2958277Y-4310412D02*
X2958277Y-4291365D01*
X2958277Y-4291365D02*
X2967801Y-4272317D01*
X2967801Y-4272317D02*
X2986848Y-4262793D01*
X2986848Y-4262793D02*
X3034467Y-4262793D01*
X3034467Y-4262793D02*
X3053515Y-4253270D01*
X3148753Y-4205650D02*
X3148753Y-4405650D01*
X3148753Y-4215174D02*
X3167801Y-4205650D01*
X3167801Y-4205650D02*
X3205896Y-4205650D01*
X3205896Y-4205650D02*
X3224943Y-4215174D01*
X3224943Y-4215174D02*
X3234467Y-4224698D01*
X3234467Y-4224698D02*
X3243991Y-4243746D01*
X3243991Y-4243746D02*
X3243991Y-4300889D01*
X3243991Y-4300889D02*
X3234467Y-4319936D01*
X3234467Y-4319936D02*
X3224943Y-4329460D01*
X3224943Y-4329460D02*
X3205896Y-4338984D01*
X3205896Y-4338984D02*
X3167801Y-4338984D01*
X3167801Y-4338984D02*
X3148753Y-4329460D01*
X3329705Y-4319936D02*
X3339229Y-4329460D01*
X3339229Y-4329460D02*
X3329705Y-4338984D01*
X3329705Y-4338984D02*
X3320182Y-4329460D01*
X3320182Y-4329460D02*
X3329705Y-4319936D01*
X3329705Y-4319936D02*
X3329705Y-4338984D01*
X3329705Y-4215174D02*
X3339229Y-4224698D01*
X3339229Y-4224698D02*
X3329705Y-4234222D01*
X3329705Y-4234222D02*
X3320182Y-4224698D01*
X3320182Y-4224698D02*
X3329705Y-4215174D01*
X3329705Y-4215174D02*
X3329705Y-4234222D01*
M02*
